<?xml version="1.0" encoding="utf-8"?>
<!-- Generator: Adobe Illustrator 24.0.3, SVG Export Plug-In . SVG Version: 6.00 Build 0)  -->
<svg version="1.1" id="Layer_1" xmlns="http://www.w3.org/2000/svg" xmlns:xlink="http://www.w3.org/1999/xlink" x="0px" y="0px"
	 viewBox="0 0 100 100" style="enable-background:new 0 0 100 100;" xml:space="preserve">
<style type="text/css">
	.st0{fill:#FFFFFF;}
	.st1{fill:#005B50;}
	.st2{fill:url(#SVGID_1_);}
</style>
<g id="_1.0-stq-3339-icon-iq" transform="translate(0 -1)">
	<rect id="Rectangle_3652" y="1" class="st0" width="100" height="100"/>
	<g id="Group_3370" transform="translate(0 12)">
		<path id="Path_10569" class="st1" d="M18.6,28.8c0-2.3,0.7-3.9,2-4.9c1.6-1,3.5-1.5,5.4-1.4c1.5,0,2.9,0.2,4.4,0.6
			c1.3,0.4,2.1,0.6,2.5,0.8v46.9H18.6V28.8z"/>
		<path id="Path_10570" class="st1" d="M85.1,56.1c1.3-3,1.9-6.2,1.9-9.4c0-6.5-2.6-12.7-7.2-17.2c-2.3-2.2-5-3.9-7.9-5.1
			c-6.3-2.5-13.3-2.5-19.5,0c-2.9,1.2-5.6,2.9-7.9,5.1c-7.1,7-9.1,17.6-5.3,26.8c1.2,2.9,3,5.5,5.3,7.6c2.3,2.2,5,3.9,7.9,5.1
			c4.7,1.8,9.8,2.3,14.7,1.4c1.1-0.2,2.2-0.5,3.3-0.8l6,7.8l10.2-7.8l-5.6-6.9C82.6,60.7,84.1,58.5,85.1,56.1z M62.6,47.9
			c-0.9,0.5-1.7,1.1-2.4,2c-0.7,1-1.1,2.2-1.1,3.4c0,1.1,0.4,2.2,1,3.1c0.5,0.7,0.9,1.4,1.4,2c-2.8-0.1-5.4-1.3-7.3-3.3
			c-1-1.1-1.7-2.3-2.3-3.7c-1.1-3-1.1-6.3,0-9.2c0.5-1.3,1.3-2.6,2.3-3.6c1-1,2.1-1.8,3.4-2.4c2.8-1.1,6-1.1,8.8,0
			c1.3,0.5,2.5,1.4,3.4,2.4c1,1.1,1.7,2.3,2.3,3.6c0.6,1.5,0.8,3,0.8,4.6c0,1.4-0.2,2.7-0.5,4c-0.1,0.3-0.2,0.6-0.3,0.8l-3.7-4.9
			h-0.7c-0.8,0-1.6,0.1-2.5,0.2C64.4,47.1,63.4,47.4,62.6,47.9z"/>
		
			<linearGradient id="SVGID_1_" gradientUnits="userSpaceOnUse" x1="26.7665" y1="48.266" x2="100.5665" y2="-2.114" gradientTransform="matrix(1 8.000000e-02 -8.000000e-02 1 -12.42 -13.39)">
			<stop  offset="0.37" style="stop-color:#005D55"/>
			<stop  offset="0.45" style="stop-color:#268045"/>
			<stop  offset="0.55" style="stop-color:#4AA235"/>
			<stop  offset="0.63" style="stop-color:#61B62C"/>
			<stop  offset="0.68" style="stop-color:#69BE28"/>
			<stop  offset="1" style="stop-color:#DFDF00"/>
		</linearGradient>
		<path class="st2" d="M94.3,16.6l-3.7-2.1l-0.5-0.3L89.6,14l-1-0.5l-2.3-1.1c-0.8-0.4-1.7-0.7-2.7-1.1l-1.5-0.6
			c-0.5-0.2-1-0.4-1.5-0.6l-3.3-1.2l-0.9-0.3l-0.9-0.3l-1.8-0.5l-1.9-0.6c-0.6-0.2-1.3-0.3-2-0.5c-1.3-0.3-2.7-0.7-4.1-1L61.5,5
			c-1.5-0.3-2.9-0.4-4.4-0.6c-0.7-0.1-1.5-0.2-2.2-0.3l-2.3-0.2l-1.2-0.1l-1.1-0.1L48,3.6c-1.5-0.1-3.1-0.1-4.6-0.1s-3,0-4.5,0.1
			s-3,0.1-4.5,0.3L32.2,4L30,4.3c-2.9,0.3-5.6,0.9-8.2,1.4c-1.3,0.3-2.5,0.6-3.8,0.9s-2.4,0.7-3.5,1s-2.2,0.7-3.1,1.1L8.7,9.7
			l-2.4,1.1c-0.7,0.3-1.4,0.7-2,1C3,12.4,2.1,13,1.5,13.3l-1,0.5l0.9-0.6c0.6-0.4,1.5-1,2.7-1.7c0.6-0.3,1.2-0.8,2-1.1l2.3-1.2
			l2.7-1.3c1-0.4,2-0.9,3.1-1.3s2.2-0.8,3.4-1.3s2.5-0.8,3.7-1.2c2.6-0.7,5.4-1.5,8.2-2l2.2-0.4l2.2-0.4c1.5-0.3,3-0.4,4.6-0.6
			s3.1-0.3,4.7-0.4s3.1-0.2,4.7-0.2h4.7h2.3c0.8,0,1.6,0.1,2.4,0.1c1.5,0.1,3.1,0.2,4.6,0.3L66.6,1c1.5,0.2,2.9,0.5,4.3,0.7
			C71.6,1.9,72.3,2,73,2.1l2,0.4L77,3l1,0.2l0.9,0.3l3.6,1c0.6,0.1,1.1,0.3,1.7,0.5l1.6,0.5c1,0.4,2,0.6,3,1l2.6,1L92.6,8l0.5,0.2
			l0.5,0.2l3.9,1.8c1.7,0.9,2.4,3.1,1.4,4.8c-0.9,1.6-2.8,2.3-4.4,1.6L94.3,16.6L94.3,16.6z"/>
	</g>
</g>
</svg>
