<svg xmlns="http://www.w3.org/2000/svg" xmlns:xlink="http://www.w3.org/1999/xlink" width="107.705" height="101" viewBox="0 0 107.705 101"><defs><linearGradient id="a" x1="0.227" y1="3.655" x2="0.973" y2="0.695" gradientUnits="objectBoundingBox"><stop offset="0.368" stop-color="#005d55"/><stop offset="0.452" stop-color="#257f44"/><stop offset="0.548" stop-color="#4aa135"/><stop offset="0.626" stop-color="#60b62b"/><stop offset="0.676" stop-color="#69be28"/><stop offset="1" stop-color="#dfdf00"/></linearGradient></defs><g transform="translate(-259.295 -1820)"><g transform="translate(259.295 1820)"><rect width="107" height="101" transform="translate(0.705)" fill="#f8f8f8"/><g transform="translate(0 10.861)"><path d="M145.481,37.536q0-3.47,2.045-4.893a9.332,9.332,0,0,1,5.423-1.421,15.31,15.31,0,0,1,4.357.577q1.957.579,2.491.755V79.46H145.481Z" transform="translate(-126.808 -8.704)" fill="#005b50"/><path d="M202.953,64.863a23.323,23.323,0,0,0,1.921-9.422,23.816,23.816,0,0,0-7.2-17.239,24.916,24.916,0,0,0-7.909-5.135,26.52,26.52,0,0,0-19.543,0,24.905,24.905,0,0,0-7.913,5.133,24.345,24.345,0,0,0-5.277,26.754,23.535,23.535,0,0,0,5.283,7.637,24.705,24.705,0,0,0,7.915,5.064,27,27,0,0,0,14.688,1.413,20.922,20.922,0,0,0,3.3-.843l5.962,7.795,10.181-7.8-5.612-6.9A22.782,22.782,0,0,0,202.953,64.863ZM180.431,56.6a7,7,0,0,0-2.351,1.951,5.4,5.4,0,0,0-1.062,3.389,5.614,5.614,0,0,0,1.029,3.074c.451.688.926,1.358,1.427,2.02a10.459,10.459,0,0,1-7.314-3.31,11.417,11.417,0,0,1-2.264-3.667,13.549,13.549,0,0,1,0-9.239,11.094,11.094,0,0,1,2.256-3.626,10.309,10.309,0,0,1,3.432-2.376,11.712,11.712,0,0,1,8.816,0,10.253,10.253,0,0,1,3.432,2.374,11.027,11.027,0,0,1,2.258,3.628,12.825,12.825,0,0,1,.814,4.619,14.291,14.291,0,0,1-.542,4.043c-.085.3-.171.577-.266.837L186.4,55.432h-.727a14.748,14.748,0,0,0-2.461.242A9.828,9.828,0,0,0,180.431,56.6Z" transform="translate(-117.46 -8.725)" fill="#005b50"/><path d="M128.441,18.15l-3.792-2.1c-.151-.084-.305-.17-.464-.256l-.473-.227-1.014-.487q-1.061-.512-2.287-1.105c-.81-.4-1.756-.745-2.707-1.157l-1.481-.616c-.5-.213-1.022-.431-1.567-.61L111.28,10.4l-.885-.309-.914-.27-1.872-.554-1.924-.57c-.651-.19-1.324-.328-2-.5-1.352-.313-2.727-.687-4.144-.97l-4.333-.817c-1.467-.263-2.97-.423-4.478-.644-.744-.093-1.539-.231-2.251-.289l-2.34-.219-1.174-.109-1.151-.069-2.3-.135c-1.541-.077-3.1-.085-4.648-.124-1.545.033-3.092.012-4.618.09s-3.052.127-4.547.281l-2.232.191q-1.1.137-2.191.271c-2.9.348-5.685.872-8.314,1.423-1.308.3-2.572.622-3.8.924-1.211.358-2.392.678-3.512,1.031-1.109.381-2.185.722-3.191,1.091-1,.389-1.946.758-2.837,1.1l-2.45,1.086c-.758.334-1.425.7-2.044,1-1.243.6-2.164,1.167-2.808,1.526l-.985.562.942-.63c.618-.4,1.5-1.041,2.7-1.726.6-.346,1.243-.765,1.98-1.155l2.388-1.265L44.131,9.31c.988-.445,2.047-.865,3.145-1.331,1.109-.436,2.28-.847,3.485-1.3,1.221-.395,2.483-.815,3.792-1.209,2.629-.75,5.428-1.485,8.362-2.048l2.219-.436L67.4,2.63c1.52-.265,3.068-.421,4.632-.616s3.144-.282,4.732-.429c1.592-.072,3.185-.178,4.795-.211l2.421-.029,1.208-.012,1.179.027,2.351.052c.849.011,1.6.092,2.4.134,1.576.117,3.146.176,4.689.341s3.066.356,4.566.529c1.5.191,2.957.477,4.4.705.716.128,1.431.224,2.128.375s1.385.3,2.063.455l2.008.443.984.217.954.259,3.662,1.01c.591.151,1.157.341,1.71.53l1.622.542c1.055.369,2.06.657,3,1.04l2.643,1.053,1.176.472.547.221.482.224,3.933,1.828a3.571,3.571,0,0,1-3.013,6.475c-.073-.034-.146-.072-.216-.109Z" transform="translate(-33.336 -1.334)" fill="url(#a)"/></g></g></g></svg>