<svg xmlns="http://www.w3.org/2000/svg" width="26.675" height="22.967" viewBox="0 0 26.675 22.967">
  <g id="Group_15867" data-name="Group 15867" transform="translate(-100.709 -128.329)">
    <path id="Path_136077" data-name="Path 136077" d="M125.069,133.009h-4.387c0-.025,0-.05,0-.076v-.873a3.735,3.735,0,0,0-3.731-3.731H111.14a3.735,3.735,0,0,0-3.731,3.731v.873c0,.025,0,.051,0,.076h-4.387a2.315,2.315,0,0,0-2.315,2.315V148.98a2.315,2.315,0,0,0,2.315,2.315h22.045a2.315,2.315,0,0,0,2.315-2.315V135.324A2.315,2.315,0,0,0,125.069,133.009Zm-15.29-.949a1.363,1.363,0,0,1,1.361-1.361h5.813a1.363,1.363,0,0,1,1.361,1.361v.873c0,.025,0,.051,0,.076h-8.531c0-.025,0-.05,0-.076Zm4.268,16.429c-1.246-1.958-4.32-6.024-4.32-8.116a4.32,4.32,0,1,1,8.64,0C118.367,142.465,115.293,146.531,114.047,148.489Z" fill="#fff"/>
    <path id="Path_136078" data-name="Path 136078" d="M271.664,277.9a2.039,2.039,0,1,0,2.039,2.039A2.038,2.038,0,0,0,271.664,277.9Z" transform="translate(-157.617 -139.567)" fill="#fff"/>
  </g>
</svg>
