<svg id="Component_186_2" data-name="Component 186 – 2" xmlns="http://www.w3.org/2000/svg" width="27.372" height="21.828" viewBox="0 0 27.372 21.828">
  <g id="Group_15866" data-name="Group 15866" transform="translate(-465.445 -879.491)">
    <path id="Path_136073" data-name="Path 136073" d="M492.817,957.534a1.4,1.4,0,0,0-1.4-1.4h-1.707V957.3a1.848,1.848,0,0,1-3.7,0v-1.164H480.98V957.3a1.848,1.848,0,0,1-3.7,0v-1.164h-5.032V957.3a1.848,1.848,0,0,1-3.7,0v-1.164h-1.707a1.4,1.4,0,0,0-1.4,1.4v17.107a1.4,1.4,0,0,0,1.4,1.4h24.568a1.4,1.4,0,0,0,1.4-1.4m-8.215-8.36-2.461,2.4.581,3.387a.22.22,0,0,1-.32.232l-3.042-1.6-3.042,1.6a.22.22,0,0,1-.32-.232l.581-3.387-2.461-2.4a.22.22,0,0,1,.122-.376l3.4-.494,1.521-3.082a.22.22,0,0,1,.4,0l1.521,3.082,3.4.494a.22.22,0,0,1,.122.376Z" transform="translate(0 -74.725)" fill="#fff"/>
    <path id="Path_136074" data-name="Path 136074" d="M629.924,883.165a.868.868,0,0,0,.867-.867v-1.94a.867.867,0,0,0-1.734,0v1.94A.868.868,0,0,0,629.924,883.165Z" transform="translate(-159.521)" fill="#fff"/>
    <path id="Path_136075" data-name="Path 136075" d="M979.033,883.165a.868.868,0,0,0,.867-.867v-1.94a.867.867,0,0,0-1.734,0v1.94A.868.868,0,0,0,979.033,883.165Z" transform="translate(-499.902)" fill="#fff"/>
    <path id="Path_136076" data-name="Path 136076" d="M1328.143,883.165a.868.868,0,0,0,.867-.867v-1.94a.867.867,0,0,0-1.734,0v1.94A.868.868,0,0,0,1328.143,883.165Z" transform="translate(-840.283)" fill="#fff"/>
  </g>
</svg>
