<svg xmlns="http://www.w3.org/2000/svg" width="26.998" height="26.998" viewBox="0 0 26.998 26.998">
  <g id="Component_186_5" data-name="Component 186 – 5" transform="translate(0.5 0.5)">
    <g id="Heart" transform="translate(-79 -53.001)">
      <path id="Subtraction_1" data-name="Subtraction 1" d="M-14920,4107a12.881,12.881,0,0,1-7.8-2.6l-2.6-2.6a12.873,12.873,0,0,1-2.6-7.8,12.919,12.919,0,0,1,3.808-9.193A12.918,12.918,0,0,1-14920,4081a12.915,12.915,0,0,1,9.19,3.808A12.916,12.916,0,0,1-14907,4094a12.908,12.908,0,0,1-3.807,9.189A12.912,12.912,0,0,1-14920,4107Zm-1.833-12.648v7.443h2.973v-7.443h2.473l.371-2.9h-2.844V4089.6c0-.848.242-1.413,1.424-1.413h1.521v-2.593a19.514,19.514,0,0,0-2.219-.116,3.681,3.681,0,0,0-2.673.987,3.906,3.906,0,0,0-1.026,2.847v2.14h-2.48v2.9Z" transform="translate(15012 -4028)" fill="#fff" stroke="rgba(0,0,0,0)" stroke-miterlimit="10" stroke-width="1"/>
    </g>
  </g>
</svg>
