<svg xmlns="http://www.w3.org/2000/svg" width="25.844" height="23.33" viewBox="0 0 25.844 23.33">
  <g id="Component_186_4" data-name="Component 186 – 4" transform="translate(0.25 0.25)">
    <path id="Path_136079" data-name="Path 136079" d="M210.963,220.49q3.776,3.75,7.541,7.511l.067.068a7.1,7.1,0,0,0-10.063-10.021l-.605.605-2.012,2.009a1.732,1.732,0,1,0,2.451,2.449l2.623-2.621Zm-2.754,14.9-1.574,1.575a1.066,1.066,0,0,0,1.507,1.507l1.574-1.575a1.066,1.066,0,0,0-1.507-1.507Zm-2.133-2.133-1.575,1.574a1.066,1.066,0,1,0,1.507,1.507l1.575-1.575a1.065,1.065,0,0,0-1.507-1.505Zm-2.135-2.135-1.574,1.574a1.066,1.066,0,1,0,1.507,1.507l1.574-1.574a1.066,1.066,0,0,0-1.507-1.507Zm-2.2.947,1.584-1.584c.881-1.012-.5-2.518-1.518-1.5l-1.581,1.582a1.056,1.056,0,0,0-.305.746,1.067,1.067,0,0,0,1.819.754Zm4.219-1.7q2.537,2.553,5.077,5.1c1.3,1.3,2.926-.8,1.863-1.863l-4.328-4.326-.949-.949a.444.444,0,0,1,.628-.628l.949.949,3.168,3.169,1.158,1.16a1.317,1.317,0,0,0,1.863-1.863l-5.277-5.276a.444.444,0,0,1,.628-.628l5.276,5.277a1.317,1.317,0,0,0,1.863-1.863q-3.45-3.448-6.911-6.888l-2,2a2.619,2.619,0,1,1-3.7-3.7l2.011-2.011a7.1,7.1,0,0,0-9.963,10.121l2.063,2.063.23-.277,1.575-1.575a1.96,1.96,0,0,1,3.325,1.572,1.608,1.608,0,0,1,1.454.442Z" transform="translate(-195.229 -216.023)" fill="#fff" stroke="#00a8e1" stroke-width="0.5" fill-rule="evenodd"/>
  </g>
</svg>
