<svg id="Group_16437" data-name="Group 16437" xmlns="http://www.w3.org/2000/svg" xmlns:xlink="http://www.w3.org/1999/xlink" width="29.317" height="29.398" viewBox="0 0 29.317 29.398">
  <defs>
    <clipPath id="clip-path">
      <rect id="Rectangle_4792" data-name="Rectangle 4792" width="29.317" height="29.398" fill="none"/>
    </clipPath>
  </defs>
  <g id="Group_16437-2" data-name="Group 16437" clip-path="url(#clip-path)">
    <path id="Path_136705" data-name="Path 136705" d="M23.412,17.588a5.9,5.9,0,0,0-4.81,2.492l-5.046-2.731a7.016,7.016,0,0,0,.014-5.371L18.586,9.3a5.943,5.943,0,1,0-.673-1.254L12.9,10.72a7.049,7.049,0,1,0-.023,7.88l5.043,2.73a5.9,5.9,0,1,0,5.491-3.743m-2.551-8v-.74a1.031,1.031,0,0,1,1.03-1.03h3.042a1.031,1.031,0,0,1,1.03,1.03v.741a4.459,4.459,0,0,1-5.1,0m1.293-4.544a1.261,1.261,0,1,1,2.516,0,1.261,1.261,0,1,1-2.516,0m1.259-3.618a4.473,4.473,0,0,1,3.866,6.738,2.447,2.447,0,0,0-1.605-1.644,2.81,2.81,0,0,0,.421-1.476,2.684,2.684,0,1,0-5.365,0,2.808,2.808,0,0,0,.421,1.476,2.447,2.447,0,0,0-1.605,1.644,4.473,4.473,0,0,1,3.866-6.738M7.048,9.019a5.616,5.616,0,0,1,4.882,8.406,3.013,3.013,0,0,0-2.249-2.08,3.475,3.475,0,0,0,.683-2.063A3.378,3.378,0,0,0,7.048,9.852a3.379,3.379,0,0,0-3.317,3.431,3.473,3.473,0,0,0,.683,2.062,3.013,3.013,0,0,0-2.249,2.079A5.615,5.615,0,0,1,7.048,9.019m-.1,6.26a2.009,2.009,0,0,1,.1-4,2.009,2.009,0,0,1,.1,4Zm-3.5,3.68v-.665A1.592,1.592,0,0,1,5.037,16.7H6.949c.034,0,.066.01.1.01s.066-.009.1-.01H9.059a1.592,1.592,0,0,1,1.589,1.59v.666a5.607,5.607,0,0,1-7.2,0m17.413,8.214v-.74a1.031,1.031,0,0,1,1.03-1.03h3.042a1.031,1.031,0,0,1,1.03,1.03v.74a4.461,4.461,0,0,1-5.1,0m1.293-4.544a1.261,1.261,0,1,1,1.259,1.345,1.306,1.306,0,0,1-1.259-1.345m5.124,3.121a2.447,2.447,0,0,0-1.605-1.644,2.81,2.81,0,0,0,.422-1.477,2.684,2.684,0,1,0-5.365,0,2.808,2.808,0,0,0,.422,1.477,2.447,2.447,0,0,0-1.605,1.644,4.482,4.482,0,1,1,7.732,0" fill="#fff"/>
  </g>
</svg>
