<svg xmlns="http://www.w3.org/2000/svg" width="21.75" height="20.75" viewBox="0 0 21.75 20.75"><g transform="translate(-89.9 -384.655)"><g transform="translate(-2.801 -6)"><path d="M.313,10.631a.65.65,0,0,0-.026,1.1.739.739,0,0,0,1.149,0L6.745,6.548a.715.715,0,0,0,0-1.1L1.436.274a.739.739,0,0,0-1.149,0,.65.65,0,0,0,.026,1.1L5.009,6Z" transform="translate(109.576 400.53) rotate(90)" fill="#fff"/><path d="M0,14.875A.875.875,0,0,1-.875,14V0A.875.875,0,0,1,0-.875.875.875,0,0,1,.875,0V14A.875.875,0,0,1,0,14.875Z" transform="translate(103.575 391.53)" fill="#fff"/></g><path d="M110.775,425.405h-20a.875.875,0,0,1-.875-.875v-12a.875.875,0,0,1,1.75,0v11.125H109.9V412.53a.875.875,0,0,1,1.75,0v12A.875.875,0,0,1,110.775,425.405Z" transform="translate(0 -20)" fill="#fff"/></g></svg>