<svg id="_3.2-stq-3339-img-stq-brochure" data-name="3.2-stq-3339-img-stq-brochure" xmlns="http://www.w3.org/2000/svg" xmlns:xlink="http://www.w3.org/1999/xlink" width="326" height="260" viewBox="0 0 326 260">
  <defs>
    <clipPath id="clip-path">
      <path id="Path_124212" data-name="Path 124212" d="M0,31.34H64.4V-33.581H0Z" transform="translate(0 33.581)" fill="none"/>
    </clipPath>
    <clipPath id="clip-path-2">
      <rect id="Rectangle_4446" data-name="Rectangle 4446" width="126696.852" height="126696.852" fill="none"/>
    </clipPath>
  </defs>
  <rect id="Rectangle_1718" data-name="Rectangle 1718" width="326" height="260" fill="#fafafa"/>
  <g id="Group_13964" data-name="Group 13964" transform="translate(42 56.666)">
    <path id="Path_136714" data-name="Path 136714" d="M5.12-44.8A1.77,1.77,0,0,0,3.2-42.816v40.9A1.752,1.752,0,0,0,5.12,0h7.168a1.7,1.7,0,0,0,1.92-1.92V-12.16a1.723,1.723,0,0,1,1.92-1.92H19.2c11.392,0,16-4.864,16-15.36S30.592-44.8,19.2-44.8ZM16.128-25.088a1.752,1.752,0,0,1-1.92-1.92v-4.864a1.723,1.723,0,0,1,1.92-1.92h3.456c3.072,0,4.608.384,4.608,4.352s-1.536,4.352-4.608,4.352ZM67.968-44.8a1.7,1.7,0,0,1,1.92,1.92v7.168a1.723,1.723,0,0,1-1.92,1.92H52.48a1.723,1.723,0,0,0-1.92,1.92v2.048a1.752,1.752,0,0,0,1.92,1.92H62.4a1.7,1.7,0,0,1,1.92,1.92v7.168A1.723,1.723,0,0,1,62.4-16.9H52.48a1.723,1.723,0,0,0-1.92,1.92v2.048a1.752,1.752,0,0,0,1.92,1.92H67.968a1.7,1.7,0,0,1,1.92,1.92V-1.92A1.7,1.7,0,0,1,67.968,0H41.088a1.752,1.752,0,0,1-1.92-1.92V-42.88a1.723,1.723,0,0,1,1.92-1.92Zm35.648,0a1.7,1.7,0,0,1,1.92,1.92v7.168a1.723,1.723,0,0,1-1.92,1.92H88.128a1.723,1.723,0,0,0-1.92,1.92v2.048a1.752,1.752,0,0,0,1.92,1.92h9.92a1.7,1.7,0,0,1,1.92,1.92v7.168a1.723,1.723,0,0,1-1.92,1.92h-9.92a1.723,1.723,0,0,0-1.92,1.92v2.048a1.752,1.752,0,0,0,1.92,1.92h15.488a1.7,1.7,0,0,1,1.92,1.92V-1.92A1.7,1.7,0,0,1,103.616,0H76.736a1.752,1.752,0,0,1-1.92-1.92V-42.88a1.723,1.723,0,0,1,1.92-1.92Zm33.792,28.736a.678.678,0,0,1,.192-.832c3.392-2.432,4.864-6.592,4.864-12.544,0-10.5-4.608-15.36-16-15.36H112.448a1.916,1.916,0,0,0-1.984,1.984V-1.984A1.916,1.916,0,0,0,112.448,0h7.168A1.916,1.916,0,0,0,121.6-1.984V-12.1a1.916,1.916,0,0,1,1.984-1.984h2.56a.653.653,0,0,1,.512.32L133.312-.9a1.561,1.561,0,0,0,1.472.9h7.3a2.268,2.268,0,0,0,2.112-3.456Zm-10.56-17.728c3.072,0,4.608.384,4.608,4.352s-1.536,4.352-4.608,4.352h-3.264a1.916,1.916,0,0,1-1.984-1.984v-4.736a1.916,1.916,0,0,1,1.984-1.984Z" transform="translate(50 46.334)" fill="#0f417e"/>
    <path id="Path_136713" data-name="Path 136713" d="M20.181-5.642a7.835,7.835,0,0,1-3.193,4.448A9.785,9.785,0,0,1,11.5.31,10.408,10.408,0,0,1,6.262-.961,8.464,8.464,0,0,1,2.836-4.6,12.379,12.379,0,0,1,1.643-10.23a12.379,12.379,0,0,1,1.193-5.626A8.491,8.491,0,0,1,6.247-19.5a10.258,10.258,0,0,1,5.192-1.271,10.317,10.317,0,0,1,5.41,1.333A6.875,6.875,0,0,1,19.9-15.469l-3.875,1.643a4.757,4.757,0,0,0-1.55-2.635,4.583,4.583,0,0,0-2.852-.806,4.944,4.944,0,0,0-4.076,1.829A8.119,8.119,0,0,0,6.076-10.23,8.309,8.309,0,0,0,7.5-5.022a4.814,4.814,0,0,0,4.03,1.829A4.435,4.435,0,0,0,16.244-6.82ZM30.845-15.81a7.8,7.8,0,0,1,5.844,2.139A8.105,8.105,0,0,1,38.781-7.75a8.105,8.105,0,0,1-2.092,5.921A7.8,7.8,0,0,1,30.845.31,7.8,7.8,0,0,1,25-1.829,8.105,8.105,0,0,1,22.909-7.75,8.105,8.105,0,0,1,25-13.671,7.8,7.8,0,0,1,30.845-15.81Zm0,3.162A3.257,3.257,0,0,0,28.1-11.424a5.958,5.958,0,0,0-.945,3.674A5.958,5.958,0,0,0,28.1-4.076a3.257,3.257,0,0,0,2.743,1.224,3.257,3.257,0,0,0,2.744-1.224,5.958,5.958,0,0,0,.945-3.674,5.958,5.958,0,0,0-.945-3.674A3.257,3.257,0,0,0,30.845-12.648ZM51.987-15.81a5.633,5.633,0,0,1,4.046,1.457,5.5,5.5,0,0,1,1.535,4.185V0H53.32V-8.928q0-3.534-2.759-3.534a3.413,3.413,0,0,0-2.526,1.054A4.429,4.429,0,0,0,47-8.184V0H42.749V-15.5h3.813l.124,2.759a5.358,5.358,0,0,1,2.139-2.294A6.29,6.29,0,0,1,51.987-15.81Zm19.5,0a5.633,5.633,0,0,1,4.046,1.457,5.5,5.5,0,0,1,1.535,4.185V0H72.819V-8.928q0-3.534-2.759-3.534a3.413,3.413,0,0,0-2.526,1.054,4.429,4.429,0,0,0-1.039,3.224V0H62.248V-15.5h3.813l.124,2.759a5.358,5.358,0,0,1,2.139-2.294A6.29,6.29,0,0,1,71.486-15.81Zm24.738,8A11,11,0,0,1,96.1-6.138H85.126A3.616,3.616,0,0,0,89-2.852a4.391,4.391,0,0,0,2.2-.5,2.645,2.645,0,0,0,1.209-1.426L95.883-3.5a5.493,5.493,0,0,1-2.5,2.836A8.916,8.916,0,0,1,89,.31a8.015,8.015,0,0,1-5.952-2.123A8.059,8.059,0,0,1,80.941-7.75a8.2,8.2,0,0,1,2.046-5.937,7.632,7.632,0,0,1,5.766-2.123,7.2,7.2,0,0,1,5.534,2.077A8.359,8.359,0,0,1,96.224-7.812Zm-7.5-4.867a3.363,3.363,0,0,0-2.465.9A4.5,4.5,0,0,0,85.1-9.114h7.223a4.488,4.488,0,0,0-1.178-2.65A3.3,3.3,0,0,0,88.722-12.679ZM107.2-15.81a8,8,0,0,1,4.774,1.24,6.164,6.164,0,0,1,2.325,3.317l-3.968,1.426q-.558-2.821-3.007-2.821a3.343,3.343,0,0,0-2.806,1.255,5.9,5.9,0,0,0-.977,3.674,5.693,5.693,0,0,0,.992,3.642,3.354,3.354,0,0,0,2.759,1.224,2.981,2.981,0,0,0,3.224-2.759l3.844,1.24a5.573,5.573,0,0,1-2.309,3.41,8.008,8.008,0,0,1-4.7,1.271A8.015,8.015,0,0,1,101.4-1.813,8.059,8.059,0,0,1,99.293-7.75a8.1,8.1,0,0,1,2.092-5.937A7.79,7.79,0,0,1,107.2-15.81ZM128.681-.961a5.589,5.589,0,0,1-1.875.93,8.174,8.174,0,0,1-2.371.341q-5.177,0-5.177-4.681v-7.967h-2.821V-15.5h2.821v-3.565l4.247-1.178V-15.5h5.022v3.162H123.5v7.285a1.891,1.891,0,0,0,2.139,2.139,3.576,3.576,0,0,0,2.387-.868ZM137.671.31q-5.177,0-7.192-2.976l2.48-2.542a3.682,3.682,0,0,0,1.783,1.875,6.761,6.761,0,0,0,2.868.542,4.815,4.815,0,0,0,2.108-.372,1.134,1.134,0,0,0,.744-1.023q0-.527-.7-.9a9.606,9.606,0,0,0-2.4-.713,12.053,12.053,0,0,1-5.007-1.875,3.829,3.829,0,0,1-1.441-3.147,4.183,4.183,0,0,1,.806-2.449,5.572,5.572,0,0,1,2.387-1.845,9.327,9.327,0,0,1,3.782-.7,9.618,9.618,0,0,1,4.216.79,6.682,6.682,0,0,1,2.7,2.5l-2.635,2.232a4.626,4.626,0,0,0-1.689-1.829,4.942,4.942,0,0,0-2.527-.589,4.085,4.085,0,0,0-2.03.434,1.242,1.242,0,0,0-.76,1.054,1.259,1.259,0,0,0,.744,1.085,9.3,9.3,0,0,0,2.635.806,11.912,11.912,0,0,1,4.79,1.783,3.656,3.656,0,0,1,1.41,3.054,4.088,4.088,0,0,1-1.844,3.487A8.888,8.888,0,0,1,137.671.31Z" transform="translate(50 74.334)" fill="#3eccf4"/>
    <g id="Group_13869" data-name="Group 13869" transform="translate(93.425 81.335)">
      <g id="Group_13868" data-name="Group 13868" transform="translate(0 0)" clip-path="url(#clip-path)">
        <g id="Group_13867" data-name="Group 13867" transform="translate(-63349.391 -63282.535)" style="isolation: isolate">
          <g id="Group_13866" data-name="Group 13866">
            <g id="Group_13865" data-name="Group 13865" clip-path="url(#clip-path-2)">
              <g id="Group_13848" data-name="Group 13848" transform="translate(63352.707 63285.379)" opacity="0.499">
                <g id="Group_13847" data-name="Group 13847" transform="translate(0 0)">
                  <path id="Path_124195" data-name="Path 124195" d="M13.716,0h.947a28.43,28.43,0,0,0,0,56.827h-.947A28.413,28.413,0,0,1,13.716,0m1.895,4.924a23.536,23.536,0,0,1,0,47.071h-.947a23.558,23.558,0,0,0,0-47.071Z" transform="translate(14.697)" fill="#fff"/>
                </g>
              </g>
              <g id="Group_13849" data-name="Group 13849" transform="translate(63353.184 63343.672)">
                <path id="Path_124196" data-name="Path 124196" d="M45.461.49H0A.49.49,0,0,1-.49,0,.49.49,0,0,1,0-.49H45.461a.49.49,0,0,1,.49.49A.49.49,0,0,1,45.461.49Z" fill="#13467c"/>
              </g>
              <g id="Group_13850" data-name="Group 13850" transform="translate(63401.484 63343.672)">
                <path id="Path_124197" data-name="Path 124197" d="M1.895.49H0A.49.49,0,0,1-.49,0,.49.49,0,0,1,0-.49H1.895a.49.49,0,0,1,.49.49A.49.49,0,0,1,1.895.49Z" fill="#13467c"/>
              </g>
              <g id="Group_13851" data-name="Group 13851" transform="translate(63406.219 63343.672)">
                <path id="Path_124198" data-name="Path 124198" d="M3.789.49H0A.49.49,0,0,1-.49,0,.49.49,0,0,1,0-.49H3.789a.49.49,0,0,1,.49.49A.49.49,0,0,1,3.789.49Z" fill="#13467c"/>
              </g>
              <g id="Group_13852" data-name="Group 13852" transform="translate(63356.063 63297.855)">
                <path id="Path_124199" data-name="Path 124199" d="M20.634,15.472l-7.1-5.113c-2.084-1.516-3.884.379-4.926,1.608-1.419,1.61-1.8,1.705-2.272,1.326a55.473,55.473,0,0,1-7.578-6.44A70.918,70.918,0,0,1-7.779-.723C-8.158-1.2-8.158-1.575-6.453-3c1.137-1.042,3.126-2.747,1.61-4.924l-5.115-7.1c-1.514-1.987-3.408-1.7-4.924-1.135a16.738,16.738,0,0,0-5.682,3.5c-2.179,2.179-2.084,6.345.474,11.555A56.958,56.958,0,0,0-8.726,14.336,56.975,56.975,0,0,0,6.713,25.7a18,18,0,0,0,7.292,1.989,5.73,5.73,0,0,0,4.261-1.516,15.438,15.438,0,0,0,3.505-5.684c.474-1.608.853-3.6-1.137-5.019" transform="translate(22.11 16.579)" fill="#00c0f1"/>
              </g>
              <g id="Group_13853" data-name="Group 13853" transform="translate(63386.402 63324.375)">
                <path id="Path_124200" data-name="Path 124200" d="M.274,1.712c.474.379.853.379,2.274-1.326A7.836,7.836,0,0,1,4.819-1.6C3.022-2.456,1.506-.751.559.386a7.134,7.134,0,0,1-.853.853c.189.189.379.284.568.474" transform="translate(0.294 1.834)" fill="#87d3ed"/>
              </g>
              <g id="Group_13854" data-name="Group 13854" transform="translate(63356.445 63298.066)">
                <path id="Path_124201" data-name="Path 124201" d="M14.873,20.4A56.969,56.969,0,0,1-.564,9.036,56.969,56.969,0,0,1-11.93-6.4c-2.463-5.3-2.652-9.376-.474-11.555a15.441,15.441,0,0,1,5.682-3.5c.284-.095.663-.189.947-.284a5.066,5.066,0,0,0-2.935.284,16.8,16.8,0,0,0-5.684,3.5c-2.177,2.179-2.082,6.347.474,11.555A57.01,57.01,0,0,0-2.553,9.036,56.969,56.969,0,0,0,12.884,20.4a18.018,18.018,0,0,0,7.292,1.989,2.623,2.623,0,0,0,.853-.095A22.191,22.191,0,0,1,14.873,20.4" transform="translate(15.937 21.861)" fill="#87d3ed"/>
              </g>
              <g id="Group_13855" data-name="Group 13855" transform="translate(63354.805 63296.867)">
                <path id="Path_124202" data-name="Path 124202" d="M17.906,22.3a18.358,18.358,0,0,1-7.766-2.084A58.931,58.931,0,0,1-5.581,8.668C-10.7,3.552-14.863-2.035-17.136-7.056c-2.652-5.682-2.747-10.229-.189-12.69a15.423,15.423,0,0,1,6.061-3.694A4.921,4.921,0,0,1-5.2-21.924l5.113,7.1C2-11.98-.657-9.611-1.794-8.571A4.807,4.807,0,0,0-2.836-7.529,59.288,59.288,0,0,0,3.511-.14,59.278,59.278,0,0,0,10.9,6.2,9.8,9.8,0,0,0,11.94,5.163c1.042-1.137,3.314-3.789,6.156-1.705l7.1,5.115a4.905,4.905,0,0,1,1.516,6.061,17.986,17.986,0,0,1-3.694,6.061,8.647,8.647,0,0,1-5.114,1.61m-26.9-44.324a4.3,4.3,0,0,0-1.705.379A13.568,13.568,0,0,0-16-18.325c-1.8,1.8-1.61,5.682.663,10.511A57,57,0,0,0-4.162,7.341c5.021,5.019,10.324,9,15.155,11.174,4.829,2.274,8.619,2.463,10.513.663a16.189,16.189,0,0,0,3.314-5.3c.663-1.895.379-2.937-.853-3.789l-7.1-5.3c-1.137-.853-2.084-.189-3.6,1.421-1.137,1.231-2.179,2.463-3.6,1.421A57.45,57.45,0,0,1,1.9.995,64.823,64.823,0,0,1-4.729-6.771c-1.042-1.421.189-2.461,1.419-3.6,1.61-1.421,2.274-2.368,1.421-3.6L-7-21.072a2.384,2.384,0,0,0-1.989-.947" transform="translate(19.186 23.9)" fill="#14487c"/>
              </g>
              <g id="Group_13856" data-name="Group 13856" transform="translate(63379.777 63297.613)">
                <path id="Path_124203" data-name="Path 124203" d="M8.916,9.51A17.239,17.239,0,0,0-8.322-7.727,1.254,1.254,0,0,1-9.553-8.959,1.254,1.254,0,0,1-8.322-10.19a19.745,19.745,0,0,1,19.7,19.7,1.231,1.231,0,1,1-2.463,0" transform="translate(9.553 10.19)" fill="#ffc86b"/>
              </g>
              <g id="Group_13857" data-name="Group 13857" transform="translate(63379.867 63302.918)">
                <path id="Path_124204" data-name="Path 124204" d="M6.356,6.949A11.945,11.945,0,0,0-5.579-4.985,1.254,1.254,0,0,1-6.81-6.216a1.254,1.254,0,0,1,1.231-1.23,14.39,14.39,0,0,1,14.4,14.4A1.254,1.254,0,0,1,7.587,8.181,1.194,1.194,0,0,1,6.356,6.949" transform="translate(6.81 7.446)" fill="#00c0f1"/>
              </g>
              <g id="Group_13858" data-name="Group 13858" transform="translate(63379.77 63308.125)">
                <path id="Path_124205" data-name="Path 124205" d="M5.029,4.435A1.254,1.254,0,0,1,3.8,5.666,1.254,1.254,0,0,1,2.566,4.435,6.748,6.748,0,0,0-4.158-2.289,1.254,1.254,0,0,1-5.389-3.521,1.254,1.254,0,0,1-4.158-4.752,9.137,9.137,0,0,1,5.029,4.435" transform="translate(5.389 4.752)" fill="#d21d4f"/>
              </g>
              <g id="Group_13859" data-name="Group 13859" transform="translate(63379.867 63308.027)">
                <path id="Path_124206" data-name="Path 124206" d="M4.3,4.435h0A6.75,6.75,0,0,0-2.426-2.289,1.254,1.254,0,0,1-3.658-3.521,1.311,1.311,0,0,1-2.616-4.752h-.758A1.254,1.254,0,0,0-4.605-3.521,1.254,1.254,0,0,0-3.374-2.289,6.75,6.75,0,0,1,3.35,4.435,1.254,1.254,0,0,0,4.582,5.666a.71.71,0,0,0,.474-.095A1.142,1.142,0,0,1,4.3,4.435" transform="translate(4.605 4.752)" fill="#e984a4"/>
              </g>
              <g id="Group_13860" data-name="Group 13860" transform="translate(63379.867 63302.918)">
                <path id="Path_124207" data-name="Path 124207" d="M6.812,6.949h0A11.945,11.945,0,0,0-5.122-4.985,1.254,1.254,0,0,1-6.354-6.216a1.311,1.311,0,0,1,1.042-1.23h-.758A1.253,1.253,0,0,0-7.3-6.216a1.254,1.254,0,0,0,1.23,1.231A11.945,11.945,0,0,1,5.865,6.949,1.254,1.254,0,0,0,7.1,8.181a.71.71,0,0,0,.474-.095,1.4,1.4,0,0,1-.758-1.137" transform="translate(7.299 7.446)" fill="#87d3ed"/>
              </g>
              <g id="Group_13861" data-name="Group 13861" transform="translate(63379.867 63297.52)">
                <path id="Path_124208" data-name="Path 124208" d="M9.373,9.51h0A17.239,17.239,0,0,0-7.864-7.727,1.254,1.254,0,0,1-9.1-8.959,1.311,1.311,0,0,1-8.054-10.19h-.758a1.254,1.254,0,0,0-1.231,1.231A1.254,1.254,0,0,0-8.812-7.727,17.239,17.239,0,0,1,8.426,9.51a1.254,1.254,0,0,0,1.231,1.231.71.71,0,0,0,.474-.095A1.142,1.142,0,0,1,9.373,9.51" transform="translate(10.043 10.19)" fill="#fce9c2"/>
              </g>
              <g id="Group_13862" data-name="Group 13862" transform="translate(63379.398 63297.137)">
                <path id="Path_124209" data-name="Path 124209" d="M9.693,10.516A1.7,1.7,0,0,1,7.988,8.811,16.693,16.693,0,0,0-8.681-7.858a1.7,1.7,0,0,1-1.705-1.705,1.7,1.7,0,0,1,1.705-1.705A20.251,20.251,0,0,1,11.493,8.906a2,2,0,0,1-.474,1.231,3.084,3.084,0,0,1-1.326.379M-8.681-10.415a.747.747,0,0,0-.758.758.815.815,0,0,0,.758.758A17.744,17.744,0,0,1,9.03,8.811a.815.815,0,0,0,.758.758,1.346,1.346,0,0,0,.568-.189.8.8,0,0,0,.189-.568A19.363,19.363,0,0,0-8.681-10.415" transform="translate(10.386 11.268)" fill="#14487c"/>
              </g>
              <g id="Group_13863" data-name="Group 13863" transform="translate(63379.398 63302.352)">
                <path id="Path_124210" data-name="Path 124210" d="M7.178,8a2,2,0,0,1-1.231-.474A1.8,1.8,0,0,1,5.473,6.3h0A11.439,11.439,0,0,0-5.988-5.165a1.7,1.7,0,0,1-1.7-1.7,1.7,1.7,0,0,1,1.7-1.705A15,15,0,0,1,8.978,6.391,2,2,0,0,1,8.5,7.622,3.513,3.513,0,0,1,7.178,8M-5.988-6.2A12.55,12.55,0,0,1,6.515,6.3a1.346,1.346,0,0,0,.189.568.724.724,0,0,0,.474.189,1.346,1.346,0,0,0,.568-.189A.8.8,0,0,0,7.936,6.3,13.944,13.944,0,0,0-5.988-7.626a.815.815,0,0,0-.756.758.733.733,0,0,0,.756.663" transform="translate(7.691 8.573)" fill="#14487c"/>
              </g>
              <g id="Group_13864" data-name="Group 13864" transform="translate(63379.867 63307.938)">
                <path id="Path_124211" data-name="Path 124211" d="M3.8,5.911A1.5,1.5,0,0,1,2.321,4.435,6.432,6.432,0,0,0,.417-.139a6.432,6.432,0,0,0-4.574-1.9A1.5,1.5,0,0,1-5.634-3.521,1.5,1.5,0,0,1-4.158-5,9.356,9.356,0,0,1,2.491-2.214,9.356,9.356,0,0,1,5.274,4.435,1.5,1.5,0,0,1,3.8,5.911ZM-4.158-4.507a1.012,1.012,0,0,0-.986.986,1.012,1.012,0,0,0,.986.986A6.918,6.918,0,0,1,.763-.486,6.918,6.918,0,0,1,2.811,4.435a1.012,1.012,0,0,0,.986.986,1.012,1.012,0,0,0,.987-.986,8.87,8.87,0,0,0-2.64-6.3A8.87,8.87,0,0,0-4.158-4.507Z" transform="translate(5.389 4.752)" fill="#14487c"/>
              </g>
            </g>
          </g>
        </g>
      </g>
    </g>
  </g>
</svg>
