<svg xmlns="http://www.w3.org/2000/svg" width="16.876" height="12" viewBox="0 0 16.876 12"><g transform="translate(-384.661 106.583) rotate(-90)"><g transform="translate(-3 -6)"><path d="M.313,10.631a.65.65,0,0,0-.026,1.1.739.739,0,0,0,1.149,0L6.745,6.548a.715.715,0,0,0,0-1.1L1.436.274a.739.739,0,0,0-1.149,0,.65.65,0,0,0,.026,1.1L5.009,6Z" transform="translate(109.583 400.537) rotate(90)" fill="#005d55"/><path d="M0,14.875A.875.875,0,0,1-.875,14V0A.875.875,0,0,1,0-.875.875.875,0,0,1,.875,0V14A.875.875,0,0,1,0,14.875Z" transform="translate(103.584 391.536)" fill="#005d55"/></g></g></svg>