<svg id="Support_GFX_Unmask_HPP" xmlns="http://www.w3.org/2000/svg" xmlns:xlink="http://www.w3.org/1999/xlink" width="326" height="260" viewBox="0 0 326 260">
  <defs>
    <clipPath id="clip-path">
      <rect id="Rectangle_4655" data-name="Rectangle 4655" width="128" height="100" fill="none"/>
    </clipPath>
    <clipPath id="clip-path-3">
      <rect id="Rectangle_4652" data-name="Rectangle 4652" width="37.971" height="32.54" fill="none"/>
    </clipPath>
    <clipPath id="clip-path-4">
      <rect id="Rectangle_4653" data-name="Rectangle 4653" width="36.882" height="31.654" fill="none"/>
    </clipPath>
  </defs>
  <g id="_3.2-stq-3339-img-stq-brochure" data-name="3.2-stq-3339-img-stq-brochure" transform="translate(0 0)">
    <rect id="Rectangle_1718" data-name="Rectangle 1718" width="326" height="260" transform="translate(0 0)" fill="#fafafa"/>
  </g>
  <g id="Logo_-_Unmask_HPP" data-name="Logo - Unmask HPP" transform="translate(99 76)">
    <g id="Group_16255" data-name="Group 16255" clip-path="url(#clip-path)">
      <g id="Group_16254" data-name="Group 16254">
        <g id="Group_16253" data-name="Group 16253" clip-path="url(#clip-path)">
          <path id="Path_136508" data-name="Path 136508" d="M19.955,12.594c0,3.187-.606,5.39-1.76,6.925-1.559,2.087-4.416,3.332-7.909,3.332-3.435,0-6.437-1.188-8.024-3.42C1.165,17.9.617,15.666.617,12.594V1.554H6.563V12.246c0,2.029.231,3.216.808,4.027A3.549,3.549,0,0,0,10.4,17.665a3.5,3.5,0,0,0,2.858-1.217c.664-.811.981-2.144.981-4.2V1.554h5.715Z" transform="translate(-0.491 -1.235)" fill="#004d49"/>
          <path id="Path_136509" data-name="Path 136509" d="M115.961,14.94c-1.155-1.564-2.165-2.984-3.2-4.491l-.058.029c.029,1.768.058,3.564.058,5.331v6.723h-5.715V1.553h5.571l5.542,7.592c1.155,1.564,2.165,2.984,3.2,4.491l.058-.029c-.029-1.768-.058-3.564-.058-5.331V1.553h5.715V22.532H121.5Z" transform="translate(-85.183 -1.235)" fill="#004d49"/>
          <path id="Path_136510" data-name="Path 136510" d="M217.709,22.532V1.553h5.715l5.4,7.65,5.369-7.65h5.657V22.532H233.9V15.694c0-1.652.029-3.478.058-4.927l-.058-.029c-.866,1.333-1.818,2.695-2.742,4.028L228.677,18.3l-2.511-3.535c-.952-1.334-1.876-2.7-2.742-4.028l-.058.029c.029,1.449.058,3.274.058,4.927v6.838Z" transform="translate(-173.251 -1.235)" fill="#004d49"/>
          <path id="Path_136511" data-name="Path 136511" d="M339.38,1.553h5.859L353.7,22.532h-6.465l-1.472-4.289H338.6l-1.53,4.289h-6.148Zm2.829,6.375c-.4,1.333-.808,2.55-1.3,3.912l-.722,2h4.041l-.693-2c-.491-1.42-.866-2.608-1.27-3.912Z" transform="translate(-263.346 -1.235)" fill="#004d49"/>
          <path id="Path_136512" data-name="Path 136512" d="M444.486,14.517a15.963,15.963,0,0,0,6.984,2.145c1.213,0,2.079-.435,2.079-1.507,0-1.507-1.674-1.507-4.33-2.434-3.175-1.1-5.368-2.666-5.368-6.056C443.851,2.579,447,0,451.673,0a16.357,16.357,0,0,1,6.812,1.535V7.041a15.712,15.712,0,0,0-6.754-2.087c-1.1,0-1.847.347-1.847,1.275,0,1.362,1.616,1.362,4.156,2.26,3.262,1.16,5.542,2.782,5.542,6.318,0,4.231-3.319,6.809-8.168,6.809a16.979,16.979,0,0,1-6.927-1.507Z" transform="translate(-353.213)" fill="#004d49"/>
          <path id="Path_136513" data-name="Path 136513" d="M528.652,1.553H534.6v9.1l.057.029,6.033-9.127h6.985l-6.9,9.736,7.476,11.243h-7.216l-6.379-10.287-.057.029V22.533h-5.946Z" transform="translate(-420.697 -1.235)" fill="#004d49"/>
          <path id="Path_136514" data-name="Path 136514" d="M0,125.664H13.509v17.183h16.92V125.664H43.939V173.33H30.429V154.3H13.509V173.33H0Z" transform="translate(0 -99.902)" fill="#004d49"/>
          <path id="Path_136515" data-name="Path 136515" d="M236.793,142.112c0-8.434,7.476-15.385,17.651-16.368q-1.584-.081-3.329-.08H235.7v47.667h13.509V157.4h.033c-7.422-2.449-12.452-8.368-12.452-15.285" transform="translate(-187.571 -99.902)" fill="#004d49"/>
          <path id="Path_136516" data-name="Path 136516" d="M431.265,280.117h13.51V264.392c-5.425-2.082-9.444-4.257-13.51-4.4Z" transform="translate(-343.197 -206.688)" fill="#004d49"/>
          <path id="Path_136517" data-name="Path 136517" d="M446.676,125.664H431.265v5.495c3.486-.216,9.453-4.918,16.833-5.479-.466-.009-.937-.015-1.422-.015" transform="translate(-343.197 -99.902)" fill="#004d49"/>
          <path id="Path_136518" data-name="Path 136518" d="M573.174,136.191l.119.054-.119-.054" transform="translate(-456.127 -108.271)" fill="#004d49"/>
          <path id="Path_136519" data-name="Path 136519" d="M515.53,125.8c-.612-.028-1.233-.048-1.833-.063,5.057.1,9,.744,12.146,2.143a28.17,28.17,0,0,0-10.312-2.08" transform="translate(-408.796 -99.961)" fill="#67b134"/>
          <path id="Path_136520" data-name="Path 136520" d="M513.011,136.454c.206.093.41.189.609.289a14.133,14.133,0,0,1,8.263,13.432,13.716,13.716,0,0,1-7.083,12.574c-3.673,2.173-8.722,3.226-15.214,3.226h-2.164v.822a14.183,14.183,0,0,0,5.132,1c11.421,0,21.294-6.016,21.29-17.106,0-6.3-4.7-11.449-10.834-14.236" transform="translate(-395.845 -108.48)" fill="#75b02e"/>
          <path id="Path_136521" data-name="Path 136521" d="M328.378,130.994c-3.762.2-10.436-5.543-18.675-5.543-.845,0-1.673.045-2.486.124A27.386,27.386,0,0,1,318.184,128a14.133,14.133,0,0,1,8.263,13.432A13.716,13.716,0,0,1,319.365,154c-3.673,2.173-8.723,3.226-15.215,3.226h-2.132a24.514,24.514,0,0,0,7.685,1.206c8.239,0,13.414-5.563,18.675-5.4l.033,0V130.989l-.033,0" transform="translate(-240.344 -99.732)" fill="#75b02e"/>
          <path id="Path_136522" data-name="Path 136522" d="M270.839,154.481a13.716,13.716,0,0,0,7.083-12.574,14.133,14.133,0,0,0-8.263-13.432,27.38,27.38,0,0,0-10.967-2.421c-10.175.983-17.651,7.934-17.651,16.368,0,6.918,5.03,12.837,12.452,15.285h2.132c6.492,0,11.542-1.053,15.215-3.226M251.7,141.459a12.78,12.78,0,0,1,4.406-3.9c3.082-1.548,7.52-1.635,12.461,5.005,0,0-5.765,4.416-11.848,2.348a11.877,11.877,0,0,1-5.019-3.448" transform="translate(-191.818 -100.212)" fill="#004d49"/>
          <path id="Path_136523" data-name="Path 136523" d="M446.939,157.456c6.492,0,11.541-1.053,15.214-3.226a13.716,13.716,0,0,0,7.083-12.574,14.133,14.133,0,0,0-8.263-13.432c-.2-.1-.4-.2-.61-.289l-.119-.054c-3.147-1.4-7.088-2.044-12.146-2.143-7.38.562-13.347,5.263-16.833,5.479V153.26c4.066.146,8.085,2.321,13.51,4.4v-.208ZM454.9,137.3a12.781,12.781,0,0,1,4.406,3.9,11.877,11.877,0,0,1-5.019,3.448c-6.084,2.069-11.848-2.348-11.848-2.348,4.941-6.64,9.378-6.554,12.461-5.005" transform="translate(-343.197 -99.961)" fill="#004d49"/>
          <rect id="Rectangle_4651" data-name="Rectangle 4651" width="127.824" height="22.916" transform="translate(0 77.084)" fill="#f2e21e"/>
          <path id="Path_136524" data-name="Path 136524" d="M29.234,408.172h2.445a6.281,6.281,0,0,1,3.662.883,4.092,4.092,0,0,1,1.674,3.483,4.173,4.173,0,0,1-1.445,3.314,6.061,6.061,0,0,1-3.976,1.076h-2.36Zm2.445,7.075a3.764,3.764,0,0,0,2.578-.69,2.6,2.6,0,0,0,.844-2.019,2.55,2.55,0,0,0-1.012-2.153,4.147,4.147,0,0,0-2.421-.532h-.518v5.394Z" transform="translate(-23.264 -324.493)" fill="#004d49"/>
          <path id="Path_136525" data-name="Path 136525" d="M73.224,407.523a1.052,1.052,0,1,1-1.06,1.052,1.061,1.061,0,0,1,1.06-1.052m-.915,2.939h1.831v5.95H72.309Z" transform="translate(-57.428 -323.977)" fill="#004d49"/>
          <path id="Path_136526" data-name="Path 136526" d="M87.689,425.322a5.052,5.052,0,0,0,2.337.689c.506,0,.807-.133.807-.46,0-.459-.662-.411-1.554-.641-1.12-.278-1.783-.75-1.783-1.729.012-1.258,1.12-1.971,2.59-1.971a5.519,5.519,0,0,1,2.264.471v1.585a4.974,4.974,0,0,0-2.228-.641c-.482,0-.771.145-.771.423,0,.435.639.4,1.517.617,1.132.278,1.819.713,1.819,1.742-.012,1.306-1.144,2.019-2.662,2.019a5.6,5.6,0,0,1-2.337-.5Z" transform="translate(-69.629 -334.858)" fill="#004d49"/>
          <path id="Path_136527" data-name="Path 136527" d="M121.87,426.965a4.062,4.062,0,0,1-1.939.459,3.106,3.106,0,0,1-3.3-3.1,3.184,3.184,0,0,1,3.4-3.12,3.976,3.976,0,0,1,1.759.4v1.705a3.178,3.178,0,0,0-1.674-.556,1.558,1.558,0,1,0,.024,3.108,3,3,0,0,0,1.735-.593Z" transform="translate(-92.813 -334.858)" fill="#004d49"/>
          <path id="Path_136528" data-name="Path 136528" d="M149.889,421.21a3.113,3.113,0,1,1-3.3,3.108,3.143,3.143,0,0,1,3.3-3.108m0,4.632a1.525,1.525,0,1,0-1.47-1.524,1.482,1.482,0,0,0,1.47,1.524" transform="translate(-116.654 -334.858)" fill="#004d49"/>
          <path id="Path_136529" data-name="Path 136529" d="M179.909,421.858h1.927l.7,1.911c.229.629.458,1.282.662,1.887h.025c.216-.6.47-1.282.711-1.9l.735-1.9h1.807l-2.409,5.95h-1.746Z" transform="translate(-143.17 -335.373)" fill="#004d49"/>
          <path id="Path_136530" data-name="Path 136530" d="M214.931,424.8a1.605,1.605,0,0,0,1.722,1.2,3.68,3.68,0,0,0,2.012-.653v1.536a4.537,4.537,0,0,1-2.253.544,3.113,3.113,0,1,1-.253-6.216,2.747,2.747,0,0,1,2.83,2.963,4.96,4.96,0,0,1-.036.629Zm2.373-1.161a1.159,1.159,0,0,0-1.169-1.028,1.225,1.225,0,0,0-1.216,1.028Z" transform="translate(-169.545 -334.858)" fill="#004d49"/>
          <path id="Path_136531" data-name="Path 136531" d="M247.964,421.577h1.795v.8l.024.012a2,2,0,0,1,1.723-.883,1.459,1.459,0,0,1,.385.048v1.729a2.131,2.131,0,0,0-.494-.06,1.965,1.965,0,0,0-1.6.7v3.6h-1.831Z" transform="translate(-197.328 -335.093)" fill="#004d49"/>
          <path id="Path_136532" data-name="Path 136532" d="M291.236,415.964a5.575,5.575,0,0,1-2.554.58,4.517,4.517,0,1,1,0-9.022,5.569,5.569,0,0,1,2.422.544v1.947a4.417,4.417,0,0,0-2.409-.762,2.7,2.7,0,0,0-2.843,2.77,2.736,2.736,0,0,0,2.915,2.793,4.366,4.366,0,0,0,2.469-.81Z" transform="translate(-225.954 -323.977)" fill="#004d49"/>
          <path id="Path_136533" data-name="Path 136533" d="M327.222,421.21a3.113,3.113,0,1,1-3.3,3.108,3.143,3.143,0,0,1,3.3-3.108m0,4.632a1.525,1.525,0,1,0-1.47-1.524,1.482,1.482,0,0,0,1.47,1.524" transform="translate(-257.774 -334.858)" fill="#004d49"/>
          <path id="Path_136534" data-name="Path 136534" d="M361.841,421.343h1.807v.544l.025.012a2.894,2.894,0,0,1,1.831-.689,2.131,2.131,0,0,1,1.554.6,2.4,2.4,0,0,1,.517,1.766v3.713h-1.831v-3.411a1.181,1.181,0,0,0-.205-.834.782.782,0,0,0-.626-.254,2.108,2.108,0,0,0-1.241.5v4h-1.831Z" transform="translate(-287.95 -334.858)" fill="#004d49"/>
          <path id="Path_136535" data-name="Path 136535" d="M395.529,410.11h-.843v-1.524h.843V407.7a2.675,2.675,0,0,1,.627-1.983,2.423,2.423,0,0,1,1.674-.556,2.913,2.913,0,0,1,1.012.169v1.488a3.8,3.8,0,0,0-.795-.109c-.566,0-.687.363-.687.87v1h1.373v1.524H397.36v4.426h-1.831Zm5.12-4.462a1.052,1.052,0,1,1-1.06,1.052,1.061,1.061,0,0,1,1.06-1.052m-.916,2.939h1.831v5.95h-1.831Z" transform="translate(-314.088 -322.102)" fill="#004d49"/>
          <path id="Path_136536" data-name="Path 136536" d="M438.486,414.726a2.648,2.648,0,0,1-1.506.459A2.809,2.809,0,0,1,434.2,412.2a3.1,3.1,0,0,1,3.132-3.229,2.8,2.8,0,0,1,1.12.218l.024-.012v-3.362H440.3v9.239H438.51v-.315Zm-.012-4a2.122,2.122,0,0,0-.952-.23,1.469,1.469,0,0,0-1.482,1.62,1.414,1.414,0,0,0,1.41,1.572,1.929,1.929,0,0,0,1.024-.3Z" transform="translate(-345.531 -322.618)" fill="#004d49"/>
          <path id="Path_136537" data-name="Path 136537" d="M471.579,424.8A1.606,1.606,0,0,0,473.3,426a3.679,3.679,0,0,0,2.012-.653v1.536a4.537,4.537,0,0,1-2.253.544,3.113,3.113,0,1,1-.253-6.216,2.748,2.748,0,0,1,2.831,2.963,4.954,4.954,0,0,1-.036.629Zm2.373-1.161a1.159,1.159,0,0,0-1.168-1.028,1.226,1.226,0,0,0-1.217,1.028Z" transform="translate(-373.784 -334.858)" fill="#004d49"/>
          <path id="Path_136538" data-name="Path 136538" d="M504.612,421.343h1.807v.544l.025.012a2.894,2.894,0,0,1,1.831-.689,2.131,2.131,0,0,1,1.554.6,2.4,2.4,0,0,1,.517,1.766v3.713h-1.831v-3.411a1.181,1.181,0,0,0-.2-.834.782.782,0,0,0-.626-.254,2.108,2.108,0,0,0-1.241.5v4h-1.831Z" transform="translate(-401.566 -334.858)" fill="#004d49"/>
          <path id="Path_136539" data-name="Path 136539" d="M543.466,426.965a4.061,4.061,0,0,1-1.94.459,3.105,3.105,0,0,1-3.3-3.1,3.184,3.184,0,0,1,3.4-3.12,3.974,3.974,0,0,1,1.759.4v1.705a3.178,3.178,0,0,0-1.675-.556,1.558,1.558,0,1,0,.024,3.108,3,3,0,0,0,1.735-.593Z" transform="translate(-428.316 -334.858)" fill="#004d49"/>
          <path id="Path_136540" data-name="Path 136540" d="M570.065,424.8a1.606,1.606,0,0,0,1.722,1.2,3.678,3.678,0,0,0,2.012-.653v1.536a4.536,4.536,0,0,1-2.253.544,3.113,3.113,0,1,1-.253-6.216,2.748,2.748,0,0,1,2.831,2.963,4.955,4.955,0,0,1-.036.629Zm2.373-1.161a1.159,1.159,0,0,0-1.168-1.028,1.226,1.226,0,0,0-1.217,1.028Z" transform="translate(-452.158 -334.858)" fill="#004d49"/>
          <g id="Group_16249" data-name="Group 16249" transform="translate(88.068 25.777)" opacity="0.7">
            <g id="Group_16248" data-name="Group 16248">
              <g id="Group_16247" data-name="Group 16247" clip-path="url(#clip-path-3)">
                <path id="Path_136541" data-name="Path 136541" d="M446.939,157.456c6.492,0,11.541-1.053,15.214-3.226a13.716,13.716,0,0,0,7.083-12.574,14.133,14.133,0,0,0-8.263-13.432c-.2-.1-.4-.2-.61-.289l-.119-.054c-3.147-1.4-7.088-2.044-12.146-2.143-7.38.562-13.347,5.263-16.833,5.479V153.26c4.066.146,8.085,2.935,13.51,5.017v-.821ZM454.9,137.3a12.781,12.781,0,0,1,4.406,3.9,11.877,11.877,0,0,1-5.019,3.448c-6.084,2.069-11.848-2.348-11.848-2.348,4.941-6.64,9.378-6.554,12.461-5.005" transform="translate(-431.265 -125.738)" fill="#67b134"/>
              </g>
            </g>
          </g>
          <g id="Group_16252" data-name="Group 16252" transform="translate(49.222 25.842)" opacity="0.7">
            <g id="Group_16251" data-name="Group 16251">
              <g id="Group_16250" data-name="Group 16250" clip-path="url(#clip-path-4)">
                <path id="Path_136542" data-name="Path 136542" d="M270.839,154.481a13.716,13.716,0,0,0,7.083-12.574,14.133,14.133,0,0,0-8.263-13.432,27.382,27.382,0,0,0-10.967-2.421c-10.175.983-17.651,7.934-17.651,16.368,0,6.918,5.03,12.837,12.452,15.285h2.132c6.492,0,11.542-1.053,15.215-3.226M251.7,141.459a12.78,12.78,0,0,1,4.406-3.9c3.082-1.548,7.52-1.635,12.461,5.005,0,0-5.765,4.416-11.848,2.348a11.877,11.877,0,0,1-5.019-3.448" transform="translate(-241.04 -126.054)" fill="#67b134"/>
              </g>
            </g>
          </g>
        </g>
      </g>
    </g>
  </g>
</svg>
