<svg xmlns="http://www.w3.org/2000/svg" xmlns:xlink="http://www.w3.org/1999/xlink" width="184" height="184" viewBox="0 0 184 184">
  <defs>
    <clipPath id="clip-path">
      <rect id="Rectangle_4454" data-name="Rectangle 4454" width="39.335" height="12.083" fill="none"/>
    </clipPath>
  </defs>
  <g id="Group_16004" data-name="Group 16004" transform="translate(-200 -2698)">
    <circle id="Ellipse_654" data-name="Ellipse 654" cx="92" cy="92" r="92" transform="translate(200 2698)" fill="#00a8e1"/>
    <g id="Group_13893" data-name="Group 13893" transform="translate(-11.929 2525.352)">
      <g id="Group_13886" data-name="Group 13886" transform="translate(279.814 186)">
        <path id="Path_124216" data-name="Path 124216" d="M314.778,288.628h10.9c-2.947,0-5.337,3.38-5.337,7.548v72.518c0,4.168,2.39,7.546,5.337,7.546h-10.9c-2.947,0-5.337-3.379-5.337-7.546V296.176C309.441,292.008,311.831,288.628,314.778,288.628Z" transform="translate(-309.441 -242.825)" fill="#d5c451"/>
        <path id="Path_124217" data-name="Path 124217" d="M336.856,368.726V296.207c0-4.168,2.39-7.579,5.337-7.579h10.9c-2.947,0-5.337,3.38-5.337,7.548v72.518c0,4.168,2.39,7.546,5.337,7.546h-10.9C339.246,376.24,336.856,372.894,336.856,368.726Z" transform="translate(-324.621 -242.825)" fill="#d5c451"/>
        <path id="Path_124218" data-name="Path 124218" d="M333.872,368.694V296.176c0-4.168,2.39-7.548,5.337-7.548h1.332c-2.947,0-5.337,3.412-5.337,7.579v72.519c0,4.168,2.39,7.514,5.337,7.514h-1.332C336.262,376.24,333.872,372.862,333.872,368.694Z" transform="translate(-322.968 -242.825)" fill="#977a39"/>
        <path id="Path_124219" data-name="Path 124219" d="M361.287,296.176v72.518c0,4.168,2.39,7.546,5.337,7.546h34.462c2.947,0,5.336-3.379,5.336-7.546V296.176c0-4.168-2.389-7.548-5.336-7.548H366.624C363.677,288.628,361.287,292.008,361.287,296.176Zm2.692,0c0-2.063,1.187-3.741,2.646-3.741h34.462c1.459,0,2.646,1.678,2.646,3.741v72.518c0,2.063-1.187,3.741-2.646,3.741H366.624c-1.459,0-2.646-1.678-2.646-3.741Z" transform="translate(-338.148 -242.825)" fill="#c5b145"/>
        <path id="Path_124220" data-name="Path 124220" d="M369.964,297.157h34.462c1.459,0,2.646,1.678,2.646,3.741v72.518c0,2.063-1.187,3.741-2.646,3.741H369.964c-1.459,0-2.646-1.678-2.646-3.741V300.9C367.318,298.835,368.5,297.157,369.964,297.157Z" transform="translate(-341.487 -247.547)" fill="#e3db56"/>
        <g id="Group_13877" data-name="Group 13877" transform="translate(16.381)">
          <path id="Path_124221" data-name="Path 124221" d="M380.1,193.689h-2.219a.928.928,0,0,1-.494-.129c.363-.217.518-.631,1.111-.631C379.3,192.929,379.3,193.689,380.1,193.689Z" transform="translate(-363.445 -189.837)" fill="#412139"/>
          <path id="Path_124222" data-name="Path 124222" d="M372.916,193.689H370.7a.924.924,0,0,1-.494-.129c.363-.217.518-.631,1.109-.631C372.113,192.929,372.113,193.689,372.916,193.689Z" transform="translate(-359.465 -189.837)" fill="#412139"/>
          <path id="Path_124223" data-name="Path 124223" d="M365.727,193.689h-2.22a.924.924,0,0,1-.494-.129c.363-.217.519-.631,1.111-.631C364.925,192.929,364.925,193.689,365.727,193.689Z" transform="translate(-355.485 -189.837)" fill="#412139"/>
          <path id="Path_124224" data-name="Path 124224" d="M358.538,193.689h-2.22a.924.924,0,0,1-.494-.129c.363-.217.519-.631,1.111-.631C357.736,192.929,357.736,193.689,358.538,193.689Z" transform="translate(-351.504 -189.837)" fill="#412139"/>
          <path id="Path_124225" data-name="Path 124225" d="M351.523,186h15.235c.223,0,.4.257.4.572v2.71c0,.315-.18.57-.4.57h-1.2c-.8,0-.8-.76-1.6-.76-.593,0-.748.414-1.111.631a.925.925,0,0,1-.494.129c-.8,0-.8-.76-1.6-.76-.591,0-.746.414-1.109.631a.925.925,0,0,1-.494.129c-.8,0-.8-.76-1.6-.76-.592,0-.748.414-1.111.631a.925.925,0,0,1-.495.129c-.8,0-.8-.76-1.6-.76-.592,0-.748.414-1.111.631a.925.925,0,0,1-.494.129h-1.2c-.224,0-.4-.255-.4-.57v-2.71C351.119,186.257,351.3,186,351.523,186Z" transform="translate(-348.899 -186)" fill="#5a384d"/>
          <path id="Path_124226" data-name="Path 124226" d="M346.549,186h2.219c-.224,0-.4.257-.4.572v2.71c0,.315.18.57.4.57h-2.219c-.224,0-.4-.255-.4-.57v-2.71C346.145,186.257,346.325,186,346.549,186Z" transform="translate(-346.145 -186)" fill="#412139"/>
        </g>
        <path id="Path_124227" data-name="Path 124227" d="M350.662,194.5h1.2a.933.933,0,0,0,.459-.109v40.919h-2.759V194.5Z" transform="translate(-331.657 -190.644)" fill="#bdbacb"/>
        <g id="Group_13879" data-name="Group 13879" transform="translate(24.399 37.845)">
          <g id="Group_13878" data-name="Group 13878" style="isolation: isolate">
            <path id="Path_124228" data-name="Path 124228" d="M371.027,270.8h1.861c-3.027,0-6.917,2.68-6.917,5.043v2.916H364.11v-2.916C364.11,273.476,368,270.8,371.027,270.8Z" transform="translate(-364.11 -270.796)" fill="#412139"/>
            <path id="Path_124229" data-name="Path 124229" d="M389.071,277.359a1.911,1.911,0,0,1,1.134.393c.639.469,1.422.94,1.422,1.721v2.916h-1.861v-2.916c0-.781-.782-1.252-1.421-1.721a2.205,2.205,0,0,0-.313-.192c.219-.048.425-.1.607-.145A1.738,1.738,0,0,1,389.071,277.359Z" transform="translate(-377.354 -274.43)" fill="#412139"/>
            <path id="Path_124230" data-name="Path 124230" d="M376.614,277.414a11.114,11.114,0,0,0,2.5.394h-1.861a9.437,9.437,0,0,1-1.9-.249,1.824,1.824,0,0,1,.82-.2A1.748,1.748,0,0,1,376.614,277.414Z" transform="translate(-370.339 -274.43)" fill="#412139"/>
            <path id="Path_124231" data-name="Path 124231" d="M375.2,270.8c3.027,0,6.917,2.68,6.917,5.043v2.916H380.69v-2.916c0-.781-.782-1.252-1.421-1.721a1.912,1.912,0,0,0-1.134-.393,1.739,1.739,0,0,0-.434.055c-.182.047-.387.1-.607.145a9.47,9.47,0,0,1-1.9.249,11.114,11.114,0,0,1-2.5-.394,1.749,1.749,0,0,0-.435-.055,1.823,1.823,0,0,0-.82.2,2.182,2.182,0,0,0-.313.193c-.64.469-1.423.94-1.423,1.721v2.916H368.28v-2.916C368.28,273.476,372.17,270.8,375.2,270.8Z" transform="translate(-366.419 -270.796)" fill="#4e2c42"/>
          </g>
        </g>
        <g id="Group_13880" data-name="Group 13880" transform="translate(11.997 44.662)">
          <path id="Path_124232" data-name="Path 124232" d="M400.074,286.072a1.141,1.141,0,0,1,1.142,1.141h-1.939v-1.141Z" transform="translate(-371.179 -286.072)" fill="#5a384d"/>
          <path id="Path_124233" data-name="Path 124233" d="M337.463,286.072h11.261v1.141h-12.4A1.141,1.141,0,0,1,337.463,286.072Z" transform="translate(-336.321 -286.072)" fill="#5a384d"/>
          <rect id="Rectangle_4453" data-name="Rectangle 4453" width="9.125" height="1.142" transform="translate(15.687)" fill="#5a384d"/>
        </g>
        <g id="Group_13881" data-name="Group 13881" transform="translate(30.559 3.821)">
          <path id="Path_124234" data-name="Path 124234" d="M380.53,228.586h-1.861a5.788,5.788,0,0,0-.757.052V194.562a1.023,1.023,0,0,0,.261.031h2.5v33.994Z" transform="translate(-377.912 -194.562)" fill="#bdbacb"/>
          <path id="Path_124235" data-name="Path 124235" d="M378.669,278.3h1.861l.141,0v3.442h-2.759v-3.49A6.466,6.466,0,0,0,378.669,278.3Z" transform="translate(-377.912 -240.901)" fill="#bdbacb"/>
        </g>
        <g id="Group_13882" data-name="Group 13882" transform="translate(57.803 133.416)">
          <path id="Path_124236" data-name="Path 124236" d="M441.735,484.934v1.606a1.179,1.179,0,0,0,.146.582l.24.415a1,1,0,0,1-.012.973.483.483,0,0,1-.4.255.411.411,0,0,1-.242-.082l-1.755-1.268-.385-.278a1.057,1.057,0,0,1-.372-.858v-1.344Z" transform="translate(-438.955 -484.934)" fill="#412139"/>
          <path id="Path_124237" data-name="Path 124237" d="M442.768,484.934c1.231,0,2.23,1.413,2.23,3.156s-1,3.156-2.23,3.156-2.232-1.413-2.232-3.156a4.442,4.442,0,0,1,.051-.675l1.755,1.268a.411.411,0,0,0,.242.082.483.483,0,0,0,.4-.255,1,1,0,0,0,.012-.973l-.24-.415a1.179,1.179,0,0,1-.146-.582v-1.6C442.662,484.937,442.715,484.934,442.768,484.934Z" transform="translate(-439.83 -484.934)" fill="#5a384d"/>
          <path id="Path_124238" data-name="Path 124238" d="M445.536,484.934h2.354c1.231,0,2.23,1.413,2.23,3.156s-1,3.156-2.23,3.156h-2.354c1.231,0,2.23-1.413,2.23-3.156S446.767,484.934,445.536,484.934Z" transform="translate(-442.599 -484.934)" fill="#4e2c42"/>
        </g>
        <g id="Group_13883" data-name="Group 13883" transform="translate(34.665 133.416)">
          <path id="Path_124239" data-name="Path 124239" d="M389.892,484.934v1.606a1.179,1.179,0,0,0,.147.582l.24.415a1,1,0,0,1-.012.973.483.483,0,0,1-.4.255.412.412,0,0,1-.242-.082l-1.755-1.268-.386-.278a1.058,1.058,0,0,1-.371-.858v-1.344Z" transform="translate(-387.112 -484.934)" fill="#32132b"/>
          <path id="Path_124240" data-name="Path 124240" d="M390.925,484.934c1.231,0,2.23,1.413,2.23,3.156s-1,3.156-2.23,3.156-2.232-1.413-2.232-3.156a4.442,4.442,0,0,1,.051-.675l1.755,1.268a.412.412,0,0,0,.242.082.483.483,0,0,0,.4-.255,1,1,0,0,0,.012-.973l-.24-.415a1.18,1.18,0,0,1-.147-.582v-1.6C390.819,484.937,390.872,484.934,390.925,484.934Z" transform="translate(-387.987 -484.934)" fill="#4c2940"/>
          <path id="Path_124241" data-name="Path 124241" d="M393.693,484.934h2.354c1.231,0,2.23,1.413,2.23,3.156s-1,3.156-2.23,3.156h-2.354c1.231,0,2.23-1.413,2.23-3.156S394.924,484.934,393.693,484.934Z" transform="translate(-390.756 -484.934)" fill="#3f1e35"/>
        </g>
        <g id="Group_13884" data-name="Group 13884" transform="translate(28.476 133.416)">
          <path id="Path_124242" data-name="Path 124242" d="M376.025,484.934v1.606a1.184,1.184,0,0,0,.146.582l.24.415a1,1,0,0,1-.012.973.482.482,0,0,1-.4.255.414.414,0,0,1-.242-.082L374,487.415l-.386-.278a1.057,1.057,0,0,1-.372-.858v-1.344Z" transform="translate(-373.245 -484.934)" fill="#412139"/>
          <path id="Path_124243" data-name="Path 124243" d="M377.059,484.934c1.231,0,2.23,1.413,2.23,3.156s-1,3.156-2.23,3.156-2.232-1.413-2.232-3.156a4.388,4.388,0,0,1,.051-.675l1.755,1.268a.414.414,0,0,0,.242.082.482.482,0,0,0,.4-.255,1,1,0,0,0,.012-.973l-.24-.415a1.184,1.184,0,0,1-.146-.582v-1.6C376.953,484.937,377.005,484.934,377.059,484.934Z" transform="translate(-374.121 -484.934)" fill="#5a384d"/>
          <path id="Path_124244" data-name="Path 124244" d="M379.827,484.934h2.354c1.232,0,2.231,1.413,2.231,3.156s-1,3.156-2.231,3.156h-2.354c1.231,0,2.23-1.413,2.23-3.156S381.058,484.934,379.827,484.934Z" transform="translate(-376.889 -484.934)" fill="#4e2c42"/>
        </g>
        <g id="Group_13885" data-name="Group 13885" transform="translate(5.337 133.416)">
          <path id="Path_124245" data-name="Path 124245" d="M324.179,484.934v1.606a1.184,1.184,0,0,0,.146.582l.24.415a1,1,0,0,1-.012.973.482.482,0,0,1-.4.255.412.412,0,0,1-.242-.082l-1.755-1.268-.386-.278a1.057,1.057,0,0,1-.372-.858v-1.344Z" transform="translate(-321.399 -484.934)" fill="#412139"/>
          <path id="Path_124246" data-name="Path 124246" d="M325.213,484.934c1.231,0,2.23,1.413,2.23,3.156s-1,3.156-2.23,3.156-2.232-1.413-2.232-3.156a4.388,4.388,0,0,1,.051-.675l1.755,1.268a.412.412,0,0,0,.242.082.482.482,0,0,0,.4-.255,1,1,0,0,0,.012-.973l-.24-.415a1.184,1.184,0,0,1-.146-.582v-1.6C325.107,484.937,325.159,484.934,325.213,484.934Z" transform="translate(-322.275 -484.934)" fill="#5a384d"/>
          <path id="Path_124247" data-name="Path 124247" d="M327.981,484.934h2.354c1.231,0,2.23,1.413,2.23,3.156s-1,3.156-2.23,3.156h-2.354c1.231,0,2.23-1.413,2.23-3.156S329.212,484.934,327.981,484.934Z" transform="translate(-325.043 -484.934)" fill="#4e2c42"/>
        </g>
      </g>
      <g id="Group_13892" data-name="Group 13892" transform="translate(255.933 274.181)">
        <g id="Group_13887" data-name="Group 13887" transform="translate(0 0)">
          <path id="Path_124248" data-name="Path 124248" d="M268.334,405.446c-2.767.149-5.7.353-7.961,1.957a9.939,9.939,0,0,0-3.62,5.775,29.573,29.573,0,0,0-.613,6.917q-.1,10.175-.2,20.35a25.671,25.671,0,0,0,.488,6.487,8.642,8.642,0,0,0,3.509,5.311A11.559,11.559,0,0,0,265.8,453.7c14.773.424,29.444.876,43.559.333a5.207,5.207,0,0,0,3.389-1.142c1.015-.947,1.216-2.456,1.34-3.839a184.508,184.508,0,0,0,.035-33.093c-.2-2.319-.485-4.734-1.755-6.684a9.857,9.857,0,0,0-5.549-3.824,26.613,26.613,0,0,0-6.811-.831C289.448,404.314,278.883,404.88,268.334,405.446Z" transform="translate(-255.933 -395.182)" fill="#283472"/>
          <path id="Path_124249" data-name="Path 124249" d="M327.593,450.842a8.32,8.32,0,0,1-.138.892,2.508,2.508,0,0,1-.494,1.1,2.386,2.386,0,0,1-.722.579,4.885,4.885,0,0,1-2.023.467c-10.818.539-21.665.839-32.283.4q-1.342-.056-2.676-.128c-.366-.018-.73-.04-1.1-.061a6.21,6.21,0,0,1-3.94-1.3c-1.157-1.089-1.314-2.809-1.4-4.372-.558-10.279-1-20.247.026-30.491.239-2.365.627-4.874,2.249-6.655,1.762-1.94,4.571-2.572,7.207-2.973a110.507,110.507,0,0,1,25.92-.536c2.36.2,4.937.557,6.533,2.254a9.142,9.142,0,0,1,1.911,4.964A131.077,131.077,0,0,1,327.593,450.842Z" transform="translate(-270.496 -396.691)" fill="#3550a2"/>
          <path id="Path_124250" data-name="Path 124250" d="M268.126,416.707c-1.67,7.451-1.035,35.744,2.376,37.759a19.9,19.9,0,0,1-4.3-.308,8.639,8.639,0,0,1-4.659-2.1c-1.558-1.571-1.906-3.878-2.126-6.031-.011-.111-.021-.22-.032-.332-.136-1.359-.242-2.724-.327-4.091-.42-6.95-.239-14-.074-20.931.079-3.353.356-6.87,2.641-9.429,1.545-1.731,3.531-2.307,5.88-2.716A30.762,30.762,0,0,1,274.64,408a7.922,7.922,0,0,0-4.508,3.443A15.9,15.9,0,0,0,268.126,416.707Z" transform="translate(-257.523 -397.079)" fill="#243065"/>
          <path id="Path_124251" data-name="Path 124251" d="M324.536,391.94q.238,1.176.475,2.353l-6.389-.276a18.774,18.774,0,0,0-1.207-5.109,7.942,7.942,0,0,0-3.358-3.929,7.33,7.33,0,0,0-8.015,1.143,11,11,0,0,0-3.5,7.618,27.817,27.817,0,0,0-8.454.242l.052-1.763a30.832,30.832,0,0,1,4.89-.38c.7-2.4,1.51-4.971,3.526-6.442a10.789,10.789,0,0,1,5.329-1.591,23.6,23.6,0,0,1,5.991-.057,9.545,9.545,0,0,1,5.357,2.49c1.418,1.414,1.6,3.3,2.031,5.493Z" transform="translate(-277.058 -383.58)" fill="#283472"/>
          <path id="Path_124252" data-name="Path 124252" d="M282.073,430.133a3.016,3.016,0,0,1-1.749-.357,1.044,1.044,0,0,1-.252-1.552q23.371.027,46.735.665.082.607.164,1.214Z" transform="translate(-269.16 -408.3)" fill="#283472"/>
        </g>
        <g id="Group_13891" data-name="Group 13891" transform="translate(15.504 31.395)">
          <path id="Path_124253" data-name="Path 124253" d="M293.794,477.624a.692.692,0,0,0,.146.017c.168,0,.384-.063.384-.343,0-.234-.133-.283-.345-.283h-.185v.61Zm-.168-.154c0-.176-.008-.355-.016-.532.066.006.133.01.2.01s.2-.01.254-.01c.124,0,.45,0,.45.347,0,.362-.355.431-.552.431-.062,0-.113,0-.166-.006v.113c0,.177.008.355.016.532a.618.618,0,0,0-.1-.01.609.609,0,0,0-.1.01c.008-.177.016-.355.016-.532v-.353Z" transform="translate(-292.298 -466.667)" fill="#fff"/>
          <path id="Path_124254" data-name="Path 124254" d="M295.9,478.288c.084,0,.181.006.267.006s.187,0,.273-.006c0-.146-.039-.355-.253-.355s-.277.207-.287.355m.283-.421a.394.394,0,0,1,.425.419c0,.027,0,.054,0,.08-.148,0-.294-.006-.439-.006-.09,0-.179,0-.269.006,0,.02,0,.039,0,.057a.347.347,0,0,0,.355.38.445.445,0,0,0,.308-.146l.01.006-.012.1a.588.588,0,0,1-.343.125.475.475,0,0,1-.5-.482c0-.332.168-.54.47-.54" transform="translate(-293.462 -467.181)" fill="#fff"/>
          <path id="Path_124255" data-name="Path 124255" d="M298.671,478.056a.156.156,0,0,0-.1-.033c-.132,0-.21.125-.21.285,0,.357,0,.466.008.561a.4.4,0,0,0-.082-.01.455.455,0,0,0-.086.01c.009-.1.009-.261.009-.491v-.066c0-.107,0-.248-.009-.425a.421.421,0,0,0,.086.01.367.367,0,0,0,.082-.01,1.644,1.644,0,0,0-.01.2l0,0c.078-.148.177-.222.271-.222a.146.146,0,0,1,.066.013.571.571,0,0,0-.014.166l-.014.01Z" transform="translate(-294.84 -467.181)" fill="#fff"/>
          <path id="Path_124256" data-name="Path 124256" d="M299.631,478.672a.281.281,0,0,0,.232.141.185.185,0,0,0,.2-.185c0-.254-.485-.1-.485-.452a.305.305,0,0,1,.341-.31.633.633,0,0,1,.228.058.534.534,0,0,0-.049.145h-.025a.188.188,0,0,0-.181-.127.167.167,0,0,0-.174.173c0,.266.485.1.485.449a.349.349,0,0,1-.37.324.509.509,0,0,1-.265-.068.458.458,0,0,0,.039-.15Z" transform="translate(-295.597 -467.181)" fill="#fff"/>
          <path id="Path_124257" data-name="Path 124257" d="M301.833,478.823c.242,0,.318-.216.318-.445s-.076-.445-.318-.445-.319.216-.319.445.076.445.319.445m0-.956a.511.511,0,1,1-.5.511.472.472,0,0,1,.5-.511" transform="translate(-296.575 -467.181)" fill="#fff"/>
          <path id="Path_124258" data-name="Path 124258" d="M304.526,477.974c-.191,0-.277.123-.277.337v.174c0,.123,0,.267.016.384a.418.418,0,0,0-.184,0c.012-.117.016-.261.016-.384v-.213c0-.123,0-.267-.016-.384a.372.372,0,0,0,.174,0c0,.055-.006.109-.006.164h0a.371.371,0,0,1,.328-.185.311.311,0,0,1,.328.357c0,.117-.008.24-.008.38,0,.09,0,.177,0,.265a.46.46,0,0,0-.087-.01.421.421,0,0,0-.084.01c0-.15.015-.3.015-.457v-.125c0-.2-.088-.312-.224-.312" transform="translate(-298.096 -467.181)" fill="#fff"/>
          <path id="Path_124259" data-name="Path 124259" d="M307.079,478.352c-.141.047-.429.033-.429.256a.179.179,0,0,0,.178.2.3.3,0,0,0,.242-.144l.008-.307Zm-.507-.366a.513.513,0,0,1,.331-.119.3.3,0,0,1,.333.3c0,.154-.008.306-.008.478,0,.068,0,.152.08.152a.081.081,0,0,0,.043-.008v.046a.349.349,0,0,1-.131.029.134.134,0,0,1-.141-.128.414.414,0,0,1-.322.15.261.261,0,0,1-.273-.253c0-.164.111-.253.29-.281.3-.048.307-.064.307-.144,0-.137-.061-.259-.225-.259a.289.289,0,0,0-.259.14h-.023v-.107Z" transform="translate(-299.426 -467.181)" fill="#fff"/>
          <path id="Path_124260" data-name="Path 124260" d="M309.039,477.221c0-.189,0-.454-.017-.592a.435.435,0,0,0,.092.011.43.43,0,0,0,.092-.011c-.012.138-.016.4-.016.592v.371c0,.189,0,.454.016.591a.46.46,0,0,0-.092-.01.466.466,0,0,0-.092.01c.012-.137.017-.4.017-.591v-.371Z" transform="translate(-300.832 -466.496)" fill="#fff"/>
          <path id="Path_124261" data-name="Path 124261" d="M310.3,477.724c0-.123,0-.267-.017-.384a.475.475,0,0,0,.092.01.463.463,0,0,0,.092-.01c-.012.117-.016.261-.016.384v.213c0,.123,0,.267.016.384a.491.491,0,0,0-.092-.01.505.505,0,0,0-.092.01c.013-.117.017-.261.017-.384v-.213Zm.076-.846a.1.1,0,1,1-.1.1.105.105,0,0,1,.1-.1" transform="translate(-301.525 -466.634)" fill="#fff"/>
          <path id="Path_124262" data-name="Path 124262" d="M311.3,478.865c.236-.285.513-.667.661-.866-.039,0-.4.017-.557.031a.239.239,0,0,0,.006-.057.3.3,0,0,0-.006-.06c.086.008.261.01.513.01a2.5,2.5,0,0,0,.269-.01v.031c-.22.285-.55.72-.653.864a5.839,5.839,0,0,0,.642-.029.208.208,0,0,0,0,.115c-.17,0-.343-.01-.513-.01-.121,0-.242.006-.363.01v-.029Z" transform="translate(-302.095 -467.207)" fill="#fff"/>
          <path id="Path_124263" data-name="Path 124263" d="M313.8,478.288c.084,0,.181.006.267.006s.187,0,.273-.006c0-.146-.039-.355-.253-.355s-.277.207-.287.355m.283-.421a.394.394,0,0,1,.425.419c0,.027,0,.054,0,.08-.148,0-.294-.006-.44-.006-.09,0-.179,0-.269.006a.5.5,0,0,0,0,.057.347.347,0,0,0,.355.38.445.445,0,0,0,.307-.146l.011.006-.013.1a.587.587,0,0,1-.343.125.475.475,0,0,1-.5-.482c0-.332.169-.54.47-.54" transform="translate(-303.371 -467.181)" fill="#fff"/>
          <path id="Path_124264" data-name="Path 124264" d="M316.4,478.128c.213,0,.306-.232.306-.456,0-.258-.1-.4-.3-.4s-.289.2-.289.443c0,.328.15.417.283.417m.3-.146h0a.377.377,0,0,1-.347.222c-.208,0-.417-.152-.417-.5a.464.464,0,0,1,.441-.517.321.321,0,0,1,.316.205h0c0-.259,0-.581-.008-.757a.8.8,0,0,0,.092.01.874.874,0,0,0,.093-.01c-.019.172-.025.71-.025,1.061,0,.187,0,.328.006.493a.674.674,0,0,0-.08-.01.6.6,0,0,0-.078.01l.006-.2Z" transform="translate(-304.663 -466.496)" fill="#fff"/>
          <path id="Path_124265" data-name="Path 124265" d="M334.286,478.048a.354.354,0,0,0,.324.214.283.283,0,0,0,.293-.3c0-.378-.646-.216-.646-.7a.4.4,0,0,1,.445-.388.452.452,0,0,1,.3.1.63.63,0,0,0-.055.172h-.025a.258.258,0,0,0-.245-.193.25.25,0,0,0-.264.255c0,.384.646.224.646.677a.464.464,0,0,1-.5.462.5.5,0,0,1-.339-.117.622.622,0,0,0,.039-.183Z" transform="translate(-314.786 -466.634)" fill="#fff"/>
          <path id="Path_124266" data-name="Path 124266" d="M336.671,478.239c0-.1,0-.212,0-.326a.423.423,0,0,0,.086.01.406.406,0,0,0,.084-.01c-.013.16-.021.37-.021.571a.356.356,0,0,0,.063.248.23.23,0,0,0,.177.076.24.24,0,0,0,.228-.131c.041-.088.043-.1.043-.427,0-.111,0-.238,0-.337a.388.388,0,0,0,.086.01.354.354,0,0,0,.084-.01c-.012.213-.014.406-.014.624,0,.121,0,.242.009.357a.319.319,0,0,0-.161,0c0-.059,0-.119,0-.176h0a.363.363,0,0,1-.32.2.311.311,0,0,1-.343-.336c0-.144.006-.238.006-.339" transform="translate(-316.138 -467.207)" fill="#fff"/>
          <path id="Path_124267" data-name="Path 124267" d="M339.61,477.953c-.222,0-.306.2-.306.433,0,.282.1.427.3.427s.29-.2.29-.443c0-.328-.15-.417-.283-.417m-.458.532c0-.189,0-.454-.016-.6a.462.462,0,0,0,.092.01.454.454,0,0,0,.092-.01,1.457,1.457,0,0,0-.016.2h0a.369.369,0,0,1,.346-.222c.209,0,.419.152.419.505a.464.464,0,0,1-.443.517.336.336,0,0,1-.322-.2h0v.129c0,.189,0,.454.016.591a.488.488,0,0,0-.092-.01.5.5,0,0,0-.092.01c.013-.137.016-.4.016-.591v-.332Z" transform="translate(-317.506 -467.181)" fill="#fff"/>
          <path id="Path_124268" data-name="Path 124268" d="M342.168,477.953c-.222,0-.306.2-.306.433,0,.282.1.427.3.427s.29-.2.29-.443c0-.328-.15-.417-.283-.417m-.458.532c0-.189,0-.454-.016-.6a.42.42,0,0,0,.185,0,1.392,1.392,0,0,0-.017.2h0a.371.371,0,0,1,.347-.222c.209,0,.419.152.419.505a.464.464,0,0,1-.444.517.337.337,0,0,1-.322-.2h0v.129c0,.189,0,.454.017.591a.439.439,0,0,0-.185,0c.012-.137.016-.4.016-.591v-.332Z" transform="translate(-318.922 -467.181)" fill="#fff"/>
          <path id="Path_124269" data-name="Path 124269" d="M344.65,478.823c.242,0,.318-.216.318-.445s-.076-.445-.318-.445-.318.216-.318.445.076.445.318.445m0-.956a.511.511,0,1,1-.5.511.472.472,0,0,1,.5-.511" transform="translate(-320.283 -467.181)" fill="#fff"/>
          <path id="Path_124270" data-name="Path 124270" d="M347.367,478.056a.159.159,0,0,0-.1-.033c-.131,0-.209.125-.209.285,0,.357,0,.466.008.561a.392.392,0,0,0-.082-.01.455.455,0,0,0-.086.01c.008-.1.008-.261.008-.491v-.066c0-.107,0-.248-.008-.425a.42.42,0,0,0,.086.01.364.364,0,0,0,.082-.01,1.644,1.644,0,0,0-.01.2l0,0c.078-.148.177-.222.271-.222a.149.149,0,0,1,.066.013.568.568,0,0,0-.014.166l-.014.01Z" transform="translate(-321.803 -467.181)" fill="#fff"/>
          <path id="Path_124271" data-name="Path 124271" d="M348.456,477.3h.01c-.008.1-.012.2-.016.3.029,0,.123,0,.217-.007a.285.285,0,0,0,0,.043.282.282,0,0,0,0,.043c-.072,0-.168,0-.217,0,0,.021-.014.343-.014.521,0,.154,0,.31.166.31a.4.4,0,0,0,.092-.014v.049a.512.512,0,0,1-.158.031.229.229,0,0,1-.253-.257c0-.15.012-.334.014-.64-.041,0-.086,0-.139,0a.42.42,0,0,0,0-.047.311.311,0,0,0,0-.041c.062,0,.107.006.135.006,0-.053,0-.141-.008-.229l.171-.072Z" transform="translate(-322.501 -466.866)" fill="#fff"/>
          <path id="Path_124272" data-name="Path 124272" d="M351.272,476.793a.212.212,0,0,0-.113-.031c-.121,0-.168.1-.168.205a2.271,2.271,0,0,0,.025.241l.212,0a.37.37,0,0,0,0,.041.3.3,0,0,0,0,.041c-.07,0-.142-.006-.212-.006,0,.3,0,.593.008.894a.424.424,0,0,0-.088-.01.459.459,0,0,0-.09.01c.018-.3.018-.595.018-.894-.049,0-.1,0-.147.006a.237.237,0,0,0,0-.041.278.278,0,0,0,0-.041l.147,0a.8.8,0,0,1,.179-.5.32.32,0,0,1,.209-.094.13.13,0,0,1,.041.006c0,.055-.008.111-.008.164l-.012.007Z" transform="translate(-323.918 -466.489)" fill="#fff"/>
          <path id="Path_124273" data-name="Path 124273" d="M352.736,478.056a.157.157,0,0,0-.1-.033c-.132,0-.209.125-.209.285,0,.357,0,.466.008.561a.392.392,0,0,0-.082-.01.455.455,0,0,0-.086.01c.008-.1.008-.261.008-.491v-.066c0-.107,0-.248-.008-.425a.421.421,0,0,0,.086.01.364.364,0,0,0,.082-.01,1.644,1.644,0,0,0-.01.2l0,0c.078-.148.177-.222.271-.222a.15.15,0,0,1,.066.013.57.57,0,0,0-.014.166l-.015.01Z" transform="translate(-324.776 -467.181)" fill="#fff"/>
          <path id="Path_124274" data-name="Path 124274" d="M354.108,478.823c.242,0,.318-.216.318-.445s-.076-.445-.318-.445-.318.216-.318.445.076.445.318.445m0-.956a.511.511,0,1,1-.5.511.472.472,0,0,1,.5-.511" transform="translate(-325.52 -467.181)" fill="#fff"/>
          <path id="Path_124275" data-name="Path 124275" d="M356.345,478.271c0-.123,0-.267-.017-.384a.462.462,0,0,0,.092.01.452.452,0,0,0,.082-.01c0,.055-.006.109-.006.164h0a.336.336,0,0,1,.306-.185.3.3,0,0,1,.3.2h0a.355.355,0,0,1,.33-.2.288.288,0,0,1,.314.324c0,.094-.012.212-.012.453,0,.074,0,.137.006.224a.434.434,0,0,0-.088-.01.462.462,0,0,0-.09.01c.008-.076.021-.281.021-.649,0-.137-.053-.246-.215-.246a.247.247,0,0,0-.206.1c-.043.062-.049.083-.049.472,0,.119,0,.2.01.326a.4.4,0,0,0-.181,0c.013-.154.019-.316.019-.466,0-.255,0-.271-.037-.335a.21.21,0,0,0-.171-.094c-.177,0-.262.123-.262.337v.174c0,.123,0,.267.016.384a.42.42,0,0,0-.185,0c.013-.117.017-.261.017-.384v-.213Z" transform="translate(-327.025 -467.181)" fill="#fff"/>
          <path id="Path_124276" data-name="Path 124276" d="M361.64,477.155l-.224.521c.072,0,.15,0,.221,0s.154,0,.23,0l-.228-.521Zm.068-.277c.2.476.509,1.223.618,1.443a.58.58,0,0,0-.218,0c-.039-.142-.137-.367-.212-.55-.088,0-.178,0-.269,0s-.166,0-.25,0a5.518,5.518,0,0,0-.2.55.356.356,0,0,0-.076-.01.351.351,0,0,0-.075.01c.219-.48.433-.958.643-1.443Z" transform="translate(-329.626 -466.634)" fill="#fff"/>
          <path id="Path_124277" data-name="Path 124277" d="M364.465,477.221c0-.189,0-.454-.017-.592a.405.405,0,0,0,.185,0c-.012.138-.017.4-.017.592v.371c0,.189,0,.454.017.591a.422.422,0,0,0-.185,0c.013-.137.017-.4.017-.591v-.371Z" transform="translate(-331.521 -466.496)" fill="#fff"/>
          <path id="Path_124278" data-name="Path 124278" d="M365.643,478.288c.084,0,.18.006.266.006s.187,0,.273-.006c0-.146-.039-.355-.253-.355s-.277.207-.287.355m.283-.421a.394.394,0,0,1,.425.419c0,.027,0,.054,0,.08-.148,0-.294-.006-.439-.006-.09,0-.179,0-.269.006,0,.02,0,.039,0,.057a.347.347,0,0,0,.355.38.445.445,0,0,0,.308-.146l.01.006-.013.1a.585.585,0,0,1-.343.125.475.475,0,0,1-.5-.482c0-.332.168-.54.47-.54" transform="translate(-332.079 -467.181)" fill="#fff"/>
          <path id="Path_124279" data-name="Path 124279" d="M368.474,477.913a.248.248,0,0,0,.141,0c-.131.15-.257.3-.378.443.123.179.257.359.4.538a.538.538,0,0,0-.209,0c-.091-.14-.187-.279-.286-.419-.1.14-.2.279-.291.419a.271.271,0,0,0-.067-.01.292.292,0,0,0-.07.01c.132-.16.257-.32.38-.48-.121-.166-.246-.332-.378-.5a.579.579,0,0,0,.217,0c.078.129.167.257.261.384.1-.127.193-.254.283-.384" transform="translate(-333.327 -467.207)" fill="#fff"/>
          <path id="Path_124280" data-name="Path 124280" d="M370.33,477.724c0-.123,0-.267-.016-.384a.421.421,0,0,0,.185,0c-.013.117-.017.261-.017.384v.213c0,.123,0,.267.017.384a.419.419,0,0,0-.185,0c.012-.117.016-.261.016-.384v-.213Zm.076-.846a.1.1,0,1,1-.1.1.105.105,0,0,1,.1-.1" transform="translate(-334.762 -466.634)" fill="#fff"/>
          <path id="Path_124281" data-name="Path 124281" d="M371.835,478.823c.242,0,.319-.216.319-.445s-.076-.445-.319-.445-.318.216-.318.445.076.445.318.445m0-.956a.511.511,0,1,1-.5.511.472.472,0,0,1,.5-.511" transform="translate(-335.335 -467.181)" fill="#fff"/>
          <path id="Path_124282" data-name="Path 124282" d="M374.527,477.974c-.191,0-.277.123-.277.337v.174c0,.123,0,.267.017.384a.42.42,0,0,0-.185,0c.012-.117.016-.261.016-.384v-.213c0-.123,0-.267-.016-.384a.462.462,0,0,0,.092.01.456.456,0,0,0,.082-.01c0,.055-.006.109-.006.164h0a.371.371,0,0,1,.328-.185.311.311,0,0,1,.328.357c0,.117-.008.24-.008.38,0,.09,0,.177,0,.265a.455.455,0,0,0-.086-.01.413.413,0,0,0-.084.01c0-.15.014-.3.014-.457v-.125c0-.2-.088-.312-.224-.312" transform="translate(-336.855 -467.181)" fill="#fff"/>
          <path id="Path_124283" data-name="Path 124283" d="M320.18,477.587a.711.711,0,0,0,.148.017c.171,0,.39-.065.39-.348,0-.237-.135-.287-.35-.287h-.187v.619Zm-.17-.156c0-.179-.008-.36-.017-.539.066.006.135.01.2.01s.2-.01.258-.01c.125,0,.456,0,.456.352,0,.366-.361.437-.561.437-.062,0-.114,0-.169-.006v.115c0,.179.009.36.017.539a.512.512,0,0,0-.2,0c.008-.179.017-.36.017-.539v-.358Z" transform="translate(-306.907 -466.641)" fill="#fff"/>
          <path id="Path_124284" data-name="Path 124284" d="M322.512,478.326c-.144.048-.435.033-.435.26a.182.182,0,0,0,.181.2.3.3,0,0,0,.245-.146l.009-.312Zm-.515-.371a.522.522,0,0,1,.335-.121.307.307,0,0,1,.337.308c0,.156-.008.31-.008.485,0,.069,0,.154.081.154a.083.083,0,0,0,.044-.008v.046a.35.35,0,0,1-.133.029.136.136,0,0,1-.144-.129.421.421,0,0,1-.327.152.264.264,0,0,1-.277-.256c0-.166.112-.256.293-.285.3-.048.313-.065.313-.146,0-.14-.063-.262-.229-.262a.294.294,0,0,0-.262.142H322v-.109Z" transform="translate(-307.966 -467.163)" fill="#fff"/>
          <path id="Path_124285" data-name="Path 124285" d="M324.4,477.256h.01c-.008.1-.013.206-.017.308.029,0,.125,0,.221-.007a.284.284,0,0,0,0,.044.281.281,0,0,0,0,.044c-.073,0-.171,0-.221,0,0,.021-.014.348-.014.529,0,.156,0,.315.168.315a.387.387,0,0,0,.094-.015v.05a.512.512,0,0,1-.16.031.232.232,0,0,1-.256-.261c0-.152.012-.339.014-.649-.042,0-.087,0-.141,0a.345.345,0,0,0,0-.048.262.262,0,0,0,0-.041c.062,0,.108.006.138.006,0-.054,0-.144-.009-.233l.173-.073Z" transform="translate(-309.177 -466.843)" fill="#fff"/>
          <path id="Path_124286" data-name="Path 124286" d="M325.724,477.689c0-.125,0-.27-.017-.389a.435.435,0,0,0,.187,0c-.013.119-.017.265-.017.389v.217c0,.124,0,.27.017.389a.433.433,0,0,0-.187,0c.012-.119.017-.265.017-.389v-.217Zm.077-.858a.106.106,0,1,1-.106.106.106.106,0,0,1,.106-.106" transform="translate(-310.064 -466.608)" fill="#fff"/>
          <path id="Path_124287" data-name="Path 124287" d="M326.906,478.261c.086,0,.183.006.271.006s.189,0,.277-.006c0-.148-.04-.361-.257-.361s-.281.211-.291.361m.287-.427a.4.4,0,0,1,.431.425c0,.027,0,.054,0,.081-.15,0-.3-.006-.446-.006-.091,0-.181,0-.273.006,0,.021,0,.039,0,.058a.352.352,0,0,0,.36.385.453.453,0,0,0,.312-.148l.011.006-.013.1a.6.6,0,0,1-.348.127.482.482,0,0,1-.506-.49c0-.337.171-.548.477-.548" transform="translate(-310.63 -467.163)" fill="#fff"/>
          <path id="Path_124288" data-name="Path 124288" d="M329.666,477.942c-.194,0-.281.125-.281.341v.177c0,.125,0,.271.016.39a.415.415,0,0,0-.187,0c.012-.119.017-.265.017-.39v-.216c0-.125,0-.27-.017-.389a.385.385,0,0,0,.177,0c0,.056-.006.11-.006.166h0a.377.377,0,0,1,.333-.187.316.316,0,0,1,.333.362c0,.119-.008.244-.008.385,0,.092,0,.179,0,.269a.4.4,0,0,0-.087-.011.372.372,0,0,0-.085.011c0-.153.014-.3.014-.465v-.127c0-.2-.089-.316-.227-.316" transform="translate(-312.012 -467.163)" fill="#fff"/>
          <path id="Path_124289" data-name="Path 124289" d="M331.806,477.256h.01c-.008.1-.013.206-.017.308.029,0,.125,0,.221-.007a.288.288,0,0,0,0,.044.285.285,0,0,0,0,.044c-.073,0-.171,0-.221,0,0,.021-.014.348-.014.529,0,.156,0,.315.168.315a.394.394,0,0,0,.094-.015v.05a.517.517,0,0,1-.161.031.232.232,0,0,1-.256-.261c0-.152.012-.339.015-.649-.042,0-.087,0-.142,0a.345.345,0,0,0,0-.048.262.262,0,0,0,0-.041c.063,0,.108.006.137.006,0-.054,0-.144-.008-.233l.173-.073Z" transform="translate(-313.28 -466.843)" fill="#fff"/>
          <g id="Group_13890" data-name="Group 13890">
            <path id="Path_124290" data-name="Path 124290" d="M370.938,465.878c0,.3.011.745.019.9a13.547,13.547,0,0,0,1.529-.071.887.887,0,0,0-.024.2.716.716,0,0,0,.024.186,6.439,6.439,0,0,0-.808-.034c-.449,0-.9.016-1.351.034.018-.225.034-.436.044-.763.011-.3.018-.706.018-1.319,0-.507-.008-1.17-.034-1.708,0-.081-.005-.157-.011-.231.407.034.808.034,1.214.034.3,0,.588,0,.884-.034a1.222,1.222,0,0,0-.021.2.937.937,0,0,0,.021.186,4.109,4.109,0,0,0-.923-.076c-.21,0-.315,0-.564.01-.013.228-.013.325-.013.669,0,.378,0,.448.005.758a10.91,10.91,0,0,0,1.374-.042.892.892,0,0,0-.023.2c0,.063.018.116.023.179a7.529,7.529,0,0,0-.9-.058c-.157,0-.325,0-.472.011-.005.252-.011.514-.011.764" transform="translate(-334.776 -458.99)" fill="#fff"/>
            <path id="Path_124291" data-name="Path 124291" d="M362.338,462.967a3.356,3.356,0,0,1,1.438.309,1.933,1.933,0,0,0-.139.583h-.058a1.424,1.424,0,0,0-1.262-.641c-.921,0-1.532.674-1.532,1.8a1.609,1.609,0,0,0,1.577,1.811,1.706,1.706,0,0,0,1.322-.6l.069.032a2.509,2.509,0,0,0-.063.47,2.8,2.8,0,0,1-1.443.378,2.072,2.072,0,1,1,.092-4.137" transform="translate(-329.12 -458.931)" fill="#fff"/>
            <path id="Path_124292" data-name="Path 124292" d="M353.949,465.063c.216.331,1.433,1.858,1.5,1.954v.071a2.1,2.1,0,0,0-.341-.033,3.892,3.892,0,0,0-.419.033,16.275,16.275,0,0,0-1.428-1.949h-.15c0,.412-.008,1.018.039,1.949a1.562,1.562,0,0,0-.336-.033,1.223,1.223,0,0,0-.309.033c.029-.687.042-1.38.042-2.23,0-.54-.019-1.146-.037-1.8a4.429,4.429,0,0,0,.506.024c.105,0,.583-.008.677-.008.693,0,.908.089,1.1.246a.834.834,0,0,1,.3.7c0,.831-.784.979-1.141,1.042m.536-.978c0-.679-.575-.769-1-.769a2.5,2.5,0,0,0-.368.029c-.013.262-.013.53-.013.792s.008.674.008.8a1.891,1.891,0,0,0,.307.005c.263-.01,1.065-.047,1.065-.855" transform="translate(-324.909 -458.983)" fill="#fff"/>
            <path id="Path_124293" data-name="Path 124293" d="M345.351,466.71a1.645,1.645,0,0,1-1.28.459,1.45,1.45,0,0,1-1.663-1.7c0-1.566,0-1.682-.047-2.408a2.9,2.9,0,0,0,.344.034,2.1,2.1,0,0,0,.339-.034c-.053.761-.053,1.868-.053,1.989,0,.735.024,1.141.254,1.427a1.239,1.239,0,0,0,.931.378,1.124,1.124,0,0,0,1.147-.85,6.435,6.435,0,0,0,.1-1.2c0-.22-.024-1.367-.081-1.745a1.087,1.087,0,0,0,.273.034.949.949,0,0,0,.257-.034,15.157,15.157,0,0,0-.1,2.054,2.237,2.237,0,0,1-.42,1.595" transform="translate(-319.291 -458.983)" fill="#fff"/>
            <path id="Path_124294" data-name="Path 124294" d="M332.911,462.944a1.994,1.994,0,0,1,2.188,2.025,2.091,2.091,0,0,1-2.248,2.141,2.087,2.087,0,1,1,.06-4.165M334.435,465a2.322,2.322,0,0,0-.257-1.117,1.5,1.5,0,0,0-1.3-.688c-.774,0-1.556.524-1.556,1.839,0,1.136.64,1.829,1.538,1.829.918,0,1.571-.669,1.571-1.863" transform="translate(-312.816 -458.919)" fill="#fff"/>
            <path id="Path_124295" data-name="Path 124295" d="M325.527,464.732a1.542,1.542,0,0,1-1.713,1.521,2.045,2.045,0,0,1-1.241-.375,2.934,2.934,0,0,0,.123-.643h.089a1.228,1.228,0,0,0,1.139.711.906.906,0,0,0,1.01-.907c0-.552-.391-.759-.848-.942-.8-.333-.886-.367-1.07-.53a1.116,1.116,0,0,1-.341-.847,1.353,1.353,0,0,1,1.513-1.322,2.344,2.344,0,0,1,1.16.312,1.858,1.858,0,0,0-.2.609h-.1a.909.909,0,0,0-.947-.635.779.779,0,0,0-.873.784c0,.538.451.722.8.86a3.4,3.4,0,0,1,1.113.53,1.091,1.091,0,0,1,.383.874" transform="translate(-308.335 -458.063)" fill="#fff"/>
            <path id="Path_124296" data-name="Path 124296" d="M317.076,467.061c-.449,0-.9.015-1.351.033.037-.438.066-.815.066-2.082,0-.582-.013-1.37-.047-1.939.406.034.808.034,1.217.034.3,0,.588,0,.884-.034a1.208,1.208,0,0,0-.023.2.916.916,0,0,0,.023.186,4.134,4.134,0,0,0-.926-.076c-.21,0-.315,0-.564.01-.011.229-.011.325-.011.669,0,.378,0,.448.005.757a10.8,10.8,0,0,0,1.372-.041,1.083,1.083,0,0,0-.024.2c0,.063.018.116.024.179a7.457,7.457,0,0,0-.9-.058c-.158,0-.328,0-.472.011-.005.251-.013.513-.013.763,0,.3.013.745.018.9a13.62,13.62,0,0,0,1.529-.07,1.083,1.083,0,0,0-.021.2.868.868,0,0,0,.021.186,6.534,6.534,0,0,0-.808-.033" transform="translate(-304.543 -458.99)" fill="#fff"/>
            <path id="Path_124297" data-name="Path 124297" d="M309.073,465.527c0,.454,0,1.154.024,1.566a1.009,1.009,0,0,0-.11-.011.726.726,0,0,0-.094.011c-.181-.22-1.052-1.194-1.461-1.571-.1-.092-.2-.191-.3-.291L306,464.05v.367c.016,1.406.039,1.74.092,2.642a.884.884,0,0,0-.244-.034.764.764,0,0,0-.228.034c.029-.291.076-1.293.076-1.9,0-.233-.016-1.246-.016-1.456v-.7a.6.6,0,0,0,.092.01c.034,0,.07,0,.124-.01l.191.225c.158.182.3.339.651.711,1.165,1.228,1.293,1.367,2.03,2.12v-.218c0-1.482,0-1.994-.073-2.839a.855.855,0,0,0,.225.034,1.173,1.173,0,0,0,.252-.034,21.224,21.224,0,0,0-.1,2.519" transform="translate(-298.949 -458.954)" fill="#fff"/>
            <g id="Group_13889" data-name="Group 13889">
              <g id="Group_13888" data-name="Group 13888" clip-path="url(#clip-path)">
                <path id="Path_124298" data-name="Path 124298" d="M294.962,465.971c-1.052,0-1.8-.811-1.8-2.143,0-1.54.915-2.154,1.823-2.154a1.759,1.759,0,0,1,1.519.806,2.735,2.735,0,0,1,.3,1.309c0,1.4-.763,2.182-1.841,2.182m.055-4.591h-.039a2.446,2.446,0,1,0-.029,4.885h.018a2.449,2.449,0,0,0,2.613-2.511,2.335,2.335,0,0,0-2.563-2.374" transform="translate(-291.619 -458.052)" fill="#fff"/>
                <path id="Path_124299" data-name="Path 124299" d="M299.947,454.428a35.407,35.407,0,0,0-4.655.985c-.764.22-1.521.472-2.265.767a13.341,13.341,0,0,0-2.186,1.07l0,0a.367.367,0,0,0,.4.616l.017-.011a12.814,12.814,0,0,1,2.035-1.023c.715-.294,1.448-.549,2.192-.773a34.689,34.689,0,0,1,4.557-1.024,53.488,53.488,0,0,1,9.355-.581,79.756,79.756,0,0,1,9.372.767c3.108.432,6.2,1.017,9.26,1.715a.131.131,0,0,0,.06-.255c-3.061-.739-6.15-1.364-9.266-1.836a80.26,80.26,0,0,0-9.414-.89q-1.029-.033-2.06-.033a51.527,51.527,0,0,0-7.4.5" transform="translate(-290.671 -453.924)" fill="#fff"/>
              </g>
            </g>
            <path id="Path_124300" data-name="Path 124300" d="M376.7,463.434h.062c.072,0,.131-.024.131-.083s-.038-.087-.121-.087a.324.324,0,0,0-.072.007v.162Zm0,.318h-.131v-.566a1.492,1.492,0,0,1,.217-.017.3.3,0,0,1,.193.045.143.143,0,0,1,.059.121.147.147,0,0,1-.118.135v.007c.055.017.083.062.1.138a.517.517,0,0,0,.042.138h-.138a.45.45,0,0,1-.045-.138c-.01-.059-.045-.087-.117-.087h-.062v.224Zm.087-.746a.453.453,0,0,0,.007.9.434.434,0,0,0,.431-.449.44.44,0,0,0-.435-.456Zm.007-.114a.568.568,0,1,1,0,1.135.568.568,0,1,1,0-1.135Z" transform="translate(-338.027 -458.89)" fill="#fff"/>
          </g>
        </g>
      </g>
    </g>
  </g>
</svg>
