<svg xmlns="http://www.w3.org/2000/svg" width="184" height="184" viewBox="0 0 184 184">
  <g id="Group_13910" data-name="Group 13910" transform="translate(13.041 -10.627) rotate(4)">
    <circle id="Ellipse_654" data-name="Ellipse 654" cx="92" cy="92" r="92" transform="matrix(0.998, -0.07, 0.07, 0.998, -12.268, 11.511)" fill="#00a8e1"/>
    <g id="Group_13908" data-name="Group 13908" transform="translate(16.716 36.048)">
      <path id="Rectangle_4456" data-name="Rectangle 4456" d="M1.819,0h61.85a1.82,1.82,0,0,1,1.82,1.82V90.958a1.819,1.819,0,0,1-1.819,1.819H1.819A1.819,1.819,0,0,1,0,90.958V1.819A1.819,1.819,0,0,1,1.819,0Z" transform="translate(0 27.356) rotate(-24.691)" fill="#ece7ea"/>
      <rect id="Rectangle_4457" data-name="Rectangle 4457" width="65.489" height="92.777" rx="1.82" transform="translate(0 27.356) rotate(-24.691)" fill="#f4f5f9"/>
      <g id="Group_13905" data-name="Group 13905" transform="translate(21.939 33.921)">
        <g id="Group_13895" data-name="Group 13895">
          <path id="Path_124301" data-name="Path 124301" d="M43.42,94.526l38.6-17.746a.689.689,0,1,1,.576,1.251L44,95.777a.689.689,0,1,1-.576-1.251Z" transform="translate(-43.018 -76.716)" fill="#bcabb7"/>
        </g>
        <g id="Group_13896" data-name="Group 13896" transform="translate(1.506 3.276)">
          <path id="Path_124302" data-name="Path 124302" d="M44.887,99.367a.687.687,0,0,1,.339-.913l38.6-17.747a.689.689,0,0,1,.576,1.253L45.8,99.706A.69.69,0,0,1,44.887,99.367Z" transform="translate(-44.824 -80.644)" fill="#bcabb7"/>
        </g>
        <g id="Group_13897" data-name="Group 13897" transform="translate(3.012 6.551)">
          <path id="Path_124303" data-name="Path 124303" d="M46.693,103.294a.689.689,0,0,1,.339-.913l38.6-17.747a.688.688,0,1,1,.575,1.25l-38.6,17.746A.688.688,0,0,1,46.693,103.294Z" transform="translate(-46.63 -84.571)" fill="#bcabb7"/>
        </g>
        <g id="Group_13898" data-name="Group 13898" transform="translate(4.518 9.827)">
          <path id="Path_124304" data-name="Path 124304" d="M48.5,107.22a.685.685,0,0,1,.339-.912l38.6-17.747a.688.688,0,1,1,.575,1.249l-38.6,17.747A.687.687,0,0,1,48.5,107.22Z" transform="translate(-48.435 -88.498)" fill="#bcabb7"/>
        </g>
        <g id="Group_13899" data-name="Group 13899" transform="translate(8.283 18.016)">
          <path id="Path_124305" data-name="Path 124305" d="M53.35,116.125l38.6-17.746a.688.688,0,1,1,.575,1.251l-38.6,17.747a.689.689,0,0,1-.576-1.252Z" transform="translate(-52.949 -98.315)" fill="#bcabb7"/>
        </g>
        <g id="Group_13900" data-name="Group 13900" transform="translate(9.789 21.291)">
          <path id="Path_124306" data-name="Path 124306" d="M54.817,120.965a.688.688,0,0,1,.339-.913l38.6-17.747a.688.688,0,1,1,.575,1.25L55.731,121.3A.687.687,0,0,1,54.817,120.965Z" transform="translate(-54.754 -102.243)" fill="#bcabb7"/>
        </g>
        <g id="Group_13901" data-name="Group 13901" transform="translate(11.295 24.567)">
          <path id="Path_124307" data-name="Path 124307" d="M56.623,124.892a.686.686,0,0,1,.339-.912l38.6-17.747a.689.689,0,1,1,.576,1.252l-38.6,17.746A.687.687,0,0,1,56.623,124.892Z" transform="translate(-56.56 -106.17)" fill="#bcabb7"/>
        </g>
        <g id="Group_13902" data-name="Group 13902" transform="translate(12.801 27.842)">
          <path id="Path_124308" data-name="Path 124308" d="M58.767,127.907l38.6-17.747a.689.689,0,1,1,.576,1.251l-38.6,17.746a.688.688,0,1,1-.576-1.25Z" transform="translate(-58.366 -110.097)" fill="#bcabb7"/>
        </g>
        <g id="Group_13903" data-name="Group 13903" transform="translate(14.307 31.12)">
          <path id="Path_124309" data-name="Path 124309" d="M60.234,132.746a.687.687,0,0,1,.339-.911l38.6-17.746a.687.687,0,1,1,.574,1.249l-38.6,17.746A.687.687,0,0,1,60.234,132.746Z" transform="translate(-60.172 -114.026)" fill="#bcabb7"/>
        </g>
        <g id="Group_13904" data-name="Group 13904" transform="translate(15.813 34.394)">
          <path id="Path_124310" data-name="Path 124310" d="M62.04,136.674a.687.687,0,0,1,.339-.912l38.6-17.746a.689.689,0,1,1,.576,1.251l-38.6,17.746A.687.687,0,0,1,62.04,136.674Z" transform="translate(-61.977 -117.952)" fill="#bcabb7"/>
        </g>
      </g>
      <g id="Group_13907" data-name="Group 13907" transform="translate(20.557 30.545)">
        <g id="Group_13906" data-name="Group 13906">
          <path id="Path_124311" data-name="Path 124311" d="M45.066,73.249a6.361,6.361,0,1,1-3.123,8.436A6.367,6.367,0,0,1,45.066,73.249Zm4.789,10.416a5.1,5.1,0,1,0-6.77-2.5A5.109,5.109,0,0,0,49.855,83.666Z" transform="translate(-41.362 -72.669)" fill="#988cae"/>
        </g>
        <path id="Path_124312" data-name="Path 124312" d="M45.5,80.985a3.148,3.148,0,1,0,1.546-4.178A3.148,3.148,0,0,0,45.5,80.985Z" transform="translate(-42.001 -73.307)" fill="#988cae"/>
      </g>
    </g>
    <g id="Group_13909" data-name="Group 13909" transform="translate(85.038 105.033)">
      <path id="Path_124313" data-name="Path 124313" d="M98.666,132.947a2.087,2.087,0,0,1,1.65-2.448l60.124-11.707a2.1,2.1,0,0,1,2.441,1.661c2.992,15.365,2.137,10.973,5.108,26.232a2.089,2.089,0,0,1-1.644,2.438l-60.131,11.708a2.063,2.063,0,0,1-2.438-1.643C101.508,147.542,99.493,137.194,98.666,132.947Z" transform="translate(-98.627 -118.755)" fill="#ece7ea"/>
      <path id="Path_124314" data-name="Path 124314" d="M100.315,130.5l60.123-11.707a2.1,2.1,0,0,1,2.443,1.661c.373,1.917.686,3.526.955,4.905a3.6,3.6,0,0,1-.592.516l-25.892,16.6a9.3,9.3,0,0,1-3.258,1.305h0a9.312,9.312,0,0,1-3.515.013l-30.213-5.676a3.575,3.575,0,0,1-.742-.257c-.4-2.044-.725-3.723-.957-4.913A2.089,2.089,0,0,1,100.315,130.5Z" transform="translate(-98.627 -118.755)" fill="#d6cbd4"/>
      <path id="Path_124315" data-name="Path 124315" d="M98.668,132.956a2.086,2.086,0,0,1,1.64-2.456l60.132-11.708a2.1,2.1,0,0,1,2.441,1.661l.405,2.083a1.975,1.975,0,0,1-.873,2.042l-25.893,16.6a7.812,7.812,0,0,1-5.658,1.1L100.649,136.6a1.977,1.977,0,0,1-1.576-1.565Z" transform="translate(-98.628 -118.755)" fill="#ece7ea"/>
    </g>
  </g>
</svg>
