<svg width="26" height="25" viewBox="0 0 26 25" fill="none" xmlns="http://www.w3.org/2000/svg">
<path d="M12.8912 0.0947266C19.581 0.0947266 25.0012 5.51493 25.0012 12.2047C25.0012 18.8945 19.581 24.3147 12.8912 24.3147C6.20145 24.3147 0.78125 18.8945 0.78125 12.2047C0.78125 5.51493 6.20145 0.0947266 12.8912 0.0947266ZM11.48 7.10681L15.1668 10.6421H6.25028C5.60083 10.6421 5.07835 11.1646 5.07835 11.8141V12.5954C5.07835 13.2448 5.60083 13.7673 6.25028 13.7673H15.1668L11.48 17.3026C11.0064 17.7568 10.9966 18.5136 11.4605 18.9775L11.9976 19.5098C12.4567 19.9688 13.1989 19.9688 13.653 19.5098L20.1328 13.0348C20.5918 12.5758 20.5918 11.8336 20.1328 11.3795L13.653 4.89478C13.194 4.43577 12.4518 4.43577 11.9976 4.89478L11.4605 5.42703C10.9966 5.89581 11.0064 6.65268 11.48 7.10681Z" fill="#003478"/>
</svg>
