<svg width="17" height="12" viewBox="0 0 17 12" fill="none" xmlns="http://www.w3.org/2000/svg">
<path d="M0.663367 1.17947C-0.0627805 1.89092 -0.0918647 3.06511 0.594703 3.81337L6.9494 10.739L6.95104 10.7408C6.96441 10.7555 6.97806 10.7701 6.99199 10.7844C7.55542 11.3668 8.40725 11.497 9.10041 11.1538C9.28498 11.0624 9.45616 10.9385 9.60513 10.7846C9.61941 10.7698 9.63361 10.7547 9.64672 10.7402L9.64844 10.7383L12.8255 7.27585L16.0026 3.81337C16.6891 3.06511 16.66 1.89091 15.9339 1.17947C15.1949 0.455418 14.0198 0.489064 13.3212 1.25042L8.29863 6.7242L3.27609 1.25042C2.5775 0.489064 1.40238 0.455417 0.663367 1.17947Z" fill="#939393"/>
</svg>
