<svg xmlns="http://www.w3.org/2000/svg" width="62" height="62" viewBox="0 0 62 62"><g fill="#fff" stroke="#707070" stroke-width="1" opacity="0"><circle cx="31" cy="31" r="31" stroke="none"/><circle cx="31" cy="31" r="30.5" fill="none"/></g><g transform="translate(-72.577 -369.531)"><path d="M.305,10.644a.66.66,0,0,0-.025,1.1.711.711,0,0,0,1.122,0L6.587,6.556a.728.728,0,0,0,0-1.1L1.4.274a.711.711,0,0,0-1.122,0,.66.66,0,0,0,.025,1.1L4.892,6.007Z" transform="translate(109.59 393.53) rotate(90)" fill="#fff"/><path d="M.305,10.644a.66.66,0,0,0-.025,1.1.711.711,0,0,0,1.122,0L6.587,6.556a.728.728,0,0,0,0-1.1L1.4.274a.711.711,0,0,0-1.122,0,.66.66,0,0,0,.025,1.1L4.892,6.007Z" transform="translate(109.59 400.707) rotate(90)" fill="#fff"/></g></svg>