<svg xmlns="http://www.w3.org/2000/svg" xmlns:xlink="http://www.w3.org/1999/xlink" width="184" height="184" viewBox="0 0 184 184">
  <defs>
    <clipPath id="clip-path">
      <circle id="Ellipse_634" data-name="Ellipse 634" cx="92" cy="92" r="92" fill="none"/>
    </clipPath>
  </defs>
  <g id="Group_13688" data-name="Group 13688" transform="translate(-4.866 -8.997)">
    <circle id="Ellipse_626" data-name="Ellipse 626" cx="92" cy="92" r="92" transform="translate(4.866 8.997)" fill="#00a8e1"/>
    <g id="Group_13687" data-name="Group 13687" transform="translate(4.866 8.997)">
      <g id="Mask_Group_13686" data-name="Mask Group 13686" clip-path="url(#clip-path)">
        <g id="Group_13685" data-name="Group 13685" transform="translate(-9.157 -7.021)">
          <g id="Group_13601" data-name="Group 13601" transform="translate(2.088 0)">
            <ellipse id="Ellipse_627" data-name="Ellipse 627" cx="97.302" cy="97.321" rx="97.302" ry="97.321" fill="none"/>
          </g>
          <g id="Group_13683" data-name="Group 13683" transform="translate(0 14.457)">
            <g id="Group_13607" data-name="Group 13607" transform="translate(142.411 150.646)">
              <g id="Group_13602" data-name="Group 13602" transform="translate(1.892 1.893)">
                <path id="Path_123868" data-name="Path 123868" d="M194.491,380.656a8.521,8.521,0,0,1-8.888-8.139l-2.326-52.827a281.979,281.979,0,0,0-12.8-72.458l-15.919-50.423a8.522,8.522,0,0,1,16.254-5.133L186.729,242.1a299.046,299.046,0,0,1,13.577,76.84l2.325,52.827A8.521,8.521,0,0,1,194.491,380.656Z" transform="translate(-154.16 -185.718)" fill="#b33f53"/>
              </g>
              <g id="Group_13603" data-name="Group 13603" transform="translate(23.929 174.884)">
                <path id="Path_123869" data-name="Path 123869" d="M207.769,413.544a2.985,2.985,0,0,1-1.788-.583.53.53,0,0,0-.823.278,3.553,3.553,0,0,1-5.868,1.59.529.529,0,0,0-.874.238,4.071,4.071,0,0,1-7.8.072.529.529,0,0,0-.9-.2,3.564,3.564,0,0,1-6.218-2.372s-.07-3.558-.116-4.976a.562.562,0,0,0-.559-.544c-4.014-.018-5.123-5.192-3.759-11.24,1.6-7.1,8.345-19.414,17.347-18.98,7.5.361,14.286,7.533,14.51,17.707.04,1.81.047-1.483-.065,15.965A3.064,3.064,0,0,1,207.769,413.544Z" transform="translate(-178.504 -376.818)" fill="#b33f53"/>
              </g>
              <g id="Group_13606" data-name="Group 13606">
                <g id="Group_13604" data-name="Group 13604">
                  <path id="Path_123870" data-name="Path 123870" d="M188.338,241.332l-15.919-50.424a10.416,10.416,0,0,0-19.865,6.273L168.472,247.6a280.019,280.019,0,0,1,10.435,46.768l20.7-2.283A300.946,300.946,0,0,0,188.338,241.332Z" transform="translate(-152.07 -183.627)" fill="#efb9cd"/>
                </g>
                <g id="Group_13605" data-name="Group 13605" transform="translate(24.248 108.344)">
                  <path id="Path_123871" data-name="Path 123871" d="M201.765,316.811l1.846-.2.974-.107a1.894,1.894,0,0,0,1.674-2.09L205.221,305a1.894,1.894,0,0,0-2.09-1.675l-.024,0-.958.1-20.7,2.283-.9.1-.047.006a1.9,1.9,0,0,0-1.629,2.084l1.038,9.412a1.894,1.894,0,0,0,2.09,1.675l.909-.1,1.915-.211Z" transform="translate(-178.856 -303.312)" fill="#f3d0dc"/>
                </g>
              </g>
            </g>
            <g id="Group_13613" data-name="Group 13613" transform="translate(0 150.646)">
              <g id="Group_13608" data-name="Group 13608" transform="translate(5.997 1.893)">
                <path id="Path_123872" data-name="Path 123872" d="M9.523,380.656a8.521,8.521,0,0,0,8.889-8.139l2.326-52.827a281.978,281.978,0,0,1,12.8-72.458l15.918-50.423A8.522,8.522,0,0,0,33.2,191.676L17.286,242.1A299.046,299.046,0,0,0,3.71,318.94L1.384,371.768A8.522,8.522,0,0,0,9.523,380.656Z" transform="translate(-1.376 -185.718)" fill="#b33f53"/>
              </g>
              <g id="Group_13609" data-name="Group 13609" transform="translate(0 174.884)">
                <path id="Path_123873" data-name="Path 123873" d="M-2.074,413.544a2.987,2.987,0,0,0,1.788-.583.525.525,0,0,1,.483-.075.528.528,0,0,1,.339.353,3.554,3.554,0,0,0,5.869,1.59.529.529,0,0,1,.874.238,4.07,4.07,0,0,0,7.8.072.53.53,0,0,1,.9-.2,3.564,3.564,0,0,0,6.218-2.372s.07-3.558.116-4.976a.561.561,0,0,1,.559-.544c4.015-.018,5.124-5.192,3.76-11.24-1.6-7.1-8.345-19.414-17.347-18.98-7.5.361-14.286,7.533-14.51,17.707-.041,1.81-.047-1.483.065,15.965A3.064,3.064,0,0,0-2.074,413.544Z" transform="translate(5.249 -376.818)" fill="#b33f53"/>
              </g>
              <g id="Group_13612" data-name="Group 13612" transform="translate(4.705)">
                <g id="Group_13610" data-name="Group 13610" transform="translate(4.121)">
                  <path id="Path_123874" data-name="Path 123874" d="M44.762,184.112a10.409,10.409,0,0,0-13.069,6.8L15.776,241.332A301.045,301.045,0,0,0,4.5,292.09l20.706,2.284A279.922,279.922,0,0,1,35.641,247.6L51.559,197.18A10.428,10.428,0,0,0,44.762,184.112Z" transform="translate(-4.501 -183.627)" fill="#efb9cd"/>
                </g>
                <g id="Group_13611" data-name="Group 13611" transform="translate(0 108.344)">
                  <path id="Path_123875" data-name="Path 123875" d="M3.113,303.326l-.024,0A1.894,1.894,0,0,0,1,305L-.039,314.41a1.894,1.894,0,0,0,1.675,2.09l.974.107,1.845.2L21.4,318.679l1.915.211.909.1a1.894,1.894,0,0,0,2.09-1.675l1.037-9.412a1.894,1.894,0,0,0-1.629-2.084l-.046-.006-.9-.1L4.07,303.431Z" transform="translate(0.051 -303.312)" fill="#f3d0dc"/>
                </g>
              </g>
            </g>
            <g id="Group_13614" data-name="Group 13614" transform="translate(74.997 127.247)">
              <path id="Path_123876" data-name="Path 123876" d="M120.288,162.9a7.341,7.341,0,0,0-3.644-3.084c-2.479-.949-7-2.039-14.674-2.039S89.777,158.87,87.3,159.819a7.349,7.349,0,0,0-3.644,3.084c-1.763,2.907-5.236,8.611-6.054,9.789,2.869,2.183,12.851,7.3,24.372,7.3s21.5-5.119,24.372-7.3C125.525,171.513,122.052,165.809,120.288,162.9Z" transform="translate(-77.599 -157.779)" fill="#f3d0dc"/>
            </g>
            <g id="Group_13619" data-name="Group 13619" transform="translate(84.479 94.817)">
              <g id="Group_13615" data-name="Group 13615" transform="translate(3.548 34.909)">
                <circle id="Ellipse_628" data-name="Ellipse 628" cx="11.363" cy="11.363" r="11.363" fill="#b33f53"/>
              </g>
              <g id="Group_13617" data-name="Group 13617" transform="translate(0 0.006)">
                <g id="Group_13616" data-name="Group 13616">
                  <path id="Path_123877" data-name="Path 123877" d="M102.968,196.056a14.892,14.892,0,0,1-14.895-14.893V136.854a14.894,14.894,0,0,1,29.789,0v44.309A14.892,14.892,0,0,1,102.968,196.056Z" transform="translate(-88.073 -121.961)" fill="#b33f53"/>
                </g>
              </g>
              <g id="Group_13618" data-name="Group 13618">
                <path id="Path_123878" data-name="Path 123878" d="M102.968,121.954a14.893,14.893,0,0,0-14.895,14.893V158.3a42.454,42.454,0,0,0,29.789,0V136.847A14.892,14.892,0,0,0,102.968,121.954Z" transform="translate(-88.073 -121.954)" fill="#993149"/>
              </g>
            </g>
            <g id="Group_13625" data-name="Group 13625" transform="translate(37.284 142.983)">
              <g id="Group_13620" data-name="Group 13620" transform="translate(81.342 178.014)">
                <circle id="Ellipse_629" data-name="Ellipse 629" cx="11.363" cy="11.363" r="11.363" fill="#b33f53"/>
              </g>
              <g id="Group_13621" data-name="Group 13621" transform="translate(20.111 178.014)">
                <circle id="Ellipse_630" data-name="Ellipse 630" cx="11.363" cy="11.363" r="11.363" fill="#b33f53"/>
              </g>
              <g id="Group_13622" data-name="Group 13622" transform="translate(107.02 9.556)">
                <circle id="Ellipse_631" data-name="Ellipse 631" cx="8.522" cy="8.522" r="8.522" fill="#b33f53"/>
              </g>
              <g id="Group_13623" data-name="Group 13623" transform="translate(0.148 9.556)">
                <circle id="Ellipse_632" data-name="Ellipse 632" cx="8.522" cy="8.522" r="8.522" fill="#b33f53"/>
              </g>
              <g id="Group_13624" data-name="Group 13624">
                <path id="Path_123879" data-name="Path 123879" d="M134.344,177.9c-8.762-1.633-20.506-2.741-36.317-2.741S70.471,176.27,61.71,177.9c-6.122,1.141-18.943,4.785-23.7,9.926a8.979,8.979,0,0,0,.5,12.019c3.736,3.608,6.466,7.127,7.86,12.9v0c5,20.719,9.787,38.769,13.536,53.326v0a105.541,105.541,0,0,1-2.191,59.837c-1.9,5.614-2.5,9.582-2.442,26.868C55,374.134,57.3,382.162,98.024,382.162h.006c40.724,0,43.027-8.028,42.756-29.371.051-15.969-.294-20.53-2.442-26.868a105.541,105.541,0,0,1-2.191-59.837v0c3.749-14.557,8.537-32.607,13.536-53.326v0c1.394-5.776,4.124-9.3,7.86-12.9a8.979,8.979,0,0,0,.5-12.019C153.287,182.688,140.466,179.044,134.344,177.9Z" transform="translate(-35.938 -175.162)" fill="#b33f53"/>
              </g>
            </g>
            <g id="Group_13626" data-name="Group 13626" transform="translate(35.406 141.336)">
              <path id="Path_123880" data-name="Path 123880" d="M159.241,186.37c-5.214-5.632-18.468-9.332-24.747-10.5a174.676,174.676,0,0,0-24.341-2.526c-3.472,3.215-8.514,6.056-12.327,8.126-3.813-2.07-8.853-4.91-12.326-8.125a174.739,174.739,0,0,0-24.334,2.525c-6.281,1.17-19.533,4.871-24.809,10.574-3.11,3.721-3.753,10.36.632,14.6,3.577,3.453,6.05,6.662,7.336,11.99C48.25,229.292,52,243.737,55.306,256.484l2.564,9.9A103.119,103.119,0,0,1,59.1,312.469a1.886,1.886,0,0,0,1.842,2.275h73.769a1.886,1.886,0,0,0,1.842-2.275,103.117,103.117,0,0,1,1.234-46.087q1.217-4.725,2.572-9.931c3.305-12.737,7.051-27.173,10.973-43.426,1.285-5.325,3.759-8.534,7.334-11.986C163.056,196.8,162.413,190.163,159.241,186.37Z" transform="translate(-33.863 -173.343)" fill="#f0f0f0"/>
            </g>
            <g id="Group_13627" data-name="Group 13627" transform="translate(74.999 142.161)">
              <path id="Path_123881" data-name="Path 123881" d="M116.311,194.182a1.89,1.89,0,0,1-2.67-.1l-11.67-12.523L90.3,194.079a1.889,1.889,0,0,1-2.669.1c-3.054-2.817-9.957-10.236-10.031-19.774a30.737,30.737,0,0,0,8.746,21.165,3.773,3.773,0,0,0,2.565,1h0a3.8,3.8,0,0,0,2.772-1.209l10.285-11.035,10.284,11.034a3.783,3.783,0,0,0,5.341.205,30.744,30.744,0,0,0,8.747-21.319h0C126.343,183.867,119.381,191.349,116.311,194.182Z" transform="translate(-77.601 -174.254)" fill="#969696"/>
            </g>
            <g id="Group_13628" data-name="Group 13628" transform="translate(89.306 149.388)">
              <path id="Path_123882" data-name="Path 123882" d="M106.423,198.554a3.4,3.4,0,0,1,.661-2.274l4.609-6.156-5.987-7.886c-.735.045-1.476.074-2.227.074s-1.493-.029-2.228-.074l-5.987,7.886,4.609,6.156a3.407,3.407,0,0,1,.662,2.274l-7.128,90.5,9.152,10.5a1.216,1.216,0,0,0,.916.423h.007a1.213,1.213,0,0,0,.917-.423l9.153-10.5Z" transform="translate(-93.406 -182.238)" fill="#cb2e43"/>
            </g>
            <g id="Group_13639" data-name="Group 13639" transform="translate(54.701 282.737)">
              <g id="Group_13629" data-name="Group 13629">
                <path id="Path_123883" data-name="Path 123883" d="M57.739,339.944c-2.019,5.956-2.6,10.284-2.542,27.451-.124,9.8.2,17.716,5.493,23.075,5.761,5.835,17.106,8.215,39.157,8.215h.006c22.051,0,33.4-2.38,39.156-8.215,5.293-5.358,5.618-13.278,5.494-23.044.05-15.816-.243-20.7-2.54-27.477q-1.488-4.435-2.567-8.953a1.876,1.876,0,0,0-1.826-1.451H62.13A1.877,1.877,0,0,0,60.3,331Q59.225,335.507,57.739,339.944Z" transform="translate(-55.178 -329.545)" fill="#5c678b"/>
              </g>
              <g id="Group_13636" data-name="Group 13636" transform="translate(1.73 2.447)">
                <g id="Group_13631" data-name="Group 13631" transform="translate(18.458)">
                  <g id="Group_13630" data-name="Group 13630">
                    <path id="Path_123884" data-name="Path 123884" d="M125.419,332.248H78.5L77.48,342.881h48.964l-1.025-10.632Z" transform="translate(-77.48 -332.248)" fill="#a9615a"/>
                  </g>
                </g>
                <g id="Group_13633" data-name="Group 13633" transform="translate(0 0)">
                  <g id="Group_13632" data-name="Group 13632">
                    <path id="Path_123885" data-name="Path 123885" d="M71.839,332.248h-11.6q-1,4.006-2.321,7.952c-.31.915-.586,1.791-.831,2.681H70.813l1.025-10.632Z" transform="translate(-57.089 -332.248)" fill="#a9615a"/>
                  </g>
                </g>
                <g id="Group_13635" data-name="Group 13635" transform="translate(71.131 0)">
                  <g id="Group_13634" data-name="Group 13634">
                    <path id="Path_123886" data-name="Path 123886" d="M149.59,340.205q-1.324-3.945-2.323-7.957h-11.6l1.025,10.632h13.724C150.174,342,149.9,341.121,149.59,340.205Z" transform="translate(-135.666 -332.248)" fill="#a9615a"/>
                  </g>
                </g>
              </g>
              <g id="Group_13638" data-name="Group 13638" transform="translate(36.358 2.447)">
                <g id="Group_13637" data-name="Group 13637">
                  <rect id="Rectangle_4388" data-name="Rectangle 4388" width="16.63" height="10.633" rx="1.046" fill="#d3ada6"/>
                </g>
              </g>
            </g>
            <g id="Group_13641" data-name="Group 13641" transform="translate(52.864 141.328)">
              <g id="Group_13640" data-name="Group 13640">
                <path id="Path_123887" data-name="Path 123887" d="M140.536,266.616q1.215-4.723,2.57-9.929.775-2.987,1.582-6.1a9.709,9.709,0,0,0,.178-3.961,195.921,195.921,0,0,1-2.225-30.359,181.7,181.7,0,0,1,3.471-37.051A1.888,1.888,0,0,0,144.8,177a80.38,80.38,0,0,0-8.3-2.068q-5.152-.959-11.176-1.591a1.9,1.9,0,0,0-2.106,1.946q.03.769.03,1.572c0,23.925-23.591,62.129-23.591,62.129s-23.591-38.2-23.591-62.129q0-.8.03-1.571a1.9,1.9,0,0,0-2.106-1.945q-6.01.63-11.164,1.59a79.486,79.486,0,0,0-8.316,2.076,1.888,1.888,0,0,0-1.312,2.21,181.73,181.73,0,0,1,3.47,37.045A195.865,195.865,0,0,1,54.441,246.6a9.709,9.709,0,0,0,.18,3.961q.813,3.143,1.6,6.159l2.563,9.9a102.141,102.141,0,0,1,2.291,39.325A1.84,1.84,0,0,0,61.8,307.7c6.931,5.04,16.812,11.407,21.839,12.793a2.692,2.692,0,0,0,2.31-.438c3.426-2.531,9.519-9.444,13.7-19.512,4.181,10.067,10.274,16.981,13.7,19.512a2.692,2.692,0,0,0,2.31.438c5.03-1.387,14.919-7.761,21.85-12.8a1.841,1.841,0,0,0,.731-1.752A102.114,102.114,0,0,1,140.536,266.616Z" transform="translate(-53.149 -173.334)" fill="#a9dff1"/>
              </g>
            </g>
            <g id="Group_13642" data-name="Group 13642" transform="translate(115.612 190.464)">
              <rect id="Rectangle_4389" data-name="Rectangle 4389" width="22.074" height="7.516" rx="2.092" fill="#4d3b62"/>
            </g>
            <g id="Group_13643" data-name="Group 13643" transform="translate(117.505 177.83)">
              <path id="Path_123888" data-name="Path 123888" d="M133.856,214.385l-9.3,11.906h18.287l-5.8-11.588A1.894,1.894,0,0,0,133.856,214.385Z" transform="translate(-124.557 -213.657)" fill="#efecf0"/>
            </g>
            <g id="Group_13646" data-name="Group 13646" transform="translate(74.998 133.635)">
              <g id="Group_13644" data-name="Group 13644" transform="translate(24.371)">
                <path id="Path_123889" data-name="Path 123889" d="M120.8,166.407c-.912,5.646-10.172,10.939-16.282,14.256l11.67,12.523a1.89,1.89,0,0,0,2.67.1c3.07-2.833,10.032-10.315,10.032-19.929-.658-.948-3.033-4.824-4.856-7.817a1.477,1.477,0,0,0-1.84-.59l-.5.21A1.573,1.573,0,0,0,120.8,166.407Z" transform="translate(-104.522 -164.836)" fill="#f0f0f0"/>
              </g>
              <g id="Group_13645" data-name="Group 13645">
                <path id="Path_123890" data-name="Path 123890" d="M84.791,165.164l-.5-.21a1.479,1.479,0,0,0-1.841.59c-1.822,2.993-4.2,6.869-4.855,7.817,0,9.614,6.961,17.1,10.032,19.929a1.889,1.889,0,0,0,2.669-.1l11.67-12.523c-6.109-3.317-15.37-8.61-16.281-14.256A1.573,1.573,0,0,0,84.791,165.164Z" transform="translate(-77.6 -164.836)" fill="#f0f0f0"/>
              </g>
            </g>
            <g id="Group_13649" data-name="Group 13649" transform="translate(39.126 27.933)">
              <g id="Group_13647" data-name="Group 13647" transform="translate(2.209 3.871)">
                <path id="Path_123891" data-name="Path 123891" d="M98.513,52.345c-37.268,0-58.1,20.967-58.1,35.1a13.291,13.291,0,0,0,2.89,7.989c9.348,9.3,30.55,15.791,55.21,15.791s45.862-6.491,55.21-15.791a13.285,13.285,0,0,0,2.89-7.989C156.613,73.312,135.633,52.345,98.513,52.345Z" transform="translate(-40.413 -52.345)" fill="#5e3641"/>
              </g>
              <g id="Group_13648" data-name="Group 13648">
                <path id="Path_123892" data-name="Path 123892" d="M158.592,84.362c0-9.659-9.52-22.409-27.106-29.942-.007-.023-.016-.046-.024-.069l.022.068a84.128,84.128,0,0,0-33.2-6.35c-15.269,0-27.88,3.378-37.552,8.366.007-.024.015-.046.023-.069-.007.023-.016.046-.023.069C45.9,64.085,37.973,75.519,37.973,84.362c0,3.793,1.82,7.4,5.1,10.662a13.291,13.291,0,0,1-2.89-7.989c0-14.128,20.832-35.1,58.1-35.1,37.119,0,58.1,20.967,58.1,35.1a13.285,13.285,0,0,1-2.89,7.989C156.77,91.762,158.592,88.155,158.592,84.362Z" transform="translate(-37.973 -48.069)" fill="#9c7473"/>
              </g>
            </g>
            <g id="Group_13677" data-name="Group 13677" transform="translate(52.258 21.349)">
              <g id="Group_13661" data-name="Group 13661">
                <g id="Group_13650" data-name="Group 13650" transform="translate(80.631 47.928)">
                  <path id="Path_123893" data-name="Path 123893" d="M150.762,93.79c-3.506-.629-7.431,4.887-8.765,12.321s.425,13.971,3.931,14.6,7.431-4.887,8.766-12.322S154.268,94.419,150.762,93.79Z" transform="translate(-141.551 -93.741)" fill="#993149"/>
                </g>
                <g id="Group_13651" data-name="Group 13651" transform="translate(0 47.928)">
                  <path id="Path_123894" data-name="Path 123894" d="M56.857,93.79c3.507-.629,7.431,4.887,8.765,12.321s-.425,13.971-3.931,14.6-7.431-4.887-8.765-12.322S53.352,94.419,56.857,93.79Z" transform="translate(-52.479 -93.741)" fill="#993149"/>
                </g>
                <g id="Group_13652" data-name="Group 13652" transform="translate(5.424)">
                  <path id="Path_123895" data-name="Path 123895" d="M100.174,40.8c-33.533,0-41.7,23.631-41.7,52.784s18.671,52.787,41.7,52.787,41.7-23.634,41.7-52.787S133.706,40.8,100.174,40.8Z" transform="translate(-58.471 -40.796)" fill="#b33f53"/>
                </g>
                <g id="Group_13653" data-name="Group 13653" transform="translate(61.88 42.669)">
                  <path id="Path_123896" data-name="Path 123896" d="M137.428,91.379c-5.141-4.576-14.569-3.3-14.965-3.243a1.894,1.894,0,0,0,.53,3.751c2.232-.317,8.74-.505,11.916,2.32a1.894,1.894,0,1,0,2.518-2.829Z" transform="translate(-120.837 -87.931)" fill="#4c1c39"/>
                </g>
                <g id="Group_13654" data-name="Group 13654" transform="translate(15.147 42.67)">
                  <path id="Path_123897" data-name="Path 123897" d="M84.811,88.137c-.4-.053-9.825-1.332-14.965,3.243a1.894,1.894,0,0,0,2.519,2.829c3.174-2.825,9.685-2.633,11.916-2.32a1.894,1.894,0,0,0,.53-3.751Z" transform="translate(-69.212 -87.933)" fill="#4c1c39"/>
                </g>
                <g id="Group_13655" data-name="Group 13655" transform="translate(18.115 55.892)">
                  <path id="Path_123898" data-name="Path 123898" d="M75.332,107.626c0-1.217,1.518-2.247,3.314-2.247s3.314,1.03,3.314,2.247a1.42,1.42,0,0,0,2.841,0c0-2.805-2.761-5.087-6.155-5.087s-6.155,2.282-6.155,5.087a1.42,1.42,0,0,0,2.841,0Z" transform="translate(-72.491 -102.539)" fill="#3f1a33"/>
                </g>
                <g id="Group_13656" data-name="Group 13656" transform="translate(63.828 55.892)">
                  <path id="Path_123899" data-name="Path 123899" d="M129.144,102.539c-3.394,0-6.155,2.282-6.155,5.087a1.42,1.42,0,1,0,2.841,0c0-1.217,1.519-2.247,3.314-2.247s3.314,1.03,3.314,2.247a1.42,1.42,0,0,0,2.841,0C135.3,104.821,132.537,102.539,129.144,102.539Z" transform="translate(-122.989 -102.539)" fill="#3f1a33"/>
                </g>
                <g id="Group_13657" data-name="Group 13657" transform="translate(62.847 68.322)">
                  <path id="Path_123900" data-name="Path 123900" d="M125.852,116.43a2.979,2.979,0,0,0-1.963,5.625c1.225.437,3.2,1.636,3.557,2.815a2.979,2.979,0,1,0,5.708-1.708C131.788,118.6,126.455,116.639,125.852,116.43Z" transform="translate(-121.905 -116.27)" fill="#993149"/>
                </g>
                <g id="Group_13658" data-name="Group 13658" transform="translate(20.032 68.322)">
                  <path id="Path_123901" data-name="Path 123901" d="M82.035,116.43c-.6.209-5.937,2.173-7.3,6.732a2.979,2.979,0,1,0,5.708,1.708c.353-1.18,2.331-2.378,3.557-2.815a2.979,2.979,0,0,0-1.963-5.625Z" transform="translate(-74.608 -116.27)" fill="#993149"/>
                </g>
                <g id="Group_13659" data-name="Group 13659" transform="translate(33.846 76.426)">
                  <path id="Path_123902" data-name="Path 123902" d="M113.952,125.222H92.3a2.435,2.435,0,0,0-2.417,2.707,13.171,13.171,0,0,0,13.082,11.63h.319a13.17,13.17,0,0,0,13.081-11.626,2.433,2.433,0,0,0-2.412-2.71Z" transform="translate(-89.868 -125.222)" fill="#7e223c"/>
                </g>
                <g id="Group_13660" data-name="Group 13660" transform="translate(35.168 76.426)">
                  <path id="Path_123903" data-name="Path 123903" d="M103.452,130.005a17,17,0,0,0,11.745-4.486,2.391,2.391,0,0,0-1.106-.3H92.439a2.392,2.392,0,0,0-1.11.3,17.007,17.007,0,0,0,11.745,4.485Z" transform="translate(-91.329 -125.222)" fill="#efeaee"/>
                </g>
              </g>
              <g id="Group_13676" data-name="Group 13676" transform="translate(1.225 49.258)">
                <g id="Group_13663" data-name="Group 13663" transform="translate(32.128 3.772)">
                  <g id="Group_13662" data-name="Group 13662">
                    <path id="Path_123904" data-name="Path 123904" d="M91.536,112.814a.947.947,0,0,1-.76-1.51,7.553,7.553,0,0,0,1.556-4.493,7.888,7.888,0,0,0-2.708-5.8.947.947,0,1,1,1.3-1.381,9.862,9.862,0,0,1,3.306,7.177A9.436,9.436,0,0,1,92.3,112.43.946.946,0,0,1,91.536,112.814Z" transform="translate(-89.324 -99.377)" fill="#d3ada6"/>
                  </g>
                </g>
                <g id="Group_13665" data-name="Group 13665" transform="translate(9.06 0.102)">
                  <g id="Group_13664" data-name="Group 13664">
                    <path id="Path_123905" data-name="Path 123905" d="M77.825,117.529c-7.711,0-13.984-4.981-13.984-11.1s6.273-11.1,13.984-11.1A15.679,15.679,0,0,1,88.5,99.25a.947.947,0,0,1-1.3,1.381,13.768,13.768,0,0,0-9.384-3.415c-6.667,0-12.09,4.132-12.09,9.21s5.423,9.208,12.09,9.208c4.347,0,8.383-1.808,10.535-4.715a.947.947,0,0,1,1.523,1.126C87.381,115.427,82.761,117.529,77.825,117.529Z" transform="translate(-63.841 -95.323)" fill="#d3ada6"/>
                  </g>
                </g>
                <g id="Group_13667" data-name="Group 13667" transform="translate(56.636 0.102)">
                  <g id="Group_13666" data-name="Group 13666">
                    <path id="Path_123906" data-name="Path 123906" d="M128.695,117.529c-4.985,0-9.628-2.131-12.117-5.561a.947.947,0,0,1,1.533-1.112c2.139,2.947,6.194,4.779,10.583,4.779,6.667,0,12.091-4.132,12.091-9.208s-5.424-9.21-12.091-9.21a13.722,13.722,0,0,0-9.451,3.48.947.947,0,1,1-1.307-1.37,15.623,15.623,0,0,1,10.758-4c7.711,0,13.985,4.981,13.985,11.1S136.406,117.529,128.695,117.529Z" transform="translate(-116.398 -95.323)" fill="#d3ada6"/>
                  </g>
                </g>
                <g id="Group_13669" data-name="Group 13669" transform="translate(54.949 3.844)">
                  <g id="Group_13668" data-name="Group 13668">
                    <path id="Path_123907" data-name="Path 123907" d="M117.169,112.75a.947.947,0,0,1-.768-.39,9.426,9.426,0,0,1-1.868-5.542,9.846,9.846,0,0,1,3.226-7.1.947.947,0,1,1,1.307,1.37,7.87,7.87,0,0,0-2.64,5.73,7.541,7.541,0,0,0,1.507,4.429.946.946,0,0,1-.766,1.5Z" transform="translate(-114.534 -99.456)" fill="#d3ada6"/>
                  </g>
                </g>
                <g id="Group_13671" data-name="Group 13671" transform="translate(32.128 0)">
                  <g id="Group_13670" data-name="Group 13670">
                    <path id="Path_123908" data-name="Path 123908" d="M116.024,100.947a.944.944,0,0,1-.595-.21c-2.811-2.275-7.418-3.634-12.327-3.634-4.847,0-9.424,1.333-12.243,3.568a.947.947,0,0,1-1.176-1.486c3.19-2.527,8.082-3.977,13.419-3.977s10.381,1.515,13.518,4.055a.947.947,0,0,1-.6,1.683Z" transform="translate(-89.324 -95.21)" fill="#d3ada6"/>
                  </g>
                </g>
                <g id="Group_13673" data-name="Group 13673" transform="translate(79.516 1.06)">
                  <g id="Group_13672" data-name="Group 13672">
                    <path id="Path_123909" data-name="Path 123909" d="M142.62,102.605a.947.947,0,0,1-.947-.947,5.285,5.285,0,0,1,5.278-5.278h6.224a.947.947,0,0,1,0,1.894h-6.224a3.388,3.388,0,0,0-3.385,3.384A.947.947,0,0,1,142.62,102.605Z" transform="translate(-141.673 -96.381)" fill="#d3ada6"/>
                  </g>
                </g>
                <g id="Group_13675" data-name="Group 13675" transform="translate(0 1.06)">
                  <g id="Group_13674" data-name="Group 13674">
                    <path id="Path_123910" data-name="Path 123910" d="M65.336,102.605a.947.947,0,0,1-.947-.947,3.388,3.388,0,0,0-3.384-3.384H54.78a.947.947,0,0,1,0-1.894h6.225a5.284,5.284,0,0,1,5.278,5.278A.947.947,0,0,1,65.336,102.605Z" transform="translate(-53.833 -96.381)" fill="#d3ada6"/>
                  </g>
                </g>
              </g>
            </g>
            <g id="Group_13682" data-name="Group 13682" transform="translate(39.126)">
              <g id="Group_13678" data-name="Group 13678" transform="translate(15.224 31.804)">
                <path id="Path_123911" data-name="Path 123911" d="M100.528,52.345c-.11,0-.216.005-.326.006s-.216-.006-.327-.006c-19.981,0-35.23,6.03-45.085,13.8l1.738,17.1s6.979-24.21,43.673-24.21,43.673,24.21,43.673,24.21l1.738-17.1C135.759,58.375,120.51,52.345,100.528,52.345Z" transform="translate(-54.791 -52.345)" fill="#5e3641"/>
              </g>
              <g id="Group_13679" data-name="Group 13679" transform="translate(25.246 20.897)">
                <path id="Path_123912" data-name="Path 123912" d="M134.127,53.683l-.022-.068c.007.023.016.046.024.069.862.369,1.688.76,2.512,1.154-.264-.834-.528-1.667-.807-2.5-.024-.025-.05-.046-.073-.072C127.632,43.616,113.01,40.3,101.248,40.3h-.1c-11.772,0-26.384,3.319-34.512,11.966-.024.025-.05.046-.073.072-.244.728-.472,1.453-.7,2.179,9.317-4.32,21.056-7.181,35.063-7.181A84.128,84.128,0,0,1,134.127,53.683Z" transform="translate(-65.862 -40.297)" fill="#5e3641"/>
              </g>
              <g id="Group_13680" data-name="Group 13680" transform="translate(25.989)">
                <path id="Path_123913" data-name="Path 123913" d="M101.228,38.109h.1c11.773,0,26.384,3.319,34.512,11.966.01.011.022.02.033.032a106.95,106.95,0,0,0-7.79-18.18C122.4,21.8,113.443,17.212,101.3,17.212h-.043c-12.145,0-21.1,4.588-26.782,14.716a107.021,107.021,0,0,0-7.79,18.18c.011-.012.023-.021.033-.032C74.844,41.428,89.466,38.112,101.228,38.109Z" transform="translate(-66.683 -17.212)" fill="#9c7473"/>
              </g>
              <g id="Group_13681" data-name="Group 13681" transform="translate(0 27.933)">
                <path id="Path_123914" data-name="Path 123914" d="M158.592,84.362c0-9.185-8.626-21.157-24.594-28.788-.824-.394-1.65-.785-2.512-1.154-.007-.023-.016-.046-.024-.069l.022.068a84.128,84.128,0,0,0-33.2-6.35c-14.007,0-25.746,2.861-35.063,7.181-.839.389-1.69.772-2.489,1.185.007-.024.015-.046.023-.069-.007.023-.016.046-.023.069C45.9,64.085,37.973,75.519,37.973,84.362c0,3.793,1.82,7.4,5.1,10.662a13.291,13.291,0,0,1-2.89-7.989c0-14.128,20.832-35.1,58.1-35.1,37.119,0,58.1,20.967,58.1,35.1a13.285,13.285,0,0,1-2.89,7.989C156.77,91.762,158.592,88.155,158.592,84.362Z" transform="translate(-37.973 -48.069)" fill="#9c7473"/>
              </g>
            </g>
          </g>
          <g id="Group_13684" data-name="Group 13684" transform="translate(2.088 0)">
            <ellipse id="Ellipse_633" data-name="Ellipse 633" cx="97.302" cy="97.321" rx="97.302" ry="97.321" fill="none"/>
          </g>
        </g>
      </g>
    </g>
  </g>
</svg>
