<svg xmlns="http://www.w3.org/2000/svg" xmlns:xlink="http://www.w3.org/1999/xlink" width="184" height="184" viewBox="0 0 184 184">
  <defs>
    <clipPath id="clip-path">
      <circle id="Ellipse_625" data-name="Ellipse 625" cx="92" cy="92" r="92" fill="none"/>
    </clipPath>
  </defs>
  <g id="Group_13600" data-name="Group 13600" transform="translate(-4.866 -8.997)">
    <path id="Path_136034" data-name="Path 136034" d="M92,0A92,92,0,1,1,0,92,92,92,0,0,1,92,0Z" transform="translate(4.866 8.997)" fill="#00a8e1"/>
    <g id="Group_13599" data-name="Group 13599" transform="translate(4.866 8.997)">
      <g id="Group_13598" data-name="Group 13598" clip-path="url(#clip-path)">
        <g id="Group_13597" data-name="Group 13597" transform="translate(-9.778 -2.832)">
          <g id="Group_13531" data-name="Group 13531" transform="translate(8.678)">
            <ellipse id="Ellipse_620" data-name="Ellipse 620" cx="93.605" cy="93.623" rx="93.605" ry="93.623" transform="translate(0)" fill="none"/>
          </g>
          <g id="Group_13595" data-name="Group 13595" transform="translate(0 18.339)">
            <g id="Group_13540" data-name="Group 13540" transform="translate(0 126.179)">
              <g id="Group_13536" data-name="Group 13536" transform="translate(0 1.816)">
                <g id="Group_13534" data-name="Group 13534" transform="translate(0 99.259)">
                  <g id="Group_13532" data-name="Group 13532">
                    <path id="Path_123822" data-name="Path 123822" d="M-4.645,297.5a1.991,1.991,0,0,0,1.25.086.354.354,0,0,1,.319.074.356.356,0,0,1,.121.3A2.378,2.378,0,0,0-1.488,300.4a2.368,2.368,0,0,0,1.764.005.352.352,0,0,1,.48.366,2.714,2.714,0,0,0,4.807,1.992.353.353,0,0,1,.607.1,2.375,2.375,0,0,0,4.435.086s.931-2.183,1.314-3.048a.375.375,0,0,1,.482-.2c2.486.99,4.462-1.932,5.128-6.01.782-4.79-.315-14.083-5.987-16.061-4.727-1.648-10.71,1.093-13.388,7.325-.477,1.11.341-.928-3.943,9.885A2.041,2.041,0,0,0-4.645,297.5Z" transform="translate(5.935 -277.169)" fill="#f59386"/>
                  </g>
                  <g id="Group_13533" data-name="Group 13533" transform="translate(9.917 0.096)">
                    <path id="Path_123823" data-name="Path 123823" d="M5.372,280.8a5.445,5.445,0,1,0,7.016-3.171A5.444,5.444,0,0,0,5.372,280.8Z" transform="translate(-5.02 -277.275)" fill="#f59386"/>
                  </g>
                </g>
                <g id="Group_13535" data-name="Group 13535" transform="translate(10.002)">
                  <path id="Path_123824" data-name="Path 123824" d="M15.6,274.258l10.369-25.434c1.748-4.308,3.374-8.315,5.282-12.313q2.822-5.983,6.081-11.729t6.96-11.2c2.455-3.673,5.04-7.072,7.849-10.794l16.527-21.937a8.325,8.325,0,1,0-13.3-10.018c-.082.109-.177.243-.253.355L39.767,193.963c-2.514,3.721-5.265,7.763-7.686,11.838q-3.683,6.125-6.891,12.5Q22,224.683,19.3,231.277c-1.81,4.366-3.392,8.937-4.864,13.194L5.418,270.413A5.446,5.446,0,0,0,15.6,274.258Z" transform="translate(-5.114 -167.52)" fill="#f59386"/>
                </g>
              </g>
              <g id="Group_13539" data-name="Group 13539" transform="translate(38.635)">
                <g id="Group_13537" data-name="Group 13537">
                  <path id="Path_123825" data-name="Path 123825" d="M49.6,210.253l-12.09-8.559a1.829,1.829,0,0,1-.457-2.507c10.922-16.312,19.724-29.453,19.82-29.581A10.093,10.093,0,0,1,70.862,167.4l.216.158a10.163,10.163,0,0,1,2.049,14.2l-21.014,28.1A1.823,1.823,0,0,1,49.6,210.253Z" transform="translate(-36.744 -165.514)" fill="#1b274d"/>
                </g>
                <g id="Group_13538" data-name="Group 13538" transform="translate(0 31.085)">
                  <path id="Path_123826" data-name="Path 123826" d="M37.054,202.441l1.734-2.588,15.194,10.758-1.869,2.5a1.823,1.823,0,0,1-2.512.4l-12.09-8.56A1.828,1.828,0,0,1,37.054,202.441Z" transform="translate(-36.744 -199.853)" fill="#1b274d"/>
                </g>
              </g>
            </g>
            <g id="Group_13549" data-name="Group 13549" transform="translate(127.531 126.179)">
              <g id="Group_13545" data-name="Group 13545" transform="translate(1.795 1.816)">
                <g id="Group_13543" data-name="Group 13543" transform="translate(51.552 99.259)">
                  <g id="Group_13541" data-name="Group 13541">
                    <path id="Path_123827" data-name="Path 123827" d="M216.275,297.5a1.994,1.994,0,0,1-1.251.086.353.353,0,0,0-.439.378,2.368,2.368,0,0,1-3.231,2.446.353.353,0,0,0-.481.366,2.713,2.713,0,0,1-4.806,1.992.353.353,0,0,0-.607.1,2.376,2.376,0,0,1-4.436.086s-.931-2.183-1.313-3.048a.375.375,0,0,0-.482-.2c-2.487.99-4.463-1.932-5.129-6.01-.782-4.79.315-14.083,5.987-16.061,4.727-1.648,10.711,1.093,13.388,7.325.477,1.11-.34-.928,3.943,9.885A2.041,2.041,0,0,1,216.275,297.5Z" transform="translate(-193.877 -277.169)" fill="#f59386"/>
                  </g>
                  <g id="Group_13542" data-name="Group 13542" transform="translate(2.878 0.096)">
                    <path id="Path_123828" data-name="Path 123828" d="M207.6,280.8a5.445,5.445,0,1,1-7.017-3.171A5.445,5.445,0,0,1,207.6,280.8Z" transform="translate(-197.057 -277.275)" fill="#f59386"/>
                  </g>
                </g>
                <g id="Group_13544" data-name="Group 13544">
                  <path id="Path_123829" data-name="Path 123829" d="M191.674,274.258l-10.368-25.434c-1.749-4.308-3.375-8.315-5.282-12.313q-2.823-5.983-6.081-11.729t-6.961-11.2c-2.454-3.673-5.04-7.072-7.849-10.794l-16.527-21.937a8.325,8.325,0,1,1,13.3-10.018c.082.109.177.243.253.355l15.355,22.771c2.514,3.721,5.265,7.763,7.686,11.838q3.683,6.125,6.891,12.5,3.188,6.381,5.886,12.975c1.811,4.366,3.392,8.937,4.864,13.194l9.023,25.941a5.446,5.446,0,0,1-10.188,3.845Z" transform="translate(-136.929 -167.52)" fill="#f59386"/>
                </g>
              </g>
              <g id="Group_13548" data-name="Group 13548">
                <g id="Group_13546" data-name="Group 13546">
                  <path id="Path_123830" data-name="Path 123830" d="M160.488,210.253l12.09-8.559a1.828,1.828,0,0,0,.457-2.507c-10.922-16.312-19.724-29.453-19.819-29.581a10.093,10.093,0,0,0-13.988-2.207l-.217.158a10.162,10.162,0,0,0-2.048,14.2l21.014,28.1A1.822,1.822,0,0,0,160.488,210.253Z" transform="translate(-134.946 -165.514)" fill="#1b274d"/>
                </g>
                <g id="Group_13547" data-name="Group 13547" transform="translate(21.161 31.085)">
                  <path id="Path_123831" data-name="Path 123831" d="M175.25,202.441l-1.733-2.588-15.2,10.758,1.87,2.5a1.822,1.822,0,0,0,2.511.4l12.09-8.56A1.827,1.827,0,0,0,175.25,202.441Z" transform="translate(-158.322 -199.853)" fill="#1b274d"/>
                </g>
              </g>
            </g>
            <g id="Group_13550" data-name="Group 13550" transform="translate(83.48 115.707)">
              <path id="Path_123832" data-name="Path 123832" d="M119.243,154.655a1.817,1.817,0,0,0-1.972-.628c-2.424.747-7.835,2.246-12.18,2.246s-9.756-1.5-12.179-2.246a1.818,1.818,0,0,0-1.973.628,19.331,19.331,0,0,1-4.017,3.588,1.459,1.459,0,0,0-.608,1.488c2.011,9.5,9.134,12.162,18.777,12.162s16.761-2.667,18.777-12.161a1.462,1.462,0,0,0-.608-1.49A19.275,19.275,0,0,1,119.243,154.655Z" transform="translate(-86.284 -153.946)" fill="#cbd43e"/>
            </g>
            <g id="Group_13551" data-name="Group 13551" transform="translate(58.593 127.995)">
              <path id="Path_123833" data-name="Path 123833" d="M75.436,175.843a8.322,8.322,0,1,1-8.322-8.323A8.323,8.323,0,0,1,75.436,175.843Z" transform="translate(-58.791 -167.52)" fill="#f59386"/>
            </g>
            <g id="Group_13552" data-name="Group 13552" transform="translate(65.516 234.992)">
              <circle id="Ellipse_621" data-name="Ellipse 621" cx="8.322" cy="8.322" r="8.322" transform="translate(0 11.77) rotate(-45)" fill="#f59386"/>
            </g>
            <g id="Group_13553" data-name="Group 13553" transform="translate(89.79 119.409)">
              <circle id="Ellipse_622" data-name="Ellipse 622" cx="10.889" cy="10.889" r="10.889" transform="matrix(0.987, -0.16, 0.16, 0.987, 0, 3.489)" fill="#f59386"/>
            </g>
            <g id="Group_13554" data-name="Group 13554" transform="translate(91.393 61.47)">
              <circle id="Ellipse_623" data-name="Ellipse 623" cx="10.889" cy="10.889" r="10.889" fill="#f59386"/>
            </g>
            <g id="Group_13555" data-name="Group 13555" transform="translate(118.957 238.439)">
              <path id="Path_123834" data-name="Path 123834" d="M125.474,297.849a8.322,8.322,0,1,0,8.322-8.323A8.322,8.322,0,0,0,125.474,297.849Z" transform="translate(-125.474 -289.526)" fill="#f59386"/>
            </g>
            <g id="Group_13556" data-name="Group 13556" transform="translate(129.327 127.995)">
              <path id="Path_123835" data-name="Path 123835" d="M136.93,175.843a8.322,8.322,0,1,0,8.323-8.323A8.323,8.323,0,0,0,136.93,175.843Z" transform="translate(-136.93 -167.52)" fill="#f59386"/>
            </g>
            <g id="Group_13557" data-name="Group 13557" transform="translate(91.393 61.47)">
              <path id="Path_123836" data-name="Path 123836" d="M105.914,175.353h0a10.89,10.89,0,0,1-10.889-10.889V104.921a10.889,10.889,0,0,1,10.889-10.889h0A10.888,10.888,0,0,1,116.8,104.921v59.542A10.889,10.889,0,0,1,105.914,175.353Z" transform="translate(-95.025 -94.032)" fill="#f59386"/>
            </g>
            <g id="Group_13558" data-name="Group 13558" transform="translate(58.593 119.545)">
              <path id="Path_123837" data-name="Path 123837" d="M135.7,164.7c-12.224-3.421-25.328-6.514-33.219-6.514s-20.994,3.093-33.218,6.514c-7.122,1.992-10.472,5.745-10.472,10.258,0,6.61,7.045,9.5,9.135,13.825,2.549,5.271,6.879,31.432,6.879,42.516s-6.871,38.542-6.871,45.782c0,8.048,1.524,16.645,9.55,16.645h49.993c8.028,0,9.55-8.6,9.55-16.645,0-7.239-6.87-34.7-6.87-45.782s4.33-37.244,6.878-42.516c2.09-4.323,9.135-7.215,9.135-13.825C146.17,170.445,142.821,166.693,135.7,164.7Z" transform="translate(-58.791 -158.186)" fill="#f59386"/>
            </g>
            <g id="Group_13559" data-name="Group 13559" transform="translate(91.393 61.47)">
              <path id="Path_123838" data-name="Path 123838" d="M105.914,94.032a10.889,10.889,0,0,0-10.889,10.889v46.12a39.317,39.317,0,0,0,21.778,0v-46.12A10.888,10.888,0,0,0,105.914,94.032Z" transform="translate(-95.025 -94.032)" fill="#ef7477"/>
            </g>
            <g id="Group_13560" data-name="Group 13560" transform="translate(57.362)">
              <path id="Path_123839" data-name="Path 123839" d="M76.91,116.77c-5.883-.218-4.892-4.5-9.755-10.1C60.1,98.552,61.955,92.745,59.6,86.69c-1-2.561-2.942-8.27-1.847-13.872.9-4.592-.17-8.729,1.624-15.744.388-1.52-1.145-1.644-1.284-3.005,8.451-6.756,6.769-11.93,10.141-16,5.646-6.814,13.807-11.064,27.269-11.9a29.81,29.81,0,0,1,9.726,1.146c11.51-.282,13.225,2.406,16.207,2.612,7.031.484,9.1,3.611,9.309,6.348,2.394,2.259,4.943,2.4,6.6,5.722.883,1.765.225,3.453.74,4.27,3.985,6.319,3.374,8.849,3.644,9.849.8,2.96,6.405,15.03,4.626,18.56a49.156,49.156,0,0,0-3.485,11.566c-1.514-.892-1.973,1.192-1.893,2.473.176,2.808-1.724,3.922-1.7,5.431s.2,5.409-1.935,7.714-2.846,5.039-3.985,8.227-2.964,5.008-6.177,4.839c-4.327-.228-4.611,3.131-7.458,3.358-3.269.262-3.012-3.75-4.426-1.89-1.694,2.232-5.48,5.477-8.725,5.762,0,0,.74-4.441-.855-4.441s-2.619,4.441-6.547,4.441-4.27-2.79-6.035-2.79-2.078,1.822-4.725,1.395c-2.557-.413-2.429-2.645-3.758-2.335C80.164,119.484,78.872,116.842,76.91,116.77Z" transform="translate(-57.431 -26.127)" fill="#983e28"/>
            </g>
            <g id="Group_13573" data-name="Group 13573" transform="translate(58.273 14.996)">
              <g id="Group_13561" data-name="Group 13561" transform="translate(0 44.08)">
                <path id="Path_123840" data-name="Path 123840" d="M64.445,91.426c4.072-.492,8.054,3.824,8.893,9.641S71.559,112,67.489,112.49s-8.054-3.824-8.894-9.64S60.373,91.918,64.445,91.426Z" transform="translate(-58.437 -91.388)" fill="#f17b7a"/>
              </g>
              <g id="Group_13562" data-name="Group 13562" transform="translate(72.962 44.08)">
                <path id="Path_123841" data-name="Path 123841" d="M148.088,91.426c-4.072-.492-8.055,3.824-8.894,9.641s1.779,10.931,5.85,11.423,8.055-3.824,8.895-9.64S152.158,91.918,148.088,91.426Z" transform="translate(-139.036 -91.388)" fill="#f17b7a"/>
              </g>
              <g id="Group_13563" data-name="Group 13563" transform="translate(5.378)">
                <path id="Path_123842" data-name="Path 123842" d="M103.01,42.693c-35.195,0-39.469,31.087-38.516,45.182.55,8.155,1.7,25.192,9.38,36.018C80,132.528,90.5,139.936,103.01,139.936s23.011-7.408,29.137-16.043c7.678-10.826,8.83-27.862,9.38-36.018C142.479,73.78,138.205,42.693,103.01,42.693Z" transform="translate(-64.379 -42.693)" fill="#f59386"/>
              </g>
              <g id="Group_13564" data-name="Group 13564" transform="translate(56.406 62.927)">
                <path id="Path_123843" data-name="Path 123843" d="M120.942,114.046a2.88,2.88,0,0,1,3.7-1.655c.576.219,5.67,2.272,6.854,6.716a2.878,2.878,0,1,1-5.563,1.482c-.306-1.15-2.182-2.364-3.352-2.823A2.884,2.884,0,0,1,120.942,114.046Z" transform="translate(-120.748 -112.207)" fill="#f17b7a"/>
              </g>
              <g id="Group_13565" data-name="Group 13565" transform="translate(20.767 62.927)">
                <path id="Path_123844" data-name="Path 123844" d="M92.032,114.046a2.88,2.88,0,0,0-3.7-1.655c-.576.219-5.67,2.272-6.854,6.716a2.878,2.878,0,1,0,5.563,1.482c.306-1.15,2.182-2.364,3.352-2.823A2.885,2.885,0,0,0,92.032,114.046Z" transform="translate(-81.378 -112.207)" fill="#f17b7a"/>
              </g>
              <g id="Group_13566" data-name="Group 13566" transform="translate(12.913 37.561)">
                <path id="Path_123845" data-name="Path 123845" d="M74.273,90.038a1.556,1.556,0,0,1-.868-2.856c2.745-1.8,8.6-3.389,13.636-2.91a1.555,1.555,0,1,1-.29,3.1c-4.169-.389-9.383.933-11.639,2.414A1.552,1.552,0,0,1,74.273,90.038Z" transform="translate(-72.703 -84.186)" fill="#863122"/>
              </g>
              <g id="Group_13567" data-name="Group 13567" transform="translate(59.361 37.561)">
                <path id="Path_123846" data-name="Path 123846" d="M138.191,90.038a1.556,1.556,0,0,0,.868-2.856c-2.745-1.8-8.6-3.389-13.636-2.91a1.555,1.555,0,1,0,.29,3.1c4.169-.389,9.383.933,11.639,2.414A1.549,1.549,0,0,0,138.191,90.038Z" transform="translate(-124.012 -84.186)" fill="#863122"/>
              </g>
              <g id="Group_13570" data-name="Group 13570" transform="translate(31.799 71.498)">
                <g id="Group_13568" data-name="Group 13568">
                  <path id="Path_123847" data-name="Path 123847" d="M115.749,121.675H95.805a2.242,2.242,0,0,0-2.226,2.493,12.132,12.132,0,0,0,12.05,10.713h.294a12.133,12.133,0,0,0,12.049-10.709,2.242,2.242,0,0,0-2.223-2.5Z" transform="translate(-93.565 -121.675)" fill="#b92c29"/>
                </g>
                <g id="Group_13569" data-name="Group 13569" transform="translate(1.219)">
                  <path id="Path_123848" data-name="Path 123848" d="M106.078,126.081a15.663,15.663,0,0,0,10.818-4.132,2.2,2.2,0,0,0-1.019-.273H95.933a2.2,2.2,0,0,0-1.021.274,15.662,15.662,0,0,0,10.817,4.132Z" transform="translate(-94.912 -121.675)" fill="#efeaee"/>
                </g>
              </g>
              <g id="Group_13571" data-name="Group 13571" transform="translate(60.129 50.493)">
                <path id="Path_123849" data-name="Path 123849" d="M130.531,98.472c-3.126,0-5.67,2.1-5.67,4.686a1.309,1.309,0,1,0,2.617,0c0-1.121,1.4-2.069,3.052-2.069s3.052.949,3.052,2.069a1.309,1.309,0,1,0,2.617,0C136.2,100.575,133.656,98.472,130.531,98.472Z" transform="translate(-124.861 -98.472)" fill="#3f1a33"/>
              </g>
              <g id="Group_13572" data-name="Group 13572" transform="translate(16.555 50.493)">
                <path id="Path_123850" data-name="Path 123850" d="M82.395,98.472c-3.127,0-5.67,2.1-5.67,4.686a1.308,1.308,0,1,0,2.616,0c0-1.121,1.4-2.069,3.053-2.069s3.052.949,3.052,2.069a1.308,1.308,0,1,0,2.616,0C88.063,100.575,85.52,98.472,82.395,98.472Z" transform="translate(-76.725 -98.472)" fill="#3f1a33"/>
              </g>
            </g>
            <g id="Group_13581" data-name="Group 13581" transform="translate(57.404)">
              <g id="Group_13574" data-name="Group 13574">
                <path id="Path_123851" data-name="Path 123851" d="M63.884,78.888c-.378,2.424.427,13.494.909,17.843,0,0-3.137.377-5.186-10.041-.53-2.7-2.942-8.27-1.847-13.872.9-4.592-.17-8.729,1.624-15.744.388-1.52-1.145-1.644-1.284-3.005,8.451-6.756,6.769-11.93,10.141-16,5.646-6.814,13.807-11.064,27.269-11.9a29.81,29.81,0,0,1,9.726,1.146c11.51-.282,13.225,2.406,16.207,2.612,7.031.484,9.1,3.611,9.309,6.348,2.394,2.259,4.943,2.4,6.6,5.722.883,1.765.225,3.453.74,4.27,3.985,6.319,3.374,8.849,3.644,9.849.8,2.96,6.405,15.03,4.626,18.56a48.451,48.451,0,0,0-3.544,12.012c-.228,2.05.434,8.549-2.971,10.566a158.167,158.167,0,0,0,.929-16.836c-.2-6.03-1.918-19.683-22.516-27.738S67.434,56.2,63.884,78.888Z" transform="translate(-57.478 -26.127)" fill="#983e28"/>
              </g>
              <g id="Group_13575" data-name="Group 13575" transform="translate(3.418 7.826)">
                <path id="Path_123852" data-name="Path 123852" d="M83.724,34.772c-18.218,7.819-28.693,39.852-18.445,53.82,0,0-1.141-14.328,7.361-24.652S83.724,34.772,83.724,34.772Z" transform="translate(-61.254 -34.772)" fill="#983e28"/>
              </g>
              <g id="Group_13576" data-name="Group 13576" transform="translate(54.07 3.651)">
                <path id="Path_123853" data-name="Path 123853" d="M117.226,30.16c9.341.088,23.4,7.61,26.3,18.029s-2.049,20.61-1.764,20.61-.876-5-6.842-8.357C127.3,56.159,116.714,42.515,117.226,30.16Z" transform="translate(-117.208 -30.16)" fill="#983e28"/>
              </g>
              <g id="Group_13577" data-name="Group 13577" transform="translate(4.443 1.665)">
                <path id="Path_123854" data-name="Path 123854" d="M62.387,67.679C79.922,73.828,101.9,55.5,95.407,28.055c0,0-9.219-1.594-15.882,8.767S75.367,64.378,62.387,67.679Z" transform="translate(-62.387 -27.966)" fill="#8e3824"/>
              </g>
              <g id="Group_13578" data-name="Group 13578" transform="translate(43.418 2.053)">
                <path id="Path_123855" data-name="Path 123855" d="M105.441,28.49c9.588-.85,25.266,3.894,24.754,18.81s-1.1,19.452,2.939,23.1c0,0-11.557,3.245-17.478-15.77C110.483,38.012,105.441,28.49,105.441,28.49Z" transform="translate(-105.441 -28.395)" fill="#983e28"/>
              </g>
              <g id="Group_13579" data-name="Group 13579" transform="translate(14.946 1.737)">
                <path id="Path_123856" data-name="Path 123856" d="M96.507,28.062c-4.5,14.745-28.238,33.02-21.235,52.776,0,0,.925-9.056,18.218-17.079C111.651,55.333,104.136,27.266,96.507,28.062Z" transform="translate(-73.989 -28.046)" fill="#983e28"/>
              </g>
              <g id="Group_13580" data-name="Group 13580" transform="translate(23.724 1.716)">
                <path id="Path_123857" data-name="Path 123857" d="M117.717,56.355C114,75.834,91.811,74.845,83.686,79.431c1.743-10.093,9.846-16.5,14.48-25.808,6.775-13.607,2.953-23.114-.74-25.562C111.545,27.377,121.588,36.081,117.717,56.355Z" transform="translate(-83.686 -28.023)" fill="#a2472a"/>
              </g>
            </g>
            <g id="Group_13584" data-name="Group 13584" transform="translate(60.607 236.618)">
              <g id="Group_13582" data-name="Group 13582" transform="translate(0.915)">
                <path id="Path_123858" data-name="Path 123858" d="M87.8,299.193,80.94,343.873a.911.911,0,0,1-.9.773h-17.1a.912.912,0,0,1-.9-1.02l5.743-47.513a10.19,10.19,0,0,1,10-8.6,8.942,8.942,0,0,1,1.549.128A10.129,10.129,0,0,1,87.8,299.193Z" transform="translate(-62.028 -287.514)" fill="#b85235"/>
              </g>
              <g id="Group_13583" data-name="Group 13583" transform="translate(0 49.157)">
                <path id="Path_123859" data-name="Path 123859" d="M61.766,342.619l-.742,6.148a.911.911,0,0,0,.9,1.02H80.869a.911.911,0,0,0,.9-.773l.945-6.148a.911.911,0,0,0-.9-1.049H62.67A.911.911,0,0,0,61.766,342.619Z" transform="translate(-61.016 -341.817)" fill="#ab422e"/>
              </g>
            </g>
            <g id="Group_13587" data-name="Group 13587" transform="translate(117.143 236.618)">
              <g id="Group_13585" data-name="Group 13585">
                <path id="Path_123860" data-name="Path 123860" d="M148.451,344.647h-17.1a.911.911,0,0,1-.9-.773l-6.859-44.681a10.129,10.129,0,0,1,8.471-11.551,9.1,9.1,0,0,1,1.549-.128,10.19,10.19,0,0,1,10,8.6l5.743,47.513A.912.912,0,0,1,148.451,344.647Z" transform="translate(-123.47 -287.514)" fill="#b85235"/>
              </g>
              <g id="Group_13586" data-name="Group 13586" transform="translate(5.107 49.157)">
                <path id="Path_123861" data-name="Path 123861" d="M129.123,342.866l.944,6.148a.912.912,0,0,0,.9.773h18.945a.912.912,0,0,0,.9-1.02l-.743-6.148a.911.911,0,0,0-.9-.8H130.023A.91.91,0,0,0,129.123,342.866Z" transform="translate(-129.112 -341.817)" fill="#ab422e"/>
              </g>
            </g>
            <g id="Group_13588" data-name="Group 13588" transform="translate(66.817 211.914)">
              <path id="Path_123862" data-name="Path 123862" d="M138.8,286.75c0,4.336,0,17.562-10.457,17.562H78.351c-10.475,0-10.475-13.226-10.475-17.562,0-3.316,1.349-10.457,2.916-18.729.428-2.308.886-4.691,1.321-7.054a.909.909,0,0,1,.894-.744h60.662a.908.908,0,0,1,.894.744c.435,2.363.893,4.745,1.322,7.054C137.451,276.293,138.8,283.434,138.8,286.75Z" transform="translate(-67.876 -260.224)" fill="#b85235"/>
            </g>
            <g id="Group_13594" data-name="Group 13594" transform="translate(56.779 116.784)">
              <g id="Group_13589" data-name="Group 13589" transform="translate(0 2.317)">
                <path id="Path_123863" data-name="Path 123863" d="M136,162.9c-8.342-2.336-15.462-4.054-21.315-5.146a3.331,3.331,0,0,0-2.626.635,21.789,21.789,0,0,1-2.191,1.438c-1.852,1.073-5.295,6.209-6.818,8.576a.9.9,0,0,1-1.518,0c-1.524-2.367-4.966-7.5-6.819-8.576a22.111,22.111,0,0,1-2.191-1.438,3.328,3.328,0,0,0-2.626-.635q-8.785,1.639-21.321,5.147c-10.257,2.878-11.787,8.763-11.787,12.005,0,4.937,3.279,8.107,5.92,10.657a16.222,16.222,0,0,1,3.389,3.972c2.313,4.772,6.7,30.515,6.7,41.719,0,5.957-2.114,17.07-3.954,26.89-1.67,8.857-2.708,14.416-2.9,18.009a1.821,1.821,0,0,0,1.823,1.922h69.036a1.82,1.82,0,0,0,1.822-1.92c-.191-3.6-1.219-9.187-2.883-18.011-1.858-9.82-3.953-20.933-3.953-26.89,0-11.2,4.39-36.947,6.686-41.719a16.624,16.624,0,0,1,3.388-3.972c2.641-2.55,5.939-5.72,5.939-10.657C147.806,171.661,146.275,165.776,136,162.9Z" transform="translate(-56.788 -157.696)" fill="#1b274d"/>
              </g>
              <g id="Group_13590" data-name="Group 13590" transform="translate(26.643)">
                <path id="Path_123864" data-name="Path 123864" d="M104.321,168.159c-1.524-2.368-4.966-7.5-6.819-8.575a16.683,16.683,0,0,1-4.66-3.757,1.814,1.814,0,0,0-2.713-.151,20.99,20.99,0,0,1-3.5,2.87.9.9,0,0,0-.4.917,40.2,40.2,0,0,0,1.82,6.388.9.9,0,0,0,1.384.4c1.105-.853,3.063-2.345,4.943-3.692a3.63,3.63,0,0,1,4.63.34C100.98,164.785,103.679,167.4,104.321,168.159Z" transform="translate(-86.22 -155.136)" fill="#cbd43e"/>
              </g>
              <g id="Group_13591" data-name="Group 13591" transform="translate(46.266)">
                <path id="Path_123865" data-name="Path 123865" d="M107.9,168.159c1.524-2.368,4.966-7.5,6.818-8.575a16.677,16.677,0,0,0,4.661-3.757,1.813,1.813,0,0,1,2.712-.151,21.028,21.028,0,0,0,3.5,2.87.9.9,0,0,1,.4.917,40.1,40.1,0,0,1-1.82,6.388.9.9,0,0,1-1.383.4c-1.106-.853-3.064-2.345-4.943-3.692a3.63,3.63,0,0,0-4.63.34C111.237,164.785,108.539,167.4,107.9,168.159Z" transform="translate(-107.897 -155.136)" fill="#cbd43e"/>
              </g>
              <g id="Group_13592" data-name="Group 13592" transform="translate(9.156 119.916)">
                <path id="Path_123866" data-name="Path 123866" d="M68.728,290.383h69.036a1.82,1.82,0,0,0,1.822-1.92q-.022-.411-.058-.858H66.964c-.024.3-.043.583-.059.856A1.822,1.822,0,0,0,68.728,290.383Z" transform="translate(-66.902 -287.605)" fill="#9b9925"/>
              </g>
              <g id="Group_13593" data-name="Group 13593" transform="translate(44.597 12.779)">
                <path id="Path_123867" data-name="Path 123867" d="M106.965,190.7a.91.91,0,0,0,.911-.912v-20.54l-.157.243a.9.9,0,0,1-1.518,0c-.047-.073-.1-.149-.148-.228v20.525A.911.911,0,0,0,106.965,190.7Z" transform="translate(-106.053 -169.253)" fill="#cbd43e"/>
              </g>
            </g>
          </g>
          <g id="Group_13596" data-name="Group 13596" transform="translate(8.678)">
            <ellipse id="Ellipse_624" data-name="Ellipse 624" cx="93.605" cy="93.623" rx="93.605" ry="93.623" transform="translate(0)" fill="none"/>
          </g>
        </g>
      </g>
    </g>
  </g>
</svg>
