<svg xmlns="http://www.w3.org/2000/svg" width="100" height="100" viewBox="0 0 100 100"><circle cx="50" cy="50" r="50" transform="translate(0 0)" fill="#f8f8f8"/><g transform="translate(9.047 13.137)"><g transform="translate(0)"><path d="M117.928,98.757l-14.584-8.421V73.5l14.584-8.421L132.512,73.5v16.84Zm-12.5-9.624,12.5,7.218,12.5-7.218V74.7l-12.5-7.218-12.5,7.218Z" transform="translate(-63.942 -50.623)" fill="#1f333e"/><path d="M62.657,98.757,48.073,90.337V73.5l14.584-8.421L77.241,73.5v16.84Zm-12.5-9.624,12.5,7.218,12.5-7.218V74.7l-12.5-7.218L50.157,74.7Z" transform="translate(-35.863 -50.623)" fill="#1f333e"/><path d="M90.4,146.511l-14.584-8.421v-16.84L90.4,112.83l14.584,8.421v16.84Zm-12.5-9.624L90.4,144.1l12.5-7.217V122.454l-12.5-7.217-12.5,7.217Z" transform="translate(-49.958 -74.884)" fill="#1f333e"/><rect width="14.828" height="2.084" transform="matrix(0.87, -0.492, 0.492, 0.87, 67.015, 22.568)" fill="#1f333e"/><rect width="2.084" height="15.656" transform="translate(25.752)" fill="#1f333e"/><rect width="14.454" height="2.083" transform="matrix(0.883, -0.469, 0.469, 0.883, 0, 44.978)" fill="#1f333e"/><rect width="2.084" height="14.968" transform="translate(53.442 63.494) rotate(-58.508)" fill="#1f333e"/><path d="M156.652,83.292a3.74,3.74,0,1,1,3.74-3.74A3.74,3.74,0,0,1,156.652,83.292Z" transform="translate(-89.124 -56.078)" fill="#6bb130"/><path d="M101.6,115.077a3.74,3.74,0,1,1,3.74-3.74A3.74,3.74,0,0,1,101.6,115.077Z" transform="translate(-61.156 -72.225)" fill="#6bb130"/><path d="M129.126,162.831a3.74,3.74,0,1,1,3.74-3.74A3.74,3.74,0,0,1,129.126,162.831Z" transform="translate(-75.14 -96.485)" fill="#6bb130"/><path d="M73.855,68.449a3.74,3.74,0,1,1,3.74-3.74A3.74,3.74,0,0,1,73.855,68.449Z" transform="translate(-47.061 -48.537)" fill="#6bb130"/><path d="M101.6,83.292a3.74,3.74,0,1,1,3.74-3.74A3.74,3.74,0,0,1,101.6,83.292Z" transform="translate(-61.156 -56.078)" fill="#dfdf00"/><path d="M73.855,130.969a3.74,3.74,0,1,1,3.74-3.74A3.74,3.74,0,0,1,73.855,130.969Z" transform="translate(-47.061 -80.299)" fill="#dfdf00"/><circle cx="3.74" cy="3.74" r="3.74" transform="translate(9.162 42.466) rotate(-84.357)" fill="#dfdf00"/><path d="M129.126,130.969a3.74,3.74,0,1,1,3.74-3.74A3.74,3.74,0,0,1,129.126,130.969Z" transform="translate(-75.14 -80.299)" fill="#dfdf00"/></g></g></svg>