<svg xmlns="http://www.w3.org/2000/svg" width="190.63" height="299.665" viewBox="0 0 190.63 299.665">
  <g id="Group_15813" data-name="Group 15813" transform="translate(0)">
    <g id="Group_15812" data-name="Group 15812" transform="translate(0)">
      <g id="Group_15810" data-name="Group 15810" transform="translate(0 0)">
        <path id="Path_136043" data-name="Path 136043" d="M-310.934,279.883A18.68,18.68,0,0,1-329.612,261.2V35.721a18.677,18.677,0,0,1,18.678-18.674h153.275a18.675,18.675,0,0,1,18.677,18.674V261.2a18.678,18.678,0,0,1-18.677,18.678Z" transform="translate(329.612 19.781)" fill="#94615c"/>
        <path id="Path_136044" data-name="Path 136044" d="M-145.911,266.513a6.441,6.441,0,0,1-6.44,6.444h-160.4a6.446,6.446,0,0,1-6.448-6.444V33.9a6.449,6.449,0,0,1,6.448-6.448h160.4a6.444,6.444,0,0,1,6.44,6.448Z" transform="translate(327.871 18.041)" fill="#f6f3f5"/>
        <path id="Path_136045" data-name="Path 136045" d="M-166.46,39.65l-2.32-3.169a14.952,14.952,0,0,0-8.627-5.724l-15.158-3.591a5.02,5.02,0,0,1-3.861-4.889V6.487a5.02,5.02,0,0,0-5.024-5.019h-7.989a3.635,3.635,0,0,1-3.634-3.635V-12.735a14.44,14.44,0,0,0-14.441-14.446,14.443,14.443,0,0,0-14.451,14.446V-2.168a3.632,3.632,0,0,1-3.63,3.635h-7.993A5.016,5.016,0,0,0-258.6,6.487V22.278a5.023,5.023,0,0,1-3.869,4.889l-15.159,3.591a14.948,14.948,0,0,0-8.622,5.724l-2.325,3.169a2.665,2.665,0,0,0-.222,2.77,2.659,2.659,0,0,0,2.364,1.453H-168.6a2.662,2.662,0,0,0,2.369-1.453A2.668,2.668,0,0,0-166.46,39.65Zm-61.055-44.2a8.192,8.192,0,0,1-8.193-8.188,8.192,8.192,0,0,1,8.193-8.188,8.185,8.185,0,0,1,8.185,8.188A8.185,8.185,0,0,1-227.514-4.548Z" transform="translate(322.832 27.181)" fill="#959595"/>
      </g>
    </g>
    <text id="LOW_ALP" data-name="LOW
ALP" transform="translate(35.745 85.4)" fill="#004c41" font-size="89" font-family="Helvetica"><tspan x="1.253" y="69">LO</tspan><tspan x="18.614" y="158">W</tspan></text>
  </g>
</svg>
