<svg xmlns="http://www.w3.org/2000/svg" width="190" height="300" viewBox="0 0 190 300"><g transform="translate(-0.316 0.349)"><g transform="translate(0.001)"><g transform="translate(0 0)"><path d="M-311.3,279.869c-10.314,0-18-8.685-18-19v-225c0-10.314,7.686-19,18-19h154c10.315,0,18,8.686,18,19v225c0,10.315-7.685,19-18,19Z" transform="translate(329.612 19.781)" fill="#94615c"/><path d="M-145.556,266.609c0,3.558-3.44,6-7,6h-160c-3.563,0-7-2.442-7-6v-233c0-3.558,3.437-6,7-6h160c3.56,0,7,2.442,7,6Z" transform="translate(327.871 18.041)" fill="#f6f3f5"/><path d="M-166.518,39.47l-2-3a16.279,16.279,0,0,0-9-6l-15-3a5.273,5.273,0,0,1-4-5v-16a4.982,4.982,0,0,0-5-5h-8a4.291,4.291,0,0,1-4-4v-10c0-7.981-6.023-15-14-15s-14,7.019-14,15v10a4.291,4.291,0,0,1-4,4h-8a4.985,4.985,0,0,0-5,5v16a5.269,5.269,0,0,1-4,5l-15,3a16.287,16.287,0,0,0-9,6l-2,3a3.081,3.081,0,0,0,0,3c.454.891,1.006,1,2,1h118c1,0,1.545-.109,2-1A3.083,3.083,0,0,0-166.518,39.47Zm-61-44a7.87,7.87,0,0,1-8-8,7.87,7.87,0,0,1,8-8,7.87,7.87,0,0,1,8,8A7.87,7.87,0,0,1-227.518-4.53Z" transform="translate(322.832 27.181)" fill="#959595"/></g></g><path d="M7.2,15.784V81.993H31.461V70.068H18.976V15.784ZM64.312,31.8c0-10.145-3.719-16.819-14.079-16.819H47.576c-10.183,0-14.167,6.674-14.167,16.908V66.864c0,10.412,4.959,16.107,14.256,16.107h2.656c8.855,0,13.99-6.407,13.99-16.107ZM52,67.22c0,2.047-.62,3.916-3.011,3.916-2.479,0-3.276-1.869-3.276-3.916V30.912c0-2.937.8-4.361,3.188-4.361,2.037,0,3.1,1.424,3.1,4.361ZM85.563,15.784l-4.25,42.448L77.593,15.784H65.374l8.235,66.209h13.9l3.453-36.4,3.453,36.4h13.37L116.2,15.784H104.866l-3.9,42-4.162-42ZM35.49,170.983H46.912l-8.943-66.209H23.979l-8.323,66.209H26.1l1.063-11.124H34.25Zm-4.87-45.207L33.1,148.468H28.318Zm17.975-21v66.209H72.856V159.058H60.371V104.774Zm44.273,39.69c8.235,0,11.511-5.161,11.511-13.349v-13.26c0-8.187-2.125-13.082-12.131-13.082H75.513v66.209H87.289V144.464Zm-5.578-29.456H89.5c2.745,0,3.011,1.513,3.011,3.916v11.035c0,2.047-.266,3.738-3.011,3.738H87.289Z" transform="translate(35.116 85.667)" fill="#004c41"/></g></svg>