<svg xmlns="http://www.w3.org/2000/svg" width="164" height="164" viewBox="0 0 164 164"><path d="M82,0A82,82,0,1,1,0,82,82,82,0,0,1,82,0Z" fill="#f8f8f8"/><g transform="translate(63.416 13.554)"><path d="M112.812,99.947a53.1,53.1,0,0,1-.366,6.322c-1.721,14.385-9.244,22.384-15.975,29.545-7.129,7.582-13.285,14.132-13.285,27.161,0,2.993-1.69,5.416-3.771,5.416a.639.639,0,0,1-.081,0c-2.047-.061-3.69-2.459-3.69-5.412,0-18.484,8.679-27.719,16.339-35.866,6.04-6.423,11.381-12.1,12.875-21.606a35.956,35.956,0,0,0,.413-5.556c0-13.029-6.157-19.58-13.288-27.165-1.941-2.066-3.947-4.2-5.863-6.539-5.637-6.884-10.475-15.528-10.475-29.328,0-2.993,1.687-5.416,3.771-5.416s3.771,2.423,3.771,5.416c0,10.651,4.115,16.973,9.509,23.066,1.206,1.364,2.475,2.716,3.777,4.1,5.313,5.652,11.117,11.821,14.174,21.244A46.833,46.833,0,0,1,112.812,99.947Z" transform="translate(-75.643 -31.499)" fill="#6bb130"/><path d="M108.732,82.946a1.746,1.746,0,0,1-1.746,1.746H93.857a1.746,1.746,0,1,1,0-3.492h13.129a1.746,1.746,0,0,1,1.746,1.746Z" transform="translate(-82.192 -37.712)" fill="#e4d600"/><path d="M105.6,81.2a12.8,12.8,0,0,0-3.715,3.492h-5.4c.019-.058.042-.117.064-.173a9.437,9.437,0,0,1,2.067-2.88c.14-.148.283-.293.425-.439Z" transform="translate(-83.933 -37.712)" fill="#dfad11"/><path d="M112.812,162.976c0,2.977-1.671,5.388-3.735,5.416h-.036c-2.084,0-3.771-2.423-3.771-5.416,0-13.029-6.157-19.579-13.288-27.161a93.09,93.09,0,0,1-8.226-9.616c-4.565-6.394-8.112-14.429-8.112-26.251,0-18.489,8.679-27.719,16.339-35.866,2.1-2.239,4.123-4.385,5.922-6.639,4.3-5.376,7.366-11.341,7.366-20.527,0-2.993,1.687-5.416,3.771-5.416a1.129,1.129,0,0,1,.162.008c2.006.117,3.609,2.492,3.609,5.408,0,18.485-8.682,27.72-16.342,35.867-.863.919-1.709,1.816-2.533,2.72-6,6.546-10.752,12.993-10.752,24.446,0,13.029,6.157,19.576,13.285,27.162.137.144.273.289.41.438C104.437,135.59,112.812,144.82,112.812,162.976Z" transform="translate(-75.643 -31.499)" fill="#0d4d44"/><path d="M126.833,167.208a3.771,3.771,0,0,1-3.735,3.771,2.5,2.5,0,0,0,.791-.452,5.745,5.745,0,0,0,1.541-4.475,22.036,22.036,0,0,0-4.042-11.917,60.429,60.429,0,0,0-8.444-9.542c-.687-.668-1.383-1.346-2.043-2.056C118.458,148.138,126.833,154.565,126.833,167.208Z" transform="translate(-89.664 -34.087)" fill="#00302a"/><path d="M112.619,173.263a1.746,1.746,0,0,1-1.746,1.746H86.082v-3.492h24.792A1.746,1.746,0,0,1,112.619,173.263Z" transform="translate(-79.794 -45.611)" fill="#dfdf00"/><path d="M108.327,157.727a1.746,1.746,0,0,1-1.746,1.746H88.633v-3.492H106.58A1.747,1.747,0,0,1,108.327,157.727Z" transform="translate(-80.809 -47.061)" fill="#dfdf00"/><path d="M86.082,171.517h5.609a20.916,20.916,0,0,0-1.349,3.492h-4.26Z" transform="translate(-79.794 -45.611)" fill="#dfad11"/><path d="M102.708,155.981a21.368,21.368,0,0,0-4.542,3.492h-6.31a32.9,32.9,0,0,1,4.2-3.492Z" transform="translate(-82.09 -47.061)" fill="#dfad11"/><path d="M112.619,40.628a1.745,1.745,0,0,1-1.746,1.746H86.082V38.882h24.792A1.747,1.747,0,0,1,112.619,40.628Z" transform="translate(-79.794 -34.435)" fill="#dfdf00"/><path d="M112.037,55.237a1.746,1.746,0,0,1-1.746,1.746H92.343V53.491H110.29A1.747,1.747,0,0,1,112.037,55.237Z" transform="translate(-82.284 -40.244)" fill="#dfdf00"/><path d="M85.046,100.228h24.163a1.746,1.746,0,0,0,1.746-1.746h0a1.746,1.746,0,0,0-1.746-1.746H85.046A1.746,1.746,0,0,0,83.3,98.482h0A1.746,1.746,0,0,0,85.046,100.228Z" transform="translate(-78.688 -39.655)" fill="#dfdf00"/><path d="M113.273,127.235a1.747,1.747,0,0,1-1.746,1.746H87.364a1.746,1.746,0,1,1,0-3.492h24.163a1.744,1.744,0,0,1,1.746,1.746Z" transform="translate(-79.61 -43.249)" fill="#dfdf00"/><path d="M118.006,127.548a4.449,4.449,0,0,1-.391,1.433H111.26a11.846,11.846,0,0,0,3.182-3.492h3.187A3.494,3.494,0,0,1,118.006,127.548Z" transform="translate(-89.806 -43.249)" fill="#dfad11"/><path d="M83.191,114.372H109.17a1.746,1.746,0,0,0,1.746-1.746h0a1.746,1.746,0,0,0-1.746-1.746H83.191a1.746,1.746,0,0,0-1.746,1.746h0A1.746,1.746,0,0,0,83.191,114.372Z" transform="translate(-77.95 -41.423)" fill="#dfdf00"/><path d="M112.446,117.587c-1.721,10.017-9.244,15.587-15.975,20.574-7.129,5.28-13.285,9.841-13.285,18.914a3.771,3.771,0,1,1-7.543,0c0-12.871,8.679-19.3,16.339-24.976,6.04-4.472,11.381-8.428,12.875-15.045Z" transform="translate(-75.643 -23.953)" fill="#6bb130"/><path d="M90.6,42.374H86.082V38.882h3.86A22.906,22.906,0,0,0,90.6,42.374Z" transform="translate(-79.794 -34.435)" fill="#dfad11"/><path d="M97.614,56.983H92.343V53.491h2.9A22.664,22.664,0,0,0,97.614,56.983Z" transform="translate(-82.284 -40.244)" fill="#dfad11"/><path d="M92.694,51.332c-1.553,1.014-4.419,2.894-6.576,4.36a41.243,41.243,0,0,1-3.927-3.768A23.75,23.75,0,0,1,75.643,35.27a3.77,3.77,0,0,1,3.14-3.718,3.625,3.625,0,0,1,.631-.053,3.772,3.772,0,0,1,3.771,3.771C83.186,42.687,87.3,47.089,92.694,51.332Z" transform="translate(-75.643 -31.499)" fill="#6bb130"/><path d="M115.248,103.908a25.912,25.912,0,0,1-.366,4.4c-1.721,10.017-9.244,15.587-15.975,20.574-7.129,5.28-13.285,9.841-13.285,18.914a3.772,3.772,0,0,1-3.771,3.771c-.028,0-.053,0-.081,0a8.983,8.983,0,0,0,1.7-3.769c.444-2.058.435-4.2.9-6.251,1.221-5.4,5.506-9.556,10.009-12.769s9.489-5.869,13.271-9.908a24.975,24.975,0,0,0,5.433-25.144A23.668,23.668,0,0,1,115.248,103.908Z" transform="translate(-78.079 -14.677)" fill="#1d7c9f" opacity="0.5" style="mix-blend-mode:multiply;isolation:isolate"/><path d="M97.9,61.491c-.022.028-.045.055-.07.084-3.553,4.045-7.858,7.355-11.679,11.151-3.933,3.9-6.106,7.922-8.313,12.9-2.087,4.707-1.378,10.09.534,14.822a35.78,35.78,0,0,0,5.38,8.922c-4.565-4.452-8.112-10.048-8.112-18.28,0-12.874,8.679-19.3,16.339-24.976C94.085,64.555,96.1,63.061,97.9,61.491Z" transform="translate(-75.643 -27.599)" fill="#00302a"/><path d="M82.191,51.959a23.75,23.75,0,0,1-6.548-16.654,3.77,3.77,0,0,1,3.14-3.718,4.849,4.849,0,0,0-1.972,2.961,10.678,10.678,0,0,0,.016,4.168A32.118,32.118,0,0,0,82.191,51.959Z" transform="translate(-75.643 -31.534)" fill="#1d7c9f" opacity="0.5" style="mix-blend-mode:multiply;isolation:isolate"/></g></svg>