<svg xmlns="http://www.w3.org/2000/svg" width="100" height="100" viewBox="0 0 100 100">
  <g id="Group_13742" data-name="Group 13742" transform="translate(-4.866 -8.997)">
    <path id="Path_124036" data-name="Path 124036" d="M50,0A50,50,0,1,1,0,50,50,50,0,0,1,50,0Z" transform="translate(4.866 8.997)" fill="#f8f8f8"/>
    <g id="Group_13741" data-name="Group 13741" transform="translate(36.282 22.551)">
      <g id="Group_13739" data-name="Group 13739">
        <path id="Path_123995" data-name="Path 123995" d="M112.812,67.946a15.284,15.284,0,0,1-.366,3.366c-1.721,7.66-9.244,11.919-15.975,15.732-7.129,4.037-13.285,7.525-13.285,14.463,0,1.594-1.69,2.884-3.771,2.884-.028,0-.053,0-.081,0-2.047-.032-3.69-1.309-3.69-2.882,0-9.842,8.679-14.76,16.339-19.1,6.04-3.42,11.381-6.445,12.875-11.5a10.451,10.451,0,0,0,.413-2.958c0-6.938-6.157-10.426-13.288-14.465-1.941-1.1-3.947-2.237-5.863-3.482-5.637-3.665-10.475-8.269-10.475-15.616,0-1.594,1.687-2.884,3.771-2.884s3.771,1.29,3.771,2.884c0,5.671,4.115,9.038,9.509,12.282,1.206.726,2.475,1.446,3.777,2.183,5.313,3.01,11.117,6.294,14.174,11.312A14.612,14.612,0,0,1,112.812,67.946Z" transform="translate(-75.643 -31.499)" fill="#6bb130"/>
      </g>
      <path id="Path_123996" data-name="Path 123996" d="M108.732,82.946a1.746,1.746,0,0,1-1.746,1.746H93.857a1.746,1.746,0,1,1,0-3.492h13.129a1.746,1.746,0,0,1,1.746,1.746Z" transform="translate(-82.192 -58.576)" fill="#e4d600"/>
      <path id="Path_123997" data-name="Path 123997" d="M105.6,81.2a12.8,12.8,0,0,0-3.715,3.492h-5.4c.019-.058.042-.117.064-.173a9.437,9.437,0,0,1,2.067-2.88c.14-.148.283-.293.425-.439Z" transform="translate(-83.933 -58.576)" fill="#dfad11"/>
      <g id="Group_13740" data-name="Group 13740">
        <path id="Path_123998" data-name="Path 123998" d="M112.812,101.508c0,1.585-1.671,2.869-3.735,2.884h-.036c-2.084,0-3.771-1.29-3.771-2.884,0-6.937-6.157-10.426-13.288-14.463a78.5,78.5,0,0,1-8.226-5.12c-4.565-3.4-8.112-7.683-8.112-13.978,0-9.845,8.679-14.76,16.339-19.1,2.1-1.192,4.123-2.335,5.922-3.535,4.3-2.863,7.366-6.039,7.366-10.93,0-1.594,1.687-2.884,3.771-2.884.053,0,.109,0,.162,0,2.006.062,3.609,1.327,3.609,2.88,0,9.843-8.682,14.76-16.342,19.1-.863.489-1.709.967-2.533,1.448-6,3.486-10.752,6.919-10.752,13.017,0,6.938,6.157,10.424,13.285,14.463.137.077.273.154.41.233C104.437,86.925,112.812,91.84,112.812,101.508Z" transform="translate(-75.643 -31.499)" fill="#0d4d44"/>
      </g>
      <path id="Path_123999" data-name="Path 123999" d="M126.833,167.208a3.771,3.771,0,0,1-3.735,3.771,2.5,2.5,0,0,0,.791-.452,5.745,5.745,0,0,0,1.541-4.475,22.036,22.036,0,0,0-4.042-11.917,60.429,60.429,0,0,0-8.444-9.542c-.687-.668-1.383-1.346-2.043-2.056C118.458,148.138,126.833,154.565,126.833,167.208Z" transform="translate(-89.664 -98.087)" fill="#00302a"/>
      <path id="Path_124000" data-name="Path 124000" d="M112.619,173.263a1.746,1.746,0,0,1-1.746,1.746H86.082v-3.492h24.792A1.746,1.746,0,0,1,112.619,173.263Z" transform="translate(-79.794 -109.611)" fill="#dfdf00"/>
      <path id="Path_124001" data-name="Path 124001" d="M108.327,157.727a1.746,1.746,0,0,1-1.746,1.746H88.633v-3.492H106.58A1.747,1.747,0,0,1,108.327,157.727Z" transform="translate(-80.809 -99.316)" fill="#dfdf00"/>
      <path id="Path_124002" data-name="Path 124002" d="M86.082,171.517h5.609a20.916,20.916,0,0,0-1.349,3.492h-4.26Z" transform="translate(-79.794 -109.611)" fill="#dfad11"/>
      <path id="Path_124003" data-name="Path 124003" d="M102.708,155.981a21.368,21.368,0,0,0-4.542,3.492h-6.31a32.9,32.9,0,0,1,4.2-3.492Z" transform="translate(-82.09 -99.316)" fill="#dfad11"/>
      <path id="Path_124004" data-name="Path 124004" d="M112.619,40.628a1.745,1.745,0,0,1-1.746,1.746H86.082V38.882h24.792A1.747,1.747,0,0,1,112.619,40.628Z" transform="translate(-79.794 -34.435)" fill="#dfdf00"/>
      <path id="Path_124005" data-name="Path 124005" d="M112.037,55.237a1.746,1.746,0,0,1-1.746,1.746H92.343V53.491H110.29A1.747,1.747,0,0,1,112.037,55.237Z" transform="translate(-82.284 -40.244)" fill="#dfdf00"/>
      <path id="Path_124006" data-name="Path 124006" d="M85.046,100.228h24.163a1.746,1.746,0,0,0,1.746-1.746h0a1.746,1.746,0,0,0-1.746-1.746H85.046A1.746,1.746,0,0,0,83.3,98.482h0A1.746,1.746,0,0,0,85.046,100.228Z" transform="translate(-78.688 -67.04)" fill="#dfdf00"/>
      <path id="Path_124007" data-name="Path 124007" d="M113.273,127.235a1.747,1.747,0,0,1-1.746,1.746H87.364a1.746,1.746,0,1,1,0-3.492h24.163a1.744,1.744,0,0,1,1.746,1.746Z" transform="translate(-79.61 -82.704)" fill="#dfdf00"/>
      <path id="Path_124008" data-name="Path 124008" d="M118.006,127.548a4.449,4.449,0,0,1-.391,1.433H111.26a11.846,11.846,0,0,0,3.182-3.492h3.187A3.494,3.494,0,0,1,118.006,127.548Z" transform="translate(-89.806 -82.704)" fill="#dfad11"/>
      <path id="Path_124009" data-name="Path 124009" d="M83.191,114.372H109.17a1.746,1.746,0,0,0,1.746-1.746h0a1.746,1.746,0,0,0-1.746-1.746H83.191a1.746,1.746,0,0,0-1.746,1.746h0A1.746,1.746,0,0,0,83.191,114.372Z" transform="translate(-77.95 -74.745)" fill="#dfdf00"/>
      <path id="Path_124010" data-name="Path 124010" d="M112.446,117.587c-1.721,10.017-9.244,15.587-15.975,20.574-7.129,5.28-13.285,9.841-13.285,18.914a3.771,3.771,0,1,1-7.543,0c0-12.871,8.679-19.3,16.339-24.976,6.04-4.472,11.381-8.428,12.875-15.045Z" transform="translate(-75.643 -87.953)" fill="#6bb130"/>
      <path id="Path_124011" data-name="Path 124011" d="M90.6,42.374H86.082V38.882h3.86A22.906,22.906,0,0,0,90.6,42.374Z" transform="translate(-79.794 -34.435)" fill="#dfad11"/>
      <path id="Path_124012" data-name="Path 124012" d="M97.614,56.983H92.343V53.491h2.9A22.664,22.664,0,0,0,97.614,56.983Z" transform="translate(-82.284 -40.244)" fill="#dfad11"/>
      <path id="Path_124013" data-name="Path 124013" d="M92.694,51.332c-1.553,1.014-4.419,2.894-6.576,4.36a41.243,41.243,0,0,1-3.927-3.768A23.75,23.75,0,0,1,75.643,35.27a3.77,3.77,0,0,1,3.14-3.718,3.625,3.625,0,0,1,.631-.053,3.772,3.772,0,0,1,3.771,3.771C83.186,42.687,87.3,47.089,92.694,51.332Z" transform="translate(-75.643 -31.499)" fill="#6bb130"/>
      <path id="Path_124014" data-name="Path 124014" d="M115.248,103.908a25.912,25.912,0,0,1-.366,4.4c-1.721,10.017-9.244,15.587-15.975,20.574-7.129,5.28-13.285,9.841-13.285,18.914a3.772,3.772,0,0,1-3.771,3.771c-.028,0-.053,0-.081,0a8.983,8.983,0,0,0,1.7-3.769c.444-2.058.435-4.2.9-6.251,1.221-5.4,5.506-9.556,10.009-12.769s9.489-5.869,13.271-9.908a24.975,24.975,0,0,0,5.433-25.144A23.668,23.668,0,0,1,115.248,103.908Z" transform="translate(-78.079 -78.677)" fill="#1d7c9f" opacity="0.5" style="mix-blend-mode: multiply;isolation: isolate"/>
      <path id="Path_124016" data-name="Path 124016" d="M97.9,61.491c-.022.028-.045.055-.07.084-3.553,4.045-7.858,7.355-11.679,11.151-3.933,3.9-6.106,7.922-8.313,12.9-2.087,4.707-1.378,10.09.534,14.822a35.78,35.78,0,0,0,5.38,8.922c-4.565-4.452-8.112-10.048-8.112-18.28,0-12.874,8.679-19.3,16.339-24.976C94.085,64.555,96.1,63.061,97.9,61.491Z" transform="translate(-75.643 -51.967)" fill="#00302a"/>
      <path id="Path_124017" data-name="Path 124017" d="M82.191,51.959a23.75,23.75,0,0,1-6.548-16.654,3.77,3.77,0,0,1,3.14-3.718,4.849,4.849,0,0,0-1.972,2.961,10.678,10.678,0,0,0,.016,4.168A32.118,32.118,0,0,0,82.191,51.959Z" transform="translate(-75.643 -31.534)" fill="#1d7c9f" opacity="0.5" style="mix-blend-mode: multiply;isolation: isolate"/>
    </g>
  </g>
</svg>
