<svg xmlns="http://www.w3.org/2000/svg" xmlns:xlink="http://www.w3.org/1999/xlink" width="85" height="116.56" viewBox="0 0 85 116.56">
  <defs>
    <clipPath id="clip-path">
      <circle id="Ellipse_636" data-name="Ellipse 636" cx="42.5" cy="42.5" r="42.5" fill="none"/>
    </clipPath>
  </defs>
  <g id="Component_109_1" data-name="Component 109 – 1" transform="translate(0 1)">
    <text id="_" data-name=" " transform="translate(36.356 27)" fill="#76b644" font-size="27.013" font-family="AzoSans-Bold, Azo Sans" font-weight="700"><tspan x="0" y="0"> </tspan></text>
    <path id="Path_123757" data-name="Path 123757" d="M40.057,0A40.057,40.057,0,1,1,0,40.057,40.057,40.057,0,0,1,40.057,0Z" transform="translate(2.995 33.324)" fill="none"/>
    <g id="Group_13708" data-name="Group 13708" transform="translate(-4.866 21.562)">
      <circle id="Ellipse_635" data-name="Ellipse 635" cx="42.5" cy="42.5" r="42.5" transform="translate(4.866 8.997)" fill="#eaeaea"/>
      <g id="Group_13707" data-name="Group 13707" transform="translate(4.866 8.997)">
        <g id="Group_13706" data-name="Group 13706" clip-path="url(#clip-path)">
          <g id="Group_13705" data-name="Group 13705" transform="translate(20.403 -229.981)">
            <g id="Group_13693" data-name="Group 13693" transform="translate(0 114.845)">
              <path id="Path_123915" data-name="Path 123915" d="M109.325,42.331a7.016,7.016,0,1,0,7.287,11.991l6.609-4.016-7.287-11.991Z" transform="translate(-87.628 87.902)" fill="#f59386"/>
              <g id="Group_13692" data-name="Group 13692" transform="translate(0 128.914)">
                <path id="Path_123916" data-name="Path 123916" d="M80.31,68.425a3.113,3.113,0,0,0,5.752.852.793.793,0,0,1,1.15-.258,3.1,3.1,0,0,0,4.512-1.006.792.792,0,0,1,1.15-.257,3.105,3.105,0,0,0,4.751-1.538.793.793,0,0,1,1.042-.483,3.056,3.056,0,0,0,1.8.144,3.116,3.116,0,0,0,2.364-3.721l-.51-2.285a2.326,2.326,0,0,1,.612-2.137c3.094-3.146,4.585-6.7,3.573-9.488-1.644-4.531-9.243-5.335-16.973-1.792C74.6,53.3,76.831,52.83,80.31,68.425Z" transform="translate(-72.251 -44.246)" fill="#f59386"/>
                <g id="Group_13690" data-name="Group 13690" transform="translate(0 7.33)">
                  <g id="Group_13689" data-name="Group 13689" transform="translate(8.043 48.675)">
                    <rect id="Rectangle_4390" data-name="Rectangle 4390" width="4.677" height="214.399" transform="translate(0 1.209) rotate(-14.977)" fill="#863027"/>
                  </g>
                  <rect id="Rectangle_4391" data-name="Rectangle 4391" width="6.236" height="7.275" rx="1.565" transform="matrix(0.966, -0.258, 0.258, 0.966, 61.674, 253.372)" fill="#261831"/>
                  <path id="Path_123917" data-name="Path 123917" d="M80.623,61.055A20.207,20.207,0,0,0,66.341,85.77L71.727,105.9l6.024-1.611L72.365,84.158a13.948,13.948,0,1,1,26.249,2,1.724,1.724,0,0,0,.714,2.192l2.423,1.4a1.73,1.73,0,0,0,2.434-.774,20.186,20.186,0,0,0-23.562-27.92Z" transform="translate(-65.653 -60.367)" fill="#9f3c2d"/>
                  <path id="Path_123918" data-name="Path 123918" d="M79.012,158.58l1.188,4.44a.6.6,0,0,0,.736.425l4.864-1.3a.6.6,0,0,0,.425-.736l-1.188-4.44Z" transform="translate(-72.938 -113.044)" fill="#261831"/>
                </g>
                <g id="Group_13691" data-name="Group 13691" transform="translate(7.219 2.166)">
                  <path id="Path_123919" data-name="Path 123919" d="M86.776,69.824a4.078,4.078,0,0,1-3.839-3.256l-1.315-6.413a4.7,4.7,0,0,1,2.4-5.079c10.473-5.529,12.068-5.885,12.593-6a2.728,2.728,0,0,1,1.2,5.323,106.066,106.066,0,0,0-10.735,5.235L87.94,63.8l6.186-2.7a2.728,2.728,0,0,1,2.18,5l-7.754,3.378A4.053,4.053,0,0,1,86.776,69.824Z" transform="translate(-81.529 -49.008)" fill="#f59386"/>
                </g>
              </g>
              <path id="Path_123920" data-name="Path 123920" d="M204.585-161.579l-1.539-68.554a9.24,9.24,0,0,0-1.355-4.632,9.387,9.387,0,0,0-8.207-4.5,9.351,9.351,0,0,0-9.14,9.548l1.539,68.554a16.63,16.63,0,0,1-7.959,14.524l-50.654,30.779a1.563,1.563,0,0,0-.524,2.148l.4.662,7.287,11.992.4.663a1.562,1.562,0,0,0,2.147.524L187.64-130.65A35.382,35.382,0,0,0,204.585-161.579Z" transform="translate(-98.843 239.266)" fill="#bd7975"/>
            </g>
            <g id="Group_13694" data-name="Group 13694" transform="translate(67.444 252.782)">
              <path id="Path_123921" data-name="Path 123921" d="M293.487,565.188a9.354,9.354,0,1,0,17.637-6.242l-3.392-9.583-17.637,6.242Z" transform="translate(-255.485 -328.708)" fill="#372a45"/>
              <path id="Path_123922" data-name="Path 123922" d="M245.723,64.3A12.463,12.463,0,0,0,231.2,74.288l-14.982,80.751a134.245,134.245,0,0,0,5.441,69.157l23.488,66.362a1.556,1.556,0,0,0,1.985.947l1.458-.517,17.637-6.242,1.488-.526a1.556,1.556,0,0,0,.947-1.985l-23.488-66.362a109.213,109.213,0,0,1-4.425-56.286l14.967-80.746A12.473,12.473,0,0,0,245.723,64.3Z" transform="translate(-213.979 -64.092)" fill="#6d6f95"/>
              <path id="Path_123923" data-name="Path 123923" d="M288.857,568.609a1.369,1.369,0,0,0-1.913.21,11.657,11.657,0,0,0-1.332,2.138c-1.269,2.538-2,2.745-5.885,4.072-3.241,1.108-7.258-5.074-11.962-5.954a5.291,5.291,0,0,0-3.526.565c-10.391,5.707-16.367,14.611-18.095,23.232a3.762,3.762,0,0,0,1.5,3.832,4.98,4.98,0,0,0,4.525.575l37.39-12.786a7.978,7.978,0,0,0,4.675-4.075,6.02,6.02,0,0,0-.166-5.612A21.831,21.831,0,0,0,288.857,568.609Z" transform="translate(-231.476 -339.042)" fill="#982b1c"/>
            </g>
            <g id="Group_13695" data-name="Group 13695" transform="translate(128.226 255.199)">
              <path id="Path_123924" data-name="Path 123924" d="M388.579,587.784a9.354,9.354,0,1,0,18.664-1.293l-.7-10.141-18.664,1.293Z" transform="translate(-369.586 -345.842)" fill="#372a45"/>
              <path id="Path_123925" data-name="Path 123925" d="M359.263,69.438a12.48,12.48,0,0,0-11.581,13.305l15.042,217.13a1.555,1.555,0,0,0,1.659,1.444l1.559-.108,18.664-1.293,1.559-.108a1.555,1.555,0,0,0,1.444-1.659L372.567,81.019A12.489,12.489,0,0,0,359.263,69.438Z" transform="translate(-347.652 -69.408)" fill="#6d6f95"/>
              <path id="Path_123926" data-name="Path 123926" d="M388.09,592.89a.721.721,0,0,0-1.325-.016c-.428.964-1.39,1.9-3.512,1.9-4.128,0-3.019-8.174-14.335-9.127a8.608,8.608,0,0,0-4.262.729,28.474,28.474,0,0,0-14.027,14.512,4.748,4.748,0,0,0,.14,4.114,3.6,3.6,0,0,0,3.135,2.008H384.15a5.484,5.484,0,0,0,4.394-2.343,7.285,7.285,0,0,0,1.27-5.364A27.568,27.568,0,0,0,388.09,592.89Z" transform="translate(-349.056 -350.893)" fill="#982b1c"/>
            </g>
            <path id="Path_123927" data-name="Path 123927" d="M308.932-250.782c5.985-2.255,13.9-2.634,30.154-1.324,8.78.708,14.025,2.4,17.09,4.349,0,0,.7,29.024-25.909,26.88S308.932-250.782,308.932-250.782Z" transform="translate(-198.081 361.522)" fill="#d89a92"/>
            <g id="Group_13696" data-name="Group 13696" transform="translate(118.007 67.639)">
              <path id="Path_123928" data-name="Path 123928" d="M340.036-273.854a12.261,12.261,0,0,1-10-10.768l-4.788-44.9a12.258,12.258,0,0,1,10.888-13.493,12.248,12.248,0,0,1,13.492,10.893l4.788,44.9a12.257,12.257,0,0,1-10.888,13.493A12.3,12.3,0,0,1,340.036-273.854Z" transform="translate(-325.178 343.082)" fill="#ef7376"/>
            </g>
            <path id="Path_123929" data-name="Path 123929" d="M287.888-75.048c-15.8-1.273-25.146-5.374-29.4-12.9-3.844-6.795-3.124-15.687-2.364-25.1l.04-.495a64.926,64.926,0,0,1,1.817-9.187c2.495-10.35,6.266-25.989,2.755-48.786-2.264-14.686-1.583-31.786-.19-42.892a27.335,27.335,0,0,0-3.115-16.547c-.124-.23-.239-.468-.341-.712a7.74,7.74,0,0,1-.03-5.965,7.748,7.748,0,0,1,4.2-4.24c9.84-4.112,26.608-5.688,44.856-4.218,18.181,1.465,33.88,5.584,43.07,11.3a7.75,7.75,0,0,1,3.467,4.858,7.742,7.742,0,0,1-.984,5.884,7.839,7.839,0,0,1-1.465,1.727,27.314,27.314,0,0,0-8.642,14.53c-2.781,12.175-10.191,26.085-18.871,41.692-11.442,20.578-5.821,38.122-2.8,47.548.563,1.756,1.007,3.143,1.246,4.254,2.026,9.413,1.595,22.431-5.686,30.739C309.612-76.909,300.341-74.044,287.888-75.048Z" transform="translate(-169.185 358.128)" fill="#2d1e39"/>
            <path id="Path_123930" data-name="Path 123930" d="M252.522,19.8a42.245,42.245,0,0,0-1.5,8.241l-.04.494c-.79,9.782-1.537,19.022,2.66,26.441,4.676,8.268,14.607,12.744,31.252,14.085,13.23,1.066,23.156-2.064,29.5-9.3,9.884-11.276,7.257-27.936,6.215-32.772a53.05,53.05,0,0,0-2.058-7.1c-.061-.167-.12-.335-.176-.5a1.557,1.557,0,0,0-1.35-1.054l-61.507-4.956a1.555,1.555,0,0,0-1.639,1.195C253.467,16.32,253.02,18.067,252.522,19.8Z" transform="translate(-166.376 216.353)" fill="#6d6f95"/>
            <g id="Group_13698" data-name="Group 13698" transform="translate(84.865 232.871)">
              <path id="Rectangle_4392" data-name="Rectangle 4392" d="M1.5,0H6.963a1.5,1.5,0,0,1,1.5,1.5V6.843a1.5,1.5,0,0,1-1.5,1.5H1.5A1.5,1.5,0,0,1,0,6.845V1.5A1.5,1.5,0,0,1,1.5,0Z" transform="translate(18.292 10.722) rotate(-85.394)" fill="#982b1c"/>
              <path id="Path_123931" data-name="Path 123931" d="M278.614,24.62a2.982,2.982,0,0,1,.212-.854l-7.968-.642-.709,8.806,7.967.642a2.986,2.986,0,0,1-.072-.877Z" transform="translate(-262.029 -21.841)" fill="#982b1c"/>
              <path id="Path_123932" data-name="Path 123932" d="M346.012,38.043l19.774,1.593-1.365-8.973-17.7-1.426Z" transform="translate(-303.397 -25.175)" fill="#982b1c"/>
              <path id="Path_123933" data-name="Path 123933" d="M394.893,41.913l4.529.365c-.172-1.467-.379-2.737-.566-3.72-.064-.334-.125-.636-.182-.9-.2-.916-.436-1.829-.691-2.74-.155-.553-.311-1.107-.481-1.658h0l-3.974-.32Z" transform="translate(-329.307 -27.194)" fill="#982b1c"/>
              <path id="Path_123934" data-name="Path 123934" d="M315.8,34.738a2.977,2.977,0,0,1-.212.854l9.947.8.709-8.806-9.946-.8a2.971,2.971,0,0,1,.072.877Z" transform="translate(-286.809 -23.838)" fill="#982b1c"/>
              <path id="Path_123935" data-name="Path 123935" d="M258.009,22.21l-3.751-.3c-.221.853-.442,1.7-.686,2.55-.256.893-.473,1.8-.67,2.71-.05.228-.1.455-.143.684-.182.915-.346,1.834-.468,2.76h0l5.009.4Z" transform="translate(-252.291 -21.178)" fill="#982b1c"/>
              <g id="Group_13697" data-name="Group 13697" transform="translate(16.007 0)">
                <path id="Path_123936" data-name="Path 123936" d="M300.271,32.057a2.981,2.981,0,0,0,.212-.854l.57-7.075a2.974,2.974,0,0,0-.072-.877,3.014,3.014,0,0,0-2.7-2.377l-6.958-.561a3.014,3.014,0,0,0-3.042,1.915,2.98,2.98,0,0,0-.212.854l-.57,7.075a3.081,3.081,0,0,0,2.769,3.253l6.958.561A3.014,3.014,0,0,0,300.271,32.057Zm-10.437-1.712.57-7.075a.683.683,0,0,1,.735-.626l6.958.561a.683.683,0,0,1,.625.736l-.57,7.075a.683.683,0,0,1-.734.625l-6.958-.561A.683.683,0,0,1,289.834,30.345Z" transform="translate(-287.495 -20.303)" fill="#c9d3ec"/>
              </g>
            </g>
            <g id="Group_13700" data-name="Group 13700" transform="translate(79.599 110.546)">
              <path id="Path_123937" data-name="Path 123937" d="M257.194-139.878v-.015c-.559-1.8-2.615-9.08-3.92-22.777-.591-6.257-1.013-13.83-1.069-22.844-.152-25.492,2.345-40.369,3.376-45.4a4.162,4.162,0,0,1,2.169-2.844c1.372-.718,3.426-1.757,5.7-2.778l-.331-.746-1.877-2.529a1.573,1.573,0,0,1,.3-2.2c3.685-2.831,6.621-4.909,10.315-6.3-1.986.184-3.96.416-5.922.712-7.679,1.149-17.333,2.357-19.144,11.44-1.51,7.48,2.587,14.864,1.638,22.374-3.326,26.429.531,43.3,1.253,51.42a102.849,102.849,0,0,1-.909,25.641s-3.291,12.889-5.679,23.113a114.328,114.328,0,0,0-2.383,16.6,1.336,1.336,0,0,0,1.225,1.432l2.1.17,3.994.321.047,0c.7.056,8.079.291,8.484-14.832C256.728-116.235,256.894-127.218,257.194-139.878Z" transform="translate(-240.709 248.497)" fill="#c9877f"/>
              <path id="Path_123938" data-name="Path 123938" d="M385.283-202.2c1.823-7.861,10.264-13.235,10.375-21.609.125-9.7-11.328-12.956-18.773-15.293-3.173-.991-6.4-1.845-9.647-2.56,4.508,2.866,4.355,6.326,3.83,8.176a2.3,2.3,0,0,1-1.646,1.6l-8.5,2.224c1.512,1.42,2.89,2.767,3.862,3.705a2.323,2.323,0,0,1,.33,2.889c-2.061,3.259-7.372,12.091-16.634,30.568-11.757,23.422-16.728,55.993-17.18,59.085v.015c-1.136,13.908-1.9,25.561-2.14,29.468-.6,9.728.747,15.185,10.942,16.007l23.3,1.877,2.492.2a1.335,1.335,0,0,0,1.434-1.178c1.135-9.774-.545-19.907-3.694-29.27-2.846-8.738-8.151-25.011,2.451-43.817C374.877-175.747,382.4-189.7,385.283-202.2Z" transform="translate(-288.875 244.873)" fill="#c9877f"/>
              <g id="Group_13699" data-name="Group 13699" transform="translate(11.49)">
                <path id="Path_123939" data-name="Path 123939" d="M285.639-248.534c-3.694,1.392-6.63,3.47-10.315,6.3a1.574,1.574,0,0,0-.3,2.2l1.877,2.529.331.746c-2.272,1.021-4.327,2.06-5.7,2.778a4.162,4.162,0,0,0-2.169,2.844c-1.031,5.032-3.528,19.909-3.376,45.4.055,9.014.477,16.587,1.069,22.844,1.3,13.7,3.362,20.98,3.92,22.777.464-19.155,1.252-42.131,2.8-58.633,1.524-16.191,4.7-31.17,9.755-40.507,2.681-4.98,5.894-8.357,9.662-9.458C289.743-248.739,287.048-248.677,285.639-248.534Z" transform="translate(-265.979 248.72)" fill="#d89a92"/>
                <path id="Path_123940" data-name="Path 123940" d="M369.948-243.429c-2.6-.572-5.843-1.06-9.41-1.471,1.48.7,2.791,2.309.242,5.972-.584.844-1.278,1.883-2.066,3.118-5.058,7.835-13.794,23.274-17.775,41.425-2.751,12.588-5.254,38.414-6.929,59.207.452-3.092,5.423-35.663,17.18-59.085,9.262-18.477,14.573-27.309,16.634-30.568a2.323,2.323,0,0,0-.33-2.889c-.973-.939-2.35-2.285-3.862-3.705l8.5-2.224a2.3,2.3,0,0,0,1.646-1.6C374.3-237.1,374.456-240.563,369.948-243.429Z" transform="translate(-303.076 246.637)" fill="#d89a92"/>
              </g>
            </g>
            <path id="Path_123941" data-name="Path 123941" d="M354.472-268.013c.131-1.2-1.563-2.226-4.546-2.873.159,1.487.281,2.636.322,3.022.161,1.5-4.353,3.624-12.055,4.192s-12.254-.93-12.452-2.487c-.05-.4-.172-1.526-.327-2.989a8.483,8.483,0,0,0-3.48,2.088,1.692,1.692,0,0,0-.427,1.094h-.019l-.042,10.264h.017c-.009,2.043,4.937,3.585,12.321,3.616,8.635.036,17.623-2.005,20.074-4.559a1.79,1.79,0,0,0,.576-1.186h.021l.042-10.183Z" transform="translate(-205.137 371.353)" fill="#372a45"/>
            <g id="Group_13703" data-name="Group 13703" transform="translate(84.329)">
              <g id="Group_13702" data-name="Group 13702" transform="translate(1.825 16.33)">
                <path id="Path_123942" data-name="Path 123942" d="M333.585-423.331c-1.029-19.126-19.366-33.689-40.958-32.527a42.93,42.93,0,0,0-9.477,1.588,40.2,40.2,0,0,0-22.472,16.1,34.527,34.527,0,0,0-4.922,12.4c-1.115,5.523-.471,10.97-.168,16.6.277,5.16.076,10.567.928,15.675a32.063,32.063,0,0,0,15.6,22.289c9.607,5.489,21.534,2.107,30.812-2.474a59.313,59.313,0,0,0,22.54-19.625,49.539,49.539,0,0,0,8.155-29.076Q333.61-422.857,333.585-423.331Z" transform="translate(-255.126 455.923)" fill="#f59386"/>
                <path id="Path_123943" data-name="Path 123943" d="M397.055-371.221c-3.347-.441-6.871,4.1-7.872,10.149s.9,11.3,4.248,11.741,6.872-4.105,7.873-10.15S400.4-370.783,397.055-371.221Z" transform="translate(-328.082 409.752)" fill="#ef7376"/>
                <g id="Group_13701" data-name="Group 13701" transform="translate(1.894 38.486)">
                  <path id="Path_123944" data-name="Path 123944" d="M308.5-315.673c-.093.155-2.357,3.753-8.9,4.105-6.521.351-9.163-2.961-9.288-3.123a1.227,1.227,0,0,0-1.711-.25,1.227,1.227,0,0,0-.255,1.716c.137.185,3.454,4.532,11.386,4.105s10.759-5.1,10.876-5.3a1.222,1.222,0,0,0-.432-1.668A1.228,1.228,0,0,0,308.5-315.673Z" transform="translate(-275.006 341.282)" fill="#d3666d"/>
                  <path id="Path_123945" data-name="Path 123945" d="M271.913-346.762l.088,1.634a2.4,2.4,0,0,0,2.52,2.263h0a2.4,2.4,0,0,0,2.263-2.52l-.088-1.633a2.4,2.4,0,0,0-2.522-2.264A2.394,2.394,0,0,0,271.913-346.762Z" transform="translate(-266.172 359.288)" fill="#3f1933"/>
                  <path id="Path_123946" data-name="Path 123946" d="M342.633-346.529a2.4,2.4,0,0,0,2.262-2.52l-.088-1.634a2.4,2.4,0,0,0-2.521-2.263,2.4,2.4,0,0,0-2.264,2.521l.088,1.631A2.4,2.4,0,0,0,342.633-346.529Z" transform="translate(-303.312 361.286)" fill="#3f1933"/>
                  <path id="Path_123947" data-name="Path 123947" d="M339.339-330.2a2.445,2.445,0,0,0-2.569,2.3,2.458,2.458,0,0,0,2.3,2.592,3.817,3.817,0,0,1,2.507,1.021,2.451,2.451,0,0,0,2.215,1.152,2.455,2.455,0,0,0,1.163-.367,2.452,2.452,0,0,0,.783-3.378C343.864-329.881,339.8-330.179,339.339-330.2Z" transform="translate(-301.538 348.884)" fill="#f17b79"/>
                  <path id="Path_123948" data-name="Path 123948" d="M277.227-324.948a2.458,2.458,0,0,0-2.811-2.031c-.453.074-4.468.806-6.008,3.991a2.452,2.452,0,0,0,1.14,3.275,2.443,2.443,0,0,0,1.2.242,2.451,2.451,0,0,0,2.078-1.382,3.8,3.8,0,0,1,2.387-1.284A2.453,2.453,0,0,0,277.227-324.948Z" transform="translate(-264.129 347.14)" fill="#f17b79"/>
                  <path id="Path_123949" data-name="Path 123949" d="M345.988-369.615c-3.621-2.475-9.658-1.5-10.336-1.376a1.558,1.558,0,0,0-1.264,1.806,1.555,1.555,0,0,0,1.807,1.263c1.491-.261,5.84-.618,8.035.88a1.55,1.55,0,0,0,.962.27,1.557,1.557,0,0,0,1.2-.678A1.558,1.558,0,0,0,345.988-369.615Z" transform="translate(-300.228 371.283)" fill="#3e122d"/>
                  <path id="Path_123950" data-name="Path 123950" d="M269.759-364.643a1.557,1.557,0,0,0,1.658-1.453,1.557,1.557,0,0,0-1.449-1.659c-.684-.048-6.793-.372-10.129,2.477a1.558,1.558,0,0,0-.174,2.2,1.557,1.557,0,0,0,1.27.545,1.549,1.549,0,0,0,.928-.372C263.874-364.623,268.246-364.741,269.759-364.643Z" transform="translate(-259.292 369.378)" fill="#3e122d"/>
                </g>
              </g>
              <path id="Path_123951" data-name="Path 123951" d="M327.595-467.073a26.13,26.13,0,0,1,4.522.772,19.682,19.682,0,0,0-10.3-13.045,19.737,19.737,0,0,0-15.018-.831,19.936,19.936,0,0,1,10.615-4.678,26.31,26.31,0,0,0-14.034-2.57,26.28,26.28,0,0,0-10.923,3.6,29.669,29.669,0,0,1,8-5.942,47.263,47.263,0,0,0-27.079,5.985,24.13,24.13,0,0,1,6.92-8.054,27.888,27.888,0,0,0-13.156,4.455,21.754,21.754,0,0,0-9.049,12.306,16.888,16.888,0,0,0-.466,2.588,3.2,3.2,0,0,1-.828,1.847,21.758,21.758,0,0,0-5.316,10.565,21.78,21.78,0,0,0,2.376,14.564,23.164,23.164,0,0,1,7.521-14.019,21.166,21.166,0,0,0,7.8,5.592c3.024,1.367,6.938,3.592,10.339,2.956a20.776,20.776,0,0,0,8.389-4.261,94.918,94.918,0,0,1,8.322-5.522c2.614-1.624,5.459-3.292,8.531-3.082,4.247.3,6.129,4.807,7.561,8.2,1.071,2.5-.14,4.66-1.036,7.144-.953,2.612-1.984,5.2-2.874,7.82-.471,1.415,1.068,2.144,2,2.656,2.882,1.625,1.679,4.8.838,7.449-.347,1.1-.818,1.636-.3,2.8.679,1.587,3.034,3.287,4.054,1.062a15.859,15.859,0,0,1,4.021-5.65,22.636,22.636,0,0,1,6.376-3.669h.016A29.741,29.741,0,0,1,323.6-413.4c11.8-11.729,16.154-29.517,13.957-39.488A23.315,23.315,0,0,0,327.595-467.073Z" transform="translate(-251.112 491.836)" fill="#3e122d"/>
              <path id="Path_123952" data-name="Path 123952" d="M317.533-342.326c.271.985.147.414.418,1.383a17.48,17.48,0,0,1-1.36,12.454c-1.922,3.741-5.464,5.821-9,7.932-3.508,2.109-9.379,5.313-13.386,3.078-1.658-.926-2.9-2.452-4.795-2.927a10.027,10.027,0,0,0-6.535.43c-2.959,1.3-3.555,4.438-7.114,4.739-2.829.23-6.238-2.178-8.4-3.81a23.074,23.074,0,0,1-5.517-5.9,34.811,34.811,0,0,0,2.4,6.928c2.277,5.748,6.374,9.056,12.251,10.926,5.527,1.748,11.5,1.286,17.187.808,4.119-.346,7.691-1.851,11.509-3.164,4.767-1.646,9.953-5.376,12.137-10.052a30.346,30.346,0,0,0,2.4-8.841,46.087,46.087,0,0,0-.087-12.939C319.042-341.548,318.4-341.858,317.533-342.326Z" transform="translate(-256.961 410.309)" fill="#3e122d"/>
            </g>
            <g id="Group_13704" data-name="Group 13704" transform="translate(120.346 120.702)">
              <path id="Path_123953" data-name="Path 123953" d="M356.948-60.71a7.026,7.026,0,0,0-6.888,7.141,7.017,7.017,0,0,0,7.141,6.888l7.732-.14L364.68-60.85Z" transform="translate(-341.084 136.118)" fill="#f59386"/>
              <path id="Path_123954" data-name="Path 123954" d="M335.4-98.4a3.119,3.119,0,0,0-3.506,2.673,3.093,3.093,0,0,0,.716,2.429.79.79,0,0,1,.182.619.791.791,0,0,1-.338.55,3.1,3.1,0,0,0-1.333,2.153,3.1,3.1,0,0,0,.715,2.429.792.792,0,0,1,.182.619.791.791,0,0,1-.339.549,3.1,3.1,0,0,0-1.333,2.151,3.109,3.109,0,0,0,1.132,2.839.791.791,0,0,1,.291.552.792.792,0,0,1-.2.592,3.052,3.052,0,0,0-.758,1.639A3.116,3.116,0,0,0,333.49-75.1l2.32.312A2.327,2.327,0,0,1,337.6-73.47c1.881,3.992,4.7,6.619,7.665,6.635,4.82.025,8.2-6.826,7.555-15.3C351.569-98.518,351.238-96.262,335.4-98.4Z" transform="translate(-330.321 156.607)" fill="#f59386"/>
              <path id="Path_123955" data-name="Path 123955" d="M459.657-144.606a16.915,16.915,0,0,0,2.108-8.505,16.952,16.952,0,0,0-2.413-8.423L423.07-221.85a9.373,9.373,0,0,0-12.844-3.2,9.408,9.408,0,0,0-4.53,8.19,9.454,9.454,0,0,0,1.331,4.654l34.706,57.677-58.016,1.047a1.563,1.563,0,0,0-1.535,1.591l.014.776.253,14.029.014.775a1.563,1.563,0,0,0,1.591,1.535l61.086-1.1A16.977,16.977,0,0,0,459.657-144.606Z" transform="translate(-358.601 226.383)" fill="#d19189"/>
            </g>
          </g>
        </g>
      </g>
    </g>
  </g>
</svg>
