<svg xmlns="http://www.w3.org/2000/svg" xmlns:xlink="http://www.w3.org/1999/xlink" width="184" height="184" viewBox="0 0 184 184">
  <defs>
    <clipPath id="clip-path">
      <ellipse id="Ellipse_618" data-name="Ellipse 618" cx="92" cy="92" rx="92" ry="92" fill="none"/>
    </clipPath>
  </defs>
  <g id="Group_13446" data-name="Group 13446" transform="translate(-115.866 -33.997)">
    <g id="Group_13530" data-name="Group 13530" transform="translate(231 7)">
      <path id="Path_136033" data-name="Path 136033" d="M92,0A92,92,0,1,1,0,92,92,92,0,0,1,92,0Z" transform="translate(-115.134 26.997)" fill="#00a8e1"/>
      <g id="Group_13528" data-name="Group 13528" transform="translate(-115.134 26.997)">
        <g id="Group_13527" data-name="Group 13527" transform="translate(0 0)" clip-path="url(#clip-path)">
          <g id="Group_13526" data-name="Group 13526" transform="translate(37.717 22.552)">
            <g id="Group_13446-2" data-name="Group 13446" transform="translate(0 223.011)" style="mix-blend-mode: multiply;isolation: isolate">
              <path id="Path_123760" data-name="Path 123760" d="M59.508,306.218H183.039a12.977,12.977,0,0,0,0-25.953H59.508a12.977,12.977,0,0,0,0,25.953Z" transform="translate(-46.531 -280.265)" fill="#f8f7fa"/>
            </g>
            <g id="Group_13453" data-name="Group 13453" transform="translate(74.989 111.118)">
              <g id="Group_13451" data-name="Group 13451" transform="translate(2.443 1.084)">
                <g id="Group_13449" data-name="Group 13449" transform="translate(34.86 80.207)">
                  <g id="Group_13447" data-name="Group 13447" transform="translate(0.992 0.192)">
                    <path id="Path_123761" data-name="Path 123761" d="M184.389,250.048a6.826,6.826,0,1,1-9.339-2.439A6.826,6.826,0,0,1,184.389,250.048Z" transform="translate(-171.673 -246.671)" fill="#f38679"/>
                  </g>
                  <g id="Group_13448" data-name="Group 13448">
                    <path id="Path_123762" data-name="Path 123762" d="M180,273.394a2.046,2.046,0,0,0,.908-.921.365.365,0,0,1,.591-.089,2.443,2.443,0,0,0,4.085-.88.363.363,0,0,1,.608-.129,2.8,2.8,0,0,0,4.791-2.416.363.363,0,0,1,.488-.406,2.45,2.45,0,0,0,3.051-3.409s-1.08-2.2-1.5-3.077a.388.388,0,0,1,.17-.509c2.447-1.276,1.493-4.787-1.247-8.051-3.217-3.833-11.219-9.227-16.581-6.124-4.467,2.586-6.35,9.106-3.28,15.391.546,1.12-.5-.891,5.074,9.732A2.105,2.105,0,0,0,180,273.394Z" transform="translate(-170.578 -246.459)" fill="#f38679"/>
                  </g>
                </g>
                <g id="Group_13450" data-name="Group 13450">
                  <path id="Path_123763" data-name="Path 123763" d="M180.684,241.6l-10.027-18.557c-1.718-3.167-3.244-5.991-4.659-9.015q-2.125-4.5-3.909-9.128t-3.19-9.373c-.969-3.184-1.7-6.25-2.564-9.762L151.3,165.286a9.755,9.755,0,1,0-18.946,4.657c.052.212.119.444.184.65l6.442,20.086c1.041,3.251,2.206,6.954,3.532,10.414q1.976,5.243,4.332,10.315t5.1,9.927c1.791,3.23,3.839,6.46,5.679,9.352l11.288,17.819a6.83,6.83,0,0,0,11.778-6.9Z" transform="translate(-132.069 -157.857)" fill="#f38679"/>
                </g>
              </g>
              <g id="Group_13452" data-name="Group 13452" transform="translate(0)">
                <path id="Path_123764" data-name="Path 123764" d="M129.483,196.133c2.676-5.507,3.95-15.295,1.77-25.321-.072-.227-.146-.485-.206-.724a10.826,10.826,0,0,1,7.937-13.111,10.84,10.84,0,0,1,13.111,7.937c1.551,5.481,5.236,11.659,13.994,13.446a1.066,1.066,0,0,1,.867.9c.151,1.281.2,3.875-1.53,5.452-2.365,2.154-4.582,2.341-4.963,5.117a4.534,4.534,0,0,1-5.927,3.945,6.107,6.107,0,0,0-6.809,1.964,5.867,5.867,0,0,1-7.455,1.552c-3.63-2.215-6.314,2.2-10.271.32A1.1,1.1,0,0,1,129.483,196.133Z" transform="translate(-129.37 -156.66)" fill="#fff8fd"/>
              </g>
            </g>
            <g id="Group_13460" data-name="Group 13460" transform="translate(41.227 187.587)">
              <g id="Group_13454" data-name="Group 13454" transform="translate(30.06 28.225)">
                <path id="Path_123765" data-name="Path 123765" d="M134.42,272.313a9.1,9.1,0,1,0,9.058,9.14A9.1,9.1,0,0,0,134.42,272.313Z" transform="translate(-125.28 -272.313)" fill="#f59386"/>
              </g>
              <g id="Group_13455" data-name="Group 13455" transform="translate(30.439)">
                <path id="Path_123766" data-name="Path 123766" d="M155.012,243.514c6.684,1.44,13.932,3.461,19.967,6.768a27.515,27.515,0,0,1,13.4,15.5c.915,2.661,2.707,10.171.316,15.934a12.78,12.78,0,0,1-6.341,6.55c-3.758,1.8-6.428,1.25-12.244.976l-11.91-.563-23.821-1.124a9.108,9.108,0,0,1,.082-18.2l18.186-.693c-.668-.1-1.338-.19-2.016-.274-3.774-.507-9.31-.684-12.056-1.126a13.144,13.144,0,1,1,4.069-25.971C146.729,241.934,150.807,242.583,155.012,243.514Z" transform="translate(-125.7 -241.133)" fill="#f59386"/>
              </g>
              <g id="Group_13457" data-name="Group 13457" transform="translate(30.439 27.357)">
                <g id="Group_13456" data-name="Group 13456">
                  <path id="Path_123767" data-name="Path 123767" d="M156.227,290.324a1.081,1.081,0,0,1-1.132,1.075l-20.717-.978a9.108,9.108,0,0,1,.082-18.2l20.722-.867a1.082,1.082,0,0,1,1.127,1.085Z" transform="translate(-125.7 -271.354)" fill="#f1d5e7"/>
                </g>
              </g>
              <g id="Group_13458" data-name="Group 13458" transform="translate(50.218 25.198)">
                <path id="Path_123768" data-name="Path 123768" d="M158.384,271.142l-.091,19.993a2.163,2.163,0,0,1-2.265,2.15l-6.419-.3a2.161,2.161,0,0,1-2.06-2.17l.088-19.5a2.164,2.164,0,0,1,2.1-2.152c2.374-.075,4.666-.141,6.435-.19A2.148,2.148,0,0,1,158.384,271.142Z" transform="translate(-147.549 -268.969)" fill="#f9e9f2"/>
              </g>
              <g id="Group_13459" data-name="Group 13459" transform="translate(0 15.653)">
                <path id="Path_123769" data-name="Path 123769" d="M138.908,271.289c1.67,4.141,3.358,12.162-2.117,16.023-3.111,2.194-6.528,2.464-11.707.674-9.541-3.3-18.96-2.354-26,2.613-1.7,1.2-4.336.372-5.9-1.84l-.009-.013c-1.561-2.213-1.45-4.976.246-6.173l32.785-23.118C132.765,254.829,137.194,267.044,138.908,271.289Z" transform="translate(-92.074 -258.425)" fill="#f1d5e7"/>
              </g>
            </g>
            <g id="Group_13461" data-name="Group 13461" transform="translate(42.21 49.82)">
              <path id="Path_123770" data-name="Path 123770" d="M107.743,166.265h0A13.649,13.649,0,0,1,93.9,152.818l-.735-50.025a13.648,13.648,0,0,1,13.446-13.847h0a13.65,13.65,0,0,1,13.848,13.446l.734,50.025A13.649,13.649,0,0,1,107.743,166.265Z" transform="translate(-93.159 -88.944)" fill="#f59386"/>
            </g>
            <g id="Group_13462" data-name="Group 13462" transform="translate(42.946 99.843)">
              <path id="Path_123771" data-name="Path 123771" d="M121.269,157.844a13.648,13.648,0,1,1-13.657-13.64A13.648,13.648,0,0,1,121.269,157.844Z" transform="translate(-93.972 -144.204)" fill="#f59386"/>
            </g>
            <g id="Group_13463" data-name="Group 13463" transform="translate(15.828 106.064)">
              <path id="Path_123772" data-name="Path 123772" d="M83.467,161.792a9.749,9.749,0,1,1-8.735-10.667A9.749,9.749,0,0,1,83.467,161.792Z" transform="translate(-64.016 -151.076)" fill="#f59386"/>
            </g>
            <g id="Group_13464" data-name="Group 13464" transform="translate(54.255 195.754)">
              <ellipse id="Ellipse_617" data-name="Ellipse 617" cx="13.129" cy="13.129" rx="13.129" ry="13.129" transform="translate(0 8.232) rotate(-18.272)" fill="#f59386"/>
            </g>
            <g id="Group_13465" data-name="Group 13465" transform="translate(15.171 194.97)">
              <path id="Path_123773" data-name="Path 123773" d="M89.484,263.719a13.129,13.129,0,1,1-11.763-14.365A13.129,13.129,0,0,1,89.484,263.719Z" transform="translate(-63.29 -249.289)" fill="#f59386"/>
            </g>
            <g id="Group_13466" data-name="Group 13466" transform="translate(77.437 112.201)">
              <path id="Path_123774" data-name="Path 123774" d="M151.526,168.572a9.749,9.749,0,1,1-8.735-10.667A9.75,9.75,0,0,1,151.526,168.572Z" transform="translate(-132.074 -157.856)" fill="#f59386"/>
            </g>
            <g id="Group_13467" data-name="Group 13467" transform="translate(11.486 99.777)">
              <path id="Path_123775" data-name="Path 123775" d="M105.68,144.263c5.276.526,17.454,5.151,28.3,10.084,7.888,3.589,11.181,7.533,10.644,12.924-.3,2.962-1.653,5.824-1.967,8.977s2.234,7.623,1.676,13.23-4.717,9.654-5.239,14.882c-.9,9,6.739,18.687,5.112,35.017s-12.343,31.83-26.935,30.376l-42.537-4.237c-7.032-.7-17.2-7.395-15.275-26.689s9.4-17.352,11.133-34.706c1.981-19.886-8.019-34.494-6.979-44.921.225-2.266,1.476-7.131,8.533-9.122C83.9,146.763,97.211,143.419,105.68,144.263Z" transform="translate(-59.22 -144.131)" fill="#f59386"/>
            </g>
            <g id="Group_13468" data-name="Group 13468" transform="translate(42.21 49.82)">
              <path id="Path_123776" data-name="Path 123776" d="M93.161,102.793a13.649,13.649,0,1,0,13.446-13.847A13.648,13.648,0,0,0,93.161,102.793Z" transform="translate(-93.159 -88.944)" fill="#f59386"/>
            </g>
            <g id="Group_13469" data-name="Group 13469" transform="translate(42.21 49.82)">
              <path id="Path_123777" data-name="Path 123777" d="M106.607,88.946h0a13.648,13.648,0,0,0-13.446,13.847l.6,40.96a41.028,41.028,0,0,0,27.294-.4l-.6-40.96A13.648,13.648,0,0,0,106.607,88.946Z" transform="translate(-93.159 -88.944)" fill="#ef7477"/>
            </g>
            <g id="Group_13481" data-name="Group 13481" transform="translate(12.225 5.709)">
              <g id="Group_13471" data-name="Group 13471" transform="translate(0 45.008)">
                <path id="Path_123779" data-name="Path 123779" d="M66.116,89.987c4.209-.58,8.4,3.9,9.36,10.009s-1.674,11.529-5.882,12.109-8.4-3.9-9.361-10.009S61.907,90.566,66.116,89.987Z" transform="translate(-60.036 -89.936)" fill="#f17b7a"/>
              </g>
              <g id="Group_13472" data-name="Group 13472" transform="translate(71.605 43.93)">
                <path id="Path_123780" data-name="Path 123780" d="M148.329,88.776c-4.225-.456-8.283,4.146-9.061,10.28s2.011,11.476,6.234,11.932,8.283-4.147,9.063-10.28S152.553,89.232,148.329,88.776Z" transform="translate(-139.136 -88.745)" fill="#f17b7a"/>
              </g>
              <g id="Group_13473" data-name="Group 13473" transform="translate(6.212)">
                <path id="Path_123781" data-name="Path 123781" d="M103.471,40.223C70.258,40.711,66.716,66.846,66.9,79.649c.113,7.705,1.04,27.311,8.874,38.37a35.172,35.172,0,0,0,57.659-.847c7.505-11.283,7.856-30.908,7.743-38.614C140.992,65.756,136.685,39.735,103.471,40.223Z" transform="translate(-66.898 -40.217)" fill="#f59386"/>
              </g>
              <g id="Group_13474" data-name="Group 13474" transform="translate(21.063 49.243)">
                <path id="Path_123782" data-name="Path 123782" d="M83.3,97.555l.026,1.812a2.789,2.789,0,0,0,2.7,2.863h0a2.789,2.789,0,0,0,2.617-2.941l-.027-1.81a2.671,2.671,0,1,0-5.32.076Z" transform="translate(-83.304 -94.614)" fill="#3f1a33"/>
              </g>
              <g id="Group_13475" data-name="Group 13475" transform="translate(60.71 48.66)">
                <path id="Path_123783" data-name="Path 123783" d="M132.421,96.833l.027,1.813a2.79,2.79,0,0,1-2.617,2.941h0a2.789,2.789,0,0,1-2.7-2.863l-.026-1.811a2.671,2.671,0,1,1,5.32-.08Z" transform="translate(-127.101 -93.97)" fill="#3f1a33"/>
              </g>
              <g id="Group_13476" data-name="Group 13476" transform="translate(13.734 35.54)">
                <path id="Path_123784" data-name="Path 123784" d="M77.32,86.1a2.08,2.08,0,0,1-1.233-3.778c2.848-2.011,7.8-3.106,12.623-2.791a2.08,2.08,0,0,1-.273,4.151c-4.438-.293-8.271.852-9.948,2.037A2.065,2.065,0,0,1,77.32,86.1Z" transform="translate(-75.208 -79.477)" fill="#bd6154"/>
              </g>
              <g id="Group_13477" data-name="Group 13477" transform="translate(57.491 35.006)">
                <path id="Path_123785" data-name="Path 123785" d="M137,85.234a2.075,2.075,0,0,1-1.179-.347c-1.711-1.136-5.573-2.168-10-1.743A2.08,2.08,0,0,1,125.427,79c4.81-.463,9.794.491,12.7,2.418A2.08,2.08,0,0,1,137,85.234Z" transform="translate(-123.544 -78.887)" fill="#bd6154"/>
              </g>
              <g id="Group_13478" data-name="Group 13478" transform="translate(57.978 61.247)">
                <path id="Path_123786" data-name="Path 123786" d="M127.622,108.007a2.7,2.7,0,0,0-1.7,5.125c1.117.379,2.927,1.439,3.262,2.5a2.7,2.7,0,1,0,5.151-1.624C133.033,109.9,128.172,108.188,127.622,108.007Z" transform="translate(-124.083 -107.875)" fill="#f17b7a"/>
              </g>
              <g id="Group_13479" data-name="Group 13479" transform="translate(19.232 61.745)">
                <path id="Path_123787" data-name="Path 123787" d="M87.912,108.583c-.543.2-5.352,2.049-6.529,6.2a2.7,2.7,0,1,0,5.2,1.472c.3-1.075,2.081-2.186,3.186-2.6a2.7,2.7,0,0,0-1.854-5.073Z" transform="translate(-81.28 -108.425)" fill="#f17b7a"/>
              </g>
              <g id="Group_13480" data-name="Group 13480" transform="translate(31.79 68.698)">
                <path id="Path_123788" data-name="Path 123788" d="M116.952,116.106l-19.626.288a2.206,2.206,0,0,0-2.154,2.486,11.938,11.938,0,0,0,12.012,10.367l.29,0a11.94,11.94,0,0,0,11.7-10.713,2.205,2.205,0,0,0-2.223-2.424Z" transform="translate(-95.154 -116.106)" fill="#b92c29"/>
              </g>
            </g>
            <g id="Group_13498" data-name="Group 13498" transform="translate(64.234 -43.684) rotate(81)">
              <g id="Group_13496" data-name="Group 13496" transform="translate(38.844 2.859)">
                <path id="Path_123801" data-name="Path 123801" d="M104.72,37.068c-13.528,4.3-16.118,23.825-12.414,31.25s14.474,15.9,24.992,12.291c0,0-8.576-3.407-11.089-20.549A149.853,149.853,0,0,1,104.72,37.068Z" transform="translate(-90.773 -37.068)" fill="#a94a44"/>
              </g>
              <g id="Group_13497" data-name="Group 13497" transform="translate(52.098 2.859)">
                <path id="Path_123802" data-name="Path 123802" d="M106.061,37.068c13.354,3.382,15.6,16.617,14.659,22.456-.435,2.706-3.266,11.424,6.571,17.737,0,0-16.359-1.142-19.577-14.579C103.694,45.9,106.061,37.068,106.061,37.068Z" transform="translate(-105.369 -37.068)" fill="#b25049"/>
              </g>
            </g>
            <g id="Group_13500" data-name="Group 13500" transform="translate(10.405 177.307)">
              <path id="Path_123803" data-name="Path 123803" d="M64.775,229.788l78.537,7.823a2.163,2.163,0,0,1,1.955,1.973c1.627,23.268-14.487,49.624-46.247,46.46-25.656-2.556-41.587-12-40.978-35.234a44.98,44.98,0,0,1,4.574-19.861A2.177,2.177,0,0,1,64.775,229.788Z" transform="translate(-58.025 -229.777)" fill="#e5e4eb"/>
            </g>
            <g id="Group_13501" data-name="Group 13501" transform="translate(31.428 180.863)">
              <path id="Path_123804" data-name="Path 123804" d="M131.5,272.963a31.744,31.744,0,0,1-11.931,11.706,44.8,44.8,0,0,1-18.35,1.748,80.434,80.434,0,0,1-19.971-4.23c2.82,1.043,8.151-1.957,11.8-9.829,4.153-8.966,5.939-23.435,6.383-27.89l.878-8.813a2.164,2.164,0,0,1,2.367-1.938l34.433,3.43a2.164,2.164,0,0,1,1.937,2.367l-.855,8.578C137.828,251.723,136.817,263.94,131.5,272.963Z" transform="translate(-81.249 -233.705)" fill="#f0eff3"/>
            </g>
            <g id="Group_13502" data-name="Group 13502" transform="translate(10.405 177.307)">
              <path id="Path_123805" data-name="Path 123805" d="M62.616,230.949a2.177,2.177,0,0,1,2.158-1.161l33.547,3.341L97.229,244.1c-.444,4.455-2.23,18.924-6.383,27.89a27.934,27.934,0,0,1-2.022,3.652c-.642-5.821-19.173-12.525-23.751-13.894-4.131-1.235-5.4-.091-5.357,1.741a36.953,36.953,0,0,1-1.674-12.673A44.968,44.968,0,0,1,62.616,230.949Z" transform="translate(-58.025 -229.777)" fill="#e5e4eb"/>
            </g>
            <g id="Group_13503" data-name="Group 13503" transform="translate(9.322 166.412)">
              <path id="Path_123806" data-name="Path 123806" d="M66.979,217.741a35.023,35.023,0,0,1-3.8,8.588c-2.49,4.376-5.064,8.9-6.1,19.26-2.129,21.37,9.817,28.32,17.212,29.056l42.537,4.237c.712.071,1.412.106,2.107.106,15.566,0,25.628-16.7,27.193-32.42.858-8.615.269-15.43-1.361-21.129Z" transform="translate(-56.829 -217.741)" fill="#db8fbc"/>
            </g>
            <g id="Group_13505" data-name="Group 13505" transform="translate(14.719 100.083)">
              <g id="Group_13504" data-name="Group 13504">
                <path id="Path_123807" data-name="Path 123807" d="M118.139,217.46c-7.532-.75-41.4-5.777-50.365-6.671a2.222,2.222,0,0,0-.357,0,7.622,7.622,0,0,0,.045-2.251c-.051-.389-.1-.817-.158-1.273a12.065,12.065,0,0,1,1.121-6.468c.9-1.942,1.467-4.533,1.052-10.333h0a110.716,110.716,0,0,0-3.74-15.49c-1.784-6.039-3.323-11.254-2.866-15.843.284-2.854,1.872-7.955,9.315-10.056,6-1.694,12.366-3.377,18.3-4.526a4.329,4.329,0,0,1,3.13.615c6.032,3.784,13.743,10.6,22.563,11.477,5.229.521,7.266-3.388,6.709-6.955a.8.8,0,0,1,1.08-.9c3.736,1.494,7.487,3.11,10.791,4.613,8.382,3.814,11.859,8.136,11.273,14.016a26.794,26.794,0,0,1-.993,4.533,26.38,26.38,0,0,0-.976,4.444,14.621,14.621,0,0,0,.679,4.4,29.591,29.591,0,0,1,1.083,6.957c.172,6.384-1.234,14.229.334,21.183a11.85,11.85,0,0,1-.207,6.347q-.115.348-.239.73a7.892,7.892,0,0,0-.384,2.492S125.672,218.209,118.139,217.46Z" transform="translate(-62.791 -144.469)" fill="#fdabdb"/>
              </g>
            </g>
            <g id="Group_13506" data-name="Group 13506" transform="translate(40.305 100.096)">
              <path id="Path_123808" data-name="Path 123808" d="M118.862,156.637c5.237.522,7.273-3.4,6.706-6.972a.805.805,0,0,1,1.091-.877q.506.2,1.011.407a8.991,8.991,0,0,1-.557,5.125c-1.391,3.188-4.557,4.859-8.466,4.47-7.461-.743-14.089-5.347-19.415-9.048-3.094-2.148-6.035-4.189-8.178-4.769q1.008-.212,2-.406a4.51,4.51,0,0,1,3.256.6C102.342,148.955,110.05,155.759,118.862,156.637Z" transform="translate(-91.055 -144.484)" fill="#f0eff3"/>
            </g>
            <g id="Group_13507" data-name="Group 13507" transform="translate(91.542 185.164)">
              <path id="Path_123809" data-name="Path 123809" d="M192.773,264.108c-1.669-6.065-7.967-20.955-29.913-24.763-2.994-.52-11.6-.833-15.205-.889v31.582s36.8-2.829,43.174-3.22A2.145,2.145,0,0,0,192.773,264.108Z" transform="translate(-147.655 -238.456)" fill="#db8fbc"/>
            </g>
            <g id="Group_13508" data-name="Group 13508" transform="translate(54.922 175.301)">
              <path id="Path_123810" data-name="Path 123810" d="M107.2,288.251h24.841c13.953,0,16.319-7.065,16.319-7.065l-19.87-53.626H107.2Z" transform="translate(-107.202 -227.561)" fill="#d48fbe"/>
            </g>
            <g id="Group_13517" data-name="Group 13517" transform="translate(15.185 164)">
              <g id="Group_13511" data-name="Group 13511" transform="translate(63.804 39.238)">
                <g id="Group_13509" data-name="Group 13509" transform="translate(0 0.407)">
                  <path id="Path_123811" data-name="Path 123811" d="M135.312,273.012a9.1,9.1,0,1,0,2.536-12.615A9.1,9.1,0,0,0,135.312,273.012Z" transform="translate(-133.789 -258.872)" fill="#f59386"/>
                </g>
                <g id="Group_13510" data-name="Group 13510" transform="translate(0.028)">
                  <path id="Path_123812" data-name="Path 123812" d="M170.272,267.55c-2.007-3.017-6.184-1.707-9.275-2.443a40.671,40.671,0,0,1-9.392-3.928c-4.05-2.134-8.178-4.533-13.753-.825-6.006,4-4.053,10.335-2.081,15.1,1.744,4.218,6.072,16.907,12.367,12.72l20.826-13.854A4.875,4.875,0,0,0,170.272,267.55Z" transform="translate(-133.819 -258.422)" fill="#f59386"/>
                </g>
              </g>
              <g id="Group_13512" data-name="Group 13512">
                <path id="Path_123813" data-name="Path 123813" d="M66.039,251.165c4.075-5.288,8.282-10.917,13.286-16.47a123.689,123.689,0,0,1,16.3-15.025,25.234,25.234,0,0,1,6.57-3.8,17.556,17.556,0,0,1,9.109-.353,17.9,17.9,0,0,1,11.731,8.956l6.918,11.437,13.835,22.875a9.108,9.108,0,0,1-15.153,10.079l-15.749-21.6-5.414-7.426A95.579,95.579,0,0,0,98.162,250.4c-3.976,5.249-11.107,16.551-11.3,16.807a13.142,13.142,0,1,1-20.819-16.045Z" transform="translate(-63.305 -215.077)" fill="#f59386"/>
              </g>
              <g id="Group_13513" data-name="Group 13513" transform="translate(63.832 39.238)">
                <path id="Path_123814" data-name="Path 123814" d="M170.272,267.55c-2.007-3.017-6.184-1.707-9.275-2.443a40.632,40.632,0,0,1-9.392-3.928c-4.049-2.134-8.178-4.533-13.752-.825-6.007,4-4.054,10.335-2.082,15.1,1.744,4.218,6.073,16.907,12.367,12.72l20.826-13.854A4.875,4.875,0,0,0,170.272,267.55Z" transform="translate(-133.82 -258.422)" fill="#f1d5e7"/>
              </g>
              <g id="Group_13516" data-name="Group 13516" transform="translate(51.557 24.682)">
                <g id="Group_13514" data-name="Group 13514" transform="translate(1.343 0.757)">
                  <path id="Path_123815" data-name="Path 123815" d="M137.055,243.36a1.083,1.083,0,0,1,1.524.34l10.739,17.737a9.1,9.1,0,0,1-15.144,10.074L121.95,254.763a1.082,1.082,0,0,1,.274-1.538Z" transform="translate(-121.742 -243.179)" fill="#f1d5e7"/>
                </g>
                <g id="Group_13515" data-name="Group 13515">
                  <path id="Path_123816" data-name="Path 123816" d="M143.509,251.805l-16.1,10.712a2.163,2.163,0,0,1-2.946-.527l-3.786-5.192a2.163,2.163,0,0,1,.549-3.075l16.564-11.018a2.162,2.162,0,0,1,3.048.682l3.326,5.5A2.164,2.164,0,0,1,143.509,251.805Z" transform="translate(-120.259 -242.343)" fill="#f9e9f2"/>
                </g>
              </g>
            </g>
            <g id="Group_13519" data-name="Group 13519" transform="translate(7.94 161.838)">
              <g id="Group_13518" data-name="Group 13518">
                <path id="Path_123817" data-name="Path 123817" d="M106.184,254.495a29.722,29.722,0,0,1,4.52-15.526l-.033-.007A22.65,22.65,0,0,1,124.12,228.4a2.166,2.166,0,0,0,1.274-3.194c-2.549-4.253-3.3-5.481-5.632-7.543a19.947,19.947,0,0,0-8.732-4.483,19.716,19.716,0,0,0-10.234.395,27.085,27.085,0,0,0-7.256,4.158A128.922,128.922,0,0,0,80.779,229H61.3c-8.194,15.3-14.9,57.83,29.006,57.83l36.817.014S106.184,280.524,106.184,254.495Z" transform="translate(-55.302 -212.688)" fill="#db8fbc"/>
              </g>
            </g>
            <g id="Group_13525" data-name="Group 13525" transform="translate(10.807 104.97)">
              <g id="Group_13522" data-name="Group 13522" transform="translate(52.554 67.216)">
                <g id="Group_13520" data-name="Group 13520" transform="translate(0.086 0.93)">
                  <path id="Path_123818" data-name="Path 123818" d="M127.17,226.254a6.825,6.825,0,1,1-9.444,1.993A6.825,6.825,0,0,1,127.17,226.254Z" transform="translate(-116.619 -225.147)" fill="#f8a791"/>
                </g>
                <g id="Group_13521" data-name="Group 13521">
                  <path id="Path_123819" data-name="Path 123819" d="M133.773,248.973a2.054,2.054,0,0,0,.4-1.228.363.363,0,0,1,.488-.344,2.443,2.443,0,0,0,3.262-2.613.364.364,0,0,1,.487-.388,2.8,2.8,0,0,0,3.205-4.3.364.364,0,0,1,.254-.581,2.449,2.449,0,0,0,1.2-4.413s-1.946-1.482-2.715-2.082a.388.388,0,0,1-.076-.531c1.619-2.235-.8-4.949-4.714-6.644-4.592-1.991-14.161-3.24-17.571,1.933-2.842,4.311-1.611,10.984,3.945,15.234.989.758-.842-.575,8.889,6.438A2.106,2.106,0,0,0,133.773,248.973Z" transform="translate(-116.524 -224.119)" fill="#f8a791"/>
                </g>
              </g>
              <g id="Group_13523" data-name="Group 13523" transform="translate(5.017 1.081)">
                <path id="Path_123820" data-name="Path 123820" d="M77.988,205.863a32.161,32.161,0,0,1-5.69-12.421L69.643,183.4l-5.307-20.087c-.054-.212-.11-.452-.151-.67A9.755,9.755,0,1,1,83.352,159l3.881,20.41c2.392,12.575,2.45,14.073,4.211,16.778,2.066,3.21,3.484,3.79,13.79,11.032l17,11.946a6.83,6.83,0,0,1-7.451,11.439l-17.8-10.722-8.9-5.36A32.094,32.094,0,0,1,77.988,205.863Z" transform="translate(-64.011 -151.061)" fill="#f59386"/>
              </g>
              <g id="Group_13524" data-name="Group 13524">
                <path id="Path_123821" data-name="Path 123821" d="M58.628,187.8c3.148-5.252,5.262-14.887,3.969-25.066a10.837,10.837,0,1,1,21.293-4.05c1.065,5.6,4.194,12.072,12.761,14.621a1.069,1.069,0,0,1,.785.974c.039,1.288-.14,3.877-2,5.3-2.546,1.94-4.771,1.931-5.393,4.663a4.533,4.533,0,0,1-6.249,3.41A6.106,6.106,0,0,0,76.838,189a5.867,5.867,0,0,1-7.562.893c-3.422-2.525-6.482,1.636-10.26-.581A1.1,1.1,0,0,1,58.628,187.8Z" transform="translate(-58.469 -149.867)" fill="#fff8fd"/>
              </g>
            </g>
          </g>
        </g>
      </g>
    </g>
  </g>
</svg>
