<svg xmlns="http://www.w3.org/2000/svg" width="164" height="164" viewBox="0 0 164 164"><g transform="translate(-4.866 -8.997)"><circle cx="82" cy="82" r="82" transform="translate(4.866 8.997)" fill="#0098da"/><g transform="translate(37.332 31.333)"><path d="M108.76,46.042s35.782,22.437,35.782,55.733S108.76,158.5,108.76,158.5H80.366s-35.782-23.43-35.782-56.726S80.366,46.042,80.366,46.042Z" transform="translate(-44.584 -38.734)" fill="#ee7586"/><path d="M82.987,154.991c-5.778-4.153-32.558-24.875-32.558-52.049,0-27.152,26.788-47.1,32.509-51.054h25.586c5.71,3.941,32.507,23.9,32.507,51.054s-26.772,47.891-32.557,52.049Z" transform="translate(-45.752 -39.901)" fill="#f8b0a4"/><path d="M64.839,133.06a48.985,48.985,0,0,1-6.615-23.723,47.16,47.16,0,0,1,5.842-22.1s-2.746,12.6-2.746,22.1C61.321,119.712,64.839,133.06,64.839,133.06Z" transform="translate(-47.309 -46.277)" fill="#fff" opacity="0.25" style="mix-blend-mode:screen;isolation:isolate"/><g transform="translate(22.72)"><path d="M114.326,36.909s-.9,20.325,4.881,25.97c2.848,2.782,8.344,8.233,8.344,13.563,0,10.405-12.21,18.839-27.282,18.839S72.976,86.847,72.976,76.442c0-5.329,5.5-10.781,8.349-13.563,5.781-5.644,4.881-25.97,4.881-25.97Z" transform="translate(-72.976 -36.909)" fill="#e2e4ec"/><path d="M110.021,36.909v30.3c0,3.427-7.85,3.364-7.85,0v-30.3Z" transform="translate(-78.809 -36.909)" fill="#c8cfdd"/></g><g transform="translate(22.72 67.722)"><path d="M114.326,178.227s-.9-20.325,4.881-25.97c2.848-2.782,8.344-8.233,8.344-13.562,0-10.406-12.21-18.839-27.282-18.839s-27.292,8.433-27.292,18.839c0,5.329,5.5,10.781,8.349,13.562,5.781,5.645,4.881,25.97,4.881,25.97Z" transform="translate(-72.976 -119.855)" fill="#e2e4ec"/><path d="M110.021,184.6V154.3c0-3.427-7.85-3.365-7.85,0v30.3Z" transform="translate(-78.809 -126.228)" fill="#c8cfdd"/></g></g><g transform="translate(33.644 88.441)"><path d="M51.42,139.454,62.039,127.1l-10.457-2.673,11.5-17.166-21.2,18.575,9.685,3.679-11.084,7.2Z" transform="translate(-40.486 -107.261)" fill="#cf221b"/></g><g transform="translate(19.189 68.929)"><path d="M23.9,96.783l15.224,5.8L38.092,91.838l20.05,5L33.477,83.194,33.3,93.553,22.764,85.57Z" transform="translate(-22.764 -83.194)" fill="#cf221b"/></g><g transform="translate(119.92 92.936)"><path d="M158.938,145.013l-10.619-12.354,10.457-2.673-11.5-17.166,21.2,18.575-9.685,3.679,11.084,7.2Z" transform="translate(-147.274 -112.82)" fill="#cf221b"/></g><g transform="translate(121.572 73.42)"><path d="M183.266,102.343l-15.224,5.8L169.075,97.4l-20.05,5L173.69,88.754l.176,10.359L184.4,91.13Z" transform="translate(-149.025 -88.754)" fill="#cf221b"/></g></g></svg>