<svg xmlns="http://www.w3.org/2000/svg" xmlns:xlink="http://www.w3.org/1999/xlink" width="100" height="100" viewBox="0 0 100 100">
  <defs>
    <clipPath id="clip-path">
      <circle id="Ellipse_644" data-name="Ellipse 644" cx="50" cy="50" r="50" fill="none"/>
    </clipPath>
  </defs>
  <g id="Group_13750" data-name="Group 13750" transform="translate(-4.866 -8.997)">
    <circle id="Ellipse_643" data-name="Ellipse 643" cx="50" cy="50" r="50" transform="translate(4.866 8.997)" fill="#f8f8f8"/>
    <g id="Group_13749" data-name="Group 13749" transform="translate(4.866 8.997)">
      <g id="Group_13748" data-name="Group 13748" clip-path="url(#clip-path)">
        <g id="Group_13747" data-name="Group 13747" transform="translate(26.744 10.738)">
          <path id="Path_124028" data-name="Path 124028" d="M95.524,116.8l14.376-3.227s-4.768-1.27-14.7-27.146C88.17,68.09,85.839,58.165,85.839,58.165l-13.761.744S79.231,61.244,89.9,89.036c8.562,22.317,5.629,27.759,5.629,27.759Z" transform="translate(-65.755 -44.714)" fill="#e2e4ec"/>
          <path id="Path_124029" data-name="Path 124029" d="M102.911,115.206,95.3,117.639s3.959-3.873-5.4-28.27C79.231,61.576,72.078,59.242,72.078,59.242l9.2-.423,21.635,56.387Z" transform="translate(-65.755 -45.046)" fill="#c8cfdd"/>
          <path id="Path_124030" data-name="Path 124030" d="M134.964,173.317a3.624,3.624,0,0,0,4.785-1.836l.553-1.241a3.646,3.646,0,0,0-1.837-4.786c-1.789-.776-7.557-.056-9.285-4.179-1.462-3.488.371,1.986-.443,3.814l-.553,1.242a3.626,3.626,0,0,0,1.837,4.787l4.942,2.2Z" transform="translate(-94.099 -96.517)" fill="#c8cfdd"/>
          <path id="Path_124031" data-name="Path 124031" d="M124.592,182.109a3.624,3.624,0,0,1-4.785,1.837l-1.242-.553a3.625,3.625,0,0,1-1.837-4.787l1.092-2.451a3.624,3.624,0,0,1,4.786-1.836l1.242.553a3.626,3.626,0,0,1,1.837,4.786l-1.093,2.451Z" transform="translate(-88.278 -103.563)" fill="#e2e4ec"/>
          <path id="Path_124032" data-name="Path 124032" d="M68.136,31.32a5.711,5.711,0,0,0-7.542,2.894l-.873,1.956a5.714,5.714,0,0,0,2.894,7.543L70.4,47.182a5.711,5.711,0,0,0,7.542-2.894l.873-1.957a5.714,5.714,0,0,0-2.894-7.543L68.136,31.32Z" transform="translate(-59.226 -30.824)" fill="#c8cfdd"/>
          <path id="Path_124033" data-name="Path 124033" d="M61.113,34.214a5.711,5.711,0,0,1,7.542-2.894l2.267,1.01-.865,1.94a5.712,5.712,0,0,1-7.542,2.893l-2.267-1.01.865-1.939Z" transform="translate(-59.745 -30.824)" fill="#e2e4ec"/>
          <path id="Path_124034" data-name="Path 124034" d="M82.85,34.531a4.418,4.418,0,0,1,5.834-2.239l1.514.674A4.42,4.42,0,0,1,92.437,38.8l-2.684,6.025a4.419,4.419,0,0,1-5.835,2.239L82.4,46.391a4.418,4.418,0,0,1-2.239-5.834l2.684-6.025Z" transform="translate(-69.669 -31.375)" fill="#e2e4ec"/>
          <path id="Path_124035" data-name="Path 124035" d="M90.217,67.346s-1.546-5.074-5.964-7.042c-2.472-1.1,1.355-1.005,1.355-1.005l3.62,1.049.988,7Z" transform="translate(-71.518 -45.289)" fill="#e2e4ec"/>
        </g>
      </g>
    </g>
  </g>
</svg>
