<svg xmlns="http://www.w3.org/2000/svg" width="247.809" height="247.809" viewBox="0 0 247.809 247.809">
  <g id="Group_15809" data-name="Group 15809" transform="translate(0)">
    <g id="Group_15807" data-name="Group 15807" transform="translate(0)" opacity="0.7">
      <path id="Path_136039" data-name="Path 136039" d="M2.517,238.859a6.89,6.89,0,0,0,6.967,6.815l229.375-2.517a6.89,6.89,0,0,0,6.815-6.966L243.156,6.815A6.891,6.891,0,0,0,236.189,0L6.815,2.517A6.891,6.891,0,0,0,0,9.484Z" transform="translate(2.144 0) rotate(0.5)" fill="#959595"/>
      <path id="Path_136040" data-name="Path 136040" d="M48.495,105.676c.007-.022.019-.041.027-.064.1-.288.215-.559.323-.84.167-.45.367-.876.573-1.306.222-.467.454-.92.717-1.356s.548-.849.85-1.256a15.838,15.838,0,0,1,1-1.239c.333-.368.688-.706,1.054-1.041.386-.352.773-.691,1.189-1,.309-.232.619-.454.945-.665C65.786,88.932,85.524,83.2,95.6,81.209a310.492,310.492,0,0,1,40.115-4.871L135.5,57.016l-.038-3.419,55.847-.614.038,3.421.211,19.321a310.7,310.7,0,0,1,40.213,3.989c10.161,1.779,30.148,7.117,40.9,14.915.263.166.505.355.757.536.424.3.819.635,1.212.978.373.326.735.656,1.075,1.015.172.18.369.331.532.521.052.053.117.1.168.157.24.281.426.618.648.92.132.182.262.361.386.548a16.427,16.427,0,0,1,1.281,2.3c.032.072.068.142.1.214a17.731,17.731,0,0,1,.848,2.36l6.031,18.4L286.9,230.853c-2.186-7.893-4.49-15.757-7.044-23.547l-19.387-59.142c-8.659,37.5-16.957,70.278-23.485,96.831l0,.005a196.84,196.84,0,0,0-5.622,50.731l-130.6.432a189.258,189.258,0,0,0-6.735-49.594v-.005c-7.118-26.43-16.144-59.06-25.634-96.4L50.267,209.825c-2.382,7.845-4.513,15.758-6.526,23.7L42.553,125.246Z" transform="translate(-40.786 -50.964)" fill="rgba(188,188,188,0.64)"/>
      <path id="Path_136041" data-name="Path 136041" d="M74.358,144.128c-3.149-12.345-9.068-19.861-16.983-27.34-4.016-3.793-2.972-9.767-.657-12.735,6.924-7.439,27.63-14.267,40.218-16.755,17.827-3.526,40.28-5.462,66.731-5.751s48.941,1.151,66.841,4.285C243.145,88.043,264,94.415,271.084,101.7c2.38,2.918,3.551,8.87-.38,12.75-7.77,7.672-13.533,15.338-16.405,27.825-4.612,20.077-13.335,55.98-19.278,80.28a17.739,17.739,0,0,1-31.821,5.88c-13.7-19.824-17.485-46.158-38.426-45.928s-24.143,26.638-37.406,46.757a17.737,17.737,0,0,1-31.945-5.179c-6.467-24.137-15.963-59.795-21.033-79.836C74.38,144.209,74.368,144.17,74.358,144.128Z" transform="translate(-40.786 -50.964)" fill="#959595"/>
    </g>
    <g id="Group_15808" data-name="Group 15808" transform="translate(109.783 59.227)">
      <path id="Path_136042" data-name="Path 136042" d="M154.467,200.018l-3.9-65.406V110.191h31.184v24.6l-3.717,65.226Zm-2.974,50.976V217.167h28.75v33.827Z" transform="translate(-150.57 -110.191)" fill="#fff"/>
    </g>
  </g>
</svg>
