<svg xmlns="http://www.w3.org/2000/svg" width="74.9" height="74.898" viewBox="0 0 74.9 74.898">
  <path id="Path_136046" data-name="Path 136046" d="M951.834,905.63a1.741,1.741,0,0,0-1.726-1.73H924.9V878.7a1.739,1.739,0,0,0-1.73-1.73l-17.565,0a1.733,1.733,0,0,0-1.726,1.726v25.2H878.67a1.742,1.742,0,0,0-1.732,1.73v17.559a1.741,1.741,0,0,0,1.732,1.732h25.206v25.216a1.748,1.748,0,0,0,1.726,1.73l17.565-.01a1.746,1.746,0,0,0,1.73-1.73V924.921h25.212a1.739,1.739,0,0,0,1.73-1.732Z" transform="translate(-876.938 -876.969)" fill="#005d55"/>
</svg>
