<svg xmlns="http://www.w3.org/2000/svg" xmlns:xlink="http://www.w3.org/1999/xlink" width="100" height="100" viewBox="0 0 100 100"><defs><clipPath id="a"><circle cx="50" cy="50" r="50" fill="none"/></clipPath></defs><g transform="translate(-4.866 -8.997)"><circle cx="50" cy="50" r="50" transform="translate(4.866 8.997)" fill="#f8f8f8"/><g transform="translate(4.866 8.997)"><g clip-path="url(#a)"><g transform="translate(14.021 -87.572)"><path d="M67.119-26.889,44.09-23.515S50.4-28.086,50.4-71.868c0-31.019-2.177-46.976-2.177-46.976l20.718-6.69s-9.229,7.491-9.23,54.517c0,37.76,7.405,44.128,7.405,44.128Z" transform="translate(-38.813 146.919)" fill="#e2e4ec"/><path d="M66.546-25.544l12.606-.72s-8.031-3.472-8.031-44.753c0-47.026,9.23-54.517,9.23-54.517l-13.805,4.582v95.408Z" transform="translate(-50.221 146.919)" fill="#c8cfdd"/><path d="M51.415,78.1a5.726,5.726,0,0,1-8.1,0L41.8,76.58a5.76,5.76,0,0,1,0-8.1c2.2-2.157,11.114-4.358,11.33-11.419.182-5.972.576,3.139,2.812,5.375l1.518,1.518a5.726,5.726,0,0,1,0,8.1L51.415,78.1Z" transform="translate(-36.804 55.171)" fill="#c8cfdd"/><path d="M73.89,87.124a5.726,5.726,0,0,0,8.1,0l1.519-1.518a5.726,5.726,0,0,0,0-8.1l-3-3a5.725,5.725,0,0,0-8.1,0l-1.519,1.518a5.727,5.727,0,0,0,0,8.1l3,3Z" transform="translate(-51.577 46.145)" fill="#e2e4ec"/><path d="M58.528-166.358a9.022,9.022,0,0,1,12.761,0l2.394,2.391a9.026,9.026,0,0,1,0,12.762l-9.524,9.525a9.024,9.024,0,0,1-12.762,0L49-144.072a9.026,9.026,0,0,1,0-12.762l9.525-9.523Z" transform="translate(-39.967 169.002)" fill="#c8cfdd"/><path d="M80.992-166.358a9.022,9.022,0,0,0-12.761,0l-2.772,2.772,2.373,2.372a9.023,9.023,0,0,0,12.762,0l2.772-2.773-2.374-2.371Z" transform="translate(-49.669 169.002)" fill="#e2e4ec"/><path d="M47.132-152.852a6.98,6.98,0,0,0-9.872,0L35.409-151a6.981,6.981,0,0,0,0,9.872l7.368,7.368a6.98,6.98,0,0,0,9.873,0l1.851-1.852a6.979,6.979,0,0,0,0-9.872l-7.368-7.367Z" transform="translate(-33.365 161.836)" fill="#e2e4ec"/><path d="M63.962-103.548s-.591-8.357,4.811-13.761c3.023-3.022-2.568-.715-2.568-.715l-4.746,3.6,2.5,10.88Z" transform="translate(-47.638 143.532)" fill="#e2e4ec"/><path d="M174.851,206.013,192.206,190.5s-7.556,1.914-41.155-26.157c-23.8-19.888-34.653-31.79-34.653-31.79L97.98,144.167s11.666-2.279,47.755,27.871c28.979,24.21,29.116,33.976,29.116,33.976Z" transform="translate(-66.191 15.803)" fill="#e2e4ec"/><path d="M183.566,201.763l-8.635,9.212s2.484-8.388-29.2-34.856C109.646,145.97,97.98,148.249,97.98,148.249l12.368-7.657,73.218,61.171Z" transform="translate(-66.191 11.722)" fill="#c8cfdd"/><path d="M273.208,263.74a5.725,5.725,0,0,0,5.191-6.214l-.191-2.138a5.759,5.759,0,0,0-6.215-5.192c-3.066.306-10.47,5.735-16.027,1.373-4.7-3.689,2.039,2.454,2.322,5.6l.191,2.14A5.728,5.728,0,0,0,264.7,264.5l8.512-.765Z" transform="translate(-145.608 -43.946)" fill="#c8cfdd"/><path d="M268.289,280.022a5.725,5.725,0,0,1-5.191,6.214l-2.139.192a5.726,5.726,0,0,1-6.215-5.193l-.377-4.222a5.724,5.724,0,0,1,5.192-6.214l2.139-.192a5.727,5.727,0,0,1,6.215,5.192l.377,4.223Z" transform="translate(-145.627 -54.318)" fill="#e2e4ec"/><path d="M75.335,112.406a9.022,9.022,0,0,0-8.182,9.794l.3,3.37a9.027,9.027,0,0,0,9.794,8.183l13.416-1.2a9.024,9.024,0,0,0,8.183-9.794l-.3-3.372A9.027,9.027,0,0,0,88.75,111.2l-13.415,1.2Z" transform="translate(-50.511 26.671)" fill="#c8cfdd"/><path d="M67.153,123.119a9.022,9.022,0,0,1,8.182-9.794l3.9-.351.3,3.343a9.023,9.023,0,0,1-8.182,9.793l-3.905.35-.3-3.341Z" transform="translate(-50.511 25.752)" fill="#e2e4ec"/><path d="M99.932,106.377a6.979,6.979,0,0,1,6.329-7.576l2.607-.234a6.981,6.981,0,0,1,7.576,6.329l.931,10.378a6.981,6.981,0,0,1-6.33,7.576l-2.607.233a6.979,6.979,0,0,1-7.576-6.329l-.929-10.378Z" transform="translate(-67.168 33.085)" fill="#e2e4ec"/><path d="M129.195,149.674s-6.035-5.812-13.644-5.131c-4.258.382,1.1-2.429,1.1-2.429l5.8-1.336,6.745,8.9Z" transform="translate(-74.281 11.627)" fill="#e2e4ec"/></g><g transform="translate(50 16.379)"><path d="M388.885,36.981,378.622,52.572,390.9,54.081l-10.562,21.19L401.71,51.063,390.166,48.3,401.71,38.49Z" transform="translate(-378.622 -36.981)" fill="#cf221b"/></g></g></g></g></svg>