<svg xmlns="http://www.w3.org/2000/svg" xmlns:xlink="http://www.w3.org/1999/xlink" width="85" height="85" viewBox="0 0 85 85"><defs><clipPath id="a"><rect width="46.952" height="46.952" fill="none"/></clipPath></defs><g transform="translate(-239 -1169.023)"><g transform="translate(238.453 1167.965)"><path d="M.547,43.552A42.5,42.5,0,1,0,43.053,1.058h-.006A42.5,42.5,0,0,0,.547,43.552" fill="#f8f8f8" fill-rule="evenodd"/></g><g transform="translate(258.024 1188.046)"><g clip-path="url(#a)"><path d="M23.476,0A23.473,23.473,0,0,0,3.021,34.992L0,46.952l11.96-3.021A23.475,23.475,0,1,0,23.476,0" fill="#69be28"/><path d="M246.279,128.165l-.844,17.373h-4.371l-.883-17.373Z" transform="translate(-219.753 -118.112)" fill="#fff"/><path d="M239.94,321.1a3.491,3.491,0,1,1,3.413-3.489,3.332,3.332,0,0,1-3.413,3.489" transform="translate(-216.444 -284.776)" fill="#fff"/></g></g></g></svg>