<svg xmlns="http://www.w3.org/2000/svg" width="85" height="85" viewBox="0 0 85 85"><g transform="translate(-239 -1169.023)"><g transform="translate(238.453 1167.965)"><path d="M.547,43.552A42.5,42.5,0,1,0,43.053,1.058h-.006A42.5,42.5,0,0,0,.547,43.552" fill="#f8f8f8" fill-rule="evenodd"/></g><g transform="translate(-35.025 1151.073)"><g transform="translate(289.278 32.019)"><g transform="translate(3.769 3)"><path d="M343.919,127.235a1.5,1.5,0,0,1-1.474,1.234H323.507a1.5,1.5,0,0,1-1.475-1.234l-4.9-27.386a1.248,1.248,0,0,1,1.228-1.468h29.232a1.248,1.248,0,0,1,1.228,1.468l-4.9,27.386Z" transform="translate(-306.496 -76.961)" fill="#969696"/><g transform="translate(17.314 39.782)"><path d="M364.254,164.13a.542.542,0,0,1-.523.56h-2.6a.542.542,0,0,1-.523-.56v-8.307a.542.542,0,0,1,.523-.56h2.6a.542.542,0,0,1,.523.56v8.307Z" transform="translate(-353.266 -155.264)" fill="#eaeaea"/><path d="M366.255,155.264v9.426h1.3a.542.542,0,0,0,.523-.56v-8.307a.542.542,0,0,0-.523-.56Z" transform="translate(-357.09 -155.264)" fill="#eaeaea"/><path d="M384.447,164.625a.532.532,0,0,1-.577.495l-2.393-.28a.7.7,0,0,1-.481-.282.805.805,0,0,1-.154-.562l.825-8.053a.533.533,0,0,1,.577-.495l2.586.3a.515.515,0,0,1,.351.206.583.583,0,0,1,.111.41l-.846,8.259Z" transform="translate(-366.966 -155.385)" fill="#eaeaea"/><path d="M338.711,164.625a.532.532,0,0,0,.577.495l2.586-.3a.517.517,0,0,0,.351-.206.585.585,0,0,0,.111-.411l-.846-8.258a.533.533,0,0,0-.577-.495l-2.586.3a.513.513,0,0,0-.351.206.582.582,0,0,0-.112.41l.846,8.259Z" transform="translate(-337.862 -155.385)" fill="#eaeaea"/></g><path d="M354.1,52.154a1.089,1.089,0,0,1-1.467.466L321,35.763a1.089,1.089,0,0,1-.431-1.477l.894-1.677a1.089,1.089,0,0,1,1.467-.466L354.558,49a1.09,1.09,0,0,1,.431,1.478l-.894,1.677Z" transform="translate(-308.749 -32.019)" fill="#969696"/></g><path d="M392.135,68.471l-18.684-9.958Z" transform="translate(-339.936 -48.408)" fill="#005d55"/><g transform="matrix(0.914, -0.407, 0.407, 0.914, -0.304, 11.443)"><path d="M303.663,62.826H292.155l2.877-2.877L289.278,54.2l5.754-5.754,5.754,5.754,2.877-2.877Z" transform="translate(-289.278 -48.442)" fill="#00a8e1"/></g></g></g></g></svg>