<svg xmlns="http://www.w3.org/2000/svg" xmlns:xlink="http://www.w3.org/1999/xlink" width="195.808" height="581.889" viewBox="0 0 195.808 581.889">
  <defs>
    <clipPath id="clip-path">
      <rect id="Rectangle_4534" data-name="Rectangle 4534" width="37.719" height="27.996" fill="none"/>
    </clipPath>
  </defs>
  <g id="Group_15737" data-name="Group 15737" transform="translate(286.213 -19.579)">
    <g id="Body" transform="translate(-286.213 19.579)">
      <path id="Path_135892" data-name="Path 135892" d="M-162.66,601.468a9.663,9.663,0,0,1-7.9-3.6c-4.194-5.26-2.647-14.008-.868-21.793l.195-.854a35.575,35.575,0,0,1,1.836-5.867l-4.94-224.924c-4.031.3-8.653.443-13.983.443s-9.956-.146-13.987-.443l-4.942,224.923a35.613,35.613,0,0,1,1.837,5.867l.193.852c1.78,7.786,3.328,16.534-.866,21.795a9.665,9.665,0,0,1-7.9,3.6h-30.863a10.543,10.543,0,0,1-10.521-10.541c0-5.386,4.047-8.179,6.725-10.027a16.359,16.359,0,0,0,2.373-1.834,45.163,45.163,0,0,0,6.29-9.4,29.924,29.924,0,0,1,2.358-3.629l5.285-240.58a68.138,68.138,0,0,1-.693-12.781c-.054-16.48.523-20.7,2.534-26.639a94.276,94.276,0,0,0,1.961-53.61l-.067-.263q-1.107-4.293-2.332-9.008c-1.872-7.212-3.9-15.026-6.024-23.453l-4.519,14.312A260.3,260.3,0,0,0-253.3,280.905l-1.688,38.337a36.192,36.192,0,0,1,7.71,14.951c.722,3.2,1.465,9.151-1.664,13.083a8,8,0,0,1-2.353,2.013c-.02.954-.036,1.735-.036,1.735a7.918,7.918,0,0,1-7.907,7.8,8.1,8.1,0,0,1-1.6-.169,8.341,8.341,0,0,1-5.382,1.945,8.432,8.432,0,0,1-5.6-2.165,8.018,8.018,0,0,1-1.194.093,7.965,7.965,0,0,1-5.382-2.136c-.094,0-.189.006-.282.006a7.448,7.448,0,0,1-7.448-7.377l-.056-8.484c-.038-5.575-.038-5.575-.018-6.183l.013-.459a22.971,22.971,0,0,1,6.1-15.45l1.7-38.645a285.44,285.44,0,0,1,12.959-73.345l14.622-46.322a13.024,13.024,0,0,1,2.611-5.263l.078-.093s.415-.444.513-.545.179-.194.264-.276c.2-.193.388-.365.582-.535.137-.122.24-.211.346-.3.143-.116.3-.236.464-.352l.093-.068c.143-.106.288-.21.437-.308l.072-.046c6.225-4.506,16.785-7.371,22.073-8.357a150.083,150.083,0,0,1,16.407-2.025v-9.93c-8.76-5.056-15.841-13.479-20.284-24.14-5-1.781-8.314-8.364-9.486-14.9-1.134-6.312-.28-12.016,2.169-15.509-1.06-9.318-1.376-21.166,2.235-28.72,4.478-9.369,10.81-12.556,14.782-13.636,3.08-8.707,11.868-15.559,20.636-15.559,13.1,0,20.327,4.216,27.315,8.293.9.526,1.817,1.06,2.758,1.593,15.9,9.007,23.169,16.253,25.072,25.011,1.215,5.581.086,17.159-.6,22.9,2.515,3.476,3.4,9.216,2.247,15.628-1.17,6.518-4.468,13.085-9.452,14.884-4.447,10.68-11.54,19.115-20.319,24.171v9.911a150.058,150.058,0,0,1,16.407,2.025c5.223.974,15.663,3.8,21.909,8.236.1.063.192.118.279.175.14.092.291.2.441.313.232.168.4.291.558.422.094.076.2.168.306.263.248.217.43.381.6.555.083.082.163.166.242.253.188.2.387.41.575.638.083.1.146.181.209.264.173.22.351.455.519.7.077.112.144.22.21.329.158.249.3.473.423.705.079.142.162.309.241.478l.054.11c.084.168.165.336.24.51.05.115.1.258.156.4q.251.637.428,1.251l14.793,46.858A285.461,285.461,0,0,1-98.234,279.8l1.7,38.645a22.974,22.974,0,0,1,6.1,15.45l.013.459c.019.6.019.6-.018,6.065l-.056,8.6a7.443,7.443,0,0,1-7.422,7.377c-.1,0-.2,0-.3-.007a7.914,7.914,0,0,1-5.351,2.137,8.262,8.262,0,0,1-1.222-.1,8.4,8.4,0,0,1-5.576,2.166,8.394,8.394,0,0,1-5.4-1.942,7.881,7.881,0,0,1-1.571.166,7.939,7.939,0,0,1-7.941-7.871s-.014-.745-.035-1.664a8,8,0,0,1-2.353-2.014c-3.129-3.931-2.387-9.884-1.665-13.082a36.215,36.215,0,0,1,7.71-14.952l-1.687-38.337a260.281,260.281,0,0,0-11.818-66.889l-4.536-14.366c-2.129,8.443-4.16,16.272-6.035,23.5q-1.261,4.861-2.4,9.281a94.283,94.283,0,0,0,1.964,53.626c2.268,6.691,2.577,11.7,2.53,26.7a67.657,67.657,0,0,1-.695,12.71l5.285,240.579a29.862,29.862,0,0,1,2.359,3.63,45.185,45.185,0,0,0,6.288,9.4A16.379,16.379,0,0,0-128,580.9c2.679,1.848,6.727,4.641,6.727,10.028A10.544,10.544,0,0,1-131.8,601.468Z" transform="translate(286.213 -19.579)" fill="#a2e0f2"/>
    </g>
    <g id="Bone" transform="translate(-280.565 118.109)">
      <path id="Path_135893" data-name="Path 135893" d="M-184.917,178.53a13.516,13.516,0,0,0-3.744.382c-6.778,1.557-13.3,7.9-16.6,14.06a46.369,46.369,0,0,0-4.024,11.647c-1.493,6.407-.606,13.607-.435,20.174.138,5.418.216,13.826,6.394,15.413,3.726.957,8.435.232,12.3.232,5.242,0,10.427,1.943,14.038-3.925,2.32-3.771,1.971-8.972,1.058-13.11-.918-4.177-.849-8.164-.849-12.462v-18.19C-176.782,185.4-178.406,178.879-184.917,178.53Z" transform="translate(268.568 -143.173)" fill="#ef847f"/>
      <path id="Path_135894" data-name="Path 135894" d="M-162.789,178.514c15.541,0,24.741,19.016,24.741,30.368V233.9a6.374,6.374,0,0,1-6.193,6.54h-13.2c-7.446,0-13.48-6.375-13.48-14.237V192.751C-170.925,184.889-170.235,178.514-162.789,178.514Z" transform="translate(262.385 -143.173)" fill="#ef847f"/>
      <path id="Path_135895" data-name="Path 135895" d="M-148.3,218.816c-3.718,7.13-10.182,12.753-15.955,7.372-4.937-4.6-4.547-13.926-2.882-20.628,1.674-6.742,7.08-8.62,12.336-7.165,5.039,1.4,9.7,4,9.581,10.042A25.15,25.15,0,0,1-148.3,218.816Z" transform="translate(261.965 -146.235)" fill="#146ab4"/>
      <path id="Path_135896" data-name="Path 135896" d="M-154.66,214.982c-2.219,8.2-8,15.658-16.123,11.853-6.944-3.254-9.142-12.736-9.146-19.938,0-7.247,5.635-10.639,12.049-10.639,6.148,0,12.215,1.326,13.791,7.431C-153.284,206.81-153.58,210.993-154.66,214.982Z" transform="translate(263.805 -145.971)" fill="#e40019"/>
      <path id="Path_135897" data-name="Path 135897" d="M-145.646,340.679a9.313,9.313,0,0,0-9.312-9.312,9.305,9.305,0,0,0-6.355,2.509c-3.191,3.064-6.145,2.44-7.919,2.44h-14.3c-1.774,0-4.726.624-7.919-2.44a9.3,9.3,0,0,0-6.354-2.509,9.314,9.314,0,0,0-9.313,9.312,9.267,9.267,0,0,0,1.052,4.289c2.869,5.541,2.767,6.089,2.081,10.43a7.469,7.469,0,0,0-.081,1.025,6.555,6.555,0,0,0,6.556,6.556,6.525,6.525,0,0,0,4.522-1.818,6.072,6.072,0,0,0,.627-.688c4.684-5.093,6.765-4.49,8.828-4.49h14.3c2.064,0,4.144-.6,8.827,4.49a6.5,6.5,0,0,0,.627.688,6.527,6.527,0,0,0,4.522,1.818,6.557,6.557,0,0,0,6.558-6.556,7.6,7.6,0,0,0-.081-1.025c-.686-4.341-.788-4.89,2.081-10.43A9.277,9.277,0,0,0-145.646,340.679Z" transform="translate(268.092 -167.277)" fill="#fff"/>
      <path id="Path_135898" data-name="Path 135898" d="M-195.155,315.44a5.136,5.136,0,0,0-5.135,5.136,5.136,5.136,0,0,0,5.135,5.136,5.137,5.137,0,0,0,5.136-5.136A5.137,5.137,0,0,0-195.155,315.44Z" transform="translate(267.016 -164.765)" fill="#fff"/>
      <path id="Path_135899" data-name="Path 135899" d="M-148.019,315.44a5.134,5.134,0,0,0-5.133,5.136,5.134,5.134,0,0,0,5.133,5.136,5.136,5.136,0,0,0,5.136-5.136A5.136,5.136,0,0,0-148.019,315.44Z" transform="translate(259.582 -164.765)" fill="#fff"/>
      <path id="Path_135900" data-name="Path 135900" d="M-85.55,342.7a1.2,1.2,0,0,1-.314-.019,1.262,1.262,0,0,1-.98-1.472c5.085-27.515.815-45.806-1.478-55.633-1.957-8.379-5.957-15.452-9.825-22.293-4.175-7.383-8.493-15.017-10.424-24.44-1.273-6.229-2-12.774-2.709-19.106-1.255-11.273-2.556-22.928-6.975-32.986-1.19-2.708-4.282-4.388-8.271-4.492a17.715,17.715,0,0,0-16.043,9.718c-.28.564-.654,1.308-1.092,2.173-1.7,3.373-7.866,13.45-8.357,15.9a1.277,1.277,0,0,1,.316.626,1.253,1.253,0,0,1-.971,1.472,1.488,1.488,0,0,1-1.517-.574c-.87-1.189,1.3-4.64,8.344-18.58.433-.857.805-1.594,1.082-2.153a20.2,20.2,0,0,1,18.295-11.091c4.96.128,8.869,2.365,10.458,5.98,4.577,10.416,5.9,22.27,7.176,33.734.7,6.274,1.423,12.762,2.673,18.875,1.85,9.027,6.065,16.484,10.145,23.695,3.956,7,8.048,14.232,10.088,22.969,2.337,10.01,6.685,28.642,1.5,56.685A1.233,1.233,0,0,1-85.55,342.7Z" transform="translate(259.775 -143.365)" fill="#e40019"/>
      <g id="Group_15724" data-name="Group 15724" transform="translate(53.809 30.89)">
        <path id="Path_135901" data-name="Path 135901" d="M-182.327,173.229c-.777,0-19.17.033-30.556,2.926a3.821,3.821,0,0,0-2.3,1.544,2.5,2.5,0,0,0-.243,2.373,3.976,3.976,0,0,0,3.767,2.155,4.961,4.961,0,0,0,1.22-.152c10.211-2.6,27.942-2.625,28.12-2.625,2.183,0,3.961-1.4,3.961-3.111S-180.144,173.229-182.327,173.229Z" transform="translate(215.625 -173.229)" fill="#fff"/>
        <path id="Path_135902" data-name="Path 135902" d="M-133.038,177.7a3.824,3.824,0,0,0-2.307-1.544c-11.385-2.893-29.778-2.926-30.555-2.926-2.184,0-3.961,1.395-3.961,3.111s1.776,3.111,3.961,3.111c.178,0,17.908.029,28.116,2.624a4.952,4.952,0,0,0,1.222.152,3.978,3.978,0,0,0,3.768-2.155A2.5,2.5,0,0,0-133.038,177.7Z" transform="translate(208.408 -173.229)" fill="#fff"/>
      </g>
      <path id="Path_135903" data-name="Path 135903" d="M-143.9,210.394a3.309,3.309,0,0,0-2.063-1.445,3.391,3.391,0,0,0-4.03,2.3c-.3.991-1.627,4.157-6.464,4.157-8.442,0-13.782-3.3-16.214-5.265l-.23-.185-.062-.28a3.132,3.132,0,0,0-1.247-1.885,3.459,3.459,0,0,0-2.374-.606l-.1.01-.1-.01a3.461,3.461,0,0,0-2.374.606,3.136,3.136,0,0,0-1.247,1.885l-.063.28-.229.185c-2.432,1.966-7.772,5.265-16.214,5.265-4.837,0-6.167-3.165-6.458-4.135a3.324,3.324,0,0,0-3.233-2.414,3.547,3.547,0,0,0-.8.093,3.314,3.314,0,0,0-2.065,1.445,3.051,3.051,0,0,0-.39,2.416c.8,3.107,4.523,8.983,12.949,8.983a32.318,32.318,0,0,0,19.683-6.127l.542-.4.543.4a32.316,32.316,0,0,0,19.683,6.127c8.425,0,12.154-5.876,12.947-8.983A3.048,3.048,0,0,0-143.9,210.394Z" transform="translate(268.54 -147.69)" fill="#fff"/>
      <path id="Path_135904" data-name="Path 135904" d="M-85.564,329.86a1.253,1.253,0,0,1-.964-.345c-2.1-2-5.6-11-6.155-17.124-.967-10.658-.671-13.524-.182-18.275.313-3.031.7-6.8.886-13.966.587-22.934-4.258-38.756-15.25-49.793-11.259-11.307-10.429-17.773-9.055-28.488.377-2.943.805-6.28,1.046-10.172a9.85,9.85,0,0,0-4.753-9.173c-5.093-3.287-12.673-3.141-19.31.37-5.859,3.1-9.846,8.534-11.852,16.151-.206.786-.514,1.977-1.748,1.715a1.262,1.262,0,0,1-.975-1.5,1.246,1.246,0,0,1,.152-.389c.035-.113.073-.273.126-.472,2.193-8.327,6.605-14.295,13.115-17.741,7.431-3.934,16.012-4.033,21.861-.259a12.434,12.434,0,0,1,5.905,11.451c-.247,3.975-.68,7.355-1.064,10.337-1.362,10.622-2.045,15.955,8.341,26.384,11.512,11.56,16.591,27.97,15.984,51.642-.186,7.261-.581,11.086-.9,14.16-.475,4.6-.761,7.373.184,17.785.534,5.886,4.021,14.233,5.379,15.522a1.266,1.266,0,0,1,.045,1.787A1.262,1.262,0,0,1-85.564,329.86Z" transform="translate(259.701 -143.035)" fill="#146ab4"/>
      <path id="Path_135905" data-name="Path 135905" d="M-147.461,190.147a3.581,3.581,0,0,0-4.228,2.3c-.314.991-1.711,4.156-6.785,4.156a28.519,28.519,0,0,1-14.821-3.77c-1.484-.1-2.973-.155-4.449-.382a.764.764,0,0,1-.227-.085l-.769.03a28.152,28.152,0,0,1-15.53,4.206c-5.073,0-6.47-3.165-6.777-4.135a3.467,3.467,0,0,0-3.392-2.414,3.905,3.905,0,0,0-.842.093,3.2,3.2,0,0,0-2.577,3.861c.835,3.106,4.746,8.982,13.588,8.982a36.349,36.349,0,0,0,17.428-4.139l.47-.254.472.254a36.342,36.342,0,0,0,17.426,4.139c8.843,0,12.755-5.876,13.587-8.982A3.194,3.194,0,0,0-147.461,190.147Z" transform="translate(268.225 -144.992)" fill="#fff"/>
      <path id="Path_135906" data-name="Path 135906" d="M-145.91,246.62a3.175,3.175,0,0,0-1.971-1.445,3.223,3.223,0,0,0-3.85,2.3c-.284.992-1.556,4.157-6.176,4.157a24.462,24.462,0,0,1-13.344-3.7l-.467-.3.089-.546a3.177,3.177,0,0,0-1.22-3.074,3.213,3.213,0,0,0-3.066-.41l-.3.118-.3-.118a3.216,3.216,0,0,0-3.069.41,3.18,3.18,0,0,0-1.22,3.074l.089.546-.466.3a24.467,24.467,0,0,1-13.345,3.7c-4.619,0-5.891-3.165-6.171-4.136a3.2,3.2,0,0,0-3.088-2.413,3.2,3.2,0,0,0-.766.093,3.177,3.177,0,0,0-1.973,1.445,3.17,3.17,0,0,0-.373,2.416,12.373,12.373,0,0,0,12.371,8.983,30.366,30.366,0,0,0,17.825-5.4l.487-.347.489.347a30.357,30.357,0,0,0,17.824,5.4,12.37,12.37,0,0,0,12.37-8.983A3.17,3.17,0,0,0-145.91,246.62Z" transform="translate(268.073 -153.403)" fill="#fff"/>
      <path id="Path_135907" data-name="Path 135907" d="M-144.21,228.507a3.093,3.093,0,0,0-1.916-1.444,3.122,3.122,0,0,0-3.742,2.3c-.278.991-1.512,4.156-6,4.156-11.45,0-16.673-6.9-16.724-6.968a3.037,3.037,0,0,0-2.477-1.274,3.04,3.04,0,0,0-1.219.254l-.319.14-.319-.14a3.038,3.038,0,0,0-1.219-.254,3.036,3.036,0,0,0-2.473,1.269c-.054.075-5.277,6.973-16.727,6.973-4.49,0-5.725-3.165-6-4.135a3.125,3.125,0,0,0-3-2.413,3.07,3.07,0,0,0-.744.093,3.1,3.1,0,0,0-1.918,1.445,3.248,3.248,0,0,0-.361,2.417,12.094,12.094,0,0,0,12.021,8.982c10.71,0,17.234-4.9,20.17-7.816l.569-.566.569.566c2.935,2.919,9.459,7.816,20.17,7.816a12.1,12.1,0,0,0,12.021-8.982A3.264,3.264,0,0,0-144.21,228.507Z" transform="translate(268.461 -150.546)" fill="#fff"/>
      <path id="Path_135908" data-name="Path 135908" d="M-94.7,259.767a2.919,2.919,0,0,1,.333-.068l-16.362-53.962a2.71,2.71,0,0,1-.307.149c-1.806.613-3.893-.724-4.66-2.986s.074-4.6,1.879-5.21a3.142,3.142,0,0,1,2.72.416c.965.62,1.526.429,1.915-.649a3.149,3.149,0,0,1,1.9-1.985c1.807-.613,3.892.726,4.661,2.99s-.073,4.592-1.879,5.206a2.871,2.871,0,0,1-.334.068L-88.47,257.7a2.47,2.47,0,0,1,.307-.149c1.8-.613,3.891.725,4.658,2.989s-.072,4.595-1.878,5.205a3.134,3.134,0,0,1-2.719-.414c-.964-.619-1.527-.429-1.916.649a3.132,3.132,0,0,1-1.906,1.984c-1.805.613-3.891-.724-4.658-2.987S-96.509,260.378-94.7,259.767Z" transform="translate(253.721 -145.823)" fill="#fff"/>
      <path id="Path_135909" data-name="Path 135909" d="M-82.429,347.4a3.043,3.043,0,0,1,.34.007l-4.226-56.23a2.566,2.566,0,0,1-.332.078c-1.9.206-3.641-1.554-3.9-3.928s1.072-4.47,2.968-4.676a3.136,3.136,0,0,1,2.563,1c.808.815,1.4.75,2.011-.217a3.147,3.147,0,0,1,2.29-1.524c1.9-.2,3.642,1.556,3.9,3.933s-1.072,4.467-2.967,4.673a2.881,2.881,0,0,1-.342-.007l4.227,56.231a2.4,2.4,0,0,1,.334-.078c1.894-.206,3.64,1.555,3.9,3.931s-1.071,4.468-2.967,4.672a3.135,3.135,0,0,1-2.563-1c-.807-.814-1.4-.751-2.011.216A3.137,3.137,0,0,1-81.5,356c-1.9.206-3.64-1.554-3.9-3.93S-84.324,347.6-82.429,347.4Z" transform="translate(249.714 -159.474)" fill="#fff"/>
      <path id="Path_135910" data-name="Path 135910" d="M-117.476,187.514a4.212,4.212,0,0,0,4.246,4.178,4.211,4.211,0,0,0,4.177-4.247,4.211,4.211,0,0,0-4.244-4.176A4.212,4.212,0,0,0-117.476,187.514Z" transform="translate(253.956 -143.922)" fill="#fff"/>
      <path id="Path_135911" data-name="Path 135911" d="M-83.147,377.545a3.617,3.617,0,0,0,3.618,3.618h4.6a3.619,3.619,0,0,0,3.619-3.618h0a3.618,3.618,0,0,0-3.619-3.618h-4.6a3.617,3.617,0,0,0-3.618,3.618Z" transform="translate(248.543 -173.988)" fill="#fff"/>
      <path id="Path_135912" data-name="Path 135912" d="M-89.267,391.825c0,3.733,4.01,6.759,8.96,6.759h3.958c4.949,0,8.964-3.026,8.964-6.759h0c0-3.731-4.014-6.757-8.964-6.757h-3.958c-4.949,0-8.96,3.026-8.96,6.757Z" transform="translate(249.508 -175.745)" fill="#fff"/>
      <path id="Path_135914" data-name="Path 135914" d="M-88.44,409.888a2.622,2.622,0,0,0,2.129,2.775h0a2.173,2.173,0,0,0,2.359-2.214l.274-5.959a2.626,2.626,0,0,0-2.13-2.776h0a2.173,2.173,0,0,0-2.358,2.217Z" transform="translate(249.378 -178.367)" fill="#fff"/>
      <path id="Path_135915" data-name="Path 135915" d="M-80.468,411.549a2.737,2.737,0,0,0,2.327,2.744h0a2.178,2.178,0,0,0,2.2-2.425L-76.1,405.7a2.741,2.741,0,0,0-2.327-2.746h0a2.178,2.178,0,0,0-2.2,2.427Z" transform="translate(248.145 -178.564)" fill="#fff"/>
      <path id="Path_135916" data-name="Path 135916" d="M-72.342,410.976a2.329,2.329,0,0,0,2.475,2.075h0a2.176,2.176,0,0,0,2-2.417l-.564-5.362A2.331,2.331,0,0,0-70.9,403.2h0a2.175,2.175,0,0,0-2,2.417Z" transform="translate(246.93 -178.603)" fill="#fff"/>
      <path id="Path_135917" data-name="Path 135917" d="M-65.719,407.537a2.328,2.328,0,0,0,2.475,2.075h0a2.175,2.175,0,0,0,2-2.416l-.564-5.362a2.332,2.332,0,0,0-2.475-2.076h0a2.175,2.175,0,0,0-2,2.418Z" transform="translate(245.885 -178.06)" fill="#fff"/>
      <path id="Path_135918" data-name="Path 135918" d="M-146.607,264.733a3.083,3.083,0,0,0-1.915-1.444,3.122,3.122,0,0,0-3.74,2.3c-.278.992-1.514,4.158-6,4.158a23.282,23.282,0,0,1-12.966-3.7l-.452-.3.086-.547a3.223,3.223,0,0,0-1.185-3.074,3.052,3.052,0,0,0-2.98-.411l-.3.118-.294-.118a3.051,3.051,0,0,0-2.981.411,3.223,3.223,0,0,0-1.185,3.074l.088.547-.454.3a23.28,23.28,0,0,1-12.966,3.7c-4.489,0-5.724-3.165-6-4.137a3.123,3.123,0,0,0-3-2.413,2.989,2.989,0,0,0-.745.094,3.093,3.093,0,0,0-1.917,1.444,3.252,3.252,0,0,0-.361,2.417,12.093,12.093,0,0,0,12.019,8.983,28.933,28.933,0,0,0,17.319-5.4l.473-.347.474.347a28.929,28.929,0,0,0,17.319,5.4,12.1,12.1,0,0,0,12.02-8.983A3.256,3.256,0,0,0-146.607,264.733Z" transform="translate(267.909 -156.259)" fill="#fff"/>
      <path id="Path_135919" data-name="Path 135919" d="M-165.929,166.72a2.381,2.381,0,0,1-2.527,2.2h-6.72a2.381,2.381,0,0,1-2.527-2.2v-2.7a2.381,2.381,0,0,1,2.527-2.2h6.72a2.381,2.381,0,0,1,2.527,2.2Z" transform="translate(263.454 -140.539)" fill="#fff"/>
      <path id="Path_135920" data-name="Path 135920" d="M-165.929,156.138a2.381,2.381,0,0,1-2.527,2.2h-6.72a2.381,2.381,0,0,1-2.527-2.2v-2.7a2.381,2.381,0,0,1,2.527-2.2h6.72a2.381,2.381,0,0,1,2.527,2.2Z" transform="translate(263.454 -138.871)" fill="#fff"/>
      <path id="Path_135921" data-name="Path 135921" d="M-165.929,181.356c0,2.035-1.132,3.685-2.527,3.685h-6.72c-1.4,0-2.527-1.65-2.527-3.685v-4.527c0-2.035,1.131-3.685,2.527-3.685h6.72c1.395,0,2.527,1.65,2.527,3.685Z" transform="translate(263.454 -142.326)" fill="#fff"/>
      <path id="Path_135922" data-name="Path 135922" d="M-165.929,278.208a2.381,2.381,0,0,1-2.527,2.2h-6.72a2.381,2.381,0,0,1-2.527-2.2v-2.7a2.381,2.381,0,0,1,2.527-2.2h6.72a2.381,2.381,0,0,1,2.527,2.2Z" transform="translate(263.454 -158.12)" fill="#fff"/>
      <path id="Path_135923" data-name="Path 135923" d="M-165.929,290.065a2.381,2.381,0,0,1-2.527,2.2h-6.72a2.381,2.381,0,0,1-2.527-2.2v-2.7a2.381,2.381,0,0,1,2.527-2.2h6.72a2.381,2.381,0,0,1,2.527,2.2Z" transform="translate(263.454 -159.99)" fill="#fff"/>
      <path id="Path_135924" data-name="Path 135924" d="M-165.929,301.921a2.381,2.381,0,0,1-2.527,2.2h-6.72a2.381,2.381,0,0,1-2.527-2.2v-2.7a2.381,2.381,0,0,1,2.527-2.2h6.72a2.381,2.381,0,0,1,2.527,2.2Z" transform="translate(263.454 -161.86)" fill="#fff"/>
      <path id="Path_135925" data-name="Path 135925" d="M-165.929,313.778a2.381,2.381,0,0,1-2.527,2.2h-6.72a2.381,2.381,0,0,1-2.527-2.2v-2.7a2.381,2.381,0,0,1,2.527-2.2h6.72a2.381,2.381,0,0,1,2.527,2.2Z" transform="translate(263.454 -163.729)" fill="#fff"/>
      <path id="Path_135926" data-name="Path 135926" d="M-165.929,324.105a2.381,2.381,0,0,1-2.527,2.2h-6.72a2.381,2.381,0,0,1-2.527-2.2v-2.7a2.381,2.381,0,0,1,2.527-2.2h6.72a2.381,2.381,0,0,1,2.527,2.2Z" transform="translate(263.454 -165.358)" fill="#fff"/>
      <path id="Path_135927" data-name="Path 135927" d="M-165.929,193.8a2.513,2.513,0,0,0-2.527-2.5h-6.72a2.513,2.513,0,0,0-2.527,2.5v68.764a2.513,2.513,0,0,0,2.527,2.5h6.72a2.513,2.513,0,0,0,2.527-2.5Z" transform="translate(263.454 -145.189)" fill="#fff"/>
      <g id="Group_15725" data-name="Group 15725" transform="translate(32.346 199.797)">
        <path id="Path_135928" data-name="Path 135928" d="M-205.374,478.685a3.844,3.844,0,0,0-.432.039l2.974-96.123a4.257,4.257,0,0,0,.432.046,4.413,4.413,0,0,0,4.455-4.372,4.416,4.416,0,0,0-4.384-4.446,4.4,4.4,0,0,0-3.136,1.268,1.566,1.566,0,0,1-2.588-.02,4.409,4.409,0,0,0-3.116-1.316,4.415,4.415,0,0,0-4.454,4.377,4.412,4.412,0,0,0,4.384,4.442,3.92,3.92,0,0,0,.434-.041l-2.976,96.124c-.143-.014-.285-.045-.432-.047a4.414,4.414,0,0,0-4.454,4.376,4.416,4.416,0,0,0,4.384,4.444,4.411,4.411,0,0,0,3.137-1.269,1.566,1.566,0,0,1,2.588.021,4.4,4.4,0,0,0,3.114,1.317,4.414,4.414,0,0,0,4.453-4.374A4.41,4.41,0,0,0-205.374,478.685Z" transform="translate(237.568 -373.759)" fill="#fff"/>
        <path id="Path_135929" data-name="Path 135929" d="M-209.135,651.079a3.851,3.851,0,0,0-.432.039l2.974-112.969a4.274,4.274,0,0,0,.432.045,4.413,4.413,0,0,0,4.455-4.372,4.417,4.417,0,0,0-4.384-4.446,4.4,4.4,0,0,0-3.136,1.268,1.566,1.566,0,0,1-2.588-.02,4.409,4.409,0,0,0-3.116-1.317,4.415,4.415,0,0,0-4.454,4.377A4.413,4.413,0,0,0-215,538.126a3.921,3.921,0,0,0,.434-.041l-2.976,112.97c-.142-.014-.285-.045-.432-.047a4.415,4.415,0,0,0-4.454,4.376,4.416,4.416,0,0,0,4.384,4.444,4.409,4.409,0,0,0,3.137-1.269,1.565,1.565,0,0,1,2.588.021A4.4,4.4,0,0,0-209.2,659.9a4.415,4.415,0,0,0,4.454-4.374A4.411,4.411,0,0,0-209.135,651.079Z" transform="translate(238.161 -398.288)" fill="#fff"/>
        <path id="Path_135930" data-name="Path 135930" d="M-203.872,518.138a5.229,5.229,0,0,1-5.278,5.18,5.228,5.228,0,0,1-5.192-5.266,5.226,5.226,0,0,1,5.276-5.177A5.229,5.229,0,0,1-203.872,518.138Z" transform="translate(236.886 -395.697)" fill="#fff"/>
        <path id="Path_135931" data-name="Path 135931" d="M-214.817,691.877c0-2.807,1.915-5.082,4.28-5.082h6.317c2.363,0,4.28,2.274,4.28,5.082s-1.917,5.082-4.28,5.082h-6.317C-212.9,696.958-214.817,694.683-214.817,691.877Z" transform="translate(236.96 -423.123)" fill="#fff"/>
        <path id="Path_135932" data-name="Path 135932" d="M-236.168,696.968a2.469,2.469,0,0,1-2.468,2.469,2.47,2.47,0,0,1-2.47-2.469,2.469,2.469,0,0,1,2.47-2.469A2.469,2.469,0,0,1-236.168,696.968Z" transform="translate(241.106 -424.338)" fill="#fff"/>
        <path id="Path_135933" data-name="Path 135933" d="M-220.556,693.95a2.963,2.963,0,0,1-2.2,3.812l-5.332,1a3.542,3.542,0,0,1-3.918-2.668,2.961,2.961,0,0,1,2.2-3.812l5.33-1A3.541,3.541,0,0,1-220.556,693.95Z" transform="translate(239.691 -423.823)" fill="#fff"/>
      </g>
      <g id="Group_15726" data-name="Group 15726" transform="translate(0 39.184)">
        <path id="Path_135934" data-name="Path 135934" d="M-251.525,259.574a2.927,2.927,0,0,0-.334-.068l16.362-53.962a2.654,2.654,0,0,0,.307.149c1.805.613,3.892-.724,4.66-2.986s-.073-4.6-1.879-5.211a3.14,3.14,0,0,0-2.719.416c-.965.62-1.527.429-1.915-.649a3.153,3.153,0,0,0-1.9-1.985c-1.807-.613-3.893.726-4.662,2.99s.074,4.592,1.879,5.206a2.92,2.92,0,0,0,.335.068L-257.758,257.5a2.479,2.479,0,0,0-.308-.149c-1.8-.613-3.891.725-4.657,2.989s.072,4.595,1.878,5.205a3.136,3.136,0,0,0,2.72-.414c.964-.619,1.526-.429,1.915.649a3.132,3.132,0,0,0,1.906,1.984c1.806.613,3.891-.724,4.659-2.987S-249.719,260.185-251.525,259.574Z" transform="translate(276.906 -184.976)" fill="#fff"/>
        <path id="Path_135935" data-name="Path 135935" d="M-261.212,347.2a3.039,3.039,0,0,0-.339.007l4.225-56.23a2.6,2.6,0,0,0,.332.078c1.9.206,3.642-1.554,3.9-3.928s-1.071-4.47-2.967-4.676a3.138,3.138,0,0,0-2.564,1c-.807.815-1.4.75-2.01-.217a3.148,3.148,0,0,0-2.291-1.524c-1.9-.2-3.641,1.556-3.9,3.933s1.071,4.467,2.967,4.673a2.889,2.889,0,0,0,.341-.007l-4.227,56.231a2.4,2.4,0,0,0-.333-.078c-1.9-.206-3.64,1.555-3.9,3.931s1.071,4.468,2.966,4.672a3.137,3.137,0,0,0,2.564-1c.806-.814,1.4-.751,2.011.216a3.136,3.136,0,0,0,2.292,1.523c1.9.206,3.64-1.554,3.9-3.93S-259.316,347.409-261.212,347.2Z" transform="translate(278.325 -198.628)" fill="#fff"/>
        <path id="Path_135936" data-name="Path 135936" d="M-224.195,187.321a4.213,4.213,0,0,1-4.246,4.178,4.211,4.211,0,0,1-4.177-4.247,4.21,4.21,0,0,1,4.244-4.176A4.213,4.213,0,0,1-224.195,187.321Z" transform="translate(272.114 -183.076)" fill="#fff"/>
        <path id="Path_135937" data-name="Path 135937" d="M-259.165,377.352a3.616,3.616,0,0,1-3.618,3.617h-4.6a3.618,3.618,0,0,1-3.619-3.617h0a3.618,3.618,0,0,1,3.619-3.618h4.6a3.617,3.617,0,0,1,3.618,3.618Z" transform="translate(278.167 -213.141)" fill="#fff"/>
        <path id="Path_135938" data-name="Path 135938" d="M-254.925,391.632c0,3.733-4.009,6.759-8.96,6.759h-3.957c-4.949,0-8.965-3.026-8.965-6.759h0c0-3.731,4.015-6.758,8.965-6.758h3.957c4.95,0,8.96,3.026,8.96,6.758Z" transform="translate(279.082 -214.898)" fill="#fff"/>
        <path id="Path_135939" data-name="Path 135939" d="M-252.547,409.695a2.623,2.623,0,0,1-2.13,2.775h0a2.174,2.174,0,0,1-2.359-2.214l-.274-5.959a2.626,2.626,0,0,1,2.13-2.776h0a2.175,2.175,0,0,1,2.359,2.217Z" transform="translate(276.008 -217.521)" fill="#fff"/>
        <path id="Path_135940" data-name="Path 135940" d="M-260.5,411.356a2.738,2.738,0,0,1-2.328,2.744h0a2.179,2.179,0,0,1-2.2-2.425l.153-6.172a2.741,2.741,0,0,1,2.327-2.746h0a2.178,2.178,0,0,1,2.2,2.427Z" transform="translate(277.225 -217.718)" fill="#fff"/>
        <path id="Path_135941" data-name="Path 135941" d="M-268.4,410.783a2.33,2.33,0,0,1-2.475,2.075h0a2.176,2.176,0,0,1-2-2.417l.564-5.362A2.332,2.332,0,0,1-269.834,403h0a2.176,2.176,0,0,1,2,2.418Z" transform="translate(278.463 -217.756)" fill="#fff"/>
        <path id="Path_135942" data-name="Path 135942" d="M-275.018,407.344a2.329,2.329,0,0,1-2.475,2.075h0a2.175,2.175,0,0,1-2-2.416l.564-5.362a2.332,2.332,0,0,1,2.475-2.076h0a2.175,2.175,0,0,1,2,2.418Z" transform="translate(279.508 -217.214)" fill="#fff"/>
      </g>
      <rect id="Rectangle_4532" data-name="Rectangle 4532" width="2.094" height="3.171" transform="translate(85.751)" fill="#96999c"/>
    </g>
    <g id="Muscles" transform="translate(-223.471 255.228)">
      <path id="Path_135943" data-name="Path 135943" d="M-137.285,660.816c.531,0,1.064-.761,2.244-2.63,6.17-9.771,12.808-11.7,12.875-11.717a.615.615,0,0,0,.343-.641c-.014-.345-1.36-35.453,2.244-120.134a.606.606,0,0,0-.354-.645c-.209-.057-.418.143-.473.448-.038.206-3.785,20.764-6.872,37.069-1.06,5.6-12.619,83.479-10.984,96.2.1.769.263,2.053.977,2.054Z" transform="translate(200.165 -334.937)" fill="#b92c29"/>
      <path id="Path_135944" data-name="Path 135944" d="M-133.517,557.811a23.2,23.2,0,0,0-1.226-8.522c-.23-.761-.5-1.64-.8-2.748-.6-2.181-1.084-3.934-1.5-5.442-1.518-5.479-2.147-7.747-4.072-15.676-.061-.248-.235-.421-.427-.393a.493.493,0,0,0-.387.464c-.065.455-.23,1.083-.438,1.878-1.167,4.458-3.9,14.9-2.268,42.933,1.081,18.532,1.43,35.28,1.686,47.509.366,17.568.5,20.389,1.539,20.389.222,0,.405-.233.42-.535.879-17.033,2.637-29.648,4.19-40.778C-135,583.929-133.435,572.735-133.517,557.811Z" transform="translate(201.226 -334.934)" fill="#eb4942"/>
      <path id="Path_135945" data-name="Path 135945" d="M-125.953,382.323a1.072,1.072,0,0,0-.841.57.469.469,0,0,0-.072.172c-.626,3.3-1.867,8.448-3.437,14.968-5.311,22.057-14.2,58.972-13.024,82.586a118.4,118.4,0,0,0,2.2,16.344.427.427,0,0,0,.38.338h.028a.42.42,0,0,0,.391-.281c2.765-7.477,6.308-11.768,8.364-13.8,2.2,2.7,4.83,5.865,5.294,6.423l.07.083a.4.4,0,0,0,.414.141.432.432,0,0,0,.31-.322c1.676-7.047,2.457-21.922,2.457-46.813,0-2.263.021-5.272.045-8.739.172-24.745.158-49.1-2-51.395A.785.785,0,0,0-125.953,382.323Z" transform="translate(200.956 -312.431)" fill="#b92c29"/>
      <path id="Path_135946" data-name="Path 135946" d="M-145.934,458.548h.029a.429.429,0,0,0,.388-.387c3.79-31.809,13.778-67.6,15.154-71.9a.455.455,0,0,0-.176-.517.41.41,0,0,0-.521.062c-3.212,3.348-8.712,6.382-16.817,9.275a.438.438,0,0,0-.281.355c-2.122,15.052-1.069,51.43,1.817,62.781A.425.425,0,0,0-145.934,458.548Z" transform="translate(201.877 -312.96)" fill="#eb4942"/>
      <path id="Path_135947" data-name="Path 135947" d="M-128.834,685.954c7.054,5.193,21.154,8.286,28.112,11.39C-102.384,696.6-119.7,679.338-128.834,685.954Z" transform="translate(198.653 -360.074)" fill="#eb4942"/>
      <path id="Path_135948" data-name="Path 135948" d="M-133.9,690.057c-2.795,1.522-7.232,5.791-7.769,8.175,3.9,0,30.045.8,32.713.793C-111.269,698.388-132.419,689.25-133.9,690.057Z" transform="translate(200.678 -360.951)" fill="#b92c29"/>
      <g id="Group_15727" data-name="Group 15727">
        <path id="Path_135949" data-name="Path 135949" d="M-192.6,318.519a2.5,2.5,0,0,1,0-.381c.123-1.648,1.926-2.692,2.847-3.9a9.514,9.514,0,0,0,.531-10.493,9.512,9.512,0,0,0-9.606-4.257,13.287,13.287,0,0,0-7.13,4.42,22.242,22.242,0,0,0-5.731,13.495,21.032,21.032,0,0,0,4.272,13.989,15.087,15.087,0,0,0,7.5,5.416,10,10,0,0,0,8.926-1.509,8.811,8.811,0,0,0,3.225-6.4,9.478,9.478,0,0,0-2.492-6.754c-.907-.988-2.235-2.177-2.346-3.626Z" transform="translate(211.725 -299.346)" fill="#eb4942"/>
        <path id="Path_135950" data-name="Path 135950" d="M-189.9,322.515c-.907-.988-2.235-2.177-2.346-3.626a2.5,2.5,0,0,1,0-.381c.123-1.648,1.926-2.692,2.847-3.9a9.511,9.511,0,0,0,.473-10.59c-2.771-4.372-9.628-2.161-9.628,3.015v9.724a10.267,10.267,0,0,1-10.267,10.267h0a.628.628,0,0,0-.576.88c1.958,4.225,5.464,8,9.839,9.274a10,10,0,0,0,8.926-1.509,8.811,8.811,0,0,0,3.225-6.4,9.477,9.477,0,0,0-2.492-6.754Z" transform="translate(211.366 -299.716)" fill="#b92c29"/>
        <path id="Path_135952" data-name="Path 135952" d="M-151.015,318.519a2.608,2.608,0,0,0,0-.381c-.124-1.648-1.926-2.692-2.848-3.9a9.515,9.515,0,0,1-.532-10.493,9.515,9.515,0,0,1,9.607-4.257,13.288,13.288,0,0,1,7.129,4.42,22.237,22.237,0,0,1,5.731,13.495A21.032,21.032,0,0,1-136.2,331.4a15.087,15.087,0,0,1-7.5,5.416,10,10,0,0,1-8.926-1.509,8.811,8.811,0,0,1-3.225-6.4,9.478,9.478,0,0,1,2.492-6.754c.907-.988,2.235-2.177,2.346-3.626Z" transform="translate(202.916 -299.346)" fill="#eb4942"/>
        <path id="Path_135953" data-name="Path 135953" d="M-131.926,318.106a22.237,22.237,0,0,0-5.731-13.495l-.037-.041a2.508,2.508,0,0,0-4.323,1.741v14.108a7.923,7.923,0,0,1-7.924,7.924h-5.869a8.794,8.794,0,0,0-.043,1.255,8.811,8.811,0,0,0,3.225,6.4,10,10,0,0,0,8.926,1.509,15.087,15.087,0,0,0,7.5-5.416,21.032,21.032,0,0,0,4.272-13.989Z" transform="translate(202.915 -300.045)" fill="#b92c29"/>
        <path id="Path_135955" data-name="Path 135955" d="M-177.483,372.585a2.907,2.907,0,0,1-2.908-2.908V328.646l-10.905-3.961a2.909,2.909,0,0,1-1.739-3.726,2.907,2.907,0,0,1,3.726-1.739l12.82,4.657a2.909,2.909,0,0,1,1.915,2.733v43.068a2.908,2.908,0,0,1-2.908,2.908Z" transform="translate(208.805 -302.452)" fill="#96999c"/>
        <path id="Path_135956" data-name="Path 135956" d="M-174.09,324.743l-.554-.2v32.222a3.345,3.345,0,0,1-3.346,3.346h0v10.312a2.978,2.978,0,0,0,1.959,2.881,2.918,2.918,0,0,0,3.856-2.758V327.477a2.909,2.909,0,0,0-1.915-2.733Z" transform="translate(206.405 -303.319)" fill="#818386"/>
        <path id="Path_135957" data-name="Path 135957" d="M-164.833,362.75a2.907,2.907,0,0,1-2.908-2.907V324.852a2.907,2.907,0,0,1,1.915-2.732l11.964-4.346a2.906,2.906,0,0,1,3.726,1.739,2.908,2.908,0,0,1-1.739,3.726l-10.05,3.651v32.954a2.907,2.907,0,0,1-2.908,2.907Z" transform="translate(204.789 -302.224)" fill="#96999c"/>
        <path id="Path_135958" data-name="Path 135958" d="M-150.34,319.074a3.014,3.014,0,0,0-3.666-1.243h0a15.274,15.274,0,0,0-10.058,14.355v18.068a3.677,3.677,0,0,1-3.678,3.677h0v5.761a3.016,3.016,0,0,0,2.419,3.023,2.909,2.909,0,0,0,3.4-2.867V326.9l10.05-3.651a2.911,2.911,0,0,0,1.536-4.171Z" transform="translate(204.789 -302.231)" fill="#818386"/>
      </g>
    </g>
    <g id="LungsandMuscles" transform="translate(-223.142 32.908)">
      <g id="Group_15728" data-name="Group 15728" transform="translate(0 3.549)">
        <path id="Path_135959" data-name="Path 135959" d="M-141.71,72.623c-.6-20.477-15.479-33.006-33.747-33.006h-2.088c-18.268,0-33.145,12.528-33.747,33.006a126.9,126.9,0,0,0,1.763,23.889c1.249,7.3,6.06,12.649,13.094,12.649h4.717a3.712,3.712,0,0,1,3.711,3.712h0a3.514,3.514,0,0,0,3.163,3.6H-168.5a3.372,3.372,0,0,0,3.522-3.4v-.193a3.712,3.712,0,0,1,3.712-3.712h4.7c7.033,0,11.844-5.354,13.094-12.649A126.9,126.9,0,0,0-141.71,72.623Z" transform="translate(211.334 -39.617)" fill="#fff"/>
        <path id="Path_135960" data-name="Path 135960" d="M-153.271,124.883h-4.01a1.393,1.393,0,0,0-1.393,1.393V130.1a5.3,5.3,0,0,1-3.621,5.246c-1.108.291-1.03-.238-1.03-.238,0-1.7-1.275-2.205-2.976-2.294H-182.08c-1.7.089-2.977.591-2.977,2.294,0,0,.077.528-1.03.238a5.3,5.3,0,0,1-3.621-5.246v-3.822a1.393,1.393,0,0,0-1.393-1.393h-4.009a1.393,1.393,0,0,0-1.393,1.393v3.747a12.72,12.72,0,0,0,12.72,12.72H-164.6a12.72,12.72,0,0,0,12.72-12.72v-3.747A1.393,1.393,0,0,0-153.271,124.883Z" transform="translate(208.996 -53.063)" fill="#fff"/>
      </g>
      <path id="Rectangle_4533" data-name="Rectangle 4533" d="M0,0H17.555A18.008,18.008,0,0,1,35.562,18.008v7.7a0,0,0,0,1,0,0H0a0,0,0,0,1,0,0V0A0,0,0,0,1,0,0Z" transform="translate(35.388 2.292)" fill="#9be1f3"/>
      <g id="Group_15732" data-name="Group 15732" transform="translate(35.388)">
        <g id="Group_15731" data-name="Group 15731" clip-path="url(#clip-path)">
          <g id="Group_15730" data-name="Group 15730" transform="translate(-33.156 8.183)">
            <path id="Path_135961" data-name="Path 135961" d="M-143.971,67.107s.287-4.12-1.146-6.912a11.715,11.715,0,0,0-6.891-5.551c-2.067-10.6-15.322-10.744-21.779-7.251a7.561,7.561,0,0,0-1.742,1.3c-.131-.236-.257-.476-.4-.708-2.986-4.951-20.317-3.936-22.384,6.663a11.718,11.718,0,0,0-6.889,5.551c-1.434,2.792-1.146,6.912-1.146,6.912-3.849,4.215-2.376,8.578.285,10.752,4.031,3.294,12.577,3.869,17.644,3.868,3.908,0,9.821-.391,13.5-3.442,3.7,2.36,9.274,2.262,13.012,2.263,5.069,0,13.613.6,17.645-2.689C-141.6,75.685-140.122,71.321-143.971,67.107Z" transform="translate(208.685 -45.119)" fill="#ef847f"/>
            <g id="Group_15729" data-name="Group 15729" transform="translate(1.699 0.004)">
              <path id="Path_135962" data-name="Path 135962" d="M-201.615,74.043a6.447,6.447,0,0,1,1.327.31,2.738,2.738,0,0,1,1.321,2.849c-.169.7-.71,1.04-1.632,1.014a.9.9,0,0,0-.92.868.892.892,0,0,0,.889.9h.087A3.156,3.156,0,0,0-197.2,77.61a4.487,4.487,0,0,0-2.3-4.851,7.2,7.2,0,0,0-1.8-.457c-1.695-.294-3.591-.628-4.74-2.773-.024.857.016,1.427.016,1.427q-.353.385-.644.772A8.332,8.332,0,0,0-201.615,74.043Z" transform="translate(206.668 -48.972)" fill="#d16669"/>
              <path id="Path_135963" data-name="Path 135963" d="M-199.509,60.429a3.711,3.711,0,0,0,1.282,4.163.917.917,0,0,0,.622.24.912.912,0,0,0,.658-.277.869.869,0,0,0-.036-1.249,2.1,2.1,0,0,1-.839-2.235,2.337,2.337,0,0,1,1.984-1.346.932.932,0,0,0,.195-.024,9.477,9.477,0,0,0,5.083,1.319,18.055,18.055,0,0,1,2.413.259,5.271,5.271,0,0,1,3.248,2.136,1.458,1.458,0,0,1,.054,1.371c-.559,1.259-2.424.991-4.353.512a4.454,4.454,0,0,0-3.525.355,3.227,3.227,0,0,0-1.408,2.283c-.45,2.78,1.306,4.129,2.876,5.07a5.623,5.623,0,0,0-1.774,2.483,4.178,4.178,0,0,0,1.04,4.386.912.912,0,0,0,.664.283.913.913,0,0,0,.616-.237.871.871,0,0,0,.047-1.249,2.449,2.449,0,0,1-.649-2.624,3.68,3.68,0,0,1,1.931-2.121,5.309,5.309,0,0,0,1.666.281,4.893,4.893,0,0,0,2.393-.634c1.343-.75,2.432-2.2,2.432-2.749a.9.9,0,0,0-.9-.884.905.905,0,0,0-.834.542,4.29,4.29,0,0,1-2.278,1.845,3.636,3.636,0,0,1-2.848-.506c-1.8-1.034-2.887-1.762-2.588-3.608a1.48,1.48,0,0,1,.617-1.082,2.748,2.748,0,0,1,2.085-.12c1.557.387,5.207,1.29,6.458-1.52a3.2,3.2,0,0,0-.108-2.891,7.045,7.045,0,0,0-4.488-3.053,19.842,19.842,0,0,0-2.663-.293c-2.032-.13-3.789-.241-4.937-1.766a3.927,3.927,0,0,1-.976-2.7,4.813,4.813,0,0,1,.225-.863,4.976,4.976,0,0,0,.2-.745,9.817,9.817,0,0,0-.964,2.738,3.928,3.928,0,0,0-1.1.366,6.167,6.167,0,0,0,.913,1.91A4.133,4.133,0,0,0-199.509,60.429Z" transform="translate(205.575 -46.393)" fill="#d16669"/>
              <path id="Path_135964" data-name="Path 135964" d="M-184.064,78.045a3.929,3.929,0,0,1,3.286-1.91c1.875-.109,3.687-.357,5.234-2.176a5.725,5.725,0,0,0,.631-6.06,10.775,10.775,0,0,0-1.668-2.351,6.127,6.127,0,0,1-1.717-2.9,2.391,2.391,0,0,1,1.283-2.87,7.237,7.237,0,0,0,1.159-.956,5.6,5.6,0,0,0,.109-6.91c-2.211-2.468-4.154-1.583-5.714-.87-1.156.526-2.153.982-3.433.417-.08-.036-.154-.074-.227-.113a.91.91,0,0,0-.326-.206.194.194,0,0,0-.024-.006,2,2,0,0,1-.868-1.315,2.747,2.747,0,0,1,1.035-2.4c1.371-1.224,3.284-1.424,5.309-1.636.757-.08,1.533-.164,2.283-.307a18.649,18.649,0,0,0-8.334.268,5.957,5.957,0,0,0-.48.371,4.467,4.467,0,0,0-1.6,3.985,3.655,3.655,0,0,0,1.206,2.156,4.145,4.145,0,0,1-2.337,1.786,1.762,1.762,0,0,1-1.693-.532.921.921,0,0,0-1.281,0,.869.869,0,0,0,0,1.25,3.594,3.594,0,0,0,2.557,1.1,3.814,3.814,0,0,0,.805-.088,5.874,5.874,0,0,0,3.492-2.592,5.655,5.655,0,0,0,4.684-.53c1.465-.668,2.27-1.037,3.587.433a3.861,3.861,0,0,1-.088,4.556,5.592,5.592,0,0,1-.881.713,4.06,4.06,0,0,0-2.015,4.538,7.614,7.614,0,0,0,2.121,3.8,9.45,9.45,0,0,1,1.413,1.956,4.017,4.017,0,0,1-.379,4.193c-1,1.172-2.067,1.431-3.949,1.541a5.77,5.77,0,0,0-4.747,2.795,5.639,5.639,0,0,0-.46,4.562h.232c.518,0,1.073-.008,1.652-.027A4.138,4.138,0,0,1-184.064,78.045Z" transform="translate(204.434 -45.123)" fill="#d16669"/>
              <path id="Path_135965" data-name="Path 135965" d="M-167.989,48.069a7.6,7.6,0,0,0-1.411,1.085c-.131-.236-.257-.476-.4-.708l-.006-.008c-.049,9.9-.034,23.779.352,30.815.228-.16.45-.325.664-.5a10.113,10.113,0,0,0,1.157.628C-167.937,73.909-168.065,62.961-167.989,48.069Z" transform="translate(200.857 -45.588)" fill="#d16669"/>
              <path id="Path_135966" data-name="Path 135966" d="M-165.013,52.531a3.293,3.293,0,0,0,2.306,1.594,5.649,5.649,0,0,0,4.179-1.373c1.434-1.17,2.445-1.735,3.673-1.367a2.616,2.616,0,0,1,1.567,2.878,2.687,2.687,0,0,1-2.07,2.636,10.888,10.888,0,0,1-1.938.016,7.7,7.7,0,0,0-3.89.507,4.136,4.136,0,0,0-2.2,2.386,4.49,4.49,0,0,0,.358,3.518,8.088,8.088,0,0,0,.422.717,4.346,4.346,0,0,0-1.672,2.93,4.267,4.267,0,0,0,1.64,3.68.914.914,0,0,0,.611.231.9.9,0,0,0,.667-.288.868.868,0,0,0-.056-1.248,2.655,2.655,0,0,1-1.06-2.208,2.6,2.6,0,0,1,1.044-1.755,5.344,5.344,0,0,0,3.286,1.388c.127.006.254.009.377.009,2.716,0,4.569-1.393,4.764-3.619a.981.981,0,0,1,.549-.89,4.151,4.151,0,0,1,3.47.548c.973.551,3.455,1.751,5.486,1.012a3.435,3.435,0,0,0,2.072-2.187,4.063,4.063,0,0,0-2.187-4.718,3,3,0,0,0-3.927.748.872.872,0,0,0,.181,1.237.918.918,0,0,0,1.267-.177,1.167,1.167,0,0,1,1.629-.247,2.352,2.352,0,0,1,1.327,2.578,1.662,1.662,0,0,1-.994,1.108c-1.068.39-2.739-.2-3.947-.885a5.825,5.825,0,0,0-5.213-.585,2.758,2.758,0,0,0-1.517,2.306c-.174,1.982-2.535,2.027-3.253,1.995a4.171,4.171,0,0,1-3.35-2.478,2.785,2.785,0,0,1-.255-2.162,2.389,2.389,0,0,1,1.283-1.362,6.141,6.141,0,0,1,2.994-.325,12.329,12.329,0,0,0,2.274-.029,4.42,4.42,0,0,0,3.63-4.244,4.3,4.3,0,0,0-2.838-4.711c-2.4-.723-4.258.793-5.367,1.7a3.91,3.91,0,0,1-2.719.985,1.5,1.5,0,0,1-1.055-.762c-.908-1.473-.261-3.439.569-4.675a6.078,6.078,0,0,1,1.014-1.163,19.579,19.579,0,0,0-2.861.737A5.931,5.931,0,0,0-165.013,52.531Z" transform="translate(200.211 -45.227)" fill="#d16669"/>
              <path id="Path_135967" data-name="Path 135967" d="M-161.348,79.914a1.621,1.621,0,0,1,1.568-.543,2.069,2.069,0,0,1,1.137,1.785,4.082,4.082,0,0,0,1.333,2.956,3.146,3.146,0,0,0,2.424.466,2.785,2.785,0,0,0,2.021-1.434,3.662,3.662,0,0,0,.176-3.179.912.912,0,0,0-1.188-.461.874.874,0,0,0-.472,1.162,1.964,1.964,0,0,1-.1,1.626.984.984,0,0,1-.718.54,1.409,1.409,0,0,1-1.047-.131,2.814,2.814,0,0,1-.627-1.752,3.775,3.775,0,0,0-2.327-3.242,3.355,3.355,0,0,0-3.432.935c-1.34,1.258-1.9,3.861-1.782,6.233.6.157,1.213.283,1.833.383C-162.742,83.261-162.364,80.871-161.348,79.914Z" transform="translate(200.003 -50.236)" fill="#d16669"/>
              <path id="Path_135968" data-name="Path 135968" d="M-136.339,70.425a4.152,4.152,0,0,1,2.378.339,18.785,18.785,0,0,0-.008-1.889,5.96,5.96,0,0,0-2.668-.195,4.632,4.632,0,0,0-2.633,1.335,3.033,3.033,0,0,0-1.111-.677,3.3,3.3,0,0,0-2.972.408.869.869,0,0,0-.168,1.238.916.916,0,0,0,1.268.164,1.477,1.477,0,0,1,1.273-.141,1.165,1.165,0,0,1,.728.689c-.43,1.579.67,2.828,1.568,3.845,1.246,1.414,1.683,2.1.967,3.177a3.044,3.044,0,0,1-3.518,1.213,2.805,2.805,0,0,1-2.071-2.871,5.216,5.216,0,0,0-1.229-3.668,4.62,4.62,0,0,1-.7,2.5,3.7,3.7,0,0,1,.118,1.087,4.559,4.559,0,0,0,3.326,4.638,5.094,5.094,0,0,0,1.532.238,4.836,4.836,0,0,0,4.058-2.174c1.524-2.3,0-4.028-1.116-5.291-.98-1.111-1.41-1.708-1.143-2.381A2.644,2.644,0,0,1-136.339,70.425Z" transform="translate(196.98 -48.827)" fill="#d16669"/>
            </g>
          </g>
        </g>
      </g>
      <g id="Group_15733" data-name="Group 15733" transform="translate(26.889 81.896)">
        <path id="Line_500" data-name="Line 500" d="M.934,3.947H-.934V0H.934Z" fill="#9be1f3"/>
        <path id="Line_501" data-name="Line 501" d="M.934,3.947H-.934V0H.934Z" transform="translate(3.972)" fill="#9be1f3"/>
        <path id="Line_502" data-name="Line 502" d="M.934,3.947H-.934V0H.934Z" transform="translate(7.944)" fill="#9be1f3"/>
        <path id="Line_503" data-name="Line 503" d="M.934,3.947H-.934V0H.934Z" transform="translate(11.916)" fill="#9be1f3"/>
        <path id="Line_504" data-name="Line 504" d="M.934,3.947H-.934V0H.934Z" transform="translate(15.888)" fill="#9be1f3"/>
      </g>
      <g id="Group_15736" data-name="Group 15736" transform="translate(6.003 42.734)">
        <g id="Group_15734" data-name="Group 15734" transform="translate(34.326)">
          <path id="Path_135969" data-name="Path 135969" d="M-163.323,97.022c1.018,5.428,6.162,9.038,11.536,9.067,5.372-.029,10.516-3.64,11.535-9.067,1.027-5.4-4.109-10.885-11.536-10.884S-164.35,91.625-163.323,97.022Z" transform="translate(163.454 -86.138)" fill="#9be1f3"/>
        </g>
        <g id="Group_15735" data-name="Group 15735">
          <path id="Path_135970" data-name="Path 135970" d="M-204.076,97.022c1.018,5.428,6.165,9.038,11.536,9.067,5.373-.029,10.519-3.64,11.536-9.067,1.027-5.4-4.11-10.885-11.536-10.884S-205.1,91.625-204.076,97.022Z" transform="translate(204.207 -86.138)" fill="#9be1f3"/>
        </g>
      </g>
      <path id="Path_135971" data-name="Path 135971" d="M-170.822,108.006v-.038c-.065,0-.141.011-.212.017s-.147-.017-.211-.017v.038c-2.1.329-6,2.906-5.348,6.679.411,2.364,3.272,2.716,5.559.56,2.288,2.156,5.149,1.8,5.56-.56C-164.818,110.912-168.724,108.335-170.822,108.006Z" transform="translate(205.868 -46.847)" fill="#9be1f3"/>
    </g>
  </g>
</svg>
