<svg xmlns="http://www.w3.org/2000/svg" width="184" height="184" viewBox="0 0 184 184">
  <g id="Group_13726" data-name="Group 13726" transform="translate(-254.648 -8.997)">
    <circle id="Ellipse_639" data-name="Ellipse 639" cx="92" cy="92" r="92" transform="translate(254.648 8.997)" fill="#0098da"/>
    <g id="Group_13738" data-name="Group 13738" transform="translate(296.613 36.981)">
      <g id="Group_13727" data-name="Group 13727" transform="translate(0 27.231)">
        <g id="Group_13726-2" data-name="Group 13726">
          <path id="Path_123985" data-name="Path 123985" d="M354.365,68.461A57.3,57.3,0,0,1,338,65.394c-9.2-3.069-31.706-2.046-31.706,26.592s13.3,38.868,13.3,38.868a74.712,74.712,0,0,0,10.738,31.708c9.717,15.342,13.809,24.547,14.832,6.137s2.991-43.467,5.114-47.137l4.091-7.074Z" transform="translate(-306.293 -64.212)" fill="#dcefe9"/>
        </g>
      </g>
      <g id="Group_13736" data-name="Group 13736" transform="translate(48.072 27.236)">
        <g id="Group_13728" data-name="Group 13728" transform="translate(25.825 0.044)">
          <path id="Path_123986" data-name="Path 123986" d="M397.839,73.775c-4.46-6.728-11.441-9.176-17.649-9.515a8.441,8.441,0,0,1,1.044,2.295Z" transform="translate(-380.19 -64.26)" fill="#679cb4"/>
        </g>
        <g id="Group_13729" data-name="Group 13729" transform="translate(0 2.82)">
          <path id="Path_123987" data-name="Path 123987" d="M394.256,93.148c-3.854,2.039-7.917,3.453-11.7,3.369-10.021-.227-11.407-9.392-11.314-19.232a8.411,8.411,0,0,1-6.385-10.249,52.334,52.334,0,0,1-10.488,1.425v46.027l4.091,7.074c2.123,3.67,4.091,28.726,5.115,47.137s5.114,9.205,14.83-6.137a74.715,74.715,0,0,0,10.74-31.708s11.134-8.579,13.02-31.993A8.485,8.485,0,0,1,394.256,93.148Z" transform="translate(-354.365 -67.036)" fill="#c7e6db"/>
        </g>
        <g id="Group_13730" data-name="Group 13730" transform="translate(16.869 2.339)">
          <path id="Path_123988" data-name="Path 123988" d="M381.632,69a8.456,8.456,0,0,1-10.394,8.289c-.093,9.84,1.293,19,11.314,19.232,3.787.084,7.85-1.33,11.7-3.369A8.376,8.376,0,0,1,401.3,81.939a25.854,25.854,0,0,0-3.46-8.164l-16.6-7.22A8.424,8.424,0,0,1,381.632,69Z" transform="translate(-371.234 -66.555)" fill="#679cb4"/>
        </g>
        <g id="Group_13731" data-name="Group 13731" transform="translate(21.747)">
          <path id="Path_123989" data-name="Path 123989" d="M376.112,64.327l5.122,2.228a8.441,8.441,0,0,0-1.044-2.295A28.468,28.468,0,0,0,376.112,64.327Z" transform="translate(-376.112 -64.216)" fill="#679cb4"/>
        </g>
        <g id="Group_13732" data-name="Group 13732" transform="translate(10.24 0.989)">
          <path id="Path_123990" data-name="Path 123990" d="M371.238,77.285c.026-2.813.167-5.678.27-8.408a21.186,21.186,0,0,0-.158-3.672c-.21.062-.422.124-.62.189-2.087.7-4.06,1.226-5.877,1.642a8.411,8.411,0,0,0,6.385,10.249Z" transform="translate(-364.605 -65.205)" fill="#679cb4"/>
        </g>
        <g id="Group_13733" data-name="Group 13733" transform="translate(16.873 0.111)">
          <path id="Path_123991" data-name="Path 123991" d="M381.632,69a8.424,8.424,0,0,0-.4-2.441l-5.122-2.228a24.594,24.594,0,0,0-4.762.878,21.186,21.186,0,0,1,.158,3.672c-.1,2.73-.244,5.6-.27,8.408A8.456,8.456,0,0,0,381.632,69Z" transform="translate(-371.238 -64.327)" fill="#679cb4"/>
        </g>
        <g id="Group_13734" data-name="Group 13734" transform="translate(39.891 23.746)">
          <path id="Path_123992" data-name="Path 123992" d="M402.262,87.962a59.56,59.56,0,0,1-8.006,5.186,8.485,8.485,0,0,0,7.9,5.713c.174-2.166.276-4.448.276-6.875C402.437,90.573,402.368,89.244,402.262,87.962Z" transform="translate(-394.256 -87.962)" fill="#679cb4"/>
        </g>
        <g id="Group_13735" data-name="Group 13735" transform="translate(39.383 17.723)">
          <path id="Path_123993" data-name="Path 123993" d="M393.748,90.355a8.427,8.427,0,0,0,.508,2.793,59.56,59.56,0,0,0,8.006-5.186,38.094,38.094,0,0,0-.963-6.023A8.486,8.486,0,0,0,393.748,90.355Z" transform="translate(-393.748 -81.939)" fill="#679cb4"/>
        </g>
      </g>
      <g id="Group_13737" data-name="Group 13737" transform="translate(72.329)">
        <path id="Path_123994" data-name="Path 123994" d="M391.142,36.981,378.622,56,393.6,57.843,380.711,83.695l26.078-29.534-14.084-3.375,14.084-11.965Z" transform="translate(-378.622 -36.981)" fill="#cf221b"/>
      </g>
    </g>
  </g>
</svg>
