<svg xmlns="http://www.w3.org/2000/svg" width="184" height="184" viewBox="0 0 184 184">
  <g id="Group_13715" data-name="Group 13715" transform="translate(-4.866 -8.997)">
    <circle id="Ellipse_637" data-name="Ellipse 637" cx="92" cy="92" r="92" transform="translate(4.866 8.997)" fill="#0098da"/>
    <g id="Group_13717" data-name="Group 13717" transform="translate(25.771 39.072)">
      <path id="Path_123964" data-name="Path 123964" d="M163.813,134.194l-17.852,20.829s1.434-8.495-40.115-41.925C76.409,89.412,59.275,78.955,59.275,78.955L71.867,57.426s-1.328,13.035,43.3,48.942C151,135.2,163.813,134.194,163.813,134.194Z" transform="translate(-36.112 -39.072)" fill="#e2e4ec"/>
      <path id="Path_123965" data-name="Path 123965" d="M154.136,142.683l10.842-10.3s-10.637,3.627-49.812-27.159c-44.627-35.071-43.3-47.8-43.3-47.8l-8.273,14.1,90.542,71.153Z" transform="translate(-36.112 -39.072)" fill="#c8cfdd"/>
      <path id="Path_123966" data-name="Path 123966" d="M163.856,174.444a7.545,7.545,0,0,1-7.4,7.684l-2.828.054a7.59,7.59,0,0,1-7.686-7.4c-.035-4.06,6.026-14.532-.478-21.192-5.5-5.633,3.5,2.323,7.672,2.246l2.829-.053a7.545,7.545,0,0,1,7.686,7.4l.209,11.26Z" transform="translate(-36.112 -58.333)" fill="#c8cfdd"/>
      <path id="Path_123967" data-name="Path 123967" d="M170.9,167.135a7.546,7.546,0,0,0,7.4-7.684l-.053-2.829a7.545,7.545,0,0,0-7.686-7.4l-5.584.105a7.543,7.543,0,0,0-7.4,7.685l.053,2.83a7.547,7.547,0,0,0,7.685,7.4l5.585-.105Z" transform="translate(-36.112 -58.333)" fill="#e2e4ec"/>
      <path id="Path_123968" data-name="Path 123968" d="M43.506,51.27A11.888,11.888,0,0,1,55.173,39.16l4.458-.086A11.894,11.894,0,0,1,71.743,50.742l.331,17.747A11.892,11.892,0,0,1,60.406,80.6l-4.46.084A11.893,11.893,0,0,1,43.835,69.016L43.506,51.27Z" transform="translate(-36.112 -39.072)" fill="#c8cfdd"/>
      <path id="Path_123969" data-name="Path 123969" d="M55.173,39.16A11.888,11.888,0,0,0,43.506,51.27l.1,5.165,4.421-.084A11.891,11.891,0,0,0,59.69,44.24l-.1-5.166-4.42.086Z" transform="translate(-36.112 -39.072)" fill="#e2e4ec"/>
      <path id="Path_123970" data-name="Path 123970" d="M45.139,61.617a9.2,9.2,0,0,0-9.025,9.368l.064,3.449a9.2,9.2,0,0,0,9.369,9.026L59.275,83.2a9.2,9.2,0,0,0,9.026-9.37l-.065-3.449a9.2,9.2,0,0,0-9.368-9.026l-13.729.258Z" transform="translate(-36.112 -42.619)" fill="#e2e4ec"/>
      <path id="Path_123971" data-name="Path 123971" d="M76.9,87.532s-8.471-7.08-8.66-17.147c-.105-5.632-3.027,1.783-3.027,1.783l-.925,7.791L76.9,87.532Z" transform="translate(-36.112 -43.613)" fill="#e2e4ec"/>
      <g id="Group_13715-2" data-name="Group 13715" transform="translate(64.768 13.621)">
        <path id="Path_123972" data-name="Path 123972" d="M106.888,55.013,100.88,74.464,114.2,72.312l-4.618,25.406L124.6,65.862l-12.932.614,9.108-13.783Z" transform="translate(-100.88 -52.693)" fill="#cf221b"/>
      </g>
      <g id="Group_13716" data-name="Group 13716" transform="translate(77.872 39.937)">
        <path id="Path_123973" data-name="Path 123973" d="M153.244,86.441l-20.336.948,6.541,11.8-25.466,4.274,35.064,3.329-4.964-11.957,16.055,3.893Z" transform="translate(-113.984 -86.441)" fill="#cf221b"/>
      </g>
    </g>
  </g>
</svg>
