<svg height="62" viewBox="0 0 62 62" width="62" xmlns="http://www.w3.org/2000/svg"><g fill="#fff" opacity="0" stroke="#707070"><circle cx="31" cy="31" r="31" stroke="none"/><circle cx="31" cy="31" fill="none" r="30.5"/></g><g fill="#1b274d"><path d="m.305 10.644a.66.66 0 0 0 -.025 1.1.711.711 0 0 0 1.122 0l5.185-5.188a.728.728 0 0 0 0-1.1l-5.187-5.182a.711.711 0 0 0 -1.122 0 .66.66 0 0 0 .025 1.1l4.589 4.633z" transform="matrix(0 1 -1 0 37.013 23.999)"/><path d="m.305 10.644a.66.66 0 0 0 -.025 1.1.711.711 0 0 0 1.122 0l5.185-5.188a.728.728 0 0 0 0-1.1l-5.187-5.182a.711.711 0 0 0 -1.122 0 .66.66 0 0 0 .025 1.1l4.589 4.633z" transform="matrix(0 1 -1 0 37.013 31.176)"/></g></svg>