<svg enable-background="new 0 0 464 426.002" viewBox="0 0 464 426.002" xmlns="http://www.w3.org/2000/svg"><g transform="translate(-696 -6006.35)"><path d="m773 6036h367c11.046 0 20 8.954 20 20v31c0 11.046-8.954 20-20 20h-367z" fill="#69be28" opacity=".105"/><g fill="#929497"><path d="m1077.923 6078.972c-8.292 0-15.013 8.064-15.013 18.014v289.592h65.843v-289.592c0-9.95-6.721-18.014-15.013-18.014z"/><path d="m952 6087h30c9.941 0 18 8.059 18 18v281h-66v-281c0-9.941 8.059-18 18-18z"/><path d="m834 6120h30c9.941 0 18 8.059 18 18v249h-66v-249c0-9.941 8.059-18 18-18z"/></g><g transform="translate(0 1785)"><g fill="#343434"><g enable-background="new"><path d="m743.167 4248.671-1.991.768v-1.091l3.13-1.212v8.815h-1.139z"/><path d="m748.052 4255.027c-.564-.768-.828-1.955-.828-3.418s.264-2.65.828-3.418c.516-.695 1.271-1.056 2.135-1.056.863 0 1.619.36 2.135 1.056.563.768.828 1.955.828 3.418s-.264 2.65-.828 3.418c-.516.696-1.271 1.056-2.135 1.056s-1.619-.359-2.135-1.056zm3.334-.587c.504-.648.624-1.787.624-2.831 0-1.043-.12-2.183-.624-2.83-.288-.36-.684-.588-1.199-.588s-.912.228-1.199.588c-.504.647-.624 1.787-.624 2.83 0 1.044.12 2.183.624 2.831.288.359.684.587 1.199.587s.912-.227 1.199-.587z"/><path d="m755.588 4255.027c-.564-.768-.828-1.955-.828-3.418s.264-2.65.828-3.418c.516-.695 1.271-1.056 2.135-1.056.863 0 1.619.36 2.135 1.056.563.768.828 1.955.828 3.418s-.264 2.65-.828 3.418c-.516.696-1.271 1.056-2.135 1.056s-1.619-.359-2.135-1.056zm3.334-.587c.504-.648.624-1.787.624-2.831 0-1.043-.12-2.183-.624-2.83-.288-.36-.684-.588-1.199-.588s-.912.228-1.199.588c-.504.647-.624 1.787-.624 2.83 0 1.044.12 2.183.624 2.831.288.359.684.587 1.199.587s.911-.227 1.199-.587z"/></g><g enable-background="new"><path d="m748.609 4290.972 2.327-3.706-.024-.023c-.3.18-.72.287-1.176.287-1.403 0-2.626-1.067-2.626-2.614 0-1.595 1.271-2.759 2.975-2.759 1.679 0 2.902 1.128 2.902 2.795 0 1.02-.444 1.823-1.043 2.782l-2.027 3.238zm3.226-6.081c0-.887-.731-1.715-1.787-1.715-.959 0-1.811.672-1.811 1.703 0 .936.72 1.679 1.799 1.679 1.091 0 1.799-.767 1.799-1.667z"/><path d="m755.293 4290.048c-.564-.768-.828-1.955-.828-3.418s.264-2.65.828-3.418c.516-.695 1.271-1.056 2.135-1.056.863 0 1.619.36 2.135 1.056.563.768.828 1.955.828 3.418s-.264 2.65-.828 3.418c-.516.696-1.271 1.056-2.135 1.056s-1.619-.359-2.135-1.056zm3.334-.587c.504-.648.624-1.787.624-2.831 0-1.043-.12-2.183-.624-2.83-.288-.36-.684-.588-1.199-.588s-.912.228-1.199.588c-.504.647-.624 1.787-.624 2.83 0 1.044.12 2.183.624 2.831.288.359.684.587 1.199.587s.911-.227 1.199-.587z"/></g><g enable-background="new"><path d="m748.567 4322.369v-.024c-.816-.336-1.26-.959-1.26-1.835 0-1.355 1.067-2.375 2.675-2.375 1.607 0 2.674 1.02 2.674 2.375 0 .876-.444 1.499-1.259 1.835v.024c.948.323 1.5 1.127 1.5 2.146 0 1.476-1.151 2.566-2.915 2.566s-2.915-1.091-2.915-2.566c0-1.019.552-1.823 1.5-2.146zm1.415 3.705c.996 0 1.787-.635 1.787-1.583 0-.947-.804-1.606-1.787-1.606s-1.787.659-1.787 1.606c0 .948.791 1.583 1.787 1.583zm1.595-5.516c0-.827-.696-1.415-1.595-1.415s-1.595.588-1.595 1.415c0 .828.72 1.415 1.595 1.415s1.595-.587 1.595-1.415z"/><path d="m755.299 4326.026c-.564-.768-.828-1.955-.828-3.418s.264-2.65.828-3.418c.516-.695 1.271-1.056 2.135-1.056.863 0 1.619.36 2.135 1.056.563.768.828 1.955.828 3.418s-.264 2.65-.828 3.418c-.516.696-1.271 1.056-2.135 1.056s-1.62-.359-2.135-1.056zm3.334-.587c.504-.648.624-1.787.624-2.831 0-1.043-.12-2.183-.624-2.83-.288-.36-.684-.588-1.199-.588s-.912.228-1.199.588c-.504.647-.624 1.787-.624 2.83 0 1.044.12 2.183.624 2.831.288.359.684.587 1.199.587s.911-.227 1.199-.587z"/></g><g enable-background="new"><path d="m751.667 4355.532h-4.066v-1.032h5.661l.012.024-3.622 8.659h-1.187z"/><path d="m755.281 4362.259c-.564-.768-.828-1.955-.828-3.418s.264-2.65.828-3.418c.516-.695 1.271-1.056 2.135-1.056.863 0 1.619.36 2.135 1.056.563.768.828 1.955.828 3.418s-.264 2.65-.828 3.418c-.516.696-1.271 1.056-2.135 1.056s-1.619-.359-2.135-1.056zm3.334-.587c.504-.648.624-1.787.624-2.831 0-1.043-.12-2.183-.624-2.83-.288-.36-.684-.588-1.199-.588s-.912.228-1.199.588c-.504.647-.624 1.787-.624 2.83 0 1.044.12 2.183.624 2.831.288.359.684.587 1.199.587s.912-.227 1.199-.587z"/></g><g enable-background="new"><path d="m751.336 4389.024-2.063 3.286c-.12.181-.24.372-.324.528l.024.012c.312-.228.768-.384 1.319-.384 1.475 0 2.638 1.104 2.638 2.627 0 1.583-1.247 2.746-2.95 2.746-1.691 0-2.95-1.14-2.95-2.866 0-.815.276-1.56 1.055-2.818l1.943-3.131zm-1.343 7.808c.971 0 1.811-.671 1.811-1.702 0-.96-.744-1.703-1.787-1.703-1.007 0-1.835.695-1.835 1.654 0 .888.719 1.751 1.811 1.751z"/><path d="m755.298 4396.784c-.564-.768-.828-1.955-.828-3.418s.264-2.65.828-3.418c.516-.695 1.271-1.056 2.135-1.056.863 0 1.619.36 2.135 1.056.563.768.828 1.955.828 3.418s-.264 2.65-.828 3.418c-.516.696-1.271 1.056-2.135 1.056s-1.619-.36-2.135-1.056zm3.334-.587c.504-.648.624-1.787.624-2.831 0-1.043-.12-2.183-.624-2.83-.288-.36-.684-.588-1.199-.588s-.912.228-1.199.588c-.504.647-.624 1.787-.624 2.83 0 1.044.12 2.183.624 2.831.288.359.684.587 1.199.587s.912-.227 1.199-.587z"/></g><g enable-background="new"><path d="m747.816 4430.31c.648.479 1.379.707 2.099.707 1.127 0 1.943-.575 1.943-1.535 0-1.343-1.583-1.69-2.794-1.69-.312 0-.66.023-.972.071l.348-4.605h4.317l-.084 1.032h-3.178l-.18 2.506c1.799 0 3.682.66 3.682 2.639 0 1.607-1.259 2.639-3.082 2.639-.852 0-1.631-.228-2.183-.575z"/><path d="m755.28 4431.017c-.564-.768-.828-1.955-.828-3.418s.264-2.65.828-3.418c.516-.695 1.271-1.056 2.135-1.056.863 0 1.619.36 2.135 1.056.563.768.828 1.955.828 3.418s-.264 2.65-.828 3.418c-.516.696-1.271 1.056-2.135 1.056s-1.619-.36-2.135-1.056zm3.334-.587c.504-.648.624-1.787.624-2.831 0-1.043-.12-2.183-.624-2.83-.288-.36-.684-.588-1.199-.588s-.912.228-1.199.588c-.504.647-.624 1.787-.624 2.83 0 1.044.12 2.183.624 2.831.288.359.684.587 1.199.587s.912-.227 1.199-.587z"/></g><g enable-background="new"><path d="m751.684 4464.358h1.559v1.008h-1.559v2.1h-1.127v-2.1h-4.377l-.012-.023 4.474-6.561h1.043v5.576zm-3.694-.024.012.023h2.555v-2.051c0-.6.012-1.246.024-1.775l-.024-.012c-.336.541-.72 1.104-1.08 1.631z"/><path d="m755.311 4466.542c-.564-.768-.828-1.955-.828-3.418s.264-2.65.828-3.418c.516-.695 1.271-1.057 2.135-1.057.863 0 1.619.361 2.135 1.057.563.768.828 1.955.828 3.418s-.264 2.65-.828 3.418c-.516.695-1.271 1.055-2.135 1.055-.864-.001-1.62-.36-2.135-1.055zm3.334-.588c.504-.648.624-1.787.624-2.83s-.12-2.184-.624-2.83c-.288-.361-.684-.588-1.199-.588s-.912.227-1.199.588c-.504.646-.624 1.787-.624 2.83s.12 2.182.624 2.83c.288.359.684.588 1.199.588s.911-.229 1.199-.588z"/></g><g enable-background="new"><path d="m747.57 4499.721c.72.707 1.559 1.055 2.375 1.055 1.032 0 1.775-.553 1.775-1.475 0-.852-.611-1.451-1.847-1.451h-.815v-1.008h.779c1.091 0 1.703-.6 1.703-1.451 0-.9-.684-1.451-1.667-1.451-.648 0-1.295.24-1.787.588v-1.164c.479-.287 1.139-.48 1.847-.48 1.583 0 2.746.961 2.746 2.4 0 .971-.54 1.715-1.391 1.967v.023c1.08.229 1.571 1.092 1.571 2.051 0 1.512-1.224 2.506-2.902 2.506-1.008 0-1.883-.359-2.387-.803z"/><path d="m755.285 4500.776c-.564-.768-.828-1.955-.828-3.418s.264-2.65.828-3.418c.516-.695 1.271-1.057 2.135-1.057.863 0 1.619.361 2.135 1.057.563.768.828 1.955.828 3.418s-.264 2.65-.828 3.418c-.516.695-1.271 1.055-2.135 1.055s-1.619-.36-2.135-1.055zm3.334-.588c.504-.648.624-1.787.624-2.83s-.12-2.184-.624-2.83c-.288-.361-.684-.588-1.199-.588s-.912.227-1.199.588c-.504.646-.624 1.787-.624 2.83s.12 2.182.624 2.83c.288.359.684.588 1.199.588s.912-.229 1.199-.588z"/></g><g enable-background="new"><path d="m750.005 4532.612c.983-1.176 1.451-1.932 1.451-2.746 0-1.008-.708-1.547-1.715-1.547-.612 0-1.332.203-1.943.646v-1.15c.444-.289 1.164-.553 2.003-.553 1.535 0 2.794.877 2.794 2.543 0 1.188-.647 2.184-1.667 3.406l-1.511 1.811.012.025h3.478v1.031h-5.757l-.012-.025z"/><path d="m755.286 4535.155c-.564-.768-.828-1.955-.828-3.418s.264-2.65.828-3.418c.516-.695 1.271-1.057 2.135-1.057.863 0 1.619.361 2.135 1.057.563.768.828 1.955.828 3.418s-.264 2.65-.828 3.418c-.516.695-1.271 1.055-2.135 1.055-.864-.001-1.619-.36-2.135-1.055zm3.334-.588c.504-.648.624-1.787.624-2.83s-.12-2.184-.624-2.83c-.288-.361-.684-.588-1.199-.588s-.912.227-1.199.588c-.504.646-.624 1.787-.624 2.83s.12 2.182.624 2.83c.288.359.684.588 1.199.588s.912-.229 1.199-.588z"/></g><g enable-background="new"><path d="m750.385 4563.914-1.991.768v-1.091l3.13-1.212v8.815h-1.139z"/><path d="m755.27 4570.27c-.564-.768-.828-1.955-.828-3.418s.264-2.65.828-3.418c.516-.695 1.271-1.056 2.135-1.056.863 0 1.619.36 2.135 1.056.563.768.827 1.955.827 3.418s-.264 2.65-.827 3.418c-.516.696-1.271 1.056-2.135 1.056-.865 0-1.62-.36-2.135-1.056zm3.334-.587c.504-.648.623-1.787.623-2.831 0-1.043-.119-2.183-.623-2.83-.288-.36-.684-.588-1.199-.588s-.912.228-1.199.588c-.504.647-.624 1.787-.624 2.83 0 1.044.12 2.183.624 2.831.287.359.684.587 1.199.587s.91-.228 1.199-.587z"/></g><path d="m754.985 4601.292c-.564-.768-.828-1.955-.828-3.418s.264-2.65.828-3.418c.516-.695 1.271-1.055 2.135-1.055.863 0 1.619.359 2.135 1.055.563.768.828 1.955.828 3.418s-.264 2.65-.828 3.418c-.516.697-1.271 1.057-2.135 1.057-.864-.001-1.619-.36-2.135-1.057zm3.334-.586c.504-.648.624-1.787.624-2.832 0-1.043-.12-2.182-.624-2.83-.288-.359-.684-.588-1.199-.588s-.912.229-1.199.588c-.504.648-.624 1.787-.624 2.83 0 1.045.12 2.184.624 2.832.288.359.684.586 1.199.586s.912-.227 1.199-.586z"/></g><path d="m780.146 4602.086c-2.148 0-4.165-.948-5.678-2.672-1.499-1.706-2.324-3.972-2.324-6.379l-.09-358.2h1l.09 358.2c0 2.164.737 4.195 2.075 5.72 1.32 1.503 3.07 2.331 4.926 2.331h.006l376.371-.415.002 1-376.372.415c-.002 0-.004 0-.006 0z" fill="#414042"/><path d="m772.554 4238.172c1.842 0 3.336-1.493 3.336-3.336 0-1.842-1.494-3.336-3.336-3.336s-3.336 1.494-3.336 3.336c-.001 1.842 1.492 3.335 3.334 3.336z" fill="#414042"/><path d="m1156.522 4604.556c1.843 0 3.336-1.494 3.336-3.336 0-1.843-1.494-3.336-3.336-3.336s-3.336 1.494-3.336 3.336c0 1.842 1.492 3.335 3.334 3.336z" fill="#414042"/><path d="m767.5 4251h10.721v1h-10.721z" fill="#7db959"/><path d="m767.5 4322h10.721v1h-10.721z" fill="#7db959"/><path d="m767.5 4286h10.721v1h-10.721z" fill="#7db959"/><path d="m767.5 4357h10.721v1h-10.721z" fill="#7db959"/><path d="m767.5 4497h10.721v1h-10.721z" fill="#7db959"/><path d="m767.5 4567h10.721v1h-10.721z" fill="#7db959"/><path d="m767.5 4532h10.721v1h-10.721z" fill="#7db959"/><path d="m767.5 4462h10.721v1h-10.721z" fill="#7db959"/><path d="m767.5 4427h10.721v1h-10.721z" fill="#7db959"/><path d="m767.5 4392h10.721v1h-10.721z" fill="#7db959"/><g enable-background="new" fill="#343434" transform="translate(13 107)"><path d="m803.917 4505.317h3.493c1.584 0 2.593.145 3.475.685.99.594 1.53 1.494 1.53 2.665 0 1.494-.9 2.376-1.98 2.755v.035c1.53.36 2.502 1.369 2.502 3.043 0 1.243-.54 2.323-1.494 2.989-.918.648-2.179.864-4.069.864h-3.457zm4.286 5.69c1.314 0 2.503-.612 2.503-2.035 0-.811-.378-1.332-.918-1.656-.612-.36-1.314-.45-2.611-.45h-1.548v4.142h2.574zm-.721 5.797c1.477 0 2.305-.144 2.899-.558.414-.288.846-.828.846-1.711 0-1.44-1.134-2.215-3.079-2.215h-2.521v4.483h1.855z"/><path d="m815.797 4517.921c-.576-.433-.937-1.099-.937-1.963 0-.99.468-1.711 1.17-2.161.666-.432 1.566-.594 2.485-.594.684 0 1.314.09 1.891.234v-.738c0-.648-.162-1.135-.504-1.459-.342-.306-.882-.486-1.638-.486-1.117 0-2.053.396-2.719.883v-1.585c.685-.414 1.639-.756 2.953-.756 1.08 0 2.017.234 2.647.811.522.468.882 1.224.882 2.322v3.764c0 .54.198.936.684.936.18 0 .378-.054.522-.126v1.351c-.216.09-.522.162-.864.162-.702 0-1.368-.307-1.71-.937h-.036c-.504.469-1.53.973-2.719.973-.72-.001-1.512-.181-2.107-.631zm4.61-1.585v-1.656c-.486-.145-1.17-.234-1.729-.234-1.099 0-2.179.324-2.179 1.368 0 .864.738 1.297 1.692 1.297.847 0 1.675-.342 2.216-.775z"/><path d="m824.941 4516.138c1.008.648 2.287.954 3.385.954 1.225 0 2.017-.359 2.017-1.224 0-1.062-1.278-1.081-2.646-1.314-1.693-.288-3.025-.793-3.025-2.539.018-1.837 1.584-2.719 3.637-2.719 1.062 0 2.287.234 3.169.702v1.62c-.99-.576-2.214-.864-3.241-.864-1.134 0-1.927.343-1.927 1.135 0 1.008 1.261 1.008 2.575 1.242 1.693.288 3.097.757 3.097 2.593 0 2.053-1.836 2.827-3.727 2.827-1.134 0-2.395-.234-3.313-.721v-1.692z"/><path d="m835.345 4514.392c.234 1.746 1.531 2.7 3.277 2.7 1.225 0 2.251-.485 3.061-1.098v1.729c-.792.504-2.017.828-3.169.828-2.737 0-4.79-1.837-4.79-4.628 0-2.79 2.035-4.627 4.412-4.627 2.161 0 4.033 1.513 4.033 4.285 0 .271-.018.594-.054.811zm.036-1.278h5.222c-.144-1.765-1.44-2.359-2.503-2.359-1.17-.001-2.431.72-2.719 2.359z"/><path d="m844.633 4504.597h1.621v13.756h-1.621z"/><path d="m850.068 4505.317c.63 0 1.135.505 1.135 1.135s-.504 1.134-1.135 1.134c-.63 0-1.134-.504-1.134-1.134s.504-1.135 1.134-1.135zm-.81 4.178h1.621v8.858h-1.621z"/><path d="m853.884 4509.495h1.621v1.116l.036.018c.774-.773 1.854-1.332 3.097-1.332.972 0 1.801.342 2.359.973.486.558.738 1.242.738 2.61v5.474h-1.621v-5.168c0-.918-.126-1.458-.414-1.8-.36-.433-.937-.576-1.422-.576-1.008 0-2.143.63-2.773 1.477v6.067h-1.621z"/><path d="m865.71 4514.392c.234 1.746 1.531 2.7 3.277 2.7 1.225 0 2.251-.485 3.061-1.098v1.729c-.792.504-2.017.828-3.169.828-2.737 0-4.79-1.837-4.79-4.628 0-2.79 2.035-4.627 4.412-4.627 2.161 0 4.033 1.513 4.033 4.285 0 .271-.018.594-.054.811zm.037-1.278h5.222c-.144-1.765-1.44-2.359-2.503-2.359-1.171-.001-2.431.72-2.719 2.359z"/></g><g enable-background="new" fill="#343434" transform="translate(13 107)"><path d="m820.159 4525.946h1.247c-1.176 1.526-2.101 3.865-2.101 6.695 0 2.829.925 5.169 2.101 6.695h-1.247c-1.092-1.429-2.017-3.698-2.017-6.695 0-2.998.924-5.266 2.017-6.695z"/><path d="m823.266 4529.461h1.261v.868l.028.015c.602-.603 1.442-1.037 2.409-1.037.756 0 1.401.267 1.835.757.378.434.574.966.574 2.031v4.258h-1.261v-4.021c0-.714-.098-1.134-.322-1.4-.28-.336-.728-.448-1.106-.448-.784 0-1.667.49-2.157 1.148v4.721h-1.261z"/><path d="m831.329 4529.349h6.752v1.009h-6.752zm0 2.858h6.752v1.009h-6.752z"/><path d="m842.363 4527.85-2.325.896v-1.274l3.656-1.415v10.296h-1.331z"/><path d="m847.107 4534.448c.756.561 1.611.827 2.452.827 1.316 0 2.269-.673 2.269-1.793 0-1.569-1.849-1.976-3.264-1.976-.364 0-.771.028-1.135.084l.406-5.379h5.043l-.098 1.205h-3.712l-.21 2.928c2.101 0 4.3.77 4.3 3.081 0 1.877-1.471 3.082-3.6 3.082-.995 0-1.905-.267-2.55-.673z"/><path d="m856.698 4532.641c0-2.83-.924-5.169-2.101-6.695h1.247c1.093 1.429 2.017 3.697 2.017 6.695 0 2.997-.924 5.267-2.017 6.695h-1.247c1.176-1.526 2.101-3.866 2.101-6.695z"/></g><path d="m848.301 4596.797h1v9.561h-1z" fill="#7db959"/><g enable-background="new" fill="#fff" transform="translate(13 107)"><path d="m820.751 4255.682h-5.761v-2.781h10.202l.02.04-5.861 14.443h-3.341z"/><path d="m835.192 4252.9-3.821 5.661.02.021c.38-.18.9-.3 1.521-.3 2.4 0 4.421 1.86 4.421 4.501 0 2.78-2.301 4.82-5.401 4.82-3 0-5.381-1.88-5.381-5.061 0-1.601.54-2.94 1.8-4.841l3.141-4.802h3.7zm-3.201 12.043c1.2 0 2.201-.86 2.201-2.101 0-1.181-.9-2.12-2.181-2.12-1.22 0-2.2.86-2.2 2.061 0 1.12.86 2.16 2.18 2.16z"/><path d="m839.27 4256.422c0-2.141 1.38-3.741 3.601-3.741s3.601 1.601 3.601 3.741-1.38 3.74-3.601 3.74-3.601-1.6-3.601-3.74zm5.141 0c0-1.041-.6-1.881-1.541-1.881-.94 0-1.541.84-1.541 1.881 0 1.04.601 1.88 1.541 1.88.941 0 1.541-.84 1.541-1.88zm7.022-3.522h2.04l-9.462 14.483h-2.041zm1.14 7.222c2.22 0 3.601 1.601 3.601 3.741s-1.38 3.74-3.601 3.74-3.601-1.6-3.601-3.74 1.38-3.741 3.601-3.741zm0 5.621c.94 0 1.54-.84 1.54-1.88s-.6-1.881-1.54-1.881-1.541.841-1.541 1.881.6 1.88 1.541 1.88z"/></g><g enable-background="new" fill="#005d55"><path d="m701.517 4601.03v-4.301c0-1.721.16-3.16.761-4.301.66-1.261 1.9-2.341 3.86-2.341 1.78 0 3.061.86 3.781 2.081.66 1.119.9 2.561.9 4.681v1h5.181v3.181zm6.721-4.341c0-1.261-.06-1.98-.36-2.521-.319-.58-.859-.9-1.58-.9-.82 0-1.4.36-1.7 1.021-.26.58-.3 1.36-.3 2.48v1.08h3.94z"/><path d="m706.158 4588.27v-2.98h1.32l.02-.041c-.96-.68-1.46-1.641-1.46-2.86 0-.2.02-.42.08-.64h2.86c-.06.24-.1.539-.1.82 0 1.06.319 1.939 1.16 2.66h5.962v3.041z"/><path d="m711.879 4577.669c1.36-.341 1.98-1.46 1.98-2.86 0-1.101-.38-2.301-1.08-3.341h2.541c.6.96.899 2.44.899 3.741 0 3.24-2.021 5.58-5.101 5.58-3.141 0-5.182-2.439-5.182-5.16 0-2.421 1.601-4.701 4.901-4.701.34 0 .78.02 1.04.06v6.681zm-1.92-3.94c-1.061.18-1.7.96-1.7 1.939 0 .941.58 1.761 1.7 2.021z"/><path d="m715.46 4562.188c.46.66.76 1.541.76 2.501 0 2.48-1.92 4.621-4.94 4.621-3.101 0-5.342-2.261-5.342-5.201 0-.74.141-1.341.36-1.86l-.02-.04h-5.562v-3.04h15.284v2.98h-.521zm-6.621.02c-.221.44-.381.98-.381 1.581 0 1.6 1.2 2.46 2.681 2.46 1.461 0 2.601-.841 2.601-2.341 0-.66-.22-1.26-.5-1.7z"/><path d="m701.297 4554.95c0-.96.78-1.76 1.74-1.76s1.74.8 1.74 1.76c0 .961-.78 1.761-1.74 1.761s-1.74-.8-1.74-1.761zm4.861 1.52v-3.04h9.842v3.04z"/><path d="m715.46 4542.629c.521.939.76 2.1.76 3.221 0 3.16-2.16 5.48-5.121 5.48-3.101 0-5.161-2.561-5.161-5.641 0-1.101.261-2.121.66-2.922h2.821c-.561.881-.921 1.842-.921 2.781 0 1.621 1.101 2.74 2.581 2.74 1.5 0 2.561-1.14 2.561-2.78 0-.96-.36-2.061-.98-2.88h2.8z"/><path d="m715.68 4533.929c.301.46.54 1.36.54 2.22 0 1.001-.319 1.941-.979 2.561-.561.521-1.381.861-2.941.861h-3.62v1.6h-2.521v-1.6h-2.561l-.521-3.041h3.081v-2.601h2.521v2.601h3.301c.96 0 1.68-.221 1.68-1.141 0-.5-.2-1.061-.399-1.46z"/><path d="m711.879 4529.59c1.36-.34 1.98-1.461 1.98-2.861 0-1.1-.38-2.3-1.08-3.34h2.541c.6.96.899 2.44.899 3.74 0 3.241-2.021 5.582-5.101 5.582-3.141 0-5.182-2.441-5.182-5.162 0-2.42 1.601-4.701 4.901-4.701.34 0 .78.021 1.04.061v6.681zm-1.92-3.941c-1.061.181-1.7.961-1.7 1.941 0 .939.58 1.76 1.7 2.02z"/><path d="m715.46 4514.11c.46.66.76 1.54.76 2.5 0 2.48-1.92 4.621-4.94 4.621-3.101 0-5.342-2.26-5.342-5.201 0-.74.141-1.34.36-1.86l-.02-.04h-5.562v-3.041h15.284v2.98h-.521zm-6.621.019c-.221.44-.381.98-.381 1.58 0 1.601 1.2 2.461 2.681 2.461 1.461 0 2.601-.84 2.601-2.34 0-.66-.22-1.261-.5-1.701z"/><path d="m715.46 4496.89c.46.66.76 1.54.76 2.5 0 2.48-1.92 4.621-4.94 4.621-3.101 0-5.342-2.261-5.342-5.201 0-.74.141-1.34.36-1.86l-.02-.04h-5.562v-3.041h15.284v2.981h-.521zm-6.621.02c-.221.44-.381.98-.381 1.58 0 1.601 1.2 2.461 2.681 2.461 1.461 0 2.601-.84 2.601-2.341 0-.66-.22-1.26-.5-1.7z"/><path d="m701.297 4489.651c0-.961.78-1.761 1.74-1.761s1.74.8 1.74 1.761c0 .96-.78 1.76-1.74 1.76s-1.74-.8-1.74-1.76zm4.861 1.519v-3.04h9.842v3.04z"/><path d="m712.739 4485.711c.8-1.36 1.141-2.94 1.141-3.881 0-.84-.221-1.34-.761-1.34-.76 0-.68 1.1-1.06 2.58-.461 1.86-1.24 2.961-2.861 2.961-2.08-.02-3.261-1.86-3.261-4.301 0-1.181.24-2.641.78-3.761h2.621c-.74 1.3-1.061 2.82-1.061 3.7 0 .801.24 1.28.7 1.28.72 0 .66-1.06 1.021-2.521.46-1.88 1.18-3.021 2.88-3.021 2.161.021 3.341 1.9 3.341 4.421 0 1.181-.239 2.701-.82 3.881h-2.66z"/><path d="m715.68 4468.99c.301.46.54 1.36.54 2.221 0 1-.319 1.94-.979 2.561-.561.52-1.381.86-2.941.86h-3.62v1.6h-2.521v-1.6h-2.561l-.521-3.041h3.081v-2.601h2.521v2.601h3.301c.96 0 1.68-.22 1.68-1.141 0-.5-.2-1.06-.399-1.46z"/><path d="m715.399 4461.451c.461.641.82 1.621.82 2.741 0 .84-.2 1.64-.64 2.28-.5.72-1.28 1.16-2.301 1.16-1.08 0-1.9-.5-2.381-1.2-.52-.76-.699-1.74-.699-2.761 0-.58.06-1.16.18-1.7h-.38c-.48 0-.841.16-1.04.38-.261.28-.421.8-.421 1.521 0 1.101.36 2.101.78 2.881h-2.62c-.4-.801-.761-2.001-.761-3.441 0-1.32.301-2.5.94-3.28.601-.74 1.48-1.101 2.721-1.101h3.341c.46 0 .78-.18.78-.6 0-.16-.04-.34-.12-.5h2.28c.18.34.3.88.3 1.46 0 .8-.22 1.58-.78 2.12v.04zm-3.259.52c-.101.32-.141.76-.141 1.08 0 .78.24 1.561 1 1.561.641 0 .98-.561.98-1.261 0-.52-.18-1.02-.4-1.38z"/><path d="m706.158 4456.072v-3h.899l.021-.04c-.62-.761-1.141-1.801-1.141-3.041 0-1.04.36-1.96 1.001-2.58.64-.601 1.5-.86 2.92-.86h6.142v3.041h-5.642c-.74 0-1.1.1-1.38.34-.3.26-.42.62-.42 1.04 0 .78.4 1.521.82 2.061h6.622v3.04h-9.842z"/><path d="m715.46 4435.791c.521.94.76 2.101.76 3.221 0 3.161-2.16 5.481-5.121 5.481-3.101 0-5.161-2.561-5.161-5.642 0-1.1.261-2.12.66-2.92h2.821c-.561.88-.921 1.84-.921 2.78 0 1.62 1.101 2.74 2.581 2.74 1.5 0 2.561-1.14 2.561-2.78 0-.96-.36-2.061-.98-2.881h2.8z"/><path d="m711.879 4431.032c1.36-.34 1.98-1.46 1.98-2.86 0-1.101-.38-2.301-1.08-3.341h2.541c.6.96.899 2.44.899 3.74 0 3.241-2.021 5.582-5.101 5.582-3.141 0-5.182-2.441-5.182-5.161 0-2.421 1.601-4.701 4.901-4.701.34 0 .78.02 1.04.06v6.681zm-1.92-3.941c-1.061.18-1.7.96-1.7 1.94 0 .939.58 1.76 1.7 2.02z"/><path d="m706.158 4418.232v-3.16l3.101-1.001c.979-.319 1.9-.6 2.841-.859v-.04c-.921-.28-1.9-.601-2.841-.921l-3.101-1.06v-2.261l3.101-1.04c1.02-.34 1.9-.62 2.841-.9v-.04c-.94-.26-1.841-.54-2.841-.86l-3.101-1v-2.94l9.842 3.36v2.841l-2.62.88c-.961.32-1.921.62-2.821.881v.04c.9.26 1.82.56 2.801.899l2.641.9v2.921z"/><path d="m715.399 4395.331c.461.641.82 1.621.82 2.741 0 .84-.2 1.64-.64 2.28-.5.72-1.28 1.16-2.301 1.16-1.08 0-1.9-.5-2.381-1.2-.52-.76-.699-1.74-.699-2.761 0-.58.06-1.16.18-1.7h-.38c-.48 0-.841.16-1.04.38-.261.28-.421.8-.421 1.521 0 1.101.36 2.101.78 2.881h-2.62c-.4-.801-.761-2.001-.761-3.441 0-1.32.301-2.5.94-3.28.601-.74 1.48-1.101 2.721-1.101h3.341c.46 0 .78-.18.78-.6 0-.16-.04-.34-.12-.5h2.28c.18.34.3.88.3 1.46 0 .8-.22 1.58-.78 2.12v.04zm-3.259.52c-.101.32-.141.76-.141 1.08 0 .78.24 1.561 1 1.561.641 0 .98-.561.98-1.261 0-.52-.18-1.02-.4-1.38z"/><path d="m700.717 4389.953v-3.04h15.283v3.04z"/><path d="m700.717 4384.212v-3.04h9.602l.021-.04-4.181-3.44v-3.461l4.4 3.761 5.441-4.041v3.601l-5.021 3.581.021.04h5v3.04h-15.283z"/><path d="m711.879 4370.712c1.36-.34 1.98-1.46 1.98-2.86 0-1.101-.38-2.301-1.08-3.341h2.541c.6.96.899 2.44.899 3.74 0 3.241-2.021 5.581-5.101 5.581-3.141 0-5.182-2.44-5.182-5.16 0-2.421 1.601-4.701 4.901-4.701.34 0 .78.02 1.04.06v6.681zm-1.92-3.94c-1.061.18-1.7.96-1.7 1.939 0 .94.58 1.761 1.7 2.021z"/><path d="m715.46 4355.231c.46.66.76 1.54.76 2.501 0 2.48-1.92 4.621-4.94 4.621-3.101 0-5.342-2.261-5.342-5.201 0-.74.141-1.341.36-1.86l-.02-.04h-5.562v-3.041h15.284v2.98h-.521zm-6.621.02c-.221.439-.381.979-.381 1.58 0 1.601 1.2 2.46 2.681 2.46 1.461 0 2.601-.84 2.601-2.34 0-.66-.22-1.261-.5-1.7z"/><path d="m712.939 4348.813v-2.781l6.001 1.801v2.101z"/><path d="m710.318 4325.57c-.739 0-1.08.12-1.34.36-.3.28-.42.641-.42 1.04 0 .7.36 1.421.82 1.94.14-.02.3-.02.439-.02h6.183v3.04h-5.682c-.66 0-1.06.101-1.34.36-.3.28-.42.641-.42 1.04 0 .7.38 1.421.8 1.921h6.642v3.04h-9.842v-3h.88l.02-.04c-.64-.761-1.12-1.761-1.12-2.961 0-1.061.421-2.28 1.4-2.86-.939-1.061-1.4-2.221-1.4-3.461 0-1.101.381-1.96.98-2.54.641-.62 1.5-.9 2.9-.9h6.182v3.04h-5.682z"/><path d="m711.879 4317.373c1.36-.34 1.98-1.46 1.98-2.86 0-1.101-.38-2.301-1.08-3.341h2.541c.6.96.899 2.44.899 3.74 0 3.241-2.021 5.581-5.101 5.581-3.141 0-5.182-2.44-5.182-5.16 0-2.421 1.601-4.701 4.901-4.701.34 0 .78.02 1.04.06v6.681zm-1.92-3.941c-1.061.18-1.7.96-1.7 1.939 0 .94.58 1.761 1.7 2.021z"/><path d="m715.46 4301.892c.46.66.76 1.54.76 2.501 0 2.48-1.92 4.621-4.94 4.621-3.101 0-5.342-2.261-5.342-5.201 0-.74.141-1.341.36-1.86l-.02-.04h-5.562v-3.041h15.284v2.98h-.521zm-6.621.021c-.221.439-.381.979-.381 1.58 0 1.601 1.2 2.46 2.681 2.46 1.461 0 2.601-.84 2.601-2.34 0-.66-.22-1.261-.5-1.7z"/><path d="m701.297 4294.654c0-.961.78-1.761 1.74-1.761s1.74.8 1.74 1.761c0 .96-.78 1.76-1.74 1.76s-1.74-.8-1.74-1.76zm4.861 1.519v-3.04h9.842v3.04z"/><path d="m715.399 4284.892c.461.641.82 1.621.82 2.741 0 .84-.2 1.64-.64 2.28-.5.72-1.28 1.16-2.301 1.16-1.08 0-1.9-.5-2.381-1.2-.52-.76-.699-1.74-.699-2.761 0-.58.06-1.16.18-1.7h-.38c-.48 0-.841.16-1.04.38-.261.28-.421.8-.421 1.521 0 1.101.36 2.101.78 2.881h-2.62c-.4-.801-.761-2.001-.761-3.441 0-1.32.301-2.5.94-3.28.601-.74 1.48-1.101 2.721-1.101h3.341c.46 0 .78-.18.78-.6 0-.16-.04-.34-.12-.5h2.28c.18.34.3.88.3 1.46 0 .8-.22 1.58-.78 2.12v.04zm-3.259.521c-.101.32-.141.76-.141 1.08 0 .78.24 1.561 1 1.561.641 0 .98-.561.98-1.261 0-.52-.18-1.02-.4-1.38z"/><path d="m706.158 4279.513v-3h.899l.021-.04c-.62-.761-1.141-1.801-1.141-3.041 0-1.04.36-1.96 1.001-2.58.64-.601 1.5-.86 2.92-.86h6.142v3.041h-5.642c-.74 0-1.1.1-1.38.34-.3.26-.42.62-.42 1.04 0 .78.4 1.521.82 2.061h6.622v3.04h-9.842z"/><path d="m720.261 4259.374c-2.061 1.641-5.281 2.94-9.562 2.94s-7.502-1.3-9.562-2.94v-2.82c2.181 1.68 5.521 3.021 9.562 3.021 4.04 0 7.381-1.341 9.562-3.021z"/><path d="m705.038 4255.174c-2.141 0-3.741-1.38-3.741-3.601s1.601-3.601 3.741-3.601 3.74 1.38 3.74 3.601-1.6 3.601-3.74 3.601zm-3.521-12.162v-2.041l14.483 9.462v2.041zm3.521 7.022c-1.041 0-1.881.6-1.881 1.54s.84 1.54 1.881 1.54c1.04 0 1.88-.6 1.88-1.54s-.84-1.54-1.88-1.54zm3.7-8.162c0-2.221 1.601-3.601 3.741-3.601s3.74 1.38 3.74 3.601-1.6 3.601-3.74 3.601-3.741-1.381-3.741-3.601zm5.621 0c0-.94-.84-1.54-1.88-1.54s-1.881.6-1.881 1.54.841 1.54 1.881 1.54 1.88-.6 1.88-1.54z"/><path d="m710.699 4233.875c-4.041 0-7.382 1.34-9.562 3.021v-2.821c2.061-1.64 5.281-2.94 9.562-2.94 4.28 0 7.501 1.301 9.562 2.94v2.821c-2.181-1.682-5.522-3.021-9.562-3.021z"/></g><path d="m707.875 4228.178v-2.054h-2.965v2.054h-1.471v-2.054h-2.557v-1.646h2.557v-2.054h1.471v2.054h2.965v-2.054h1.471v2.054h2.557v1.646h-2.557v2.054z" fill="#005d55"/><g enable-background="new" fill="#005d55"><path d="m821.973 4274.752c-.658-.883-1.274-1.737-1.905-2.62l-.028.015c.014.966.028 1.946.028 2.928v3.768h-2.144v-10.143h2.101l3.04 4.091c.658.882 1.274 1.736 1.905 2.619l.028-.015c-.014-.966-.028-1.946-.028-2.927v-3.769h2.143v10.142h-2.101z"/><path d="m832.458 4271.796c2.199 0 3.838 1.569 3.838 3.6s-1.639 3.601-3.838 3.601-3.838-1.569-3.838-3.601c0-2.031 1.639-3.6 3.838-3.6zm0 5.365c.967 0 1.709-.784 1.709-1.766 0-.98-.742-1.765-1.709-1.765-.966 0-1.709.784-1.709 1.765 0 .982.743 1.766 1.709 1.766z"/><path d="m837.762 4271.95h2.087v.925l.028.014c.476-.673 1.149-1.022 2.003-1.022.14 0 .294.014.448.056v2.003c-.168-.042-.378-.069-.574-.069-.742 0-1.358.224-1.863.812v4.174h-2.129z"/><path d="m852.425 4274.863c0-.518-.084-.756-.252-.938-.196-.21-.448-.294-.729-.294-.49 0-.994.252-1.358.574.014.099.014.21.014.309v4.328h-2.129v-3.979c0-.462-.07-.742-.252-.938-.196-.21-.448-.294-.729-.294-.49 0-.995.267-1.345.561v4.65h-2.129v-6.892h2.101v.616l.028.014c.532-.448 1.232-.784 2.073-.784.742 0 1.597.294 2.003.98.742-.658 1.555-.98 2.423-.98.771 0 1.373.267 1.779.687.434.448.63 1.051.63 2.031v4.328h-2.129v-3.979z"/><path d="m860.304 4278.422c-.448.322-1.135.574-1.919.574-.588 0-1.149-.141-1.597-.448-.504-.351-.812-.896-.812-1.611 0-.756.351-1.33.841-1.667.532-.364 1.218-.49 1.933-.49.406 0 .812.042 1.191.126v-.266c0-.336-.112-.589-.266-.729-.196-.182-.561-.294-1.064-.294-.771 0-1.471.252-2.017.546v-1.835c.56-.28 1.4-.532 2.409-.532.924 0 1.751.21 2.297.658.518.421.77 1.037.77 1.905v2.339c0 .322.126.547.42.547.112 0 .238-.028.35-.084v1.597c-.238.126-.616.21-1.022.21-.56 0-1.106-.154-1.485-.546zm-.364-2.283c-.224-.07-.532-.099-.756-.099-.546 0-1.093.168-1.093.7 0 .448.392.687.882.687.364 0 .714-.126.967-.28z"/><path d="m864.082 4268.14h2.129v10.702h-2.129z"/><path d="m871.572 4271.95h2.087v.925l.028.014c.476-.673 1.149-1.022 2.003-1.022.14 0 .294.014.448.056v2.003c-.168-.042-.378-.069-.574-.069-.742 0-1.358.224-1.863.812v4.174h-2.129z"/><path d="m880.912 4278.422c-.448.322-1.135.574-1.919.574-.588 0-1.149-.141-1.597-.448-.504-.351-.812-.896-.812-1.611 0-.756.35-1.33.841-1.667.532-.364 1.218-.49 1.933-.49.406 0 .812.042 1.191.126v-.266c0-.336-.112-.589-.266-.729-.196-.182-.561-.294-1.064-.294-.771 0-1.471.252-2.017.546v-1.835c.56-.28 1.4-.532 2.409-.532.924 0 1.751.21 2.297.658.518.421.77 1.037.77 1.905v2.339c0 .322.126.547.42.547.112 0 .238-.028.35-.084v1.597c-.238.126-.616.21-1.022.21-.561 0-1.106-.154-1.485-.546zm-.364-2.283c-.224-.07-.532-.099-.756-.099-.546 0-1.093.168-1.093.7 0 .448.392.687.882.687.364 0 .715-.126.967-.28z"/><path d="m884.689 4271.95h2.101v.63l.028.015c.532-.435 1.261-.799 2.129-.799.729 0 1.373.252 1.807.7.42.448.603 1.051.603 2.045v4.301h-2.129v-3.95c0-.519-.07-.771-.238-.967-.182-.21-.434-.294-.728-.294-.546 0-1.065.28-1.443.574v4.637h-2.129v-6.892z"/><path d="m893.79 4279.557c.7.434 1.499.7 2.227.7 1.037 0 1.681-.532 1.681-1.555v-.379l-.028-.014c-.406.294-1.037.462-1.611.462-1.667 0-3.208-1.288-3.208-3.376 0-2.017 1.443-3.6 3.586-3.6.658 0 1.232.154 1.723.393l1.667-.294v6.808c0 2.171-1.485 3.375-3.684 3.375-.882 0-1.751-.21-2.353-.504zm3.908-5.702c-.266-.141-.672-.253-1.051-.253-1.106 0-1.639.812-1.639 1.709 0 1.009.616 1.724 1.611 1.724.378 0 .784-.112 1.079-.295z"/><path d="m903.506 4275.956c.238.953 1.022 1.387 2.003 1.387.77 0 1.611-.266 2.339-.756v1.778c-.672.421-1.709.631-2.619.631-2.27 0-3.908-1.415-3.908-3.572 0-2.199 1.709-3.628 3.614-3.628 1.695 0 3.292 1.121 3.292 3.432 0 .238-.014.547-.042.729h-4.679zm2.76-1.345c-.126-.742-.672-1.19-1.359-1.19-.658 0-1.232.406-1.415 1.19z"/><path d="m913.585 4273.715h-.98v-1.765h.98v-1.022c0-.967.196-1.793.729-2.298.49-.476 1.26-.644 1.947-.644.392 0 .799.056 1.177.195v1.724c-.267-.07-.687-.126-.924-.126-.659 0-.799.42-.799 1.008v1.163h1.597v1.765h-1.597v5.127h-2.129v-5.127z"/><path d="m921.902 4271.796c2.199 0 3.838 1.569 3.838 3.6s-1.639 3.601-3.838 3.601-3.838-1.569-3.838-3.601c0-2.031 1.639-3.6 3.838-3.6zm0 5.365c.967 0 1.709-.784 1.709-1.766 0-.98-.742-1.765-1.709-1.765s-1.709.784-1.709 1.765c0 .982.743 1.766 1.709 1.766z"/><path d="m927.207 4271.95h2.087v.925l.028.014c.476-.673 1.148-1.022 2.003-1.022.14 0 .294.014.448.056v2.003c-.168-.042-.379-.069-.574-.069-.743 0-1.359.224-1.863.812v4.174h-2.129z"/><path d="m936.419 4268.14h2.129v4.427l.028.014c.504-.42 1.232-.784 2.101-.784.729 0 1.373.252 1.808.7.42.448.602 1.051.602 2.045v4.301h-2.129v-3.95c0-.519-.07-.771-.238-.967-.182-.21-.434-.294-.729-.294-.546 0-1.064.28-1.442.574v4.637h-2.129v-10.703z"/><path d="m946.71 4275.956c.237.953 1.022 1.387 2.003 1.387.771 0 1.61-.266 2.339-.756v1.778c-.672.421-1.709.631-2.619.631-2.27 0-3.908-1.415-3.908-3.572 0-2.199 1.709-3.628 3.614-3.628 1.694 0 3.291 1.121 3.291 3.432 0 .238-.014.547-.042.729h-4.678zm2.759-1.345c-.126-.742-.672-1.19-1.358-1.19-.658 0-1.232.406-1.415 1.19z"/><path d="m956.833 4278.422c-.448.322-1.135.574-1.919.574-.589 0-1.148-.141-1.597-.448-.505-.351-.812-.896-.812-1.611 0-.756.35-1.33.84-1.667.532-.364 1.219-.49 1.934-.49.406 0 .812.042 1.19.126v-.266c0-.336-.112-.589-.267-.729-.195-.182-.56-.294-1.064-.294-.771 0-1.471.252-2.017.546v-1.835c.561-.28 1.4-.532 2.409-.532.925 0 1.751.21 2.297.658.519.421.771 1.037.771 1.905v2.339c0 .322.126.547.42.547.112 0 .238-.028.351-.084v1.597c-.238.126-.616.21-1.022.21-.561 0-1.106-.154-1.484-.546zm-.364-2.283c-.225-.07-.532-.099-.757-.099-.546 0-1.092.168-1.092.7 0 .448.392.687.882.687.364 0 .715-.126.967-.28z"/><path d="m960.61 4268.14h2.129v10.702h-2.129z"/><path d="m969.11 4278.617c-.322.211-.952.379-1.555.379-.7 0-1.358-.225-1.793-.687-.364-.393-.603-.967-.603-2.06v-2.535h-1.12v-1.765h1.12v-1.793l2.13-.364v2.157h1.82v1.765h-1.82v2.312c0 .672.153 1.177.798 1.177.351 0 .742-.141 1.022-.28v1.694z"/><path d="m970.522 4268.14h2.129v4.427l.028.014c.504-.42 1.232-.784 2.101-.784.729 0 1.373.252 1.808.7.42.448.602 1.051.602 2.045v4.301h-2.129v-3.95c0-.519-.07-.771-.238-.967-.182-.21-.434-.294-.729-.294-.546 0-1.064.28-1.442.574v4.637h-2.129v-10.703z"/><path d="m978.88 4281.924 1.808-3.839-2.802-6.135h2.241l.715 1.709c.308.742.602 1.471.882 2.185h.028c.309-.756.616-1.484.938-2.227l.729-1.667h2.115l-4.482 9.974z"/><path d="m993.975 4278.422c-.448.322-1.135.574-1.919.574-.589 0-1.148-.141-1.597-.448-.505-.351-.812-.896-.812-1.611 0-.756.35-1.33.84-1.667.532-.364 1.219-.49 1.934-.49.406 0 .812.042 1.19.126v-.266c0-.336-.112-.589-.267-.729-.195-.182-.56-.294-1.064-.294-.771 0-1.471.252-2.017.546v-1.835c.561-.28 1.4-.532 2.409-.532.925 0 1.751.21 2.297.658.519.421.771 1.037.771 1.905v2.339c0 .322.126.547.421.547.111 0 .237-.028.35-.084v1.597c-.238.126-.616.21-1.022.21-.561 0-1.106-.154-1.484-.546zm-.365-2.283c-.225-.07-.532-.099-.757-.099-.546 0-1.092.168-1.092.7 0 .448.392.687.882.687.364 0 .715-.126.967-.28z"/><path d="m998.312 4279.557c.701.434 1.499.7 2.228.7 1.037 0 1.681-.532 1.681-1.555v-.379l-.027-.014c-.406.294-1.037.462-1.611.462-1.667 0-3.208-1.288-3.208-3.376 0-2.017 1.443-3.6 3.586-3.6.659 0 1.233.154 1.724.393l1.667-.294v6.808c0 2.171-1.485 3.375-3.685 3.375-.882 0-1.751-.21-2.354-.504v-2.016zm3.908-5.702c-.266-.141-.672-.253-1.05-.253-1.107 0-1.64.812-1.64 1.709 0 1.009.616 1.724 1.611 1.724.378 0 .784-.112 1.078-.295v-2.885z"/><path d="m1008.029 4275.956c.237.953 1.022 1.387 2.003 1.387.771 0 1.61-.266 2.339-.756v1.778c-.672.421-1.709.631-2.619.631-2.27 0-3.908-1.415-3.908-3.572 0-2.199 1.709-3.628 3.614-3.628 1.694 0 3.291 1.121 3.291 3.432 0 .238-.014.547-.042.729h-4.678zm2.759-1.345c-.126-.742-.672-1.19-1.358-1.19-.658 0-1.232.406-1.415 1.19z"/><path d="m1014.034 4274.093h3.46v1.737h-3.46z"/><path d="m1019.648 4276.698h1.946l-1.26 4.203h-1.472z"/><path d="m1026.844 4276.559c.952.561 2.059.799 2.718.799.588 0 .938-.154.938-.533 0-.532-.771-.476-1.808-.742-1.303-.322-2.073-.868-2.073-2.003.015-1.457 1.303-2.283 3.012-2.283.827 0 1.85.168 2.634.546v1.836c-.91-.519-1.976-.743-2.592-.743-.56 0-.896.168-.896.49 0 .505.743.463 1.766.715 1.316.322 2.114.826 2.114 2.017-.014 1.514-1.33 2.34-3.095 2.34-.827 0-1.892-.168-2.718-.574z"/><path d="m1035.847 4275.956c.237.953 1.022 1.387 2.003 1.387.771 0 1.61-.266 2.339-.756v1.778c-.672.421-1.709.631-2.619.631-2.27 0-3.908-1.415-3.908-3.572 0-2.199 1.709-3.628 3.614-3.628 1.694 0 3.291 1.121 3.291 3.432 0 .238-.014.547-.042.729h-4.678zm2.758-1.345c-.126-.742-.672-1.19-1.358-1.19-.658 0-1.232.406-1.415 1.19z"/><path d="m1043.519 4275.158-2.354-3.208h2.367l.519.771c.266.392.504.756.756 1.162h.028c.266-.42.519-.798.756-1.148l.532-.784h2.228l-2.339 3.193 2.675 3.698h-2.437l-.799-1.19c-.28-.421-.519-.784-.742-1.148h-.028c-.224.364-.462.728-.742 1.148l-.799 1.19h-2.283z"/><path d="m1048.642 4274.093h3.46v1.737h-3.46z"/><path d="m1054.256 4276.698h1.946l-1.26 4.203h-1.472z"/><path d="m1065.527 4278.422c-.448.322-1.135.574-1.919.574-.589 0-1.148-.141-1.597-.448-.505-.351-.812-.896-.812-1.611 0-.756.35-1.33.84-1.667.532-.364 1.219-.49 1.934-.49.406 0 .812.042 1.19.126v-.266c0-.336-.112-.589-.267-.729-.195-.182-.56-.294-1.064-.294-.771 0-1.471.252-2.017.546v-1.835c.561-.28 1.4-.532 2.409-.532.925 0 1.751.21 2.297.658.519.421.771 1.037.771 1.905v2.339c0 .322.126.547.421.547.111 0 .237-.028.35-.084v1.597c-.238.126-.616.21-1.022.21-.561 0-1.106-.154-1.484-.546zm-.364-2.283c-.225-.07-.532-.099-.757-.099-.546 0-1.092.168-1.092.7 0 .448.392.687.882.687.364 0 .715-.126.967-.28z"/><path d="m1069.306 4271.95h2.101v.63l.028.015c.532-.435 1.261-.799 2.129-.799.729 0 1.373.252 1.808.7.42.448.602 1.051.602 2.045v4.301h-2.129v-3.95c0-.519-.07-.771-.238-.967-.182-.21-.434-.294-.729-.294-.546 0-1.064.28-1.442.574v4.637h-2.129v-6.892z"/><path d="m1082.454 4278.464c-.463.322-1.079.532-1.751.532-1.737 0-3.236-1.345-3.236-3.46 0-2.171 1.583-3.74 3.643-3.74.518 0 .938.099 1.303.252l.027-.014v-3.895h2.13v10.702h-2.088v-.364zm-.015-4.637c-.308-.154-.686-.267-1.106-.267-1.12 0-1.723.841-1.723 1.877 0 1.023.588 1.821 1.639 1.821.463 0 .883-.154 1.19-.35z"/></g><g enable-background="new" fill="#005d55"><path d="m817.882 4287.14h2.129v4.427l.028.014c.504-.42 1.233-.784 2.101-.784.729 0 1.373.252 1.807.7.42.448.603 1.051.603 2.045v4.301h-2.129v-3.95c0-.519-.07-.771-.238-.967-.182-.21-.434-.294-.728-.294-.546 0-1.065.28-1.443.574v4.637h-2.129v-10.703z"/><path d="m828.173 4294.956c.238.953 1.022 1.387 2.003 1.387.77 0 1.611-.266 2.339-.756v1.778c-.672.421-1.709.631-2.619.631-2.27 0-3.908-1.415-3.908-3.572 0-2.199 1.709-3.628 3.614-3.628 1.695 0 3.292 1.121 3.292 3.432 0 .238-.014.547-.042.729h-4.679zm2.76-1.345c-.126-.742-.672-1.19-1.359-1.19-.658 0-1.232.406-1.415 1.19z"/><path d="m835.481 4287.546c.672 0 1.232.547 1.232 1.219 0 .673-.56 1.219-1.232 1.219s-1.233-.546-1.233-1.219c0-.672.561-1.219 1.233-1.219zm-1.065 3.404h2.129v6.892h-2.129z"/><path d="m839.009 4298.557c.7.434 1.499.7 2.227.7 1.037 0 1.681-.532 1.681-1.555v-.379l-.028-.014c-.406.294-1.037.462-1.611.462-1.667 0-3.208-1.288-3.208-3.376 0-2.017 1.443-3.6 3.586-3.6.658 0 1.232.154 1.723.393l1.667-.294v6.808c0 2.171-1.485 3.375-3.684 3.375-.882 0-1.751-.21-2.353-.504zm3.908-5.702c-.266-.141-.672-.253-1.051-.253-1.106 0-1.639.812-1.639 1.709 0 1.009.616 1.724 1.611 1.724.378 0 .784-.112 1.079-.295z"/><path d="m846.974 4287.14h2.129v4.427l.028.014c.504-.42 1.233-.784 2.101-.784.729 0 1.373.252 1.807.7.42.448.603 1.051.603 2.045v4.301h-2.129v-3.95c0-.519-.07-.771-.238-.967-.182-.21-.434-.294-.728-.294-.546 0-1.065.28-1.443.574v4.637h-2.129v-10.703z"/><path d="m859.982 4297.617c-.322.211-.953.379-1.555.379-.7 0-1.358-.225-1.793-.687-.364-.393-.602-.967-.602-2.06v-2.535h-1.121v-1.765h1.121v-1.793l2.129-.364v2.157h1.821v1.765h-1.821v2.312c0 .672.154 1.177.798 1.177.351 0 .743-.141 1.023-.28z"/><path d="m861.156 4293.093h3.459v1.737h-3.459z"/><path d="m875.189 4293.863c0-.518-.084-.756-.252-.938-.196-.21-.448-.294-.729-.294-.49 0-.994.252-1.358.574.014.099.014.21.014.309v4.328h-2.129v-3.979c0-.462-.07-.742-.252-.938-.196-.21-.448-.294-.729-.294-.49 0-.995.267-1.345.561v4.65h-2.129v-6.892h2.101v.616l.028.014c.532-.448 1.232-.784 2.073-.784.742 0 1.597.294 2.003.98.742-.658 1.555-.98 2.423-.98.771 0 1.373.267 1.779.687.434.448.63 1.051.63 2.031v4.328h-2.129v-3.979z"/><path d="m883.068 4297.422c-.448.322-1.135.574-1.919.574-.588 0-1.149-.141-1.597-.448-.504-.351-.812-.896-.812-1.611 0-.756.351-1.33.841-1.667.532-.364 1.218-.49 1.933-.49.406 0 .812.042 1.191.126v-.266c0-.336-.112-.589-.266-.729-.196-.182-.561-.294-1.064-.294-.771 0-1.471.252-2.017.546v-1.835c.56-.28 1.4-.532 2.409-.532.924 0 1.751.21 2.297.658.518.421.77 1.037.77 1.905v2.339c0 .322.126.547.42.547.112 0 .238-.028.35-.084v1.597c-.238.126-.616.21-1.022.21-.56 0-1.106-.154-1.485-.546zm-.364-2.283c-.224-.07-.532-.099-.756-.099-.546 0-1.093.168-1.093.7 0 .448.392.687.882.687.364 0 .714-.126.967-.28z"/><path d="m891.314 4297.617c-.322.211-.953.379-1.555.379-.7 0-1.358-.225-1.793-.687-.364-.393-.602-.967-.602-2.06v-2.535h-1.121v-1.765h1.121v-1.793l2.129-.364v2.157h1.821v1.765h-1.821v2.312c0 .672.154 1.177.798 1.177.351 0 .743-.141 1.023-.28z"/><path d="m898.287 4297.464c-.659.364-1.471.532-2.255.532-2.213 0-3.838-1.513-3.838-3.586 0-2.172 1.793-3.614 3.95-3.614.77 0 1.484.183 2.045.462v1.976c-.616-.393-1.289-.645-1.947-.645-1.134 0-1.919.771-1.919 1.807 0 1.051.798 1.793 1.947 1.793.672 0 1.443-.252 2.017-.686z"/><path d="m899.921 4287.14h2.129v4.427l.028.014c.504-.42 1.233-.784 2.101-.784.729 0 1.373.252 1.807.7.42.448.603 1.051.603 2.045v4.301h-2.129v-3.95c0-.519-.07-.771-.238-.967-.182-.21-.434-.294-.728-.294-.546 0-1.065.28-1.443.574v4.637h-2.129v-10.703z"/><path d="m910.212 4294.956c.238.953 1.022 1.387 2.003 1.387.77 0 1.611-.266 2.339-.756v1.778c-.672.421-1.708.631-2.619.631-2.27 0-3.908-1.415-3.908-3.572 0-2.199 1.709-3.628 3.614-3.628 1.695 0 3.292 1.121 3.292 3.432 0 .238-.014.547-.042.729h-4.679zm2.76-1.345c-.126-.742-.672-1.19-1.359-1.19-.658 0-1.233.406-1.415 1.19z"/><path d="m921.063 4297.464c-.463.322-1.079.532-1.751.532-1.737 0-3.236-1.345-3.236-3.46 0-2.171 1.583-3.74 3.642-3.74.518 0 .938.099 1.303.252l.027-.014v-3.895h2.13v10.702h-2.088v-.364zm-.014-4.637c-.308-.154-.686-.267-1.106-.267-1.12 0-1.723.841-1.723 1.877 0 1.023.588 1.821 1.639 1.821.463 0 .883-.154 1.19-.35z"/><path d="m930.666 4300.924h-2.129v-9.974h2.087v.35l.028.015c.448-.309 1.022-.519 1.709-.519 1.765 0 3.264 1.4 3.264 3.544 0 2.213-1.583 3.656-3.601 3.656-.56 0-1.009-.112-1.33-.267l-.028.015zm1.093-4.651c1.106 0 1.723-.799 1.723-1.821 0-1.037-.616-1.877-1.667-1.877-.435 0-.841.154-1.148.378v3.054c.265.139.657.266 1.092.266z"/><path d="m938.884 4294.956c.237.953 1.022 1.387 2.003 1.387.771 0 1.61-.266 2.339-.756v1.778c-.672.421-1.709.631-2.619.631-2.27 0-3.908-1.415-3.908-3.572 0-2.199 1.709-3.628 3.614-3.628 1.694 0 3.291 1.121 3.291 3.432 0 .238-.014.547-.042.729h-4.678zm2.759-1.345c-.126-.742-.672-1.19-1.358-1.19-.658 0-1.232.406-1.415 1.19z"/><path d="m946.878 4294.956c.237.953 1.022 1.387 2.003 1.387.771 0 1.61-.266 2.339-.756v1.778c-.672.421-1.709.631-2.619.631-2.27 0-3.908-1.415-3.908-3.572 0-2.199 1.709-3.628 3.614-3.628 1.694 0 3.291 1.121 3.291 3.432 0 .238-.014.547-.042.729h-4.678zm2.759-1.345c-.126-.742-.672-1.19-1.358-1.19-.658 0-1.232.406-1.415 1.19z"/><path d="m953.121 4290.95h2.087v.925l.028.014c.476-.673 1.148-1.022 2.003-1.022.14 0 .294.014.448.056v2.003c-.168-.042-.379-.069-.574-.069-.743 0-1.359.224-1.863.812v4.174h-2.129z"/><path d="m958.678 4295.559c.952.561 2.059.799 2.718.799.588 0 .938-.154.938-.533 0-.532-.771-.476-1.808-.742-1.303-.322-2.073-.868-2.073-2.003.015-1.457 1.303-2.283 3.012-2.283.827 0 1.85.168 2.634.546v1.836c-.91-.519-1.976-.743-2.592-.743-.56 0-.896.168-.896.49 0 .505.743.463 1.766.715 1.316.322 2.114.826 2.114 2.017-.014 1.514-1.33 2.34-3.095 2.34-.827 0-1.892-.168-2.718-.574z"/></g><path d="m1095.387 4596.798h1v9.56h-1z" fill="#7db959"/><g enable-background="new" fill="#fff" transform="translate(0 95.636)"><path d="m1083.484 4223.324c1.58.601 2.439 1.94 2.439 3.501 0 2.601-2.32 4.381-5.461 4.381s-5.461-1.78-5.461-4.381c0-1.561.86-2.9 2.441-3.501v-.039c-1.281-.501-1.98-1.641-1.98-2.961 0-2.32 2.18-4.041 5-4.041 2.821 0 5.002 1.721 5.002 4.041 0 1.32-.701 2.46-1.98 2.961zm-.82 3.281c0-1.16-.98-2.021-2.201-2.021-1.22 0-2.2.86-2.2 2.021 0 1.141.94 1.98 2.2 1.98 1.261 0 2.201-.839 2.201-1.98zm-.28-6.001c0-.98-.841-1.721-1.921-1.721s-1.92.74-1.92 1.721c0 1 .86 1.74 1.92 1.74s1.921-.74 1.921-1.74z"/><path d="m1096.544 4223.324c1.581.601 2.44 1.94 2.44 3.501 0 2.601-2.32 4.381-5.461 4.381s-5.461-1.78-5.461-4.381c0-1.561.859-2.9 2.44-3.501v-.039c-1.28-.501-1.98-1.641-1.98-2.961 0-2.32 2.181-4.041 5.001-4.041s5.001 1.721 5.001 4.041c0 1.32-.7 2.46-1.98 2.961zm-.819 3.281c0-1.16-.98-2.021-2.201-2.021s-2.201.86-2.201 2.021c0 1.141.941 1.98 2.201 1.98s2.201-.839 2.201-1.98zm-.282-6.001c0-.98-.84-1.721-1.92-1.721s-1.92.74-1.92 1.721c0 1 .859 1.74 1.92 1.74s1.92-.74 1.92-1.74z"/><path d="m1101.002 4220.024c0-2.141 1.381-3.741 3.602-3.741s3.6 1.601 3.6 3.741-1.379 3.74-3.6 3.74-3.602-1.6-3.602-3.74zm5.142 0c0-1.041-.601-1.881-1.54-1.881-.941 0-1.541.84-1.541 1.881 0 1.04.6 1.88 1.541 1.88.939 0 1.54-.84 1.54-1.88zm7.021-3.522h2.04l-9.462 14.483h-2.04zm1.14 7.222c2.221 0 3.602 1.601 3.602 3.741s-1.381 3.74-3.602 3.74-3.6-1.6-3.6-3.74 1.379-3.741 3.6-3.741zm0 5.621c.94 0 1.541-.84 1.541-1.88s-.601-1.881-1.541-1.881c-.939 0-1.54.841-1.54 1.881s.6 1.88 1.54 1.88z"/></g><g enable-background="new" fill="#343434" transform="translate(0 95.636)"><path d="m1069.29 4527.267c.973.721 2.071 1.062 3.151 1.062 1.692 0 2.917-.864 2.917-2.305 0-2.017-2.377-2.538-4.195-2.538-.469 0-.99.036-1.459.107l.522-6.914h6.482l-.126 1.549h-4.771l-.271 3.763c2.701 0 5.527.99 5.527 3.962 0 2.412-1.891 3.961-4.627 3.961-1.278 0-2.449-.343-3.277-.864z"/><path d="m1084.32 4533.677 2.395-4.915-3.691-7.904h1.801l1.549 3.349c.414.9.846 1.854 1.206 2.665h.036c.396-.883.792-1.765 1.206-2.665l1.549-3.349h1.71l-5.995 12.819z"/><path d="m1094.383 4525.755c.234 1.746 1.53 2.7 3.276 2.7 1.225 0 2.251-.485 3.062-1.098v1.729c-.792.504-2.017.828-3.169.828-2.737 0-4.79-1.837-4.79-4.628 0-2.79 2.035-4.627 4.412-4.627 2.16 0 4.033 1.513 4.033 4.285 0 .271-.019.594-.055.811zm.036-1.278h5.222c-.145-1.765-1.44-2.359-2.503-2.359-1.171-.001-2.431.72-2.719 2.359z"/><path d="m1104.012 4529.284c-.576-.433-.937-1.099-.937-1.963 0-.99.469-1.711 1.171-2.161.666-.432 1.566-.594 2.484-.594.685 0 1.314.09 1.891.234v-.738c0-.648-.162-1.135-.504-1.459-.342-.306-.883-.486-1.639-.486-1.116 0-2.053.396-2.719.883v-1.585c.685-.414 1.639-.756 2.953-.756 1.08 0 2.017.234 2.646.811.522.468.883 1.224.883 2.322v3.764c0 .54.197.936.684.936.181 0 .378-.054.522-.126v1.351c-.216.09-.522.162-.864.162-.702 0-1.368-.307-1.711-.937h-.036c-.504.469-1.53.973-2.719.973-.719-.001-1.511-.182-2.105-.631zm4.609-1.585v-1.656c-.486-.145-1.17-.234-1.729-.234-1.099 0-2.179.324-2.179 1.368 0 .864.738 1.297 1.692 1.297.848 0 1.676-.342 2.216-.775z"/><path d="m1113.408 4520.857h1.62v1.296l.036.019c.612-.864 1.585-1.387 2.629-1.387.18 0 .378.018.576.072v1.603c-.216-.055-.433-.072-.63-.072-1.207 0-2.053.612-2.611 1.566v5.762h-1.62z"/><path d="m1119.924 4527.501c1.008.648 2.286.954 3.385.954 1.225 0 2.017-.359 2.017-1.224 0-1.062-1.278-1.081-2.646-1.314-1.692-.288-3.025-.793-3.025-2.539.019-1.837 1.585-2.719 3.638-2.719 1.062 0 2.286.234 3.169.702v1.62c-.991-.576-2.215-.864-3.241-.864-1.135 0-1.927.343-1.927 1.135 0 1.008 1.261 1.008 2.575 1.242 1.692.288 3.097.757 3.097 2.593 0 2.053-1.837 2.827-3.728 2.827-1.134 0-2.395-.234-3.312-.721v-1.692z"/></g><g enable-background="new" fill="#343434" transform="translate(0 95.636)"><path d="m1080.403 4537.309h1.247c-1.177 1.526-2.102 3.865-2.102 6.695 0 2.829.925 5.169 2.102 6.695h-1.247c-1.092-1.429-2.017-3.698-2.017-6.695.001-2.998.926-5.267 2.017-6.695z"/><path d="m1083.511 4540.824h1.261v.868l.028.015c.602-.603 1.442-1.037 2.409-1.037.756 0 1.4.267 1.835.757.378.434.574.966.574 2.031v4.258h-1.261v-4.021c0-.714-.099-1.134-.322-1.4-.28-.336-.729-.448-1.106-.448-.784 0-1.667.49-2.157 1.148v4.721h-1.261z"/><path d="m1091.574 4540.712h6.752v1.009h-6.752zm0 2.857h6.752v1.009h-6.752z"/><path d="m1102.607 4539.213-2.325.896v-1.274l3.656-1.415v10.296h-1.331z"/><path d="m1109.873 4539.213-2.325.896v-1.274l3.656-1.415v10.296h-1.331z"/><path d="m1116.453 4544.004c0-2.83-.925-5.169-2.102-6.695h1.247c1.093 1.429 2.017 3.697 2.017 6.695 0 2.997-.924 5.267-2.017 6.695h-1.247c1.177-1.526 2.102-3.866 2.102-6.695z"/></g></g><g enable-background="new" fill="#fff"><path d="m954.484 6115.824c1.58.601 2.439 1.94 2.439 3.501 0 2.601-2.32 4.381-5.461 4.381s-5.461-1.78-5.461-4.381c0-1.561.86-2.9 2.441-3.501v-.039c-1.281-.501-1.98-1.641-1.98-2.961 0-2.32 2.18-4.041 5-4.041 2.821 0 5.002 1.721 5.002 4.041 0 1.32-.701 2.46-1.98 2.961zm-.82 3.281c0-1.16-.98-2.021-2.201-2.021-1.22 0-2.2.86-2.2 2.021 0 1.141.94 1.98 2.2 1.98 1.261 0 2.201-.839 2.201-1.98zm-.28-6.001c0-.98-.841-1.721-1.921-1.721s-1.92.74-1.92 1.721c0 1 .86 1.74 1.92 1.74s1.921-.74 1.921-1.74z"/><path d="m959.162 6119.985c1.16.58 2.4.921 3.541.921 1.6 0 2.701-.66 2.701-1.781 0-1.68-2.541-2.021-4.182-2.021-.561 0-1.18.04-1.7.12l.601-8.222h7.9l-.199 2.781h-4.741l-.22 2.88c2.7.08 5.721 1.261 5.721 4.421 0 2.821-2.4 4.621-5.701 4.621-1.52 0-3.041-.38-3.94-.88z"/><path d="m970.462 6112.524c0-2.141 1.38-3.741 3.601-3.741s3.601 1.601 3.601 3.741-1.38 3.74-3.601 3.74-3.601-1.6-3.601-3.74zm5.142 0c0-1.041-.601-1.881-1.541-1.881-.939 0-1.541.84-1.541 1.881 0 1.04.602 1.88 1.541 1.88.94 0 1.541-.84 1.541-1.88zm7.021-3.522h2.039l-9.461 14.483h-2.041zm1.14 7.222c2.22 0 3.601 1.601 3.601 3.741s-1.381 3.74-3.601 3.74c-2.221 0-3.601-1.6-3.601-3.74s1.38-3.741 3.601-3.741zm0 5.621c.94 0 1.54-.84 1.54-1.88s-.6-1.881-1.54-1.881-1.54.841-1.54 1.881.599 1.88 1.54 1.88z"/></g><g enable-background="new" fill="#343434"><path d="m932.738 6397.317-3.097 4.934c-.18.271-.36.559-.486.792l.036.019c.468-.343 1.152-.576 1.98-.576 2.215 0 3.961 1.656 3.961 3.943 0 2.376-1.872 4.123-4.429 4.123-2.539 0-4.43-1.711-4.43-4.304 0-1.225.414-2.341 1.584-4.231l2.917-4.699h1.964zm-2.016 11.722c1.459 0 2.719-1.008 2.719-2.557 0-1.44-1.116-2.557-2.683-2.557-1.513 0-2.755 1.044-2.755 2.484 0 1.334 1.08 2.63 2.719 2.63z"/><path d="m954.431 6405.114c0-.847-.127-1.387-.45-1.765-.343-.396-.883-.54-1.351-.54-1.026 0-2.089.666-2.701 1.386.019.198.019.414.019.631v5.527h-1.621v-5.239c0-.954-.107-1.387-.414-1.747-.36-.414-.846-.558-1.351-.558-1.044 0-2.088.647-2.7 1.386v6.158h-1.621v-8.858h1.621v1.08l.036.018c.738-.737 1.782-1.296 3.007-1.296 1.098 0 2.179.468 2.719 1.53 1.062-1.008 2.143-1.53 3.367-1.53.954 0 1.782.324 2.322.937.54.594.738 1.386.738 2.593v5.527h-1.62z"/><path d="m963.086 6401.296c2.683 0 4.681 2.017 4.681 4.627 0 2.611-1.998 4.628-4.681 4.628s-4.682-2.017-4.682-4.628c0-2.61 1.999-4.627 4.682-4.627zm0 7.779c1.765 0 3.061-1.368 3.061-3.151 0-1.782-1.296-3.15-3.061-3.15s-3.062 1.368-3.062 3.15c0 1.783 1.297 3.151 3.062 3.151z"/><path d="m970.158 6401.495h1.62v1.116l.036.018c.774-.773 1.854-1.332 3.097-1.332.973 0 1.801.342 2.359.973.485.558.738 1.242.738 2.61v5.474h-1.621v-5.168c0-.918-.126-1.458-.414-1.8-.36-.433-.937-.576-1.422-.576-1.009 0-2.143.63-2.773 1.477v6.067h-1.62z"/><path d="m981.66 6407.274v-4.321h-1.639v-1.458h1.639v-2.413l1.62-.27v2.683h2.665v1.458h-2.665v4.016c0 1.098.162 2.106 1.333 2.106.468 0 .99-.162 1.332-.378v1.53c-.36.18-.99.324-1.603.324-.648 0-1.44-.162-2.017-.828-.43-.486-.665-1.207-.665-2.449z"/><path d="m988.14 6396.597h1.621v6.014l.036.018c.773-.773 1.854-1.332 3.097-1.332.972 0 1.801.342 2.358.973.486.558.738 1.242.738 2.61v5.474h-1.62v-5.168c0-.99-.126-1.458-.433-1.8-.342-.396-.792-.576-1.351-.576-1.062 0-2.16.647-2.826 1.477v6.067h-1.621v-13.757z"/><path d="m998.706 6408.138c1.008.648 2.286.954 3.385.954 1.225 0 2.017-.359 2.017-1.224 0-1.062-1.278-1.081-2.646-1.314-1.692-.288-3.025-.793-3.025-2.539.019-1.837 1.585-2.719 3.638-2.719 1.062 0 2.286.234 3.169.702v1.62c-.991-.576-2.215-.864-3.241-.864-1.135 0-1.927.343-1.927 1.135 0 1.008 1.261 1.008 2.575 1.242 1.692.288 3.097.757 3.097 2.593 0 2.053-1.837 2.827-3.728 2.827-1.134 0-2.395-.234-3.312-.721v-1.692z"/></g><g enable-background="new" fill="#343434"><path d="m947.773 6417.946h1.247c-1.177 1.526-2.102 3.865-2.102 6.695 0 2.829.925 5.169 2.102 6.695h-1.247c-1.092-1.429-2.017-3.698-2.017-6.695.001-2.998.926-5.266 2.017-6.695z"/><path d="m950.881 6421.461h1.261v.868l.028.015c.602-.603 1.442-1.037 2.409-1.037.756 0 1.4.267 1.835.757.378.434.574.966.574 2.031v4.258h-1.261v-4.021c0-.714-.099-1.134-.322-1.4-.28-.336-.729-.448-1.106-.448-.784 0-1.667.49-2.157 1.148v4.721h-1.261z"/><path d="m958.944 6421.349h6.752v1.009h-6.752zm0 2.858h6.752v1.009h-6.752z"/><path d="m969.978 6419.85-2.325.896v-1.274l3.656-1.415v10.296h-1.331z"/><path d="m979.583 6418.211-2.409 3.838c-.141.21-.28.435-.379.616l.028.015c.364-.267.896-.448 1.541-.448 1.723 0 3.081 1.288 3.081 3.067 0 1.849-1.456 3.208-3.445 3.208-1.976 0-3.446-1.331-3.446-3.348 0-.953.322-1.821 1.233-3.292l2.269-3.656zm-1.569 9.12c1.135 0 2.115-.784 2.115-1.989 0-1.12-.868-1.989-2.087-1.989-1.177 0-2.144.812-2.144 1.934 0 1.035.841 2.044 2.116 2.044z"/><path d="m985.083 6424.641c0-2.83-.925-5.169-2.102-6.695h1.247c1.093 1.429 2.017 3.697 2.017 6.695 0 2.997-.924 5.267-2.017 6.695h-1.247c1.177-1.526 2.102-3.866 2.102-6.695z"/></g><path d="m966.301 6381.797h1v9.561h-1z" fill="#7db959"/></g></svg>