<?xml version="1.0" encoding="utf-8"?>
<!-- Generator: Adobe Illustrator 24.3.0, SVG Export Plug-In . SVG Version: 6.00 Build 0)  -->
<svg version="1.1" id="Layer_1" xmlns="http://www.w3.org/2000/svg" xmlns:xlink="http://www.w3.org/1999/xlink" x="0px" y="0px"
	 viewBox="0 0 360 506" style="enable-background:new 0 0 360 506;" xml:space="preserve">
<style type="text/css">
	.st0{fill:#FFFFFF;}
	.st1{enable-background:new    ;}
	.st2{fill:#005D55;}
	.st3{fill:#343434;}
	.st4{clip-path:url(#SVGID_2_);}
	.st5{fill:none;stroke:#265C5A;stroke-width:0.5;stroke-miterlimit:10;}
	.st6{fill:#7DB959;}
	.st7{clip-path:url(#SVGID_4_);}
	.st8{fill:#57C124;}
</style>
<g id="Group_11635" transform="translate(-800 -5423)">
	<rect id="Rectangle_3787" x="800" y="5423" class="st0" width="360" height="506"/>
	<g class="st1">
		<path class="st2" d="M835.3,5504.5h4.3c1.7,0,3.2,0.2,4.3,0.8c1.3,0.7,2.3,1.9,2.3,3.9c0,1.8-0.9,3.1-2.1,3.8
			c-1.1,0.7-2.6,0.9-4.7,0.9h-1v5.2h-3.2V5504.5z M839.7,5511.2c1.3,0,2-0.1,2.5-0.4c0.6-0.3,0.9-0.9,0.9-1.6c0-0.8-0.4-1.4-1-1.7
			c-0.6-0.3-1.4-0.3-2.5-0.3h-1.1v3.9H839.7z"/>
		<path class="st2" d="M848.3,5504.5h3.2v11.7h6.3v2.8h-9.5V5504.5z"/>
		<path class="st2" d="M859.6,5504.5h4.3c1.7,0,3.2,0.2,4.3,0.8c1.3,0.7,2.3,1.9,2.3,3.9c0,1.8-0.9,3.1-2.1,3.8
			c-1.1,0.7-2.6,0.9-4.7,0.9h-1v5.2h-3.2V5504.5z M863.9,5511.2c1.3,0,2-0.1,2.5-0.4c0.6-0.3,0.9-0.9,0.9-1.6c0-0.8-0.4-1.4-1-1.7
			c-0.6-0.3-1.4-0.3-2.5-0.3h-1.1v3.9H863.9z"/>
		<path class="st2" d="M882.9,5518.4c-0.6,0.5-1.6,0.8-2.7,0.8c-0.8,0-1.6-0.2-2.3-0.6c-0.7-0.5-1.2-1.3-1.2-2.3
			c0-1.1,0.5-1.9,1.2-2.4c0.8-0.5,1.7-0.7,2.8-0.7c0.6,0,1.2,0.1,1.7,0.2v-0.4c0-0.5-0.2-0.8-0.4-1c-0.3-0.3-0.8-0.4-1.5-0.4
			c-1.1,0-2.1,0.4-2.9,0.8v-2.6c0.8-0.4,2-0.8,3.4-0.8c1.3,0,2.5,0.3,3.3,0.9c0.7,0.6,1.1,1.5,1.1,2.7v3.3c0,0.5,0.2,0.8,0.6,0.8
			c0.2,0,0.3,0,0.5-0.1v2.3c-0.3,0.2-0.9,0.3-1.5,0.3C884.3,5519.2,883.5,5519,882.9,5518.4L882.9,5518.4z M882.4,5515.1
			c-0.3-0.1-0.8-0.1-1.1-0.1c-0.8,0-1.6,0.2-1.6,1c0,0.6,0.6,1,1.3,1c0.5,0,1-0.2,1.4-0.4V5515.1z"/>
		<path class="st2" d="M888.3,5509.2h3v0.9l0,0c0.8-0.6,1.8-1.1,3-1.1c1,0,2,0.4,2.6,1c0.6,0.6,0.9,1.5,0.9,2.9v6.1h-3v-5.6
			c0-0.7-0.1-1.1-0.3-1.4c-0.3-0.3-0.6-0.4-1-0.4c-0.8,0-1.5,0.4-2.1,0.8v6.6h-3V5509.2z"/>
		<path class="st2" d="M907.1,5518.5c-0.7,0.5-1.5,0.8-2.5,0.8c-2.5,0-4.6-1.9-4.6-4.9c0-3.1,2.3-5.3,5.2-5.3c0.7,0,1.3,0.1,1.9,0.4
			l0,0v-5.6h3v15.3h-3L907.1,5518.5L907.1,5518.5z M907,5511.8c-0.4-0.2-1-0.4-1.6-0.4c-1.6,0-2.5,1.2-2.5,2.7
			c0,1.5,0.8,2.6,2.3,2.6c0.7,0,1.3-0.2,1.7-0.5V5511.8z"/>
		<path class="st2" d="M917.8,5504.5h4.3c1.7,0,3.2,0.2,4.3,0.8c1.3,0.7,2.3,1.9,2.3,3.9c0,1.8-0.9,3.1-2.1,3.8
			c-1.1,0.7-2.6,0.9-4.7,0.9h-1v5.2h-3.2V5504.5z M922.1,5511.2c1.3,0,2-0.1,2.5-0.4c0.6-0.3,0.9-0.9,0.9-1.6c0-0.8-0.4-1.4-1-1.7
			c-0.6-0.3-1.4-0.3-2.5-0.3h-1.1v3.9H922.1z"/>
		<path class="st2" d="M930.7,5504.5h4.3c1.7,0,3.2,0.2,4.3,0.8c1.3,0.7,2.3,1.9,2.3,3.9c0,1.8-0.9,3.1-2.1,3.8
			c-1.1,0.7-2.6,0.9-4.7,0.9h-1v5.2h-3.2V5504.5z M935.1,5511.2c1.3,0,2-0.1,2.5-0.4c0.6-0.3,0.9-0.9,0.9-1.6c0-0.8-0.4-1.4-1-1.7
			c-0.6-0.3-1.4-0.3-2.5-0.3h-1.1v3.9H935.1z"/>
		<path class="st2" d="M945.1,5504.3c1,0,1.8,0.8,1.8,1.7s-0.8,1.7-1.8,1.7c-1,0-1.8-0.8-1.8-1.7S944.2,5504.3,945.1,5504.3z
			 M943.6,5509.2h3v9.8h-3V5509.2z"/>
	</g>
	<g class="st1">
		<path class="st3" d="M838.7,5544.5h-4.4v-1.5h10.5v1.5h-4.4v11.5h-1.7V5544.5z"/>
		<path class="st3" d="M846.8,5542.2h1.6v6l0,0c0.8-0.8,1.9-1.3,3.1-1.3c1,0,1.8,0.3,2.4,1c0.5,0.6,0.7,1.2,0.7,2.6v5.5H853v-5.2
			c0-1-0.1-1.5-0.4-1.8c-0.3-0.4-0.8-0.6-1.4-0.6c-1.1,0-2.2,0.6-2.8,1.5v6.1h-1.6V5542.2z"/>
		<path class="st3" d="M858.6,5552c0.2,1.7,1.5,2.7,3.3,2.7c1.2,0,2.3-0.5,3.1-1.1v1.7c-0.8,0.5-2,0.8-3.2,0.8
			c-2.7,0-4.8-1.8-4.8-4.6c0-2.8,2-4.6,4.4-4.6c2.2,0,4,1.5,4,4.3c0,0.3,0,0.6-0.1,0.8H858.6z M858.6,5550.8h5.2
			c-0.1-1.8-1.4-2.4-2.5-2.4C860.2,5548.4,858.9,5549.1,858.6,5550.8z"/>
		<path class="st3" d="M872.1,5553.8c1,0.6,2.3,1,3.4,1c1.2,0,2-0.4,2-1.2c0-1.1-1.3-1.1-2.6-1.3c-1.7-0.3-3-0.8-3-2.5
			c0-1.8,1.6-2.7,3.6-2.7c1.1,0,2.3,0.2,3.2,0.7v1.6c-1-0.6-2.2-0.9-3.2-0.9c-1.1,0-1.9,0.3-1.9,1.1c0,1,1.3,1,2.6,1.2
			c1.7,0.3,3.1,0.8,3.1,2.6c0,2.1-1.8,2.8-3.7,2.8c-1.1,0-2.4-0.2-3.3-0.7V5553.8z"/>
		<path class="st3" d="M882.2,5552.9v-4.3h-1.6v-1.5h1.6v-2.4l1.6-0.3v2.7h2.7v1.5h-2.7v4c0,1.1,0.2,2.1,1.3,2.1
			c0.5,0,1-0.2,1.3-0.4v1.5c-0.4,0.2-1,0.3-1.6,0.3c-0.6,0-1.4-0.2-2-0.8C882.5,5554.9,882.2,5554.2,882.2,5552.9z"/>
		<path class="st3" d="M888.7,5552.6v-5.4h1.6v5.1c0,1,0.1,1.5,0.4,1.8c0.4,0.5,0.9,0.6,1.4,0.6c1.1,0,2.1-0.7,2.8-1.5v-6h1.6v8.9
			h-1.6v-1.1l0,0c-0.8,0.8-1.8,1.3-3.1,1.3c-0.9,0-1.8-0.3-2.4-1C888.9,5554.6,888.7,5553.8,888.7,5552.6z"/>
		<path class="st3" d="M903.6,5546.9c0.9,0,1.5,0.2,2.1,0.5l0,0v-5.1h1.6v13.8h-1.6v-0.5l0,0c-0.6,0.4-1.4,0.8-2.5,0.8
			c-2.4,0-4.3-1.7-4.3-4.5C898.9,5549,900.9,5546.9,903.6,5546.9z M903.5,5554.8c0.9,0,1.7-0.3,2.3-0.8v-5.1
			c-0.6-0.3-1.4-0.6-2.2-0.6c-1.9,0-3,1.4-3,3.2C900.6,5553.4,901.7,5554.8,903.5,5554.8z"/>
		<path class="st3" d="M910.7,5560l2.4-4.9l-3.7-7.9h1.8l1.5,3.3c0.4,0.9,0.8,1.9,1.2,2.7h0c0.4-0.9,0.8-1.8,1.2-2.7l1.5-3.3h1.7
			l-6,12.8H910.7z"/>
		<path class="st3" d="M921.2,5542.6h1.6l-1.5,4.8h-1.1L921.2,5542.6z"/>
		<path class="st3" d="M923,5553.8c1,0.6,2.3,1,3.4,1c1.2,0,2-0.4,2-1.2c0-1.1-1.3-1.1-2.6-1.3c-1.7-0.3-3-0.8-3-2.5
			c0-1.8,1.6-2.7,3.6-2.7c1.1,0,2.3,0.2,3.2,0.7v1.6c-1-0.6-2.2-0.9-3.2-0.9c-1.1,0-1.9,0.3-1.9,1.1c0,1,1.3,1,2.6,1.2
			c1.7,0.3,3.1,0.8,3.1,2.6c0,2.1-1.8,2.8-3.7,2.8c-1.1,0-2.4-0.2-3.3-0.7V5553.8z"/>
		<path class="st3" d="M940.2,5550.8c1.5-1.8,2.2-2.9,2.2-4.1c0-1.5-1.1-2.3-2.6-2.3c-0.9,0-2,0.3-2.9,1v-1.7c0.7-0.4,1.7-0.8,3-0.8
			c2.3,0,4.2,1.3,4.2,3.8c0,1.8-1,3.3-2.5,5.1l-2.3,2.7l0,0h5.2v1.5h-8.6l0,0L940.2,5550.8z"/>
		<path class="st3" d="M958.5,5555.6c-0.8,0.4-1.7,0.6-2.6,0.6c-2.8,0-4.8-1.9-4.8-4.6c0-2.7,2.2-4.7,4.9-4.7c0.9,0,1.8,0.2,2.4,0.6
			v1.7c-0.7-0.5-1.6-0.8-2.5-0.8c-1.9,0-3.2,1.4-3.2,3.2c0,1.8,1.3,3.1,3.3,3.1c1,0,1.9-0.3,2.6-0.9V5555.6z"/>
		<path class="st3" d="M965.1,5546.9c2.7,0,4.7,2,4.7,4.6c0,2.6-2,4.6-4.7,4.6c-2.7,0-4.7-2-4.7-4.6
			C960.4,5549,962.4,5546.9,965.1,5546.9z M965.1,5554.7c1.8,0,3.1-1.4,3.1-3.2c0-1.8-1.3-3.2-3.1-3.2c-1.8,0-3.1,1.4-3.1,3.2
			C962,5553.4,963.3,5554.7,965.1,5554.7z"/>
		<path class="st3" d="M973.8,5560h-1.6v-12.8h1.6v0.6l0,0c0.6-0.4,1.5-0.8,2.5-0.8c2.4,0,4.3,1.9,4.3,4.6c0,2.8-2.1,4.7-4.6,4.7
			c-0.9,0-1.6-0.2-2.2-0.5l0,0V5560z M976,5554.8c1.8,0,3-1.3,3-3.1c0-1.8-1.2-3.3-2.9-3.3c-0.8,0-1.7,0.3-2.3,0.8v5
			C974.3,5554.5,975.2,5554.8,976,5554.8z"/>
		<path class="st3" d="M983,5547.1h1.6v1.3l0,0c0.6-0.9,1.6-1.4,2.6-1.4c0.2,0,0.4,0,0.6,0.1v1.6c-0.2-0.1-0.4-0.1-0.6-0.1
			c-1.2,0-2.1,0.6-2.6,1.6v5.8H983V5547.1z"/>
		<path class="st3" d="M990.6,5543c0.6,0,1.1,0.5,1.1,1.1s-0.5,1.1-1.1,1.1c-0.6,0-1.1-0.5-1.1-1.1S990,5543,990.6,5543z
			 M989.8,5547.1h1.6v8.9h-1.6V5547.1z"/>
		<path class="st3" d="M1006.6,5550.8c0-0.8-0.1-1.4-0.5-1.8c-0.3-0.4-0.9-0.5-1.4-0.5c-1,0-2.1,0.7-2.7,1.4c0,0.2,0,0.4,0,0.6v5.5
			h-1.6v-5.2c0-1-0.1-1.4-0.4-1.7c-0.4-0.4-0.8-0.6-1.3-0.6c-1,0-2.1,0.6-2.7,1.4v6.2h-1.6v-8.9h1.6v1.1l0,0c0.7-0.7,1.8-1.3,3-1.3
			c1.1,0,2.2,0.5,2.7,1.5c1.1-1,2.1-1.5,3.4-1.5c1,0,1.8,0.3,2.3,0.9c0.5,0.6,0.7,1.4,0.7,2.6v5.5h-1.6V5550.8z"/>
		<path class="st3" d="M1011.5,5555.6c-0.6-0.4-0.9-1.1-0.9-2c0-1,0.5-1.7,1.2-2.2c0.7-0.4,1.6-0.6,2.5-0.6c0.7,0,1.3,0.1,1.9,0.2
			v-0.7c0-0.6-0.2-1.1-0.5-1.5c-0.3-0.3-0.9-0.5-1.6-0.5c-1.1,0-2.1,0.4-2.7,0.9v-1.6c0.7-0.4,1.6-0.8,3-0.8c1.1,0,2,0.2,2.6,0.8
			c0.5,0.5,0.9,1.2,0.9,2.3v3.8c0,0.5,0.2,0.9,0.7,0.9c0.2,0,0.4-0.1,0.5-0.1v1.4c-0.2,0.1-0.5,0.2-0.9,0.2c-0.7,0-1.4-0.3-1.7-0.9
			h0c-0.5,0.5-1.5,1-2.7,1C1012.9,5556.2,1012.1,5556,1011.5,5555.6z M1016.1,5554v-1.7c-0.5-0.1-1.2-0.2-1.7-0.2
			c-1.1,0-2.2,0.3-2.2,1.4c0,0.9,0.7,1.3,1.7,1.3C1014.8,5554.8,1015.6,5554.4,1016.1,5554z"/>
		<path class="st3" d="M1020.9,5547.1h1.6v1.3l0,0c0.6-0.9,1.6-1.4,2.6-1.4c0.2,0,0.4,0,0.6,0.1v1.6c-0.2-0.1-0.4-0.1-0.6-0.1
			c-1.2,0-2.1,0.6-2.6,1.6v5.8h-1.6V5547.1z"/>
		<path class="st3" d="M1028.1,5560l2.4-4.9l-3.7-7.9h1.8l1.5,3.3c0.4,0.9,0.8,1.9,1.2,2.7h0c0.4-0.9,0.8-1.8,1.2-2.7l1.5-3.3h1.7
			l-6,12.8H1028.1z"/>
	</g>
	<g class="st1">
		<path class="st3" d="M836.4,5582c0.2,1.7,1.5,2.7,3.3,2.7c1.2,0,2.3-0.5,3.1-1.1v1.7c-0.8,0.5-2,0.8-3.2,0.8
			c-2.7,0-4.8-1.8-4.8-4.6c0-2.8,2-4.6,4.4-4.6c2.2,0,4,1.5,4,4.3c0,0.3,0,0.6-0.1,0.8H836.4z M836.5,5580.8h5.2
			c-0.1-1.8-1.4-2.4-2.5-2.4C838,5578.4,836.8,5579.1,836.5,5580.8z"/>
		<path class="st3" d="M845.7,5577.1h1.6v1.1l0,0c0.8-0.8,1.9-1.3,3.1-1.3c1,0,1.8,0.3,2.4,1c0.5,0.6,0.7,1.2,0.7,2.6v5.5h-1.6v-5.2
			c0-0.9-0.1-1.5-0.4-1.8c-0.4-0.4-0.9-0.6-1.4-0.6c-1,0-2.1,0.6-2.8,1.5v6.1h-1.6V5577.1z"/>
		<path class="st3" d="M860.7,5576.9c0.9,0,1.5,0.2,2.1,0.5l0,0v-5.1h1.6v13.8h-1.6v-0.5l0,0c-0.6,0.4-1.4,0.8-2.5,0.8
			c-2.4,0-4.3-1.7-4.3-4.5C856,5579,857.9,5576.9,860.7,5576.9z M860.5,5584.8c0.9,0,1.7-0.3,2.3-0.8v-5.1c-0.6-0.3-1.4-0.6-2.2-0.6
			c-1.9,0-3,1.4-3,3.2C857.6,5583.4,858.7,5584.8,860.5,5584.8z"/>
		<path class="st3" d="M869.1,5590h-1.6v-12.8h1.6v0.6l0,0c0.6-0.4,1.5-0.8,2.5-0.8c2.4,0,4.3,1.9,4.3,4.6c0,2.8-2.1,4.7-4.6,4.7
			c-0.9,0-1.6-0.2-2.2-0.5l0,0V5590z M871.3,5584.8c1.8,0,3-1.3,3-3.1c0-1.8-1.2-3.3-2.9-3.3c-0.8,0-1.7,0.3-2.3,0.8v5
			C869.6,5584.5,870.5,5584.8,871.3,5584.8z"/>
		<path class="st3" d="M882.4,5576.9c2.7,0,4.7,2,4.7,4.6c0,2.6-2,4.6-4.7,4.6s-4.7-2-4.7-4.6C877.7,5579,879.7,5576.9,882.4,5576.9
			z M882.4,5584.7c1.8,0,3.1-1.4,3.1-3.2c0-1.8-1.3-3.2-3.1-3.2s-3.1,1.4-3.1,3.2C879.3,5583.4,880.6,5584.7,882.4,5584.7z"/>
		<path class="st3" d="M890.3,5573c0.6,0,1.1,0.5,1.1,1.1s-0.5,1.1-1.1,1.1c-0.6,0-1.1-0.5-1.1-1.1S889.6,5573,890.3,5573z
			 M889.5,5577.1h1.6v8.9h-1.6V5577.1z"/>
		<path class="st3" d="M894.1,5577.1h1.6v1.1l0,0c0.8-0.8,1.9-1.3,3.1-1.3c1,0,1.8,0.3,2.4,1c0.5,0.6,0.7,1.2,0.7,2.6v5.5h-1.6v-5.2
			c0-0.9-0.1-1.5-0.4-1.8c-0.4-0.4-0.9-0.6-1.4-0.6c-1,0-2.1,0.6-2.8,1.5v6.1h-1.6V5577.1z"/>
		<path class="st3" d="M905.6,5582.9v-4.3h-1.6v-1.5h1.6v-2.4l1.6-0.3v2.7h2.7v1.5h-2.7v4c0,1.1,0.2,2.1,1.3,2.1
			c0.5,0,1-0.2,1.3-0.4v1.5c-0.4,0.2-1,0.3-1.6,0.3c-0.6,0-1.4-0.2-2-0.8C905.8,5584.9,905.6,5584.2,905.6,5582.9z"/>
		<path class="st3" d="M911.8,5583.8c1,0.6,2.3,1,3.4,1c1.2,0,2-0.4,2-1.2c0-1.1-1.3-1.1-2.6-1.3c-1.7-0.3-3-0.8-3-2.5
			c0-1.8,1.6-2.7,3.6-2.7c1.1,0,2.3,0.2,3.2,0.7v1.6c-1-0.6-2.2-0.9-3.2-0.9c-1.1,0-1.9,0.3-1.9,1.1c0,1,1.3,1,2.6,1.2
			c1.7,0.3,3.1,0.8,3.1,2.6c0,2.1-1.8,2.8-3.7,2.8c-1.1,0-2.4-0.2-3.3-0.7V5583.8z"/>
		<path class="st3" d="M924.8,5577.1h1.8l1.3,3.9c0.3,0.9,0.6,1.8,0.9,2.7h0c0.3-0.9,0.6-1.9,1-2.7l1.5-3.9h1.2l1.5,3.9
			c0.3,0.9,0.7,1.8,1,2.7h0c0.3-0.9,0.6-1.8,0.9-2.7l1.3-4h1.7l-3.1,8.9H934l-1.4-3.8c-0.3-0.8-0.6-1.7-0.9-2.5h0
			c-0.3,0.8-0.6,1.7-0.9,2.5l-1.4,3.8h-1.6L924.8,5577.1z"/>
		<path class="st3" d="M941.3,5582c0.2,1.7,1.5,2.7,3.3,2.7c1.2,0,2.2-0.5,3.1-1.1v1.7c-0.8,0.5-2,0.8-3.2,0.8
			c-2.7,0-4.8-1.8-4.8-4.6c0-2.8,2-4.6,4.4-4.6c2.2,0,4,1.5,4,4.3c0,0.3,0,0.6-0.1,0.8H941.3z M941.4,5580.8h5.2
			c-0.1-1.8-1.4-2.4-2.5-2.4C942.9,5578.4,941.6,5579.1,941.4,5580.8z"/>
		<path class="st3" d="M950.6,5577.1h1.6v1.3l0,0c0.6-0.9,1.6-1.4,2.6-1.4c0.2,0,0.4,0,0.6,0.1v1.6c-0.2-0.1-0.4-0.1-0.6-0.1
			c-1.2,0-2.1,0.6-2.6,1.6v5.8h-1.6V5577.1z"/>
		<path class="st3" d="M958.2,5582c0.2,1.7,1.5,2.7,3.3,2.7c1.2,0,2.2-0.5,3.1-1.1v1.7c-0.8,0.5-2,0.8-3.2,0.8
			c-2.7,0-4.8-1.8-4.8-4.6c0-2.8,2-4.6,4.4-4.6c2.2,0,4,1.5,4,4.3c0,0.3,0,0.6-0.1,0.8H958.2z M958.2,5580.8h5.2
			c-0.1-1.8-1.4-2.4-2.5-2.4C959.7,5578.4,958.5,5579.1,958.2,5580.8z"/>
		<path class="st3" d="M972.7,5582.9v-4.3H971v-1.5h1.6v-2.4l1.6-0.3v2.7h2.7v1.5h-2.7v4c0,1.1,0.2,2.1,1.3,2.1c0.5,0,1-0.2,1.3-0.4
			v1.5c-0.4,0.2-1,0.3-1.6,0.3c-0.6,0-1.4-0.2-2-0.8C972.9,5584.9,972.7,5584.2,972.7,5582.9z"/>
		<path class="st3" d="M983,5576.9c2.7,0,4.7,2,4.7,4.6c0,2.6-2,4.6-4.7,4.6c-2.7,0-4.7-2-4.7-4.6
			C978.3,5579,980.3,5576.9,983,5576.9z M983,5584.7c1.8,0,3.1-1.4,3.1-3.2c0-1.8-1.3-3.2-3.1-3.2c-1.8,0-3.1,1.4-3.1,3.2
			C979.9,5583.4,981.2,5584.7,983,5584.7z"/>
		<path class="st3" d="M1006.8,5580.8c0-0.8-0.1-1.4-0.5-1.8c-0.3-0.4-0.9-0.5-1.4-0.5c-1,0-2.1,0.7-2.7,1.4c0,0.2,0,0.4,0,0.6v5.5
			h-1.6v-5.2c0-1-0.1-1.4-0.4-1.7c-0.4-0.4-0.8-0.6-1.3-0.6c-1,0-2.1,0.6-2.7,1.4v6.2h-1.6v-8.9h1.6v1.1l0,0c0.7-0.7,1.8-1.3,3-1.3
			c1.1,0,2.2,0.5,2.7,1.5c1.1-1,2.1-1.5,3.4-1.5c1,0,1.8,0.3,2.3,0.9c0.5,0.6,0.7,1.4,0.7,2.6v5.5h-1.6V5580.8z"/>
		<path class="st3" d="M1012.4,5582c0.2,1.7,1.5,2.7,3.3,2.7c1.2,0,2.2-0.5,3.1-1.1v1.7c-0.8,0.5-2,0.8-3.2,0.8
			c-2.7,0-4.8-1.8-4.8-4.6c0-2.8,2-4.6,4.4-4.6c2.2,0,4,1.5,4,4.3c0,0.3,0,0.6-0.1,0.8H1012.4z M1012.4,5580.8h5.2
			c-0.1-1.8-1.4-2.4-2.5-2.4C1013.9,5578.4,1012.7,5579.1,1012.4,5580.8z"/>
		<path class="st3" d="M1022,5585.6c-0.6-0.4-0.9-1.1-0.9-2c0-1,0.5-1.7,1.2-2.2c0.7-0.4,1.6-0.6,2.5-0.6c0.7,0,1.3,0.1,1.9,0.2
			v-0.7c0-0.6-0.2-1.1-0.5-1.5c-0.3-0.3-0.9-0.5-1.6-0.5c-1.1,0-2.1,0.4-2.7,0.9v-1.6c0.7-0.4,1.6-0.8,3-0.8c1.1,0,2,0.2,2.6,0.8
			c0.5,0.5,0.9,1.2,0.9,2.3v3.8c0,0.5,0.2,0.9,0.7,0.9c0.2,0,0.4-0.1,0.5-0.1v1.4c-0.2,0.1-0.5,0.2-0.9,0.2c-0.7,0-1.4-0.3-1.7-0.9
			h0c-0.5,0.5-1.5,1-2.7,1C1023.4,5586.2,1022.6,5586,1022,5585.6z M1026.6,5584v-1.7c-0.5-0.1-1.2-0.2-1.7-0.2
			c-1.1,0-2.2,0.3-2.2,1.4c0,0.9,0.7,1.3,1.7,1.3C1025.2,5584.8,1026.1,5584.4,1026.6,5584z"/>
		<path class="st3" d="M1031.1,5583.8c1,0.6,2.3,1,3.4,1c1.2,0,2-0.4,2-1.2c0-1.1-1.3-1.1-2.6-1.3c-1.7-0.3-3-0.8-3-2.5
			c0-1.8,1.6-2.7,3.6-2.7c1.1,0,2.3,0.2,3.2,0.7v1.6c-1-0.6-2.2-0.9-3.2-0.9c-1.1,0-1.9,0.3-1.9,1.1c0,1,1.3,1,2.6,1.2
			c1.7,0.3,3.1,0.8,3.1,2.6c0,2.1-1.8,2.8-3.7,2.8c-1.1,0-2.4-0.2-3.3-0.7V5583.8z"/>
		<path class="st3" d="M1040.5,5582.6v-5.4h1.6v5.1c0,1,0.1,1.5,0.4,1.8c0.4,0.5,0.9,0.6,1.4,0.6c1.1,0,2.1-0.7,2.8-1.5v-6h1.6v8.9
			h-1.6v-1.1l0,0c-0.8,0.8-1.8,1.3-3.1,1.3c-0.9,0-1.8-0.3-2.4-1C1040.7,5584.6,1040.5,5583.8,1040.5,5582.6z"/>
		<path class="st3" d="M1051.3,5577.1h1.6v1.3l0,0c0.6-0.9,1.6-1.4,2.6-1.4c0.2,0,0.4,0,0.6,0.1v1.6c-0.2-0.1-0.4-0.1-0.6-0.1
			c-1.2,0-2.1,0.6-2.6,1.6v5.8h-1.6V5577.1z"/>
		<path class="st3" d="M1058.9,5582c0.2,1.7,1.5,2.7,3.3,2.7c1.2,0,2.2-0.5,3.1-1.1v1.7c-0.8,0.5-2,0.8-3.2,0.8
			c-2.7,0-4.8-1.8-4.8-4.6c0-2.8,2-4.6,4.4-4.6c2.2,0,4,1.5,4,4.3c0,0.3,0,0.6-0.1,0.8H1058.9z M1058.9,5580.8h5.2
			c-0.1-1.8-1.4-2.4-2.5-2.4C1060.5,5578.4,1059.2,5579.1,1058.9,5580.8z"/>
		<path class="st3" d="M1073.4,5582.9v-4.3h-1.6v-1.5h1.6v-2.4l1.6-0.3v2.7h2.7v1.5h-2.7v4c0,1.1,0.2,2.1,1.3,2.1
			c0.5,0,1-0.2,1.3-0.4v1.5c-0.4,0.2-1,0.3-1.6,0.3c-0.6,0-1.4-0.2-2-0.8C1073.6,5584.9,1073.4,5584.2,1073.4,5582.9z"/>
		<path class="st3" d="M1079.9,5572.2h1.6v6l0,0c0.8-0.8,1.9-1.3,3.1-1.3c1,0,1.8,0.3,2.4,1c0.5,0.6,0.7,1.2,0.7,2.6v5.5h-1.6v-5.2
			c0-1-0.1-1.5-0.4-1.8c-0.3-0.4-0.8-0.6-1.3-0.6c-1.1,0-2.2,0.6-2.8,1.5v6.1h-1.6V5572.2z"/>
		<path class="st3" d="M1091.7,5582c0.2,1.7,1.5,2.7,3.3,2.7c1.2,0,2.2-0.5,3.1-1.1v1.7c-0.8,0.5-2,0.8-3.2,0.8
			c-2.7,0-4.8-1.8-4.8-4.6c0-2.8,2-4.6,4.4-4.6c2.2,0,4,1.5,4,4.3c0,0.3,0,0.6-0.1,0.8H1091.7z M1091.7,5580.8h5.2
			c-0.1-1.8-1.4-2.4-2.5-2.4C1093.3,5578.4,1092,5579.1,1091.7,5580.8z"/>
	</g>
	<g class="st1">
		<path class="st3" d="M842.3,5615.6c-0.8,0.4-1.7,0.6-2.6,0.6c-2.8,0-4.8-1.9-4.8-4.6c0-2.7,2.2-4.7,4.9-4.7c0.9,0,1.8,0.2,2.4,0.6
			v1.7c-0.7-0.5-1.6-0.8-2.5-0.8c-1.9,0-3.2,1.4-3.2,3.2c0,1.8,1.4,3.1,3.3,3.1c1,0,1.9-0.3,2.6-0.9V5615.6z"/>
		<path class="st3" d="M844.8,5602.2h1.6v6l0,0c0.8-0.8,1.9-1.3,3.1-1.3c1,0,1.8,0.3,2.4,1c0.5,0.6,0.7,1.2,0.7,2.6v5.5H851v-5.2
			c0-1-0.1-1.5-0.4-1.8c-0.3-0.4-0.8-0.6-1.4-0.6c-1.1,0-2.2,0.6-2.8,1.5v6.1h-1.6V5602.2z"/>
		<path class="st3" d="M855.9,5615.6c-0.6-0.4-0.9-1.1-0.9-2c0-1,0.5-1.7,1.2-2.2c0.7-0.4,1.6-0.6,2.5-0.6c0.7,0,1.3,0.1,1.9,0.2
			v-0.7c0-0.6-0.2-1.1-0.5-1.5c-0.3-0.3-0.9-0.5-1.6-0.5c-1.1,0-2.1,0.4-2.7,0.9v-1.6c0.7-0.4,1.6-0.8,3-0.8c1.1,0,2,0.2,2.6,0.8
			c0.5,0.5,0.9,1.2,0.9,2.3v3.8c0,0.5,0.2,0.9,0.7,0.9c0.2,0,0.4-0.1,0.5-0.1v1.4c-0.2,0.1-0.5,0.2-0.9,0.2c-0.7,0-1.4-0.3-1.7-0.9
			h0c-0.5,0.5-1.5,1-2.7,1C857.3,5616.2,856.5,5616,855.9,5615.6z M860.5,5614v-1.7c-0.5-0.1-1.2-0.2-1.7-0.2
			c-1.1,0-2.2,0.3-2.2,1.4c0,0.9,0.7,1.3,1.7,1.3C859.2,5614.8,860,5614.4,860.5,5614z"/>
		<path class="st3" d="M865.3,5607.1h1.6v1.1l0,0c0.8-0.8,1.9-1.3,3.1-1.3c1,0,1.8,0.3,2.4,1c0.5,0.6,0.7,1.2,0.7,2.6v5.5h-1.6v-5.2
			c0-0.9-0.1-1.5-0.4-1.8c-0.4-0.4-0.9-0.6-1.4-0.6c-1,0-2.1,0.6-2.8,1.5v6.1h-1.6V5607.1z"/>
		<path class="st3" d="M876.7,5617.8c0.8,0.6,1.8,0.9,2.8,0.9c1.7,0,2.8-1,2.8-2.7v-0.6l0,0c-0.6,0.4-1.5,0.7-2.4,0.7
			c-2.4,0-4.3-1.8-4.3-4.4c0-2.5,1.7-4.6,4.6-4.6c0.9,0,1.7,0.2,2.3,0.5l1.6-0.3v8.8c0,2.6-1.7,4.2-4.4,4.2c-1.1,0-2.1-0.3-2.8-0.7
			V5617.8z M880.2,5614.6c0.8,0,1.7-0.3,2.2-0.7v-4.9c-0.6-0.3-1.4-0.6-2.2-0.6c-1.8,0-2.9,1.4-2.9,3.1
			C877.2,5613.3,878.4,5614.6,880.2,5614.6z"/>
		<path class="st3" d="M888,5612c0.2,1.7,1.5,2.7,3.3,2.7c1.2,0,2.2-0.5,3.1-1.1v1.7c-0.8,0.5-2,0.8-3.2,0.8c-2.7,0-4.8-1.8-4.8-4.6
			c0-2.8,2-4.6,4.4-4.6c2.2,0,4,1.5,4,4.3c0,0.3,0,0.6-0.1,0.8H888z M888.1,5610.8h5.2c-0.1-1.8-1.4-2.4-2.5-2.4
			C889.6,5608.4,888.3,5609.1,888.1,5610.8z"/>
		<path class="st3" d="M902.6,5603c0.6,0,1.1,0.5,1.1,1.1s-0.5,1.1-1.1,1.1c-0.6,0-1.1-0.5-1.1-1.1S902,5603,902.6,5603z
			 M901.8,5607.1h1.6v8.9h-1.6V5607.1z"/>
		<path class="st3" d="M906.4,5607.1h1.6v1.1l0,0c0.8-0.8,1.9-1.3,3.1-1.3c1,0,1.8,0.3,2.4,1c0.5,0.6,0.7,1.2,0.7,2.6v5.5h-1.6v-5.2
			c0-0.9-0.1-1.5-0.4-1.8c-0.4-0.4-0.9-0.6-1.4-0.6c-1,0-2.1,0.6-2.8,1.5v6.1h-1.6V5607.1z"/>
		<path class="st3" d="M921.8,5602.2h1.6v5.4l0,0c0.6-0.4,1.4-0.7,2.5-0.7c2.4,0,4.3,1.8,4.3,4.5c0,2.7-2,4.8-4.7,4.8
			c-0.8,0-1.5-0.2-2.2-0.5l-1.6,0.3V5602.2z M925.6,5614.8c1.8,0,3-1.4,3-3.2c0-1.8-1.1-3.1-2.9-3.1c-1,0-1.7,0.3-2.3,0.8v5
			C924,5614.5,924.9,5614.8,925.6,5614.8z"/>
		<path class="st3" d="M932.7,5602.2h1.6v13.8h-1.6V5602.2z"/>
		<path class="st3" d="M941.4,5606.9c2.7,0,4.7,2,4.7,4.6c0,2.6-2,4.6-4.7,4.6c-2.7,0-4.7-2-4.7-4.6
			C936.7,5609,938.7,5606.9,941.4,5606.9z M941.4,5614.7c1.8,0,3.1-1.4,3.1-3.2c0-1.8-1.3-3.2-3.1-3.2c-1.8,0-3.1,1.4-3.1,3.2
			C938.3,5613.4,939.6,5614.7,941.4,5614.7z"/>
		<path class="st3" d="M952.5,5606.9c2.7,0,4.7,2,4.7,4.6c0,2.6-2,4.6-4.7,4.6c-2.7,0-4.7-2-4.7-4.6
			C947.8,5609,949.8,5606.9,952.5,5606.9z M952.5,5614.7c1.8,0,3.1-1.4,3.1-3.2c0-1.8-1.3-3.2-3.1-3.2c-1.8,0-3.1,1.4-3.1,3.2
			C949.4,5613.4,950.7,5614.7,952.5,5614.7z"/>
		<path class="st3" d="M963.7,5606.9c0.9,0,1.5,0.2,2.1,0.5l0,0v-5.1h1.6v13.8h-1.6v-0.5l0,0c-0.6,0.4-1.4,0.8-2.5,0.8
			c-2.4,0-4.3-1.7-4.3-4.5C959,5609,960.9,5606.9,963.7,5606.9z M963.5,5614.8c0.9,0,1.7-0.3,2.3-0.8v-5.1c-0.6-0.3-1.4-0.6-2.2-0.6
			c-1.9,0-3,1.4-3,3.2C960.6,5613.4,961.7,5614.8,963.5,5614.8z"/>
		<path class="st3" d="M975,5602.2h1.6v13.8H975V5602.2z"/>
		<path class="st3" d="M980.6,5612c0.2,1.7,1.5,2.7,3.3,2.7c1.2,0,2.2-0.5,3.1-1.1v1.7c-0.8,0.5-2,0.8-3.2,0.8
			c-2.7,0-4.8-1.8-4.8-4.6c0-2.8,2-4.6,4.4-4.6c2.2,0,4,1.5,4,4.3c0,0.3,0,0.6-0.1,0.8H980.6z M980.7,5610.8h5.2
			c-0.1-1.8-1.4-2.4-2.5-2.4C982.2,5608.4,980.9,5609.1,980.7,5610.8z"/>
		<path class="st3" d="M988.5,5607.1h1.8l1.6,4c0.4,1,0.8,1.9,1.1,2.8h0c0.4-1,0.8-1.9,1.2-3l1.6-3.9h1.7l-3.7,8.9h-1.6
			L988.5,5607.1z"/>
		<path class="st3" d="M1000.1,5612c0.2,1.7,1.5,2.7,3.3,2.7c1.2,0,2.2-0.5,3.1-1.1v1.7c-0.8,0.5-2,0.8-3.2,0.8
			c-2.7,0-4.8-1.8-4.8-4.6c0-2.8,2-4.6,4.4-4.6c2.2,0,4,1.5,4,4.3c0,0.3,0,0.6-0.1,0.8H1000.1z M1000.1,5610.8h5.2
			c-0.1-1.8-1.4-2.4-2.5-2.4C1001.7,5608.4,1000.4,5609.1,1000.1,5610.8z"/>
		<path class="st3" d="M1009.4,5602.2h1.6v13.8h-1.6V5602.2z"/>
		<path class="st3" d="M1013.7,5613.8c1,0.6,2.3,1,3.4,1c1.2,0,2-0.4,2-1.2c0-1.1-1.3-1.1-2.6-1.3c-1.7-0.3-3-0.8-3-2.5
			c0-1.8,1.6-2.7,3.6-2.7c1.1,0,2.3,0.2,3.2,0.7v1.6c-1-0.6-2.2-0.9-3.2-0.9c-1.1,0-1.9,0.3-1.9,1.1c0,1,1.3,1,2.6,1.2
			c1.7,0.3,3.1,0.8,3.1,2.6c0,2.1-1.8,2.8-3.7,2.8c-1.1,0-2.4-0.2-3.3-0.7V5613.8z"/>
		<path class="st3" d="M1031.7,5606.9c2.7,0,4.7,2,4.7,4.6c0,2.6-2,4.6-4.7,4.6c-2.7,0-4.7-2-4.7-4.6
			C1027,5609,1029,5606.9,1031.7,5606.9z M1031.7,5614.7c1.8,0,3.1-1.4,3.1-3.2c0-1.8-1.3-3.2-3.1-3.2c-1.8,0-3.1,1.4-3.1,3.2
			C1028.6,5613.4,1029.9,5614.7,1031.7,5614.7z"/>
		<path class="st3" d="M1039.2,5608.6h-1.4v-1.5h1.4v-1.7c0-1.2,0.2-2.1,0.8-2.7c0.6-0.5,1.3-0.7,2.1-0.7c0.5,0,1,0.1,1.3,0.2v1.5
			c-0.3-0.1-0.9-0.2-1.3-0.2c-1.1,0-1.3,0.8-1.3,1.7v1.9h2.3v1.5h-2.3v7.4h-1.6V5608.6z"/>
		<path class="st3" d="M1053,5610.8c1.5-1.8,2.2-2.9,2.2-4.1c0-1.5-1.1-2.3-2.6-2.3c-0.9,0-2,0.3-2.9,1v-1.7c0.7-0.4,1.7-0.8,3-0.8
			c2.3,0,4.2,1.3,4.2,3.8c0,1.8-1,3.3-2.5,5.1l-2.3,2.7l0,0h5.2v1.5h-8.6l0,0L1053,5610.8z"/>
		<path class="st3" d="M1064.5,5602.2h1.6v8.8l0,0l4-3.9h2.1l-4.1,4l4.5,4.9h-2.1l-4.3-4.8l0,0v4.8h-1.6V5602.2z"/>
		<path class="st3" d="M1074.1,5607.1h1.6v1.1l0,0c0.8-0.8,1.9-1.3,3.1-1.3c1,0,1.8,0.3,2.4,1c0.5,0.6,0.7,1.2,0.7,2.6v5.5h-1.6
			v-5.2c0-0.9-0.1-1.5-0.4-1.8c-0.4-0.4-0.9-0.6-1.4-0.6c-1,0-2.1,0.6-2.8,1.5v6.1h-1.6V5607.1z"/>
		<path class="st3" d="M1089,5606.9c2.7,0,4.7,2,4.7,4.6c0,2.6-2,4.6-4.7,4.6c-2.7,0-4.7-2-4.7-4.6
			C1084.3,5609,1086.3,5606.9,1089,5606.9z M1089,5614.7c1.8,0,3.1-1.4,3.1-3.2c0-1.8-1.3-3.2-3.1-3.2c-1.8,0-3.1,1.4-3.1,3.2
			C1085.9,5613.4,1087.2,5614.7,1089,5614.7z"/>
		<path class="st3" d="M1094.7,5607.1h1.8l1.3,3.9c0.3,0.9,0.6,1.8,0.9,2.7h0c0.3-0.9,0.6-1.9,1-2.7l1.5-3.9h1.2l1.5,3.9
			c0.3,0.9,0.7,1.8,1,2.7h0c0.3-0.9,0.6-1.8,0.9-2.7l1.3-4h1.7l-3.1,8.9h-1.6l-1.4-3.8c-0.3-0.8-0.6-1.7-0.9-2.5h0
			c-0.3,0.8-0.6,1.7-0.9,2.5l-1.4,3.8h-1.6L1094.7,5607.1z"/>
		<path class="st3" d="M1110.7,5607.1h1.6v1.1l0,0c0.8-0.8,1.9-1.3,3.1-1.3c1,0,1.8,0.3,2.4,1c0.5,0.6,0.7,1.2,0.7,2.6v5.5h-1.6
			v-5.2c0-0.9-0.1-1.5-0.4-1.8c-0.4-0.4-0.9-0.6-1.4-0.6c-1,0-2.1,0.6-2.8,1.5v6.1h-1.6V5607.1z"/>
	</g>
	<g class="st1">
		<path class="st3" d="M835.2,5643.8c1,0.6,2.3,1,3.4,1c1.2,0,2-0.4,2-1.2c0-1.1-1.3-1.1-2.6-1.3c-1.7-0.3-3-0.8-3-2.5
			c0-1.8,1.6-2.7,3.6-2.7c1.1,0,2.3,0.2,3.2,0.7v1.6c-1-0.6-2.2-0.9-3.2-0.9c-1.1,0-1.9,0.3-1.9,1.1c0,1,1.3,1,2.6,1.2
			c1.7,0.3,3.1,0.8,3.1,2.6c0,2.1-1.8,2.8-3.7,2.8c-1.1,0-2.4-0.2-3.3-0.7V5643.8z"/>
		<path class="st3" d="M844.5,5642.6v-5.4h1.6v5.1c0,1,0.1,1.5,0.4,1.8c0.4,0.5,0.9,0.6,1.4,0.6c1.1,0,2.1-0.7,2.8-1.5v-6h1.6v8.9
			h-1.6v-1.1l0,0c-0.8,0.8-1.8,1.3-3.1,1.3c-0.9,0-1.8-0.3-2.4-1C844.7,5644.6,844.5,5643.8,844.5,5642.6z"/>
		<path class="st3" d="M855.4,5632.2h1.6v5.4l0,0c0.6-0.4,1.4-0.7,2.5-0.7c2.4,0,4.3,1.8,4.3,4.5c0,2.7-2,4.8-4.7,4.8
			c-0.8,0-1.5-0.2-2.2-0.5l-1.6,0.3V5632.2z M859.2,5644.8c1.8,0,3-1.4,3-3.2c0-1.8-1.1-3.1-2.9-3.1c-1,0-1.7,0.3-2.3,0.8v5
			C857.6,5644.5,858.5,5644.8,859.2,5644.8z"/>
		<path class="st3" d="M866,5643.8c1,0.6,2.3,1,3.4,1c1.2,0,2-0.4,2-1.2c0-1.1-1.3-1.1-2.6-1.3c-1.7-0.3-3-0.8-3-2.5
			c0-1.8,1.6-2.7,3.6-2.7c1.1,0,2.3,0.2,3.2,0.7v1.6c-1-0.6-2.2-0.9-3.2-0.9c-1.1,0-1.9,0.3-1.9,1.1c0,1,1.3,1,2.6,1.2
			c1.7,0.3,3.1,0.8,3.1,2.6c0,2.1-1.8,2.8-3.7,2.8c-1.1,0-2.4-0.2-3.3-0.7V5643.8z"/>
		<path class="st3" d="M876.1,5642.9v-4.3h-1.6v-1.5h1.6v-2.4l1.6-0.3v2.7h2.7v1.5h-2.7v4c0,1.1,0.2,2.1,1.3,2.1
			c0.5,0,1-0.2,1.3-0.4v1.5c-0.4,0.2-1,0.3-1.6,0.3c-0.6,0-1.4-0.2-2-0.8C876.3,5644.9,876.1,5644.2,876.1,5642.9z"/>
		<path class="st3" d="M882.9,5645.6c-0.6-0.4-0.9-1.1-0.9-2c0-1,0.5-1.7,1.2-2.2c0.7-0.4,1.6-0.6,2.5-0.6c0.7,0,1.3,0.1,1.9,0.2
			v-0.7c0-0.6-0.2-1.1-0.5-1.5c-0.3-0.3-0.9-0.5-1.6-0.5c-1.1,0-2.1,0.4-2.7,0.9v-1.6c0.7-0.4,1.6-0.8,3-0.8c1.1,0,2,0.2,2.6,0.8
			c0.5,0.5,0.9,1.2,0.9,2.3v3.8c0,0.5,0.2,0.9,0.7,0.9c0.2,0,0.4-0.1,0.5-0.1v1.4c-0.2,0.1-0.5,0.2-0.9,0.2c-0.7,0-1.4-0.3-1.7-0.9
			h0c-0.5,0.5-1.5,1-2.7,1C884.3,5646.2,883.5,5646,882.9,5645.6z M887.5,5644v-1.7c-0.5-0.1-1.2-0.2-1.7-0.2
			c-1.1,0-2.2,0.3-2.2,1.4c0,0.9,0.7,1.3,1.7,1.3C886.1,5644.8,887,5644.4,887.5,5644z"/>
		<path class="st3" d="M892.3,5637.1h1.6v1.1l0,0c0.8-0.8,1.9-1.3,3.1-1.3c1,0,1.8,0.3,2.4,1c0.5,0.6,0.7,1.2,0.7,2.6v5.5h-1.6v-5.2
			c0-0.9-0.1-1.5-0.4-1.8c-0.4-0.4-0.9-0.6-1.4-0.6c-1,0-2.1,0.6-2.8,1.5v6.1h-1.6V5637.1z"/>
		<path class="st3" d="M910,5645.6c-0.8,0.4-1.7,0.6-2.6,0.6c-2.8,0-4.8-1.9-4.8-4.6c0-2.7,2.2-4.7,4.9-4.7c0.9,0,1.8,0.2,2.4,0.6
			v1.7c-0.7-0.5-1.6-0.8-2.5-0.8c-1.9,0-3.2,1.4-3.2,3.2c0,1.8,1.3,3.1,3.3,3.1c1,0,1.9-0.3,2.6-0.9V5645.6z"/>
		<path class="st3" d="M913.4,5642c0.2,1.7,1.5,2.7,3.3,2.7c1.2,0,2.2-0.5,3.1-1.1v1.7c-0.8,0.5-2,0.8-3.2,0.8
			c-2.7,0-4.8-1.8-4.8-4.6c0-2.8,2-4.6,4.4-4.6c2.2,0,4,1.5,4,4.3c0,0.3,0,0.6-0.1,0.8H913.4z M913.5,5640.8h5.2
			c-0.1-1.8-1.4-2.4-2.5-2.4C915,5638.4,913.8,5639.1,913.5,5640.8z"/>
		<path class="st3" d="M922.5,5643.8c1,0.6,2.3,1,3.4,1c1.2,0,2-0.4,2-1.2c0-1.1-1.3-1.1-2.6-1.3c-1.7-0.3-3-0.8-3-2.5
			c0-1.8,1.6-2.7,3.6-2.7c1.1,0,2.3,0.2,3.2,0.7v1.6c-1-0.6-2.2-0.9-3.2-0.9c-1.1,0-1.9,0.3-1.9,1.1c0,1,1.3,1,2.6,1.2
			c1.7,0.3,3.1,0.8,3.1,2.6c0,2.1-1.8,2.8-3.7,2.8c-1.1,0-2.4-0.2-3.3-0.7V5643.8z"/>
		<path class="st3" d="M936.4,5637.1h1.6v1.3l0,0c0.6-0.9,1.6-1.4,2.6-1.4c0.2,0,0.4,0,0.6,0.1v1.6c-0.2-0.1-0.4-0.1-0.6-0.1
			c-1.2,0-2.1,0.6-2.6,1.6v5.8h-1.6V5637.1z"/>
		<path class="st3" d="M943.9,5642c0.2,1.7,1.5,2.7,3.3,2.7c1.2,0,2.2-0.5,3.1-1.1v1.7c-0.8,0.5-2,0.8-3.2,0.8
			c-2.7,0-4.8-1.8-4.8-4.6c0-2.8,2-4.6,4.4-4.6c2.2,0,4,1.5,4,4.3c0,0.3,0,0.6-0.1,0.8H943.9z M944,5640.8h5.2
			c-0.1-1.8-1.4-2.4-2.5-2.4C945.5,5638.4,944.3,5639.1,944,5640.8z"/>
		<path class="st3" d="M953.2,5632.2h1.6v13.8h-1.6V5632.2z"/>
		<path class="st3" d="M958.2,5645.6c-0.6-0.4-0.9-1.1-0.9-2c0-1,0.5-1.7,1.2-2.2c0.7-0.4,1.6-0.6,2.5-0.6c0.7,0,1.3,0.1,1.9,0.2
			v-0.7c0-0.6-0.2-1.1-0.5-1.5c-0.3-0.3-0.9-0.5-1.6-0.5c-1.1,0-2.1,0.4-2.7,0.9v-1.6c0.7-0.4,1.6-0.8,3-0.8c1.1,0,2,0.2,2.6,0.8
			c0.5,0.5,0.9,1.2,0.9,2.3v3.8c0,0.5,0.2,0.9,0.7,0.9c0.2,0,0.4-0.1,0.5-0.1v1.4c-0.2,0.1-0.5,0.2-0.9,0.2c-0.7,0-1.4-0.3-1.7-0.9
			h0c-0.5,0.5-1.5,1-2.7,1C959.6,5646.2,958.8,5646,958.2,5645.6z M962.8,5644v-1.7c-0.5-0.1-1.2-0.2-1.7-0.2
			c-1.1,0-2.2,0.3-2.2,1.4c0,0.9,0.7,1.3,1.7,1.3C961.4,5644.8,962.3,5644.4,962.8,5644z"/>
		<path class="st3" d="M968.3,5642.9v-4.3h-1.6v-1.5h1.6v-2.4l1.6-0.3v2.7h2.7v1.5h-2.7v4c0,1.1,0.2,2.1,1.3,2.1
			c0.5,0,1-0.2,1.3-0.4v1.5c-0.4,0.2-1,0.3-1.6,0.3c-0.6,0-1.4-0.2-2-0.8C968.5,5644.9,968.3,5644.2,968.3,5642.9z"/>
		<path class="st3" d="M975.6,5642c0.2,1.7,1.5,2.7,3.3,2.7c1.2,0,2.2-0.5,3.1-1.1v1.7c-0.8,0.5-2,0.8-3.2,0.8
			c-2.7,0-4.8-1.8-4.8-4.6c0-2.8,2-4.6,4.4-4.6c2.2,0,4,1.5,4,4.3c0,0.3,0,0.6-0.1,0.8H975.6z M975.6,5640.8h5.2
			c-0.1-1.8-1.4-2.4-2.5-2.4C977.1,5638.4,975.9,5639.1,975.6,5640.8z"/>
		<path class="st3" d="M989,5636.9c0.9,0,1.5,0.2,2.1,0.5l0,0v-5.1h1.6v13.8h-1.6v-0.5l0,0c-0.6,0.4-1.4,0.8-2.5,0.8
			c-2.4,0-4.3-1.7-4.3-4.5C984.3,5639,986.2,5636.9,989,5636.9z M988.8,5644.8c0.9,0,1.7-0.3,2.3-0.8v-5.1c-0.6-0.3-1.4-0.6-2.2-0.6
			c-1.9,0-3,1.4-3,3.2C985.9,5643.4,987,5644.8,988.8,5644.8z"/>
		<path class="st3" d="M1000.9,5642.9v-4.3h-1.6v-1.5h1.6v-2.4l1.6-0.3v2.7h2.7v1.5h-2.7v4c0,1.1,0.2,2.1,1.3,2.1
			c0.5,0,1-0.2,1.3-0.4v1.5c-0.4,0.2-1,0.3-1.6,0.3c-0.6,0-1.4-0.2-2-0.8C1001.2,5644.9,1000.9,5644.2,1000.9,5642.9z"/>
		<path class="st3" d="M1011.3,5636.9c2.7,0,4.7,2,4.7,4.6c0,2.6-2,4.6-4.7,4.6c-2.7,0-4.7-2-4.7-4.6
			C1006.6,5639,1008.6,5636.9,1011.3,5636.9z M1011.3,5644.7c1.8,0,3.1-1.4,3.1-3.2c0-1.8-1.3-3.2-3.1-3.2c-1.8,0-3.1,1.4-3.1,3.2
			C1008.2,5643.4,1009.5,5644.7,1011.3,5644.7z"/>
		<path class="st3" d="M1026.9,5633h1.6l5.4,13h-1.8l-1.5-3.6h-5.9l-1.5,3.6h-1.7L1026.9,5633z M1025.4,5640.9h4.7l-1.1-2.7
			c-0.4-1-0.8-2.2-1.2-3.2h0c-0.4,1.1-0.8,2.2-1.3,3.3L1025.4,5640.9z"/>
		<path class="st3" d="M1035.6,5633h1.7v11.5h6.2v1.5h-7.9V5633z"/>
		<path class="st3" d="M1045.6,5633h3.4c1.4,0,2.7,0.1,3.9,0.7c1.1,0.6,1.9,1.7,1.9,3.2c0,1.5-0.7,2.6-1.8,3.2
			c-1.1,0.7-2.6,0.7-4.3,0.7h-1.4v5.1h-1.7V5633z M1048.9,5639.4c1.5,0,2.4-0.1,3.1-0.5c0.6-0.4,1-1,1-1.9c0-1-0.5-1.6-1.2-2
			c-0.8-0.4-1.7-0.4-3-0.4h-1.5v4.8H1048.9z"/>
		<path class="st3" d="M1061.8,5645.6c-0.6-0.4-0.9-1.1-0.9-2c0-1,0.5-1.7,1.2-2.2c0.7-0.4,1.6-0.6,2.5-0.6c0.7,0,1.3,0.1,1.9,0.2
			v-0.7c0-0.6-0.2-1.1-0.5-1.5c-0.3-0.3-0.9-0.5-1.6-0.5c-1.1,0-2.1,0.4-2.7,0.9v-1.6c0.7-0.4,1.6-0.8,3-0.8c1.1,0,2,0.2,2.6,0.8
			c0.5,0.5,0.9,1.2,0.9,2.3v3.8c0,0.5,0.2,0.9,0.7,0.9c0.2,0,0.4-0.1,0.5-0.1v1.4c-0.2,0.1-0.5,0.2-0.9,0.2c-0.7,0-1.4-0.3-1.7-0.9
			h0c-0.5,0.5-1.5,1-2.7,1C1063.2,5646.2,1062.4,5646,1061.8,5645.6z M1066.4,5644v-1.7c-0.5-0.1-1.2-0.2-1.7-0.2
			c-1.1,0-2.2,0.3-2.2,1.4c0,0.9,0.7,1.3,1.7,1.3C1065.1,5644.8,1065.9,5644.4,1066.4,5644z"/>
		<path class="st3" d="M1078.1,5645.6c-0.8,0.4-1.7,0.6-2.6,0.6c-2.8,0-4.8-1.9-4.8-4.6c0-2.7,2.2-4.7,4.9-4.7
			c0.9,0,1.8,0.2,2.4,0.6v1.7c-0.7-0.5-1.6-0.8-2.5-0.8c-1.9,0-3.2,1.4-3.2,3.2c0,1.8,1.4,3.1,3.3,3.1c1,0,1.9-0.3,2.6-0.9V5645.6z"
			/>
		<path class="st3" d="M1081.2,5642.9v-4.3h-1.6v-1.5h1.6v-2.4l1.6-0.3v2.7h2.7v1.5h-2.7v4c0,1.1,0.2,2.1,1.3,2.1
			c0.5,0,1-0.2,1.3-0.4v1.5c-0.4,0.2-1,0.3-1.6,0.3c-0.6,0-1.4-0.2-2-0.8C1081.5,5644.9,1081.2,5644.2,1081.2,5642.9z"/>
		<path class="st3" d="M1088.5,5633c0.6,0,1.1,0.5,1.1,1.1s-0.5,1.1-1.1,1.1c-0.6,0-1.1-0.5-1.1-1.1S1087.9,5633,1088.5,5633z
			 M1087.7,5637.1h1.6v8.9h-1.6V5637.1z"/>
		<path class="st3" d="M1091.3,5637.1h1.8l1.6,4c0.4,1,0.8,1.9,1.1,2.8h0c0.4-1,0.8-1.9,1.2-3l1.6-3.9h1.7l-3.7,8.9h-1.6
			L1091.3,5637.1z"/>
		<path class="st3" d="M1103.2,5633c0.6,0,1.1,0.5,1.1,1.1s-0.5,1.1-1.1,1.1c-0.6,0-1.1-0.5-1.1-1.1S1102.5,5633,1103.2,5633z
			 M1102.4,5637.1h1.6v8.9h-1.6V5637.1z"/>
		<path class="st3" d="M1107.7,5642.9v-4.3h-1.6v-1.5h1.6v-2.4l1.6-0.3v2.7h2.7v1.5h-2.7v4c0,1.1,0.2,2.1,1.3,2.1
			c0.5,0,1-0.2,1.3-0.4v1.5c-0.4,0.2-1,0.3-1.6,0.3c-0.6,0-1.4-0.2-2-0.8C1107.9,5644.9,1107.7,5644.2,1107.7,5642.9z"/>
		<path class="st3" d="M1114.4,5650l2.4-4.9l-3.7-7.9h1.8l1.5,3.3c0.4,0.9,0.8,1.9,1.2,2.7h0c0.4-0.9,0.8-1.8,1.2-2.7l1.5-3.3h1.7
			l-6,12.8H1114.4z"/>
	</g>
	<g class="st1">
		<path class="st3" d="M835.8,5675.6c-0.6-0.4-0.9-1.1-0.9-2c0-1,0.5-1.7,1.2-2.2c0.7-0.4,1.6-0.6,2.5-0.6c0.7,0,1.3,0.1,1.9,0.2
			v-0.7c0-0.6-0.2-1.1-0.5-1.5c-0.3-0.3-0.9-0.5-1.6-0.5c-1.1,0-2.1,0.4-2.7,0.9v-1.6c0.7-0.4,1.6-0.8,3-0.8c1.1,0,2,0.2,2.6,0.8
			c0.5,0.5,0.9,1.2,0.9,2.3v3.8c0,0.5,0.2,0.9,0.7,0.9c0.2,0,0.4-0.1,0.5-0.1v1.4c-0.2,0.1-0.5,0.2-0.9,0.2c-0.7,0-1.4-0.3-1.7-0.9
			h0c-0.5,0.5-1.5,1-2.7,1C837.2,5676.2,836.4,5676,835.8,5675.6z M840.4,5674v-1.7c-0.5-0.1-1.2-0.2-1.7-0.2
			c-1.1,0-2.2,0.3-2.2,1.4c0,0.9,0.7,1.3,1.7,1.3C839,5674.8,839.8,5674.4,840.4,5674z"/>
		<path class="st3" d="M845.8,5672.9v-4.3h-1.6v-1.5h1.6v-2.4l1.6-0.3v2.7h2.7v1.5h-2.7v4c0,1.1,0.2,2.1,1.3,2.1
			c0.5,0,1-0.2,1.3-0.4v1.5c-0.4,0.2-1,0.3-1.6,0.3c-0.6,0-1.4-0.2-2-0.8C846.1,5674.9,845.8,5674.2,845.8,5672.9z"/>
		<path class="st3" d="M862.8,5663l-3.1,4.9c-0.2,0.3-0.4,0.6-0.5,0.8l0,0c0.5-0.3,1.2-0.6,2-0.6c2.2,0,4,1.7,4,3.9
			c0,2.4-1.9,4.1-4.4,4.1c-2.5,0-4.4-1.7-4.4-4.3c0-1.2,0.4-2.3,1.6-4.2l2.9-4.7H862.8z M860.8,5674.7c1.5,0,2.7-1,2.7-2.6
			c0-1.4-1.1-2.6-2.7-2.6c-1.5,0-2.8,1-2.8,2.5C858.1,5673.4,859.1,5674.7,860.8,5674.7z"/>
		<path class="st3" d="M884.5,5670.8c0-0.8-0.1-1.4-0.5-1.8c-0.3-0.4-0.9-0.5-1.4-0.5c-1,0-2.1,0.7-2.7,1.4c0,0.2,0,0.4,0,0.6v5.5
			h-1.6v-5.2c0-1-0.1-1.4-0.4-1.7c-0.4-0.4-0.8-0.6-1.4-0.6c-1,0-2.1,0.6-2.7,1.4v6.2h-1.6v-8.9h1.6v1.1l0,0c0.7-0.7,1.8-1.3,3-1.3
			c1.1,0,2.2,0.5,2.7,1.5c1.1-1,2.1-1.5,3.4-1.5c1,0,1.8,0.3,2.3,0.9c0.5,0.6,0.7,1.4,0.7,2.6v5.5h-1.6V5670.8z"/>
		<path class="st3" d="M893.1,5666.9c2.7,0,4.7,2,4.7,4.6c0,2.6-2,4.6-4.7,4.6c-2.7,0-4.7-2-4.7-4.6
			C888.5,5669,890.5,5666.9,893.1,5666.9z M893.1,5674.7c1.8,0,3.1-1.4,3.1-3.2c0-1.8-1.3-3.2-3.1-3.2c-1.8,0-3.1,1.4-3.1,3.2
			C890.1,5673.4,891.4,5674.7,893.1,5674.7z"/>
		<path class="st3" d="M900.2,5667.1h1.6v1.1l0,0c0.8-0.8,1.9-1.3,3.1-1.3c1,0,1.8,0.3,2.4,1c0.5,0.6,0.7,1.2,0.7,2.6v5.5h-1.6v-5.2
			c0-0.9-0.1-1.5-0.4-1.8c-0.4-0.4-0.9-0.6-1.4-0.6c-1,0-2.1,0.6-2.8,1.5v6.1h-1.6V5667.1z"/>
		<path class="st3" d="M911.7,5672.9v-4.3h-1.6v-1.5h1.6v-2.4l1.6-0.3v2.7h2.7v1.5h-2.7v4c0,1.1,0.2,2.1,1.3,2.1
			c0.5,0,1-0.2,1.3-0.4v1.5c-0.4,0.2-1,0.3-1.6,0.3c-0.6,0-1.4-0.2-2-0.8C912,5674.9,911.7,5674.2,911.7,5672.9z"/>
		<path class="st3" d="M918.2,5662.2h1.6v6l0,0c0.8-0.8,1.9-1.3,3.1-1.3c1,0,1.8,0.3,2.4,1c0.5,0.6,0.7,1.2,0.7,2.6v5.5h-1.6v-5.2
			c0-1-0.1-1.5-0.4-1.8c-0.3-0.4-0.8-0.6-1.3-0.6c-1.1,0-2.2,0.6-2.8,1.5v6.1h-1.6V5662.2z"/>
		<path class="st3" d="M928.8,5673.8c1,0.6,2.3,1,3.4,1c1.2,0,2-0.4,2-1.2c0-1.1-1.3-1.1-2.6-1.3c-1.7-0.3-3-0.8-3-2.5
			c0-1.8,1.6-2.7,3.6-2.7c1.1,0,2.3,0.2,3.2,0.7v1.6c-1-0.6-2.2-0.9-3.2-0.9c-1.1,0-1.9,0.3-1.9,1.1c0,1,1.3,1,2.6,1.2
			c1.7,0.3,3.1,0.8,3.1,2.6c0,2.1-1.8,2.8-3.7,2.8c-1.1,0-2.4-0.2-3.3-0.7V5673.8z"/>
		<path class="st3" d="M938.2,5668.1c0-0.6,0.5-1.2,1.2-1.2c0.6,0,1.2,0.5,1.2,1.2c0,0.6-0.5,1.2-1.2,1.2
			C938.7,5669.3,938.2,5668.8,938.2,5668.1z M939.4,5673.9c0.6,0,1.2,0.5,1.2,1.2c0,0.6-0.5,1.2-1.2,1.2c-0.6,0-1.2-0.5-1.2-1.2
			C938.2,5674.4,938.7,5673.9,939.4,5673.9z"/>
		<path class="st3" d="M948.2,5663h3.4c1.4,0,2.7,0.1,3.9,0.7c1.1,0.6,1.9,1.7,1.9,3.2c0,1.5-0.7,2.6-1.8,3.2
			c-1.1,0.7-2.6,0.7-4.3,0.7h-1.4v5.1h-1.7V5663z M951.4,5669.4c1.5,0,2.4-0.1,3.1-0.5c0.6-0.4,1-1,1-1.9c0-1-0.5-1.6-1.2-2
			c-0.8-0.4-1.7-0.4-3-0.4h-1.5v4.8H951.4z"/>
		<path class="st3" d="M959.5,5663h3.4c1.4,0,2.7,0.1,3.9,0.7c1.1,0.6,1.9,1.7,1.9,3.2c0,1.5-0.7,2.6-1.8,3.2
			c-1.1,0.7-2.6,0.7-4.3,0.7h-1.4v5.1h-1.7V5663z M962.8,5669.4c1.5,0,2.4-0.1,3.1-0.5c0.6-0.4,1-1,1-1.9c0-1-0.5-1.6-1.2-2
			c-0.8-0.4-1.7-0.4-3-0.4h-1.5v4.8H962.8z"/>
		<path class="st3" d="M971.7,5663c0.6,0,1.1,0.5,1.1,1.1s-0.5,1.1-1.1,1.1c-0.6,0-1.1-0.5-1.1-1.1S971,5663,971.7,5663z
			 M970.9,5667.1h1.6v8.9h-1.6V5667.1z"/>
		<path class="st3" d="M980.3,5675.6c-0.6-0.4-0.9-1.1-0.9-2c0-1,0.5-1.7,1.2-2.2c0.7-0.4,1.6-0.6,2.5-0.6c0.7,0,1.3,0.1,1.9,0.2
			v-0.7c0-0.6-0.2-1.1-0.5-1.5c-0.3-0.3-0.9-0.5-1.6-0.5c-1.1,0-2.1,0.4-2.7,0.9v-1.6c0.7-0.4,1.6-0.8,3-0.8c1.1,0,2,0.2,2.6,0.8
			c0.5,0.5,0.9,1.2,0.9,2.3v3.8c0,0.5,0.2,0.9,0.7,0.9c0.2,0,0.4-0.1,0.5-0.1v1.4c-0.2,0.1-0.5,0.2-0.9,0.2c-0.7,0-1.4-0.3-1.7-0.9
			h0c-0.5,0.5-1.5,1-2.7,1C981.7,5676.2,980.9,5676,980.3,5675.6z M984.9,5674v-1.7c-0.5-0.1-1.2-0.2-1.7-0.2
			c-1.1,0-2.2,0.3-2.2,1.4c0,0.9,0.7,1.3,1.7,1.3C983.6,5674.8,984.4,5674.4,984.9,5674z"/>
		<path class="st3" d="M989.7,5667.1h1.6v1.1l0,0c0.8-0.8,1.9-1.3,3.1-1.3c1,0,1.8,0.3,2.4,1c0.5,0.6,0.7,1.2,0.7,2.6v5.5H996v-5.2
			c0-0.9-0.1-1.5-0.4-1.8c-0.4-0.4-0.9-0.6-1.4-0.6c-1,0-2.1,0.6-2.8,1.5v6.1h-1.6V5667.1z"/>
		<path class="st3" d="M1004.7,5666.9c0.9,0,1.5,0.2,2.1,0.5l0,0v-5.1h1.6v13.8h-1.6v-0.5l0,0c-0.6,0.4-1.4,0.8-2.5,0.8
			c-2.4,0-4.3-1.7-4.3-4.5C1000,5669,1001.9,5666.9,1004.7,5666.9z M1004.5,5674.8c0.9,0,1.7-0.3,2.3-0.8v-5.1
			c-0.6-0.3-1.4-0.6-2.2-0.6c-1.9,0-3,1.4-3,3.2C1001.6,5673.4,1002.7,5674.8,1004.5,5674.8z"/>
		<path class="st3" d="M1016,5663h3.4c1.4,0,2.7,0.1,3.9,0.7c1.1,0.6,1.9,1.7,1.9,3.2c0,1.5-0.7,2.6-1.8,3.2
			c-1.1,0.7-2.6,0.7-4.3,0.7h-1.4v5.1h-1.7V5663z M1019.3,5669.4c1.5,0,2.4-0.1,3.1-0.5c0.6-0.4,1-1,1-1.9c0-1-0.5-1.6-1.2-2
			c-0.8-0.4-1.7-0.4-3-0.4h-1.5v4.8H1019.3z"/>
		<path class="st3" d="M1027.4,5663h1.7v11.5h6.2v1.5h-7.9V5663z"/>
		<path class="st3" d="M1037.4,5663h3.4c1.4,0,2.7,0.1,3.9,0.7c1.1,0.6,1.9,1.7,1.9,3.2c0,1.5-0.7,2.6-1.8,3.2
			c-1.1,0.7-2.6,0.7-4.3,0.7h-1.4v5.1h-1.7V5663z M1040.7,5669.4c1.5,0,2.4-0.1,3.1-0.5c0.6-0.4,1-1,1-1.9c0-1-0.5-1.6-1.2-2
			c-0.8-0.4-1.7-0.4-3-0.4h-1.5v4.8H1040.7z"/>
		<path class="st3" d="M1047.5,5673.8c0.6,0,1.2,0.5,1.2,1.2s-0.5,1.2-1.2,1.2c-0.6,0-1.2-0.5-1.2-1.2S1046.8,5673.8,1047.5,5673.8z
			"/>
		<path class="st3" d="M1054.5,5663h1.8l2.2,7.1c0.3,1.1,0.7,2.3,1,3.4h0c0.3-1.1,0.7-2.3,1-3.4l2.2-7h1.3l2.2,7.1
			c0.4,1.2,0.7,2.2,1,3.4h0c0.3-1.1,0.7-2.3,1-3.4l2.2-7h1.7l-4.1,13h-1.8l-2.1-6.6c-0.3-1-0.6-2-0.9-3h0c-0.3,1-0.6,2-0.9,3
			l-2.1,6.6h-1.9L1054.5,5663z"/>
		<path class="st3" d="M1074.1,5662.2h1.6v6l0,0c0.8-0.8,1.9-1.3,3.1-1.3c1,0,1.8,0.3,2.4,1c0.5,0.6,0.7,1.2,0.7,2.6v5.5h-1.6v-5.2
			c0-1-0.1-1.5-0.4-1.8c-0.3-0.4-0.8-0.6-1.3-0.6c-1.1,0-2.2,0.6-2.8,1.5v6.1h-1.6V5662.2z"/>
		<path class="st3" d="M1085.7,5663c0.6,0,1.1,0.5,1.1,1.1s-0.5,1.1-1.1,1.1c-0.6,0-1.1-0.5-1.1-1.1S1085.1,5663,1085.7,5663z
			 M1084.9,5667.1h1.6v8.9h-1.6V5667.1z"/>
		<path class="st3" d="M1089.5,5662.2h1.6v13.8h-1.6V5662.2z"/>
		<path class="st3" d="M1095.1,5672c0.2,1.7,1.5,2.7,3.3,2.7c1.2,0,2.2-0.5,3.1-1.1v1.7c-0.8,0.5-2,0.8-3.2,0.8
			c-2.7,0-4.8-1.8-4.8-4.6c0-2.8,2-4.6,4.4-4.6c2.2,0,4,1.5,4,4.3c0,0.3,0,0.6-0.1,0.8H1095.1z M1095.2,5670.8h5.2
			c-0.1-1.8-1.4-2.4-2.5-2.4C1096.7,5668.4,1095.5,5669.1,1095.2,5670.8z"/>
	</g>
	<g class="st1">
		<path class="st3" d="M836.1,5702.9v-4.3h-1.6v-1.5h1.6v-2.4l1.6-0.3v2.7h2.7v1.5h-2.7v4c0,1.1,0.2,2.1,1.3,2.1
			c0.5,0,1-0.2,1.3-0.4v1.5c-0.4,0.2-1,0.3-1.6,0.3c-0.6,0-1.4-0.2-2-0.8C836.3,5704.9,836.1,5704.2,836.1,5702.9z"/>
		<path class="st3" d="M842.6,5692.2h1.6v6l0,0c0.8-0.8,1.9-1.3,3.1-1.3c1,0,1.8,0.3,2.4,1c0.5,0.6,0.7,1.2,0.7,2.6v5.5h-1.6v-5.2
			c0-1-0.1-1.5-0.4-1.8c-0.3-0.4-0.8-0.6-1.4-0.6c-1.1,0-2.2,0.6-2.8,1.5v6.1h-1.6V5692.2z"/>
		<path class="st3" d="M854.4,5702c0.2,1.7,1.5,2.7,3.3,2.7c1.2,0,2.3-0.5,3.1-1.1v1.7c-0.8,0.5-2,0.8-3.2,0.8
			c-2.7,0-4.8-1.8-4.8-4.6c0-2.8,2-4.6,4.4-4.6c2.2,0,4,1.5,4,4.3c0,0.3,0,0.6-0.1,0.8H854.4z M854.4,5700.8h5.2
			c-0.1-1.8-1.4-2.4-2.5-2.4C856,5698.4,854.7,5699.1,854.4,5700.8z"/>
		<path class="st3" d="M875.1,5705.6c-0.8,0.4-1.7,0.6-2.6,0.6c-2.8,0-4.8-1.9-4.8-4.6c0-2.7,2.2-4.7,4.9-4.7c0.9,0,1.8,0.2,2.4,0.6
			v1.7c-0.7-0.5-1.6-0.8-2.5-0.8c-1.9,0-3.2,1.4-3.2,3.2c0,1.8,1.4,3.1,3.3,3.1c1,0,1.9-0.3,2.6-0.9V5705.6z"/>
		<path class="st3" d="M881.6,5696.9c2.7,0,4.7,2,4.7,4.6c0,2.6-2,4.6-4.7,4.6s-4.7-2-4.7-4.6C876.9,5699,878.9,5696.9,881.6,5696.9
			z M881.6,5704.7c1.8,0,3.1-1.4,3.1-3.2c0-1.8-1.3-3.2-3.1-3.2s-3.1,1.4-3.1,3.2C878.5,5703.4,879.8,5704.7,881.6,5704.7z"/>
		<path class="st3" d="M890.3,5710h-1.6v-12.8h1.6v0.6l0,0c0.6-0.4,1.5-0.8,2.5-0.8c2.4,0,4.3,1.9,4.3,4.6c0,2.8-2.1,4.7-4.6,4.7
			c-0.9,0-1.6-0.2-2.2-0.5l0,0V5710z M892.5,5704.8c1.8,0,3-1.3,3-3.1c0-1.8-1.2-3.3-2.9-3.3c-0.8,0-1.7,0.3-2.3,0.8v5
			C890.8,5704.5,891.7,5704.8,892.5,5704.8z"/>
		<path class="st3" d="M899.5,5697.1h1.6v1.3l0,0c0.6-0.9,1.6-1.4,2.6-1.4c0.2,0,0.4,0,0.6,0.1v1.6c-0.2-0.1-0.4-0.1-0.6-0.1
			c-1.2,0-2.1,0.6-2.6,1.6v5.8h-1.6V5697.1z"/>
		<path class="st3" d="M907.1,5693c0.6,0,1.1,0.5,1.1,1.1s-0.5,1.1-1.1,1.1c-0.6,0-1.1-0.5-1.1-1.1S906.5,5693,907.1,5693z
			 M906.3,5697.1h1.6v8.9h-1.6V5697.1z"/>
		<path class="st3" d="M923.1,5700.8c0-0.8-0.1-1.4-0.5-1.8c-0.3-0.4-0.9-0.5-1.4-0.5c-1,0-2.1,0.7-2.7,1.4c0,0.2,0,0.4,0,0.6v5.5
			H917v-5.2c0-1-0.1-1.4-0.4-1.7c-0.4-0.4-0.8-0.6-1.3-0.6c-1,0-2.1,0.6-2.7,1.4v6.2h-1.6v-8.9h1.6v1.1l0,0c0.7-0.7,1.8-1.3,3-1.3
			c1.1,0,2.2,0.5,2.7,1.5c1.1-1,2.1-1.5,3.4-1.5c1,0,1.8,0.3,2.3,0.9c0.5,0.6,0.7,1.4,0.7,2.6v5.5h-1.6V5700.8z"/>
		<path class="st3" d="M928,5705.6c-0.6-0.4-0.9-1.1-0.9-2c0-1,0.5-1.7,1.2-2.2c0.7-0.4,1.6-0.6,2.5-0.6c0.7,0,1.3,0.1,1.9,0.2v-0.7
			c0-0.6-0.2-1.1-0.5-1.5c-0.3-0.3-0.9-0.5-1.6-0.5c-1.1,0-2.1,0.4-2.7,0.9v-1.6c0.7-0.4,1.6-0.8,3-0.8c1.1,0,2,0.2,2.6,0.8
			c0.5,0.5,0.9,1.2,0.9,2.3v3.8c0,0.5,0.2,0.9,0.7,0.9c0.2,0,0.4-0.1,0.5-0.1v1.4c-0.2,0.1-0.5,0.2-0.9,0.2c-0.7,0-1.4-0.3-1.7-0.9
			h0c-0.5,0.5-1.5,1-2.7,1C929.4,5706.2,928.6,5706,928,5705.6z M932.7,5704v-1.7c-0.5-0.1-1.2-0.2-1.7-0.2c-1.1,0-2.2,0.3-2.2,1.4
			c0,0.9,0.7,1.3,1.7,1.3C931.3,5704.8,932.1,5704.4,932.7,5704z"/>
		<path class="st3" d="M937.4,5697.1h1.6v1.3l0,0c0.6-0.9,1.6-1.4,2.6-1.4c0.2,0,0.4,0,0.6,0.1v1.6c-0.2-0.1-0.4-0.1-0.6-0.1
			c-1.2,0-2.1,0.6-2.6,1.6v5.8h-1.6V5697.1z"/>
		<path class="st3" d="M944.6,5710l2.4-4.9l-3.7-7.9h1.8l1.5,3.3c0.4,0.9,0.8,1.9,1.2,2.7h0c0.4-0.9,0.8-1.8,1.2-2.7l1.5-3.3h1.7
			l-6,12.8H944.6z"/>
		<path class="st3" d="M959.9,5702c0.2,1.7,1.5,2.7,3.3,2.7c1.2,0,2.2-0.5,3.1-1.1v1.7c-0.8,0.5-2,0.8-3.2,0.8
			c-2.7,0-4.8-1.8-4.8-4.6c0-2.8,2-4.6,4.4-4.6c2.2,0,4,1.5,4,4.3c0,0.3,0,0.6-0.1,0.8H959.9z M959.9,5700.8h5.2
			c-0.1-1.8-1.4-2.4-2.5-2.4C961.5,5698.4,960.2,5699.1,959.9,5700.8z"/>
		<path class="st3" d="M969.2,5697.1h1.6v1.1l0,0c0.8-0.8,1.9-1.3,3.1-1.3c1,0,1.8,0.3,2.4,1c0.5,0.6,0.7,1.2,0.7,2.6v5.5h-1.6v-5.2
			c0-0.9-0.1-1.5-0.4-1.8c-0.4-0.4-0.9-0.6-1.4-0.6c-1,0-2.1,0.6-2.8,1.5v6.1h-1.6V5697.1z"/>
		<path class="st3" d="M984.1,5696.9c0.9,0,1.5,0.2,2.1,0.5l0,0v-5.1h1.6v13.8h-1.6v-0.5l0,0c-0.6,0.4-1.4,0.8-2.5,0.8
			c-2.4,0-4.3-1.7-4.3-4.5C979.4,5699,981.3,5696.9,984.1,5696.9z M984,5704.8c0.9,0,1.7-0.3,2.3-0.8v-5.1c-0.6-0.3-1.4-0.6-2.2-0.6
			c-1.9,0-3,1.4-3,3.2C981.1,5703.4,982.2,5704.8,984,5704.8z"/>
		<path class="st3" d="M992.5,5710h-1.6v-12.8h1.6v0.6l0,0c0.6-0.4,1.5-0.8,2.5-0.8c2.4,0,4.3,1.9,4.3,4.6c0,2.8-2.1,4.7-4.6,4.7
			c-0.9,0-1.6-0.2-2.2-0.5l0,0V5710z M994.8,5704.8c1.8,0,3-1.3,3-3.1c0-1.8-1.2-3.3-2.9-3.3c-0.8,0-1.7,0.3-2.3,0.8v5
			C993.1,5704.5,993.9,5704.8,994.8,5704.8z"/>
		<path class="st3" d="M1005.8,5696.9c2.7,0,4.7,2,4.7,4.6c0,2.6-2,4.6-4.7,4.6c-2.7,0-4.7-2-4.7-4.6
			C1001.2,5699,1003.2,5696.9,1005.8,5696.9z M1005.8,5704.7c1.8,0,3.1-1.4,3.1-3.2c0-1.8-1.3-3.2-3.1-3.2c-1.8,0-3.1,1.4-3.1,3.2
			C1002.8,5703.4,1004.1,5704.7,1005.8,5704.7z"/>
		<path class="st3" d="M1013.7,5693c0.6,0,1.1,0.5,1.1,1.1s-0.5,1.1-1.1,1.1c-0.6,0-1.1-0.5-1.1-1.1S1013.1,5693,1013.7,5693z
			 M1012.9,5697.1h1.6v8.9h-1.6V5697.1z"/>
		<path class="st3" d="M1017.5,5697.1h1.6v1.1l0,0c0.8-0.8,1.9-1.3,3.1-1.3c1,0,1.8,0.3,2.4,1c0.5,0.6,0.7,1.2,0.7,2.6v5.5h-1.6
			v-5.2c0-0.9-0.1-1.5-0.4-1.8c-0.4-0.4-0.9-0.6-1.4-0.6c-1,0-2.1,0.6-2.8,1.5v6.1h-1.6V5697.1z"/>
		<path class="st3" d="M1029,5702.9v-4.3h-1.6v-1.5h1.6v-2.4l1.6-0.3v2.7h2.7v1.5h-2.7v4c0,1.1,0.2,2.1,1.3,2.1c0.5,0,1-0.2,1.3-0.4
			v1.5c-0.4,0.2-1,0.3-1.6,0.3c-0.6,0-1.4-0.2-2-0.8C1029.3,5704.9,1029,5704.2,1029,5702.9z"/>
		<path class="st3" d="M1039.1,5697.1h1.8l1.3,3.9c0.3,0.9,0.6,1.8,0.9,2.7h0c0.3-0.9,0.6-1.9,1-2.7l1.5-3.9h1.2l1.5,3.9
			c0.3,0.9,0.7,1.8,1,2.7h0c0.3-0.9,0.6-1.8,0.9-2.7l1.3-4h1.7l-3.1,8.9h-1.6l-1.4-3.8c-0.3-0.8-0.6-1.7-0.9-2.5h0
			c-0.3,0.8-0.6,1.7-0.9,2.5l-1.4,3.8h-1.6L1039.1,5697.1z"/>
		<path class="st3" d="M1055,5705.6c-0.6-0.4-0.9-1.1-0.9-2c0-1,0.5-1.7,1.2-2.2c0.7-0.4,1.6-0.6,2.5-0.6c0.7,0,1.3,0.1,1.9,0.2
			v-0.7c0-0.6-0.2-1.1-0.5-1.5c-0.3-0.3-0.9-0.5-1.6-0.5c-1.1,0-2.1,0.4-2.7,0.9v-1.6c0.7-0.4,1.6-0.8,3-0.8c1.1,0,2,0.2,2.6,0.8
			c0.5,0.5,0.9,1.2,0.9,2.3v3.8c0,0.5,0.2,0.9,0.7,0.9c0.2,0,0.4-0.1,0.5-0.1v1.4c-0.2,0.1-0.5,0.2-0.9,0.2c-0.7,0-1.4-0.3-1.7-0.9
			h0c-0.5,0.5-1.5,1-2.7,1C1056.4,5706.2,1055.6,5706,1055,5705.6z M1059.6,5704v-1.7c-0.5-0.1-1.2-0.2-1.7-0.2
			c-1.1,0-2.2,0.3-2.2,1.4c0,0.9,0.7,1.3,1.7,1.3C1058.2,5704.8,1059.1,5704.4,1059.6,5704z"/>
		<path class="st3" d="M1064.1,5703.8c1,0.6,2.3,1,3.4,1c1.2,0,2-0.4,2-1.2c0-1.1-1.3-1.1-2.6-1.3c-1.7-0.3-3-0.8-3-2.5
			c0-1.8,1.6-2.7,3.6-2.7c1.1,0,2.3,0.2,3.2,0.7v1.6c-1-0.6-2.2-0.9-3.2-0.9c-1.1,0-1.9,0.3-1.9,1.1c0,1,1.3,1,2.6,1.2
			c1.7,0.3,3.1,0.8,3.1,2.6c0,2.1-1.8,2.8-3.7,2.8c-1.1,0-2.4-0.2-3.3-0.7V5703.8z"/>
		<path class="st3" d="M1078,5697.1h1.6v1.1l0,0c0.8-0.8,1.9-1.3,3.1-1.3c1,0,1.8,0.3,2.4,1c0.5,0.6,0.7,1.2,0.7,2.6v5.5h-1.6v-5.2
			c0-0.9-0.1-1.5-0.4-1.8c-0.4-0.4-0.9-0.6-1.4-0.6c-1,0-2.1,0.6-2.8,1.5v6.1h-1.6V5697.1z"/>
		<path class="st3" d="M1092.9,5696.9c2.7,0,4.7,2,4.7,4.6c0,2.6-2,4.6-4.7,4.6c-2.7,0-4.7-2-4.7-4.6
			C1088.2,5699,1090.2,5696.9,1092.9,5696.9z M1092.9,5704.7c1.8,0,3.1-1.4,3.1-3.2c0-1.8-1.3-3.2-3.1-3.2c-1.8,0-3.1,1.4-3.1,3.2
			C1089.9,5703.4,1091.2,5704.7,1092.9,5704.7z"/>
		<path class="st3" d="M1100.7,5702.9v-4.3h-1.6v-1.5h1.6v-2.4l1.6-0.3v2.7h2.7v1.5h-2.7v4c0,1.1,0.2,2.1,1.3,2.1
			c0.5,0,1-0.2,1.3-0.4v1.5c-0.4,0.2-1,0.3-1.6,0.3c-0.6,0-1.4-0.2-2-0.8C1100.9,5704.9,1100.7,5704.2,1100.7,5702.9z"/>
	</g>
	<g class="st1">
		<path class="st3" d="M835.2,5733.8c1,0.6,2.3,1,3.4,1c1.2,0,2-0.4,2-1.2c0-1.1-1.3-1.1-2.6-1.3c-1.7-0.3-3-0.8-3-2.5
			c0-1.8,1.6-2.7,3.6-2.7c1.1,0,2.3,0.2,3.2,0.7v1.6c-1-0.6-2.2-0.9-3.2-0.9c-1.1,0-1.9,0.3-1.9,1.1c0,1,1.3,1,2.6,1.2
			c1.7,0.3,3.1,0.8,3.1,2.6c0,2.1-1.8,2.8-3.7,2.8c-1.1,0-2.4-0.2-3.3-0.7V5733.8z"/>
		<path class="st3" d="M845.4,5723c0.6,0,1.1,0.5,1.1,1.1s-0.5,1.1-1.1,1.1c-0.6,0-1.1-0.5-1.1-1.1S844.7,5723,845.4,5723z
			 M844.6,5727.1h1.6v8.9h-1.6V5727.1z"/>
		<path class="st3" d="M849.8,5737.8c0.8,0.6,1.8,0.9,2.8,0.9c1.7,0,2.8-1,2.8-2.7v-0.6l0,0c-0.6,0.4-1.5,0.7-2.4,0.7
			c-2.4,0-4.3-1.8-4.3-4.4c0-2.5,1.7-4.6,4.6-4.6c0.9,0,1.7,0.2,2.3,0.5l1.6-0.3v8.8c0,2.6-1.7,4.2-4.4,4.2c-1.1,0-2.1-0.3-2.8-0.7
			V5737.8z M853.2,5734.6c0.8,0,1.7-0.3,2.2-0.7v-4.9c-0.6-0.3-1.4-0.6-2.2-0.6c-1.8,0-2.9,1.4-2.9,3.1
			C850.3,5733.3,851.5,5734.6,853.2,5734.6z"/>
		<path class="st3" d="M860.1,5727.1h1.6v1.1l0,0c0.8-0.8,1.9-1.3,3.1-1.3c1,0,1.8,0.3,2.4,1c0.5,0.6,0.7,1.2,0.7,2.6v5.5h-1.6v-5.2
			c0-0.9-0.1-1.5-0.4-1.8c-0.4-0.4-0.9-0.6-1.4-0.6c-1,0-2.1,0.6-2.8,1.5v6.1h-1.6V5727.1z"/>
		<path class="st3" d="M871.7,5723c0.6,0,1.1,0.5,1.1,1.1s-0.5,1.1-1.1,1.1c-0.6,0-1.1-0.5-1.1-1.1S871.1,5723,871.7,5723z
			 M870.9,5727.1h1.6v8.9h-1.6V5727.1z"/>
		<path class="st3" d="M876,5728.6h-1.4v-1.5h1.4v-1.7c0-1.2,0.2-2.1,0.8-2.7c0.6-0.5,1.3-0.7,2.1-0.7c0.5,0,1,0.1,1.3,0.2v1.5
			c-0.3-0.1-0.9-0.2-1.3-0.2c-1.1,0-1.3,0.8-1.3,1.7v1.9h2.3v1.5h-2.3v7.4H876V5728.6z M882.5,5723c0.6,0,1.1,0.5,1.1,1.1
			s-0.5,1.1-1.1,1.1c-0.6,0-1.1-0.5-1.1-1.1S881.9,5723,882.5,5723z M881.7,5727.1h1.6v8.9h-1.6V5727.1z"/>
		<path class="st3" d="M893.2,5735.6c-0.8,0.4-1.7,0.6-2.6,0.6c-2.8,0-4.8-1.9-4.8-4.6c0-2.7,2.2-4.7,4.9-4.7c0.9,0,1.8,0.2,2.4,0.6
			v1.7c-0.7-0.5-1.6-0.8-2.5-0.8c-1.9,0-3.2,1.4-3.2,3.2c0,1.8,1.4,3.1,3.3,3.1c1,0,1.9-0.3,2.6-0.9V5735.6z"/>
		<path class="st3" d="M896,5735.6c-0.6-0.4-0.9-1.1-0.9-2c0-1,0.5-1.7,1.2-2.2c0.7-0.4,1.6-0.6,2.5-0.6c0.7,0,1.3,0.1,1.9,0.2v-0.7
			c0-0.6-0.2-1.1-0.5-1.5c-0.3-0.3-0.9-0.5-1.6-0.5c-1.1,0-2.1,0.4-2.7,0.9v-1.6c0.7-0.4,1.6-0.8,3-0.8c1.1,0,2,0.2,2.6,0.8
			c0.5,0.5,0.9,1.2,0.9,2.3v3.8c0,0.5,0.2,0.9,0.7,0.9c0.2,0,0.4-0.1,0.5-0.1v1.4c-0.2,0.1-0.5,0.2-0.9,0.2c-0.7,0-1.4-0.3-1.7-0.9
			h0c-0.5,0.5-1.5,1-2.7,1C897.4,5736.2,896.6,5736,896,5735.6z M900.6,5734v-1.7c-0.5-0.1-1.2-0.2-1.7-0.2c-1.1,0-2.2,0.3-2.2,1.4
			c0,0.9,0.7,1.3,1.7,1.3C899.3,5734.8,900.1,5734.4,900.6,5734z"/>
		<path class="st3" d="M905.4,5727.1h1.6v1.1l0,0c0.8-0.8,1.9-1.3,3.1-1.3c1,0,1.8,0.3,2.4,1c0.5,0.6,0.7,1.2,0.7,2.6v5.5h-1.6v-5.2
			c0-0.9-0.1-1.5-0.4-1.8c-0.4-0.4-0.9-0.6-1.4-0.6c-1,0-2.1,0.6-2.8,1.5v6.1h-1.6V5727.1z"/>
		<path class="st3" d="M916.9,5732.9v-4.3h-1.6v-1.5h1.6v-2.4l1.6-0.3v2.7h2.7v1.5h-2.7v4c0,1.1,0.2,2.1,1.3,2.1
			c0.5,0,1-0.2,1.3-0.4v1.5c-0.4,0.2-1,0.3-1.6,0.3c-0.6,0-1.4-0.2-2-0.8C917.1,5734.9,916.9,5734.2,916.9,5732.9z"/>
		<path class="st3" d="M924,5733.6h1.6l-1.5,5.1H923L924,5733.6z"/>
		<path class="st3" d="M934.2,5723c0.6,0,1.1,0.5,1.1,1.1s-0.5,1.1-1.1,1.1c-0.6,0-1.1-0.5-1.1-1.1S933.5,5723,934.2,5723z
			 M933.4,5727.1h1.6v8.9h-1.6V5727.1z"/>
		<path class="st3" d="M938,5727.1h1.6v1.1l0,0c0.8-0.8,1.9-1.3,3.1-1.3c1,0,1.8,0.3,2.4,1c0.5,0.6,0.7,1.2,0.7,2.6v5.5h-1.6v-5.2
			c0-0.9-0.1-1.5-0.4-1.8c-0.4-0.4-0.9-0.6-1.4-0.6c-1,0-2.1,0.6-2.8,1.5v6.1H938V5727.1z"/>
		<path class="st3" d="M952.9,5726.9c0.9,0,1.5,0.2,2.1,0.5l0,0v-5.1h1.6v13.8h-1.6v-0.5l0,0c-0.6,0.4-1.4,0.8-2.5,0.8
			c-2.4,0-4.3-1.7-4.3-4.5C948.2,5729,950.1,5726.9,952.9,5726.9z M952.8,5734.8c0.9,0,1.7-0.3,2.3-0.8v-5.1
			c-0.6-0.3-1.4-0.6-2.2-0.6c-1.9,0-3,1.4-3,3.2C949.9,5733.4,951,5734.8,952.8,5734.8z"/>
		<path class="st3" d="M960.5,5723c0.6,0,1.1,0.5,1.1,1.1s-0.5,1.1-1.1,1.1c-0.6,0-1.1-0.5-1.1-1.1S959.9,5723,960.5,5723z
			 M959.7,5727.1h1.6v8.9h-1.6V5727.1z"/>
		<path class="st3" d="M963.3,5727.1h1.8l1.6,4c0.4,1,0.8,1.9,1.1,2.8h0c0.4-1,0.8-1.9,1.2-3l1.6-3.9h1.7l-3.7,8.9H967L963.3,5727.1
			z"/>
		<path class="st3" d="M975.2,5723c0.6,0,1.1,0.5,1.1,1.1s-0.5,1.1-1.1,1.1c-0.6,0-1.1-0.5-1.1-1.1S974.5,5723,975.2,5723z
			 M974.3,5727.1h1.6v8.9h-1.6V5727.1z"/>
		<path class="st3" d="M983.1,5726.9c0.9,0,1.5,0.2,2.1,0.5l0,0v-5.1h1.6v13.8h-1.6v-0.5l0,0c-0.6,0.4-1.4,0.8-2.5,0.8
			c-2.4,0-4.3-1.7-4.3-4.5C978.4,5729,980.3,5726.9,983.1,5726.9z M982.9,5734.8c0.9,0,1.7-0.3,2.3-0.8v-5.1
			c-0.6-0.3-1.4-0.6-2.2-0.6c-1.9,0-3,1.4-3,3.2C980,5733.4,981.1,5734.8,982.9,5734.8z"/>
		<path class="st3" d="M989.8,5732.6v-5.4h1.6v5.1c0,1,0.1,1.5,0.4,1.8c0.4,0.5,0.9,0.6,1.4,0.6c1.1,0,2.1-0.7,2.8-1.5v-6h1.6v8.9
			h-1.6v-1.1l0,0c-0.8,0.8-1.8,1.3-3.1,1.3c-0.9,0-1.8-0.3-2.4-1C990.1,5734.6,989.8,5733.8,989.8,5732.6z"/>
		<path class="st3" d="M1001,5735.6c-0.6-0.4-0.9-1.1-0.9-2c0-1,0.5-1.7,1.2-2.2c0.7-0.4,1.6-0.6,2.5-0.6c0.7,0,1.3,0.1,1.9,0.2
			v-0.7c0-0.6-0.2-1.1-0.5-1.5c-0.3-0.3-0.9-0.5-1.6-0.5c-1.1,0-2.1,0.4-2.7,0.9v-1.6c0.7-0.4,1.6-0.8,3-0.8c1.1,0,2,0.2,2.6,0.8
			c0.5,0.5,0.9,1.2,0.9,2.3v3.8c0,0.5,0.2,0.9,0.7,0.9c0.2,0,0.4-0.1,0.5-0.1v1.4c-0.2,0.1-0.5,0.2-0.9,0.2c-0.7,0-1.4-0.3-1.7-0.9
			h0c-0.5,0.5-1.5,1-2.7,1C1002.4,5736.2,1001.6,5736,1001,5735.6z M1005.6,5734v-1.7c-0.5-0.1-1.2-0.2-1.7-0.2
			c-1.1,0-2.2,0.3-2.2,1.4c0,0.9,0.7,1.3,1.7,1.3C1004.3,5734.8,1005.1,5734.4,1005.6,5734z"/>
		<path class="st3" d="M1010.4,5722.2h1.6v13.8h-1.6V5722.2z"/>
		<path class="st3" d="M1015.1,5722.2h1.6v13.8h-1.6V5722.2z"/>
		<path class="st3" d="M1020,5740l2.4-4.9l-3.7-7.9h1.8l1.5,3.3c0.4,0.9,0.8,1.9,1.2,2.7h0c0.4-0.9,0.8-1.8,1.2-2.7l1.5-3.3h1.7
			l-6,12.8H1020z"/>
		<path class="st3" d="M1028.6,5733.6h1.6l-1.5,5.1h-1.2L1028.6,5733.6z"/>
		<path class="st3" d="M1038.7,5732.9v-4.3h-1.6v-1.5h1.6v-2.4l1.6-0.3v2.7h2.7v1.5h-2.7v4c0,1.1,0.2,2.1,1.3,2.1
			c0.5,0,1-0.2,1.3-0.4v1.5c-0.4,0.2-1,0.3-1.6,0.3c-0.6,0-1.4-0.2-2-0.8C1038.9,5734.9,1038.7,5734.2,1038.7,5732.9z"/>
		<path class="st3" d="M1045.2,5722.2h1.6v6l0,0c0.8-0.8,1.9-1.3,3.1-1.3c1,0,1.8,0.3,2.4,1c0.5,0.6,0.7,1.2,0.7,2.6v5.5h-1.6v-5.2
			c0-1-0.1-1.5-0.4-1.8c-0.3-0.4-0.8-0.6-1.3-0.6c-1.1,0-2.2,0.6-2.8,1.5v6.1h-1.6V5722.2z"/>
		<path class="st3" d="M1057,5732c0.2,1.7,1.5,2.7,3.3,2.7c1.2,0,2.2-0.5,3.1-1.1v1.7c-0.8,0.5-2,0.8-3.2,0.8
			c-2.7,0-4.8-1.8-4.8-4.6c0-2.8,2-4.6,4.4-4.6c2.2,0,4,1.5,4,4.3c0,0.3,0,0.6-0.1,0.8H1057z M1057,5730.8h5.2
			c-0.1-1.8-1.4-2.4-2.5-2.4C1058.6,5728.4,1057.3,5729.1,1057,5730.8z"/>
	</g>
	<g class="st1">
		<path class="st3" d="M842.3,5765.6c-0.8,0.4-1.7,0.6-2.6,0.6c-2.8,0-4.8-1.9-4.8-4.6c0-2.7,2.2-4.7,4.9-4.7c0.9,0,1.8,0.2,2.4,0.6
			v1.7c-0.7-0.5-1.6-0.8-2.5-0.8c-1.9,0-3.2,1.4-3.2,3.2c0,1.8,1.4,3.1,3.3,3.1c1,0,1.9-0.3,2.6-0.9V5765.6z"/>
		<path class="st3" d="M844.8,5752.2h1.6v6l0,0c0.8-0.8,1.9-1.3,3.1-1.3c1,0,1.8,0.3,2.4,1c0.5,0.6,0.7,1.2,0.7,2.6v5.5H851v-5.2
			c0-1-0.1-1.5-0.4-1.8c-0.3-0.4-0.8-0.6-1.4-0.6c-1.1,0-2.2,0.6-2.8,1.5v6.1h-1.6V5752.2z"/>
		<path class="st3" d="M855.9,5765.6c-0.6-0.4-0.9-1.1-0.9-2c0-1,0.5-1.7,1.2-2.2c0.7-0.4,1.6-0.6,2.5-0.6c0.7,0,1.3,0.1,1.9,0.2
			v-0.7c0-0.6-0.2-1.1-0.5-1.5c-0.3-0.3-0.9-0.5-1.6-0.5c-1.1,0-2.1,0.4-2.7,0.9v-1.6c0.7-0.4,1.6-0.8,3-0.8c1.1,0,2,0.2,2.6,0.8
			c0.5,0.5,0.9,1.2,0.9,2.3v3.8c0,0.5,0.2,0.9,0.7,0.9c0.2,0,0.4-0.1,0.5-0.1v1.4c-0.2,0.1-0.5,0.2-0.9,0.2c-0.7,0-1.4-0.3-1.7-0.9
			h0c-0.5,0.5-1.5,1-2.7,1C857.3,5766.2,856.5,5766,855.9,5765.6z M860.5,5764v-1.7c-0.5-0.1-1.2-0.2-1.7-0.2
			c-1.1,0-2.2,0.3-2.2,1.4c0,0.9,0.7,1.3,1.7,1.3C859.2,5764.8,860,5764.4,860.5,5764z"/>
		<path class="st3" d="M865.3,5757.1h1.6v1.1l0,0c0.8-0.8,1.9-1.3,3.1-1.3c1,0,1.8,0.3,2.4,1c0.5,0.6,0.7,1.2,0.7,2.6v5.5h-1.6v-5.2
			c0-0.9-0.1-1.5-0.4-1.8c-0.4-0.4-0.9-0.6-1.4-0.6c-1,0-2.1,0.6-2.8,1.5v6.1h-1.6V5757.1z"/>
		<path class="st3" d="M876.7,5767.8c0.8,0.6,1.8,0.9,2.8,0.9c1.7,0,2.8-1,2.8-2.7v-0.6l0,0c-0.6,0.4-1.5,0.7-2.4,0.7
			c-2.4,0-4.3-1.8-4.3-4.4c0-2.5,1.7-4.6,4.6-4.6c0.9,0,1.7,0.2,2.3,0.5l1.6-0.3v8.8c0,2.6-1.7,4.2-4.4,4.2c-1.1,0-2.1-0.3-2.8-0.7
			V5767.8z M880.2,5764.6c0.8,0,1.7-0.3,2.2-0.7v-4.9c-0.6-0.3-1.4-0.6-2.2-0.6c-1.8,0-2.9,1.4-2.9,3.1
			C877.2,5763.3,878.4,5764.6,880.2,5764.6z"/>
		<path class="st3" d="M888,5762c0.2,1.7,1.5,2.7,3.3,2.7c1.2,0,2.2-0.5,3.1-1.1v1.7c-0.8,0.5-2,0.8-3.2,0.8c-2.7,0-4.8-1.8-4.8-4.6
			c0-2.8,2-4.6,4.4-4.6c2.2,0,4,1.5,4,4.3c0,0.3,0,0.6-0.1,0.8H888z M888.1,5760.8h5.2c-0.1-1.8-1.4-2.4-2.5-2.4
			C889.6,5758.4,888.3,5759.1,888.1,5760.8z"/>
		<path class="st3" d="M902.6,5753c0.6,0,1.1,0.5,1.1,1.1s-0.5,1.1-1.1,1.1c-0.6,0-1.1-0.5-1.1-1.1S902,5753,902.6,5753z
			 M901.8,5757.1h1.6v8.9h-1.6V5757.1z"/>
		<path class="st3" d="M906.4,5757.1h1.6v1.1l0,0c0.8-0.8,1.9-1.3,3.1-1.3c1,0,1.8,0.3,2.4,1c0.5,0.6,0.7,1.2,0.7,2.6v5.5h-1.6v-5.2
			c0-0.9-0.1-1.5-0.4-1.8c-0.4-0.4-0.9-0.6-1.4-0.6c-1,0-2.1,0.6-2.8,1.5v6.1h-1.6V5757.1z"/>
		<path class="st3" d="M921.8,5753h3.4c1.4,0,2.7,0.1,3.9,0.7c1.1,0.6,1.9,1.7,1.9,3.2c0,1.5-0.7,2.6-1.8,3.2
			c-1.1,0.7-2.6,0.7-4.3,0.7h-1.4v5.1h-1.7V5753z M925.1,5759.4c1.5,0,2.4-0.1,3.1-0.5c0.6-0.4,1-1,1-1.9c0-1-0.5-1.6-1.2-2
			c-0.8-0.4-1.7-0.4-3-0.4h-1.5v4.8H925.1z"/>
		<path class="st3" d="M933.2,5753h1.7v11.5h6.2v1.5h-7.9V5753z"/>
		<path class="st3" d="M943.2,5753h3.4c1.4,0,2.7,0.1,3.9,0.7c1.1,0.6,1.9,1.7,1.9,3.2c0,1.5-0.7,2.6-1.8,3.2
			c-1.1,0.7-2.6,0.7-4.3,0.7h-1.4v5.1h-1.7V5753z M946.5,5759.4c1.5,0,2.4-0.1,3.1-0.5c0.6-0.4,1-1,1-1.9c0-1-0.5-1.6-1.2-2
			c-0.8-0.4-1.7-0.4-3-0.4h-1.5v4.8H946.5z"/>
		<path class="st3" d="M959,5752.2h1.6v13.8H959V5752.2z"/>
		<path class="st3" d="M964.7,5762c0.2,1.7,1.5,2.7,3.3,2.7c1.2,0,2.2-0.5,3.1-1.1v1.7c-0.8,0.5-2,0.8-3.2,0.8
			c-2.7,0-4.8-1.8-4.8-4.6c0-2.8,2-4.6,4.4-4.6c2.2,0,4,1.5,4,4.3c0,0.3,0,0.6-0.1,0.8H964.7z M964.7,5760.8h5.2
			c-0.1-1.8-1.4-2.4-2.5-2.4C966.2,5758.4,965,5759.1,964.7,5760.8z"/>
		<path class="st3" d="M972.5,5757.1h1.8l1.6,4c0.4,1,0.8,1.9,1.1,2.8h0c0.4-1,0.8-1.9,1.2-3l1.6-3.9h1.7l-3.7,8.9h-1.6
			L972.5,5757.1z"/>
		<path class="st3" d="M984.1,5762c0.2,1.7,1.5,2.7,3.3,2.7c1.2,0,2.2-0.5,3.1-1.1v1.7c-0.8,0.5-2,0.8-3.2,0.8
			c-2.7,0-4.8-1.8-4.8-4.6c0-2.8,2-4.6,4.4-4.6c2.2,0,4,1.5,4,4.3c0,0.3,0,0.6-0.1,0.8H984.1z M984.1,5760.8h5.2
			c-0.1-1.8-1.4-2.4-2.5-2.4C985.7,5758.4,984.4,5759.1,984.1,5760.8z"/>
		<path class="st3" d="M993.4,5752.2h1.6v13.8h-1.6V5752.2z"/>
		<path class="st3" d="M997.8,5763.8c1,0.6,2.3,1,3.4,1c1.2,0,2-0.4,2-1.2c0-1.1-1.3-1.1-2.6-1.3c-1.7-0.3-3-0.8-3-2.5
			c0-1.8,1.6-2.7,3.6-2.7c1.1,0,2.3,0.2,3.2,0.7v1.6c-1-0.6-2.2-0.9-3.2-0.9c-1.1,0-1.9,0.3-1.9,1.1c0,1,1.3,1,2.6,1.2
			c1.7,0.3,3.1,0.8,3.1,2.6c0,2.1-1.8,2.8-3.7,2.8c-1.1,0-2.4-0.2-3.3-0.7V5763.8z"/>
		<path class="st3" d="M1012,5765.6c-0.6-0.4-0.9-1.1-0.9-2c0-1,0.5-1.7,1.2-2.2c0.7-0.4,1.6-0.6,2.5-0.6c0.7,0,1.3,0.1,1.9,0.2
			v-0.7c0-0.6-0.2-1.1-0.5-1.5c-0.3-0.3-0.9-0.5-1.6-0.5c-1.1,0-2.1,0.4-2.7,0.9v-1.6c0.7-0.4,1.6-0.8,3-0.8c1.1,0,2,0.2,2.6,0.8
			c0.5,0.5,0.9,1.2,0.9,2.3v3.8c0,0.5,0.2,0.9,0.7,0.9c0.2,0,0.4-0.1,0.5-0.1v1.4c-0.2,0.1-0.5,0.2-0.9,0.2c-0.7,0-1.4-0.3-1.7-0.9
			h0c-0.5,0.5-1.5,1-2.7,1C1013.4,5766.2,1012.6,5766,1012,5765.6z M1016.6,5764v-1.7c-0.5-0.1-1.2-0.2-1.7-0.2
			c-1.1,0-2.2,0.3-2.2,1.4c0,0.9,0.7,1.3,1.7,1.3C1015.3,5764.8,1016.1,5764.4,1016.6,5764z"/>
		<path class="st3" d="M1022.1,5762.9v-4.3h-1.6v-1.5h1.6v-2.4l1.6-0.3v2.7h2.7v1.5h-2.7v4c0,1.1,0.2,2.1,1.3,2.1
			c0.5,0,1-0.2,1.3-0.4v1.5c-0.4,0.2-1,0.3-1.6,0.3c-0.6,0-1.4-0.2-2-0.8C1022.3,5764.9,1022.1,5764.2,1022.1,5762.9z"/>
		<path class="st3" d="M1039.1,5753l-3.1,4.9c-0.2,0.3-0.4,0.6-0.5,0.8l0,0c0.5-0.3,1.2-0.6,2-0.6c2.2,0,4,1.7,4,3.9
			c0,2.4-1.9,4.1-4.4,4.1c-2.5,0-4.4-1.7-4.4-4.3c0-1.2,0.4-2.3,1.6-4.2l2.9-4.7H1039.1z M1037,5764.7c1.5,0,2.7-1,2.7-2.6
			c0-1.4-1.1-2.6-2.7-2.6c-1.5,0-2.8,1-2.8,2.5C1034.3,5763.4,1035.4,5764.7,1037,5764.7z"/>
		<path class="st3" d="M1060.7,5760.8c0-0.8-0.1-1.4-0.5-1.8c-0.3-0.4-0.9-0.5-1.4-0.5c-1,0-2.1,0.7-2.7,1.4c0,0.2,0,0.4,0,0.6v5.5
			h-1.6v-5.2c0-1-0.1-1.4-0.4-1.7c-0.4-0.4-0.8-0.6-1.3-0.6c-1,0-2.1,0.6-2.7,1.4v6.2h-1.6v-8.9h1.6v1.1l0,0c0.7-0.7,1.8-1.3,3-1.3
			c1.1,0,2.2,0.5,2.7,1.5c1.1-1,2.1-1.5,3.4-1.5c1,0,1.8,0.3,2.3,0.9c0.5,0.6,0.7,1.4,0.7,2.6v5.5h-1.6V5760.8z"/>
		<path class="st3" d="M1069.4,5756.9c2.7,0,4.7,2,4.7,4.6c0,2.6-2,4.6-4.7,4.6c-2.7,0-4.7-2-4.7-4.6
			C1064.7,5759,1066.7,5756.9,1069.4,5756.9z M1069.4,5764.7c1.8,0,3.1-1.4,3.1-3.2c0-1.8-1.3-3.2-3.1-3.2c-1.8,0-3.1,1.4-3.1,3.2
			C1066.3,5763.4,1067.6,5764.7,1069.4,5764.7z"/>
		<path class="st3" d="M1076.5,5757.1h1.6v1.1l0,0c0.8-0.8,1.9-1.3,3.1-1.3c1,0,1.8,0.3,2.4,1c0.5,0.6,0.7,1.2,0.7,2.6v5.5h-1.6
			v-5.2c0-0.9-0.1-1.5-0.4-1.8c-0.4-0.4-0.9-0.6-1.4-0.6c-1,0-2.1,0.6-2.8,1.5v6.1h-1.6V5757.1z"/>
		<path class="st3" d="M1088,5762.9v-4.3h-1.6v-1.5h1.6v-2.4l1.6-0.3v2.7h2.7v1.5h-2.7v4c0,1.1,0.2,2.1,1.3,2.1c0.5,0,1-0.2,1.3-0.4
			v1.5c-0.4,0.2-1,0.3-1.6,0.3c-0.6,0-1.4-0.2-2-0.8C1088.2,5764.9,1088,5764.2,1088,5762.9z"/>
		<path class="st3" d="M1094.5,5752.2h1.6v6l0,0c0.8-0.8,1.9-1.3,3.1-1.3c1,0,1.8,0.3,2.4,1c0.5,0.6,0.7,1.2,0.7,2.6v5.5h-1.6v-5.2
			c0-1-0.1-1.5-0.4-1.8c-0.3-0.4-0.8-0.6-1.3-0.6c-1.1,0-2.2,0.6-2.8,1.5v6.1h-1.6V5752.2z"/>
		<path class="st3" d="M1105,5763.8c1,0.6,2.3,1,3.4,1c1.2,0,2-0.4,2-1.2c0-1.1-1.3-1.1-2.6-1.3c-1.7-0.3-3-0.8-3-2.5
			c0-1.8,1.6-2.7,3.6-2.7c1.1,0,2.3,0.2,3.2,0.7v1.6c-1-0.6-2.2-0.9-3.2-0.9c-1.1,0-1.9,0.3-1.9,1.1c0,1,1.3,1,2.6,1.2
			c1.7,0.3,3.1,0.8,3.1,2.6c0,2.1-1.8,2.8-3.7,2.8c-1.1,0-2.4-0.2-3.3-0.7V5763.8z"/>
	</g>
	<g class="st1">
		<path class="st3" d="M834.5,5787.1h1.8l1.3,3.9c0.3,0.9,0.6,1.8,0.9,2.7h0c0.3-0.9,0.6-1.9,1-2.7l1.5-3.9h1.2l1.5,3.9
			c0.3,0.9,0.7,1.8,1,2.7h0c0.3-0.9,0.6-1.8,0.9-2.7l1.3-4h1.7l-3.1,8.9h-1.6l-1.4-3.8c-0.3-0.8-0.6-1.7-0.9-2.5h0
			c-0.3,0.8-0.6,1.7-0.9,2.5l-1.4,3.8h-1.6L834.5,5787.1z"/>
		<path class="st3" d="M850.4,5795.6c-0.6-0.4-0.9-1.1-0.9-2c0-1,0.5-1.7,1.2-2.2c0.7-0.4,1.6-0.6,2.5-0.6c0.7,0,1.3,0.1,1.9,0.2
			v-0.7c0-0.6-0.2-1.1-0.5-1.5c-0.3-0.3-0.9-0.5-1.6-0.5c-1.1,0-2.1,0.4-2.7,0.9v-1.6c0.7-0.4,1.6-0.8,3-0.8c1.1,0,2,0.2,2.6,0.8
			c0.5,0.5,0.9,1.2,0.9,2.3v3.8c0,0.5,0.2,0.9,0.7,0.9c0.2,0,0.4-0.1,0.5-0.1v1.4c-0.2,0.1-0.5,0.2-0.9,0.2c-0.7,0-1.4-0.3-1.7-0.9
			h0c-0.5,0.5-1.5,1-2.7,1C851.7,5796.2,851,5796,850.4,5795.6z M855,5794v-1.7c-0.5-0.1-1.2-0.2-1.7-0.2c-1.1,0-2.2,0.3-2.2,1.4
			c0,0.9,0.7,1.3,1.7,1.3C853.6,5794.8,854.4,5794.4,855,5794z"/>
		<path class="st3" d="M859.5,5793.8c1,0.6,2.3,1,3.4,1c1.2,0,2-0.4,2-1.2c0-1.1-1.3-1.1-2.6-1.3c-1.7-0.3-3-0.8-3-2.5
			c0-1.8,1.6-2.7,3.6-2.7c1.1,0,2.3,0.2,3.2,0.7v1.6c-1-0.6-2.2-0.9-3.2-0.9c-1.1,0-1.9,0.3-1.9,1.1c0,1,1.3,1,2.6,1.2
			c1.7,0.3,3.1,0.8,3.1,2.6c0,2.1-1.8,2.8-3.7,2.8c-1.1,0-2.4-0.2-3.3-0.7V5793.8z"/>
		<path class="st3" d="M873.2,5793.8c1,0.6,2.3,1,3.4,1c1.2,0,2-0.4,2-1.2c0-1.1-1.3-1.1-2.6-1.3c-1.7-0.3-3-0.8-3-2.5
			c0-1.8,1.6-2.7,3.6-2.7c1.1,0,2.3,0.2,3.2,0.7v1.6c-1-0.6-2.2-0.9-3.2-0.9c-1.1,0-1.9,0.3-1.9,1.1c0,1,1.3,1,2.6,1.2
			c1.7,0.3,3.1,0.8,3.1,2.6c0,2.1-1.8,2.8-3.7,2.8c-1.1,0-2.4-0.2-3.3-0.7V5793.8z"/>
		<path class="st3" d="M883.4,5783c0.6,0,1.1,0.5,1.1,1.1s-0.5,1.1-1.1,1.1c-0.6,0-1.1-0.5-1.1-1.1S882.7,5783,883.4,5783z
			 M882.6,5787.1h1.6v8.9h-1.6V5787.1z"/>
		<path class="st3" d="M887.8,5797.8c0.8,0.6,1.8,0.9,2.8,0.9c1.7,0,2.8-1,2.8-2.7v-0.6l0,0c-0.6,0.4-1.5,0.7-2.4,0.7
			c-2.4,0-4.3-1.8-4.3-4.4c0-2.5,1.7-4.6,4.6-4.6c0.9,0,1.7,0.2,2.2,0.5l1.6-0.3v8.8c0,2.6-1.7,4.2-4.4,4.2c-1.1,0-2.1-0.3-2.8-0.7
			V5797.8z M891.2,5794.6c0.8,0,1.7-0.3,2.2-0.7v-4.9c-0.6-0.3-1.4-0.6-2.2-0.6c-1.8,0-2.9,1.4-2.9,3.1
			C888.3,5793.3,889.5,5794.6,891.2,5794.6z"/>
		<path class="st3" d="M898.1,5787.1h1.6v1.1l0,0c0.8-0.8,1.9-1.3,3.1-1.3c1,0,1.8,0.3,2.4,1c0.5,0.6,0.7,1.2,0.7,2.6v5.5h-1.6v-5.2
			c0-0.9-0.1-1.5-0.4-1.8c-0.4-0.4-0.9-0.6-1.4-0.6c-1,0-2.1,0.6-2.8,1.5v6.1h-1.6V5787.1z"/>
		<path class="st3" d="M909.7,5783c0.6,0,1.1,0.5,1.1,1.1s-0.5,1.1-1.1,1.1c-0.6,0-1.1-0.5-1.1-1.1S909.1,5783,909.7,5783z
			 M908.9,5787.1h1.6v8.9h-1.6V5787.1z"/>
		<path class="st3" d="M914,5788.6h-1.4v-1.5h1.4v-1.7c0-1.2,0.2-2.1,0.8-2.7c0.6-0.5,1.3-0.7,2.1-0.7c0.5,0,1,0.1,1.3,0.2v1.5
			c-0.3-0.1-0.9-0.2-1.3-0.2c-1.1,0-1.3,0.8-1.3,1.7v1.9h2.3v1.5h-2.3v7.4H914V5788.6z M920.5,5783c0.6,0,1.1,0.5,1.1,1.1
			s-0.5,1.1-1.1,1.1c-0.6,0-1.1-0.5-1.1-1.1S919.9,5783,920.5,5783z M919.7,5787.1h1.6v8.9h-1.6V5787.1z"/>
		<path class="st3" d="M931.2,5795.6c-0.8,0.4-1.7,0.6-2.6,0.6c-2.8,0-4.8-1.9-4.8-4.6c0-2.7,2.2-4.7,4.9-4.7c0.9,0,1.8,0.2,2.4,0.6
			v1.7c-0.7-0.5-1.6-0.8-2.5-0.8c-1.9,0-3.2,1.4-3.2,3.2c0,1.8,1.3,3.1,3.3,3.1c1,0,1.9-0.3,2.6-0.9V5795.6z"/>
		<path class="st3" d="M934,5795.6c-0.6-0.4-0.9-1.1-0.9-2c0-1,0.5-1.7,1.2-2.2c0.7-0.4,1.6-0.6,2.5-0.6c0.7,0,1.3,0.1,1.9,0.2v-0.7
			c0-0.6-0.2-1.1-0.5-1.5c-0.3-0.3-0.9-0.5-1.6-0.5c-1.1,0-2.1,0.4-2.7,0.9v-1.6c0.7-0.4,1.6-0.8,3-0.8c1.1,0,2,0.2,2.6,0.8
			c0.5,0.5,0.9,1.2,0.9,2.3v3.8c0,0.5,0.2,0.9,0.7,0.9c0.2,0,0.4-0.1,0.5-0.1v1.4c-0.2,0.1-0.5,0.2-0.9,0.2c-0.7,0-1.4-0.3-1.7-0.9
			h0c-0.5,0.5-1.5,1-2.7,1C935.4,5796.2,934.6,5796,934,5795.6z M938.6,5794v-1.7c-0.5-0.1-1.2-0.2-1.7-0.2c-1.1,0-2.2,0.3-2.2,1.4
			c0,0.9,0.7,1.3,1.7,1.3C937.2,5794.8,938.1,5794.4,938.6,5794z"/>
		<path class="st3" d="M943.4,5787.1h1.6v1.1l0,0c0.8-0.8,1.9-1.3,3.1-1.3c1,0,1.8,0.3,2.4,1c0.5,0.6,0.7,1.2,0.7,2.6v5.5h-1.6v-5.2
			c0-0.9-0.1-1.5-0.4-1.8c-0.4-0.4-0.9-0.6-1.4-0.6c-1,0-2.1,0.6-2.8,1.5v6.1h-1.6V5787.1z"/>
		<path class="st3" d="M954.9,5792.9v-4.3h-1.6v-1.5h1.6v-2.4l1.6-0.3v2.7h2.7v1.5h-2.7v4c0,1.1,0.2,2.1,1.3,2.1
			c0.5,0,1-0.2,1.3-0.4v1.5c-0.4,0.2-1,0.3-1.6,0.3c-0.6,0-1.4-0.2-2-0.8C955.1,5794.9,954.9,5794.2,954.9,5792.9z"/>
		<path class="st3" d="M962.6,5793.8c0.6,0,1.2,0.5,1.2,1.2s-0.5,1.2-1.2,1.2s-1.2-0.5-1.2-1.2S962,5793.8,962.6,5793.8z"/>
	</g>
	<g id="Group_10834" transform="translate(834 5824.292)">
		<g class="st1">
			<path class="st2" d="M28.6,6.4h4.3c1.7,0,3.2,0.2,4.3,0.8c1.3,0.7,2.3,1.9,2.3,3.9c0,1.8-0.9,3.1-2.1,3.8
				c-1.1,0.7-2.6,0.9-4.7,0.9h-1v5.2h-3.2V6.4z M32.9,13.1c1.3,0,2-0.1,2.5-0.4c0.6-0.3,0.9-0.9,0.9-1.6c0-0.8-0.4-1.4-1-1.7
				c-0.6-0.3-1.4-0.3-2.5-0.3h-1.1v3.9H32.9z"/>
			<path class="st2" d="M41.6,6.4h4.3c1.7,0,3.2,0.2,4.3,0.8c1.3,0.7,2.3,1.9,2.3,3.9c0,1.8-0.9,3.1-2.1,3.8
				c-1.1,0.7-2.6,0.9-4.7,0.9h-1v5.2h-3.2V6.4z M45.9,13.1c1.3,0,2-0.1,2.5-0.4c0.6-0.3,0.9-0.9,0.9-1.6c0-0.8-0.4-1.4-1-1.7
				c-0.6-0.3-1.4-0.3-2.5-0.3h-1.1v3.9H45.9z"/>
			<path class="st2" d="M56,6.2c1,0,1.8,0.8,1.8,1.7S56.9,9.6,56,9.6c-1,0-1.8-0.8-1.8-1.7S55,6.2,56,6.2z M54.5,11h3v9.8h-3V11z"/>
			<path class="st2" d="M60.3,12.5c0-0.9,0.8-1.7,1.7-1.7c0.9,0,1.7,0.8,1.7,1.7s-0.8,1.7-1.7,1.7C61.1,14.3,60.3,13.5,60.3,12.5z
				 M62,17.7c0.9,0,1.7,0.8,1.7,1.7c0,0.9-0.8,1.7-1.7,1.7c-0.9,0-1.7-0.8-1.7-1.7C60.3,18.4,61.1,17.7,62,17.7z"/>
			<path class="st2" d="M70.4,11h3.2l1,3.1c0.3,1,0.6,1.9,0.9,2.8h0c0.3-0.9,0.6-1.9,0.9-2.8l1.1-3.1h2.3l1,3.1
				c0.3,1,0.6,1.9,0.9,2.8h0c0.3-0.9,0.5-1.8,0.9-2.8l1-3.1h2.9l-3.4,9.8h-2.8l-0.9-2.6c-0.3-1-0.6-1.9-0.9-2.8h0
				c-0.3,0.9-0.6,1.8-0.9,2.8l-0.9,2.6h-2.9L70.4,11z"/>
			<path class="st2" d="M93.3,20.3c-0.6,0.5-1.6,0.8-2.7,0.8c-0.8,0-1.6-0.2-2.3-0.6c-0.7-0.5-1.2-1.3-1.2-2.3
				c0-1.1,0.5-1.9,1.2-2.4c0.8-0.5,1.7-0.7,2.8-0.7c0.6,0,1.2,0.1,1.7,0.2v-0.4c0-0.5-0.2-0.8-0.4-1c-0.3-0.3-0.8-0.4-1.5-0.4
				c-1.1,0-2.1,0.4-2.9,0.8v-2.6c0.8-0.4,2-0.8,3.4-0.8c1.3,0,2.5,0.3,3.3,0.9c0.7,0.6,1.1,1.5,1.1,2.7v3.3c0,0.5,0.2,0.8,0.6,0.8
				c0.2,0,0.3,0,0.5-0.1v2.3c-0.3,0.2-0.9,0.3-1.5,0.3C94.7,21.1,93.9,20.8,93.3,20.3L93.3,20.3z M92.8,17c-0.3-0.1-0.8-0.1-1.1-0.1
				c-0.8,0-1.6,0.2-1.6,1c0,0.6,0.6,1,1.3,1c0.5,0,1-0.2,1.4-0.4V17z"/>
			<path class="st2" d="M98.4,17.6c1.4,0.8,2.9,1.1,3.9,1.1c0.8,0,1.3-0.2,1.3-0.8c0-0.8-1.1-0.7-2.6-1.1c-1.9-0.5-3-1.2-3-2.9
				c0-2.1,1.9-3.3,4.3-3.3c1.2,0,2.6,0.2,3.8,0.8v2.6c-1.3-0.7-2.8-1.1-3.7-1.1c-0.8,0-1.3,0.2-1.3,0.7c0,0.7,1.1,0.7,2.5,1
				c1.9,0.5,3,1.2,3,2.9c0,2.2-1.9,3.3-4.4,3.3c-1.2,0-2.7-0.2-3.9-0.8V17.6z"/>
			<path class="st2" d="M113.7,11h3v0.9l0,0c0.8-0.6,1.8-1.1,3-1.1c1,0,2,0.4,2.6,1c0.6,0.6,0.9,1.5,0.9,2.9v6.1h-3v-5.6
				c0-0.7-0.1-1.1-0.3-1.4c-0.3-0.3-0.6-0.4-1-0.4c-0.8,0-1.5,0.4-2.1,0.8v6.6h-3V11z"/>
			<path class="st2" d="M130.7,10.8c3.1,0,5.5,2.2,5.5,5.1s-2.3,5.1-5.5,5.1s-5.5-2.2-5.5-5.1S127.6,10.8,130.7,10.8z M130.7,18.5
				c1.4,0,2.4-1.1,2.4-2.5s-1.1-2.5-2.4-2.5c-1.4,0-2.4,1.1-2.4,2.5S129.3,18.5,130.7,18.5z"/>
			<path class="st2" d="M144.6,20.6c-0.5,0.3-1.4,0.5-2.2,0.5c-1,0-1.9-0.3-2.6-1c-0.5-0.6-0.9-1.4-0.9-2.9v-3.6h-1.6V11h1.6V8.5
				l3-0.5V11h2.6v2.5H142v3.3c0,1,0.2,1.7,1.1,1.7c0.5,0,1.1-0.2,1.5-0.4V20.6z"/>
			<path class="st2" d="M151.3,17.6c1.4,0.8,2.9,1.1,3.9,1.1c0.8,0,1.3-0.2,1.3-0.8c0-0.8-1.1-0.7-2.6-1.1c-1.9-0.5-3-1.2-3-2.9
				c0-2.1,1.9-3.3,4.3-3.3c1.2,0,2.6,0.2,3.8,0.8v2.6c-1.3-0.7-2.8-1.1-3.7-1.1c-0.8,0-1.3,0.2-1.3,0.7c0,0.7,1.1,0.7,2.5,1
				c1.9,0.5,3,1.2,3,2.9c0,2.2-1.9,3.3-4.4,3.3c-1.2,0-2.7-0.2-3.9-0.8V17.6z"/>
			<path class="st2" d="M163.1,6.2c1,0,1.8,0.8,1.8,1.7s-0.8,1.7-1.8,1.7c-1,0-1.8-0.8-1.8-1.7S162.2,6.2,163.1,6.2z M161.6,11h3
				v9.8h-3V11z"/>
			<path class="st2" d="M168.2,21.9c1,0.6,2.1,1,3.2,1c1.5,0,2.4-0.8,2.4-2.2v-0.5l0,0c-0.6,0.4-1.5,0.7-2.3,0.7
				c-2.4,0-4.6-1.8-4.6-4.8c0-2.9,2.1-5.1,5.1-5.1c0.9,0,1.8,0.2,2.5,0.6l2.4-0.4v9.7c0,3.1-2.1,4.8-5.3,4.8c-1.3,0-2.5-0.3-3.4-0.7
				V21.9z M173.7,13.8c-0.4-0.2-1-0.4-1.5-0.4c-1.6,0-2.3,1.2-2.3,2.4c0,1.4,0.9,2.5,2.3,2.5c0.5,0,1.1-0.2,1.5-0.4V13.8z"/>
			<path class="st2" d="M179.5,11h3v0.9l0,0c0.8-0.6,1.8-1.1,3-1.1c1,0,2,0.4,2.6,1c0.6,0.6,0.9,1.5,0.9,2.9v6.1h-3v-5.6
				c0-0.7-0.1-1.1-0.3-1.4c-0.3-0.3-0.6-0.4-1-0.4c-0.8,0-1.5,0.4-2.1,0.8v6.6h-3V11z"/>
			<path class="st2" d="M193.2,6.2c1,0,1.8,0.8,1.8,1.7s-0.8,1.7-1.8,1.7c-1,0-1.8-0.8-1.8-1.7S192.2,6.2,193.2,6.2z M191.7,11h3
				v9.8h-3V11z"/>
			<path class="st2" d="M198,13.6h-1.4V11h1.4V9.6c0-1.4,0.3-2.6,1-3.3c0.7-0.7,1.8-0.9,2.8-0.9c0.6,0,1.1,0.1,1.7,0.3v2.5
				c-0.4-0.1-1-0.2-1.3-0.2c-0.9,0-1.1,0.6-1.1,1.4V11h2.3v2.5H201v7.3h-3V13.6z M206.5,6.2c1,0,1.8,0.8,1.8,1.7s-0.8,1.7-1.8,1.7
				c-1,0-1.8-0.8-1.8-1.7S205.5,6.2,206.5,6.2z M205,11h3v9.8h-3V11z"/>
			<path class="st2" d="M218.8,20.3c-0.9,0.5-2.1,0.8-3.2,0.8c-3.2,0-5.5-2.2-5.5-5.1c0-3.1,2.6-5.2,5.6-5.2c1.1,0,2.1,0.3,2.9,0.7
				v2.8c-0.9-0.6-1.8-0.9-2.8-0.9c-1.6,0-2.7,1.1-2.7,2.6c0,1.5,1.1,2.6,2.8,2.6c1,0,2.1-0.4,2.9-1V20.3z"/>
			<path class="st2" d="M226.7,20.3c-0.6,0.5-1.6,0.8-2.7,0.8c-0.8,0-1.6-0.2-2.3-0.6c-0.7-0.5-1.2-1.3-1.2-2.3
				c0-1.1,0.5-1.9,1.2-2.4c0.8-0.5,1.7-0.7,2.8-0.7c0.6,0,1.2,0.1,1.7,0.2v-0.4c0-0.5-0.2-0.8-0.4-1c-0.3-0.3-0.8-0.4-1.5-0.4
				c-1.1,0-2.1,0.4-2.9,0.8v-2.6c0.8-0.4,2-0.8,3.4-0.8c1.3,0,2.5,0.3,3.3,0.9c0.7,0.6,1.1,1.5,1.1,2.7v3.3c0,0.5,0.2,0.8,0.6,0.8
				c0.2,0,0.3,0,0.5-0.1v2.3c-0.3,0.2-0.9,0.3-1.5,0.3C228,21.1,227.2,20.8,226.7,20.3L226.7,20.3z M226.1,17
				c-0.3-0.1-0.8-0.1-1.1-0.1c-0.8,0-1.6,0.2-1.6,1c0,0.6,0.6,1,1.3,1c0.5,0,1-0.2,1.4-0.4V17z"/>
			<path class="st2" d="M232,11h3v0.9l0,0c0.8-0.6,1.8-1.1,3-1.1c1,0,2,0.4,2.6,1c0.6,0.6,0.9,1.5,0.9,2.9v6.1h-3v-5.6
				c0-0.7-0.1-1.1-0.3-1.4c-0.3-0.3-0.6-0.4-1-0.4c-0.8,0-1.5,0.4-2.1,0.8v6.6h-3V11z"/>
			<path class="st2" d="M250.6,20.6c-0.5,0.3-1.4,0.5-2.2,0.5c-1,0-1.9-0.3-2.6-1c-0.5-0.6-0.9-1.4-0.9-2.9v-3.6h-1.6V11h1.6V8.5
				l3-0.5V11h2.6v2.5H248v3.3c0,1,0.2,1.7,1.1,1.7c0.5,0,1.1-0.2,1.5-0.4V20.6z"/>
		</g>
		<g class="st1">
			<path class="st2" d="M28.9,44.4h4.3c1.7,0,3.2,0.2,4.3,0.8c1.3,0.7,2.3,1.9,2.3,3.9c0,1.8-0.9,3.1-2.1,3.8
				c-1.1,0.7-2.6,0.9-4.7,0.9h-1v5.2h-3.2V44.4z M33.2,51.2c1.3,0,2-0.1,2.5-0.4c0.6-0.3,0.9-0.9,0.9-1.6c0-0.8-0.4-1.4-1-1.7
				c-0.6-0.3-1.4-0.3-2.5-0.3h-1.1v3.9H33.2z"/>
			<path class="st2" d="M41.8,44.4H45v11.7h6.3v2.8h-9.5V44.4z"/>
			<path class="st2" d="M53.1,44.4h4.3c1.7,0,3.2,0.2,4.3,0.8c1.3,0.7,2.3,1.9,2.3,3.9c0,1.8-0.9,3.1-2.1,3.8
				c-1.1,0.7-2.6,0.9-4.7,0.9h-1v5.2h-3.2V44.4z M57.5,51.2c1.3,0,2-0.1,2.5-0.4c0.6-0.3,0.9-0.9,0.9-1.6c0-0.8-0.4-1.4-1-1.7
				c-0.6-0.3-1.4-0.3-2.5-0.3h-1.1v3.9H57.5z"/>
			<path class="st2" d="M66.1,50.6c0-0.9,0.8-1.7,1.7-1.7c0.9,0,1.7,0.8,1.7,1.7s-0.8,1.7-1.7,1.7C66.9,52.3,66.1,51.5,66.1,50.6z
				 M67.8,55.7c0.9,0,1.7,0.8,1.7,1.7c0,0.9-0.8,1.7-1.7,1.7c-0.9,0-1.7-0.8-1.7-1.7C66.1,56.5,66.9,55.7,67.8,55.7z"/>
			<path class="st2" d="M77,55.7c1.4,0.8,2.9,1.1,3.9,1.1c0.8,0,1.3-0.2,1.3-0.8c0-0.8-1.1-0.7-2.6-1.1c-1.9-0.5-3-1.2-3-2.9
				c0-2.1,1.9-3.3,4.3-3.3c1.2,0,2.6,0.2,3.8,0.8v2.6c-1.3-0.7-2.8-1.1-3.7-1.1c-0.8,0-1.3,0.2-1.3,0.7c0,0.7,1.1,0.7,2.5,1
				c1.9,0.5,3,1.2,3,2.9c0,2.2-1.9,3.3-4.4,3.3c-1.2,0-2.7-0.2-3.9-0.8V55.7z"/>
			<path class="st2" d="M88.8,44.2c1,0,1.8,0.8,1.8,1.7s-0.8,1.7-1.8,1.7c-1,0-1.8-0.8-1.8-1.7S87.9,44.2,88.8,44.2z M87.3,49.1h3
				v9.8h-3V49.1z"/>
			<path class="st2" d="M93.8,59.9c1,0.6,2.1,1,3.2,1c1.5,0,2.4-0.8,2.4-2.2v-0.5l0,0c-0.6,0.4-1.5,0.7-2.3,0.7
				c-2.4,0-4.6-1.8-4.6-4.8c0-2.9,2.1-5.1,5.1-5.1c0.9,0,1.8,0.2,2.5,0.6l2.4-0.4v9.7c0,3.1-2.1,4.8-5.3,4.8c-1.3,0-2.5-0.3-3.4-0.7
				V59.9z M99.4,51.8c-0.4-0.2-1-0.4-1.5-0.4c-1.6,0-2.3,1.2-2.3,2.4c0,1.4,0.9,2.5,2.3,2.5c0.5,0,1.1-0.2,1.5-0.4V51.8z"/>
			<path class="st2" d="M105.2,49.1h3V50l0,0c0.8-0.6,1.8-1.1,3-1.1c1,0,2,0.4,2.6,1c0.6,0.6,0.9,1.5,0.9,2.9v6.1h-3v-5.6
				c0-0.7-0.1-1.1-0.3-1.4c-0.3-0.3-0.6-0.4-1-0.4c-0.8,0-1.5,0.4-2.1,0.8v6.6h-3V49.1z"/>
			<path class="st2" d="M118.9,44.2c1,0,1.8,0.8,1.8,1.7s-0.8,1.7-1.8,1.7c-1,0-1.8-0.8-1.8-1.7S117.9,44.2,118.9,44.2z M117.4,49.1
				h3v9.8h-3V49.1z"/>
			<path class="st2" d="M123.7,51.6h-1.4v-2.5h1.4v-1.5c0-1.4,0.3-2.6,1-3.3c0.7-0.7,1.8-0.9,2.8-0.9c0.6,0,1.1,0.1,1.7,0.3v2.5
				c-0.4-0.1-1-0.2-1.3-0.2c-0.9,0-1.1,0.6-1.1,1.4v1.7h2.3v2.5h-2.3v7.3h-3V51.6z M132.2,44.2c1,0,1.8,0.8,1.8,1.7
				s-0.8,1.7-1.8,1.7c-1,0-1.8-0.8-1.8-1.7S131.2,44.2,132.2,44.2z M130.6,49.1h3v9.8h-3V49.1z"/>
			<path class="st2" d="M144.5,58.4c-0.9,0.5-2.1,0.8-3.2,0.8c-3.2,0-5.5-2.2-5.5-5.1c0-3.1,2.6-5.2,5.6-5.2c1.1,0,2.1,0.3,2.9,0.7
				v2.8c-0.9-0.6-1.8-0.9-2.8-0.9c-1.6,0-2.7,1.1-2.7,2.6c0,1.5,1.1,2.6,2.8,2.6c1,0,2.1-0.4,2.9-1V58.4z"/>
			<path class="st2" d="M152.3,58.3c-0.6,0.5-1.6,0.8-2.7,0.8c-0.8,0-1.6-0.2-2.3-0.6c-0.7-0.5-1.2-1.3-1.2-2.3
				c0-1.1,0.5-1.9,1.2-2.4c0.8-0.5,1.7-0.7,2.8-0.7c0.6,0,1.2,0.1,1.7,0.2v-0.4c0-0.5-0.2-0.8-0.4-1c-0.3-0.3-0.8-0.4-1.5-0.4
				c-1.1,0-2.1,0.4-2.9,0.8v-2.6c0.8-0.4,2-0.8,3.4-0.8c1.3,0,2.5,0.3,3.3,0.9c0.7,0.6,1.1,1.5,1.1,2.7v3.3c0,0.5,0.2,0.8,0.6,0.8
				c0.2,0,0.3,0,0.5-0.1v2.3c-0.3,0.2-0.9,0.3-1.5,0.3C153.7,59.1,152.9,58.9,152.3,58.3L152.3,58.3z M151.8,55.1
				c-0.3-0.1-0.8-0.1-1.1-0.1c-0.8,0-1.6,0.2-1.6,1c0,0.6,0.6,1,1.3,1c0.5,0,1-0.2,1.4-0.4V55.1z"/>
			<path class="st2" d="M157.7,49.1h3V50l0,0c0.8-0.6,1.8-1.1,3-1.1c1,0,2,0.4,2.6,1c0.6,0.6,0.9,1.5,0.9,2.9v6.1h-3v-5.6
				c0-0.7-0.1-1.1-0.3-1.4c-0.3-0.3-0.6-0.4-1-0.4c-0.8,0-1.5,0.4-2.1,0.8v6.6h-3V49.1z"/>
			<path class="st2" d="M176.3,58.6c-0.5,0.3-1.4,0.5-2.2,0.5c-1,0-1.9-0.3-2.6-1c-0.5-0.6-0.9-1.4-0.9-2.9v-3.6H169v-2.5h1.6v-2.6
				l3-0.5v3.1h2.6v2.5h-2.6v3.3c0,1,0.2,1.7,1.1,1.7c0.5,0,1.1-0.2,1.5-0.4V58.6z"/>
		</g>
		<g>
			<defs>
				<rect id="SVGID_1_" x="-1" y="33.7" width="24" height="36"/>
			</defs>
			<clipPath id="SVGID_2_">
				<use xlink:href="#SVGID_1_"  style="overflow:visible;"/>
			</clipPath>
			<g id="_2.2-stq-3339-icon-study-4-checkmark" class="st4">
				<g id="Group_13157">
					<rect id="Rectangle_3788" y="42.1" class="st5" width="19.2" height="19.2"/>
					<path id="Path_102034" class="st6" d="M13.7,36.1L8.5,52.8l-1.7-5.3H3.3l3.3,11.3h3.8l6.7-22.7L13.7,36.1z"/>
				</g>
			</g>
		</g>
		<g>
			<defs>
				<rect id="SVGID_3_" x="-1" y="-4.3" width="24" height="36"/>
			</defs>
			<clipPath id="SVGID_4_">
				<use xlink:href="#SVGID_3_"  style="overflow:visible;"/>
			</clipPath>
			<g id="_2.2-stq-3339-icon-study-4-x" class="st7">
				<g id="Group_13158">
					<rect id="Rectangle_3789" x="0" y="4.3" class="st5" width="19.2" height="19.2"/>
					<path id="Path_111286" class="st6" d="M1.7,21h3.8l2.2-3.3c0.5-0.8,1-1.6,1.6-2.5h0c0.5,0.8,1,1.6,1.6,2.5L13,21h4l-5.6-8.1
						l4.8-7.1h-3.7l-1.4,2.1c-0.6,0.9-1.2,1.8-1.7,2.6h0C8.9,9.7,8.3,8.7,7.7,7.9L6.4,5.8H2.4l4.8,7.1L1.7,21z"/>
				</g>
			</g>
		</g>
	</g>
	<g class="st1">
		<path class="st8" d="M835.1,5471.9c1.5,1,3.5,1.5,4.6,1.5c1.2,0,2-0.5,2-1.5c0-1.3-1.4-1.5-3.2-2.1c-2-0.7-3.8-1.6-3.8-4.2
			c0-2.7,2-4.4,5.1-4.4c1.4,0,3.2,0.4,4.4,1v3.1c-1.5-1-3.3-1.4-4.4-1.4c-1.1,0-1.9,0.4-1.9,1.4c0,1.3,1.3,1.4,3.1,2
			c2.2,0.7,3.9,1.7,3.9,4.3c0,2.8-2.1,4.5-5.3,4.5c-1.4,0-3.2-0.4-4.6-1.1V5471.9z"/>
		<path class="st8" d="M854,5475.7c-0.5,0.3-1.4,0.5-2.2,0.5c-1,0-1.9-0.3-2.6-1c-0.5-0.6-0.9-1.4-0.9-2.9v-3.6h-1.6v-2.5h1.6v-2.6
			l3-0.5v3.1h2.6v2.5h-2.6v3.3c0,1,0.2,1.7,1.1,1.7c0.5,0,1.1-0.2,1.5-0.4V5475.7z"/>
		<path class="st8" d="M863.2,5475.1c-0.8,0.7-1.7,1.2-3,1.2c-1.1,0-2-0.4-2.6-1c-0.6-0.7-0.9-1.6-0.9-3v-6.1h3v5.6
			c0,0.7,0.1,1.1,0.4,1.4c0.3,0.3,0.7,0.4,1.1,0.4c0.8,0,1.5-0.4,2-0.9v-6.6h3v9.8h-3L863.2,5475.1L863.2,5475.1z"/>
		<path class="st8" d="M876.2,5475.5c-0.7,0.5-1.5,0.8-2.5,0.8c-2.5,0-4.6-1.9-4.6-4.9c0-3.1,2.3-5.3,5.2-5.3c0.7,0,1.3,0.1,1.9,0.4
			l0,0v-5.6h3v15.3h-3L876.2,5475.5L876.2,5475.5z M876.2,5468.8c-0.4-0.2-1-0.4-1.6-0.4c-1.6,0-2.5,1.2-2.5,2.7
			c0,1.5,0.8,2.6,2.3,2.6c0.7,0,1.3-0.2,1.7-0.5V5468.8z"/>
		<path class="st8" d="M882.9,5480.4l2.6-5.5l-4-8.8h3.2l1,2.4c0.4,1.1,0.9,2.1,1.3,3.1h0c0.4-1.1,0.9-2.1,1.3-3.2l1-2.4h3
			l-6.4,14.2H882.9z"/>
		<path class="st8" d="M899,5472.9l7.4-11.3h2.8v9h2.2v2.4h-2.2v3.1H906v-3.1L899,5472.9L899,5472.9z M906.1,5470.5v-2.1
			c0-0.7,0-1.5,0-2.2l0,0c-0.4,0.6-0.9,1.4-1.3,2.1l-1.4,2.2l0,0H906.1z"/>
		<path class="st8" d="M922.9,5480.4h-3v-14.2h3v0.5l0,0c0.6-0.4,1.5-0.7,2.4-0.7c2.5,0,4.7,2,4.7,5.1c0,3.2-2.3,5.2-5.1,5.2
			c-0.8,0-1.4-0.2-1.9-0.4l0,0V5480.4z M924.4,5473.8c1.6,0,2.5-1.1,2.5-2.6c0-1.5-0.9-2.7-2.4-2.7c-0.6,0-1.2,0.2-1.6,0.5v4.4
			C923.2,5473.6,923.8,5473.8,924.4,5473.8z"/>
		<path class="st8" d="M932.8,5466.2h3v1.3l0,0c0.7-1,1.6-1.5,2.9-1.5c0.2,0,0.4,0,0.6,0.1v2.9c-0.2-0.1-0.5-0.1-0.8-0.1
			c-1.1,0-1.9,0.3-2.7,1.2v6h-3V5466.2z"/>
		<path class="st8" d="M943.2,5461.3c1,0,1.8,0.8,1.8,1.7s-0.8,1.7-1.8,1.7c-1,0-1.8-0.8-1.8-1.7S942.2,5461.3,943.2,5461.3z
			 M941.6,5466.2h3v9.8h-3V5466.2z"/>
		<path class="st8" d="M960.8,5470.3c0-0.7-0.1-1.1-0.4-1.3c-0.3-0.3-0.6-0.4-1-0.4c-0.7,0-1.4,0.4-1.9,0.8c0,0.1,0,0.3,0,0.4v6.2
			h-3v-5.7c0-0.7-0.1-1.1-0.4-1.3c-0.3-0.3-0.6-0.4-1-0.4c-0.7,0-1.4,0.4-1.9,0.8v6.6h-3v-9.8h3v0.9l0,0c0.8-0.6,1.8-1.1,3-1.1
			c1.1,0,2.3,0.4,2.9,1.4c1.1-0.9,2.2-1.4,3.5-1.4c1.1,0,2,0.4,2.5,1c0.6,0.6,0.9,1.5,0.9,2.9v6.2h-3V5470.3z"/>
		<path class="st8" d="M972.7,5475.4c-0.6,0.5-1.6,0.8-2.7,0.8c-0.8,0-1.6-0.2-2.3-0.6c-0.7-0.5-1.2-1.3-1.2-2.3
			c0-1.1,0.5-1.9,1.2-2.4c0.8-0.5,1.7-0.7,2.8-0.7c0.6,0,1.2,0.1,1.7,0.2v-0.4c0-0.5-0.2-0.8-0.4-1c-0.3-0.3-0.8-0.4-1.5-0.4
			c-1.1,0-2.1,0.4-2.9,0.8v-2.6c0.8-0.4,2-0.8,3.4-0.8c1.3,0,2.5,0.3,3.3,0.9c0.7,0.6,1.1,1.5,1.1,2.7v3.3c0,0.5,0.2,0.8,0.6,0.8
			c0.2,0,0.3,0,0.5-0.1v2.3c-0.3,0.2-0.9,0.3-1.5,0.3C974.1,5476.2,973.3,5476,972.7,5475.4L972.7,5475.4z M972.2,5472.1
			c-0.3-0.1-0.8-0.1-1.1-0.1c-0.8,0-1.6,0.2-1.6,1c0,0.6,0.6,1,1.3,1c0.5,0,1-0.2,1.4-0.4V5472.1z"/>
		<path class="st8" d="M978.8,5466.2h3v1.3l0,0c0.7-1,1.6-1.5,2.9-1.5c0.2,0,0.4,0,0.6,0.1v2.9c-0.2-0.1-0.5-0.1-0.8-0.1
			c-1.1,0-1.9,0.3-2.7,1.2v6h-3V5466.2z"/>
		<path class="st8" d="M988.1,5480.4l2.6-5.5l-4-8.8h3.2l1,2.4c0.4,1.1,0.9,2.1,1.3,3.1h0c0.4-1.1,0.9-2.1,1.3-3.2l1-2.4h3
			l-6.4,14.2H988.1z"/>
		<path class="st8" d="M1008,5471.9c0.3,1.4,1.5,2,2.9,2c1.1,0,2.3-0.4,3.3-1.1v2.5c-1,0.6-2.4,0.9-3.7,0.9c-3.2,0-5.6-2-5.6-5.1
			c0-3.1,2.4-5.2,5.2-5.2c2.4,0,4.7,1.6,4.7,4.9c0,0.3,0,0.8-0.1,1H1008z M1011.9,5470c-0.2-1.1-1-1.7-1.9-1.7c-0.9,0-1.8,0.6-2,1.7
			H1011.9z"/>
		<path class="st8" d="M1017.5,5466.2h3v0.9l0,0c0.8-0.6,1.8-1.1,3-1.1c1,0,2,0.4,2.6,1c0.6,0.6,0.9,1.5,0.9,2.9v6.1h-3v-5.6
			c0-0.7-0.1-1.1-0.3-1.4c-0.3-0.3-0.6-0.4-1-0.4c-0.8,0-1.5,0.4-2.1,0.8v6.6h-3V5466.2z"/>
		<path class="st8" d="M1037,5475.5c-0.7,0.5-1.5,0.8-2.5,0.8c-2.5,0-4.6-1.9-4.6-4.9c0-3.1,2.3-5.3,5.2-5.3c0.7,0,1.3,0.1,1.9,0.4
			l0,0v-5.6h3v15.3h-3L1037,5475.5L1037,5475.5z M1037,5468.8c-0.4-0.2-1-0.4-1.6-0.4c-1.6,0-2.5,1.2-2.5,2.7c0,1.5,0.8,2.6,2.3,2.6
			c0.7,0,1.3-0.2,1.7-0.5V5468.8z"/>
		<path class="st8" d="M1046.4,5480.4h-3v-14.2h3v0.5l0,0c0.6-0.4,1.5-0.7,2.4-0.7c2.5,0,4.7,2,4.7,5.1c0,3.2-2.3,5.2-5.1,5.2
			c-0.8,0-1.4-0.2-1.9-0.4l0,0V5480.4z M1048,5473.8c1.6,0,2.5-1.1,2.5-2.6c0-1.5-0.9-2.7-2.4-2.7c-0.6,0-1.2,0.2-1.6,0.5v4.4
			C1046.8,5473.6,1047.4,5473.8,1048,5473.8z"/>
		<path class="st8" d="M1061.2,5465.9c3.1,0,5.5,2.2,5.5,5.1s-2.3,5.1-5.5,5.1s-5.5-2.2-5.5-5.1S1058,5465.9,1061.2,5465.9z
			 M1061.2,5473.6c1.4,0,2.4-1.1,2.4-2.5s-1.1-2.5-2.4-2.5c-1.4,0-2.4,1.1-2.4,2.5S1059.8,5473.6,1061.2,5473.6z"/>
		<path class="st8" d="M1070.9,5461.3c1,0,1.8,0.8,1.8,1.7s-0.8,1.7-1.8,1.7c-1,0-1.8-0.8-1.8-1.7S1070,5461.3,1070.9,5461.3z
			 M1069.4,5466.2h3v9.8h-3V5466.2z"/>
		<path class="st8" d="M1075.8,5466.2h3v0.9l0,0c0.8-0.6,1.8-1.1,3-1.1c1,0,2,0.4,2.6,1c0.6,0.6,0.9,1.5,0.9,2.9v6.1h-3v-5.6
			c0-0.7-0.1-1.1-0.3-1.4c-0.3-0.3-0.6-0.4-1-0.4c-0.8,0-1.5,0.4-2.1,0.8v6.6h-3V5466.2z"/>
		<path class="st8" d="M1095.1,5475.7c-0.5,0.3-1.4,0.5-2.2,0.5c-1,0-1.9-0.3-2.6-1c-0.5-0.6-0.9-1.4-0.9-2.9v-3.6h-1.6v-2.5h1.6
			v-2.6l3-0.5v3.1h2.6v2.5h-2.6v3.3c0,1,0.2,1.7,1.1,1.7c0.5,0,1.1-0.2,1.5-0.4V5475.7z"/>
		<path class="st8" d="M1097.5,5472.7c1.4,0.8,2.9,1.1,3.9,1.1c0.8,0,1.3-0.2,1.3-0.8c0-0.8-1.1-0.7-2.6-1.1c-1.9-0.5-3-1.2-3-2.9
			c0-2.1,1.9-3.3,4.3-3.3c1.2,0,2.6,0.2,3.8,0.8v2.6c-1.3-0.7-2.8-1.1-3.7-1.1c-0.8,0-1.3,0.2-1.3,0.7c0,0.7,1.1,0.7,2.5,1
			c1.9,0.5,3,1.2,3,2.9c0,2.2-1.9,3.3-4.4,3.3c-1.2,0-2.7-0.2-3.9-0.8V5472.7z"/>
	</g>
</g>
</svg>
