<svg xmlns="http://www.w3.org/2000/svg" xmlns:xlink="http://www.w3.org/1999/xlink" width="360" height="516.876" viewBox="0 0 360 516.876"><defs><clipPath id="a"><rect width="24" height="36" fill="none" stroke="#707070" stroke-width="1"/></clipPath></defs><g transform="translate(-800 -5423)"><rect width="360" height="516.876" transform="translate(800 5423)" fill="#fff"/><path d="M4.74,57H6.452V45.517h4.379V43.968H.36v1.549H4.74ZM12.8,57h1.622V50.937a3.872,3.872,0,0,1,2.829-1.477,1.686,1.686,0,0,1,1.352.576,2.507,2.507,0,0,1,.433,1.8V57h1.622V51.531a3.586,3.586,0,0,0-.739-2.611,3.068,3.068,0,0,0-2.361-.972,4.4,4.4,0,0,0-3.1,1.332l-.036-.018V43.248H12.8ZM31.43,53.043a5.551,5.551,0,0,0,.054-.81,3.966,3.966,0,0,0-4.037-4.285,4.417,4.417,0,0,0-4.415,4.628A4.517,4.517,0,0,0,27.826,57.2,6.281,6.281,0,0,0,31,56.375V54.646a5.056,5.056,0,0,1-3.064,1.1,3.037,3.037,0,0,1-3.28-2.7Zm-4.019-3.637a2.4,2.4,0,0,1,2.505,2.359H24.69A2.708,2.708,0,0,1,27.411,49.406Zm10.849,7.076a7.461,7.461,0,0,0,3.316.72c1.892,0,3.731-.774,3.731-2.827,0-1.837-1.406-2.3-3.1-2.593-1.316-.234-2.577-.234-2.577-1.242,0-.792.793-1.134,1.928-1.134a6.739,6.739,0,0,1,3.244.864V48.65a7.183,7.183,0,0,0-3.172-.7c-2.055,0-3.622.882-3.64,2.719,0,1.747,1.334,2.251,3.028,2.539,1.37.234,2.649.252,2.649,1.314,0,.864-.793,1.224-2.018,1.224a6.489,6.489,0,0,1-3.388-.954Zm10.777-.108a2.577,2.577,0,0,0,2.018.828,3.947,3.947,0,0,0,1.6-.324V55.348a2.686,2.686,0,0,1-1.334.378c-1.171,0-1.334-1.008-1.334-2.107V49.6H52.66V48.146H49.993V45.463l-1.622.27v2.413h-1.64V49.6h1.64v4.322A3.493,3.493,0,0,0,49.038,56.375Zm6.524-.162a3.171,3.171,0,0,0,2.415.99A4.347,4.347,0,0,0,61.04,55.87l.036.018V57H62.7V48.146H61.076V54.2A3.792,3.792,0,0,1,58.3,55.708,1.73,1.73,0,0,1,56.9,55.1a2.677,2.677,0,0,1-.433-1.837V48.146H54.841v5.42A3.845,3.845,0,0,0,55.562,56.213Zm9.588-3.493a4.373,4.373,0,0,0,6.83,3.727l.036.018V57h1.622V43.248H72.016V48.4l-.036.018a5.088,5.088,0,0,0-2.127-.468A4.57,4.57,0,0,0,65.149,52.719Zm1.64-.09a3.015,3.015,0,0,1,3.046-3.241,4.943,4.943,0,0,1,2.181.558v5.06a4.1,4.1,0,0,1-2.307.756A2.887,2.887,0,0,1,66.789,52.629ZM78.7,60.966l6-12.82H82.991l-1.55,3.349c-.415.9-.811,1.783-1.207,2.665H80.2c-.36-.81-.793-1.765-1.207-2.665l-1.55-3.349h-1.8l3.695,7.9-2.4,4.916Zm7.767-12.478h1.1l1.478-4.844H87.461Zm2.811,7.995a7.461,7.461,0,0,0,3.316.72c1.892,0,3.731-.774,3.731-2.827,0-1.837-1.406-2.3-3.1-2.593-1.316-.234-2.577-.234-2.577-1.242,0-.792.793-1.134,1.928-1.134a6.739,6.739,0,0,1,3.244.864V48.65a7.183,7.183,0,0,0-3.172-.7c-2.055,0-3.622.882-3.64,2.719,0,1.747,1.334,2.251,3.028,2.539,1.37.234,2.649.252,2.649,1.314,0,.864-.793,1.224-2.018,1.224a6.489,6.489,0,0,1-3.388-.954Zm15.319-.108a2.576,2.576,0,0,0,2.018.828,3.947,3.947,0,0,0,1.6-.324V55.348a2.686,2.686,0,0,1-1.334.378c-1.171,0-1.334-1.008-1.334-2.107V49.6h2.667V48.146h-2.667V45.463l-1.622.27v2.413h-1.64V49.6h1.64v4.322A3.493,3.493,0,0,0,104.6,56.375Zm7.966.63h1.622l1.388-3.8c.306-.81.613-1.711.865-2.485h.036c.252.774.559,1.675.865,2.485l1.388,3.8h1.6l3.082-8.859h-1.694L120.4,52.107c-.306.918-.595,1.819-.865,2.719H119.5c-.306-.9-.631-1.819-.973-2.737l-1.46-3.943h-1.153l-1.46,3.943c-.324.882-.667,1.837-.973,2.737h-.036c-.288-.918-.577-1.819-.883-2.737l-1.316-3.943h-1.766Zm11.877-4.43a4.686,4.686,0,1,0,4.686-4.628A4.563,4.563,0,0,0,124.442,52.575Zm1.622,0a3.065,3.065,0,1,1,3.064,3.151A3.037,3.037,0,0,1,126.064,52.575Zm21.554,2.287a4.131,4.131,0,0,1-2.559.864,3.053,3.053,0,0,1-3.262-3.1,3.1,3.1,0,0,1,3.208-3.205,4.677,4.677,0,0,1,2.469.756V48.506a5.349,5.349,0,0,0-2.4-.558,4.687,4.687,0,0,0-4.92,4.682,4.542,4.542,0,0,0,4.812,4.574,5.733,5.733,0,0,0,2.649-.612Zm1.874-2.287a4.686,4.686,0,1,0,4.686-4.628A4.563,4.563,0,0,0,149.493,52.575Zm1.622,0a3.065,3.065,0,1,1,3.064,3.151A3.037,3.037,0,0,1,151.115,52.575Zm9.768.162h4.289V51.3h-4.289Zm8.542,4,.036-.018a5,5,0,0,0,2.181.486,4.484,4.484,0,0,0,4.632-4.664,4.32,4.32,0,0,0-4.289-4.592,4.377,4.377,0,0,0-2.523.792l-.036-.018v-.576H167.8v12.82h1.622Zm0-1.567V50.216a3.7,3.7,0,0,1,2.289-.81,3.006,3.006,0,0,1,2.92,3.259,2.9,2.9,0,0,1-2.956,3.115A4.883,4.883,0,0,1,169.425,55.168ZM178.706,57h1.622V51.243a2.9,2.9,0,0,1,2.613-1.567,2.61,2.61,0,0,1,.631.072v-1.6a2.2,2.2,0,0,0-.577-.072,3.233,3.233,0,0,0-2.631,1.386l-.036-.018v-1.3h-1.622Zm6.47-11.9a1.135,1.135,0,1,0,1.135-1.134A1.13,1.13,0,0,0,185.176,45.1ZM185.5,57h1.622V48.146H185.5Zm16.851,0h1.622V51.477a3.6,3.6,0,0,0-.739-2.593,3.027,3.027,0,0,0-2.325-.936,4.807,4.807,0,0,0-3.37,1.531,2.933,2.933,0,0,0-2.721-1.531,4.27,4.27,0,0,0-3.01,1.3l-.036-.018v-1.08H190.15V57h1.622V50.847a3.761,3.761,0,0,1,2.7-1.386,1.71,1.71,0,0,1,1.352.558,2.446,2.446,0,0,1,.415,1.747V57h1.622V51.477c0-.216,0-.432-.018-.63a3.862,3.862,0,0,1,2.7-1.386A1.781,1.781,0,0,1,201.9,50a2.594,2.594,0,0,1,.451,1.765Zm7.065.2a4.21,4.21,0,0,0,2.721-.972h.036a1.885,1.885,0,0,0,1.712.936A2.313,2.313,0,0,0,214.75,57v-1.35a1.242,1.242,0,0,1-.523.126c-.487,0-.685-.4-.685-.936V51.081a2.984,2.984,0,0,0-.883-2.323,3.857,3.857,0,0,0-2.649-.81,5.585,5.585,0,0,0-2.956.756v1.585a4.626,4.626,0,0,1,2.721-.882,2.407,2.407,0,0,1,1.64.486,1.914,1.914,0,0,1,.5,1.459v.738a7.777,7.777,0,0,0-1.892-.234,4.632,4.632,0,0,0-2.487.594,2.461,2.461,0,0,0-1.171,2.161,2.359,2.359,0,0,0,.937,1.963A3.541,3.541,0,0,0,209.416,57.2Zm.288-1.441c-.955,0-1.694-.432-1.694-1.3,0-1.044,1.081-1.368,2.181-1.368a6.691,6.691,0,0,1,1.73.234v1.657A3.7,3.7,0,0,1,209.7,55.762ZM216.733,57h1.622V51.243a2.9,2.9,0,0,1,2.613-1.567,2.61,2.61,0,0,1,.631.072v-1.6a2.2,2.2,0,0,0-.577-.072,3.233,3.233,0,0,0-2.631,1.386l-.036-.018v-1.3h-1.622Zm8.921,3.961,6-12.82h-1.712l-1.55,3.349c-.415.9-.811,1.783-1.207,2.665h-.036c-.36-.81-.793-1.765-1.207-2.665l-1.55-3.349h-1.8l3.695,7.9-2.4,4.916ZM9.209,83.054a5.552,5.552,0,0,0,.054-.81,3.966,3.966,0,0,0-4.037-4.285A4.417,4.417,0,0,0,.811,82.586,4.517,4.517,0,0,0,5.6,87.213a6.281,6.281,0,0,0,3.172-.828V84.656a5.056,5.056,0,0,1-3.064,1.1,3.037,3.037,0,0,1-3.28-2.7ZM5.19,79.417A2.4,2.4,0,0,1,7.7,81.775H2.469A2.708,2.708,0,0,1,5.19,79.417Zm6.56,7.6h1.622V80.947a3.734,3.734,0,0,1,2.775-1.477,1.839,1.839,0,0,1,1.424.576,2.744,2.744,0,0,1,.415,1.8v5.168h1.622V81.541a3.586,3.586,0,0,0-.739-2.611,3.068,3.068,0,0,0-2.361-.972,4.4,4.4,0,0,0-3.1,1.332l-.036-.018V78.156H11.75ZM22.023,82.73a4.373,4.373,0,0,0,6.83,3.727l.036.018v.54h1.622V73.258H28.889v5.15l-.036.018a5.088,5.088,0,0,0-2.127-.468A4.57,4.57,0,0,0,22.023,82.73Zm1.64-.09A3.015,3.015,0,0,1,26.708,79.4a4.943,4.943,0,0,1,2.181.558v5.06a4.1,4.1,0,0,1-2.307.756A2.887,2.887,0,0,1,23.663,82.64Zm11.5,4.105.036-.018a5,5,0,0,0,2.181.486,4.484,4.484,0,0,0,4.632-4.664,4.32,4.32,0,0,0-4.289-4.592,4.377,4.377,0,0,0-2.523.792l-.036-.018v-.576H33.539v12.82h1.622Zm0-1.567V80.227a3.7,3.7,0,0,1,2.289-.81,3.006,3.006,0,0,1,2.92,3.259,2.9,2.9,0,0,1-2.956,3.115A4.883,4.883,0,0,1,35.161,85.179Zm8.669-2.593a4.686,4.686,0,1,0,4.686-4.628A4.563,4.563,0,0,0,43.829,82.586Zm1.622,0a3.065,3.065,0,1,1,3.064,3.151A3.037,3.037,0,0,1,45.451,82.586Zm9.84-7.473a1.135,1.135,0,1,0,1.135-1.134A1.13,1.13,0,0,0,55.291,75.113Zm.324,11.9h1.622V78.156H55.616Zm4.65,0h1.622V80.947a3.734,3.734,0,0,1,2.775-1.477,1.839,1.839,0,0,1,1.424.576,2.744,2.744,0,0,1,.415,1.8v5.168h1.622V81.541a3.586,3.586,0,0,0-.739-2.611,3.068,3.068,0,0,0-2.361-.972,4.4,4.4,0,0,0-3.1,1.332l-.036-.018V78.156H60.265Zm12.2-.63a2.576,2.576,0,0,0,2.018.828,3.947,3.947,0,0,0,1.6-.324V85.359a2.686,2.686,0,0,1-1.334.378c-1.171,0-1.334-1.008-1.334-2.107V79.615h2.667V78.156H73.422V75.473l-1.622.27v2.413H70.16v1.459H71.8v4.322A3.493,3.493,0,0,0,72.466,86.385Zm5.587.108a7.461,7.461,0,0,0,3.316.72c1.892,0,3.731-.774,3.731-2.827,0-1.837-1.406-2.3-3.1-2.593-1.316-.234-2.577-.234-2.577-1.242,0-.792.793-1.134,1.928-1.134a6.739,6.739,0,0,1,3.244.864V78.66a7.183,7.183,0,0,0-3.172-.7c-2.055,0-3.622.882-3.64,2.719,0,1.747,1.334,2.251,3.028,2.539,1.37.234,2.649.252,2.649,1.314,0,.864-.793,1.224-2.018,1.224a6.489,6.489,0,0,1-3.388-.954Zm16.094.522h1.622l1.388-3.8c.306-.81.613-1.711.865-2.485h.036c.252.774.559,1.675.865,2.485l1.388,3.8h1.6L105,78.156H103.3l-1.316,3.961c-.306.918-.595,1.819-.865,2.719h-.036c-.306-.9-.631-1.819-.973-2.737l-1.46-3.943H97.5L96.039,82.1c-.324.882-.667,1.837-.973,2.737H95.03c-.288-.918-.577-1.819-.883-2.737l-1.316-3.943H91.065Zm20.275-3.961a5.551,5.551,0,0,0,.054-.81,3.966,3.966,0,0,0-4.037-4.285,4.417,4.417,0,0,0-4.415,4.628,4.517,4.517,0,0,0,4.794,4.628,6.281,6.281,0,0,0,3.172-.828V84.656a5.056,5.056,0,0,1-3.064,1.1,3.037,3.037,0,0,1-3.28-2.7ZM110.4,79.417a2.4,2.4,0,0,1,2.505,2.359h-5.226A2.708,2.708,0,0,1,110.4,79.417Zm6.56,7.6h1.622V81.253a2.9,2.9,0,0,1,2.613-1.567,2.61,2.61,0,0,1,.631.072v-1.6a2.2,2.2,0,0,0-.577-.072,3.233,3.233,0,0,0-2.631,1.386l-.036-.018v-1.3h-1.622Zm14.364-3.961a5.552,5.552,0,0,0,.054-.81,3.966,3.966,0,0,0-4.037-4.285,4.417,4.417,0,0,0-4.415,4.628,4.517,4.517,0,0,0,4.794,4.628,6.281,6.281,0,0,0,3.172-.828V84.656a5.056,5.056,0,0,1-3.064,1.1,3.037,3.037,0,0,1-3.28-2.7Zm-4.019-3.637a2.4,2.4,0,0,1,2.505,2.359h-5.226A2.708,2.708,0,0,1,127.307,79.417Zm12.453,6.968a2.576,2.576,0,0,0,2.018.828,3.947,3.947,0,0,0,1.6-.324V85.359a2.686,2.686,0,0,1-1.334.378c-1.171,0-1.334-1.008-1.334-2.107V79.615h2.667V78.156h-2.667V75.473l-1.622.27v2.413h-1.64v1.459h1.64v4.322A3.493,3.493,0,0,0,139.761,86.385Zm5.01-3.8a4.686,4.686,0,1,0,4.686-4.628A4.563,4.563,0,0,0,144.771,82.586Zm1.622,0a3.065,3.065,0,1,1,3.064,3.151A3.037,3.037,0,0,1,146.393,82.586Zm26.907,4.43h1.622V81.487a3.6,3.6,0,0,0-.739-2.593,3.027,3.027,0,0,0-2.325-.936,4.807,4.807,0,0,0-3.37,1.531,2.933,2.933,0,0,0-2.721-1.531,4.271,4.271,0,0,0-3.01,1.3l-.036-.018v-1.08H161.1v8.859h1.622V80.857a3.761,3.761,0,0,1,2.7-1.386,1.71,1.71,0,0,1,1.352.558,2.446,2.446,0,0,1,.415,1.747v5.24h1.622V81.487c0-.216,0-.432-.018-.63a3.862,3.862,0,0,1,2.7-1.386,1.781,1.781,0,0,1,1.352.54,2.594,2.594,0,0,1,.451,1.765Zm12.4-3.961a5.552,5.552,0,0,0,.054-.81,3.966,3.966,0,0,0-4.037-4.285,4.417,4.417,0,0,0-4.415,4.628,4.517,4.517,0,0,0,4.794,4.628,6.282,6.282,0,0,0,3.172-.828V84.656a5.056,5.056,0,0,1-3.064,1.1,3.037,3.037,0,0,1-3.28-2.7Zm-4.019-3.637a2.4,2.4,0,0,1,2.505,2.359h-5.226A2.708,2.708,0,0,1,181.68,79.417Zm9.011,7.8a4.21,4.21,0,0,0,2.721-.972h.036a1.885,1.885,0,0,0,1.712.936,2.313,2.313,0,0,0,.865-.162v-1.35a1.242,1.242,0,0,1-.523.126c-.487,0-.685-.4-.685-.936V81.091a2.984,2.984,0,0,0-.883-2.323,3.857,3.857,0,0,0-2.649-.81,5.585,5.585,0,0,0-2.956.756V80.3a4.626,4.626,0,0,1,2.721-.882,2.407,2.407,0,0,1,1.64.486,1.914,1.914,0,0,1,.5,1.459V82.1a7.777,7.777,0,0,0-1.892-.234,4.632,4.632,0,0,0-2.487.594,2.461,2.461,0,0,0-1.171,2.161,2.359,2.359,0,0,0,.937,1.963A3.541,3.541,0,0,0,190.691,87.213Zm.288-1.44c-.955,0-1.694-.432-1.694-1.3,0-1.044,1.081-1.368,2.181-1.368a6.691,6.691,0,0,1,1.73.234V85A3.7,3.7,0,0,1,190.979,85.773Zm6.776.72a7.461,7.461,0,0,0,3.316.72c1.892,0,3.731-.774,3.731-2.827,0-1.837-1.406-2.3-3.1-2.593-1.316-.234-2.577-.234-2.577-1.242,0-.792.793-1.134,1.928-1.134a6.739,6.739,0,0,1,3.244.864V78.66a7.183,7.183,0,0,0-3.172-.7c-2.055,0-3.622.882-3.64,2.719,0,1.747,1.334,2.251,3.028,2.539,1.37.234,2.649.252,2.649,1.314,0,.864-.793,1.224-2.018,1.224a6.489,6.489,0,0,1-3.388-.954Zm10.11-.27a3.171,3.171,0,0,0,2.415.99,4.347,4.347,0,0,0,3.064-1.332l.036.018v1.116H215V78.156h-1.622v6.05a3.792,3.792,0,0,1-2.775,1.513,1.73,1.73,0,0,1-1.406-.612,2.677,2.677,0,0,1-.433-1.837V78.156h-1.622v5.42A3.845,3.845,0,0,0,207.866,86.223Zm10.164.792h1.622V81.253a2.9,2.9,0,0,1,2.613-1.567,2.61,2.61,0,0,1,.631.072v-1.6a2.2,2.2,0,0,0-.577-.072,3.233,3.233,0,0,0-2.631,1.386l-.036-.018v-1.3H218.03Zm14.364-3.961a5.552,5.552,0,0,0,.054-.81,3.966,3.966,0,0,0-4.037-4.285A4.417,4.417,0,0,0,224,82.586a4.517,4.517,0,0,0,4.794,4.628,6.282,6.282,0,0,0,3.172-.828V84.656a5.056,5.056,0,0,1-3.064,1.1,3.037,3.037,0,0,1-3.28-2.7Zm-4.019-3.637a2.4,2.4,0,0,1,2.505,2.359h-5.226A2.708,2.708,0,0,1,228.375,79.417Zm12.453,6.968a2.576,2.576,0,0,0,2.018.828,3.947,3.947,0,0,0,1.6-.324V85.359a2.686,2.686,0,0,1-1.334.378c-1.171,0-1.334-1.008-1.334-2.107V79.615h2.667V78.156h-2.667V75.473l-1.622.27v2.413h-1.64v1.459h1.64v4.322A3.493,3.493,0,0,0,240.828,86.385Zm5.839.63h1.622V80.947a3.871,3.871,0,0,1,2.829-1.477,1.686,1.686,0,0,1,1.352.576,2.507,2.507,0,0,1,.433,1.8v5.168h1.622V81.541a3.586,3.586,0,0,0-.739-2.611,3.068,3.068,0,0,0-2.361-.972,4.4,4.4,0,0,0-3.1,1.332l-.036-.018V73.258h-1.622ZM265.3,83.054a5.548,5.548,0,0,0,.054-.81,3.966,3.966,0,0,0-4.037-4.285,4.417,4.417,0,0,0-4.415,4.628,4.517,4.517,0,0,0,4.794,4.628,6.281,6.281,0,0,0,3.172-.828V84.656a5.056,5.056,0,0,1-3.064,1.1,3.037,3.037,0,0,1-3.28-2.7Zm-4.019-3.637a2.4,2.4,0,0,1,2.505,2.359h-5.226A2.708,2.708,0,0,1,261.283,79.417ZM8.272,114.883a4.131,4.131,0,0,1-2.559.864,3.053,3.053,0,0,1-3.262-3.1,3.1,3.1,0,0,1,3.208-3.205,4.677,4.677,0,0,1,2.469.756v-1.675a5.349,5.349,0,0,0-2.4-.558,4.687,4.687,0,0,0-4.92,4.682,4.542,4.542,0,0,0,4.812,4.574,5.733,5.733,0,0,0,2.649-.612Zm2.523,2.143h1.622v-6.068a3.872,3.872,0,0,1,2.829-1.477,1.686,1.686,0,0,1,1.352.576,2.507,2.507,0,0,1,.433,1.8v5.168h1.622v-5.474a3.586,3.586,0,0,0-.739-2.611,3.068,3.068,0,0,0-2.361-.972,4.4,4.4,0,0,0-3.1,1.332l-.036-.018v-6.014H10.795Zm13.3.2a4.21,4.21,0,0,0,2.721-.972h.036a1.885,1.885,0,0,0,1.712.936,2.313,2.313,0,0,0,.865-.162v-1.35a1.242,1.242,0,0,1-.523.126c-.487,0-.685-.4-.685-.936V111.1a2.984,2.984,0,0,0-.883-2.323,3.857,3.857,0,0,0-2.649-.81,5.585,5.585,0,0,0-2.956.756v1.585a4.626,4.626,0,0,1,2.721-.882,2.407,2.407,0,0,1,1.64.486,1.914,1.914,0,0,1,.5,1.459v.738a7.776,7.776,0,0,0-1.892-.234,4.632,4.632,0,0,0-2.487.594,2.461,2.461,0,0,0-1.171,2.161,2.359,2.359,0,0,0,.937,1.963A3.541,3.541,0,0,0,24.1,117.224Zm.288-1.44c-.955,0-1.694-.432-1.694-1.3,0-1.044,1.081-1.368,2.181-1.368a6.691,6.691,0,0,1,1.73.234v1.657A3.7,3.7,0,0,1,24.384,115.783Zm7.029,1.242h1.622v-6.068a3.734,3.734,0,0,1,2.775-1.477,1.839,1.839,0,0,1,1.424.576,2.744,2.744,0,0,1,.415,1.8v5.168H39.27v-5.474a3.586,3.586,0,0,0-.739-2.611,3.068,3.068,0,0,0-2.361-.972,4.4,4.4,0,0,0-3.1,1.332l-.036-.018v-1.116H31.412Zm11.444,3.493a6.286,6.286,0,0,0,2.811.666c2.721,0,4.451-1.6,4.451-4.2V108.2l-1.568.27a5.079,5.079,0,0,0-2.253-.5,4.448,4.448,0,0,0-4.6,4.646,4.276,4.276,0,0,0,4.343,4.43,4.39,4.39,0,0,0,2.415-.684l.036.018v.648a2.575,2.575,0,0,1-2.829,2.683,5.175,5.175,0,0,1-2.811-.918Zm.487-8.013a2.9,2.9,0,0,1,2.92-3.1,4.576,4.576,0,0,1,2.235.612v4.88a3.749,3.749,0,0,1-2.217.72A2.917,2.917,0,0,1,43.343,112.506Zm17.608.558a5.551,5.551,0,0,0,.054-.81,3.966,3.966,0,0,0-4.037-4.285,4.417,4.417,0,0,0-4.415,4.628,4.517,4.517,0,0,0,4.794,4.628,6.281,6.281,0,0,0,3.172-.828v-1.729a5.056,5.056,0,0,1-3.064,1.1,3.037,3.037,0,0,1-3.28-2.7Zm-4.019-3.637a2.4,2.4,0,0,1,2.505,2.359H54.21A2.708,2.708,0,0,1,56.931,109.427Zm10.777-4.3a1.135,1.135,0,1,0,1.135-1.134A1.13,1.13,0,0,0,67.709,105.124Zm.324,11.9h1.622v-8.859H68.033Zm4.65,0H74.3v-6.068a3.734,3.734,0,0,1,2.775-1.477,1.839,1.839,0,0,1,1.424.576,2.744,2.744,0,0,1,.415,1.8v5.168H80.54v-5.474a3.586,3.586,0,0,0-.739-2.611,3.068,3.068,0,0,0-2.361-.972,4.4,4.4,0,0,0-3.1,1.332l-.036-.018v-1.116H72.683Zm15.391,0,1.568-.27a5.8,5.8,0,0,0,2.217.468,4.586,4.586,0,0,0,4.7-4.754,4.291,4.291,0,0,0-4.325-4.5,4.7,4.7,0,0,0-2.505.72l-.036-.018v-5.4H88.073Zm1.622-1.8v-4.97a3.657,3.657,0,0,1,2.343-.828,2.89,2.89,0,0,1,2.884,3.133,3.008,3.008,0,0,1-3.01,3.241A4.769,4.769,0,0,1,89.7,115.225Zm9.281,1.8H100.6V103.269H98.977Zm4.037-4.43a4.686,4.686,0,1,0,4.686-4.628A4.563,4.563,0,0,0,103.014,112.6Zm1.622,0a3.065,3.065,0,1,1,3.064,3.151A3.037,3.037,0,0,1,104.636,112.6Zm9.552,0a4.686,4.686,0,1,0,4.686-4.628A4.563,4.563,0,0,0,114.187,112.6Zm1.622,0a3.065,3.065,0,1,1,3.064,3.151A3.037,3.037,0,0,1,115.809,112.6Zm9.588.144a4.373,4.373,0,0,0,6.83,3.727l.036.018v.54h1.622V103.269h-1.622v5.15l-.036.018a5.088,5.088,0,0,0-2.127-.468A4.57,4.57,0,0,0,125.4,112.74Zm1.64-.09a3.015,3.015,0,0,1,3.046-3.241,4.943,4.943,0,0,1,2.181.558v5.06a4.1,4.1,0,0,1-2.307.756A2.887,2.887,0,0,1,127.037,112.65Zm14.418,4.376h1.622V103.269h-1.622Zm12.435-3.961a5.552,5.552,0,0,0,.054-.81,3.966,3.966,0,0,0-4.037-4.285,4.417,4.417,0,0,0-4.415,4.628,4.517,4.517,0,0,0,4.794,4.628,6.281,6.281,0,0,0,3.172-.828v-1.729a5.056,5.056,0,0,1-3.064,1.1,3.037,3.037,0,0,1-3.28-2.7Zm-4.019-3.637a2.4,2.4,0,0,1,2.505,2.359H147.15A2.708,2.708,0,0,1,149.871,109.427Zm8.867,7.6h1.622l3.713-8.859h-1.694l-1.6,3.889c-.415,1.008-.793,1.945-1.189,2.953h-.036c-.378-.972-.739-1.873-1.135-2.845l-1.64-4h-1.766Zm14.652-3.961a5.552,5.552,0,0,0,.054-.81,3.966,3.966,0,0,0-4.037-4.285,4.417,4.417,0,0,0-4.415,4.628,4.517,4.517,0,0,0,4.794,4.628,6.282,6.282,0,0,0,3.172-.828v-1.729a5.056,5.056,0,0,1-3.064,1.1,3.037,3.037,0,0,1-3.28-2.7Zm-4.019-3.637a2.4,2.4,0,0,1,2.505,2.359h-5.226A2.708,2.708,0,0,1,169.371,109.427Zm6.56,7.6h1.622V103.269h-1.622Zm4.4-.522a7.461,7.461,0,0,0,3.316.72c1.892,0,3.731-.774,3.731-2.827,0-1.837-1.406-2.3-3.1-2.593-1.316-.234-2.577-.234-2.577-1.242,0-.792.793-1.134,1.928-1.134a6.739,6.739,0,0,1,3.244.864v-1.621a7.183,7.183,0,0,0-3.172-.7c-2.055,0-3.622.882-3.64,2.719,0,1.747,1.334,2.251,3.028,2.539,1.37.234,2.649.252,2.649,1.314,0,.864-.793,1.224-2.018,1.224a6.489,6.489,0,0,1-3.388-.954Zm13.354-3.907a4.686,4.686,0,1,0,4.686-4.628A4.563,4.563,0,0,0,193.683,112.6Zm1.622,0a3.065,3.065,0,1,1,3.064,3.151A3.037,3.037,0,0,1,195.3,112.6Zm10.615,4.43h1.622v-7.4h2.271v-1.459h-2.271V106.24c0-.936.2-1.693,1.316-1.693a6.055,6.055,0,0,1,1.262.162v-1.459a5.182,5.182,0,0,0-1.334-.18,2.912,2.912,0,0,0-2.073.738,3.513,3.513,0,0,0-.793,2.665v1.693h-1.406v1.459h1.406Zm11.822-.63a2.577,2.577,0,0,0,2.018.828,3.948,3.948,0,0,0,1.6-.324v-1.531a2.686,2.686,0,0,1-1.334.378c-1.171,0-1.334-1.008-1.334-2.107v-4.015h2.667v-1.459H218.7v-2.683l-1.622.27v2.413h-1.64v1.459h1.64v4.322A3.493,3.493,0,0,0,217.742,116.4Zm7.966.63h1.622l1.388-3.8c.306-.81.613-1.711.865-2.485h.036c.252.774.559,1.675.865,2.485l1.388,3.8h1.6l3.082-8.859h-1.694l-1.316,3.961c-.306.918-.595,1.819-.865,2.719h-.036c-.306-.9-.631-1.819-.973-2.737l-1.46-3.943H229.06l-1.46,3.943c-.324.882-.667,1.837-.973,2.737h-.036c-.288-.918-.577-1.819-.883-2.737l-1.316-3.943h-1.766Zm11.876-4.43a4.686,4.686,0,1,0,4.686-4.628A4.563,4.563,0,0,0,237.584,112.6Zm1.622,0a3.065,3.065,0,1,1,3.064,3.151A3.037,3.037,0,0,1,239.206,112.6ZM1.423,147.036H3.045v-4.79l.036-.018,4.343,4.808H9.551l-4.487-4.9,4.055-3.961H7.046l-3.965,3.907-.036-.018v-8.787H1.423Zm9.7,0h1.622v-6.068a3.734,3.734,0,0,1,2.775-1.477,1.839,1.839,0,0,1,1.424.576,2.744,2.744,0,0,1,.415,1.8v5.168h1.622v-5.474a3.586,3.586,0,0,0-.739-2.611,3.068,3.068,0,0,0-2.361-.972,4.4,4.4,0,0,0-3.1,1.332l-.036-.018v-1.116H11.119Zm10.237-4.43a4.686,4.686,0,1,0,4.686-4.628A4.563,4.563,0,0,0,21.356,142.607Zm1.622,0a3.065,3.065,0,1,1,3.064,3.151A3.037,3.037,0,0,1,22.978,142.607Zm11.858,4.43h1.622l1.388-3.8c.306-.81.613-1.711.865-2.485h.036c.252.774.559,1.675.865,2.485l1.388,3.8h1.6l3.082-8.859H43.992l-1.316,3.961c-.306.918-.595,1.819-.865,2.719h-.036c-.306-.9-.631-1.819-.973-2.737l-1.46-3.943H38.188l-1.46,3.943c-.324.882-.667,1.837-.973,2.737h-.036c-.288-.918-.577-1.819-.883-2.737l-1.316-3.943H31.755Zm12.922,0H49.38v-6.068a3.734,3.734,0,0,1,2.775-1.477,1.839,1.839,0,0,1,1.424.576,2.744,2.744,0,0,1,.415,1.8v5.168h1.622v-5.474a3.586,3.586,0,0,0-.739-2.611,3.068,3.068,0,0,0-2.361-.972,4.4,4.4,0,0,0-3.1,1.332l-.036-.018v-1.116H47.758Zm15.139-.522a7.461,7.461,0,0,0,3.316.72c1.892,0,3.731-.774,3.731-2.827,0-1.837-1.406-2.3-3.1-2.593-1.316-.234-2.577-.234-2.577-1.242,0-.792.793-1.134,1.928-1.134a6.739,6.739,0,0,1,3.244.864v-1.621a7.183,7.183,0,0,0-3.172-.7c-2.055,0-3.622.882-3.64,2.719,0,1.747,1.334,2.251,3.028,2.539,1.37.234,2.649.252,2.649,1.314,0,.864-.793,1.224-2.018,1.224a6.489,6.489,0,0,1-3.388-.954Zm10.11-.27a3.171,3.171,0,0,0,2.415.99,4.347,4.347,0,0,0,3.064-1.332l.036.018v1.116h1.622v-8.859H78.522v6.05a3.792,3.792,0,0,1-2.775,1.513,1.73,1.73,0,0,1-1.406-.612,2.677,2.677,0,0,1-.433-1.837v-5.114H72.286v5.42A3.845,3.845,0,0,0,73.007,146.244Zm10.164.792,1.568-.27a5.8,5.8,0,0,0,2.217.468,4.586,4.586,0,0,0,4.7-4.754,4.291,4.291,0,0,0-4.325-4.5,4.7,4.7,0,0,0-2.505.72l-.036-.018v-5.4H83.171Zm1.622-1.8v-4.97a3.657,3.657,0,0,1,2.343-.828,2.89,2.89,0,0,1,2.884,3.133,3.008,3.008,0,0,1-3.01,3.241A4.769,4.769,0,0,1,84.793,145.236Zm9.029,1.278a7.461,7.461,0,0,0,3.316.72c1.892,0,3.731-.774,3.731-2.827,0-1.837-1.406-2.3-3.1-2.593-1.316-.234-2.577-.234-2.577-1.242,0-.792.793-1.134,1.928-1.134a6.739,6.739,0,0,1,3.244.864v-1.621a7.183,7.183,0,0,0-3.172-.7c-2.055,0-3.622.882-3.64,2.719,0,1.747,1.334,2.251,3.028,2.539,1.37.234,2.649.252,2.649,1.314,0,.864-.793,1.224-2.018,1.224a6.489,6.489,0,0,1-3.388-.954Zm10.777-.108a2.577,2.577,0,0,0,2.018.828,3.947,3.947,0,0,0,1.6-.324V145.38a2.686,2.686,0,0,1-1.334.378c-1.171,0-1.334-1.008-1.334-2.107v-4.015h2.667v-1.459h-2.667v-2.683l-1.622.27v2.413h-1.64v1.459h1.64v4.322A3.493,3.493,0,0,0,104.6,146.406Zm8.29.828a4.21,4.21,0,0,0,2.721-.972h.036a1.885,1.885,0,0,0,1.712.936,2.313,2.313,0,0,0,.865-.162v-1.35a1.242,1.242,0,0,1-.523.126c-.487,0-.685-.4-.685-.936v-3.763a2.984,2.984,0,0,0-.883-2.323,3.857,3.857,0,0,0-2.649-.81,5.585,5.585,0,0,0-2.956.756v1.585a4.626,4.626,0,0,1,2.721-.882,2.407,2.407,0,0,1,1.64.486,1.914,1.914,0,0,1,.5,1.458v.738a7.777,7.777,0,0,0-1.892-.234,4.633,4.633,0,0,0-2.487.594,2.461,2.461,0,0,0-1.171,2.161,2.359,2.359,0,0,0,.937,1.963A3.541,3.541,0,0,0,112.89,147.234Zm.288-1.441c-.955,0-1.694-.432-1.694-1.3,0-1.044,1.081-1.368,2.181-1.368a6.691,6.691,0,0,1,1.73.234v1.657A3.7,3.7,0,0,1,113.178,145.794Zm7.029,1.242h1.622v-6.068a3.734,3.734,0,0,1,2.775-1.477,1.839,1.839,0,0,1,1.424.576,2.744,2.744,0,0,1,.415,1.8v5.168h1.622v-5.474a3.586,3.586,0,0,0-.739-2.611,3.068,3.068,0,0,0-2.361-.972,4.4,4.4,0,0,0-3.1,1.332l-.036-.018v-1.116h-1.622Zm17.7-2.143a4.131,4.131,0,0,1-2.559.864,3.053,3.053,0,0,1-3.262-3.1,3.1,3.1,0,0,1,3.208-3.205,4.678,4.678,0,0,1,2.469.756v-1.675a5.349,5.349,0,0,0-2.4-.558,4.687,4.687,0,0,0-4.92,4.682,4.542,4.542,0,0,0,4.812,4.574,5.733,5.733,0,0,0,2.649-.612Zm10.273-1.819a5.552,5.552,0,0,0,.054-.81,3.966,3.966,0,0,0-4.037-4.285,4.417,4.417,0,0,0-4.415,4.628,4.517,4.517,0,0,0,4.794,4.628,6.282,6.282,0,0,0,3.172-.828v-1.729a5.056,5.056,0,0,1-3.064,1.1,3.038,3.038,0,0,1-3.28-2.7Zm-4.019-3.637a2.4,2.4,0,0,1,2.505,2.359h-5.226A2.708,2.708,0,0,1,144.158,139.438Zm6.308,7.076a7.461,7.461,0,0,0,3.316.72c1.892,0,3.731-.774,3.731-2.827,0-1.837-1.406-2.3-3.1-2.593-1.316-.234-2.577-.234-2.577-1.242,0-.792.793-1.134,1.928-1.134a6.739,6.739,0,0,1,3.244.864v-1.621a7.183,7.183,0,0,0-3.172-.7c-2.055,0-3.622.882-3.64,2.719,0,1.747,1.334,2.251,3.028,2.539,1.37.234,2.649.252,2.649,1.314,0,.864-.793,1.224-2.018,1.224a6.489,6.489,0,0,1-3.388-.954Zm13.967.522h1.622v-5.762a2.9,2.9,0,0,1,2.613-1.567,2.61,2.61,0,0,1,.631.072v-1.6a2.2,2.2,0,0,0-.577-.072,3.233,3.233,0,0,0-2.631,1.386l-.036-.018v-1.3h-1.622Zm14.364-3.961a5.552,5.552,0,0,0,.054-.81,3.966,3.966,0,0,0-4.037-4.285,4.417,4.417,0,0,0-4.415,4.628,4.517,4.517,0,0,0,4.794,4.628,6.281,6.281,0,0,0,3.172-.828v-1.729a5.056,5.056,0,0,1-3.064,1.1,3.037,3.037,0,0,1-3.28-2.7Zm-4.019-3.637a2.4,2.4,0,0,1,2.505,2.359h-5.226A2.708,2.708,0,0,1,174.777,139.438Zm6.56,7.6h1.622V133.279h-1.622Zm7.1.2a4.21,4.21,0,0,0,2.721-.972h.036a1.885,1.885,0,0,0,1.712.936,2.313,2.313,0,0,0,.865-.162v-1.35a1.242,1.242,0,0,1-.523.126c-.487,0-.685-.4-.685-.936v-3.763a2.984,2.984,0,0,0-.883-2.323,3.857,3.857,0,0,0-2.649-.81,5.585,5.585,0,0,0-2.956.756v1.585a4.626,4.626,0,0,1,2.721-.882,2.407,2.407,0,0,1,1.64.486,1.914,1.914,0,0,1,.5,1.458v.738a7.777,7.777,0,0,0-1.892-.234,4.633,4.633,0,0,0-2.487.594,2.461,2.461,0,0,0-1.171,2.161,2.359,2.359,0,0,0,.937,1.963A3.541,3.541,0,0,0,188.438,147.234Zm.288-1.441c-.955,0-1.694-.432-1.694-1.3,0-1.044,1.081-1.368,2.181-1.368a6.691,6.691,0,0,1,1.73.234v1.657A3.7,3.7,0,0,1,188.726,145.794Zm8.38.612a2.577,2.577,0,0,0,2.018.828,3.947,3.947,0,0,0,1.6-.324V145.38a2.686,2.686,0,0,1-1.334.378c-1.171,0-1.334-1.008-1.334-2.107v-4.015h2.667v-1.459h-2.667v-2.683l-1.622.27v2.413H194.8v1.459h1.64v4.322A3.493,3.493,0,0,0,197.107,146.406Zm13.408-3.331a5.552,5.552,0,0,0,.054-.81,3.966,3.966,0,0,0-4.037-4.285,4.417,4.417,0,0,0-4.415,4.628,4.517,4.517,0,0,0,4.794,4.628,6.282,6.282,0,0,0,3.172-.828v-1.729a5.056,5.056,0,0,1-3.064,1.1,3.038,3.038,0,0,1-3.28-2.7Zm-4.019-3.637A2.4,2.4,0,0,1,209,141.8h-5.226A2.708,2.708,0,0,1,206.5,139.438Zm5.983,3.313a4.373,4.373,0,0,0,6.83,3.727l.036.018v.54h1.622V133.279h-1.622v5.15l-.036.018a5.088,5.088,0,0,0-2.127-.468A4.57,4.57,0,0,0,212.48,142.751Zm1.64-.09a3.015,3.015,0,0,1,3.046-3.241,4.943,4.943,0,0,1,2.181.558v5.06a4.1,4.1,0,0,1-2.307.756A2.887,2.887,0,0,1,214.12,142.661Zm15.769,3.745a2.576,2.576,0,0,0,2.018.828,3.947,3.947,0,0,0,1.6-.324V145.38a2.686,2.686,0,0,1-1.334.378c-1.171,0-1.334-1.008-1.334-2.107v-4.015h2.667v-1.459h-2.667v-2.683l-1.622.27v2.413h-1.64v1.459h1.64v4.322A3.493,3.493,0,0,0,229.889,146.406Zm5.01-3.8a4.686,4.686,0,1,0,4.686-4.628A4.563,4.563,0,0,0,234.9,142.607Zm1.622,0a3.065,3.065,0,1,1,3.064,3.151A3.037,3.037,0,0,1,236.521,142.607Zm13.372,4.43h1.748l1.478-3.637h5.875l1.46,3.637h1.838L256.9,134h-1.64Zm4.884-7.779c.451-1.116.883-2.215,1.28-3.277h.036c.4,1.062.829,2.179,1.244,3.223l1.063,2.7h-4.686Zm9.245,7.779H271.9v-1.549h-6.164V134h-1.712Zm10.038,0h1.712v-5.15h1.352a8.486,8.486,0,0,0,4.325-.738,3.674,3.674,0,0,0,1.766-3.241,3.51,3.51,0,0,0-1.892-3.223,7.814,7.814,0,0,0-3.857-.684h-3.406Zm1.712-6.644v-4.844h1.55a6.676,6.676,0,0,1,2.974.414,2.293,2.293,0,0,1,.162,3.943,5.94,5.94,0,0,1-3.118.486ZM3.874,177.245a4.21,4.21,0,0,0,2.721-.972h.036a1.885,1.885,0,0,0,1.712.936,2.313,2.313,0,0,0,.865-.162V175.7a1.242,1.242,0,0,1-.523.126c-.487,0-.685-.4-.685-.936v-3.763a2.984,2.984,0,0,0-.883-2.323,3.857,3.857,0,0,0-2.649-.81,5.585,5.585,0,0,0-2.956.756v1.585a4.626,4.626,0,0,1,2.721-.882,2.407,2.407,0,0,1,1.64.486,1.914,1.914,0,0,1,.5,1.459v.738a7.777,7.777,0,0,0-1.892-.234A4.632,4.632,0,0,0,2,172.491a2.461,2.461,0,0,0-1.171,2.161,2.359,2.359,0,0,0,.937,1.963A3.541,3.541,0,0,0,3.874,177.245Zm.288-1.441c-.955,0-1.694-.432-1.694-1.3,0-1.044,1.081-1.368,2.181-1.368a6.692,6.692,0,0,1,1.73.234v1.657A3.7,3.7,0,0,1,4.163,175.8Zm13.877-.9a4.131,4.131,0,0,1-2.559.864,3.053,3.053,0,0,1-3.262-3.1,3.1,3.1,0,0,1,3.208-3.205,4.678,4.678,0,0,1,2.469.756v-1.675a5.349,5.349,0,0,0-2.4-.558,4.687,4.687,0,0,0-4.92,4.682,4.542,4.542,0,0,0,4.812,4.574,5.733,5.733,0,0,0,2.649-.612Zm3.875,1.513a2.576,2.576,0,0,0,2.018.828,3.947,3.947,0,0,0,1.6-.324V175.39a2.686,2.686,0,0,1-1.334.378c-1.171,0-1.334-1.008-1.334-2.107v-4.015h2.667v-1.459H22.87V165.5l-1.622.27v2.413h-1.64v1.459h1.64v4.321A3.493,3.493,0,0,0,21.915,176.416Zm5.515-11.272a1.135,1.135,0,1,0,1.135-1.134A1.13,1.13,0,0,0,27.429,165.145Zm.324,11.9h1.622v-8.859H27.754Zm7.353,0h1.622l3.713-8.859H38.747l-1.6,3.889c-.415,1.008-.793,1.945-1.189,2.953h-.036c-.378-.972-.739-1.873-1.135-2.845l-1.64-4H31.376Zm7.011-11.9a1.135,1.135,0,1,0,1.135-1.134A1.13,1.13,0,0,0,42.117,165.145Zm.324,11.9h1.622v-8.859H42.442Zm6-.63a2.576,2.576,0,0,0,2.018.828,3.947,3.947,0,0,0,1.6-.324V175.39a2.686,2.686,0,0,1-1.334.378c-1.171,0-1.334-1.008-1.334-2.107v-4.015h2.667v-1.459H49.4V165.5l-1.622.27v2.413h-1.64v1.459h1.64v4.321A3.493,3.493,0,0,0,48.443,176.416Zm7.876,4.592,6-12.82H60.608l-1.55,3.349c-.415.9-.811,1.783-1.207,2.665h-.036c-.36-.81-.793-1.765-1.207-2.665l-1.55-3.349h-1.8l3.695,7.9-2.4,4.916Zm15.048-3.763a4.21,4.21,0,0,0,2.721-.972h.036a1.885,1.885,0,0,0,1.712.936,2.313,2.313,0,0,0,.865-.162V175.7a1.242,1.242,0,0,1-.523.126c-.487,0-.685-.4-.685-.936v-3.763a2.984,2.984,0,0,0-.883-2.323,3.857,3.857,0,0,0-2.649-.81,5.585,5.585,0,0,0-2.956.756v1.585a4.626,4.626,0,0,1,2.721-.882,2.407,2.407,0,0,1,1.64.486,1.914,1.914,0,0,1,.5,1.459v.738a7.777,7.777,0,0,0-1.892-.234,4.632,4.632,0,0,0-2.487.594,2.461,2.461,0,0,0-1.171,2.161,2.359,2.359,0,0,0,.937,1.963A3.541,3.541,0,0,0,71.367,177.245Zm.288-1.441c-.955,0-1.694-.432-1.694-1.3,0-1.044,1.081-1.368,2.181-1.368a6.692,6.692,0,0,1,1.73.234v1.657A3.7,3.7,0,0,1,71.655,175.8Zm8.38.612a2.576,2.576,0,0,0,2.018.828,3.947,3.947,0,0,0,1.6-.324V175.39a2.686,2.686,0,0,1-1.334.378c-1.171,0-1.334-1.008-1.334-2.107v-4.015h2.667v-1.459H80.991V165.5l-1.622.27v2.413h-1.64v1.459h1.64v4.321A3.493,3.493,0,0,0,80.036,176.416ZM94.417,164.01l-2.92,4.7c-1.171,1.891-1.586,3.007-1.586,4.231a4.44,4.44,0,0,0,8.867.18,3.87,3.87,0,0,0-3.965-3.943,3.365,3.365,0,0,0-1.982.576l-.036-.018c.126-.234.306-.522.487-.792l3.1-4.934ZM91.642,173.1a2.593,2.593,0,0,1,2.757-2.485,2.554,2.554,0,0,1,2.685,2.557,2.583,2.583,0,0,1-2.721,2.557A2.664,2.664,0,0,1,91.642,173.1Zm26.492,3.943h1.622v-5.528a3.6,3.6,0,0,0-.739-2.593,3.027,3.027,0,0,0-2.325-.936,4.807,4.807,0,0,0-3.37,1.531,2.933,2.933,0,0,0-2.721-1.531,4.271,4.271,0,0,0-3.01,1.3l-.036-.018v-1.08h-1.622v8.859h1.622v-6.158a3.761,3.761,0,0,1,2.7-1.386,1.71,1.71,0,0,1,1.352.558,2.446,2.446,0,0,1,.415,1.747v5.24h1.622v-5.528c0-.216,0-.432-.018-.63a3.862,3.862,0,0,1,2.7-1.386,1.781,1.781,0,0,1,1.352.54,2.594,2.594,0,0,1,.451,1.765Zm4-4.43a4.686,4.686,0,1,0,4.686-4.628A4.563,4.563,0,0,0,122.135,172.617Zm1.622,0a3.065,3.065,0,1,1,3.064,3.151A3.037,3.037,0,0,1,123.757,172.617Zm10.164,4.43h1.622v-6.068a3.734,3.734,0,0,1,2.775-1.477,1.839,1.839,0,0,1,1.424.576,2.744,2.744,0,0,1,.415,1.8v5.168h1.622v-5.474a3.586,3.586,0,0,0-.739-2.611,3.068,3.068,0,0,0-2.361-.972,4.4,4.4,0,0,0-3.1,1.332l-.036-.018v-1.116h-1.622Zm12.2-.63a2.576,2.576,0,0,0,2.018.828,3.947,3.947,0,0,0,1.6-.324V175.39a2.686,2.686,0,0,1-1.334.378c-1.171,0-1.334-1.008-1.334-2.107v-4.015h2.667v-1.459h-2.667V165.5l-1.622.27v2.413h-1.64v1.459h1.64v4.321A3.493,3.493,0,0,0,146.122,176.416Zm5.839.63h1.622v-6.068a3.871,3.871,0,0,1,2.829-1.477,1.685,1.685,0,0,1,1.352.576,2.507,2.507,0,0,1,.433,1.8v5.168h1.622v-5.474a3.586,3.586,0,0,0-.739-2.611,3.068,3.068,0,0,0-2.361-.972,4.4,4.4,0,0,0-3.1,1.332l-.036-.018V163.29h-1.622Zm10.6-.522a7.461,7.461,0,0,0,3.316.72c1.892,0,3.731-.774,3.731-2.827,0-1.837-1.406-2.3-3.1-2.593-1.316-.234-2.577-.234-2.577-1.242,0-.792.793-1.134,1.928-1.134a6.739,6.739,0,0,1,3.244.864v-1.621a7.183,7.183,0,0,0-3.172-.7c-2.055,0-3.622.882-3.64,2.719,0,1.747,1.334,2.251,3.028,2.539,1.37.234,2.649.252,2.649,1.314,0,.864-.793,1.224-2.018,1.224a6.489,6.489,0,0,1-3.388-.954Zm10.651-6.194a1.17,1.17,0,1,0-1.171-1.17A1.169,1.169,0,0,0,173.21,170.33Zm-1.171,5.744a1.171,1.171,0,1,0,1.171-1.17A1.169,1.169,0,0,0,172.038,176.074Zm10,.972h1.712V171.9H185.1a8.486,8.486,0,0,0,4.325-.738,3.674,3.674,0,0,0,1.766-3.241,3.51,3.51,0,0,0-1.892-3.223,7.814,7.814,0,0,0-3.857-.684H182.04Zm1.712-6.644v-4.844h1.55a6.676,6.676,0,0,1,2.974.414,2.293,2.293,0,0,1,.162,3.943,5.94,5.94,0,0,1-3.118.486Zm9.678,6.644h1.712V171.9h1.352a8.486,8.486,0,0,0,4.325-.738,3.674,3.674,0,0,0,1.766-3.241,3.51,3.51,0,0,0-1.892-3.223,7.814,7.814,0,0,0-3.857-.684H193.43Zm1.712-6.644v-4.844h1.55a6.676,6.676,0,0,1,2.974.414,2.293,2.293,0,0,1,.162,3.943,5.94,5.94,0,0,1-3.118.486Zm9.317-5.258a1.135,1.135,0,1,0,1.135-1.134A1.13,1.13,0,0,0,204.46,165.145Zm.324,11.9h1.622v-8.859h-1.622Zm11.642.2a4.21,4.21,0,0,0,2.721-.972h.036a1.885,1.885,0,0,0,1.712.936,2.313,2.313,0,0,0,.865-.162V175.7a1.242,1.242,0,0,1-.523.126c-.487,0-.685-.4-.685-.936v-3.763a2.984,2.984,0,0,0-.883-2.323,3.857,3.857,0,0,0-2.649-.81,5.585,5.585,0,0,0-2.956.756v1.585a4.626,4.626,0,0,1,2.721-.882,2.407,2.407,0,0,1,1.64.486,1.914,1.914,0,0,1,.5,1.459v.738a7.777,7.777,0,0,0-1.892-.234,4.632,4.632,0,0,0-2.487.594,2.461,2.461,0,0,0-1.171,2.161,2.359,2.359,0,0,0,.937,1.963A3.541,3.541,0,0,0,216.426,177.245Zm.288-1.441c-.955,0-1.694-.432-1.694-1.3,0-1.044,1.081-1.368,2.181-1.368a6.692,6.692,0,0,1,1.73.234v1.657A3.7,3.7,0,0,1,216.715,175.8Zm7.029,1.242h1.622v-6.068a3.734,3.734,0,0,1,2.775-1.477,1.839,1.839,0,0,1,1.424.576,2.744,2.744,0,0,1,.415,1.8v5.168H231.6v-5.474a3.586,3.586,0,0,0-.739-2.611,3.068,3.068,0,0,0-2.361-.972,4.4,4.4,0,0,0-3.1,1.332l-.036-.018v-1.116h-1.622Zm10.273-4.285a4.373,4.373,0,0,0,6.83,3.727l.036.018v.54H242.5V163.29h-1.622v5.15l-.036.018a5.088,5.088,0,0,0-2.127-.468A4.57,4.57,0,0,0,234.016,172.761Zm1.64-.09a3.015,3.015,0,0,1,3.046-3.241,4.943,4.943,0,0,1,2.181.558v5.06a4.1,4.1,0,0,1-2.307.756A2.887,2.887,0,0,1,235.656,172.671Zm14.454,4.376h1.712V171.9h1.352a8.486,8.486,0,0,0,4.325-.738,3.674,3.674,0,0,0,1.766-3.241,3.51,3.51,0,0,0-1.892-3.223,7.814,7.814,0,0,0-3.857-.684H250.11Zm1.712-6.644v-4.844h1.55a6.675,6.675,0,0,1,2.974.414,2.293,2.293,0,0,1,.162,3.943,5.94,5.94,0,0,1-3.118.486Zm9.678,6.644h7.876V175.5h-6.164V164.01H261.5Zm10.038,0h1.712V171.9H274.6a8.486,8.486,0,0,0,4.325-.738,3.674,3.674,0,0,0,1.766-3.241,3.51,3.51,0,0,0-1.892-3.223,7.815,7.815,0,0,0-3.857-.684h-3.406Zm1.712-6.644v-4.844h1.55a6.676,6.676,0,0,1,2.974.414,2.293,2.293,0,0,1,.162,3.943,5.94,5.94,0,0,1-3.118.486Zm7.227,5.654a1.189,1.189,0,1,0,1.189-1.188A1.2,1.2,0,0,0,280.477,176.056Zm-276.206,31H6.127L8.2,200.449c.324-1.026.631-2.053.919-3.043h.036q.433,1.486.919,3.025l2.091,6.626h1.82l4.055-13.037H16.31l-2.181,7.04c-.342,1.116-.7,2.3-1.027,3.421h-.036c-.342-1.152-.685-2.251-1.045-3.4L9.8,194.021H8.542l-2.217,7.04c-.36,1.152-.721,2.3-1.045,3.421H5.244c-.324-1.116-.685-2.3-1.027-3.4l-2.181-7.058H.216Zm15.589,0h1.622v-6.068a3.871,3.871,0,0,1,2.829-1.477,1.686,1.686,0,0,1,1.352.576,2.507,2.507,0,0,1,.433,1.8v5.168h1.622v-5.474a3.586,3.586,0,0,0-.739-2.611A3.068,3.068,0,0,0,24.618,198a4.4,4.4,0,0,0-3.1,1.332l-.036-.018V193.3H19.86Zm10.525-11.9a1.135,1.135,0,1,0,1.135-1.134A1.13,1.13,0,0,0,30.385,195.155Zm.324,11.9h1.622V198.2H30.709Zm4.65,0h1.622V193.3H35.359ZM47.794,203.1a5.552,5.552,0,0,0,.054-.81A3.966,3.966,0,0,0,43.811,198a4.417,4.417,0,0,0-4.415,4.628,4.517,4.517,0,0,0,4.794,4.628,6.282,6.282,0,0,0,3.172-.828V204.7a5.056,5.056,0,0,1-3.064,1.1,3.037,3.037,0,0,1-3.28-2.7Zm-4.019-3.637a2.4,2.4,0,0,1,2.505,2.359H41.054A2.708,2.708,0,0,1,43.775,199.459Zm12.453,6.968a2.577,2.577,0,0,0,2.018.828,3.947,3.947,0,0,0,1.6-.324V205.4a2.686,2.686,0,0,1-1.334.378c-1.171,0-1.334-1.008-1.334-2.107v-4.015h2.667V198.2H57.184v-2.683l-1.622.27V198.2h-1.64v1.459h1.64v4.322A3.493,3.493,0,0,0,56.228,206.427Zm5.839.63H63.69v-6.068a3.871,3.871,0,0,1,2.829-1.477,1.686,1.686,0,0,1,1.352.576,2.507,2.507,0,0,1,.433,1.8v5.168h1.622v-5.474a3.586,3.586,0,0,0-.739-2.611A3.068,3.068,0,0,0,66.825,198a4.4,4.4,0,0,0-3.1,1.332l-.036-.018V193.3H62.068ZM80.7,203.1a5.551,5.551,0,0,0,.054-.81A3.966,3.966,0,0,0,76.72,198a4.417,4.417,0,0,0-4.415,4.628,4.517,4.517,0,0,0,4.794,4.628,6.282,6.282,0,0,0,3.172-.828V204.7a5.056,5.056,0,0,1-3.064,1.1,3.037,3.037,0,0,1-3.28-2.7Zm-4.019-3.637a2.4,2.4,0,0,1,2.505,2.359H73.962A2.708,2.708,0,0,1,76.683,199.459Zm17.95,5.456a4.131,4.131,0,0,1-2.559.864,3.053,3.053,0,0,1-3.262-3.1,3.1,3.1,0,0,1,3.208-3.205,4.678,4.678,0,0,1,2.469.756v-1.675a5.349,5.349,0,0,0-2.4-.558,4.687,4.687,0,0,0-4.92,4.682,4.542,4.542,0,0,0,4.812,4.574,5.734,5.734,0,0,0,2.649-.612Zm1.874-2.287A4.686,4.686,0,1,0,101.193,198,4.563,4.563,0,0,0,96.508,202.628Zm1.622,0a3.065,3.065,0,1,1,3.064,3.151A3.037,3.037,0,0,1,98.13,202.628Zm9.768.162h4.289v-1.44H107.9Zm8.542,4,.036-.018a5.005,5.005,0,0,0,2.181.486,4.484,4.484,0,0,0,4.632-4.664A4.32,4.32,0,0,0,119,198a4.377,4.377,0,0,0-2.523.792l-.036-.018V198.2h-1.622v12.82h1.622Zm0-1.567v-4.952a3.7,3.7,0,0,1,2.289-.81,3.006,3.006,0,0,1,2.92,3.259,2.9,2.9,0,0,1-2.956,3.115A4.883,4.883,0,0,1,116.44,205.221Zm9.281,1.837h1.622V201.3a2.9,2.9,0,0,1,2.613-1.567,2.61,2.61,0,0,1,.631.072v-1.6a2.2,2.2,0,0,0-.577-.072,3.233,3.233,0,0,0-2.631,1.386l-.036-.018v-1.3h-1.622Zm6.47-11.9a1.135,1.135,0,1,0,1.135-1.134A1.13,1.13,0,0,0,132.191,195.155Zm.324,11.9h1.622V198.2h-1.622Zm16.851,0h1.622v-5.528a3.6,3.6,0,0,0-.739-2.593,3.027,3.027,0,0,0-2.325-.936,4.807,4.807,0,0,0-3.37,1.531A2.933,2.933,0,0,0,141.833,198a4.27,4.27,0,0,0-3.01,1.3l-.036-.018V198.2h-1.622v8.859h1.622V200.9a3.761,3.761,0,0,1,2.7-1.386,1.71,1.71,0,0,1,1.352.558,2.446,2.446,0,0,1,.415,1.747v5.24h1.622v-5.528c0-.216,0-.432-.018-.63a3.862,3.862,0,0,1,2.7-1.386,1.781,1.781,0,0,1,1.352.54,2.594,2.594,0,0,1,.451,1.765Zm7.065.2a4.21,4.21,0,0,0,2.721-.972h.036a1.885,1.885,0,0,0,1.712.936,2.313,2.313,0,0,0,.865-.162v-1.35a1.242,1.242,0,0,1-.523.126c-.487,0-.685-.4-.685-.936v-3.763a2.984,2.984,0,0,0-.883-2.323,3.857,3.857,0,0,0-2.649-.81,5.585,5.585,0,0,0-2.956.756v1.585a4.626,4.626,0,0,1,2.721-.882,2.407,2.407,0,0,1,1.64.486,1.914,1.914,0,0,1,.5,1.459v.738a7.776,7.776,0,0,0-1.892-.234,4.633,4.633,0,0,0-2.487.594,2.461,2.461,0,0,0-1.171,2.161,2.359,2.359,0,0,0,.937,1.963A3.541,3.541,0,0,0,156.431,207.255Zm.288-1.441c-.955,0-1.694-.432-1.694-1.3,0-1.044,1.081-1.368,2.181-1.368a6.692,6.692,0,0,1,1.73.234v1.657A3.7,3.7,0,0,1,156.719,205.815Zm7.029,1.242h1.622V201.3a2.9,2.9,0,0,1,2.613-1.567,2.61,2.61,0,0,1,.631.072v-1.6a2.2,2.2,0,0,0-.577-.072,3.233,3.233,0,0,0-2.631,1.386l-.036-.018v-1.3h-1.622Zm8.921,3.961,6-12.82h-1.712l-1.55,3.349c-.415.9-.811,1.783-1.207,2.665h-.036c-.36-.81-.793-1.765-1.207-2.665l-1.55-3.349h-1.8l3.695,7.9-2.4,4.916Zm20.383-7.923a5.552,5.552,0,0,0,.054-.81A3.966,3.966,0,0,0,189.069,198a4.417,4.417,0,0,0-4.415,4.628,4.517,4.517,0,0,0,4.794,4.628,6.282,6.282,0,0,0,3.172-.828V204.7a5.056,5.056,0,0,1-3.064,1.1,3.038,3.038,0,0,1-3.28-2.7Zm-4.019-3.637a2.4,2.4,0,0,1,2.505,2.359h-5.226A2.708,2.708,0,0,1,189.033,199.459Zm6.56,7.6h1.622v-6.068a3.734,3.734,0,0,1,2.775-1.477,1.839,1.839,0,0,1,1.424.576,2.744,2.744,0,0,1,.415,1.8v5.168h1.622v-5.474a3.586,3.586,0,0,0-.739-2.611,3.068,3.068,0,0,0-2.361-.972,4.4,4.4,0,0,0-3.1,1.332l-.036-.018V198.2h-1.622Zm10.273-4.285a4.373,4.373,0,0,0,6.83,3.727l.036.018v.54h1.622V193.3h-1.622v5.15l-.036.018a5.088,5.088,0,0,0-2.127-.468A4.57,4.57,0,0,0,205.865,202.772Zm1.64-.09a3.015,3.015,0,0,1,3.046-3.241,4.943,4.943,0,0,1,2.181.558v5.06a4.1,4.1,0,0,1-2.307.756A2.887,2.887,0,0,1,207.505,202.682Zm11.5,4.105.036-.018a5.005,5.005,0,0,0,2.181.486,4.484,4.484,0,0,0,4.632-4.664A4.32,4.32,0,0,0,221.563,198a4.377,4.377,0,0,0-2.523.792l-.036-.018V198.2h-1.622v12.82H219Zm0-1.567v-4.952a3.7,3.7,0,0,1,2.289-.81,3.006,3.006,0,0,1,2.92,3.259,2.9,2.9,0,0,1-2.956,3.115A4.883,4.883,0,0,1,219,205.221Zm8.669-2.593A4.686,4.686,0,1,0,232.358,198,4.563,4.563,0,0,0,227.672,202.628Zm1.622,0a3.065,3.065,0,1,1,3.064,3.151A3.037,3.037,0,0,1,229.294,202.628Zm9.84-7.473a1.135,1.135,0,1,0,1.135-1.134A1.13,1.13,0,0,0,239.134,195.155Zm.324,11.9h1.622V198.2h-1.622Zm4.65,0h1.622v-6.068a3.734,3.734,0,0,1,2.775-1.477,1.839,1.839,0,0,1,1.424.576,2.744,2.744,0,0,1,.415,1.8v5.168h1.622v-5.474a3.586,3.586,0,0,0-.739-2.611,3.068,3.068,0,0,0-2.361-.972,4.4,4.4,0,0,0-3.1,1.332l-.036-.018V198.2h-1.622Zm12.2-.63a2.577,2.577,0,0,0,2.018.828,3.947,3.947,0,0,0,1.6-.324V205.4a2.686,2.686,0,0,1-1.334.378c-1.171,0-1.334-1.008-1.334-2.107v-4.015h2.667V198.2h-2.667v-2.683l-1.622.27V198.2H254v1.459h1.64v4.322A3.493,3.493,0,0,0,256.309,206.427ZM3.55,237.068H5.172l1.388-3.8c.306-.81.613-1.711.865-2.485h.036c.252.774.559,1.675.865,2.485l1.388,3.8h1.6l3.082-8.859H12.705L11.39,232.17c-.306.918-.595,1.819-.865,2.719h-.036c-.306-.9-.631-1.819-.973-2.737l-1.46-3.943H6.9l-1.46,3.943c-.324.882-.667,1.837-.973,2.737H4.433c-.288-.918-.577-1.819-.883-2.737l-1.316-3.943H.468Zm14.958.2a4.21,4.21,0,0,0,2.721-.972h.036a1.885,1.885,0,0,0,1.712.936,2.313,2.313,0,0,0,.865-.162v-1.35a1.242,1.242,0,0,1-.523.126c-.487,0-.685-.4-.685-.936v-3.763a2.984,2.984,0,0,0-.883-2.323,3.857,3.857,0,0,0-2.649-.81,5.585,5.585,0,0,0-2.956.756v1.585a4.626,4.626,0,0,1,2.721-.882,2.407,2.407,0,0,1,1.64.486,1.914,1.914,0,0,1,.5,1.458v.738a7.777,7.777,0,0,0-1.892-.234,4.632,4.632,0,0,0-2.487.594,2.461,2.461,0,0,0-1.171,2.161,2.359,2.359,0,0,0,.937,1.963A3.541,3.541,0,0,0,18.508,237.266Zm.288-1.441c-.955,0-1.694-.432-1.694-1.3,0-1.044,1.081-1.368,2.181-1.368a6.692,6.692,0,0,1,1.73.234v1.657A3.7,3.7,0,0,1,18.8,235.825Zm6.776.72a7.461,7.461,0,0,0,3.316.72c1.892,0,3.731-.774,3.731-2.827,0-1.837-1.406-2.3-3.1-2.593-1.316-.234-2.577-.234-2.577-1.242,0-.792.793-1.134,1.928-1.134a6.739,6.739,0,0,1,3.244.864v-1.621a7.183,7.183,0,0,0-3.172-.7c-2.055,0-3.622.882-3.64,2.719,0,1.747,1.334,2.251,3.028,2.539,1.37.234,2.649.252,2.649,1.314,0,.864-.793,1.224-2.018,1.224a6.489,6.489,0,0,1-3.388-.954Zm13.967.522h1.622V231a3.734,3.734,0,0,1,2.775-1.477,1.839,1.839,0,0,1,1.424.576,2.744,2.744,0,0,1,.415,1.8v5.168H47.4v-5.474a3.586,3.586,0,0,0-.739-2.611,3.068,3.068,0,0,0-2.361-.972,4.4,4.4,0,0,0-3.1,1.332l-.036-.018v-1.116H39.54Zm10.237-4.43a4.686,4.686,0,1,0,4.686-4.628A4.563,4.563,0,0,0,49.777,232.638Zm1.622,0a3.065,3.065,0,1,1,3.064,3.151A3.037,3.037,0,0,1,51.4,232.638Zm11.516,3.8a2.577,2.577,0,0,0,2.018.828,3.947,3.947,0,0,0,1.6-.324v-1.531a2.686,2.686,0,0,1-1.334.378c-1.171,0-1.334-1.008-1.334-2.107v-4.015h2.667v-1.459H63.87v-2.683l-1.622.27v2.413h-1.64v1.459h1.64v4.322A3.493,3.493,0,0,0,62.915,236.437Zm10.128.108a7.461,7.461,0,0,0,3.316.72c1.892,0,3.731-.774,3.731-2.827,0-1.837-1.406-2.3-3.1-2.593-1.316-.234-2.577-.234-2.577-1.242,0-.792.793-1.134,1.928-1.134a6.739,6.739,0,0,1,3.244.864v-1.621a7.183,7.183,0,0,0-3.172-.7c-2.055,0-3.622.882-3.64,2.719,0,1.747,1.334,2.251,3.028,2.539,1.37.234,2.649.252,2.649,1.314,0,.864-.793,1.224-2.018,1.224a6.489,6.489,0,0,1-3.388-.954Zm9.1-11.38a1.135,1.135,0,1,0,1.135-1.134A1.13,1.13,0,0,0,82.144,225.165Zm.324,11.9h1.622v-8.859H82.469Zm5.244,3.493a6.286,6.286,0,0,0,2.811.666c2.721,0,4.451-1.6,4.451-4.2v-8.787l-1.568.27a5.079,5.079,0,0,0-2.253-.5,4.448,4.448,0,0,0-4.6,4.646,4.276,4.276,0,0,0,4.343,4.43,4.39,4.39,0,0,0,2.415-.684l.036.018v.648a2.575,2.575,0,0,1-2.829,2.683,5.175,5.175,0,0,1-2.811-.918Zm.487-8.013a2.9,2.9,0,0,1,2.92-3.1,4.576,4.576,0,0,1,2.235.612v4.88a3.749,3.749,0,0,1-2.217.72A2.917,2.917,0,0,1,88.2,232.548Zm9.822,4.52h1.622V231a3.734,3.734,0,0,1,2.775-1.477,1.839,1.839,0,0,1,1.424.576,2.744,2.744,0,0,1,.415,1.8v5.168h1.622v-5.474a3.586,3.586,0,0,0-.739-2.611,3.068,3.068,0,0,0-2.361-.972,4.4,4.4,0,0,0-3.1,1.332l-.036-.018v-1.116H98.022Zm10.525-11.9a1.135,1.135,0,1,0,1.135-1.134A1.13,1.13,0,0,0,108.546,225.165Zm.324,11.9h1.622v-8.859h-1.622Zm5.1,0h1.622v-7.4h2.271v-1.459h-2.271v-1.927c0-.936.2-1.693,1.316-1.693a6.055,6.055,0,0,1,1.262.162v-1.459a5.183,5.183,0,0,0-1.334-.18,2.912,2.912,0,0,0-2.073.738,3.513,3.513,0,0,0-.793,2.665v1.693h-1.406v1.459h1.406Zm5.6-11.9a1.135,1.135,0,1,0,1.135-1.134A1.13,1.13,0,0,0,119.576,225.165Zm.324,11.9h1.622v-8.859H119.9Zm11.5-2.143a4.131,4.131,0,0,1-2.559.864,3.053,3.053,0,0,1-3.262-3.1,3.1,3.1,0,0,1,3.208-3.205,4.678,4.678,0,0,1,2.469.756v-1.675a5.349,5.349,0,0,0-2.4-.558,4.687,4.687,0,0,0-4.92,4.682,4.542,4.542,0,0,0,4.812,4.574,5.734,5.734,0,0,0,2.649-.612Zm4.974,2.341a4.21,4.21,0,0,0,2.721-.972h.036a1.885,1.885,0,0,0,1.712.936,2.313,2.313,0,0,0,.865-.162v-1.35a1.242,1.242,0,0,1-.523.126c-.487,0-.685-.4-.685-.936v-3.763a2.984,2.984,0,0,0-.883-2.323,3.857,3.857,0,0,0-2.649-.81,5.585,5.585,0,0,0-2.956.756v1.585a4.626,4.626,0,0,1,2.721-.882,2.407,2.407,0,0,1,1.64.486,1.914,1.914,0,0,1,.5,1.458v.738a7.777,7.777,0,0,0-1.892-.234,4.632,4.632,0,0,0-2.487.594,2.461,2.461,0,0,0-1.171,2.161,2.359,2.359,0,0,0,.937,1.963A3.541,3.541,0,0,0,136.372,237.266Zm.288-1.441c-.955,0-1.694-.432-1.694-1.3,0-1.044,1.081-1.368,2.181-1.368a6.692,6.692,0,0,1,1.73.234v1.657A3.7,3.7,0,0,1,136.661,235.825Zm7.029,1.242h1.622V231a3.734,3.734,0,0,1,2.775-1.477,1.839,1.839,0,0,1,1.424.576,2.744,2.744,0,0,1,.414,1.8v5.168h1.622v-5.474a3.586,3.586,0,0,0-.739-2.611,3.068,3.068,0,0,0-2.361-.972,4.4,4.4,0,0,0-3.1,1.332l-.036-.018v-1.116h-1.622Zm12.2-.63a2.577,2.577,0,0,0,2.018.828,3.947,3.947,0,0,0,1.6-.324v-1.531a2.686,2.686,0,0,1-1.334.378c-1.171,0-1.334-1.008-1.334-2.107v-4.015h2.667v-1.459h-2.667v-2.683l-1.622.27v2.413h-1.64v1.459h1.64v4.322A3.493,3.493,0,0,0,155.89,236.437Zm5.425,3.277H162.5l1.46-5.1h-1.64Zm10.11-14.549a1.135,1.135,0,1,0,1.135-1.134A1.13,1.13,0,0,0,171.425,225.165Zm.324,11.9h1.622v-8.859H171.75Zm4.65,0h1.622V231a3.734,3.734,0,0,1,2.775-1.477,1.839,1.839,0,0,1,1.424.576,2.744,2.744,0,0,1,.415,1.8v5.168h1.622v-5.474a3.586,3.586,0,0,0-.739-2.611,3.068,3.068,0,0,0-2.361-.972,4.4,4.4,0,0,0-3.1,1.332l-.036-.018v-1.116H176.4Zm10.273-4.285a4.373,4.373,0,0,0,6.83,3.727l.036.018v.54h1.622V223.311h-1.622v5.15l-.036.018a5.088,5.088,0,0,0-2.127-.468A4.57,4.57,0,0,0,186.672,232.782Zm1.64-.09a3.015,3.015,0,0,1,3.046-3.241,4.943,4.943,0,0,1,2.181.558v5.06a4.1,4.1,0,0,1-2.307.756A2.887,2.887,0,0,1,188.312,232.692Zm9.552-7.527A1.135,1.135,0,1,0,199,224.031,1.13,1.13,0,0,0,197.864,225.165Zm.324,11.9h1.622v-8.859h-1.622Zm7.353,0h1.622l3.713-8.859h-1.694l-1.6,3.889c-.415,1.008-.793,1.945-1.189,2.953h-.036c-.378-.972-.739-1.873-1.135-2.845l-1.64-4H201.81Zm7.011-11.9a1.135,1.135,0,1,0,1.135-1.134A1.13,1.13,0,0,0,212.552,225.165Zm.324,11.9H214.5v-8.859h-1.622Zm4.073-4.285a4.373,4.373,0,0,0,6.83,3.727l.036.018v.54h1.622V223.311h-1.622v5.15l-.036.018a5.088,5.088,0,0,0-2.127-.468A4.57,4.57,0,0,0,216.949,232.782Zm1.64-.09a3.015,3.015,0,0,1,3.046-3.241,4.943,4.943,0,0,1,2.181.558v5.06a4.1,4.1,0,0,1-2.307.756A2.887,2.887,0,0,1,218.589,232.692Zm10.561,3.583a3.171,3.171,0,0,0,2.415.99,4.347,4.347,0,0,0,3.064-1.332l.036.018v1.116h1.622v-8.859h-1.622v6.05a3.792,3.792,0,0,1-2.775,1.513,1.73,1.73,0,0,1-1.406-.612,2.678,2.678,0,0,1-.433-1.837v-5.114h-1.622v5.42A3.845,3.845,0,0,0,229.15,236.275Zm12.615.99a4.21,4.21,0,0,0,2.721-.972h.036a1.885,1.885,0,0,0,1.712.936,2.313,2.313,0,0,0,.865-.162v-1.35a1.242,1.242,0,0,1-.523.126c-.487,0-.685-.4-.685-.936v-3.763a2.984,2.984,0,0,0-.883-2.323,3.857,3.857,0,0,0-2.649-.81,5.585,5.585,0,0,0-2.956.756v1.585a4.626,4.626,0,0,1,2.721-.882,2.407,2.407,0,0,1,1.64.486,1.914,1.914,0,0,1,.5,1.458v.738a7.777,7.777,0,0,0-1.892-.234,4.632,4.632,0,0,0-2.487.594,2.461,2.461,0,0,0-1.171,2.161,2.359,2.359,0,0,0,.937,1.963A3.541,3.541,0,0,0,241.765,237.266Zm.288-1.441c-.955,0-1.694-.432-1.694-1.3,0-1.044,1.081-1.368,2.181-1.368a6.692,6.692,0,0,1,1.73.234v1.657A3.7,3.7,0,0,1,242.054,235.825Zm7.029,1.242H250.7V223.311h-1.622Zm4.65,0h1.622V223.311h-1.622Zm6.686,3.961,6-12.82h-1.712l-1.55,3.349c-.414.9-.811,1.783-1.207,2.665h-.036c-.36-.81-.793-1.765-1.207-2.665l-1.55-3.349h-1.8l3.695,7.9-2.4,4.916Zm5.929-1.314h1.189l1.46-5.1h-1.64ZM2.775,266.448a2.577,2.577,0,0,0,2.018.828,3.948,3.948,0,0,0,1.6-.324v-1.531a2.686,2.686,0,0,1-1.334.378c-1.171,0-1.334-1.008-1.334-2.107v-4.015H6.4v-1.458H3.73v-2.683l-1.622.27v2.413H.468v1.458h1.64V264A3.493,3.493,0,0,0,2.775,266.448Zm5.839.63h1.622V261.01a3.872,3.872,0,0,1,2.829-1.476,1.686,1.686,0,0,1,1.352.576,2.507,2.507,0,0,1,.433,1.8v5.168h1.622V261.6a3.586,3.586,0,0,0-.739-2.611,3.068,3.068,0,0,0-2.361-.972,4.4,4.4,0,0,0-3.1,1.332l-.036-.018v-6.014H8.614Zm18.635-3.961a5.552,5.552,0,0,0,.054-.81,3.966,3.966,0,0,0-4.037-4.286,4.417,4.417,0,0,0-4.415,4.628,4.517,4.517,0,0,0,4.794,4.628,6.282,6.282,0,0,0,3.172-.828v-1.729a5.056,5.056,0,0,1-3.064,1.1,3.037,3.037,0,0,1-3.28-2.7Zm-4.019-3.637a2.4,2.4,0,0,1,2.505,2.359H20.509A2.708,2.708,0,0,1,23.23,259.479Zm17.95,5.456a4.131,4.131,0,0,1-2.559.864,3.053,3.053,0,0,1-3.262-3.1,3.1,3.1,0,0,1,3.208-3.205,4.677,4.677,0,0,1,2.469.756v-1.675a5.349,5.349,0,0,0-2.4-.558,4.687,4.687,0,0,0-4.92,4.682,4.542,4.542,0,0,0,4.812,4.574,5.733,5.733,0,0,0,2.649-.612Zm2.523,2.143h1.622V261.01a3.872,3.872,0,0,1,2.829-1.476,1.686,1.686,0,0,1,1.352.576,2.507,2.507,0,0,1,.433,1.8v5.168h1.622V261.6a3.586,3.586,0,0,0-.739-2.611,3.068,3.068,0,0,0-2.361-.972,4.4,4.4,0,0,0-3.1,1.332l-.036-.018v-6.014H43.7Zm13.3.2a4.21,4.21,0,0,0,2.721-.972h.036a1.885,1.885,0,0,0,1.712.936,2.313,2.313,0,0,0,.865-.162v-1.35a1.242,1.242,0,0,1-.523.126c-.487,0-.685-.4-.685-.936v-3.763a2.984,2.984,0,0,0-.883-2.323,3.857,3.857,0,0,0-2.649-.81,5.585,5.585,0,0,0-2.956.756v1.585a4.625,4.625,0,0,1,2.721-.882,2.407,2.407,0,0,1,1.64.486,1.914,1.914,0,0,1,.5,1.458v.738a7.775,7.775,0,0,0-1.892-.234,4.632,4.632,0,0,0-2.487.594,2.461,2.461,0,0,0-1.171,2.161,2.359,2.359,0,0,0,.937,1.963A3.541,3.541,0,0,0,57,267.276Zm.288-1.44c-.955,0-1.694-.432-1.694-1.3,0-1.044,1.081-1.368,2.181-1.368a6.69,6.69,0,0,1,1.73.234v1.657A3.7,3.7,0,0,1,57.292,265.836Zm7.029,1.242h1.622V261.01a3.735,3.735,0,0,1,2.775-1.476,1.839,1.839,0,0,1,1.424.576,2.744,2.744,0,0,1,.415,1.8v5.168h1.622V261.6a3.586,3.586,0,0,0-.739-2.611,3.068,3.068,0,0,0-2.361-.972,4.4,4.4,0,0,0-3.1,1.332l-.036-.018v-1.116H64.32Zm11.444,3.493a6.286,6.286,0,0,0,2.811.666c2.721,0,4.451-1.6,4.451-4.2v-8.787l-1.568.27a5.079,5.079,0,0,0-2.253-.5,4.448,4.448,0,0,0-4.6,4.646,4.276,4.276,0,0,0,4.343,4.43,4.39,4.39,0,0,0,2.415-.684l.036.018v.648a2.575,2.575,0,0,1-2.829,2.683,5.175,5.175,0,0,1-2.811-.918Zm.487-8.013a2.9,2.9,0,0,1,2.92-3.1,4.576,4.576,0,0,1,2.235.612v4.88a3.749,3.749,0,0,1-2.217.72A2.917,2.917,0,0,1,76.251,262.559Zm17.608.558a5.553,5.553,0,0,0,.054-.81,3.966,3.966,0,0,0-4.037-4.286,4.417,4.417,0,0,0-4.415,4.628,4.517,4.517,0,0,0,4.794,4.628,6.282,6.282,0,0,0,3.172-.828v-1.729a5.056,5.056,0,0,1-3.064,1.1,3.037,3.037,0,0,1-3.28-2.7Zm-4.019-3.637a2.4,2.4,0,0,1,2.505,2.359H87.118A2.708,2.708,0,0,1,89.84,259.479Zm10.777-4.3a1.135,1.135,0,1,0,1.135-1.134A1.13,1.13,0,0,0,100.617,255.176Zm.324,11.9h1.622v-8.859h-1.622Zm4.65,0h1.622V261.01a3.735,3.735,0,0,1,2.775-1.476,1.839,1.839,0,0,1,1.424.576,2.744,2.744,0,0,1,.415,1.8v5.168h1.622V261.6a3.586,3.586,0,0,0-.739-2.611,3.068,3.068,0,0,0-2.361-.972,4.4,4.4,0,0,0-3.1,1.332l-.036-.018v-1.116h-1.622Zm15.427,0h1.712v-5.15h1.352a8.486,8.486,0,0,0,4.325-.738,3.674,3.674,0,0,0,1.766-3.241,3.51,3.51,0,0,0-1.892-3.223,7.814,7.814,0,0,0-3.857-.684h-3.406Zm1.712-6.644V255.59h1.55a6.676,6.676,0,0,1,2.974.414,2.293,2.293,0,0,1,.162,3.943,5.94,5.94,0,0,1-3.118.486Zm9.678,6.644h7.876V265.53H134.12V254.042h-1.712Zm10.038,0h1.712v-5.15h1.352a8.486,8.486,0,0,0,4.325-.738,3.674,3.674,0,0,0,1.766-3.241,3.51,3.51,0,0,0-1.892-3.223,7.814,7.814,0,0,0-3.857-.684h-3.406Zm1.712-6.644V255.59h1.55a6.676,6.676,0,0,1,2.974.414,2.293,2.293,0,0,1,.162,3.943,5.94,5.94,0,0,1-3.118.486Zm14.183,6.644h1.622V253.321h-1.622Zm12.435-3.961a5.553,5.553,0,0,0,.054-.81,3.966,3.966,0,0,0-4.037-4.286,4.417,4.417,0,0,0-4.415,4.628,4.517,4.517,0,0,0,4.794,4.628,6.282,6.282,0,0,0,3.172-.828v-1.729a5.056,5.056,0,0,1-3.064,1.1,3.037,3.037,0,0,1-3.28-2.7Zm-4.019-3.637a2.4,2.4,0,0,1,2.505,2.359h-5.226A2.708,2.708,0,0,1,166.758,259.479Zm8.867,7.6h1.622l3.713-8.859h-1.694l-1.6,3.889c-.415,1.008-.793,1.945-1.189,2.953h-.036c-.378-.972-.739-1.873-1.135-2.845l-1.64-4h-1.766Zm14.652-3.961a5.555,5.555,0,0,0,.054-.81,3.966,3.966,0,0,0-4.037-4.286,4.417,4.417,0,0,0-4.415,4.628,4.517,4.517,0,0,0,4.794,4.628,6.282,6.282,0,0,0,3.172-.828v-1.729a5.056,5.056,0,0,1-3.064,1.1,3.037,3.037,0,0,1-3.28-2.7Zm-4.019-3.637a2.4,2.4,0,0,1,2.505,2.359h-5.226A2.708,2.708,0,0,1,186.257,259.479Zm6.56,7.6h1.622V253.321h-1.622Zm4.4-.522a7.461,7.461,0,0,0,3.316.72c1.892,0,3.731-.774,3.731-2.827,0-1.837-1.406-2.3-3.1-2.593-1.316-.234-2.577-.234-2.577-1.242,0-.792.793-1.134,1.928-1.134a6.738,6.738,0,0,1,3.244.864v-1.621a7.183,7.183,0,0,0-3.172-.7c-2.055,0-3.622.882-3.64,2.719,0,1.747,1.334,2.251,3.028,2.539,1.37.234,2.649.252,2.649,1.314,0,.864-.793,1.224-2.018,1.224a6.489,6.489,0,0,1-3.388-.954Zm16.418.72a4.21,4.21,0,0,0,2.721-.972h.036a1.885,1.885,0,0,0,1.712.936,2.313,2.313,0,0,0,.865-.162v-1.35a1.242,1.242,0,0,1-.523.126c-.487,0-.685-.4-.685-.936v-3.763a2.984,2.984,0,0,0-.883-2.323,3.857,3.857,0,0,0-2.649-.81,5.585,5.585,0,0,0-2.956.756v1.585a4.625,4.625,0,0,1,2.721-.882,2.407,2.407,0,0,1,1.64.486,1.914,1.914,0,0,1,.5,1.458v.738a7.775,7.775,0,0,0-1.892-.234,4.632,4.632,0,0,0-2.487.594,2.461,2.461,0,0,0-1.171,2.161,2.359,2.359,0,0,0,.937,1.963A3.541,3.541,0,0,0,213.633,267.276Zm.288-1.44c-.955,0-1.694-.432-1.694-1.3,0-1.044,1.081-1.368,2.181-1.368a6.69,6.69,0,0,1,1.73.234v1.657A3.7,3.7,0,0,1,213.921,265.836Zm8.38.612a2.576,2.576,0,0,0,2.018.828,3.948,3.948,0,0,0,1.6-.324v-1.531a2.686,2.686,0,0,1-1.334.378c-1.171,0-1.334-1.008-1.334-2.107v-4.015h2.667v-1.458h-2.667v-2.683l-1.622.27v2.413h-1.64v1.458h1.64V264A3.493,3.493,0,0,0,222.3,266.448Zm14.382-12.406-2.92,4.7c-1.171,1.891-1.586,3.007-1.586,4.231a4.44,4.44,0,0,0,8.867.18,3.87,3.87,0,0,0-3.965-3.943,3.365,3.365,0,0,0-1.982.576l-.036-.018c.126-.234.306-.522.487-.792l3.1-4.934Zm-2.775,9.093a2.593,2.593,0,0,1,2.757-2.485,2.554,2.554,0,0,1,2.685,2.557,2.583,2.583,0,0,1-2.721,2.557A2.664,2.664,0,0,1,233.908,263.135ZM13.624,297.089h1.622v-5.528a3.6,3.6,0,0,0-.739-2.593,3.027,3.027,0,0,0-2.325-.936,4.807,4.807,0,0,0-3.37,1.531,2.933,2.933,0,0,0-2.721-1.531,4.271,4.271,0,0,0-3.01,1.3l-.036-.018v-1.08H1.423v8.859H3.045V290.93a3.761,3.761,0,0,1,2.7-1.386A1.71,1.71,0,0,1,7.1,290.1a2.446,2.446,0,0,1,.415,1.747v5.24H9.137v-5.528c0-.216,0-.432-.018-.63a3.862,3.862,0,0,1,2.7-1.386,1.781,1.781,0,0,1,1.352.54,2.594,2.594,0,0,1,.451,1.765Zm4-4.43a4.563,4.563,0,0,0,4.686,4.628,4.628,4.628,0,1,0,0-9.255A4.563,4.563,0,0,0,17.625,292.659Zm1.622,0a3.065,3.065,0,1,1,3.064,3.151A3.037,3.037,0,0,1,19.247,292.659Zm10.164,4.43h1.622V291.02a3.735,3.735,0,0,1,2.775-1.477,1.839,1.839,0,0,1,1.424.576,2.744,2.744,0,0,1,.415,1.8v5.168h1.622v-5.474A3.586,3.586,0,0,0,36.53,289a3.068,3.068,0,0,0-2.361-.972,4.4,4.4,0,0,0-3.1,1.333l-.036-.018v-1.116H29.412Zm12.2-.63a2.577,2.577,0,0,0,2.018.828,3.947,3.947,0,0,0,1.6-.324v-1.531a2.686,2.686,0,0,1-1.334.378c-1.171,0-1.334-1.008-1.334-2.107v-4.015h2.667v-1.458H42.568v-2.683l-1.622.27v2.413h-1.64v1.458h1.64v4.322A3.493,3.493,0,0,0,41.613,296.458Zm5.839.63h1.622V291.02a3.871,3.871,0,0,1,2.829-1.477,1.686,1.686,0,0,1,1.352.576,2.507,2.507,0,0,1,.433,1.8v5.168h1.622v-5.474A3.586,3.586,0,0,0,54.57,289a3.068,3.068,0,0,0-2.361-.972,4.4,4.4,0,0,0-3.1,1.333l-.036-.018v-6.014H47.452Zm10.6-.522a7.461,7.461,0,0,0,3.316.72c1.892,0,3.731-.774,3.731-2.827,0-1.837-1.406-2.3-3.1-2.593-1.316-.234-2.577-.234-2.577-1.242,0-.792.793-1.134,1.928-1.134a6.738,6.738,0,0,1,3.244.864v-1.621a7.183,7.183,0,0,0-3.172-.7c-2.055,0-3.622.882-3.64,2.719,0,1.747,1.334,2.251,3.028,2.539,1.37.234,2.649.252,2.649,1.314,0,.864-.793,1.224-2.018,1.224a6.49,6.49,0,0,1-3.388-.954Zm16.094.522h1.622l1.388-3.8c.306-.81.613-1.711.865-2.485h.036c.252.774.559,1.675.865,2.485l1.388,3.8h1.6l3.082-8.859H83.3l-1.316,3.961c-.306.918-.595,1.819-.865,2.719h-.036c-.306-.9-.631-1.819-.973-2.737l-1.46-3.943H77.494l-1.46,3.943c-.324.882-.667,1.837-.973,2.737h-.036c-.288-.918-.577-1.819-.883-2.737l-1.316-3.943H71.061Zm14.958.2a4.21,4.21,0,0,0,2.721-.972h.036a1.885,1.885,0,0,0,1.712.936,2.313,2.313,0,0,0,.865-.162v-1.35a1.242,1.242,0,0,1-.523.126c-.487,0-.685-.4-.685-.936v-3.763a2.984,2.984,0,0,0-.883-2.323,3.857,3.857,0,0,0-2.649-.81,5.585,5.585,0,0,0-2.956.756v1.585a4.626,4.626,0,0,1,2.721-.882,2.407,2.407,0,0,1,1.64.486,1.914,1.914,0,0,1,.5,1.458v.738a7.775,7.775,0,0,0-1.892-.234,4.632,4.632,0,0,0-2.487.594,2.461,2.461,0,0,0-1.171,2.161,2.359,2.359,0,0,0,.937,1.963A3.541,3.541,0,0,0,89.1,297.287Zm.288-1.44c-.955,0-1.694-.432-1.694-1.3,0-1.044,1.081-1.368,2.181-1.368a6.69,6.69,0,0,1,1.73.234v1.657A3.7,3.7,0,0,1,89.389,295.846Zm6.776.72a7.461,7.461,0,0,0,3.316.72c1.892,0,3.731-.774,3.731-2.827,0-1.837-1.406-2.3-3.1-2.593-1.316-.234-2.577-.234-2.577-1.242,0-.792.793-1.134,1.928-1.134a6.738,6.738,0,0,1,3.244.864v-1.621a7.183,7.183,0,0,0-3.172-.7c-2.055,0-3.622.882-3.64,2.719,0,1.747,1.334,2.251,3.028,2.539,1.37.234,2.649.252,2.649,1.314,0,.864-.793,1.224-2.018,1.224a6.49,6.49,0,0,1-3.388-.954Zm13.715,0a7.461,7.461,0,0,0,3.316.72c1.892,0,3.731-.774,3.731-2.827,0-1.837-1.406-2.3-3.1-2.593-1.316-.234-2.577-.234-2.577-1.242,0-.792.793-1.134,1.928-1.134a6.738,6.738,0,0,1,3.244.864v-1.621a7.183,7.183,0,0,0-3.172-.7c-2.055,0-3.622.882-3.64,2.719,0,1.747,1.334,2.251,3.028,2.539,1.37.234,2.649.252,2.649,1.314,0,.864-.793,1.224-2.018,1.224a6.49,6.49,0,0,1-3.388-.954Zm9.1-11.38a1.135,1.135,0,1,0,1.135-1.134A1.13,1.13,0,0,0,118.981,285.186Zm.324,11.9h1.622v-8.859h-1.622Zm5.244,3.493a6.286,6.286,0,0,0,2.811.666c2.721,0,4.451-1.6,4.451-4.2v-8.787l-1.568.27a5.079,5.079,0,0,0-2.253-.5,4.448,4.448,0,0,0-4.6,4.646,4.276,4.276,0,0,0,4.343,4.43,4.39,4.39,0,0,0,2.415-.684l.036.018v.648a2.575,2.575,0,0,1-2.829,2.683,5.175,5.175,0,0,1-2.811-.918Zm.487-8.013a2.9,2.9,0,0,1,2.92-3.1,4.576,4.576,0,0,1,2.235.612v4.88a3.749,3.749,0,0,1-2.217.72A2.917,2.917,0,0,1,125.037,292.569Zm9.822,4.52h1.622V291.02a3.734,3.734,0,0,1,2.775-1.477,1.839,1.839,0,0,1,1.424.576,2.744,2.744,0,0,1,.415,1.8v5.168h1.622v-5.474a3.586,3.586,0,0,0-.739-2.611,3.068,3.068,0,0,0-2.361-.972,4.4,4.4,0,0,0-3.1,1.333l-.036-.018v-1.116h-1.622Zm10.525-11.9a1.135,1.135,0,1,0,1.135-1.134A1.13,1.13,0,0,0,145.383,285.186Zm.324,11.9h1.622v-8.859h-1.622Zm5.1,0h1.622v-7.4H154.7v-1.458H152.43V286.3c0-.936.2-1.693,1.316-1.693a6.056,6.056,0,0,1,1.262.162v-1.458a5.183,5.183,0,0,0-1.334-.18,2.912,2.912,0,0,0-2.073.738,3.513,3.513,0,0,0-.793,2.665v1.693H149.4v1.458h1.406Zm5.6-11.9a1.135,1.135,0,1,0,1.135-1.134A1.13,1.13,0,0,0,156.413,285.186Zm.324,11.9h1.622v-8.859h-1.622Zm11.5-2.143a4.131,4.131,0,0,1-2.559.864,3.053,3.053,0,0,1-3.262-3.1,3.1,3.1,0,0,1,3.208-3.205,4.677,4.677,0,0,1,2.469.756V288.59a5.349,5.349,0,0,0-2.4-.558,4.687,4.687,0,0,0-4.92,4.682,4.542,4.542,0,0,0,4.812,4.574,5.733,5.733,0,0,0,2.649-.612Zm4.974,2.341a4.21,4.21,0,0,0,2.721-.972h.036a1.885,1.885,0,0,0,1.712.936,2.313,2.313,0,0,0,.865-.162v-1.35a1.242,1.242,0,0,1-.523.126c-.487,0-.685-.4-.685-.936v-3.763a2.984,2.984,0,0,0-.883-2.323,3.857,3.857,0,0,0-2.649-.81,5.585,5.585,0,0,0-2.956.756v1.585a4.626,4.626,0,0,1,2.721-.882,2.407,2.407,0,0,1,1.64.486,1.914,1.914,0,0,1,.5,1.458v.738a7.775,7.775,0,0,0-1.892-.234,4.632,4.632,0,0,0-2.487.594,2.461,2.461,0,0,0-1.171,2.161,2.359,2.359,0,0,0,.937,1.963A3.541,3.541,0,0,0,173.21,297.287Zm.288-1.44c-.955,0-1.694-.432-1.694-1.3,0-1.044,1.081-1.368,2.181-1.368a6.69,6.69,0,0,1,1.73.234v1.657A3.7,3.7,0,0,1,173.5,295.846Zm7.029,1.242h1.622V291.02a3.734,3.734,0,0,1,2.775-1.477,1.839,1.839,0,0,1,1.424.576,2.744,2.744,0,0,1,.415,1.8v5.168h1.622v-5.474a3.586,3.586,0,0,0-.739-2.611,3.068,3.068,0,0,0-2.361-.972,4.4,4.4,0,0,0-3.1,1.333l-.036-.018v-1.116h-1.622Zm12.2-.63a2.577,2.577,0,0,0,2.018.828,3.947,3.947,0,0,0,1.6-.324v-1.531a2.686,2.686,0,0,1-1.334.378c-1.171,0-1.334-1.008-1.334-2.107v-4.015h2.667v-1.458h-2.667v-2.683l-1.622.27v2.413h-1.64v1.458h1.64v4.322A3.493,3.493,0,0,0,192.727,296.458Zm5.893-.36a1.189,1.189,0,1,0,1.189-1.188A1.2,1.2,0,0,0,198.621,296.1Z" transform="translate(832.784 5506.595)" fill="#343434"/><g transform="translate(833 5830.876)"><path d="M1.32,0H4.5V-5.18h1a9.043,9.043,0,0,0,4.68-.9,4.212,4.212,0,0,0,2.08-3.78,4.187,4.187,0,0,0-2.34-3.86,9.26,9.26,0,0,0-4.3-.76H1.32ZM4.5-7.76V-11.7H5.58a6.356,6.356,0,0,1,2.48.3A1.726,1.726,0,0,1,9.08-9.7a1.7,1.7,0,0,1-.9,1.58,5.286,5.286,0,0,1-2.52.36ZM14.3,0h3.18V-5.18h1a9.043,9.043,0,0,0,4.68-.9,4.212,4.212,0,0,0,2.08-3.78,4.187,4.187,0,0,0-2.34-3.86,9.26,9.26,0,0,0-4.3-.76H14.3Zm3.18-7.76V-11.7h1.08a6.356,6.356,0,0,1,2.48.3,1.726,1.726,0,0,1,1.02,1.7,1.7,1.7,0,0,1-.9,1.58,5.286,5.286,0,0,1-2.52.36Zm9.5-5.2a1.758,1.758,0,0,0,1.76,1.74,1.758,1.758,0,0,0,1.76-1.74,1.758,1.758,0,0,0-1.76-1.74A1.758,1.758,0,0,0,26.98-12.96ZM27.22,0h3.04V-9.84H27.22Zm7.56-6.62A1.733,1.733,0,0,0,36.5-8.34a1.733,1.733,0,0,0-1.72-1.72,1.733,1.733,0,0,0-1.72,1.72A1.733,1.733,0,0,0,34.78-6.62ZM33.06-1.5A1.733,1.733,0,0,0,34.78.22,1.733,1.733,0,0,0,36.5-1.5a1.733,1.733,0,0,0-1.72-1.72A1.733,1.733,0,0,0,33.06-1.5ZM46.58,0H49.5l.9-2.64c.34-.98.64-1.9.9-2.8h.04c.26.9.56,1.86.88,2.82L53.1,0h2.84L59.3-9.84H56.36l-1,3.1c-.32,1-.6,1.9-.86,2.84h-.04c-.28-.94-.56-1.82-.9-2.84l-1.04-3.1H50.26L49.2-6.74c-.32.94-.64,1.92-.92,2.84h-.04c-.26-.94-.54-1.86-.86-2.84l-1-3.1H43.22Zm19.6-.6A2.879,2.879,0,0,0,68.3.18a3.307,3.307,0,0,0,1.46-.3V-2.4a1.147,1.147,0,0,1-.5.12c-.42,0-.6-.32-.6-.78V-6.4a3.254,3.254,0,0,0-1.1-2.72,5.2,5.2,0,0,0-3.28-.94,7.825,7.825,0,0,0-3.44.76v2.62a6.145,6.145,0,0,1,2.88-.78,2.262,2.262,0,0,1,1.52.42A1.387,1.387,0,0,1,65.62-6v.38a7.907,7.907,0,0,0-1.7-.18,4.86,4.86,0,0,0-2.76.7,2.8,2.8,0,0,0-1.2,2.38,2.683,2.683,0,0,0,1.16,2.3A4,4,0,0,0,63.4.22,4.79,4.79,0,0,0,66.14-.6Zm-.56-1.82a2.732,2.732,0,0,1-1.38.4c-.7,0-1.26-.34-1.26-.98,0-.76.78-1,1.56-1a4,4,0,0,1,1.08.14ZM71.26-.6a9.34,9.34,0,0,0,3.88.82c2.52,0,4.4-1.18,4.42-3.34,0-1.7-1.14-2.42-3.02-2.88-1.46-.36-2.52-.3-2.52-1.02,0-.46.48-.7,1.28-.7A8.288,8.288,0,0,1,79-6.66V-9.28a9.187,9.187,0,0,0-3.76-.78c-2.44,0-4.28,1.18-4.3,3.26,0,1.62,1.1,2.4,2.96,2.86,1.48.38,2.58.3,2.58,1.06,0,.54-.5.76-1.34.76a8.408,8.408,0,0,1-3.88-1.14Zm15.3.6H89.6V-6.62a3.509,3.509,0,0,1,2.06-.82,1.3,1.3,0,0,1,1.04.42,1.95,1.95,0,0,1,.34,1.38V0h3.04V-6.14a3.957,3.957,0,0,0-.86-2.92,3.544,3.544,0,0,0-2.58-1A4.819,4.819,0,0,0,89.6-8.92l-.04-.02v-.9h-3Zm14.62-4.92a2.455,2.455,0,0,1,2.44-2.52,2.455,2.455,0,0,1,2.44,2.52,2.455,2.455,0,0,1-2.44,2.52A2.455,2.455,0,0,1,101.18-4.92Zm-3.04,0A5.21,5.21,0,0,0,103.62.22a5.21,5.21,0,0,0,5.48-5.14,5.21,5.21,0,0,0-5.48-5.14A5.21,5.21,0,0,0,98.14-4.92Zm19.44,2.18a3.523,3.523,0,0,1-1.46.4c-.92,0-1.14-.72-1.14-1.68v-3.3h2.6V-9.84h-2.6v-3.08l-3.04.52v2.56h-1.6v2.52h1.6V-3.7a4.009,4.009,0,0,0,.86,2.94,3.467,3.467,0,0,0,2.56.98,4.532,4.532,0,0,0,2.22-.54ZM124.26-.6a9.34,9.34,0,0,0,3.88.82c2.52,0,4.4-1.18,4.42-3.34,0-1.7-1.14-2.42-3.02-2.88-1.46-.36-2.52-.3-2.52-1.02,0-.46.48-.7,1.28-.7A8.288,8.288,0,0,1,132-6.66V-9.28a9.187,9.187,0,0,0-3.76-.78c-2.44,0-4.28,1.18-4.3,3.26,0,1.62,1.1,2.4,2.96,2.86,1.48.38,2.58.3,2.58,1.06,0,.54-.5.76-1.34.76a8.408,8.408,0,0,1-3.88-1.14Zm10.12-12.36a1.758,1.758,0,0,0,1.76,1.74,1.758,1.758,0,0,0,1.76-1.74,1.758,1.758,0,0,0-1.76-1.74A1.758,1.758,0,0,0,134.38-12.96ZM134.62,0h3.04V-9.84h-3.04Zm6.56,3.9a8.018,8.018,0,0,0,3.36.72c3.14,0,5.26-1.72,5.26-4.82V-9.92l-2.38.42a5.574,5.574,0,0,0-2.46-.56,4.964,4.964,0,0,0-5.12,5.14A4.6,4.6,0,0,0,144.42-.1a4.145,4.145,0,0,0,2.3-.66l.04.02V-.2a2.1,2.1,0,0,1-2.4,2.22,6.245,6.245,0,0,1-3.18-1ZM146.76-3a3.059,3.059,0,0,1-1.54.42,2.249,2.249,0,0,1-2.3-2.46,2.258,2.258,0,0,1,2.34-2.44,3.456,3.456,0,0,1,1.5.36Zm5.8,3h3.04V-6.62a3.509,3.509,0,0,1,2.06-.82,1.3,1.3,0,0,1,1.04.42,1.95,1.95,0,0,1,.34,1.38V0h3.04V-6.14a3.957,3.957,0,0,0-.86-2.92,3.544,3.544,0,0,0-2.58-1,4.819,4.819,0,0,0-3.04,1.14l-.04-.02v-.9h-3Zm11.96-12.96a1.758,1.758,0,0,0,1.76,1.74,1.758,1.758,0,0,0,1.76-1.74,1.758,1.758,0,0,0-1.76-1.74A1.758,1.758,0,0,0,164.52-12.96ZM164.76,0h3.04V-9.84h-3.04Zm6.3,0h3.04V-7.32h2.28V-9.84H174.1V-11.5c0-.84.2-1.44,1.14-1.44a6.327,6.327,0,0,1,1.32.18v-2.46a4.859,4.859,0,0,0-1.68-.28,4.033,4.033,0,0,0-2.78.92,4.415,4.415,0,0,0-1.04,3.28v1.46h-1.4v2.52h1.4Zm6.74-12.96a1.758,1.758,0,0,0,1.76,1.74,1.758,1.758,0,0,0,1.76-1.74,1.758,1.758,0,0,0-1.76-1.74A1.758,1.758,0,0,0,177.8-12.96ZM178.04,0h3.04V-9.84h-3.04ZM191.9-3.34a5,5,0,0,1-2.88.98,2.563,2.563,0,0,1-2.78-2.56,2.566,2.566,0,0,1,2.74-2.58,5.291,5.291,0,0,1,2.78.92V-9.4a6.616,6.616,0,0,0-2.92-.66c-3.08,0-5.64,2.06-5.64,5.16A5.147,5.147,0,0,0,188.68.22a6.767,6.767,0,0,0,3.22-.76ZM199.82-.6a2.879,2.879,0,0,0,2.12.78,3.307,3.307,0,0,0,1.46-.3V-2.4a1.147,1.147,0,0,1-.5.12c-.42,0-.6-.32-.6-.78V-6.4a3.254,3.254,0,0,0-1.1-2.72,5.2,5.2,0,0,0-3.28-.94,7.825,7.825,0,0,0-3.44.76v2.62a6.145,6.145,0,0,1,2.88-.78,2.262,2.262,0,0,1,1.52.42A1.387,1.387,0,0,1,199.26-6v.38a7.907,7.907,0,0,0-1.7-.18,4.86,4.86,0,0,0-2.76.7,2.8,2.8,0,0,0-1.2,2.38,2.683,2.683,0,0,0,1.16,2.3,4,4,0,0,0,2.28.64,4.79,4.79,0,0,0,2.74-.82Zm-.56-1.82a2.732,2.732,0,0,1-1.38.4c-.7,0-1.26-.34-1.26-.98,0-.76.78-1,1.56-1a4,4,0,0,1,1.08.14ZM205.18,0h3.04V-6.62a3.509,3.509,0,0,1,2.06-.82,1.3,1.3,0,0,1,1.04.42,1.95,1.95,0,0,1,.34,1.38V0h3.04V-6.14a3.957,3.957,0,0,0-.86-2.92,3.544,3.544,0,0,0-2.58-1,4.819,4.819,0,0,0-3.04,1.14l-.04-.02v-.9h-3Zm18.58-2.74a3.523,3.523,0,0,1-1.46.4c-.92,0-1.14-.72-1.14-1.68v-3.3h2.6V-9.84h-2.6v-3.08l-3.04.52v2.56h-1.6v2.52h1.6V-3.7a4.009,4.009,0,0,0,.86,2.94,3.467,3.467,0,0,0,2.56.98,4.532,4.532,0,0,0,2.22-.54Z" transform="translate(28.271 25.163)" fill="#005d55"/><path d="M1.32-.092H4.507V-5.242h1a9.126,9.126,0,0,0,4.69-.895,4.18,4.18,0,0,0,2.085-3.757,4.159,4.159,0,0,0-2.345-3.837,9.346,9.346,0,0,0-4.309-.755H1.32ZM4.507-7.806v-3.917H5.589a6.418,6.418,0,0,1,2.485.3A1.714,1.714,0,0,1,9.1-9.735a1.688,1.688,0,0,1-.9,1.571,5.336,5.336,0,0,1-2.525.358ZM14.328-.092h9.541V-2.856H17.515v-11.63H14.328Zm11.324,0H28.84V-5.242h1a9.126,9.126,0,0,0,4.69-.895,4.18,4.18,0,0,0,2.085-3.757,4.159,4.159,0,0,0-2.345-3.837,9.346,9.346,0,0,0-4.309-.755H25.653ZM28.84-7.806v-3.917h1.082a6.418,6.418,0,0,1,2.485.3,1.714,1.714,0,0,1,1.022,1.69,1.688,1.688,0,0,1-.9,1.571A5.336,5.336,0,0,1,30-7.806ZM40.4-6.673a1.73,1.73,0,0,0,1.724-1.71,1.73,1.73,0,0,0-1.724-1.71,1.73,1.73,0,0,0-1.724,1.71A1.73,1.73,0,0,0,40.4-6.673ZM38.681-1.583A1.73,1.73,0,0,0,40.4.126a1.73,1.73,0,0,0,1.724-1.71A1.73,1.73,0,0,0,40.4-3.293,1.73,1.73,0,0,0,38.681-1.583ZM49.6-.689a9.425,9.425,0,0,0,3.888.815c2.525,0,4.41-1.173,4.43-3.32,0-1.69-1.142-2.406-3.027-2.863-1.463-.358-2.525-.3-2.525-1.014,0-.457.481-.7,1.283-.7a8.358,8.358,0,0,1,3.708,1.054v-2.6a9.272,9.272,0,0,0-3.768-.775c-2.445,0-4.289,1.173-4.309,3.241,0,1.61,1.1,2.386,2.966,2.843,1.483.378,2.586.3,2.586,1.054,0,.537-.5.755-1.343.755A8.479,8.479,0,0,1,49.6-3.333ZM59.746-12.975a1.755,1.755,0,0,0,1.764,1.73,1.755,1.755,0,0,0,1.764-1.73A1.755,1.755,0,0,0,61.51-14.7,1.755,1.755,0,0,0,59.746-12.975ZM59.987-.092h3.047V-9.874H59.987Zm6.574,3.877a8.091,8.091,0,0,0,3.367.716C73.075,4.5,75.2,2.79,75.2-.291V-9.953l-2.385.417a5.624,5.624,0,0,0-2.465-.557,4.954,4.954,0,0,0-5.131,5.109,4.59,4.59,0,0,0,4.59,4.791,4.178,4.178,0,0,0,2.3-.656l.04.02v.537a2.1,2.1,0,0,1-2.405,2.207A6.3,6.3,0,0,1,66.561.921Zm5.592-6.859a3.085,3.085,0,0,1-1.543.417A2.244,2.244,0,0,1,68.3-5.1,2.253,2.253,0,0,1,70.65-7.528a3.486,3.486,0,0,1,1.5.358ZM77.966-.092h3.047V-6.673a3.533,3.533,0,0,1,2.064-.815,1.311,1.311,0,0,1,1.042.417A1.927,1.927,0,0,1,84.46-5.7V-.092h3.047V-6.2a3.912,3.912,0,0,0-.862-2.9,3.567,3.567,0,0,0-2.586-.994,4.852,4.852,0,0,0-3.047,1.133l-.04-.02v-.895H77.966ZM89.952-12.975a1.755,1.755,0,0,0,1.764,1.73,1.755,1.755,0,0,0,1.764-1.73,1.755,1.755,0,0,0-1.764-1.73A1.755,1.755,0,0,0,89.952-12.975ZM90.192-.092h3.047V-9.874H90.192Zm6.314,0h3.047V-7.369h2.285v-2.5H99.552v-1.65c0-.835.2-1.431,1.142-1.431a6.39,6.39,0,0,1,1.323.179v-2.445a4.905,4.905,0,0,0-1.684-.278,4.064,4.064,0,0,0-2.786.915,4.366,4.366,0,0,0-1.042,3.26v1.451H95.1v2.5h1.4Zm6.755-12.883a1.755,1.755,0,0,0,1.764,1.73,1.755,1.755,0,0,0,1.764-1.73,1.755,1.755,0,0,0-1.764-1.73A1.755,1.755,0,0,0,103.26-12.975ZM103.5-.092h3.047V-9.874H103.5Zm13.89-3.32a5.036,5.036,0,0,1-2.886.974,2.56,2.56,0,0,1-2.786-2.545,2.563,2.563,0,0,1,2.746-2.565,5.332,5.332,0,0,1,2.786.915v-2.8a6.675,6.675,0,0,0-2.926-.656c-3.087,0-5.652,2.048-5.652,5.129,0,2.942,2.325,5.089,5.492,5.089a6.826,6.826,0,0,0,3.227-.755Zm7.937,2.724a2.9,2.9,0,0,0,2.125.775,3.337,3.337,0,0,0,1.463-.3V-2.478a1.157,1.157,0,0,1-.5.119c-.421,0-.6-.318-.6-.775v-3.32a3.223,3.223,0,0,0-1.1-2.7,5.237,5.237,0,0,0-3.287-.934,7.9,7.9,0,0,0-3.447.755v2.6a6.2,6.2,0,0,1,2.886-.775,2.28,2.28,0,0,1,1.523.417,1.372,1.372,0,0,1,.381,1.034v.378a7.986,7.986,0,0,0-1.7-.179,4.9,4.9,0,0,0-2.766.7,2.781,2.781,0,0,0-1.2,2.366A2.66,2.66,0,0,0,120.257-.51a4.034,4.034,0,0,0,2.285.636,4.828,4.828,0,0,0,2.746-.815ZM124.767-2.5a2.754,2.754,0,0,1-1.383.4c-.7,0-1.263-.338-1.263-.974,0-.755.782-.994,1.563-.994a4.044,4.044,0,0,1,1.082.139ZM130.7-.092h3.047V-6.673a3.533,3.533,0,0,1,2.064-.815,1.311,1.311,0,0,1,1.042.417,1.926,1.926,0,0,1,.341,1.372V-.092h3.047V-6.2a3.912,3.912,0,0,0-.862-2.9,3.567,3.567,0,0,0-2.586-.994,4.852,4.852,0,0,0-3.047,1.133l-.04-.02v-.895H130.7Zm18.62-2.724a3.552,3.552,0,0,1-1.463.4c-.922,0-1.142-.716-1.142-1.67v-3.28h2.606v-2.5h-2.606v-3.062l-3.047.517v2.545h-1.6v2.5h1.6v3.6a3.964,3.964,0,0,0,.862,2.922A3.491,3.491,0,0,0,147.1.126a4.571,4.571,0,0,0,2.225-.537Z" transform="translate(28.68 63.467)" fill="#005d55"/><g transform="translate(0 38)" clip-path="url(#a)"><g transform="translate(1 2.412)"><path d="M-.25-.25H19.482V19.482H-.25Zm19.232.5H.25V18.982H18.982Z" transform="translate(0 5.959)" fill="#265c5a"/><path d="M300.641,344.442l-5.122,16.646-1.7-5.317h-3.487l3.34,11.329h3.776l6.681-22.657Z" transform="translate(-286.982 -344.442)" fill="#7db959"/></g></g><g clip-path="url(#a)"><g transform="translate(1.014 8.55)"><path d="M-.25-.25H19.482V19.482H-.25Zm19.232.5H.25V18.982H18.982Z" fill="#265c5a"/><path d="M-.357,0h3.8L5.607-3.276c.546-.84,1.05-1.617,1.575-2.457h.042c.5.8,1.029,1.638,1.6,2.478L10.983,0h3.969L9.387-8.127,14.154-15.2H10.416L9.051-13.1c-.567.861-1.155,1.785-1.659,2.6H7.371c-.525-.84-1.113-1.764-1.68-2.625L4.326-15.2H.42L5.187-8.127Z" transform="translate(2.014 16.741)" fill="#7db959"/></g></g></g><path d="M1.14,19.395a10.511,10.511,0,0,0,4.58,1.077c3.12,0,5.26-1.728,5.26-4.593,0-2.6-1.76-3.638-3.94-4.37-1.74-.589-3.08-.691-3.08-1.992,0-.976.78-1.382,1.86-1.382a9.086,9.086,0,0,1,4.44,1.423V6.366A9.837,9.837,0,0,0,5.84,5.309C2.8,5.309.76,7.017.76,9.761c0,2.561,1.8,3.557,3.8,4.228,1.86.61,3.22.732,3.22,2.093,0,1.1-.86,1.565-2.02,1.565a9.042,9.042,0,0,1-4.62-1.524Zm18.879-1.931a3.479,3.479,0,0,1-1.46.407c-.92,0-1.14-.732-1.14-1.707V12.809h2.6V10.248h-2.6V7.118l-3.04.528v2.6h-1.6v2.561h1.6v3.679a4.119,4.119,0,0,0,.86,2.988,3.437,3.437,0,0,0,2.56,1,4.474,4.474,0,0,0,2.22-.549Zm9.219,1.85v.935h3v-10H29.2v6.687a3.057,3.057,0,0,1-2,.894,1.392,1.392,0,0,1-1.08-.447,2.036,2.036,0,0,1-.38-1.443V10.248H22.7v6.159a4.129,4.129,0,0,0,.94,3.069,3.429,3.429,0,0,0,2.56,1,4.392,4.392,0,0,0,3-1.179Zm13.039.407v.528h2.98V4.72h-3.04v5.65l-.04.02a4.6,4.6,0,0,0-1.86-.366,5.181,5.181,0,0,0-5.2,5.427,4.7,4.7,0,0,0,4.62,5.02,4.357,4.357,0,0,0,2.5-.772Zm-.06-2.276a3.18,3.18,0,0,1-1.7.508,2.365,2.365,0,0,1-2.34-2.642,2.456,2.456,0,0,1,2.46-2.724,3.5,3.5,0,0,1,1.58.386Zm9.8,7.276,6.4-14.472H55.4l-1.04,2.419c-.46,1.077-.9,2.134-1.34,3.232h-.04q-.6-1.555-1.26-3.171l-1.02-2.48H47.5l4,8.9-2.58,5.569Zm13-7.622h7.019v3.15h3.16V17.1h2.2V14.639h-2.2V5.533h-2.82L65,17.057Zm4.38-2.459-.02-.041,1.42-2.215c.44-.691.92-1.463,1.3-2.114l.04.02c-.02.691-.04,1.484-.04,2.215v2.134Zm19.459,5.467.04-.02a4.369,4.369,0,0,0,1.9.386,5.031,5.031,0,0,0,5.14-5.3c0-3.11-2.14-5.142-4.66-5.142a4.206,4.206,0,0,0-2.44.752l-.04-.02v-.508h-2.98V24.72h3.04Zm0-2.52V13.155a2.793,2.793,0,0,1,1.64-.549,2.454,2.454,0,0,1,2.38,2.724,2.411,2.411,0,0,1-2.46,2.642A3.4,3.4,0,0,1,88.854,17.586Zm9.9,2.663h3.04V14.192a3.245,3.245,0,0,1,2.66-1.179,3.487,3.487,0,0,1,.82.1V10.208a2.4,2.4,0,0,0-.64-.081,3.313,3.313,0,0,0-2.86,1.484l-.04-.02V10.248h-2.98Zm8.639-13.171a1.76,1.76,0,1,0,1.76-1.768A1.772,1.772,0,0,0,107.392,7.078Zm.24,13.171h3.04v-10h-3.04Zm19.139,0h3.04v-6.28a3.955,3.955,0,0,0-.9-2.947,3.4,3.4,0,0,0-2.54-1,5.072,5.072,0,0,0-3.46,1.423,3.284,3.284,0,0,0-2.86-1.423,4.518,4.518,0,0,0-2.96,1.138l-.04-.02v-.894h-3v10h3.04V13.5a3.164,3.164,0,0,1,1.92-.813,1.347,1.347,0,0,1,1.04.427,1.908,1.908,0,0,1,.36,1.362v5.772h3.04v-6.28a3.345,3.345,0,0,0-.02-.447,3.062,3.062,0,0,1,1.94-.833,1.347,1.347,0,0,1,1.04.427,1.839,1.839,0,0,1,.36,1.362Zm11.959-.61a2.852,2.852,0,0,0,2.12.793,3.262,3.262,0,0,0,1.46-.3V17.809a1.132,1.132,0,0,1-.5.122c-.42,0-.6-.325-.6-.793V13.744a3.333,3.333,0,0,0-1.1-2.764,5.136,5.136,0,0,0-3.28-.955,7.72,7.72,0,0,0-3.44.772V13.46a6.07,6.07,0,0,1,2.88-.793,2.237,2.237,0,0,1,1.52.427,1.422,1.422,0,0,1,.38,1.057v.386a7.784,7.784,0,0,0-1.7-.183,4.8,4.8,0,0,0-2.76.711,2.864,2.864,0,0,0-1.2,2.419,2.74,2.74,0,0,0,1.16,2.337,3.953,3.953,0,0,0,2.28.65,4.736,4.736,0,0,0,2.74-.833Zm-.56-1.85a2.7,2.7,0,0,1-1.38.407c-.7,0-1.26-.346-1.26-1,0-.772.78-1.016,1.56-1.016a3.944,3.944,0,0,1,1.08.142Zm6.58,2.459h3.04V14.192a3.245,3.245,0,0,1,2.66-1.179,3.487,3.487,0,0,1,.82.1V10.208a2.4,2.4,0,0,0-.64-.081,3.313,3.313,0,0,0-2.86,1.484l-.04-.02V10.248h-2.98Zm12.459,4.472,6.4-14.472h-3.02l-1.04,2.419c-.46,1.077-.9,2.134-1.34,3.232h-.04q-.6-1.555-1.26-3.171l-1.02-2.48h-3.2l4,8.9-2.58,5.569Zm23.418-8.659a8.37,8.37,0,0,0,.06-1.057,4.591,4.591,0,0,0-4.7-4.98,5.116,5.116,0,0,0-5.16,5.264c0,3.13,2.34,5.183,5.58,5.183a7.458,7.458,0,0,0,3.74-.915V16.976a6.054,6.054,0,0,1-3.34,1.1,2.668,2.668,0,0,1-2.86-2.012Zm-6.7-1.951a2.041,2.041,0,0,1,2.02-1.728,1.932,1.932,0,0,1,1.94,1.728Zm9.6,6.138h3.04V13.521a3.478,3.478,0,0,1,2.06-.833,1.292,1.292,0,0,1,1.04.427,2.005,2.005,0,0,1,.34,1.4v5.732h3.04v-6.24a4.065,4.065,0,0,0-.86-2.967,3.513,3.513,0,0,0-2.58-1.016,4.774,4.774,0,0,0-3.04,1.159l-.04-.02v-.915h-3Zm19.479-.528v.528h2.98V4.72h-3.04v5.65l-.04.02a4.6,4.6,0,0,0-1.86-.366,5.181,5.181,0,0,0-5.2,5.427,4.7,4.7,0,0,0,4.62,5.02,4.357,4.357,0,0,0,2.5-.772Zm-.06-2.276a3.18,3.18,0,0,1-1.7.508,2.365,2.365,0,0,1-2.34-2.642,2.456,2.456,0,0,1,2.46-2.724,3.5,3.5,0,0,1,1.58.386Zm9.459,2.663.04-.02a4.369,4.369,0,0,0,1.9.386,5.031,5.031,0,0,0,5.14-5.3c0-3.11-2.14-5.142-4.66-5.142a4.206,4.206,0,0,0-2.44.752l-.04-.02v-.508h-2.98V24.72h3.04Zm0-2.52V13.155a2.793,2.793,0,0,1,1.64-.549,2.454,2.454,0,0,1,2.38,2.724,2.411,2.411,0,0,1-2.46,2.642A3.4,3.4,0,0,1,212.4,17.586Zm12.319-2.337a2.443,2.443,0,1,1,4.88,0,2.443,2.443,0,1,1-4.88,0Zm-3.04,0a5.486,5.486,0,1,0,5.48-5.224A5.248,5.248,0,0,0,221.684,15.248Zm13.479-8.171a1.76,1.76,0,1,0,1.76-1.768A1.772,1.772,0,0,0,235.163,7.078Zm.24,13.171h3.04v-10H235.4Zm6.42,0h3.04V13.521a3.478,3.478,0,0,1,2.06-.833,1.293,1.293,0,0,1,1.04.427,2.005,2.005,0,0,1,.34,1.4v5.732h3.04v-6.24a4.065,4.065,0,0,0-.86-2.967,3.513,3.513,0,0,0-2.58-1.016,4.774,4.774,0,0,0-3.04,1.159l-.04-.02v-.915h-3Zm19.239-2.785a3.479,3.479,0,0,1-1.46.407c-.92,0-1.14-.732-1.14-1.707V12.809h2.6V10.248h-2.6V7.118l-3.04.528v2.6h-1.6v2.561h1.6v3.679a4.119,4.119,0,0,0,.86,2.988,3.437,3.437,0,0,0,2.56,1,4.474,4.474,0,0,0,2.22-.549Zm2.4,2.175a9.211,9.211,0,0,0,3.88.833c2.52,0,4.4-1.2,4.42-3.394,0-1.728-1.14-2.459-3.02-2.927-1.46-.366-2.52-.3-2.52-1.037,0-.467.48-.711,1.28-.711a8.186,8.186,0,0,1,3.7,1.077V10.818a9.06,9.06,0,0,0-3.76-.793c-2.44,0-4.28,1.2-4.3,3.313,0,1.646,1.1,2.439,2.96,2.907,1.48.386,2.58.3,2.58,1.077,0,.549-.5.772-1.34.772a8.307,8.307,0,0,1-3.88-1.159Z" transform="translate(834.24 5463.123)" fill="#343434"/><path d="M1.32,20.493H4.506V15.146h1a8.837,8.837,0,0,0,4.689-.929,4.376,4.376,0,0,0,2.084-3.9A4.336,4.336,0,0,0,9.937,6.33a9.04,9.04,0,0,0-4.308-.785H1.32Zm3.186-8.01V8.415H5.588a6.2,6.2,0,0,1,2.485.31A1.788,1.788,0,0,1,9.1,10.48a1.766,1.766,0,0,1-.9,1.631,5.157,5.157,0,0,1-2.525.372Zm9.819,8.01h9.539v-2.87H17.512V5.546H14.326Zm11.322,0h3.186V15.146h1a8.837,8.837,0,0,0,4.689-.929,4.376,4.376,0,0,0,2.084-3.9A4.336,4.336,0,0,0,34.265,6.33a9.04,9.04,0,0,0-4.308-.785H25.648Zm3.186-8.01V8.415h1.082a6.2,6.2,0,0,1,2.485.31,1.788,1.788,0,0,1,1.022,1.755,1.766,1.766,0,0,1-.9,1.631A5.157,5.157,0,0,1,30,12.483Zm20.3,7.391a2.836,2.836,0,0,0,2.124.805,3.231,3.231,0,0,0,1.463-.31V18.015a1.122,1.122,0,0,1-.5.124c-.421,0-.6-.33-.6-.805V13.886a3.409,3.409,0,0,0-1.1-2.808,5.1,5.1,0,0,0-3.286-.97,7.651,7.651,0,0,0-3.447.785v2.7a6.02,6.02,0,0,1,2.886-.805,2.22,2.22,0,0,1,1.523.434,1.456,1.456,0,0,1,.381,1.074v.392a7.7,7.7,0,0,0-1.7-.186,4.759,4.759,0,0,0-2.765.723,2.922,2.922,0,0,0-1.2,2.457,2.8,2.8,0,0,0,1.162,2.374,3.922,3.922,0,0,0,2.284.661,4.7,4.7,0,0,0,2.745-.846Zm-.561-1.879a2.679,2.679,0,0,1-1.383.413c-.7,0-1.262-.351-1.262-1.012,0-.785.782-1.032,1.563-1.032a3.9,3.9,0,0,1,1.082.145Zm5.932,2.5H57.55V13.659a3.46,3.46,0,0,1,2.064-.846,1.287,1.287,0,0,1,1.042.434A2.057,2.057,0,0,1,61,14.671v5.822h3.046V14.155a4.167,4.167,0,0,0-.862-3.014A3.5,3.5,0,0,0,60.6,10.108a4.748,4.748,0,0,0-3.046,1.177l-.04-.021v-.929H54.5Zm18.857-.537v.537h2.986V4.72H73.3v5.739l-.04.021a4.558,4.558,0,0,0-1.864-.372,5.231,5.231,0,0,0-5.21,5.512c0,3.117,2.144,5.1,4.629,5.1a4.325,4.325,0,0,0,2.5-.785Zm-.06-2.312a3.156,3.156,0,0,1-1.7.516,2.391,2.391,0,0,1-2.345-2.684,2.482,2.482,0,0,1,2.465-2.766A3.465,3.465,0,0,1,73.3,13.1Zm10.781,2.849h3.186V15.146h1a8.837,8.837,0,0,0,4.689-.929,4.376,4.376,0,0,0,2.084-3.9A4.336,4.336,0,0,0,92.7,6.33a9.04,9.04,0,0,0-4.308-.785H84.083Zm3.186-8.01V8.415h1.082a6.2,6.2,0,0,1,2.485.31,1.788,1.788,0,0,1,1.022,1.755,1.766,1.766,0,0,1-.9,1.631,5.157,5.157,0,0,1-2.525.372Zm9.819,8.01h3.186V15.146h1a8.837,8.837,0,0,0,4.689-.929,4.376,4.376,0,0,0,2.084-3.9,4.336,4.336,0,0,0-2.345-3.985,9.04,9.04,0,0,0-4.308-.785H97.088Zm3.186-8.01V8.415h1.082a6.2,6.2,0,0,1,2.485.31,1.788,1.788,0,0,1,1.022,1.755,1.766,1.766,0,0,1-.9,1.631,5.157,5.157,0,0,1-2.525.372Zm9.519-5.368a1.764,1.764,0,1,0,1.763-1.8A1.788,1.788,0,0,0,109.793,7.115Zm.24,13.378h3.046V10.335h-3.046Z" transform="translate(833.68 5505.123)" fill="#005d55"/></g></svg>