<svg xmlns="http://www.w3.org/2000/svg" xmlns:xlink="http://www.w3.org/1999/xlink" width="646" height="413" viewBox="0 0 646 413"><defs><clipPath id="a"><rect width="24" height="36" fill="none" stroke="#707070" stroke-width="1"/></clipPath></defs><g transform="translate(-830 -5423)"><rect width="646" height="413" transform="translate(830 5423)" fill="#fff"/><path d="M4.734,57h1.71V45.516h4.374V43.968H.36v1.548H4.734Zm8.046,0H14.4V50.934a3.866,3.866,0,0,1,2.826-1.476,1.683,1.683,0,0,1,1.35.576,2.508,2.508,0,0,1,.432,1.8V57h1.62V51.528a3.587,3.587,0,0,0-.738-2.61,3.063,3.063,0,0,0-2.358-.972,4.391,4.391,0,0,0-3.1,1.332L14.4,49.26V43.248H12.78Zm18.612-3.96a5.554,5.554,0,0,0,.054-.81,3.963,3.963,0,0,0-4.032-4.284A4.414,4.414,0,0,0,23,52.572,4.514,4.514,0,0,0,27.792,57.2a6.27,6.27,0,0,0,3.168-.828V54.642a5.047,5.047,0,0,1-3.06,1.1,3.034,3.034,0,0,1-3.276-2.7ZM27.378,49.4a2.4,2.4,0,0,1,2.5,2.358H24.66A2.705,2.705,0,0,1,27.378,49.4Zm10.836,7.074a7.446,7.446,0,0,0,3.312.72c1.89,0,3.726-.774,3.726-2.826,0-1.836-1.4-2.3-3.1-2.592-1.314-.234-2.574-.234-2.574-1.242,0-.792.792-1.134,1.926-1.134a6.726,6.726,0,0,1,3.24.864v-1.62a7.169,7.169,0,0,0-3.168-.7c-2.052,0-3.618.882-3.636,2.718,0,1.746,1.332,2.25,3.024,2.538,1.368.234,2.646.252,2.646,1.314,0,.864-.792,1.224-2.016,1.224a6.477,6.477,0,0,1-3.384-.954Zm10.764-.108a2.572,2.572,0,0,0,2.016.828,3.94,3.94,0,0,0,1.6-.324v-1.53a2.681,2.681,0,0,1-1.332.378c-1.17,0-1.332-1.008-1.332-2.106V49.6H52.6V48.144H49.932V45.462l-1.62.27v2.412H46.674V49.6h1.638v4.32A3.494,3.494,0,0,0,48.978,56.37Zm6.516-.162a3.166,3.166,0,0,0,2.412.99,4.339,4.339,0,0,0,3.06-1.332l.036.018V57h1.62V48.144H61v6.048A3.787,3.787,0,0,1,58.23,55.7a1.728,1.728,0,0,1-1.4-.612,2.678,2.678,0,0,1-.432-1.836V48.144h-1.62v5.418A3.846,3.846,0,0,0,55.494,56.208Zm9.576-3.492a4.367,4.367,0,0,0,6.822,3.726l.036.018V57h1.62V43.248h-1.62V48.4l-.036.018a5.078,5.078,0,0,0-2.124-.468A4.566,4.566,0,0,0,65.07,52.716Zm1.638-.09a3.012,3.012,0,0,1,3.042-3.24,4.934,4.934,0,0,1,2.178.558V55a4.1,4.1,0,0,1-2.3.756A2.885,2.885,0,0,1,66.708,52.626Zm11.9,8.334L84.6,48.144H82.89l-1.548,3.348c-.414.9-.81,1.782-1.206,2.664H80.1c-.36-.81-.792-1.764-1.206-2.664l-1.548-3.348h-1.8l3.69,7.9L76.842,60.96Zm7.758-12.474h1.1l1.476-4.842H87.354Zm2.808,7.992a7.446,7.446,0,0,0,3.312.72c1.89,0,3.726-.774,3.726-2.826,0-1.836-1.4-2.3-3.1-2.592-1.314-.234-2.574-.234-2.574-1.242,0-.792.792-1.134,1.926-1.134a6.726,6.726,0,0,1,3.24.864v-1.62a7.169,7.169,0,0,0-3.168-.7c-2.052,0-3.618.882-3.636,2.718,0,1.746,1.332,2.25,3.024,2.538,1.368.234,2.646.252,2.646,1.314,0,.864-.792,1.224-2.016,1.224a6.477,6.477,0,0,1-3.384-.954Zm15.3-.108a2.572,2.572,0,0,0,2.016.828,3.94,3.94,0,0,0,1.6-.324v-1.53a2.681,2.681,0,0,1-1.332.378c-1.17,0-1.332-1.008-1.332-2.106V49.6h2.664V48.144h-2.664V45.462l-1.62.27v2.412h-1.638V49.6h1.638v4.32A3.494,3.494,0,0,0,104.472,56.37Zm7.956.63h1.62l1.386-3.8c.306-.81.612-1.71.864-2.484h.036c.252.774.558,1.674.864,2.484l1.386,3.8h1.6l3.078-8.856h-1.692l-1.314,3.96c-.306.918-.594,1.818-.864,2.718h-.036c-.306-.9-.63-1.818-.972-2.736l-1.458-3.942h-1.152l-1.458,3.942c-.324.882-.666,1.836-.972,2.736h-.036c-.288-.918-.576-1.818-.882-2.736l-1.314-3.942H109.35Zm11.862-4.428a4.68,4.68,0,1,0,4.68-4.626A4.559,4.559,0,0,0,124.29,52.572Zm1.62,0a3.061,3.061,0,1,1,3.06,3.15A3.034,3.034,0,0,1,125.91,52.572Zm21.528,2.286a4.123,4.123,0,0,1-2.556.864,3.051,3.051,0,0,1-3.258-3.1,3.1,3.1,0,0,1,3.2-3.2,4.669,4.669,0,0,1,2.466.756V48.5a5.339,5.339,0,0,0-2.394-.558,4.683,4.683,0,0,0-4.914,4.68,4.538,4.538,0,0,0,4.806,4.572,5.722,5.722,0,0,0,2.646-.612Zm1.872-2.286a4.68,4.68,0,1,0,4.68-4.626A4.559,4.559,0,0,0,149.31,52.572Zm1.62,0a3.061,3.061,0,1,1,3.06,3.15A3.034,3.034,0,0,1,150.93,52.572Zm9.756.162h4.284v-1.44h-4.284Zm8.532,4,.036-.018a5,5,0,0,0,2.178.486,4.48,4.48,0,0,0,4.626-4.662,4.317,4.317,0,0,0-4.284-4.59,4.369,4.369,0,0,0-2.52.792l-.036-.018v-.576H167.6V60.96h1.62Zm0-1.566v-4.95a3.692,3.692,0,0,1,2.286-.81,3,3,0,0,1,2.916,3.258,2.9,2.9,0,0,1-2.952,3.114A4.873,4.873,0,0,1,169.218,55.164ZM178.488,57h1.62V51.24a2.9,2.9,0,0,1,2.61-1.566,2.6,2.6,0,0,1,.63.072v-1.6a2.195,2.195,0,0,0-.576-.072,3.228,3.228,0,0,0-2.628,1.386l-.036-.018v-1.3h-1.62Zm6.462-11.9a1.134,1.134,0,1,0,1.134-1.134A1.129,1.129,0,0,0,184.95,45.1Zm.324,11.9h1.62V48.144h-1.62Zm16.83,0h1.62V51.474a3.6,3.6,0,0,0-.738-2.592,3.022,3.022,0,0,0-2.322-.936,4.8,4.8,0,0,0-3.366,1.53,2.929,2.929,0,0,0-2.718-1.53,4.263,4.263,0,0,0-3.006,1.3l-.036-.018v-1.08h-1.62V57h1.62V50.844a3.756,3.756,0,0,1,2.7-1.386,1.707,1.707,0,0,1,1.35.558A2.446,2.446,0,0,1,196,51.762V57h1.62V51.474c0-.216,0-.432-.018-.63a3.856,3.856,0,0,1,2.7-1.386,1.778,1.778,0,0,1,1.35.54,2.6,2.6,0,0,1,.45,1.764Zm7.056.2a4.2,4.2,0,0,0,2.718-.972h.036a1.882,1.882,0,0,0,1.71.936,2.308,2.308,0,0,0,.864-.162V55.65a1.239,1.239,0,0,1-.522.126c-.486,0-.684-.4-.684-.936V51.078a2.984,2.984,0,0,0-.882-2.322,3.85,3.85,0,0,0-2.646-.81,5.575,5.575,0,0,0-2.952.756v1.584a4.617,4.617,0,0,1,2.718-.882,2.4,2.4,0,0,1,1.638.486,1.914,1.914,0,0,1,.5,1.458v.738a7.761,7.761,0,0,0-1.89-.234,4.624,4.624,0,0,0-2.484.594,2.461,2.461,0,0,0-1.17,2.16,2.359,2.359,0,0,0,.936,1.962A3.535,3.535,0,0,0,209.16,57.2Zm.288-1.44c-.954,0-1.692-.432-1.692-1.3,0-1.044,1.08-1.368,2.178-1.368a6.678,6.678,0,0,1,1.728.234v1.656A3.692,3.692,0,0,1,209.448,55.758ZM216.468,57h1.62V51.24a2.9,2.9,0,0,1,2.61-1.566,2.6,2.6,0,0,1,.63.072v-1.6a2.195,2.195,0,0,0-.576-.072,3.228,3.228,0,0,0-2.628,1.386l-.036-.018v-1.3h-1.62Zm8.91,3.96,5.994-12.816h-1.71l-1.548,3.348c-.414.9-.81,1.782-1.206,2.664h-.036c-.36-.81-.792-1.764-1.206-2.664l-1.548-3.348h-1.8l3.69,7.9-2.394,4.914Zm20.358-7.92a5.555,5.555,0,0,0,.054-.81,3.963,3.963,0,0,0-4.032-4.284,4.414,4.414,0,0,0-4.41,4.626,4.514,4.514,0,0,0,4.788,4.626,6.27,6.27,0,0,0,3.168-.828V54.642a5.047,5.047,0,0,1-3.06,1.1,3.034,3.034,0,0,1-3.276-2.7ZM241.722,49.4a2.4,2.4,0,0,1,2.5,2.358H239A2.705,2.705,0,0,1,241.722,49.4Zm6.552,7.6h1.62V50.934a3.729,3.729,0,0,1,2.772-1.476,1.836,1.836,0,0,1,1.422.576,2.745,2.745,0,0,1,.414,1.8V57h1.62V51.528a3.587,3.587,0,0,0-.738-2.61,3.063,3.063,0,0,0-2.358-.972,4.391,4.391,0,0,0-3.1,1.332l-.036-.018V48.144h-1.62Zm10.26-4.284a4.367,4.367,0,0,0,6.822,3.726l.036.018V57h1.62V43.248h-1.62V48.4l-.036.018a5.078,5.078,0,0,0-2.124-.468A4.566,4.566,0,0,0,258.534,52.716Zm1.638-.09a3.012,3.012,0,0,1,3.042-3.24,4.934,4.934,0,0,1,2.178.558V55a4.1,4.1,0,0,1-2.3.756A2.885,2.885,0,0,1,260.172,52.626Zm11.484,4.1.036-.018a5,5,0,0,0,2.178.486,4.48,4.48,0,0,0,4.626-4.662,4.317,4.317,0,0,0-4.284-4.59,4.369,4.369,0,0,0-2.52.792l-.036-.018v-.576h-1.62V60.96h1.62Zm0-1.566v-4.95a3.692,3.692,0,0,1,2.286-.81,3,3,0,0,1,2.916,3.258,2.9,2.9,0,0,1-2.952,3.114A4.874,4.874,0,0,1,271.656,55.164Zm8.658-2.592a4.68,4.68,0,1,0,4.68-4.626A4.559,4.559,0,0,0,280.314,52.572Zm1.62,0a3.061,3.061,0,1,1,3.06,3.15A3.034,3.034,0,0,1,281.934,52.572Zm9.828-7.47a1.134,1.134,0,1,0,1.134-1.134A1.129,1.129,0,0,0,291.762,45.1Zm.324,11.9h1.62V48.144h-1.62Zm4.644,0h1.62V50.934a3.729,3.729,0,0,1,2.772-1.476,1.836,1.836,0,0,1,1.422.576,2.745,2.745,0,0,1,.414,1.8V57h1.62V51.528a3.587,3.587,0,0,0-.738-2.61,3.063,3.063,0,0,0-2.358-.972,4.391,4.391,0,0,0-3.1,1.332l-.036-.018V48.144h-1.62Zm12.186-.63a2.572,2.572,0,0,0,2.016.828,3.94,3.94,0,0,0,1.6-.324v-1.53a2.681,2.681,0,0,1-1.332.378c-1.17,0-1.332-1.008-1.332-2.106V49.6h2.664V48.144H309.87V45.462l-1.62.27v2.412h-1.638V49.6h1.638v4.32A3.494,3.494,0,0,0,308.916,56.37Zm5.58.108a7.446,7.446,0,0,0,3.312.72c1.89,0,3.726-.774,3.726-2.826,0-1.836-1.4-2.3-3.1-2.592-1.314-.234-2.574-.234-2.574-1.242,0-.792.792-1.134,1.926-1.134a6.726,6.726,0,0,1,3.24.864v-1.62a7.169,7.169,0,0,0-3.168-.7c-2.052,0-3.618.882-3.636,2.718,0,1.746,1.332,2.25,3.024,2.538,1.368.234,2.646.252,2.646,1.314,0,.864-.792,1.224-2.016,1.224a6.477,6.477,0,0,1-3.384-.954ZM330.57,57h1.62l1.386-3.8c.306-.81.612-1.71.864-2.484h.036c.252.774.558,1.674.864,2.484l1.386,3.8h1.6l3.078-8.856h-1.692L338.4,52.1c-.306.918-.594,1.818-.864,2.718H337.5c-.306-.9-.63-1.818-.972-2.736l-1.458-3.942h-1.152l-1.458,3.942c-.324.882-.666,1.836-.972,2.736h-.036c-.288-.918-.576-1.818-.882-2.736l-1.314-3.942h-1.764Zm20.25-3.96a5.553,5.553,0,0,0,.054-.81,3.963,3.963,0,0,0-4.032-4.284,4.414,4.414,0,0,0-4.41,4.626A4.514,4.514,0,0,0,347.22,57.2a6.269,6.269,0,0,0,3.168-.828V54.642a5.047,5.047,0,0,1-3.06,1.1,3.034,3.034,0,0,1-3.276-2.7ZM346.806,49.4a2.4,2.4,0,0,1,2.5,2.358h-5.22A2.705,2.705,0,0,1,346.806,49.4Zm6.552,7.6h1.62V51.24a2.9,2.9,0,0,1,2.61-1.566,2.6,2.6,0,0,1,.63.072v-1.6a2.195,2.195,0,0,0-.576-.072,3.228,3.228,0,0,0-2.628,1.386l-.036-.018v-1.3h-1.62ZM367.7,53.04a5.553,5.553,0,0,0,.054-.81,3.963,3.963,0,0,0-4.032-4.284,4.414,4.414,0,0,0-4.41,4.626A4.514,4.514,0,0,0,364.1,57.2a6.269,6.269,0,0,0,3.168-.828V54.642a5.047,5.047,0,0,1-3.06,1.1,3.034,3.034,0,0,1-3.276-2.7ZM363.69,49.4a2.4,2.4,0,0,1,2.5,2.358h-5.22A2.705,2.705,0,0,1,363.69,49.4Zm12.438,6.966a2.572,2.572,0,0,0,2.016.828,3.94,3.94,0,0,0,1.6-.324v-1.53a2.681,2.681,0,0,1-1.332.378c-1.17,0-1.332-1.008-1.332-2.106V49.6h2.664V48.144h-2.664V45.462l-1.62.27v2.412h-1.638V49.6h1.638v4.32A3.494,3.494,0,0,0,376.128,56.37Zm5-3.8a4.68,4.68,0,1,0,4.68-4.626A4.559,4.559,0,0,0,381.132,52.572Zm1.62,0a3.061,3.061,0,1,1,3.06,3.15A3.034,3.034,0,0,1,382.752,52.572ZM409.626,57h1.62V51.474a3.6,3.6,0,0,0-.738-2.592,3.022,3.022,0,0,0-2.322-.936,4.8,4.8,0,0,0-3.366,1.53,2.929,2.929,0,0,0-2.718-1.53,4.263,4.263,0,0,0-3.006,1.3l-.036-.018v-1.08h-1.62V57h1.62V50.844a3.756,3.756,0,0,1,2.7-1.386,1.707,1.707,0,0,1,1.35.558,2.446,2.446,0,0,1,.414,1.746V57h1.62V51.474c0-.216,0-.432-.018-.63a3.856,3.856,0,0,1,2.7-1.386,1.778,1.778,0,0,1,1.35.54,2.6,2.6,0,0,1,.45,1.764Zm12.384-3.96a5.553,5.553,0,0,0,.054-.81,3.963,3.963,0,0,0-4.032-4.284,4.414,4.414,0,0,0-4.41,4.626A4.514,4.514,0,0,0,418.41,57.2a6.269,6.269,0,0,0,3.168-.828V54.642a5.047,5.047,0,0,1-3.06,1.1,3.034,3.034,0,0,1-3.276-2.7ZM418,49.4a2.4,2.4,0,0,1,2.5,2.358h-5.22A2.705,2.705,0,0,1,418,49.4Zm9,7.794a4.2,4.2,0,0,0,2.718-.972h.036a1.882,1.882,0,0,0,1.71.936,2.308,2.308,0,0,0,.864-.162V55.65a1.239,1.239,0,0,1-.522.126c-.486,0-.684-.4-.684-.936V51.078a2.984,2.984,0,0,0-.882-2.322,3.85,3.85,0,0,0-2.646-.81,5.575,5.575,0,0,0-2.952.756v1.584a4.617,4.617,0,0,1,2.718-.882,2.4,2.4,0,0,1,1.638.486,1.914,1.914,0,0,1,.5,1.458v.738a7.761,7.761,0,0,0-1.89-.234,4.624,4.624,0,0,0-2.484.594,2.461,2.461,0,0,0-1.17,2.16,2.359,2.359,0,0,0,.936,1.962A3.535,3.535,0,0,0,427,57.2Zm.288-1.44c-.954,0-1.692-.432-1.692-1.3,0-1.044,1.08-1.368,2.178-1.368a6.678,6.678,0,0,1,1.728.234v1.656A3.692,3.692,0,0,1,427.284,55.758Zm6.768.72a7.446,7.446,0,0,0,3.312.72c1.89,0,3.726-.774,3.726-2.826,0-1.836-1.4-2.3-3.1-2.592-1.314-.234-2.574-.234-2.574-1.242,0-.792.792-1.134,1.926-1.134a6.726,6.726,0,0,1,3.24.864v-1.62a7.169,7.169,0,0,0-3.168-.7c-2.052,0-3.618.882-3.636,2.718,0,1.746,1.332,2.25,3.024,2.538,1.368.234,2.646.252,2.646,1.314,0,.864-.792,1.224-2.016,1.224a6.477,6.477,0,0,1-3.384-.954Zm10.1-.27a3.166,3.166,0,0,0,2.412.99,4.34,4.34,0,0,0,3.06-1.332l.036.018V57h1.62V48.144h-1.62v6.048a3.787,3.787,0,0,1-2.772,1.512,1.728,1.728,0,0,1-1.4-.612,2.678,2.678,0,0,1-.432-1.836V48.144h-1.62v5.418A3.846,3.846,0,0,0,444.15,56.208ZM454.3,57h1.62V51.24a2.9,2.9,0,0,1,2.61-1.566,2.6,2.6,0,0,1,.63.072v-1.6a2.195,2.195,0,0,0-.576-.072,3.228,3.228,0,0,0-2.628,1.386l-.036-.018v-1.3H454.3Zm14.346-3.96a5.553,5.553,0,0,0,.054-.81,3.963,3.963,0,0,0-4.032-4.284,4.414,4.414,0,0,0-4.41,4.626,4.514,4.514,0,0,0,4.788,4.626,6.269,6.269,0,0,0,3.168-.828V54.642a5.047,5.047,0,0,1-3.06,1.1,3.034,3.034,0,0,1-3.276-2.7ZM464.634,49.4a2.4,2.4,0,0,1,2.5,2.358h-5.22A2.705,2.705,0,0,1,464.634,49.4Zm12.438,6.966a2.572,2.572,0,0,0,2.016.828,3.94,3.94,0,0,0,1.6-.324v-1.53a2.681,2.681,0,0,1-1.332.378c-1.17,0-1.332-1.008-1.332-2.106V49.6h2.664V48.144h-2.664V45.462l-1.62.27v2.412h-1.638V49.6h1.638v4.32A3.494,3.494,0,0,0,477.072,56.37ZM482.9,57h1.62V50.934a3.866,3.866,0,0,1,2.826-1.476,1.683,1.683,0,0,1,1.35.576,2.508,2.508,0,0,1,.432,1.8V57h1.62V51.528a3.587,3.587,0,0,0-.738-2.61,3.063,3.063,0,0,0-2.358-.972,4.391,4.391,0,0,0-3.1,1.332l-.036-.018V43.248H482.9Zm18.612-3.96a5.553,5.553,0,0,0,.054-.81,3.963,3.963,0,0,0-4.032-4.284,4.414,4.414,0,0,0-4.41,4.626,4.514,4.514,0,0,0,4.788,4.626,6.269,6.269,0,0,0,3.168-.828V54.642a5.047,5.047,0,0,1-3.06,1.1,3.034,3.034,0,0,1-3.276-2.7ZM497.5,49.4a2.4,2.4,0,0,1,2.5,2.358h-5.22A2.705,2.705,0,0,1,497.5,49.4ZM8.262,84.858a4.123,4.123,0,0,1-2.556.864,3.051,3.051,0,0,1-3.258-3.1,3.1,3.1,0,0,1,3.2-3.2,4.669,4.669,0,0,1,2.466.756V78.5a5.339,5.339,0,0,0-2.394-.558A4.683,4.683,0,0,0,.81,82.626,4.538,4.538,0,0,0,5.616,87.2a5.722,5.722,0,0,0,2.646-.612ZM10.782,87H12.4V80.934a3.866,3.866,0,0,1,2.826-1.476,1.683,1.683,0,0,1,1.35.576,2.508,2.508,0,0,1,.432,1.8V87h1.62V81.528a3.587,3.587,0,0,0-.738-2.61,3.063,3.063,0,0,0-2.358-.972,4.391,4.391,0,0,0-3.1,1.332L12.4,79.26V73.248h-1.62Zm13.284.2a4.2,4.2,0,0,0,2.718-.972h.036a1.882,1.882,0,0,0,1.71.936A2.308,2.308,0,0,0,29.394,87V85.65a1.239,1.239,0,0,1-.522.126c-.486,0-.684-.4-.684-.936V81.078a2.984,2.984,0,0,0-.882-2.322,3.85,3.85,0,0,0-2.646-.81,5.575,5.575,0,0,0-2.952.756v1.584a4.617,4.617,0,0,1,2.718-.882,2.4,2.4,0,0,1,1.638.486,1.914,1.914,0,0,1,.5,1.458v.738a7.761,7.761,0,0,0-1.89-.234,4.624,4.624,0,0,0-2.484.594,2.461,2.461,0,0,0-1.17,2.16,2.359,2.359,0,0,0,.936,1.962A3.535,3.535,0,0,0,24.066,87.2Zm.288-1.44c-.954,0-1.692-.432-1.692-1.3,0-1.044,1.08-1.368,2.178-1.368a6.678,6.678,0,0,1,1.728.234v1.656A3.692,3.692,0,0,1,24.354,85.758ZM31.374,87h1.62V80.934a3.729,3.729,0,0,1,2.772-1.476,1.836,1.836,0,0,1,1.422.576,2.745,2.745,0,0,1,.414,1.8V87h1.62V81.528a3.587,3.587,0,0,0-.738-2.61,3.063,3.063,0,0,0-2.358-.972,4.391,4.391,0,0,0-3.1,1.332l-.036-.018V78.144h-1.62ZM42.8,90.492a6.274,6.274,0,0,0,2.808.666c2.718,0,4.446-1.6,4.446-4.194V78.18l-1.566.27a5.069,5.069,0,0,0-2.25-.5,4.445,4.445,0,0,0-4.59,4.644,4.273,4.273,0,0,0,4.338,4.428,4.382,4.382,0,0,0,2.412-.684l.036.018V87a2.573,2.573,0,0,1-2.826,2.682,5.166,5.166,0,0,1-2.808-.918Zm.486-8.01a2.9,2.9,0,0,1,2.916-3.1A4.567,4.567,0,0,1,48.438,80v4.878a3.742,3.742,0,0,1-2.214.72A2.915,2.915,0,0,1,43.29,82.482Zm17.586.558a5.554,5.554,0,0,0,.054-.81A3.963,3.963,0,0,0,56.9,77.946a4.414,4.414,0,0,0-4.41,4.626A4.514,4.514,0,0,0,57.276,87.2a6.27,6.27,0,0,0,3.168-.828V84.642a5.047,5.047,0,0,1-3.06,1.1,3.034,3.034,0,0,1-3.276-2.7ZM56.862,79.4a2.4,2.4,0,0,1,2.5,2.358h-5.22A2.705,2.705,0,0,1,56.862,79.4Zm10.764-4.3a1.134,1.134,0,1,0,1.134-1.134A1.129,1.129,0,0,0,67.626,75.1ZM67.95,87h1.62V78.144H67.95Zm4.644,0h1.62V80.934a3.729,3.729,0,0,1,2.772-1.476,1.836,1.836,0,0,1,1.422.576,2.745,2.745,0,0,1,.414,1.8V87h1.62V81.528a3.587,3.587,0,0,0-.738-2.61,3.063,3.063,0,0,0-2.358-.972,4.391,4.391,0,0,0-3.1,1.332l-.036-.018V78.144h-1.62Zm15.372,0,1.566-.27a5.784,5.784,0,0,0,2.214.468,4.583,4.583,0,0,0,4.7-4.752,4.288,4.288,0,0,0-4.32-4.5,4.691,4.691,0,0,0-2.5.72l-.036-.018v-5.4h-1.62Zm1.62-1.8V80.232a3.65,3.65,0,0,1,2.34-.828,2.888,2.888,0,0,1,2.88,3.132,3.006,3.006,0,0,1-3.006,3.24A4.76,4.76,0,0,1,89.586,85.2Zm9.27,1.8h1.62V73.248h-1.62Zm4.032-4.428a4.68,4.68,0,1,0,4.68-4.626A4.559,4.559,0,0,0,102.888,82.572Zm1.62,0a3.061,3.061,0,1,1,3.06,3.15A3.034,3.034,0,0,1,104.508,82.572Zm9.54,0a4.68,4.68,0,1,0,4.68-4.626A4.559,4.559,0,0,0,114.048,82.572Zm1.62,0a3.061,3.061,0,1,1,3.06,3.15A3.034,3.034,0,0,1,115.668,82.572Zm9.576.144a4.367,4.367,0,0,0,6.822,3.726l.036.018V87h1.62V73.248H132.1V78.4l-.036.018a5.078,5.078,0,0,0-2.124-.468A4.566,4.566,0,0,0,125.244,82.716Zm1.638-.09a3.012,3.012,0,0,1,3.042-3.24,4.934,4.934,0,0,1,2.178.558V85a4.1,4.1,0,0,1-2.3.756A2.885,2.885,0,0,1,126.882,82.626ZM141.282,87h1.62V73.248h-1.62Zm12.42-3.96a5.555,5.555,0,0,0,.054-.81,3.963,3.963,0,0,0-4.032-4.284,4.414,4.414,0,0,0-4.41,4.626A4.514,4.514,0,0,0,150.1,87.2a6.27,6.27,0,0,0,3.168-.828V84.642a5.047,5.047,0,0,1-3.06,1.1,3.034,3.034,0,0,1-3.276-2.7ZM149.688,79.4a2.4,2.4,0,0,1,2.5,2.358h-5.22A2.705,2.705,0,0,1,149.688,79.4Zm8.856,7.6h1.62l3.708-8.856H162.18l-1.6,3.888c-.414,1.008-.792,1.944-1.188,2.952h-.036c-.378-.972-.738-1.872-1.134-2.844l-1.638-4h-1.764Zm14.634-3.96a5.555,5.555,0,0,0,.054-.81,3.963,3.963,0,0,0-4.032-4.284,4.414,4.414,0,0,0-4.41,4.626,4.514,4.514,0,0,0,4.788,4.626,6.27,6.27,0,0,0,3.168-.828V84.642a5.047,5.047,0,0,1-3.06,1.1,3.034,3.034,0,0,1-3.276-2.7ZM169.164,79.4a2.4,2.4,0,0,1,2.5,2.358h-5.22A2.705,2.705,0,0,1,169.164,79.4Zm6.552,7.6h1.62V73.248h-1.62Zm4.392-.522a7.446,7.446,0,0,0,3.312.72c1.89,0,3.726-.774,3.726-2.826,0-1.836-1.4-2.3-3.1-2.592-1.314-.234-2.574-.234-2.574-1.242,0-.792.792-1.134,1.926-1.134a6.726,6.726,0,0,1,3.24.864v-1.62a7.169,7.169,0,0,0-3.168-.7c-2.052,0-3.618.882-3.636,2.718,0,1.746,1.332,2.25,3.024,2.538,1.368.234,2.646.252,2.646,1.314,0,.864-.792,1.224-2.016,1.224a6.477,6.477,0,0,1-3.384-.954Zm13.338-3.906a4.68,4.68,0,1,0,4.68-4.626A4.559,4.559,0,0,0,193.446,82.572Zm1.62,0a3.061,3.061,0,1,1,3.06,3.15A3.034,3.034,0,0,1,195.066,82.572ZM205.668,87h1.62V79.6h2.268V78.144h-2.268V76.218c0-.936.2-1.692,1.314-1.692a6.043,6.043,0,0,1,1.26.162V73.23a5.172,5.172,0,0,0-1.332-.18,2.907,2.907,0,0,0-2.07.738,3.514,3.514,0,0,0-.792,2.664v1.692h-1.4V79.6h1.4Zm11.808-.63a2.572,2.572,0,0,0,2.016.828,3.94,3.94,0,0,0,1.6-.324v-1.53a2.681,2.681,0,0,1-1.332.378c-1.17,0-1.332-1.008-1.332-2.106V79.6h2.664V78.144H218.43V75.462l-1.62.27v2.412h-1.638V79.6h1.638v4.32A3.494,3.494,0,0,0,217.476,86.37Zm7.956.63h1.62l1.386-3.8c.306-.81.612-1.71.864-2.484h.036c.252.774.558,1.674.864,2.484l1.386,3.8h1.6l3.078-8.856h-1.692l-1.314,3.96c-.306.918-.594,1.818-.864,2.718h-.036c-.306-.9-.63-1.818-.972-2.736l-1.458-3.942H228.78l-1.458,3.942c-.324.882-.666,1.836-.972,2.736h-.036c-.288-.918-.576-1.818-.882-2.736l-1.314-3.942h-1.764Zm11.862-4.428a4.68,4.68,0,1,0,4.68-4.626A4.559,4.559,0,0,0,237.294,82.572Zm1.62,0a3.061,3.061,0,1,1,3.06,3.15A3.034,3.034,0,0,1,238.914,82.572ZM253.6,87h1.62V82.212l.036-.018L259.6,87h2.124l-4.482-4.9,4.05-3.96h-2.07l-3.96,3.906-.036-.018V73.248H253.6Zm9.684,0h1.62V80.934a3.729,3.729,0,0,1,2.772-1.476,1.836,1.836,0,0,1,1.422.576,2.745,2.745,0,0,1,.414,1.8V87h1.62V81.528a3.587,3.587,0,0,0-.738-2.61,3.063,3.063,0,0,0-2.358-.972,4.391,4.391,0,0,0-3.1,1.332l-.036-.018V78.144h-1.62Zm10.224-4.428a4.68,4.68,0,1,0,4.68-4.626A4.559,4.559,0,0,0,273.51,82.572Zm1.62,0a3.061,3.061,0,1,1,3.06,3.15A3.034,3.034,0,0,1,275.13,82.572ZM286.974,87h1.62l1.386-3.8c.306-.81.612-1.71.864-2.484h.036c.252.774.558,1.674.864,2.484L293.13,87h1.6l3.078-8.856h-1.692L294.8,82.1c-.306.918-.594,1.818-.864,2.718H293.9c-.306-.9-.63-1.818-.972-2.736l-1.458-3.942h-1.152l-1.458,3.942c-.324.882-.666,1.836-.972,2.736h-.036c-.288-.918-.576-1.818-.882-2.736l-1.314-3.942H283.9Zm12.906,0h1.62V80.934a3.729,3.729,0,0,1,2.772-1.476,1.836,1.836,0,0,1,1.422.576,2.745,2.745,0,0,1,.414,1.8V87h1.62V81.528a3.587,3.587,0,0,0-.738-2.61,3.063,3.063,0,0,0-2.358-.972,4.391,4.391,0,0,0-3.1,1.332l-.036-.018V78.144h-1.62ZM315,86.478a7.446,7.446,0,0,0,3.312.72c1.89,0,3.726-.774,3.726-2.826,0-1.836-1.4-2.3-3.1-2.592-1.314-.234-2.574-.234-2.574-1.242,0-.792.792-1.134,1.926-1.134a6.726,6.726,0,0,1,3.24.864v-1.62a7.169,7.169,0,0,0-3.168-.7c-2.052,0-3.618.882-3.636,2.718,0,1.746,1.332,2.25,3.024,2.538,1.368.234,2.646.252,2.646,1.314,0,.864-.792,1.224-2.016,1.224A6.477,6.477,0,0,1,315,84.786Zm10.1-.27a3.166,3.166,0,0,0,2.412.99,4.339,4.339,0,0,0,3.06-1.332l.036.018V87h1.62V78.144h-1.62v6.048a3.787,3.787,0,0,1-2.772,1.512,1.728,1.728,0,0,1-1.4-.612A2.678,2.678,0,0,1,326,83.256V78.144h-1.62v5.418A3.846,3.846,0,0,0,325.1,86.208ZM335.25,87l1.566-.27a5.784,5.784,0,0,0,2.214.468,4.583,4.583,0,0,0,4.7-4.752,4.288,4.288,0,0,0-4.32-4.5,4.691,4.691,0,0,0-2.5.72l-.036-.018v-5.4h-1.62Zm1.62-1.8V80.232a3.65,3.65,0,0,1,2.34-.828,2.888,2.888,0,0,1,2.88,3.132,3.006,3.006,0,0,1-3.006,3.24A4.76,4.76,0,0,1,336.87,85.2Zm9.018,1.278a7.446,7.446,0,0,0,3.312.72c1.89,0,3.726-.774,3.726-2.826,0-1.836-1.4-2.3-3.1-2.592-1.314-.234-2.574-.234-2.574-1.242,0-.792.792-1.134,1.926-1.134a6.726,6.726,0,0,1,3.24.864v-1.62a7.169,7.169,0,0,0-3.168-.7c-2.052,0-3.618.882-3.636,2.718,0,1.746,1.332,2.25,3.024,2.538,1.368.234,2.646.252,2.646,1.314,0,.864-.792,1.224-2.016,1.224a6.477,6.477,0,0,1-3.384-.954Zm10.764-.108a2.572,2.572,0,0,0,2.016.828,3.94,3.94,0,0,0,1.6-.324v-1.53a2.681,2.681,0,0,1-1.332.378c-1.17,0-1.332-1.008-1.332-2.106V79.6h2.664V78.144h-2.664V75.462l-1.62.27v2.412h-1.638V79.6h1.638v4.32A3.494,3.494,0,0,0,356.652,86.37Zm8.28.828a4.2,4.2,0,0,0,2.718-.972h.036a1.882,1.882,0,0,0,1.71.936A2.309,2.309,0,0,0,370.26,87V85.65a1.239,1.239,0,0,1-.522.126c-.486,0-.684-.4-.684-.936V81.078a2.984,2.984,0,0,0-.882-2.322,3.85,3.85,0,0,0-2.646-.81,5.575,5.575,0,0,0-2.952.756v1.584a4.617,4.617,0,0,1,2.718-.882,2.4,2.4,0,0,1,1.638.486,1.914,1.914,0,0,1,.5,1.458v.738a7.761,7.761,0,0,0-1.89-.234,4.624,4.624,0,0,0-2.484.594,2.461,2.461,0,0,0-1.17,2.16,2.359,2.359,0,0,0,.936,1.962A3.535,3.535,0,0,0,364.932,87.2Zm.288-1.44c-.954,0-1.692-.432-1.692-1.3,0-1.044,1.08-1.368,2.178-1.368a6.678,6.678,0,0,1,1.728.234v1.656A3.692,3.692,0,0,1,365.22,85.758ZM372.24,87h1.62V80.934a3.729,3.729,0,0,1,2.772-1.476,1.836,1.836,0,0,1,1.422.576,2.745,2.745,0,0,1,.414,1.8V87h1.62V81.528a3.587,3.587,0,0,0-.738-2.61,3.063,3.063,0,0,0-2.358-.972,4.391,4.391,0,0,0-3.1,1.332l-.036-.018V78.144h-1.62Zm17.676-2.142a4.123,4.123,0,0,1-2.556.864,3.051,3.051,0,0,1-3.258-3.1,3.1,3.1,0,0,1,3.2-3.2,4.669,4.669,0,0,1,2.466.756V78.5a5.339,5.339,0,0,0-2.394-.558,4.683,4.683,0,0,0-4.914,4.68A4.538,4.538,0,0,0,387.27,87.2a5.722,5.722,0,0,0,2.646-.612Zm10.26-1.818a5.553,5.553,0,0,0,.054-.81,3.963,3.963,0,0,0-4.032-4.284,4.414,4.414,0,0,0-4.41,4.626,4.514,4.514,0,0,0,4.788,4.626,6.27,6.27,0,0,0,3.168-.828V84.642a5.047,5.047,0,0,1-3.06,1.1,3.034,3.034,0,0,1-3.276-2.7ZM396.162,79.4a2.4,2.4,0,0,1,2.5,2.358h-5.22A2.705,2.705,0,0,1,396.162,79.4Zm6.3,7.074a7.446,7.446,0,0,0,3.312.72c1.89,0,3.726-.774,3.726-2.826,0-1.836-1.4-2.3-3.1-2.592-1.314-.234-2.574-.234-2.574-1.242,0-.792.792-1.134,1.926-1.134a6.726,6.726,0,0,1,3.24.864v-1.62a7.169,7.169,0,0,0-3.168-.7c-2.052,0-3.618.882-3.636,2.718,0,1.746,1.332,2.25,3.024,2.538,1.368.234,2.646.252,2.646,1.314,0,.864-.792,1.224-2.016,1.224a6.477,6.477,0,0,1-3.384-.954Zm13.95.522h1.62V81.24a2.9,2.9,0,0,1,2.61-1.566,2.6,2.6,0,0,1,.63.072v-1.6a2.195,2.195,0,0,0-.576-.072,3.228,3.228,0,0,0-2.628,1.386l-.036-.018v-1.3h-1.62Zm14.346-3.96a5.553,5.553,0,0,0,.054-.81,3.963,3.963,0,0,0-4.032-4.284,4.414,4.414,0,0,0-4.41,4.626,4.514,4.514,0,0,0,4.788,4.626,6.27,6.27,0,0,0,3.168-.828V84.642a5.047,5.047,0,0,1-3.06,1.1,3.034,3.034,0,0,1-3.276-2.7ZM426.744,79.4a2.4,2.4,0,0,1,2.5,2.358h-5.22A2.705,2.705,0,0,1,426.744,79.4ZM433.3,87h1.62V73.248H433.3Zm7.092.2a4.2,4.2,0,0,0,2.718-.972h.036a1.882,1.882,0,0,0,1.71.936,2.309,2.309,0,0,0,.864-.162V85.65a1.239,1.239,0,0,1-.522.126c-.486,0-.684-.4-.684-.936V81.078a2.984,2.984,0,0,0-.882-2.322,3.85,3.85,0,0,0-2.646-.81,5.575,5.575,0,0,0-2.952.756v1.584a4.617,4.617,0,0,1,2.718-.882,2.4,2.4,0,0,1,1.638.486,1.914,1.914,0,0,1,.5,1.458v.738a7.761,7.761,0,0,0-1.89-.234,4.624,4.624,0,0,0-2.484.594,2.461,2.461,0,0,0-1.17,2.16,2.359,2.359,0,0,0,.936,1.962A3.535,3.535,0,0,0,440.388,87.2Zm.288-1.44c-.954,0-1.692-.432-1.692-1.3,0-1.044,1.08-1.368,2.178-1.368a6.678,6.678,0,0,1,1.728.234v1.656A3.692,3.692,0,0,1,440.676,85.758Zm8.37.612a2.572,2.572,0,0,0,2.016.828,3.94,3.94,0,0,0,1.6-.324v-1.53a2.681,2.681,0,0,1-1.332.378c-1.17,0-1.332-1.008-1.332-2.106V79.6h2.664V78.144H450V75.462l-1.62.27v2.412h-1.638V79.6h1.638v4.32A3.494,3.494,0,0,0,449.046,86.37Zm13.392-3.33a5.553,5.553,0,0,0,.054-.81,3.963,3.963,0,0,0-4.032-4.284,4.414,4.414,0,0,0-4.41,4.626,4.514,4.514,0,0,0,4.788,4.626,6.27,6.27,0,0,0,3.168-.828V84.642a5.047,5.047,0,0,1-3.06,1.1,3.034,3.034,0,0,1-3.276-2.7ZM458.424,79.4a2.4,2.4,0,0,1,2.5,2.358h-5.22A2.705,2.705,0,0,1,458.424,79.4Zm5.976,3.312a4.367,4.367,0,0,0,6.822,3.726l.036.018V87h1.62V73.248h-1.62V78.4l-.036.018a5.078,5.078,0,0,0-2.124-.468A4.566,4.566,0,0,0,464.4,82.716Zm1.638-.09a3.012,3.012,0,0,1,3.042-3.24,4.934,4.934,0,0,1,2.178.558V85a4.1,4.1,0,0,1-2.3.756A2.885,2.885,0,0,1,466.038,82.626Zm15.75,3.744a2.572,2.572,0,0,0,2.016.828,3.94,3.94,0,0,0,1.6-.324v-1.53a2.681,2.681,0,0,1-1.332.378c-1.17,0-1.332-1.008-1.332-2.106V79.6h2.664V78.144h-2.664V75.462l-1.62.27v2.412h-1.638V79.6h1.638v4.32A3.494,3.494,0,0,0,481.788,86.37Zm5-3.8a4.68,4.68,0,1,0,4.68-4.626A4.559,4.559,0,0,0,486.792,82.572Zm1.62,0a3.061,3.061,0,1,1,3.06,3.15A3.034,3.034,0,0,1,488.412,82.572ZM501.768,87h1.746l1.476-3.636h5.868L512.316,87h1.836L508.77,73.968h-1.638Zm4.878-7.776c.45-1.116.882-2.214,1.278-3.276h.036c.4,1.062.828,2.178,1.242,3.222l1.062,2.7h-4.68ZM515.88,87h7.866V85.452H517.59V73.968h-1.71Zm10.026,0h1.71V81.852h1.35a8.47,8.47,0,0,0,4.32-.738,3.673,3.673,0,0,0,1.764-3.24,3.509,3.509,0,0,0-1.89-3.222,7.8,7.8,0,0,0-3.852-.684h-3.4Zm1.71-6.642V75.516h1.548a6.662,6.662,0,0,1,2.97.414,2.293,2.293,0,0,1,.162,3.942,5.928,5.928,0,0,1-3.114.486ZM3.87,117.2a4.2,4.2,0,0,0,2.718-.972h.036a1.882,1.882,0,0,0,1.71.936A2.308,2.308,0,0,0,9.2,117v-1.35a1.239,1.239,0,0,1-.522.126c-.486,0-.684-.4-.684-.936v-3.762a2.984,2.984,0,0,0-.882-2.322,3.85,3.85,0,0,0-2.646-.81,5.575,5.575,0,0,0-2.952.756v1.584A4.617,4.617,0,0,1,4.23,109.4a2.4,2.4,0,0,1,1.638.486,1.914,1.914,0,0,1,.5,1.458v.738a7.761,7.761,0,0,0-1.89-.234A4.624,4.624,0,0,0,2,112.446a2.461,2.461,0,0,0-1.17,2.16,2.359,2.359,0,0,0,.936,1.962A3.535,3.535,0,0,0,3.87,117.2Zm.288-1.44c-.954,0-1.692-.432-1.692-1.3,0-1.044,1.08-1.368,2.178-1.368a6.678,6.678,0,0,1,1.728.234v1.656A3.692,3.692,0,0,1,4.158,115.758Zm13.86-.9a4.123,4.123,0,0,1-2.556.864,3.051,3.051,0,0,1-3.258-3.1,3.1,3.1,0,0,1,3.2-3.2,4.669,4.669,0,0,1,2.466.756V108.5a5.339,5.339,0,0,0-2.394-.558,4.683,4.683,0,0,0-4.914,4.68,4.538,4.538,0,0,0,4.806,4.572,5.722,5.722,0,0,0,2.646-.612Zm3.87,1.512a2.572,2.572,0,0,0,2.016.828,3.94,3.94,0,0,0,1.6-.324v-1.53a2.681,2.681,0,0,1-1.332.378c-1.17,0-1.332-1.008-1.332-2.106V109.6h2.664v-1.458H22.842v-2.682l-1.62.27v2.412H19.584V109.6h1.638v4.32A3.494,3.494,0,0,0,21.888,116.37ZM27.4,105.1a1.134,1.134,0,1,0,1.134-1.134A1.129,1.129,0,0,0,27.4,105.1ZM27.72,117h1.62v-8.856H27.72Zm7.344,0h1.62l3.708-8.856H38.7l-1.6,3.888c-.414,1.008-.792,1.944-1.188,2.952h-.036c-.378-.972-.738-1.872-1.134-2.844l-1.638-4H31.338Zm7-11.9a1.134,1.134,0,1,0,1.134-1.134A1.129,1.129,0,0,0,42.066,105.1ZM42.39,117h1.62v-8.856H42.39Zm5.994-.63a2.572,2.572,0,0,0,2.016.828,3.94,3.94,0,0,0,1.6-.324v-1.53a2.681,2.681,0,0,1-1.332.378c-1.17,0-1.332-1.008-1.332-2.106V109.6H52v-1.458H49.338v-2.682l-1.62.27v2.412H46.08V109.6h1.638v4.32A3.494,3.494,0,0,0,48.384,116.37Zm7.866,4.59,5.994-12.816h-1.71l-1.548,3.348c-.414.9-.81,1.782-1.206,2.664h-.036c-.36-.81-.792-1.764-1.206-2.664l-1.548-3.348h-1.8l3.69,7.9-2.394,4.914ZM71.28,117.2A4.2,4.2,0,0,0,74,116.226h.036a1.882,1.882,0,0,0,1.71.936,2.308,2.308,0,0,0,.864-.162v-1.35a1.239,1.239,0,0,1-.522.126c-.486,0-.684-.4-.684-.936v-3.762a2.984,2.984,0,0,0-.882-2.322,3.85,3.85,0,0,0-2.646-.81,5.575,5.575,0,0,0-2.952.756v1.584a4.617,4.617,0,0,1,2.718-.882,2.4,2.4,0,0,1,1.638.486,1.914,1.914,0,0,1,.5,1.458v.738a7.761,7.761,0,0,0-1.89-.234,4.624,4.624,0,0,0-2.484.594,2.461,2.461,0,0,0-1.17,2.16,2.359,2.359,0,0,0,.936,1.962A3.535,3.535,0,0,0,71.28,117.2Zm.288-1.44c-.954,0-1.692-.432-1.692-1.3,0-1.044,1.08-1.368,2.178-1.368a6.678,6.678,0,0,1,1.728.234v1.656A3.692,3.692,0,0,1,71.568,115.758Zm8.37.612a2.572,2.572,0,0,0,2.016.828,3.94,3.94,0,0,0,1.6-.324v-1.53a2.681,2.681,0,0,1-1.332.378c-1.17,0-1.332-1.008-1.332-2.106V109.6h2.664v-1.458H80.892v-2.682l-1.62.27v2.412H77.634V109.6h1.638v4.32A3.494,3.494,0,0,0,79.938,116.37Zm14.364-12.4-2.916,4.7c-1.17,1.89-1.584,3.006-1.584,4.23a4.435,4.435,0,0,0,8.856.18,3.867,3.867,0,0,0-3.96-3.942,3.359,3.359,0,0,0-1.98.576l-.036-.018c.126-.234.306-.522.486-.792l3.1-4.932Zm-2.772,9.09a2.591,2.591,0,0,1,2.754-2.484,2.552,2.552,0,0,1,2.682,2.556,2.581,2.581,0,0,1-2.718,2.556A2.662,2.662,0,0,1,91.53,113.058ZM117.99,117h1.62v-5.526a3.6,3.6,0,0,0-.738-2.592,3.022,3.022,0,0,0-2.322-.936,4.8,4.8,0,0,0-3.366,1.53,2.929,2.929,0,0,0-2.718-1.53,4.264,4.264,0,0,0-3.006,1.3l-.036-.018v-1.08H105.8V117h1.62v-6.156a3.756,3.756,0,0,1,2.7-1.386,1.707,1.707,0,0,1,1.35.558,2.446,2.446,0,0,1,.414,1.746V117h1.62v-5.526c0-.216,0-.432-.018-.63a3.856,3.856,0,0,1,2.7-1.386,1.778,1.778,0,0,1,1.35.54,2.6,2.6,0,0,1,.45,1.764Zm4-4.428a4.68,4.68,0,1,0,4.68-4.626A4.559,4.559,0,0,0,121.986,112.572Zm1.62,0a3.061,3.061,0,1,1,3.06,3.15A3.034,3.034,0,0,1,123.606,112.572ZM133.758,117h1.62v-6.066a3.729,3.729,0,0,1,2.772-1.476,1.836,1.836,0,0,1,1.422.576,2.745,2.745,0,0,1,.414,1.8V117h1.62v-5.472a3.587,3.587,0,0,0-.738-2.61,3.063,3.063,0,0,0-2.358-.972,4.391,4.391,0,0,0-3.1,1.332l-.036-.018v-1.116h-1.62Zm12.186-.63a2.572,2.572,0,0,0,2.016.828,3.94,3.94,0,0,0,1.6-.324v-1.53a2.681,2.681,0,0,1-1.332.378c-1.17,0-1.332-1.008-1.332-2.106V109.6h2.664v-1.458H146.9v-2.682l-1.62.27v2.412H143.64V109.6h1.638v4.32A3.494,3.494,0,0,0,145.944,116.37Zm5.832.63h1.62v-6.066a3.866,3.866,0,0,1,2.826-1.476,1.683,1.683,0,0,1,1.35.576,2.508,2.508,0,0,1,.432,1.8V117h1.62v-5.472a3.587,3.587,0,0,0-.738-2.61,3.063,3.063,0,0,0-2.358-.972,4.391,4.391,0,0,0-3.1,1.332l-.036-.018v-6.012h-1.62Zm10.584-.522a7.446,7.446,0,0,0,3.312.72c1.89,0,3.726-.774,3.726-2.826,0-1.836-1.4-2.3-3.1-2.592-1.314-.234-2.574-.234-2.574-1.242,0-.792.792-1.134,1.926-1.134a6.726,6.726,0,0,1,3.24.864v-1.62a7.169,7.169,0,0,0-3.168-.7c-2.052,0-3.618.882-3.636,2.718,0,1.746,1.332,2.25,3.024,2.538,1.368.234,2.646.252,2.646,1.314,0,.864-.792,1.224-2.016,1.224a6.477,6.477,0,0,1-3.384-.954ZM173,110.286a1.17,1.17,0,1,0-1.17-1.17A1.168,1.168,0,0,0,173,110.286Zm-1.17,5.742a1.17,1.17,0,1,0,1.17-1.17A1.168,1.168,0,0,0,171.828,116.028Zm9.99.972h1.71v-5.148h1.35a8.47,8.47,0,0,0,4.32-.738,3.673,3.673,0,0,0,1.764-3.24,3.509,3.509,0,0,0-1.89-3.222,7.8,7.8,0,0,0-3.852-.684h-3.4Zm1.71-6.642v-4.842h1.548a6.662,6.662,0,0,1,2.97.414,2.293,2.293,0,0,1,.162,3.942,5.928,5.928,0,0,1-3.114.486ZM193.194,117h1.71v-5.148h1.35a8.47,8.47,0,0,0,4.32-.738,3.673,3.673,0,0,0,1.764-3.24,3.509,3.509,0,0,0-1.89-3.222,7.8,7.8,0,0,0-3.852-.684h-3.4Zm1.71-6.642v-4.842h1.548a6.662,6.662,0,0,1,2.97.414,2.293,2.293,0,0,1,.162,3.942,5.928,5.928,0,0,1-3.114.486Zm9.306-5.256a1.134,1.134,0,1,0,1.134-1.134A1.129,1.129,0,0,0,204.21,105.1Zm.324,11.9h1.62v-8.856h-1.62Zm11.628.2a4.2,4.2,0,0,0,2.718-.972h.036a1.882,1.882,0,0,0,1.71.936,2.309,2.309,0,0,0,.864-.162v-1.35a1.239,1.239,0,0,1-.522.126c-.486,0-.684-.4-.684-.936v-3.762a2.984,2.984,0,0,0-.882-2.322,3.85,3.85,0,0,0-2.646-.81,5.575,5.575,0,0,0-2.952.756v1.584a4.617,4.617,0,0,1,2.718-.882,2.4,2.4,0,0,1,1.638.486,1.914,1.914,0,0,1,.5,1.458v.738a7.761,7.761,0,0,0-1.89-.234,4.624,4.624,0,0,0-2.484.594,2.461,2.461,0,0,0-1.17,2.16,2.359,2.359,0,0,0,.936,1.962A3.535,3.535,0,0,0,216.162,117.2Zm.288-1.44c-.954,0-1.692-.432-1.692-1.3,0-1.044,1.08-1.368,2.178-1.368a6.678,6.678,0,0,1,1.728.234v1.656A3.692,3.692,0,0,1,216.45,115.758ZM223.47,117h1.62v-6.066a3.729,3.729,0,0,1,2.772-1.476,1.836,1.836,0,0,1,1.422.576,2.745,2.745,0,0,1,.414,1.8V117h1.62v-5.472a3.587,3.587,0,0,0-.738-2.61,3.063,3.063,0,0,0-2.358-.972,4.391,4.391,0,0,0-3.1,1.332l-.036-.018v-1.116h-1.62Zm10.26-4.284a4.367,4.367,0,0,0,6.822,3.726l.036.018V117h1.62V103.248h-1.62V108.4l-.036.018a5.078,5.078,0,0,0-2.124-.468A4.566,4.566,0,0,0,233.73,112.716Zm1.638-.09a3.012,3.012,0,0,1,3.042-3.24,4.934,4.934,0,0,1,2.178.558V115a4.1,4.1,0,0,1-2.3.756A2.885,2.885,0,0,1,235.368,112.626ZM249.8,117h1.71v-5.148h1.35a8.47,8.47,0,0,0,4.32-.738,3.673,3.673,0,0,0,1.764-3.24,3.509,3.509,0,0,0-1.89-3.222,7.8,7.8,0,0,0-3.852-.684h-3.4Zm1.71-6.642v-4.842h1.548a6.662,6.662,0,0,1,2.97.414,2.293,2.293,0,0,1,.162,3.942,5.928,5.928,0,0,1-3.114.486ZM261.18,117h7.866v-1.548H262.89V103.968h-1.71Zm10.026,0h1.71v-5.148h1.35a8.47,8.47,0,0,0,4.32-.738,3.673,3.673,0,0,0,1.764-3.24,3.509,3.509,0,0,0-1.89-3.222,7.8,7.8,0,0,0-3.852-.684h-3.4Zm1.71-6.642v-4.842h1.548a6.662,6.662,0,0,1,2.97.414,2.293,2.293,0,0,1,.162,3.942,5.928,5.928,0,0,1-3.114.486Zm7.218,5.652a1.188,1.188,0,1,0,1.188-1.188A1.2,1.2,0,0,0,280.134,116.01Zm12.258.99h1.854l2.07-6.606c.324-1.026.63-2.052.918-3.042h.036q.432,1.485.918,3.024L300.276,117h1.818l4.05-13.032h-1.728l-2.178,7.038c-.342,1.116-.7,2.3-1.026,3.42h-.036c-.342-1.152-.684-2.25-1.044-3.4l-2.214-7.056h-1.26l-2.214,7.038c-.36,1.152-.72,2.3-1.044,3.42h-.036c-.324-1.116-.684-2.3-1.026-3.4l-2.178-7.056h-1.818Zm15.57,0h1.62v-6.066a3.866,3.866,0,0,1,2.826-1.476,1.683,1.683,0,0,1,1.35.576,2.508,2.508,0,0,1,.432,1.8V117h1.62v-5.472a3.587,3.587,0,0,0-.738-2.61,3.063,3.063,0,0,0-2.358-.972,4.391,4.391,0,0,0-3.1,1.332l-.036-.018v-6.012h-1.62Zm10.512-11.9a1.134,1.134,0,1,0,1.134-1.134A1.129,1.129,0,0,0,318.474,105.1ZM318.8,117h1.62v-8.856H318.8Zm4.644,0h1.62V103.248h-1.62Zm12.42-3.96a5.553,5.553,0,0,0,.054-.81,3.963,3.963,0,0,0-4.032-4.284,4.414,4.414,0,0,0-4.41,4.626,4.514,4.514,0,0,0,4.788,4.626,6.27,6.27,0,0,0,3.168-.828v-1.728a5.047,5.047,0,0,1-3.06,1.1,3.034,3.034,0,0,1-3.276-2.7Zm-4.014-3.636a2.4,2.4,0,0,1,2.5,2.358h-5.22A2.705,2.705,0,0,1,331.848,109.4Zm12.438,6.966a2.572,2.572,0,0,0,2.016.828,3.94,3.94,0,0,0,1.6-.324v-1.53a2.681,2.681,0,0,1-1.332.378c-1.17,0-1.332-1.008-1.332-2.106V109.6H347.9v-1.458H345.24v-2.682l-1.62.27v2.412h-1.638V109.6h1.638v4.32A3.494,3.494,0,0,0,344.286,116.37Zm5.832.63h1.62v-6.066a3.866,3.866,0,0,1,2.826-1.476,1.683,1.683,0,0,1,1.35.576,2.508,2.508,0,0,1,.432,1.8V117h1.62v-5.472a3.587,3.587,0,0,0-.738-2.61,3.063,3.063,0,0,0-2.358-.972,4.391,4.391,0,0,0-3.1,1.332l-.036-.018v-6.012h-1.62Zm18.612-3.96a5.553,5.553,0,0,0,.054-.81,3.963,3.963,0,0,0-4.032-4.284,4.414,4.414,0,0,0-4.41,4.626,4.514,4.514,0,0,0,4.788,4.626,6.27,6.27,0,0,0,3.168-.828v-1.728a5.047,5.047,0,0,1-3.06,1.1,3.034,3.034,0,0,1-3.276-2.7Zm-4.014-3.636a2.4,2.4,0,0,1,2.5,2.358H362A2.705,2.705,0,0,1,364.716,109.4Zm17.928,5.454a4.123,4.123,0,0,1-2.556.864,3.051,3.051,0,0,1-3.258-3.1,3.1,3.1,0,0,1,3.2-3.2,4.669,4.669,0,0,1,2.466.756V108.5a5.339,5.339,0,0,0-2.394-.558,4.683,4.683,0,0,0-4.914,4.68A4.538,4.538,0,0,0,380,117.2a5.722,5.722,0,0,0,2.646-.612Zm1.872-2.286a4.68,4.68,0,1,0,4.68-4.626A4.559,4.559,0,0,0,384.516,112.572Zm1.62,0a3.061,3.061,0,1,1,3.06,3.15A3.034,3.034,0,0,1,386.136,112.572Zm9.756.162h4.284v-1.44h-4.284Zm8.532,4,.036-.018a5,5,0,0,0,2.178.486,4.48,4.48,0,0,0,4.626-4.662,4.317,4.317,0,0,0-4.284-4.59,4.369,4.369,0,0,0-2.52.792l-.036-.018v-.576H402.8V120.96h1.62Zm0-1.566v-4.95a3.692,3.692,0,0,1,2.286-.81,3,3,0,0,1,2.916,3.258,2.9,2.9,0,0,1-2.952,3.114A4.874,4.874,0,0,1,404.424,115.164Zm9.27,1.836h1.62v-5.76a2.9,2.9,0,0,1,2.61-1.566,2.6,2.6,0,0,1,.63.072v-1.6a2.195,2.195,0,0,0-.576-.072,3.228,3.228,0,0,0-2.628,1.386l-.036-.018v-1.3h-1.62Zm6.462-11.9a1.134,1.134,0,1,0,1.134-1.134A1.129,1.129,0,0,0,420.156,105.1Zm.324,11.9h1.62v-8.856h-1.62Zm16.83,0h1.62v-5.526a3.6,3.6,0,0,0-.738-2.592,3.022,3.022,0,0,0-2.322-.936,4.8,4.8,0,0,0-3.366,1.53,2.929,2.929,0,0,0-2.718-1.53,4.264,4.264,0,0,0-3.006,1.3l-.036-.018v-1.08h-1.62V117h1.62v-6.156a3.756,3.756,0,0,1,2.7-1.386,1.707,1.707,0,0,1,1.35.558,2.446,2.446,0,0,1,.414,1.746V117h1.62v-5.526c0-.216,0-.432-.018-.63a3.856,3.856,0,0,1,2.7-1.386,1.778,1.778,0,0,1,1.35.54,2.6,2.6,0,0,1,.45,1.764Zm7.056.2a4.2,4.2,0,0,0,2.718-.972h.036a1.882,1.882,0,0,0,1.71.936,2.308,2.308,0,0,0,.864-.162v-1.35a1.239,1.239,0,0,1-.522.126c-.486,0-.684-.4-.684-.936v-3.762a2.984,2.984,0,0,0-.882-2.322,3.85,3.85,0,0,0-2.646-.81,5.575,5.575,0,0,0-2.952.756v1.584a4.617,4.617,0,0,1,2.718-.882,2.4,2.4,0,0,1,1.638.486,1.914,1.914,0,0,1,.5,1.458v.738a7.761,7.761,0,0,0-1.89-.234,4.624,4.624,0,0,0-2.484.594,2.461,2.461,0,0,0-1.17,2.16,2.359,2.359,0,0,0,.936,1.962A3.535,3.535,0,0,0,444.366,117.2Zm.288-1.44c-.954,0-1.692-.432-1.692-1.3,0-1.044,1.08-1.368,2.178-1.368a6.678,6.678,0,0,1,1.728.234v1.656A3.692,3.692,0,0,1,444.654,115.758Zm7.02,1.242h1.62v-5.76a2.9,2.9,0,0,1,2.61-1.566,2.6,2.6,0,0,1,.63.072v-1.6a2.195,2.195,0,0,0-.576-.072,3.228,3.228,0,0,0-2.628,1.386l-.036-.018v-1.3h-1.62Zm8.91,3.96,5.994-12.816h-1.71l-1.548,3.348c-.414.9-.81,1.782-1.206,2.664h-.036c-.36-.81-.792-1.764-1.206-2.664l-1.548-3.348h-1.8l3.69,7.9-2.394,4.914Zm20.358-7.92a5.553,5.553,0,0,0,.054-.81,3.963,3.963,0,0,0-4.032-4.284,4.414,4.414,0,0,0-4.41,4.626,4.514,4.514,0,0,0,4.788,4.626,6.27,6.27,0,0,0,3.168-.828v-1.728a5.047,5.047,0,0,1-3.06,1.1,3.034,3.034,0,0,1-3.276-2.7Zm-4.014-3.636a2.4,2.4,0,0,1,2.5,2.358h-5.22A2.705,2.705,0,0,1,476.928,109.4Zm6.552,7.6h1.62v-6.066a3.729,3.729,0,0,1,2.772-1.476,1.836,1.836,0,0,1,1.422.576,2.745,2.745,0,0,1,.414,1.8V117h1.62v-5.472a3.587,3.587,0,0,0-.738-2.61,3.063,3.063,0,0,0-2.358-.972,4.391,4.391,0,0,0-3.1,1.332l-.036-.018v-1.116h-1.62Zm10.26-4.284a4.367,4.367,0,0,0,6.822,3.726l.036.018V117h1.62V103.248H500.6V108.4l-.036.018a5.078,5.078,0,0,0-2.124-.468A4.566,4.566,0,0,0,493.74,112.716Zm1.638-.09a3.012,3.012,0,0,1,3.042-3.24,4.934,4.934,0,0,1,2.178.558V115a4.1,4.1,0,0,1-2.3.756A2.885,2.885,0,0,1,495.378,112.626Zm11.484,4.1.036-.018a5,5,0,0,0,2.178.486,4.48,4.48,0,0,0,4.626-4.662,4.317,4.317,0,0,0-4.284-4.59,4.369,4.369,0,0,0-2.52.792l-.036-.018v-.576h-1.62V120.96h1.62Zm0-1.566v-4.95a3.692,3.692,0,0,1,2.286-.81,3,3,0,0,1,2.916,3.258,2.9,2.9,0,0,1-2.952,3.114A4.874,4.874,0,0,1,506.862,115.164Zm8.658-2.592a4.68,4.68,0,1,0,4.68-4.626A4.559,4.559,0,0,0,515.52,112.572Zm1.62,0a3.061,3.061,0,1,1,3.06,3.15A3.034,3.034,0,0,1,517.14,112.572Zm9.828-7.47a1.134,1.134,0,1,0,1.134-1.134A1.129,1.129,0,0,0,526.968,105.1Zm.324,11.9h1.62v-8.856h-1.62Zm4.644,0h1.62v-6.066a3.729,3.729,0,0,1,2.772-1.476,1.836,1.836,0,0,1,1.422.576,2.745,2.745,0,0,1,.414,1.8V117h1.62v-5.472a3.587,3.587,0,0,0-.738-2.61,3.063,3.063,0,0,0-2.358-.972,4.391,4.391,0,0,0-3.1,1.332l-.036-.018v-1.116h-1.62Zm12.186-.63a2.572,2.572,0,0,0,2.016.828,3.94,3.94,0,0,0,1.6-.324v-1.53a2.681,2.681,0,0,1-1.332.378c-1.17,0-1.332-1.008-1.332-2.106V109.6h2.664v-1.458h-2.664v-2.682l-1.62.27v2.412h-1.638V109.6h1.638v4.32A3.494,3.494,0,0,0,544.122,116.37ZM3.546,147h1.62l1.386-3.8c.306-.81.612-1.71.864-2.484h.036c.252.774.558,1.674.864,2.484L9.7,147h1.6l3.078-8.856H12.69l-1.314,3.96c-.306.918-.594,1.818-.864,2.718h-.036c-.306-.9-.63-1.818-.972-2.736l-1.458-3.942H6.894l-1.458,3.942c-.324.882-.666,1.836-.972,2.736H4.428c-.288-.918-.576-1.818-.882-2.736l-1.314-3.942H.468Zm14.94.2a4.2,4.2,0,0,0,2.718-.972h.036a1.882,1.882,0,0,0,1.71.936,2.308,2.308,0,0,0,.864-.162v-1.35a1.239,1.239,0,0,1-.522.126c-.486,0-.684-.4-.684-.936v-3.762a2.984,2.984,0,0,0-.882-2.322,3.85,3.85,0,0,0-2.646-.81,5.575,5.575,0,0,0-2.952.756v1.584a4.617,4.617,0,0,1,2.718-.882,2.4,2.4,0,0,1,1.638.486,1.914,1.914,0,0,1,.5,1.458v.738a7.761,7.761,0,0,0-1.89-.234,4.624,4.624,0,0,0-2.484.594,2.461,2.461,0,0,0-1.17,2.16,2.359,2.359,0,0,0,.936,1.962A3.535,3.535,0,0,0,18.486,147.2Zm.288-1.44c-.954,0-1.692-.432-1.692-1.3,0-1.044,1.08-1.368,2.178-1.368a6.678,6.678,0,0,1,1.728.234v1.656A3.692,3.692,0,0,1,18.774,145.758Zm6.768.72a7.446,7.446,0,0,0,3.312.72c1.89,0,3.726-.774,3.726-2.826,0-1.836-1.4-2.3-3.1-2.592-1.314-.234-2.574-.234-2.574-1.242,0-.792.792-1.134,1.926-1.134a6.726,6.726,0,0,1,3.24.864v-1.62a7.169,7.169,0,0,0-3.168-.7c-2.052,0-3.618.882-3.636,2.718,0,1.746,1.332,2.25,3.024,2.538,1.368.234,2.646.252,2.646,1.314,0,.864-.792,1.224-2.016,1.224a6.477,6.477,0,0,1-3.384-.954Zm13.95.522h1.62v-6.066a3.729,3.729,0,0,1,2.772-1.476,1.836,1.836,0,0,1,1.422.576,2.745,2.745,0,0,1,.414,1.8V147h1.62v-5.472a3.587,3.587,0,0,0-.738-2.61,3.063,3.063,0,0,0-2.358-.972,4.391,4.391,0,0,0-3.1,1.332l-.036-.018v-1.116h-1.62Zm10.224-4.428a4.68,4.68,0,1,0,4.68-4.626A4.559,4.559,0,0,0,49.716,142.572Zm1.62,0a3.061,3.061,0,1,1,3.06,3.15A3.034,3.034,0,0,1,51.336,142.572Zm11.5,3.8a2.572,2.572,0,0,0,2.016.828,3.94,3.94,0,0,0,1.6-.324v-1.53a2.681,2.681,0,0,1-1.332.378c-1.17,0-1.332-1.008-1.332-2.106V139.6h2.664v-1.458H63.792v-2.682l-1.62.27v2.412H60.534V139.6h1.638v4.32A3.494,3.494,0,0,0,62.838,146.37Zm10.116.108a7.446,7.446,0,0,0,3.312.72c1.89,0,3.726-.774,3.726-2.826,0-1.836-1.4-2.3-3.1-2.592-1.314-.234-2.574-.234-2.574-1.242,0-.792.792-1.134,1.926-1.134a6.726,6.726,0,0,1,3.24.864v-1.62a7.169,7.169,0,0,0-3.168-.7c-2.052,0-3.618.882-3.636,2.718,0,1.746,1.332,2.25,3.024,2.538,1.368.234,2.646.252,2.646,1.314,0,.864-.792,1.224-2.016,1.224a6.477,6.477,0,0,1-3.384-.954Zm9.09-11.376a1.134,1.134,0,1,0,1.134-1.134A1.129,1.129,0,0,0,82.044,135.1Zm.324,11.9h1.62v-8.856h-1.62Zm5.238,3.492a6.274,6.274,0,0,0,2.808.666c2.718,0,4.446-1.6,4.446-4.194V138.18l-1.566.27a5.069,5.069,0,0,0-2.25-.5,4.445,4.445,0,0,0-4.59,4.644,4.273,4.273,0,0,0,4.338,4.428,4.382,4.382,0,0,0,2.412-.684l.036.018V147a2.573,2.573,0,0,1-2.826,2.682,5.166,5.166,0,0,1-2.808-.918Zm.486-8.01a2.9,2.9,0,0,1,2.916-3.1A4.567,4.567,0,0,1,93.24,140v4.878a3.742,3.742,0,0,1-2.214.72A2.915,2.915,0,0,1,88.092,142.482ZM97.9,147h1.62v-6.066a3.729,3.729,0,0,1,2.772-1.476,1.836,1.836,0,0,1,1.422.576,2.745,2.745,0,0,1,.414,1.8V147h1.62v-5.472a3.587,3.587,0,0,0-.738-2.61,3.063,3.063,0,0,0-2.358-.972,4.391,4.391,0,0,0-3.1,1.332l-.036-.018v-1.116H97.9Zm10.512-11.9a1.134,1.134,0,1,0,1.134-1.134A1.129,1.129,0,0,0,108.414,135.1Zm.324,11.9h1.62v-8.856h-1.62Zm5.094,0h1.62v-7.4h2.268v-1.458h-2.268v-1.926c0-.936.2-1.692,1.314-1.692a6.042,6.042,0,0,1,1.26.162V133.23a5.172,5.172,0,0,0-1.332-.18,2.907,2.907,0,0,0-2.07.738,3.514,3.514,0,0,0-.792,2.664v1.692h-1.4V139.6h1.4Zm5.6-11.9a1.134,1.134,0,1,0,1.134-1.134A1.129,1.129,0,0,0,119.43,135.1Zm.324,11.9h1.62v-8.856h-1.62Zm11.484-2.142a4.123,4.123,0,0,1-2.556.864,3.051,3.051,0,0,1-3.258-3.1,3.1,3.1,0,0,1,3.2-3.2,4.669,4.669,0,0,1,2.466.756V138.5a5.339,5.339,0,0,0-2.394-.558,4.683,4.683,0,0,0-4.914,4.68,4.538,4.538,0,0,0,4.806,4.572,5.722,5.722,0,0,0,2.646-.612Zm4.968,2.34a4.2,4.2,0,0,0,2.718-.972h.036a1.882,1.882,0,0,0,1.71.936,2.309,2.309,0,0,0,.864-.162v-1.35a1.239,1.239,0,0,1-.522.126c-.486,0-.684-.4-.684-.936v-3.762a2.984,2.984,0,0,0-.882-2.322,3.85,3.85,0,0,0-2.646-.81,5.575,5.575,0,0,0-2.952.756v1.584a4.617,4.617,0,0,1,2.718-.882,2.4,2.4,0,0,1,1.638.486,1.914,1.914,0,0,1,.5,1.458v.738a7.761,7.761,0,0,0-1.89-.234,4.624,4.624,0,0,0-2.484.594,2.461,2.461,0,0,0-1.17,2.16,2.359,2.359,0,0,0,.936,1.962A3.535,3.535,0,0,0,136.206,147.2Zm.288-1.44c-.954,0-1.692-.432-1.692-1.3,0-1.044,1.08-1.368,2.178-1.368a6.678,6.678,0,0,1,1.728.234v1.656A3.692,3.692,0,0,1,136.494,145.758Zm7.02,1.242h1.62v-6.066a3.729,3.729,0,0,1,2.772-1.476,1.836,1.836,0,0,1,1.422.576,2.745,2.745,0,0,1,.414,1.8V147h1.62v-5.472a3.587,3.587,0,0,0-.738-2.61,3.063,3.063,0,0,0-2.358-.972,4.391,4.391,0,0,0-3.1,1.332l-.036-.018v-1.116h-1.62Zm12.186-.63a2.572,2.572,0,0,0,2.016.828,3.94,3.94,0,0,0,1.6-.324v-1.53a2.681,2.681,0,0,1-1.332.378c-1.17,0-1.332-1.008-1.332-2.106V139.6h2.664v-1.458h-2.664v-2.682l-1.62.27v2.412H153.4V139.6h1.638v4.32A3.494,3.494,0,0,0,155.7,146.37Zm5.418,3.276h1.188l1.458-5.094h-1.638Zm10.1-14.544a1.134,1.134,0,1,0,1.134-1.134A1.129,1.129,0,0,0,171.216,135.1Zm.324,11.9h1.62v-8.856h-1.62Zm4.644,0h1.62v-6.066a3.729,3.729,0,0,1,2.772-1.476,1.836,1.836,0,0,1,1.422.576,2.745,2.745,0,0,1,.414,1.8V147h1.62v-5.472a3.587,3.587,0,0,0-.738-2.61,3.063,3.063,0,0,0-2.358-.972,4.391,4.391,0,0,0-3.1,1.332l-.036-.018v-1.116h-1.62Zm10.26-4.284a4.367,4.367,0,0,0,6.822,3.726l.036.018V147h1.62V133.248H193.3V138.4l-.036.018a5.078,5.078,0,0,0-2.124-.468A4.566,4.566,0,0,0,186.444,142.716Zm1.638-.09a3.012,3.012,0,0,1,3.042-3.24,4.934,4.934,0,0,1,2.178.558V145a4.1,4.1,0,0,1-2.3.756A2.885,2.885,0,0,1,188.082,142.626Zm9.54-7.524a1.134,1.134,0,1,0,1.134-1.134A1.129,1.129,0,0,0,197.622,135.1Zm.324,11.9h1.62v-8.856h-1.62Zm7.344,0h1.62l3.708-8.856h-1.692l-1.6,3.888c-.414,1.008-.792,1.944-1.188,2.952H206.1c-.378-.972-.738-1.872-1.134-2.844l-1.638-4h-1.764Zm7-11.9a1.134,1.134,0,1,0,1.134-1.134A1.129,1.129,0,0,0,212.292,135.1Zm.324,11.9h1.62v-8.856h-1.62Zm4.068-4.284a4.367,4.367,0,0,0,6.822,3.726l.036.018V147h1.62V133.248h-1.62V138.4l-.036.018a5.078,5.078,0,0,0-2.124-.468A4.566,4.566,0,0,0,216.684,142.716Zm1.638-.09a3.012,3.012,0,0,1,3.042-3.24,4.934,4.934,0,0,1,2.178.558V145a4.1,4.1,0,0,1-2.3.756A2.885,2.885,0,0,1,218.322,142.626Zm10.548,3.582a3.166,3.166,0,0,0,2.412.99,4.339,4.339,0,0,0,3.06-1.332l.036.018V147H236v-8.856h-1.62v6.048a3.787,3.787,0,0,1-2.772,1.512,1.728,1.728,0,0,1-1.4-.612,2.678,2.678,0,0,1-.432-1.836v-5.112h-1.62v5.418A3.846,3.846,0,0,0,228.87,146.208Zm12.6.99a4.2,4.2,0,0,0,2.718-.972h.036a1.882,1.882,0,0,0,1.71.936A2.309,2.309,0,0,0,246.8,147v-1.35a1.239,1.239,0,0,1-.522.126c-.486,0-.684-.4-.684-.936v-3.762a2.984,2.984,0,0,0-.882-2.322,3.85,3.85,0,0,0-2.646-.81,5.575,5.575,0,0,0-2.952.756v1.584a4.617,4.617,0,0,1,2.718-.882,2.4,2.4,0,0,1,1.638.486,1.914,1.914,0,0,1,.5,1.458v.738a7.761,7.761,0,0,0-1.89-.234,4.624,4.624,0,0,0-2.484.594,2.461,2.461,0,0,0-1.17,2.16,2.359,2.359,0,0,0,.936,1.962A3.535,3.535,0,0,0,241.47,147.2Zm.288-1.44c-.954,0-1.692-.432-1.692-1.3,0-1.044,1.08-1.368,2.178-1.368a6.678,6.678,0,0,1,1.728.234v1.656A3.692,3.692,0,0,1,241.758,145.758Zm7.02,1.242h1.62V133.248h-1.62Zm4.644,0h1.62V133.248h-1.62Zm6.678,3.96,5.994-12.816h-1.71l-1.548,3.348c-.414.9-.81,1.782-1.206,2.664h-.036c-.36-.81-.792-1.764-1.206-2.664l-1.548-3.348h-1.8l3.69,7.9-2.394,4.914Zm5.922-1.314h1.188l1.458-5.094H267.03Zm11.772-3.276a2.572,2.572,0,0,0,2.016.828,3.94,3.94,0,0,0,1.6-.324v-1.53a2.681,2.681,0,0,1-1.332.378c-1.17,0-1.332-1.008-1.332-2.106V139.6h2.664v-1.458h-2.664v-2.682l-1.62.27v2.412H275.49V139.6h1.638v4.32A3.494,3.494,0,0,0,277.794,146.37Zm5.832.63h1.62v-6.066a3.866,3.866,0,0,1,2.826-1.476,1.683,1.683,0,0,1,1.35.576,2.508,2.508,0,0,1,.432,1.8V147h1.62v-5.472a3.587,3.587,0,0,0-.738-2.61,3.063,3.063,0,0,0-2.358-.972,4.391,4.391,0,0,0-3.1,1.332l-.036-.018v-6.012h-1.62Zm18.612-3.96a5.553,5.553,0,0,0,.054-.81,3.963,3.963,0,0,0-4.032-4.284,4.414,4.414,0,0,0-4.41,4.626,4.514,4.514,0,0,0,4.788,4.626,6.27,6.27,0,0,0,3.168-.828v-1.728a5.047,5.047,0,0,1-3.06,1.1,3.034,3.034,0,0,1-3.276-2.7Zm-4.014-3.636a2.4,2.4,0,0,1,2.5,2.358h-5.22A2.705,2.705,0,0,1,298.224,139.4Zm17.928,5.454a4.123,4.123,0,0,1-2.556.864,3.051,3.051,0,0,1-3.258-3.1,3.1,3.1,0,0,1,3.2-3.2,4.669,4.669,0,0,1,2.466.756V138.5a5.339,5.339,0,0,0-2.394-.558,4.683,4.683,0,0,0-4.914,4.68,4.538,4.538,0,0,0,4.806,4.572,5.722,5.722,0,0,0,2.646-.612Zm2.52,2.142h1.62v-6.066a3.866,3.866,0,0,1,2.826-1.476,1.683,1.683,0,0,1,1.35.576,2.508,2.508,0,0,1,.432,1.8V147h1.62v-5.472a3.587,3.587,0,0,0-.738-2.61,3.063,3.063,0,0,0-2.358-.972,4.391,4.391,0,0,0-3.1,1.332l-.036-.018v-6.012h-1.62Zm13.284.2a4.2,4.2,0,0,0,2.718-.972h.036a1.882,1.882,0,0,0,1.71.936,2.309,2.309,0,0,0,.864-.162v-1.35a1.239,1.239,0,0,1-.522.126c-.486,0-.684-.4-.684-.936v-3.762a2.984,2.984,0,0,0-.882-2.322,3.85,3.85,0,0,0-2.646-.81,5.575,5.575,0,0,0-2.952.756v1.584a4.617,4.617,0,0,1,2.718-.882,2.4,2.4,0,0,1,1.638.486,1.914,1.914,0,0,1,.5,1.458v.738a7.761,7.761,0,0,0-1.89-.234,4.624,4.624,0,0,0-2.484.594,2.461,2.461,0,0,0-1.17,2.16,2.359,2.359,0,0,0,.936,1.962A3.535,3.535,0,0,0,331.956,147.2Zm.288-1.44c-.954,0-1.692-.432-1.692-1.3,0-1.044,1.08-1.368,2.178-1.368a6.678,6.678,0,0,1,1.728.234v1.656A3.692,3.692,0,0,1,332.244,145.758Zm7.02,1.242h1.62v-6.066a3.729,3.729,0,0,1,2.772-1.476,1.836,1.836,0,0,1,1.422.576,2.745,2.745,0,0,1,.414,1.8V147h1.62v-5.472a3.587,3.587,0,0,0-.738-2.61,3.063,3.063,0,0,0-2.358-.972,4.391,4.391,0,0,0-3.1,1.332l-.036-.018v-1.116h-1.62Zm11.43,3.492a6.274,6.274,0,0,0,2.808.666c2.718,0,4.446-1.6,4.446-4.194V138.18l-1.566.27a5.069,5.069,0,0,0-2.25-.5,4.445,4.445,0,0,0-4.59,4.644,4.273,4.273,0,0,0,4.338,4.428,4.382,4.382,0,0,0,2.412-.684l.036.018V147a2.573,2.573,0,0,1-2.826,2.682,5.166,5.166,0,0,1-2.808-.918Zm.486-8.01a2.9,2.9,0,0,1,2.916-3.1,4.567,4.567,0,0,1,2.232.612v4.878a3.742,3.742,0,0,1-2.214.72A2.915,2.915,0,0,1,351.18,142.482Zm17.586.558a5.553,5.553,0,0,0,.054-.81,3.963,3.963,0,0,0-4.032-4.284,4.414,4.414,0,0,0-4.41,4.626,4.514,4.514,0,0,0,4.788,4.626,6.27,6.27,0,0,0,3.168-.828v-1.728a5.047,5.047,0,0,1-3.06,1.1,3.034,3.034,0,0,1-3.276-2.7Zm-4.014-3.636a2.4,2.4,0,0,1,2.5,2.358h-5.22A2.705,2.705,0,0,1,364.752,139.4Zm10.764-4.3a1.134,1.134,0,1,0,1.134-1.134A1.129,1.129,0,0,0,375.516,135.1Zm.324,11.9h1.62v-8.856h-1.62Zm4.644,0h1.62v-6.066a3.729,3.729,0,0,1,2.772-1.476,1.836,1.836,0,0,1,1.422.576,2.745,2.745,0,0,1,.414,1.8V147h1.62v-5.472a3.587,3.587,0,0,0-.738-2.61,3.063,3.063,0,0,0-2.358-.972,4.391,4.391,0,0,0-3.1,1.332l-.036-.018v-1.116h-1.62Zm15.408,0h1.71v-5.148h1.35a8.47,8.47,0,0,0,4.32-.738,3.673,3.673,0,0,0,1.764-3.24,3.509,3.509,0,0,0-1.89-3.222,7.8,7.8,0,0,0-3.852-.684h-3.4Zm1.71-6.642v-4.842h1.548a6.662,6.662,0,0,1,2.97.414,2.293,2.293,0,0,1,.162,3.942,5.928,5.928,0,0,1-3.114.486ZM407.268,147h7.866v-1.548h-6.156V133.968h-1.71Zm10.026,0H419v-5.148h1.35a8.47,8.47,0,0,0,4.32-.738,3.673,3.673,0,0,0,1.764-3.24,3.509,3.509,0,0,0-1.89-3.222,7.8,7.8,0,0,0-3.852-.684h-3.4Zm1.71-6.642v-4.842h1.548a6.662,6.662,0,0,1,2.97.414,2.293,2.293,0,0,1,.162,3.942,5.928,5.928,0,0,1-3.114.486ZM433.17,147h1.62V133.248h-1.62Zm12.42-3.96a5.553,5.553,0,0,0,.054-.81,3.963,3.963,0,0,0-4.032-4.284,4.414,4.414,0,0,0-4.41,4.626,4.514,4.514,0,0,0,4.788,4.626,6.27,6.27,0,0,0,3.168-.828v-1.728a5.047,5.047,0,0,1-3.06,1.1,3.034,3.034,0,0,1-3.276-2.7Zm-4.014-3.636a2.4,2.4,0,0,1,2.5,2.358h-5.22A2.705,2.705,0,0,1,441.576,139.4Zm8.856,7.6h1.62l3.708-8.856h-1.692l-1.6,3.888c-.414,1.008-.792,1.944-1.188,2.952h-.036c-.378-.972-.738-1.872-1.134-2.844l-1.638-4h-1.764Zm14.634-3.96a5.553,5.553,0,0,0,.054-.81,3.963,3.963,0,0,0-4.032-4.284,4.414,4.414,0,0,0-4.41,4.626,4.514,4.514,0,0,0,4.788,4.626,6.27,6.27,0,0,0,3.168-.828v-1.728a5.047,5.047,0,0,1-3.06,1.1,3.034,3.034,0,0,1-3.276-2.7Zm-4.014-3.636a2.4,2.4,0,0,1,2.5,2.358h-5.22A2.705,2.705,0,0,1,461.052,139.4ZM467.6,147h1.62V133.248H467.6Zm4.392-.522a7.446,7.446,0,0,0,3.312.72c1.89,0,3.726-.774,3.726-2.826,0-1.836-1.4-2.3-3.1-2.592-1.314-.234-2.574-.234-2.574-1.242,0-.792.792-1.134,1.926-1.134a6.726,6.726,0,0,1,3.24.864v-1.62a7.169,7.169,0,0,0-3.168-.7c-2.052,0-3.618.882-3.636,2.718,0,1.746,1.332,2.25,3.024,2.538,1.368.234,2.646.252,2.646,1.314,0,.864-.792,1.224-2.016,1.224a6.477,6.477,0,0,1-3.384-.954Zm16.4.72a4.2,4.2,0,0,0,2.718-.972h.036a1.882,1.882,0,0,0,1.71.936,2.309,2.309,0,0,0,.864-.162v-1.35a1.239,1.239,0,0,1-.522.126c-.486,0-.684-.4-.684-.936v-3.762a2.984,2.984,0,0,0-.882-2.322,3.85,3.85,0,0,0-2.646-.81,5.575,5.575,0,0,0-2.952.756v1.584a4.617,4.617,0,0,1,2.718-.882,2.4,2.4,0,0,1,1.638.486,1.914,1.914,0,0,1,.5,1.458v.738a7.761,7.761,0,0,0-1.89-.234,4.624,4.624,0,0,0-2.484.594,2.461,2.461,0,0,0-1.17,2.16,2.359,2.359,0,0,0,.936,1.962A3.535,3.535,0,0,0,488.394,147.2Zm.288-1.44c-.954,0-1.692-.432-1.692-1.3,0-1.044,1.08-1.368,2.178-1.368a6.678,6.678,0,0,1,1.728.234v1.656A3.692,3.692,0,0,1,488.682,145.758Zm8.37.612a2.572,2.572,0,0,0,2.016.828,3.94,3.94,0,0,0,1.6-.324v-1.53a2.681,2.681,0,0,1-1.332.378c-1.17,0-1.332-1.008-1.332-2.106V139.6h2.664v-1.458h-2.664v-2.682l-1.62.27v2.412h-1.638V139.6h1.638v4.32A3.494,3.494,0,0,0,497.052,146.37Zm14.364-12.4-2.916,4.7c-1.17,1.89-1.584,3.006-1.584,4.23a4.434,4.434,0,0,0,8.856.18,3.867,3.867,0,0,0-3.96-3.942,3.359,3.359,0,0,0-1.98.576l-.036-.018c.126-.234.306-.522.486-.792l3.1-4.932Zm-2.772,9.09a2.591,2.591,0,0,1,2.754-2.484,2.552,2.552,0,0,1,2.682,2.556,2.581,2.581,0,0,1-2.718,2.556A2.662,2.662,0,0,1,508.644,143.058ZM13.608,177h1.62v-5.526a3.6,3.6,0,0,0-.738-2.592,3.022,3.022,0,0,0-2.322-.936,4.8,4.8,0,0,0-3.366,1.53,2.929,2.929,0,0,0-2.718-1.53,4.263,4.263,0,0,0-3.006,1.3l-.036-.018v-1.08H1.422V177h1.62v-6.156a3.756,3.756,0,0,1,2.7-1.386,1.707,1.707,0,0,1,1.35.558,2.446,2.446,0,0,1,.414,1.746V177h1.62v-5.526c0-.216,0-.432-.018-.63a3.856,3.856,0,0,1,2.7-1.386,1.778,1.778,0,0,1,1.35.54,2.6,2.6,0,0,1,.45,1.764Zm4-4.428a4.559,4.559,0,0,0,4.68,4.626,4.626,4.626,0,1,0,0-9.252A4.559,4.559,0,0,0,17.6,172.572Zm1.62,0a3.061,3.061,0,1,1,3.06,3.15A3.034,3.034,0,0,1,19.224,172.572ZM29.376,177H31v-6.066a3.729,3.729,0,0,1,2.772-1.476,1.836,1.836,0,0,1,1.422.576,2.745,2.745,0,0,1,.414,1.8V177h1.62v-5.472a3.587,3.587,0,0,0-.738-2.61,3.063,3.063,0,0,0-2.358-.972,4.391,4.391,0,0,0-3.1,1.332L31,169.26v-1.116h-1.62Zm12.186-.63a2.572,2.572,0,0,0,2.016.828,3.94,3.94,0,0,0,1.6-.324v-1.53a2.681,2.681,0,0,1-1.332.378c-1.17,0-1.332-1.008-1.332-2.106V169.6H45.18v-1.458H42.516v-2.682l-1.62.27v2.412H39.258V169.6H40.9v4.32A3.494,3.494,0,0,0,41.562,176.37Zm5.832.63h1.62v-6.066a3.866,3.866,0,0,1,2.826-1.476,1.683,1.683,0,0,1,1.35.576,2.508,2.508,0,0,1,.432,1.8V177h1.62v-5.472a3.587,3.587,0,0,0-.738-2.61,3.063,3.063,0,0,0-2.358-.972,4.391,4.391,0,0,0-3.1,1.332l-.036-.018v-6.012h-1.62Zm10.584-.522a7.446,7.446,0,0,0,3.312.72c1.89,0,3.726-.774,3.726-2.826,0-1.836-1.4-2.3-3.1-2.592-1.314-.234-2.574-.234-2.574-1.242,0-.792.792-1.134,1.926-1.134a6.726,6.726,0,0,1,3.24.864v-1.62a7.169,7.169,0,0,0-3.168-.7c-2.052,0-3.618.882-3.636,2.718,0,1.746,1.332,2.25,3.024,2.538,1.368.234,2.646.252,2.646,1.314,0,.864-.792,1.224-2.016,1.224a6.477,6.477,0,0,1-3.384-.954ZM74.052,177h1.62l1.386-3.8c.306-.81.612-1.71.864-2.484h.036c.252.774.558,1.674.864,2.484l1.386,3.8h1.6l3.078-8.856H83.2l-1.314,3.96c-.306.918-.594,1.818-.864,2.718h-.036c-.306-.9-.63-1.818-.972-2.736l-1.458-3.942H77.4l-1.458,3.942c-.324.882-.666,1.836-.972,2.736h-.036c-.288-.918-.576-1.818-.882-2.736l-1.314-3.942H70.974Zm14.94.2a4.2,4.2,0,0,0,2.718-.972h.036a1.882,1.882,0,0,0,1.71.936A2.308,2.308,0,0,0,94.32,177v-1.35a1.239,1.239,0,0,1-.522.126c-.486,0-.684-.4-.684-.936v-3.762a2.984,2.984,0,0,0-.882-2.322,3.85,3.85,0,0,0-2.646-.81,5.575,5.575,0,0,0-2.952.756v1.584a4.617,4.617,0,0,1,2.718-.882,2.4,2.4,0,0,1,1.638.486,1.914,1.914,0,0,1,.5,1.458v.738a7.761,7.761,0,0,0-1.89-.234,4.624,4.624,0,0,0-2.484.594,2.461,2.461,0,0,0-1.17,2.16,2.359,2.359,0,0,0,.936,1.962A3.535,3.535,0,0,0,88.992,177.2Zm.288-1.44c-.954,0-1.692-.432-1.692-1.3,0-1.044,1.08-1.368,2.178-1.368a6.678,6.678,0,0,1,1.728.234v1.656A3.692,3.692,0,0,1,89.28,175.758Zm6.768.72a7.446,7.446,0,0,0,3.312.72c1.89,0,3.726-.774,3.726-2.826,0-1.836-1.4-2.3-3.1-2.592-1.314-.234-2.574-.234-2.574-1.242,0-.792.792-1.134,1.926-1.134a6.726,6.726,0,0,1,3.24.864v-1.62a7.169,7.169,0,0,0-3.168-.7c-2.052,0-3.618.882-3.636,2.718,0,1.746,1.332,2.25,3.024,2.538,1.368.234,2.646.252,2.646,1.314,0,.864-.792,1.224-2.016,1.224a6.477,6.477,0,0,1-3.384-.954Zm13.7,0a7.446,7.446,0,0,0,3.312.72c1.89,0,3.726-.774,3.726-2.826,0-1.836-1.4-2.3-3.1-2.592-1.314-.234-2.574-.234-2.574-1.242,0-.792.792-1.134,1.926-1.134a6.726,6.726,0,0,1,3.24.864v-1.62a7.169,7.169,0,0,0-3.168-.7c-2.052,0-3.618.882-3.636,2.718,0,1.746,1.332,2.25,3.024,2.538,1.368.234,2.646.252,2.646,1.314,0,.864-.792,1.224-2.016,1.224a6.477,6.477,0,0,1-3.384-.954Zm9.09-11.376a1.134,1.134,0,1,0,1.134-1.134A1.129,1.129,0,0,0,118.836,165.1Zm.324,11.9h1.62v-8.856h-1.62Zm5.238,3.492a6.274,6.274,0,0,0,2.808.666c2.718,0,4.446-1.6,4.446-4.194V168.18l-1.566.27a5.069,5.069,0,0,0-2.25-.5,4.445,4.445,0,0,0-4.59,4.644,4.273,4.273,0,0,0,4.338,4.428,4.382,4.382,0,0,0,2.412-.684l.036.018V177a2.573,2.573,0,0,1-2.826,2.682,5.166,5.166,0,0,1-2.808-.918Zm.486-8.01a2.9,2.9,0,0,1,2.916-3.1,4.567,4.567,0,0,1,2.232.612v4.878a3.742,3.742,0,0,1-2.214.72A2.915,2.915,0,0,1,124.884,172.482Zm9.81,4.518h1.62v-6.066a3.729,3.729,0,0,1,2.772-1.476,1.836,1.836,0,0,1,1.422.576,2.745,2.745,0,0,1,.414,1.8V177h1.62v-5.472a3.587,3.587,0,0,0-.738-2.61,3.063,3.063,0,0,0-2.358-.972,4.391,4.391,0,0,0-3.1,1.332l-.036-.018v-1.116h-1.62Zm10.512-11.9a1.134,1.134,0,1,0,1.134-1.134A1.129,1.129,0,0,0,145.206,165.1Zm.324,11.9h1.62v-8.856h-1.62Zm5.094,0h1.62v-7.4h2.268v-1.458h-2.268v-1.926c0-.936.2-1.692,1.314-1.692a6.042,6.042,0,0,1,1.26.162V163.23a5.172,5.172,0,0,0-1.332-.18,2.907,2.907,0,0,0-2.07.738,3.514,3.514,0,0,0-.792,2.664v1.692h-1.4V169.6h1.4Zm5.6-11.9a1.134,1.134,0,1,0,1.134-1.134A1.129,1.129,0,0,0,156.222,165.1Zm.324,11.9h1.62v-8.856h-1.62Zm11.484-2.142a4.123,4.123,0,0,1-2.556.864,3.051,3.051,0,0,1-3.258-3.1,3.1,3.1,0,0,1,3.2-3.2,4.669,4.669,0,0,1,2.466.756V168.5a5.339,5.339,0,0,0-2.394-.558,4.683,4.683,0,0,0-4.914,4.68,4.538,4.538,0,0,0,4.806,4.572,5.722,5.722,0,0,0,2.646-.612ZM173,177.2a4.2,4.2,0,0,0,2.718-.972h.036a1.882,1.882,0,0,0,1.71.936,2.309,2.309,0,0,0,.864-.162v-1.35a1.239,1.239,0,0,1-.522.126c-.486,0-.684-.4-.684-.936v-3.762a2.984,2.984,0,0,0-.882-2.322,3.85,3.85,0,0,0-2.646-.81,5.575,5.575,0,0,0-2.952.756v1.584a4.617,4.617,0,0,1,2.718-.882,2.4,2.4,0,0,1,1.638.486,1.914,1.914,0,0,1,.5,1.458v.738a7.761,7.761,0,0,0-1.89-.234,4.624,4.624,0,0,0-2.484.594,2.461,2.461,0,0,0-1.17,2.16,2.359,2.359,0,0,0,.936,1.962A3.535,3.535,0,0,0,173,177.2Zm.288-1.44c-.954,0-1.692-.432-1.692-1.3,0-1.044,1.08-1.368,2.178-1.368a6.678,6.678,0,0,1,1.728.234v1.656A3.692,3.692,0,0,1,173.286,175.758Zm7.02,1.242h1.62v-6.066a3.729,3.729,0,0,1,2.772-1.476,1.836,1.836,0,0,1,1.422.576,2.745,2.745,0,0,1,.414,1.8V177h1.62v-5.472a3.587,3.587,0,0,0-.738-2.61,3.063,3.063,0,0,0-2.358-.972,4.391,4.391,0,0,0-3.1,1.332l-.036-.018v-1.116h-1.62Zm12.186-.63a2.572,2.572,0,0,0,2.016.828,3.94,3.94,0,0,0,1.6-.324v-1.53a2.681,2.681,0,0,1-1.332.378c-1.17,0-1.332-1.008-1.332-2.106V169.6h2.664v-1.458h-2.664v-2.682l-1.62.27v2.412h-1.638V169.6h1.638v4.32A3.494,3.494,0,0,0,192.492,176.37Zm5.886-.36a1.188,1.188,0,1,0,1.188-1.188A1.2,1.2,0,0,0,198.378,176.01Z" transform="translate(881 5512)" fill="#343434"/><g transform="translate(881 5746)"><path d="M1.32,0H4.5V-5.18h1a9.043,9.043,0,0,0,4.68-.9,4.212,4.212,0,0,0,2.08-3.78,4.187,4.187,0,0,0-2.34-3.86,9.26,9.26,0,0,0-4.3-.76H1.32ZM4.5-7.76V-11.7H5.58a6.356,6.356,0,0,1,2.48.3A1.726,1.726,0,0,1,9.08-9.7a1.7,1.7,0,0,1-.9,1.58,5.286,5.286,0,0,1-2.52.36ZM14.3,0h3.18V-5.18h1a9.043,9.043,0,0,0,4.68-.9,4.212,4.212,0,0,0,2.08-3.78,4.187,4.187,0,0,0-2.34-3.86,9.26,9.26,0,0,0-4.3-.76H14.3Zm3.18-7.76V-11.7h1.08a6.356,6.356,0,0,1,2.48.3,1.726,1.726,0,0,1,1.02,1.7,1.7,1.7,0,0,1-.9,1.58,5.286,5.286,0,0,1-2.52.36Zm9.5-5.2a1.758,1.758,0,0,0,1.76,1.74,1.758,1.758,0,0,0,1.76-1.74,1.758,1.758,0,0,0-1.76-1.74A1.758,1.758,0,0,0,26.98-12.96ZM27.22,0h3.04V-9.84H27.22Zm7.56-6.62A1.733,1.733,0,0,0,36.5-8.34a1.733,1.733,0,0,0-1.72-1.72,1.733,1.733,0,0,0-1.72,1.72A1.733,1.733,0,0,0,34.78-6.62ZM33.06-1.5A1.733,1.733,0,0,0,34.78.22,1.733,1.733,0,0,0,36.5-1.5a1.733,1.733,0,0,0-1.72-1.72A1.733,1.733,0,0,0,33.06-1.5ZM46.58,0H49.5l.9-2.64c.34-.98.64-1.9.9-2.8h.04c.26.9.56,1.86.88,2.82L53.1,0h2.84L59.3-9.84H56.36l-1,3.1c-.32,1-.6,1.9-.86,2.84h-.04c-.28-.94-.56-1.82-.9-2.84l-1.04-3.1H50.26L49.2-6.74c-.32.94-.64,1.92-.92,2.84h-.04c-.26-.94-.54-1.86-.86-2.84l-1-3.1H43.22Zm19.6-.6A2.879,2.879,0,0,0,68.3.18a3.307,3.307,0,0,0,1.46-.3V-2.4a1.147,1.147,0,0,1-.5.12c-.42,0-.6-.32-.6-.78V-6.4a3.254,3.254,0,0,0-1.1-2.72,5.2,5.2,0,0,0-3.28-.94,7.825,7.825,0,0,0-3.44.76v2.62a6.145,6.145,0,0,1,2.88-.78,2.262,2.262,0,0,1,1.52.42A1.387,1.387,0,0,1,65.62-6v.38a7.907,7.907,0,0,0-1.7-.18,4.86,4.86,0,0,0-2.76.7,2.8,2.8,0,0,0-1.2,2.38,2.683,2.683,0,0,0,1.16,2.3A4,4,0,0,0,63.4.22,4.79,4.79,0,0,0,66.14-.6Zm-.56-1.82a2.732,2.732,0,0,1-1.38.4c-.7,0-1.26-.34-1.26-.98,0-.76.78-1,1.56-1a4,4,0,0,1,1.08.14ZM71.26-.6a9.34,9.34,0,0,0,3.88.82c2.52,0,4.4-1.18,4.42-3.34,0-1.7-1.14-2.42-3.02-2.88-1.46-.36-2.52-.3-2.52-1.02,0-.46.48-.7,1.28-.7A8.288,8.288,0,0,1,79-6.66V-9.28a9.187,9.187,0,0,0-3.76-.78c-2.44,0-4.28,1.18-4.3,3.26,0,1.62,1.1,2.4,2.96,2.86,1.48.38,2.58.3,2.58,1.06,0,.54-.5.76-1.34.76a8.408,8.408,0,0,1-3.88-1.14Zm15.3.6H89.6V-6.62a3.509,3.509,0,0,1,2.06-.82,1.3,1.3,0,0,1,1.04.42,1.95,1.95,0,0,1,.34,1.38V0h3.04V-6.14a3.957,3.957,0,0,0-.86-2.92,3.544,3.544,0,0,0-2.58-1A4.819,4.819,0,0,0,89.6-8.92l-.04-.02v-.9h-3Zm14.62-4.92a2.455,2.455,0,0,1,2.44-2.52,2.455,2.455,0,0,1,2.44,2.52,2.455,2.455,0,0,1-2.44,2.52A2.455,2.455,0,0,1,101.18-4.92Zm-3.04,0A5.21,5.21,0,0,0,103.62.22a5.21,5.21,0,0,0,5.48-5.14,5.21,5.21,0,0,0-5.48-5.14A5.21,5.21,0,0,0,98.14-4.92Zm19.44,2.18a3.523,3.523,0,0,1-1.46.4c-.92,0-1.14-.72-1.14-1.68v-3.3h2.6V-9.84h-2.6v-3.08l-3.04.52v2.56h-1.6v2.52h1.6V-3.7a4.009,4.009,0,0,0,.86,2.94,3.467,3.467,0,0,0,2.56.98,4.532,4.532,0,0,0,2.22-.54ZM124.26-.6a9.34,9.34,0,0,0,3.88.82c2.52,0,4.4-1.18,4.42-3.34,0-1.7-1.14-2.42-3.02-2.88-1.46-.36-2.52-.3-2.52-1.02,0-.46.48-.7,1.28-.7A8.288,8.288,0,0,1,132-6.66V-9.28a9.187,9.187,0,0,0-3.76-.78c-2.44,0-4.28,1.18-4.3,3.26,0,1.62,1.1,2.4,2.96,2.86,1.48.38,2.58.3,2.58,1.06,0,.54-.5.76-1.34.76a8.408,8.408,0,0,1-3.88-1.14Zm10.12-12.36a1.758,1.758,0,0,0,1.76,1.74,1.758,1.758,0,0,0,1.76-1.74,1.758,1.758,0,0,0-1.76-1.74A1.758,1.758,0,0,0,134.38-12.96ZM134.62,0h3.04V-9.84h-3.04Zm6.56,3.9a8.018,8.018,0,0,0,3.36.72c3.14,0,5.26-1.72,5.26-4.82V-9.92l-2.38.42a5.574,5.574,0,0,0-2.46-.56,4.964,4.964,0,0,0-5.12,5.14A4.6,4.6,0,0,0,144.42-.1a4.145,4.145,0,0,0,2.3-.66l.04.02V-.2a2.1,2.1,0,0,1-2.4,2.22,6.245,6.245,0,0,1-3.18-1ZM146.76-3a3.059,3.059,0,0,1-1.54.42,2.249,2.249,0,0,1-2.3-2.46,2.258,2.258,0,0,1,2.34-2.44,3.456,3.456,0,0,1,1.5.36Zm5.8,3h3.04V-6.62a3.509,3.509,0,0,1,2.06-.82,1.3,1.3,0,0,1,1.04.42,1.95,1.95,0,0,1,.34,1.38V0h3.04V-6.14a3.957,3.957,0,0,0-.86-2.92,3.544,3.544,0,0,0-2.58-1,4.819,4.819,0,0,0-3.04,1.14l-.04-.02v-.9h-3Zm11.96-12.96a1.758,1.758,0,0,0,1.76,1.74,1.758,1.758,0,0,0,1.76-1.74,1.758,1.758,0,0,0-1.76-1.74A1.758,1.758,0,0,0,164.52-12.96ZM164.76,0h3.04V-9.84h-3.04Zm6.3,0h3.04V-7.32h2.28V-9.84H174.1V-11.5c0-.84.2-1.44,1.14-1.44a6.327,6.327,0,0,1,1.32.18v-2.46a4.859,4.859,0,0,0-1.68-.28,4.033,4.033,0,0,0-2.78.92,4.415,4.415,0,0,0-1.04,3.28v1.46h-1.4v2.52h1.4Zm6.74-12.96a1.758,1.758,0,0,0,1.76,1.74,1.758,1.758,0,0,0,1.76-1.74,1.758,1.758,0,0,0-1.76-1.74A1.758,1.758,0,0,0,177.8-12.96ZM178.04,0h3.04V-9.84h-3.04ZM191.9-3.34a5,5,0,0,1-2.88.98,2.563,2.563,0,0,1-2.78-2.56,2.566,2.566,0,0,1,2.74-2.58,5.291,5.291,0,0,1,2.78.92V-9.4a6.616,6.616,0,0,0-2.92-.66c-3.08,0-5.64,2.06-5.64,5.16A5.147,5.147,0,0,0,188.68.22a6.767,6.767,0,0,0,3.22-.76ZM199.82-.6a2.879,2.879,0,0,0,2.12.78,3.307,3.307,0,0,0,1.46-.3V-2.4a1.147,1.147,0,0,1-.5.12c-.42,0-.6-.32-.6-.78V-6.4a3.254,3.254,0,0,0-1.1-2.72,5.2,5.2,0,0,0-3.28-.94,7.825,7.825,0,0,0-3.44.76v2.62a6.145,6.145,0,0,1,2.88-.78,2.262,2.262,0,0,1,1.52.42A1.387,1.387,0,0,1,199.26-6v.38a7.907,7.907,0,0,0-1.7-.18,4.86,4.86,0,0,0-2.76.7,2.8,2.8,0,0,0-1.2,2.38,2.683,2.683,0,0,0,1.16,2.3,4,4,0,0,0,2.28.64,4.79,4.79,0,0,0,2.74-.82Zm-.56-1.82a2.732,2.732,0,0,1-1.38.4c-.7,0-1.26-.34-1.26-.98,0-.76.78-1,1.56-1a4,4,0,0,1,1.08.14ZM205.18,0h3.04V-6.62a3.509,3.509,0,0,1,2.06-.82,1.3,1.3,0,0,1,1.04.42,1.95,1.95,0,0,1,.34,1.38V0h3.04V-6.14a3.957,3.957,0,0,0-.86-2.92,3.544,3.544,0,0,0-2.58-1,4.819,4.819,0,0,0-3.04,1.14l-.04-.02v-.9h-3Zm18.58-2.74a3.523,3.523,0,0,1-1.46.4c-.92,0-1.14-.72-1.14-1.68v-3.3h2.6V-9.84h-2.6v-3.08l-3.04.52v2.56h-1.6v2.52h1.6V-3.7a4.009,4.009,0,0,0,.86,2.94,3.467,3.467,0,0,0,2.56.98,4.532,4.532,0,0,0,2.22-.54Z" transform="translate(28.271 -2.837)" fill="#005d55"/><path d="M1.32,0H4.5V-5.18h1a9.043,9.043,0,0,0,4.68-.9,4.212,4.212,0,0,0,2.08-3.78,4.187,4.187,0,0,0-2.34-3.86,9.26,9.26,0,0,0-4.3-.76H1.32ZM4.5-7.76V-11.7H5.58a6.356,6.356,0,0,1,2.48.3A1.726,1.726,0,0,1,9.08-9.7a1.7,1.7,0,0,1-.9,1.58,5.286,5.286,0,0,1-2.52.36ZM14.3,0h9.52V-2.78H17.48v-11.7H14.3ZM25.6,0h3.18V-5.18h1a9.043,9.043,0,0,0,4.68-.9,4.212,4.212,0,0,0,2.08-3.78,4.187,4.187,0,0,0-2.34-3.86,9.26,9.26,0,0,0-4.3-.76H25.6Zm3.18-7.76V-11.7h1.08a6.356,6.356,0,0,1,2.48.3,1.726,1.726,0,0,1,1.02,1.7,1.7,1.7,0,0,1-.9,1.58,5.286,5.286,0,0,1-2.52.36ZM40.32-6.62a1.733,1.733,0,0,0,1.72-1.72,1.733,1.733,0,0,0-1.72-1.72A1.733,1.733,0,0,0,38.6-8.34,1.733,1.733,0,0,0,40.32-6.62ZM38.6-1.5A1.733,1.733,0,0,0,40.32.22,1.733,1.733,0,0,0,42.04-1.5a1.733,1.733,0,0,0-1.72-1.72A1.733,1.733,0,0,0,38.6-1.5Zm10.9.9a9.34,9.34,0,0,0,3.88.82c2.52,0,4.4-1.18,4.42-3.34,0-1.7-1.14-2.42-3.02-2.88-1.46-.36-2.52-.3-2.52-1.02,0-.46.48-.7,1.28-.7a8.288,8.288,0,0,1,3.7,1.06V-9.28a9.187,9.187,0,0,0-3.76-.78c-2.44,0-4.28,1.18-4.3,3.26,0,1.62,1.1,2.4,2.96,2.86,1.48.38,2.58.3,2.58,1.06,0,.54-.5.76-1.34.76A8.408,8.408,0,0,1,49.5-3.26ZM59.62-12.96a1.758,1.758,0,0,0,1.76,1.74,1.758,1.758,0,0,0,1.76-1.74,1.758,1.758,0,0,0-1.76-1.74A1.758,1.758,0,0,0,59.62-12.96ZM59.86,0H62.9V-9.84H59.86Zm6.56,3.9a8.018,8.018,0,0,0,3.36.72c3.14,0,5.26-1.72,5.26-4.82V-9.92l-2.38.42a5.574,5.574,0,0,0-2.46-.56,4.964,4.964,0,0,0-5.12,5.14A4.6,4.6,0,0,0,69.66-.1a4.145,4.145,0,0,0,2.3-.66L72-.74V-.2a2.1,2.1,0,0,1-2.4,2.22,6.245,6.245,0,0,1-3.18-1ZM72-3a3.059,3.059,0,0,1-1.54.42,2.249,2.249,0,0,1-2.3-2.46A2.258,2.258,0,0,1,70.5-7.48a3.456,3.456,0,0,1,1.5.36Zm5.8,3h3.04V-6.62a3.509,3.509,0,0,1,2.06-.82,1.3,1.3,0,0,1,1.04.42,1.95,1.95,0,0,1,.34,1.38V0h3.04V-6.14a3.957,3.957,0,0,0-.86-2.92,3.544,3.544,0,0,0-2.58-1,4.819,4.819,0,0,0-3.04,1.14l-.04-.02v-.9h-3ZM89.76-12.96a1.758,1.758,0,0,0,1.76,1.74,1.758,1.758,0,0,0,1.76-1.74,1.758,1.758,0,0,0-1.76-1.74A1.758,1.758,0,0,0,89.76-12.96ZM90,0h3.04V-9.84H90Zm6.3,0h3.04V-7.32h2.28V-9.84H99.34V-11.5c0-.84.2-1.44,1.14-1.44a6.327,6.327,0,0,1,1.32.18v-2.46a4.858,4.858,0,0,0-1.68-.28,4.033,4.033,0,0,0-2.78.92A4.415,4.415,0,0,0,96.3-11.3v1.46H94.9v2.52h1.4Zm6.74-12.96a1.758,1.758,0,0,0,1.76,1.74,1.758,1.758,0,0,0,1.76-1.74,1.758,1.758,0,0,0-1.76-1.74A1.758,1.758,0,0,0,103.04-12.96ZM103.28,0h3.04V-9.84h-3.04Zm13.86-3.34a5,5,0,0,1-2.88.98,2.563,2.563,0,0,1-2.78-2.56,2.566,2.566,0,0,1,2.74-2.58,5.291,5.291,0,0,1,2.78.92V-9.4a6.616,6.616,0,0,0-2.92-.66c-3.08,0-5.64,2.06-5.64,5.16A5.147,5.147,0,0,0,113.92.22a6.767,6.767,0,0,0,3.22-.76ZM125.06-.6a2.879,2.879,0,0,0,2.12.78,3.307,3.307,0,0,0,1.46-.3V-2.4a1.147,1.147,0,0,1-.5.12c-.42,0-.6-.32-.6-.78V-6.4a3.254,3.254,0,0,0-1.1-2.72,5.2,5.2,0,0,0-3.28-.94,7.825,7.825,0,0,0-3.44.76v2.62a6.145,6.145,0,0,1,2.88-.78,2.262,2.262,0,0,1,1.52.42A1.387,1.387,0,0,1,124.5-6v.38a7.907,7.907,0,0,0-1.7-.18,4.86,4.86,0,0,0-2.76.7,2.8,2.8,0,0,0-1.2,2.38A2.683,2.683,0,0,0,120-.42a4,4,0,0,0,2.28.64,4.79,4.79,0,0,0,2.74-.82Zm-.56-1.82a2.732,2.732,0,0,1-1.38.4c-.7,0-1.26-.34-1.26-.98,0-.76.78-1,1.56-1a4,4,0,0,1,1.08.14ZM130.42,0h3.04V-6.62a3.509,3.509,0,0,1,2.06-.82,1.3,1.3,0,0,1,1.04.42,1.95,1.95,0,0,1,.34,1.38V0h3.04V-6.14a3.957,3.957,0,0,0-.86-2.92,3.544,3.544,0,0,0-2.58-1,4.819,4.819,0,0,0-3.04,1.14l-.04-.02v-.9h-3ZM149-2.74a3.523,3.523,0,0,1-1.46.4c-.92,0-1.14-.72-1.14-1.68v-3.3H149V-9.84h-2.6v-3.08l-3.04.52v2.56h-1.6v2.52h1.6V-3.7a4.009,4.009,0,0,0,.86,2.94,3.467,3.467,0,0,0,2.56.98A4.532,4.532,0,0,0,149-.32Z" transform="translate(28.562 35.215)" fill="#005d55"/><g transform="translate(0 10)" clip-path="url(#a)"><g transform="translate(1 2.412)"><path d="M-.25-.25H19.482V19.482H-.25Zm19.232.5H.25V18.982H18.982Z" transform="translate(0 5.959)" fill="#265c5a"/><path d="M300.641,344.442l-5.122,16.646-1.7-5.317h-3.487l3.34,11.329h3.776l6.681-22.657Z" transform="translate(-286.982 -344.442)" fill="#7db959"/></g></g><g transform="translate(0 -28)" clip-path="url(#a)"><g transform="translate(1.014 8.55)"><path d="M-.25-.25H19.482V19.482H-.25Zm19.232.5H.25V18.982H18.982Z" fill="#265c5a"/><path d="M-.357,0h3.8L5.607-3.276c.546-.84,1.05-1.617,1.575-2.457h.042c.5.8,1.029,1.638,1.6,2.478L10.983,0h3.969L9.387-8.127,14.154-15.2H10.416L9.051-13.1c-.567.861-1.155,1.785-1.659,2.6H7.371c-.525-.84-1.113-1.764-1.68-2.625L4.326-15.2H.42L5.187-8.127Z" transform="translate(2.014 16.741)" fill="#7db959"/></g></g></g><path d="M1.14,19.16a10.653,10.653,0,0,0,4.58,1.06c3.12,0,5.26-1.7,5.26-4.52,0-2.56-1.76-3.58-3.94-4.3-1.74-.58-3.08-.68-3.08-1.96,0-.96.78-1.36,1.86-1.36a9.192,9.192,0,0,1,4.44,1.4V6.34A9.969,9.969,0,0,0,5.84,5.3C2.8,5.3.76,6.98.76,9.68c0,2.52,1.8,3.5,3.8,4.16,1.86.6,3.22.72,3.22,2.06,0,1.08-.86,1.54-2.02,1.54a9.145,9.145,0,0,1-4.62-1.5Zm18.88-1.9a3.523,3.523,0,0,1-1.46.4c-.92,0-1.14-.72-1.14-1.68v-3.3h2.6V10.16h-2.6V7.08l-3.04.52v2.56h-1.6v2.52h1.6V16.3a4.009,4.009,0,0,0,.86,2.94,3.467,3.467,0,0,0,2.56.98,4.532,4.532,0,0,0,2.22-.54Zm9.22,1.82V20h3V10.16H29.2v6.58a3.08,3.08,0,0,1-2,.88,1.4,1.4,0,0,1-1.08-.44,1.981,1.981,0,0,1-.38-1.42v-5.6H22.7v6.06a4.021,4.021,0,0,0,.94,3.02,3.459,3.459,0,0,0,2.56.98,4.431,4.431,0,0,0,3-1.16Zm13.04.4V20h2.98V4.72H42.22v5.56l-.04.02a4.668,4.668,0,0,0-1.86-.36,5.137,5.137,0,0,0-5.2,5.34,4.654,4.654,0,0,0,4.62,4.94,4.406,4.406,0,0,0,2.5-.76Zm-.06-2.24a3.218,3.218,0,0,1-1.7.5,2.342,2.342,0,0,1-2.34-2.6,2.433,2.433,0,0,1,2.46-2.68,3.542,3.542,0,0,1,1.58.38Zm9.8,7.16,6.4-14.24H55.4l-1.04,2.38c-.46,1.06-.9,2.1-1.34,3.18h-.04q-.6-1.53-1.26-3.12L50.7,10.16H47.5l4,8.76L48.92,24.4Zm13-7.5h7.02V20H75.2V16.9h2.2V14.48H75.2V5.52H72.38L65,16.86Zm4.38-2.42-.02-.04,1.42-2.18c.44-.68.92-1.44,1.3-2.08l.04.02c-.02.68-.04,1.46-.04,2.18v2.1Zm19.46,5.38.04-.02a4.43,4.43,0,0,0,1.9.38A4.989,4.989,0,0,0,95.94,15a4.743,4.743,0,0,0-4.66-5.06,4.254,4.254,0,0,0-2.44.74l-.04-.02v-.5H85.82V24.4h3.04Zm0-2.48V13.02a2.824,2.824,0,0,1,1.64-.54,2.429,2.429,0,0,1,2.38,2.68,2.389,2.389,0,0,1-2.46,2.6A3.444,3.444,0,0,1,88.86,17.38ZM98.76,20h3.04V14.04a3.268,3.268,0,0,1,2.66-1.16,3.541,3.541,0,0,1,.82.1V10.12a2.439,2.439,0,0,0-.64-.08,3.329,3.329,0,0,0-2.86,1.46l-.04-.02V10.16H98.76ZM107.4,7.04a1.76,1.76,0,1,0,1.76-1.74A1.758,1.758,0,0,0,107.4,7.04ZM107.64,20h3.04V10.16h-3.04Zm19.14,0h3.04V13.82a3.851,3.851,0,0,0-.9-2.9,3.431,3.431,0,0,0-2.54-.98,5.116,5.116,0,0,0-3.46,1.4,3.3,3.3,0,0,0-2.86-1.4,4.56,4.56,0,0,0-2.96,1.12l-.04-.02v-.88h-3V20h3.04V13.36a3.191,3.191,0,0,1,1.92-.8,1.358,1.358,0,0,1,1.04.42,1.856,1.856,0,0,1,.36,1.34V20h3.04V13.82a3.24,3.24,0,0,0-.02-.44,3.087,3.087,0,0,1,1.94-.82,1.358,1.358,0,0,1,1.04.42,1.789,1.789,0,0,1,.36,1.34Zm11.96-.6a2.879,2.879,0,0,0,2.12.78,3.307,3.307,0,0,0,1.46-.3V17.6a1.147,1.147,0,0,1-.5.12c-.42,0-.6-.32-.6-.78V13.6a3.254,3.254,0,0,0-1.1-2.72,5.2,5.2,0,0,0-3.28-.94,7.825,7.825,0,0,0-3.44.76v2.62a6.145,6.145,0,0,1,2.88-.78,2.262,2.262,0,0,1,1.52.42,1.387,1.387,0,0,1,.38,1.04v.38a7.907,7.907,0,0,0-1.7-.18,4.86,4.86,0,0,0-2.76.7,2.8,2.8,0,0,0-1.2,2.38,2.683,2.683,0,0,0,1.16,2.3,4,4,0,0,0,2.28.64,4.79,4.79,0,0,0,2.74-.82Zm-.56-1.82a2.732,2.732,0,0,1-1.38.4c-.7,0-1.26-.34-1.26-.98,0-.76.78-1,1.56-1a4,4,0,0,1,1.08.14ZM144.76,20h3.04V14.04a3.268,3.268,0,0,1,2.66-1.16,3.541,3.541,0,0,1,.82.1V10.12a2.439,2.439,0,0,0-.64-.08,3.329,3.329,0,0,0-2.86,1.46l-.04-.02V10.16h-2.98Zm12.46,4.4,6.4-14.24H160.6l-1.04,2.38c-.46,1.06-.9,2.1-1.34,3.18h-.04q-.6-1.53-1.26-3.12l-1.02-2.44h-3.2l4,8.76-2.58,5.48Zm23.42-8.52a8.106,8.106,0,0,0,.06-1.04,4.553,4.553,0,0,0-4.7-4.9,5.075,5.075,0,0,0-5.16,5.18c0,3.08,2.34,5.1,5.58,5.1a7.555,7.555,0,0,0,3.74-.9V16.78a6.122,6.122,0,0,1-3.34,1.08,2.665,2.665,0,0,1-2.86-1.98Zm-6.7-1.92a2.033,2.033,0,0,1,2.02-1.7,1.922,1.922,0,0,1,1.94,1.7Zm9.6,6.04h3.04V13.38a3.509,3.509,0,0,1,2.06-.82,1.3,1.3,0,0,1,1.04.42,1.95,1.95,0,0,1,.34,1.38V20h3.04V13.86a3.957,3.957,0,0,0-.86-2.92,3.544,3.544,0,0,0-2.58-1,4.819,4.819,0,0,0-3.04,1.14l-.04-.02v-.9h-3Zm19.48-.52V20H206V4.72h-3.04v5.56l-.04.02a4.668,4.668,0,0,0-1.86-.36,5.137,5.137,0,0,0-5.2,5.34,4.654,4.654,0,0,0,4.62,4.94,4.406,4.406,0,0,0,2.5-.76Zm-.06-2.24a3.218,3.218,0,0,1-1.7.5,2.342,2.342,0,0,1-2.34-2.6,2.433,2.433,0,0,1,2.46-2.68,3.542,3.542,0,0,1,1.58.38Zm9.46,2.62.04-.02a4.43,4.43,0,0,0,1.9.38A4.989,4.989,0,0,0,219.5,15a4.743,4.743,0,0,0-4.66-5.06,4.254,4.254,0,0,0-2.44.74l-.04-.02v-.5h-2.98V24.4h3.04Zm0-2.48V13.02a2.824,2.824,0,0,1,1.64-.54,2.429,2.429,0,0,1,2.38,2.68,2.389,2.389,0,0,1-2.46,2.6A3.444,3.444,0,0,1,212.42,17.38Zm12.32-2.3a2.441,2.441,0,1,1,2.44,2.52A2.455,2.455,0,0,1,224.74,15.08Zm-3.04,0a5.491,5.491,0,1,0,5.48-5.14A5.21,5.21,0,0,0,221.7,15.08Zm13.48-8.04a1.76,1.76,0,1,0,1.76-1.74A1.758,1.758,0,0,0,235.18,7.04ZM235.42,20h3.04V10.16h-3.04Zm6.42,0h3.04V13.38a3.509,3.509,0,0,1,2.06-.82,1.3,1.3,0,0,1,1.04.42,1.95,1.95,0,0,1,.34,1.38V20h3.04V13.86a3.957,3.957,0,0,0-.86-2.92,3.544,3.544,0,0,0-2.58-1,4.819,4.819,0,0,0-3.04,1.14l-.04-.02v-.9h-3Zm19.24-2.74a3.523,3.523,0,0,1-1.46.4c-.92,0-1.14-.72-1.14-1.68v-3.3h2.6V10.16h-2.6V7.08l-3.04.52v2.56h-1.6v2.52h1.6V16.3a4.009,4.009,0,0,0,.86,2.94,3.468,3.468,0,0,0,2.56.98,4.532,4.532,0,0,0,2.22-.54Zm2.4,2.14a9.34,9.34,0,0,0,3.88.82c2.52,0,4.4-1.18,4.42-3.34,0-1.7-1.14-2.42-3.02-2.88-1.46-.36-2.52-.3-2.52-1.02,0-.46.48-.7,1.28-.7a8.288,8.288,0,0,1,3.7,1.06V10.72a9.187,9.187,0,0,0-3.76-.78c-2.44,0-4.28,1.18-4.3,3.26,0,1.62,1.1,2.4,2.96,2.86,1.48.38,2.58.3,2.58,1.06,0,.54-.5.76-1.34.76a8.408,8.408,0,0,1-3.88-1.14Z" transform="translate(881 5469)" fill="#343434"/><path d="M1.32,20H4.5V14.82h1a9.043,9.043,0,0,0,4.68-.9,4.212,4.212,0,0,0,2.08-3.78A4.187,4.187,0,0,0,9.92,6.28a9.26,9.26,0,0,0-4.3-.76H1.32ZM4.5,12.24V8.3H5.58a6.356,6.356,0,0,1,2.48.3,1.726,1.726,0,0,1,1.02,1.7,1.7,1.7,0,0,1-.9,1.58,5.286,5.286,0,0,1-2.52.36ZM14.3,20h9.52V17.22H17.48V5.52H14.3Zm11.3,0h3.18V14.82h1a9.043,9.043,0,0,0,4.68-.9,4.212,4.212,0,0,0,2.08-3.78A4.187,4.187,0,0,0,34.2,6.28a9.26,9.26,0,0,0-4.3-.76H25.6Zm3.18-7.76V8.3h1.08a6.356,6.356,0,0,1,2.48.3,1.726,1.726,0,0,1,1.02,1.7,1.7,1.7,0,0,1-.9,1.58,5.286,5.286,0,0,1-2.52.36ZM49.04,19.4a2.879,2.879,0,0,0,2.12.78,3.307,3.307,0,0,0,1.46-.3V17.6a1.147,1.147,0,0,1-.5.12c-.42,0-.6-.32-.6-.78V13.6a3.254,3.254,0,0,0-1.1-2.72,5.2,5.2,0,0,0-3.28-.94,7.825,7.825,0,0,0-3.44.76v2.62a6.145,6.145,0,0,1,2.88-.78,2.262,2.262,0,0,1,1.52.42A1.387,1.387,0,0,1,48.48,14v.38a7.907,7.907,0,0,0-1.7-.18,4.86,4.86,0,0,0-2.76.7,2.8,2.8,0,0,0-1.2,2.38,2.683,2.683,0,0,0,1.16,2.3,4,4,0,0,0,2.28.64A4.79,4.79,0,0,0,49,19.4Zm-.56-1.82a2.732,2.732,0,0,1-1.38.4c-.7,0-1.26-.34-1.26-.98,0-.76.78-1,1.56-1a4,4,0,0,1,1.08.14ZM54.4,20h3.04V13.38a3.509,3.509,0,0,1,2.06-.82,1.3,1.3,0,0,1,1.04.42,1.95,1.95,0,0,1,.34,1.38V20h3.04V13.86a3.957,3.957,0,0,0-.86-2.92,3.544,3.544,0,0,0-2.58-1,4.819,4.819,0,0,0-3.04,1.14l-.04-.02v-.9h-3Zm18.82-.52V20H76.2V4.72H73.16v5.56l-.04.02a4.668,4.668,0,0,0-1.86-.36,5.137,5.137,0,0,0-5.2,5.34,4.654,4.654,0,0,0,4.62,4.94,4.406,4.406,0,0,0,2.5-.76Zm-.06-2.24a3.218,3.218,0,0,1-1.7.5,2.342,2.342,0,0,1-2.34-2.6,2.433,2.433,0,0,1,2.46-2.68,3.542,3.542,0,0,1,1.58.38ZM83.92,20H87.1V14.82h1a9.043,9.043,0,0,0,4.68-.9,4.212,4.212,0,0,0,2.08-3.78,4.187,4.187,0,0,0-2.34-3.86,9.26,9.26,0,0,0-4.3-.76h-4.3Zm3.18-7.76V8.3h1.08a6.356,6.356,0,0,1,2.48.3,1.726,1.726,0,0,1,1.02,1.7,1.7,1.7,0,0,1-.9,1.58,5.286,5.286,0,0,1-2.52.36ZM96.9,20h3.18V14.82h1a9.043,9.043,0,0,0,4.68-.9,4.212,4.212,0,0,0,2.08-3.78,4.187,4.187,0,0,0-2.34-3.86,9.26,9.26,0,0,0-4.3-.76H96.9Zm3.18-7.76V8.3h1.08a6.356,6.356,0,0,1,2.48.3,1.726,1.726,0,0,1,1.02,1.7,1.7,1.7,0,0,1-.9,1.58,5.286,5.286,0,0,1-2.52.36Zm9.5-5.2a1.76,1.76,0,1,0,1.76-1.74A1.758,1.758,0,0,0,109.58,7.04ZM109.82,20h3.04V10.16h-3.04Z" transform="translate(881 5512)" fill="#005d55"/></g></svg>