<svg xmlns="http://www.w3.org/2000/svg" width="459" height="414.5" viewBox="0 0 459 414.5"><g transform="translate(-701 -4231.5)"><path d="M0,0H367a20,20,0,0,1,20,20V96a20,20,0,0,1-20,20H0a0,0,0,0,1,0,0V0A0,0,0,0,1,0,0Z" transform="translate(773 4251)" fill="#69be28" opacity="0.105"/><path d="M104.019,479.247a3.336,3.336,0,1,0-3.336-3.336,3.335,3.335,0,0,0,3.336,3.336" transform="translate(668.535 3758.925)" fill="#414042"/><path d="M352.182,671.877a3.336,3.336,0,1,0-3.336-3.336,3.335,3.335,0,0,0,3.336,3.336" transform="translate(804.34 3932.679)" fill="#414042"/><g transform="translate(0 -117.067)"><path d="M11,.5H0v-1H11Z" transform="translate(767 4591.567)" fill="#7db959"/><path d="M2.916.047h1.14V-8.82L.924-7.6v1.1l1.992-.772ZM9.936.18A2.573,2.573,0,0,0,12.072-.882,5.912,5.912,0,0,0,12.9-4.32a5.912,5.912,0,0,0-.828-3.438A2.573,2.573,0,0,0,9.936-8.82,2.573,2.573,0,0,0,7.8-7.758,5.912,5.912,0,0,0,6.972-4.32,5.912,5.912,0,0,0,7.8-.882,2.573,2.573,0,0,0,9.936.18Zm0-1.062a1.481,1.481,0,0,1-1.2-.591A4.987,4.987,0,0,1,8.112-4.32a4.987,4.987,0,0,1,.624-2.847,1.481,1.481,0,0,1,1.2-.591,1.481,1.481,0,0,1,1.2.591A4.987,4.987,0,0,1,11.76-4.32a4.987,4.987,0,0,1-.624,2.847A1.481,1.481,0,0,1,9.936-.882ZM17.472.18A2.573,2.573,0,0,0,19.608-.882a5.912,5.912,0,0,0,.828-3.438,5.912,5.912,0,0,0-.828-3.438A2.573,2.573,0,0,0,17.472-8.82a2.573,2.573,0,0,0-2.136,1.062,5.912,5.912,0,0,0-.828,3.438,5.912,5.912,0,0,0,.828,3.438A2.573,2.573,0,0,0,17.472.18Zm0-1.062a1.481,1.481,0,0,1-1.2-.591,4.987,4.987,0,0,1-.624-2.847,4.987,4.987,0,0,1,.624-2.847,1.481,1.481,0,0,1,1.2-.591,1.481,1.481,0,0,1,1.2.591A4.987,4.987,0,0,1,19.3-4.32a4.987,4.987,0,0,1-.624,2.847A1.481,1.481,0,0,1,17.472-.882Z" transform="translate(740.076 4435.887)" fill="#343434"/><path d="M2.916.047h1.14V-8.82L.924-7.6v1.1l1.992-.772Zm6.228,0h1.14V-8.82L7.152-7.6v1.1l1.992-.772Zm7.02.133A2.573,2.573,0,0,0,18.3-.882a5.912,5.912,0,0,0,.828-3.438A5.912,5.912,0,0,0,18.3-7.758,2.573,2.573,0,0,0,16.164-8.82a2.573,2.573,0,0,0-2.136,1.062A5.912,5.912,0,0,0,13.2-4.32a5.912,5.912,0,0,0,.828,3.438A2.573,2.573,0,0,0,16.164.18Zm0-1.062a1.481,1.481,0,0,1-1.2-.591A4.987,4.987,0,0,1,14.34-4.32a4.987,4.987,0,0,1,.624-2.847,1.481,1.481,0,0,1,1.2-.591,1.481,1.481,0,0,1,1.2.591,4.987,4.987,0,0,1,.624,2.847,4.987,4.987,0,0,1-.624,2.847A1.481,1.481,0,0,1,16.164-.882Z" transform="translate(740.076 4408.887)" fill="#343434"/><path d="M2.916.047h1.14V-8.82L.924-7.6v1.1l1.992-.772Zm3.6-.024.012.024h5.76V-.99H8.808L8.8-1.014l1.512-1.822a5.5,5.5,0,0,0,1.668-3.426A2.531,2.531,0,0,0,9.18-8.82a3.775,3.775,0,0,0-2,.555v1.158A3.381,3.381,0,0,1,9.12-7.758,1.52,1.52,0,0,1,10.836-6.2c0,.82-.468,1.58-1.452,2.763ZM16.8.18A2.573,2.573,0,0,0,18.936-.882a5.912,5.912,0,0,0,.828-3.438,5.912,5.912,0,0,0-.828-3.438A2.573,2.573,0,0,0,16.8-8.82a2.573,2.573,0,0,0-2.136,1.062,5.912,5.912,0,0,0-.828,3.438,5.912,5.912,0,0,0,.828,3.438A2.573,2.573,0,0,0,16.8.18Zm0-1.062a1.481,1.481,0,0,1-1.2-.591,4.987,4.987,0,0,1-.624-2.847A4.987,4.987,0,0,1,15.6-7.167a1.481,1.481,0,0,1,1.2-.591,1.481,1.481,0,0,1,1.2.591,4.987,4.987,0,0,1,.624,2.847A4.987,4.987,0,0,1,18-1.473,1.481,1.481,0,0,1,16.8-.882Z" transform="translate(740.076 4381.887)" fill="#343434"/><path d="M3.348.047,5.376-3.21a5.2,5.2,0,0,0,1.044-2.8,2.739,2.739,0,0,0-2.9-2.811A2.8,2.8,0,0,0,.54-6.045a2.593,2.593,0,0,0,2.628,2.63A2.325,2.325,0,0,0,4.344-3.7l.024.024L2.04.047Zm.12-4.44a1.69,1.69,0,0,1-1.8-1.689A1.731,1.731,0,0,1,3.48-7.795,1.752,1.752,0,0,1,5.268-6.069,1.7,1.7,0,0,1,3.468-4.392ZM10.86.18A2.573,2.573,0,0,0,13-.882a5.912,5.912,0,0,0,.828-3.438A5.912,5.912,0,0,0,13-7.758,2.573,2.573,0,0,0,10.86-8.82,2.573,2.573,0,0,0,8.724-7.758,5.912,5.912,0,0,0,7.9-4.32,5.912,5.912,0,0,0,8.724-.882,2.573,2.573,0,0,0,10.86.18Zm0-1.062a1.481,1.481,0,0,1-1.2-.591A4.987,4.987,0,0,1,9.036-4.32,4.987,4.987,0,0,1,9.66-7.167a1.481,1.481,0,0,1,1.2-.591,1.481,1.481,0,0,1,1.2.591,4.987,4.987,0,0,1,.624,2.847,4.987,4.987,0,0,1-.624,2.847A1.481,1.481,0,0,1,10.86-.882Z" transform="translate(746.927 4462.887)" fill="#343434"/><path d="M.708-2.4A2.639,2.639,0,0,0,3.624.18,2.639,2.639,0,0,0,6.54-2.4a2.177,2.177,0,0,0-1.5-2.16v-.024A1.883,1.883,0,0,0,6.3-6.431,2.441,2.441,0,0,0,3.624-8.82,2.441,2.441,0,0,0,.948-6.431a1.883,1.883,0,0,0,1.26,1.846v.024A2.177,2.177,0,0,0,.708-2.4ZM3.624-4.959a1.491,1.491,0,0,1-1.6-1.424,1.477,1.477,0,0,1,1.6-1.424,1.477,1.477,0,0,1,1.6,1.424A1.491,1.491,0,0,1,3.624-4.959ZM1.836-2.426A1.672,1.672,0,0,1,3.624-4.043,1.672,1.672,0,0,1,5.412-2.426,1.647,1.647,0,0,1,3.624-.833,1.647,1.647,0,0,1,1.836-2.426ZM11.076.18A2.573,2.573,0,0,0,13.212-.882,5.912,5.912,0,0,0,14.04-4.32a5.912,5.912,0,0,0-.828-3.438A2.573,2.573,0,0,0,11.076-8.82,2.573,2.573,0,0,0,8.94-7.758,5.912,5.912,0,0,0,8.112-4.32,5.912,5.912,0,0,0,8.94-.882,2.573,2.573,0,0,0,11.076.18Zm0-1.062a1.481,1.481,0,0,1-1.2-.591A4.987,4.987,0,0,1,9.252-4.32a4.987,4.987,0,0,1,.624-2.847,1.481,1.481,0,0,1,1.2-.591,1.481,1.481,0,0,1,1.2.591A4.987,4.987,0,0,1,12.9-4.32a4.987,4.987,0,0,1-.624,2.847A1.481,1.481,0,0,1,11.076-.882Z" transform="translate(745.948 4488.887)" fill="#343434"/><path d="M1.44.047H2.628l3.624-8.71L6.24-8.687H.576V-7.65H4.644ZM10.392.18A2.573,2.573,0,0,0,12.528-.882a5.912,5.912,0,0,0,.828-3.438,5.912,5.912,0,0,0-.828-3.438A2.573,2.573,0,0,0,10.392-8.82,2.573,2.573,0,0,0,8.256-7.758,5.912,5.912,0,0,0,7.428-4.32,5.912,5.912,0,0,0,8.256-.882,2.573,2.573,0,0,0,10.392.18Zm0-1.062a1.481,1.481,0,0,1-1.2-.591A4.987,4.987,0,0,1,8.568-4.32a4.987,4.987,0,0,1,.624-2.847,1.481,1.481,0,0,1,1.2-.591,1.481,1.481,0,0,1,1.2.591,4.987,4.987,0,0,1,.624,2.847,4.987,4.987,0,0,1-.624,2.847A1.481,1.481,0,0,1,10.392-.882Z" transform="translate(746.933 4515.887)" fill="#343434"/><path d="M3.529-8.687,1.639-5.538A5.359,5.359,0,0,0,.612-2.7,2.755,2.755,0,0,0,3.483.18,2.734,2.734,0,0,0,6.353-2.583,2.55,2.55,0,0,0,3.786-5.225,2.127,2.127,0,0,0,2.5-4.839l-.023-.012c.082-.157.2-.35.315-.531L4.8-8.687Zm-1.8,6.092A1.7,1.7,0,0,1,3.518-4.26,1.681,1.681,0,0,1,5.257-2.547,1.7,1.7,0,0,1,3.494-.833,1.755,1.755,0,0,1,1.732-2.595Zm9,2.775A2.48,2.48,0,0,0,12.807-.882a6.043,6.043,0,0,0,.805-3.438,6.043,6.043,0,0,0-.805-3.438A2.48,2.48,0,0,0,10.73-8.82,2.48,2.48,0,0,0,8.652-7.758,6.043,6.043,0,0,0,7.847-4.32,6.043,6.043,0,0,0,8.652-.882,2.48,2.48,0,0,0,10.73.18Zm0-1.062a1.427,1.427,0,0,1-1.167-.591A5.1,5.1,0,0,1,8.956-4.32a5.1,5.1,0,0,1,.607-2.847,1.427,1.427,0,0,1,1.167-.591,1.427,1.427,0,0,1,1.167.591A5.1,5.1,0,0,1,12.5-4.32,5.1,5.1,0,0,1,11.9-1.473,1.427,1.427,0,0,1,10.73-.882Z" transform="translate(746.388 4541.887)" fill="#343434"/><path d="M.672-.4A4.367,4.367,0,0,0,2.917.18c1.875,0,3.17-1.038,3.17-2.654,0-1.991-1.936-2.654-3.787-2.654L2.485-7.65H5.754L5.84-8.687H1.4L1.042-4.055a6.958,6.958,0,0,1,1-.072c1.246,0,2.874.35,2.874,1.7,0,.965-.839,1.544-2,1.544A3.664,3.664,0,0,1,.758-1.593ZM10.626.18a2.67,2.67,0,0,0,2.2-1.062,5.788,5.788,0,0,0,.851-3.438,5.788,5.788,0,0,0-.851-3.438,2.67,2.67,0,0,0-2.2-1.062,2.67,2.67,0,0,0-2.2,1.062A5.788,5.788,0,0,0,7.579-4.32,5.788,5.788,0,0,0,8.43-.882,2.67,2.67,0,0,0,10.626.18Zm0-1.062a1.537,1.537,0,0,1-1.233-.591A4.878,4.878,0,0,1,8.751-4.32a4.878,4.878,0,0,1,.641-2.847,1.537,1.537,0,0,1,1.233-.591,1.537,1.537,0,0,1,1.233.591A4.878,4.878,0,0,1,12.5-4.32a4.878,4.878,0,0,1-.641,2.847A1.537,1.537,0,0,1,10.626-.882Z" transform="translate(747.328 4568.887)" fill="#343434"/><path d="M5.641-8.687H4.615l-4.4,6.6.012.024h4.3V.047H5.641V-2.064H7.175V-3.077H5.641ZM3.471-5.3c.354-.531.731-1.1,1.061-1.641l.024.012c-.012.531-.024,1.182-.024,1.786v2.063H2.021L2.009-3.1ZM11.3.18A2.515,2.515,0,0,0,13.4-.882a5.993,5.993,0,0,0,.814-3.438A5.993,5.993,0,0,0,13.4-7.758,2.515,2.515,0,0,0,11.3-8.82,2.515,2.515,0,0,0,9.2-7.758,5.993,5.993,0,0,0,8.39-4.32,5.993,5.993,0,0,0,9.2-.882,2.515,2.515,0,0,0,11.3.18Zm0-1.062a1.447,1.447,0,0,1-1.179-.591A5.058,5.058,0,0,1,9.51-4.32a5.058,5.058,0,0,1,.613-2.847A1.447,1.447,0,0,1,11.3-7.758a1.447,1.447,0,0,1,1.179.591A5.058,5.058,0,0,1,13.1-4.32a5.058,5.058,0,0,1-.613,2.847A1.447,1.447,0,0,1,11.3-.882Z" transform="translate(745.784 4595.887)" fill="#343434"/><path d="M.636-.628A3.788,3.788,0,0,0,3.058.18C4.762.18,6-.821,6-2.341A1.967,1.967,0,0,0,4.409-4.4v-.024A1.962,1.962,0,0,0,5.821-6.407,2.509,2.509,0,0,0,3.034-8.82a3.745,3.745,0,0,0-1.875.483v1.17a3.249,3.249,0,0,1,1.814-.591A1.493,1.493,0,0,1,4.665-6.3c0,.857-.621,1.46-1.728,1.46H2.145v1.013h.828c1.254,0,1.875.6,1.875,1.46,0,.929-.755,1.484-1.8,1.484A3.467,3.467,0,0,1,.636-1.943ZM10.629.18A2.623,2.623,0,0,0,12.8-.882a5.847,5.847,0,0,0,.84-3.438,5.847,5.847,0,0,0-.84-3.438A2.623,2.623,0,0,0,10.629-8.82,2.623,2.623,0,0,0,8.463-7.758a5.847,5.847,0,0,0-.84,3.438,5.847,5.847,0,0,0,.84,3.438A2.623,2.623,0,0,0,10.629.18Zm0-1.062a1.51,1.51,0,0,1-1.217-.591A4.93,4.93,0,0,1,8.779-4.32a4.93,4.93,0,0,1,.633-2.847,1.51,1.51,0,0,1,1.217-.591,1.51,1.51,0,0,1,1.217.591A4.93,4.93,0,0,1,12.48-4.32a4.93,4.93,0,0,1-.633,2.847A1.51,1.51,0,0,1,10.629-.882Z" transform="translate(747.364 4621.887)" fill="#343434"/><path d="M.288.023.3.047H5.952V-.99H2.537l-.012-.024L4.009-2.836A5.539,5.539,0,0,0,5.646-6.262,2.5,2.5,0,0,0,2.9-8.82a3.653,3.653,0,0,0-1.966.555v1.158a3.277,3.277,0,0,1,1.908-.651A1.5,1.5,0,0,1,4.527-6.2c0,.82-.459,1.58-1.425,2.763ZM10.379.18a2.51,2.51,0,0,0,2.1-1.062,6,6,0,0,0,.812-3.438,6,6,0,0,0-.812-3.438,2.51,2.51,0,0,0-2.1-1.062,2.51,2.51,0,0,0-2.1,1.062A6,6,0,0,0,7.471-4.32,6,6,0,0,0,8.283-.882,2.51,2.51,0,0,0,10.379.18Zm0-1.062A1.444,1.444,0,0,1,9.2-1.473,5.065,5.065,0,0,1,8.59-4.32,5.065,5.065,0,0,1,9.2-7.167a1.444,1.444,0,0,1,1.178-.591,1.444,1.444,0,0,1,1.178.591,5.065,5.065,0,0,1,.612,2.847,5.065,5.065,0,0,1-.612,2.847A1.444,1.444,0,0,1,10.379-.882Z" transform="translate(746.712 4648.887)" fill="#343434"/><path d="M2.92.047H4.062V-8.82L.924-7.6v1.1l2-.772ZM9.954.18a2.58,2.58,0,0,0,2.14-1.062,5.9,5.9,0,0,0,.83-3.438,5.9,5.9,0,0,0-.83-3.438A2.58,2.58,0,0,0,9.954-8.82a2.58,2.58,0,0,0-2.14,1.062,5.9,5.9,0,0,0-.83,3.438,5.9,5.9,0,0,0,.83,3.438A2.58,2.58,0,0,0,9.954.18Zm0-1.062a1.485,1.485,0,0,1-1.2-.591A4.979,4.979,0,0,1,8.126-4.32a4.979,4.979,0,0,1,.625-2.847,1.485,1.485,0,0,1,1.2-.591,1.485,1.485,0,0,1,1.2.591,4.979,4.979,0,0,1,.625,2.847,4.979,4.979,0,0,1-.625,2.847A1.485,1.485,0,0,1,9.954-.882Z" transform="translate(747.076 4675.887)" fill="#343434"/><path d="M3.744.18A2.615,2.615,0,0,0,5.906-.882,5.857,5.857,0,0,0,6.744-4.32a5.857,5.857,0,0,0-.838-3.438A2.615,2.615,0,0,0,3.744-8.82,2.615,2.615,0,0,0,1.582-7.758,5.857,5.857,0,0,0,.744-4.32,5.857,5.857,0,0,0,1.582-.882,2.615,2.615,0,0,0,3.744.18Zm0-1.062a1.505,1.505,0,0,1-1.215-.591A4.939,4.939,0,0,1,1.9-4.32a4.939,4.939,0,0,1,.632-2.847,1.505,1.505,0,0,1,1.215-.591,1.505,1.505,0,0,1,1.215.591A4.939,4.939,0,0,1,5.59-4.32a4.939,4.939,0,0,1-.632,2.847A1.505,1.505,0,0,1,3.744-.882Z" transform="translate(753.256 4701.887)" fill="#343434"/><path d="M11,.5H0v-1H11Z" transform="translate(767 4564.567)" fill="#7db959"/><path d="M11,.5H0v-1H11Z" transform="translate(767 4671.567)" fill="#7db959"/><path d="M11,.5H0v-1H11Z" transform="translate(767 4617.567)" fill="#7db959"/><path d="M11,.5H0v-1H11Z" transform="translate(767 4510.567)" fill="#7db959"/><path d="M11,.5H0v-1H11Z" transform="translate(767 4457.567)" fill="#7db959"/><path d="M11,.5H0v-1H11Z" transform="translate(767 4403.567)" fill="#7db959"/><path d="M11,.5H0v-1H11Z" transform="translate(767 4377.567)" fill="#7db959"/><path d="M11,.5H0v-1H11Z" transform="translate(767 4698.567)" fill="#7db959"/><path d="M11,.5H0v-1H11Z" transform="translate(767 4645.567)" fill="#7db959"/><path d="M11,.5H0v-1H11Z" transform="translate(767 4538.567)" fill="#7db959"/><path d="M11,.5H0v-1H11Z" transform="translate(767 4484.567)" fill="#7db959"/><path d="M11,.5H0v-1H11Z" transform="translate(767 4431.567)" fill="#7db959"/></g><path d="M136.125,557.513a14.972,14.972,0,0,0-15.013,14.93V740.21h65.843V572.443a14.972,14.972,0,0,0-15.013-14.93Z" transform="translate(695.184 3861.741)" fill="#dfdf00"/><path d="M18.827,17.709h3.419a6.9,6.9,0,0,0,4.024-.846,3.469,3.469,0,0,0,1.478-2.925,2.889,2.889,0,0,0-2.475-2.978v-.035a2.733,2.733,0,0,0,1.959-2.7,2.893,2.893,0,0,0-1.513-2.608,6.3,6.3,0,0,0-3.437-.67H18.827Zm1.692-7.189V6.468H22.05a4.9,4.9,0,0,1,2.582.44A1.773,1.773,0,0,1,25.54,8.53c0,1.392-1.175,1.991-2.475,1.991Zm0,5.674V11.807h2.493c1.923,0,3.045.758,3.045,2.167a1.951,1.951,0,0,1-.837,1.674,4.967,4.967,0,0,1-2.867.546ZM32.68,17.9a4.183,4.183,0,0,0,2.689-.951H35.4a1.866,1.866,0,0,0,1.692.916,2.3,2.3,0,0,0,.855-.159V16.388a1.237,1.237,0,0,1-.516.123c-.481,0-.677-.388-.677-.916V11.913a2.905,2.905,0,0,0-.872-2.273,3.836,3.836,0,0,0-2.617-.793,5.559,5.559,0,0,0-2.92.74v1.551a4.6,4.6,0,0,1,2.689-.863,2.394,2.394,0,0,1,1.62.476,1.862,1.862,0,0,1,.5,1.427V12.9a7.754,7.754,0,0,0-1.87-.229,4.612,4.612,0,0,0-2.457.581,2.4,2.4,0,0,0-1.157,2.114,2.3,2.3,0,0,0,.926,1.921A3.523,3.523,0,0,0,32.68,17.9Zm.285-1.41c-.944,0-1.674-.423-1.674-1.269,0-1.022,1.068-1.339,2.154-1.339a6.671,6.671,0,0,1,1.709.229v1.621A3.676,3.676,0,0,1,32.965,16.494Zm6.695.7a7.431,7.431,0,0,0,3.276.7c1.87,0,3.686-.758,3.686-2.766,0-1.8-1.389-2.255-3.063-2.537-1.3-.229-2.546-.229-2.546-1.216,0-.775.783-1.11,1.905-1.11a6.708,6.708,0,0,1,3.205.846V9.534a7.154,7.154,0,0,0-3.134-.687c-2.03,0-3.579.863-3.6,2.661,0,1.709,1.318,2.2,2.991,2.484,1.353.229,2.617.247,2.617,1.286,0,.846-.783,1.2-1.994,1.2a6.458,6.458,0,0,1-3.347-.934Zm17-3.365a5.381,5.381,0,0,0,.053-.793,3.9,3.9,0,0,0-3.988-4.193,4.342,4.342,0,0,0-4.362,4.528A4.444,4.444,0,0,0,53.1,17.9a6.252,6.252,0,0,0,3.134-.811V15.4a5.025,5.025,0,0,1-3.027,1.075,2.993,2.993,0,0,1-3.241-2.643Zm-3.971-3.559a2.363,2.363,0,0,1,2.475,2.308H50A2.668,2.668,0,0,1,52.693,10.274Zm6.481,7.435h1.6V4.248h-1.6ZM63.448,6.063a1.122,1.122,0,1,0,1.122-1.11A1.111,1.111,0,0,0,63.448,6.063Zm.32,11.647h1.6V9.041h-1.6Zm4.594,0h1.6V11.772a3.7,3.7,0,0,1,2.742-1.445,1.826,1.826,0,0,1,1.407.564,2.666,2.666,0,0,1,.41,1.762v5.057h1.6V12.353A3.486,3.486,0,0,0,75.4,9.8a3.046,3.046,0,0,0-2.333-.951A4.366,4.366,0,0,0,70,10.151l-.036-.018V9.041h-1.6Zm18.411-3.876a5.381,5.381,0,0,0,.053-.793,3.9,3.9,0,0,0-3.988-4.193,4.342,4.342,0,0,0-4.362,4.528A4.444,4.444,0,0,0,83.212,17.9a6.252,6.252,0,0,0,3.134-.811V15.4a5.025,5.025,0,0,1-3.027,1.075,2.993,2.993,0,0,1-3.241-2.643ZM82.8,10.274a2.363,2.363,0,0,1,2.475,2.308H80.114A2.668,2.668,0,0,1,82.8,10.274ZM32.91,31.7A10.675,10.675,0,0,0,34.9,38.248h1.233A10.727,10.727,0,0,1,34.06,31.7a10.727,10.727,0,0,1,2.077-6.551H34.9A10.675,10.675,0,0,0,32.91,31.7Zm5.069,3.632h1.246V30.711a2.878,2.878,0,0,1,2.133-1.124,1.42,1.42,0,0,1,1.094.439,2.073,2.073,0,0,1,.319,1.37v3.933h1.246V31.163a2.712,2.712,0,0,0-.568-1.987,2.369,2.369,0,0,0-1.814-.74,3.4,3.4,0,0,0-2.382,1.014l-.028-.014v-.85H37.979Zm7.977-5.865h6.675v-.987H45.956Zm0,2.8h6.675v-.987H45.956Zm10.913,3.07h1.316V25.256L54.57,26.641v1.247l2.3-.877Zm4.556-.767a4.314,4.314,0,0,0,2.756.918c1.939,0,3.351-1.137,3.351-2.864a2.235,2.235,0,0,0-1.814-2.343v-.027A2.229,2.229,0,0,0,67.325,28c0-1.644-1.343-2.741-3.171-2.741a4.267,4.267,0,0,0-2.133.548v1.329a3.7,3.7,0,0,1,2.063-.672,1.7,1.7,0,0,1,1.925,1.658c0,.973-.706,1.658-1.967,1.658h-.9V30.93h.942c1.426,0,2.133.685,2.133,1.658,0,1.055-.859,1.686-2.05,1.686a3.948,3.948,0,0,1-2.742-1.206Zm7.7,3.686h1.233A10.675,10.675,0,0,0,72.352,31.7a10.675,10.675,0,0,0-1.994-6.551H69.125A10.727,10.727,0,0,1,71.2,31.7,10.727,10.727,0,0,1,69.125,38.248Z" transform="translate(795.997 4607)" fill="#343434"/><path d="M.5,17h-1V0h1Z" transform="translate(848.801 4590)" fill="#7db959"/><path d="M5.708-14.479,2.614-9.653A8.525,8.525,0,0,0,.84-4.787C.84-1.59,3.185.3,6.141.3,9.2.3,11.462-1.751,11.462-4.546A4.371,4.371,0,0,0,7.107-9.07a3.483,3.483,0,0,0-1.5.3l-.02-.02,3.764-5.69ZM4.052-4.546A2.079,2.079,0,0,1,6.22-6.617,2.088,2.088,0,0,1,8.368-4.486,2.1,2.1,0,0,1,6.2-2.374,2.133,2.133,0,0,1,4.052-4.546ZM16.133.079h3.133V-14.7l-6.03,2.232v2.9l2.9-1.066Zm10.6-7.259a3.479,3.479,0,0,0,3.547-3.76,3.479,3.479,0,0,0-3.547-3.76,3.479,3.479,0,0,0-3.547,3.76A3.479,3.479,0,0,0,26.735-7.18ZM25.848.079h2.01L37.18-14.479h-2.01Zm.887-9.129c-.926,0-1.517-.845-1.517-1.89s.591-1.89,1.517-1.89,1.517.845,1.517,1.89S27.661-9.05,26.735-9.05Zm6.011,5.59A3.479,3.479,0,0,0,36.293.3,3.479,3.479,0,0,0,39.84-3.46a3.479,3.479,0,0,0-3.547-3.76A3.479,3.479,0,0,0,32.746-3.46Zm2.03,0c0-1.046.591-1.89,1.517-1.89s1.517.845,1.517,1.89-.591,1.89-1.517,1.89S34.775-2.414,34.775-3.46Z" transform="translate(828.16 4451.7)" fill="#343434"/><path d="M4.454-7.317a3.466,3.466,0,0,0,3.594-3.695,3.466,3.466,0,0,0-3.594-3.695A3.466,3.466,0,0,0,.86-11.012,3.466,3.466,0,0,0,4.454-7.317Zm-.9,7.133H5.592L15.036-14.49H13Zm.9-8.97a1.661,1.661,0,0,1-1.537-1.857,1.661,1.661,0,0,1,1.537-1.857,1.661,1.661,0,0,1,1.537,1.857A1.661,1.661,0,0,1,4.454-9.155Zm6.09,5.493A3.466,3.466,0,0,0,14.138.033a3.466,3.466,0,0,0,3.594-3.695,3.466,3.466,0,0,0-3.594-3.695A3.466,3.466,0,0,0,10.544-3.662Zm2.057,0a1.661,1.661,0,0,1,1.537-1.857,1.661,1.661,0,0,1,1.537,1.857A1.661,1.661,0,0,1,14.138-1.8,1.661,1.661,0,0,1,12.6-3.662ZM25.04-.184h3.175V-5.3h1a9.109,9.109,0,0,0,4.672-.889,4.152,4.152,0,0,0,2.077-3.734,4.133,4.133,0,0,0-2.336-3.813,9.33,9.33,0,0,0-4.293-.751H25.04Zm3.175-7.666v-3.892h1.078a6.408,6.408,0,0,1,2.476.3,1.7,1.7,0,0,1,1.018,1.679,1.677,1.677,0,0,1-.9,1.561,5.327,5.327,0,0,1-2.516.356ZM37.8-.184h3.035V-6.073a3.279,3.279,0,0,1,2.656-1.146,3.571,3.571,0,0,1,.819.1V-9.945a2.459,2.459,0,0,0-.639-.079,3.334,3.334,0,0,0-2.855,1.442l-.04-.02v-1.3H37.8ZM55.07-4.255a7.924,7.924,0,0,0,.06-1.027,4.521,4.521,0,0,0-4.692-4.841,5.041,5.041,0,0,0-5.151,5.117c0,3.043,2.336,5.038,5.571,5.038a7.607,7.607,0,0,0,3.734-.889V-3.366A6.156,6.156,0,0,1,51.256-2.3,2.659,2.659,0,0,1,48.4-4.255Zm-6.689-1.9A2.024,2.024,0,0,1,50.4-7.831a1.912,1.912,0,0,1,1.937,1.679ZM63.915-.7v.514H66.89v-15.1H63.855v5.493l-.04.02a4.7,4.7,0,0,0-1.857-.356,5.1,5.1,0,0,0-5.191,5.276A4.62,4.62,0,0,0,61.379.033a4.432,4.432,0,0,0,2.5-.751Zm-.06-2.213a3.237,3.237,0,0,1-1.7.494,2.323,2.323,0,0,1-2.336-2.569,2.414,2.414,0,0,1,2.456-2.648,3.566,3.566,0,0,1,1.577.375Zm5.511-10.077a1.747,1.747,0,0,0,1.757,1.719,1.747,1.747,0,0,0,1.757-1.719,1.747,1.747,0,0,0-1.757-1.719A1.747,1.747,0,0,0,69.366-12.988Zm.24,12.8h3.035V-9.906H69.606Zm13.837-3.3a5.024,5.024,0,0,1-2.875.968,2.548,2.548,0,0,1-2.775-2.529,2.55,2.55,0,0,1,2.735-2.549,5.32,5.32,0,0,1,2.775.909V-9.471a6.662,6.662,0,0,0-2.915-.652c-3.075,0-5.631,2.035-5.631,5.1,0,2.924,2.316,5.058,5.471,5.058a6.813,6.813,0,0,0,3.215-.751Zm8.706.593a3.545,3.545,0,0,1-1.458.4c-.918,0-1.138-.711-1.138-1.66v-3.26h2.6v-2.49h-2.6v-3.043l-3.035.514v2.529h-1.6v2.49h1.6V-3.84a3.934,3.934,0,0,0,.859,2.9,3.482,3.482,0,0,0,2.556.968A4.562,4.562,0,0,0,92.148-.5ZM103.17-4.255a7.923,7.923,0,0,0,.06-1.027,4.521,4.521,0,0,0-4.692-4.841,5.041,5.041,0,0,0-5.151,5.117c0,3.043,2.336,5.038,5.571,5.038a7.607,7.607,0,0,0,3.734-.889V-3.366A6.156,6.156,0,0,1,99.356-2.3,2.659,2.659,0,0,1,96.5-4.255Zm-6.689-1.9A2.024,2.024,0,0,1,98.5-7.831a1.912,1.912,0,0,1,1.937,1.679ZM112.015-.7v.514h2.975v-15.1h-3.035v5.493l-.04.02a4.7,4.7,0,0,0-1.857-.356,5.1,5.1,0,0,0-5.191,5.276,4.62,4.62,0,0,0,4.612,4.88,4.432,4.432,0,0,0,2.5-.751Zm-.06-2.213a3.237,3.237,0,0,1-1.7.494,2.323,2.323,0,0,1-2.336-2.569,2.414,2.414,0,0,1,2.456-2.648,3.566,3.566,0,0,1,1.577.375Zm13.917-.02v-8.812h.859a6.951,6.951,0,0,1,4.013.869,4.141,4.141,0,0,1,1.677,3.517,4.221,4.221,0,0,1-1.4,3.3c-.9.771-2.216,1.126-4.273,1.126ZM122.7-.184h3.913c3.035,0,5.112-.573,6.589-1.759a6.773,6.773,0,0,0,2.4-5.414,6.653,6.653,0,0,0-2.775-5.69,10.529,10.529,0,0,0-6.07-1.442H122.7Zm14.736-12.8a1.747,1.747,0,0,0,1.757,1.719,1.747,1.747,0,0,0,1.757-1.719,1.747,1.747,0,0,0-1.757-1.719A1.747,1.747,0,0,0,137.433-12.988Zm.24,12.8h3.035V-9.906h-3.035Zm5.471-.593a9.408,9.408,0,0,0,3.874.81c2.516,0,4.393-1.166,4.413-3.3,0-1.679-1.138-2.391-3.015-2.845-1.458-.356-2.516-.3-2.516-1.008,0-.454.479-.692,1.278-.692a8.341,8.341,0,0,1,3.694,1.047V-9.352a9.255,9.255,0,0,0-3.754-.771c-2.436,0-4.273,1.166-4.293,3.221,0,1.6,1.1,2.371,2.955,2.825,1.478.375,2.576.3,2.576,1.047,0,.533-.5.751-1.338.751a8.461,8.461,0,0,1-3.874-1.126Zm16.712-2.114a3.545,3.545,0,0,1-1.458.4c-.918,0-1.138-.711-1.138-1.66v-3.26h2.6v-2.49h-2.6v-3.043l-3.035.514v2.529h-1.6v2.49h1.6V-3.84a3.934,3.934,0,0,0,.859,2.9,3.482,3.482,0,0,0,2.556.968A4.563,4.563,0,0,0,159.856-.5Zm7.587,2.114a2.892,2.892,0,0,0,2.117.771,3.331,3.331,0,0,0,1.458-.3V-2.556a1.155,1.155,0,0,1-.5.119c-.419,0-.6-.316-.6-.771v-3.3a3.2,3.2,0,0,0-1.1-2.687,5.226,5.226,0,0,0-3.275-.929,7.88,7.88,0,0,0-3.434.751v2.588a6.184,6.184,0,0,1,2.875-.771,2.275,2.275,0,0,1,1.517.415,1.362,1.362,0,0,1,.379,1.027v.375a7.974,7.974,0,0,0-1.7-.178,4.892,4.892,0,0,0-2.755.692,2.762,2.762,0,0,0-1.2,2.351A2.642,2.642,0,0,0,162.392-.6a4.025,4.025,0,0,0,2.276.632,4.818,4.818,0,0,0,2.735-.81Zm-.559-1.8a2.748,2.748,0,0,1-1.378.4c-.7,0-1.258-.336-1.258-.968,0-.751.779-.988,1.557-.988A4.038,4.038,0,0,1,166.884-4Zm5.91,2.391h3.035v-6.54a3.524,3.524,0,0,1,2.057-.81,1.308,1.308,0,0,1,1.038.415,1.911,1.911,0,0,1,.339,1.363V-.184H182.3V-6.25a3.882,3.882,0,0,0-.859-2.885,3.558,3.558,0,0,0-2.576-.988A4.84,4.84,0,0,0,175.829-9l-.04-.02v-.889h-3Zm20.266-3.3a5.024,5.024,0,0,1-2.875.968,2.548,2.548,0,0,1-2.775-2.529,2.55,2.55,0,0,1,2.735-2.549,5.32,5.32,0,0,1,2.775.909V-9.471a6.662,6.662,0,0,0-2.915-.652c-3.075,0-5.631,2.035-5.631,5.1,0,2.924,2.316,5.058,5.471,5.058a6.813,6.813,0,0,0,3.215-.751ZM204.5-4.255a7.924,7.924,0,0,0,.06-1.027,4.521,4.521,0,0,0-4.692-4.841,5.041,5.041,0,0,0-5.151,5.117c0,3.043,2.336,5.038,5.571,5.038a7.607,7.607,0,0,0,3.734-.889V-3.366A6.157,6.157,0,0,1,200.688-2.3a2.659,2.659,0,0,1-2.855-1.956Zm-6.689-1.9a2.024,2.024,0,0,1,2.017-1.679,1.912,1.912,0,0,1,1.937,1.679ZM214.365-.184h3.314l1.557-4.979c.379-1.205.719-2.332,1.038-3.477h.04c.319,1.146.639,2.213,1.018,3.418l1.557,5.038h3.354L230.7-14.49H227.5L225.646-8.4c-.379,1.225-.759,2.549-1.078,3.754h-.04c-.339-1.225-.719-2.49-1.1-3.715l-1.9-6.125h-2.316L217.3-8.365c-.379,1.205-.759,2.49-1.1,3.715h-.04c-.319-1.205-.679-2.49-1.038-3.695l-1.837-6.145h-3.334Zm22.163-.593a2.892,2.892,0,0,0,2.116.771A3.331,3.331,0,0,0,240.1-.3V-2.556a1.155,1.155,0,0,1-.5.119c-.419,0-.6-.316-.6-.771v-3.3a3.2,3.2,0,0,0-1.1-2.687,5.226,5.226,0,0,0-3.275-.929,7.88,7.88,0,0,0-3.434.751v2.588a6.184,6.184,0,0,1,2.875-.771,2.275,2.275,0,0,1,1.517.415,1.362,1.362,0,0,1,.379,1.027v.375a7.974,7.974,0,0,0-1.7-.178,4.892,4.892,0,0,0-2.755.692,2.762,2.762,0,0,0-1.2,2.351A2.642,2.642,0,0,0,231.477-.6a4.025,4.025,0,0,0,2.276.632,4.818,4.818,0,0,0,2.735-.81Zm-.559-1.8a2.748,2.748,0,0,1-1.378.4c-.7,0-1.258-.336-1.258-.968,0-.751.779-.988,1.557-.988A4.038,4.038,0,0,1,235.969-4Zm5.91,2.391h3.035v-15.1h-3.035Zm5.75,0h3.035v-4.94l.04-.02,3.574,4.959h3.594L253.84-5.559l3.754-4.347h-3.454L250.7-5.776l-.04-.02V-15.28H247.63ZM267.8-4.255a7.922,7.922,0,0,0,.06-1.027,4.521,4.521,0,0,0-4.692-4.841,5.041,5.041,0,0,0-5.151,5.117c0,3.043,2.336,5.038,5.571,5.038a7.607,7.607,0,0,0,3.734-.889V-3.366A6.156,6.156,0,0,1,263.983-2.3a2.659,2.659,0,0,1-2.855-1.956Zm-6.689-1.9a2.024,2.024,0,0,1,2.017-1.679,1.912,1.912,0,0,1,1.937,1.679ZM276.642-.7v.514h2.975v-15.1h-3.035v5.493l-.04.02a4.7,4.7,0,0,0-1.857-.356,5.1,5.1,0,0,0-5.191,5.276,4.62,4.62,0,0,0,4.612,4.88,4.432,4.432,0,0,0,2.5-.751Zm-.06-2.213a3.237,3.237,0,0,1-1.7.494,2.323,2.323,0,0,1-2.336-2.569A2.414,2.414,0,0,1,275-7.633a3.566,3.566,0,0,1,1.577.375Zm5.331,5.631h2.1l1.8-5.928h-2.775Zm24.359-2.9h3.035V-6.29a3.779,3.779,0,0,0-.9-2.865,3.445,3.445,0,0,0-2.536-.968,5.136,5.136,0,0,0-3.454,1.383,3.308,3.308,0,0,0-2.855-1.383,4.579,4.579,0,0,0-2.955,1.106l-.04-.02v-.869h-3V-.184h3.035v-6.56a3.2,3.2,0,0,1,1.917-.79,1.364,1.364,0,0,1,1.038.415,1.82,1.82,0,0,1,.359,1.324V-.184h3.035V-6.29a3.169,3.169,0,0,0-.02-.435,3.1,3.1,0,0,1,1.937-.81,1.364,1.364,0,0,1,1.038.415,1.755,1.755,0,0,1,.359,1.324Zm14.875-4.07a7.922,7.922,0,0,0,.06-1.027,4.521,4.521,0,0,0-4.692-4.841,5.041,5.041,0,0,0-5.151,5.117c0,3.043,2.336,5.038,5.571,5.038a7.606,7.606,0,0,0,3.734-.889V-3.366A6.156,6.156,0,0,1,317.334-2.3a2.659,2.659,0,0,1-2.855-1.956Zm-6.689-1.9a2.024,2.024,0,0,1,2.017-1.679,1.912,1.912,0,0,1,1.937,1.679ZM329.993-.7v.514h2.975v-15.1h-3.035v5.493l-.04.02a4.7,4.7,0,0,0-1.857-.356,5.1,5.1,0,0,0-5.191,5.276,4.62,4.62,0,0,0,4.612,4.88,4.432,4.432,0,0,0,2.5-.751Zm-.06-2.213a3.237,3.237,0,0,1-1.7.494A2.323,2.323,0,0,1,325.9-4.986a2.414,2.414,0,0,1,2.456-2.648,3.566,3.566,0,0,1,1.577.375Zm5.511-10.077a1.747,1.747,0,0,0,1.757,1.719,1.747,1.747,0,0,0,1.757-1.719,1.747,1.747,0,0,0-1.757-1.719A1.747,1.747,0,0,0,335.444-12.988Zm.24,12.8h3.035V-9.906h-3.035ZM347-.777a2.892,2.892,0,0,0,2.116.771,3.331,3.331,0,0,0,1.458-.3V-2.556a1.155,1.155,0,0,1-.5.119c-.419,0-.6-.316-.6-.771v-3.3a3.2,3.2,0,0,0-1.1-2.687,5.226,5.226,0,0,0-3.275-.929,7.88,7.88,0,0,0-3.434.751v2.588a6.184,6.184,0,0,1,2.875-.771,2.275,2.275,0,0,1,1.517.415,1.362,1.362,0,0,1,.379,1.027v.375a7.974,7.974,0,0,0-1.7-.178,4.892,4.892,0,0,0-2.755.692,2.762,2.762,0,0,0-1.2,2.351A2.642,2.642,0,0,0,341.953-.6a4.025,4.025,0,0,0,2.276.632,4.817,4.817,0,0,0,2.735-.81Zm-.559-1.8a2.748,2.748,0,0,1-1.378.4c-.7,0-1.258-.336-1.258-.968,0-.751.779-.988,1.557-.988A4.038,4.038,0,0,1,346.446-4Zm5.91,2.391h3.035v-6.54a3.524,3.524,0,0,1,2.057-.81,1.308,1.308,0,0,1,1.038.415,1.911,1.911,0,0,1,.339,1.363V-.184h3.035V-6.25A3.882,3.882,0,0,0,361-9.135a3.558,3.558,0,0,0-2.576-.988A4.84,4.84,0,0,0,355.391-9l-.04-.02v-.889h-2.995Z" transform="translate(716.28 4602.86) rotate(-90)" fill="#005d55"/><path d="M8.016-.028h2.1v-10.11H7.974v3.756c0,.978.014,1.955.028,2.919l-.028.014C7.344-4.329,6.727-5.18,6.068-6.06L3.027-10.138H.924V-.028H3.069V-3.784c0-.978-.014-1.955-.028-2.919l.028-.014c.631.88,1.247,1.732,1.906,2.611Zm5.747-3.435a1.717,1.717,0,0,1,1.71-1.76,1.717,1.717,0,0,1,1.71,1.76,1.717,1.717,0,0,1-1.71,1.76A1.717,1.717,0,0,1,13.763-3.463Zm-2.131,0A3.645,3.645,0,0,0,15.473.126a3.645,3.645,0,0,0,3.841-3.589,3.645,3.645,0,0,0-3.841-3.589A3.645,3.645,0,0,0,11.633-3.463ZM20.785-.028h2.131V-4.189A2.294,2.294,0,0,1,24.78-5a2.49,2.49,0,0,1,.575.07v-2a1.715,1.715,0,0,0-.449-.056,2.336,2.336,0,0,0-2,1.019l-.028-.014V-6.9H20.785Zm14.675,0h2.131V-4.343a2.683,2.683,0,0,0-.631-2.025,2.409,2.409,0,0,0-1.78-.684,3.592,3.592,0,0,0-2.425.978,2.317,2.317,0,0,0-2-.978,3.2,3.2,0,0,0-2.074.782l-.028-.014V-6.9h-2.1V-.028h2.131V-4.664a2.241,2.241,0,0,1,1.346-.559.954.954,0,0,1,.729.293A1.293,1.293,0,0,1,31-3.993V-.028h2.131V-4.343a2.254,2.254,0,0,0-.014-.307,2.168,2.168,0,0,1,1.36-.573.954.954,0,0,1,.729.293,1.246,1.246,0,0,1,.252.936ZM43.38-.446A2.022,2.022,0,0,0,44.866.1a2.325,2.325,0,0,0,1.023-.209V-1.7a.806.806,0,0,1-.35.084c-.294,0-.42-.223-.42-.545V-4.5a2.268,2.268,0,0,0-.771-1.9,3.651,3.651,0,0,0-2.3-.656,5.5,5.5,0,0,0-2.411.531v1.829a4.319,4.319,0,0,1,2.018-.545,1.59,1.59,0,0,1,1.065.293.966.966,0,0,1,.266.726v.265A5.561,5.561,0,0,0,41.8-4.077a3.416,3.416,0,0,0-1.934.489,1.956,1.956,0,0,0-.841,1.662,1.871,1.871,0,0,0,.813,1.606,2.812,2.812,0,0,0,1.6.447,3.366,3.366,0,0,0,1.92-.573Zm-.392-1.271a1.92,1.92,0,0,1-.967.279c-.491,0-.883-.237-.883-.684,0-.531.547-.7,1.093-.7a2.816,2.816,0,0,1,.757.1Zm4.149,1.69h2.131V-10.7H47.136Zm7.5,0h2.131V-4.189A2.294,2.294,0,0,1,58.63-5a2.49,2.49,0,0,1,.575.07v-2a1.715,1.715,0,0,0-.449-.056,2.336,2.336,0,0,0-2,1.019l-.028-.014V-6.9H54.635Zm9.377-.419A2.022,2.022,0,0,0,65.5.1a2.325,2.325,0,0,0,1.023-.209V-1.7a.806.806,0,0,1-.35.084c-.294,0-.42-.223-.42-.545V-4.5a2.268,2.268,0,0,0-.771-1.9,3.651,3.651,0,0,0-2.3-.656,5.5,5.5,0,0,0-2.411.531v1.829a4.319,4.319,0,0,1,2.018-.545,1.59,1.59,0,0,1,1.065.293.966.966,0,0,1,.266.726v.265a5.561,5.561,0,0,0-1.191-.126,3.416,3.416,0,0,0-1.934.489,1.956,1.956,0,0,0-.841,1.662,1.871,1.871,0,0,0,.813,1.606,2.812,2.812,0,0,0,1.6.447,3.366,3.366,0,0,0,1.92-.573ZM63.62-1.717a1.92,1.92,0,0,1-.967.279c-.491,0-.883-.237-.883-.684,0-.531.547-.7,1.093-.7a2.816,2.816,0,0,1,.757.1Zm4.149,1.69H69.9V-4.65a2.464,2.464,0,0,1,1.444-.573.915.915,0,0,1,.729.293,1.358,1.358,0,0,1,.238.964V-.028h2.131V-4.315a2.756,2.756,0,0,0-.6-2.039,2.489,2.489,0,0,0-1.808-.7,3.384,3.384,0,0,0-2.131.8l-.028-.014V-6.9h-2.1ZM76.879,2.7a5.637,5.637,0,0,0,2.355.5c2.2,0,3.686-1.2,3.686-3.365V-6.954l-1.668.293a3.919,3.919,0,0,0-1.724-.391A3.472,3.472,0,0,0,75.94-3.463,3.217,3.217,0,0,0,79.15-.1a2.913,2.913,0,0,0,1.612-.461l.028.014v.377a1.473,1.473,0,0,1-1.682,1.55,4.388,4.388,0,0,1-2.229-.7ZM80.79-2.122a2.15,2.15,0,0,1-1.079.293A1.573,1.573,0,0,1,78.1-3.547a1.579,1.579,0,0,1,1.64-1.7A2.429,2.429,0,0,1,80.79-5Zm10.5-.782a5.638,5.638,0,0,0,.042-.726,3.185,3.185,0,0,0-3.294-3.421A3.55,3.55,0,0,0,84.42-3.435c0,2.151,1.64,3.561,3.911,3.561A5.311,5.311,0,0,0,90.952-.5V-2.276a4.3,4.3,0,0,1-2.341.754,1.867,1.867,0,0,1-2-1.382Zm-4.7-1.341a1.423,1.423,0,0,1,1.416-1.187,1.345,1.345,0,0,1,1.36,1.187ZM96.7-.028h2.131V-5.139h1.6V-6.9h-1.6V-8.057c0-.587.14-1.005.8-1.005a4.45,4.45,0,0,1,.925.126v-1.718a3.416,3.416,0,0,0-1.177-.2,2.834,2.834,0,0,0-1.948.642,3.075,3.075,0,0,0-.729,2.29V-6.9h-.981v1.76H96.7Zm6.616-3.435a1.717,1.717,0,0,1,1.71-1.76,1.717,1.717,0,0,1,1.71,1.76,1.717,1.717,0,0,1-1.71,1.76A1.717,1.717,0,0,1,103.314-3.463Zm-2.131,0A3.645,3.645,0,0,0,105.024.126a3.645,3.645,0,0,0,3.841-3.589,3.645,3.645,0,0,0-3.841-3.589A3.645,3.645,0,0,0,101.184-3.463Zm9.153,3.435h2.131V-4.189A2.294,2.294,0,0,1,114.331-5a2.49,2.49,0,0,1,.575.07v-2a1.715,1.715,0,0,0-.449-.056,2.336,2.336,0,0,0-2,1.019l-.028-.014V-6.9h-2.088Zm9.223,0h2.131V-4.65a2.464,2.464,0,0,1,1.444-.573.915.915,0,0,1,.729.293,1.358,1.358,0,0,1,.238.964V-.028h2.131V-4.315a2.756,2.756,0,0,0-.6-2.039,2.489,2.489,0,0,0-1.808-.7,3.312,3.312,0,0,0-2.1.782l-.028-.014V-10.7H119.56ZM134.543-2.9a5.638,5.638,0,0,0,.042-.726,3.185,3.185,0,0,0-3.294-3.421,3.55,3.55,0,0,0-3.616,3.617c0,2.151,1.64,3.561,3.911,3.561A5.311,5.311,0,0,0,134.207-.5V-2.276a4.3,4.3,0,0,1-2.341.754,1.867,1.867,0,0,1-2-1.382Zm-4.7-1.341a1.423,1.423,0,0,1,1.416-1.187,1.345,1.345,0,0,1,1.36,1.187Zm10.176,3.8A2.022,2.022,0,0,0,141.509.1a2.325,2.325,0,0,0,1.023-.209V-1.7a.806.806,0,0,1-.35.084c-.294,0-.421-.223-.421-.545V-4.5a2.268,2.268,0,0,0-.771-1.9,3.651,3.651,0,0,0-2.3-.656,5.5,5.5,0,0,0-2.411.531v1.829a4.319,4.319,0,0,1,2.018-.545,1.59,1.59,0,0,1,1.065.293.966.966,0,0,1,.266.726v.265a5.561,5.561,0,0,0-1.191-.126,3.416,3.416,0,0,0-1.934.489,1.956,1.956,0,0,0-.841,1.662,1.871,1.871,0,0,0,.813,1.606,2.812,2.812,0,0,0,1.6.447A3.366,3.366,0,0,0,140-.446Zm-.392-1.271a1.92,1.92,0,0,1-.967.279c-.491,0-.883-.237-.883-.684,0-.531.547-.7,1.093-.7a2.816,2.816,0,0,1,.757.1Zm4.149,1.69h2.13V-10.7h-2.13Zm8.508-1.913a2.476,2.476,0,0,1-1.023.279c-.645,0-.8-.5-.8-1.173v-2.3h1.822V-6.9h-1.822V-9.049l-2.131.363V-6.9h-1.121v1.76h1.121v2.528a2.793,2.793,0,0,0,.6,2.053,2.435,2.435,0,0,0,1.794.684,3.186,3.186,0,0,0,1.556-.377ZM153.7-.028h2.13V-4.65a2.464,2.464,0,0,1,1.444-.573.915.915,0,0,1,.729.293,1.358,1.358,0,0,1,.238.964V-.028h2.131V-4.315a2.756,2.756,0,0,0-.6-2.039,2.489,2.489,0,0,0-1.808-.7,3.312,3.312,0,0,0-2.1.782l-.028-.014V-10.7H153.7Zm10.54,3.072L168.729-6.9h-2.117l-.729,1.662c-.322.74-.631,1.466-.939,2.22h-.028q-.421-1.068-.883-2.178l-.715-1.7h-2.243l2.8,6.116-1.808,3.826ZM177.209-.446A2.022,2.022,0,0,0,178.7.1a2.325,2.325,0,0,0,1.023-.209V-1.7a.806.806,0,0,1-.35.084c-.294,0-.421-.223-.421-.545V-4.5a2.268,2.268,0,0,0-.771-1.9,3.651,3.651,0,0,0-2.3-.656,5.5,5.5,0,0,0-2.411.531v1.829a4.319,4.319,0,0,1,2.018-.545,1.59,1.59,0,0,1,1.065.293.966.966,0,0,1,.266.726v.265a5.561,5.561,0,0,0-1.191-.126,3.416,3.416,0,0,0-1.934.489,1.956,1.956,0,0,0-.841,1.662,1.871,1.871,0,0,0,.813,1.606,2.812,2.812,0,0,0,1.6.447,3.366,3.366,0,0,0,1.92-.573Zm-.392-1.271a1.92,1.92,0,0,1-.967.279c-.491,0-.883-.237-.883-.684,0-.531.547-.7,1.093-.7a2.816,2.816,0,0,1,.757.1Zm4.71,4.413a5.637,5.637,0,0,0,2.355.5c2.2,0,3.686-1.2,3.686-3.365V-6.954l-1.668.293a3.919,3.919,0,0,0-1.724-.391,3.472,3.472,0,0,0-3.588,3.589A3.217,3.217,0,0,0,183.8-.1a2.912,2.912,0,0,0,1.612-.461l.028.014v.377a1.473,1.473,0,0,1-1.682,1.55,4.388,4.388,0,0,1-2.229-.7Zm3.911-4.818a2.15,2.15,0,0,1-1.079.293,1.573,1.573,0,0,1-1.612-1.718,1.579,1.579,0,0,1,1.64-1.7A2.429,2.429,0,0,1,185.437-5Zm10.5-.782a5.635,5.635,0,0,0,.042-.726,3.185,3.185,0,0,0-3.294-3.421,3.55,3.55,0,0,0-3.616,3.617c0,2.151,1.64,3.561,3.911,3.561A5.311,5.311,0,0,0,195.6-.5V-2.276a4.3,4.3,0,0,1-2.341.754,1.867,1.867,0,0,1-2-1.382Zm-4.7-1.341a1.423,1.423,0,0,1,1.416-1.187,1.345,1.345,0,0,1,1.36,1.187Zm6.027,1.215h3.462V-4.761h-3.462ZM202.1,2.025h1.472l1.261-4.189h-1.948Zm7.989-2.472a6.566,6.566,0,0,0,2.719.573c1.766,0,3.084-.824,3.1-2.332,0-1.187-.8-1.69-2.116-2.011-1.023-.251-1.766-.209-1.766-.712,0-.321.336-.489.9-.489a5.825,5.825,0,0,1,2.593.74V-6.507a6.459,6.459,0,0,0-2.635-.545c-1.71,0-3,.824-3.014,2.276,0,1.131.771,1.676,2.074,2,1.037.265,1.808.209,1.808.74,0,.377-.35.531-.939.531a5.909,5.909,0,0,1-2.719-.8ZM223.786-2.9a5.638,5.638,0,0,0,.042-.726,3.185,3.185,0,0,0-3.294-3.421,3.55,3.55,0,0,0-3.616,3.617c0,2.151,1.64,3.561,3.911,3.561A5.311,5.311,0,0,0,223.45-.5V-2.276a4.3,4.3,0,0,1-2.341.754,1.867,1.867,0,0,1-2-1.382Zm-4.7-1.341a1.423,1.423,0,0,1,1.416-1.187,1.345,1.345,0,0,1,1.36,1.187Zm5.032,4.217h2.285l.8-1.187c.28-.419.519-.782.743-1.145h.028c.224.363.463.726.743,1.145l.8,1.187h2.439l-2.677-3.687L231.621-6.9h-2.229l-.533.782c-.238.349-.491.726-.757,1.145h-.028c-.252-.4-.491-.768-.757-1.159L226.8-6.9h-2.369l2.355,3.2Zm7.793-3h3.462V-4.761h-3.462Zm4.836,5.055h1.472l1.261-4.189h-1.948Zm12.1-2.472A2.022,2.022,0,0,0,250.333.1a2.325,2.325,0,0,0,1.023-.209V-1.7a.806.806,0,0,1-.35.084c-.294,0-.42-.223-.42-.545V-4.5a2.268,2.268,0,0,0-.771-1.9,3.651,3.651,0,0,0-2.3-.656,5.5,5.5,0,0,0-2.411.531v1.829a4.319,4.319,0,0,1,2.018-.545,1.59,1.59,0,0,1,1.065.293.966.966,0,0,1,.266.726v.265a5.561,5.561,0,0,0-1.191-.126,3.416,3.416,0,0,0-1.934.489,1.956,1.956,0,0,0-.841,1.662A1.871,1.871,0,0,0,245.3-.321a2.812,2.812,0,0,0,1.6.447,3.366,3.366,0,0,0,1.92-.573Zm-.392-1.271a1.919,1.919,0,0,1-.967.279c-.491,0-.883-.237-.883-.684,0-.531.547-.7,1.093-.7a2.816,2.816,0,0,1,.757.1ZM252.6-.028h2.13V-4.65a2.464,2.464,0,0,1,1.444-.573.915.915,0,0,1,.729.293,1.357,1.357,0,0,1,.238.964V-.028h2.13V-4.315a2.756,2.756,0,0,0-.6-2.039,2.489,2.489,0,0,0-1.808-.7,3.384,3.384,0,0,0-2.131.8l-.028-.014V-6.9h-2.1Zm13.19-.363v.363h2.088V-10.7h-2.13v3.882l-.028.014a3.282,3.282,0,0,0-1.3-.251,3.593,3.593,0,0,0-3.644,3.729A3.255,3.255,0,0,0,264.013.126,3.1,3.1,0,0,0,265.766-.4Zm-.042-1.564a2.261,2.261,0,0,1-1.191.349,1.637,1.637,0,0,1-1.64-1.815,1.7,1.7,0,0,1,1.724-1.871,2.49,2.49,0,0,1,1.107.265ZM.882,18.924H3.013V14.3a2.464,2.464,0,0,1,1.444-.573.915.915,0,0,1,.729.293,1.358,1.358,0,0,1,.238.964v3.938H7.554V14.637a2.756,2.756,0,0,0-.6-2.039,2.489,2.489,0,0,0-1.808-.7,3.312,3.312,0,0,0-2.1.782l-.028-.014V8.255H.882Zm14.984-2.877a5.638,5.638,0,0,0,.042-.726A3.185,3.185,0,0,0,12.614,11.9,3.55,3.55,0,0,0,9,15.517c0,2.151,1.64,3.561,3.911,3.561a5.311,5.311,0,0,0,2.621-.628V16.676a4.3,4.3,0,0,1-2.341.754,1.867,1.867,0,0,1-2-1.382Zm-4.7-1.341a1.423,1.423,0,0,1,1.416-1.187,1.345,1.345,0,0,1,1.36,1.187Zm6.1-4.832A1.234,1.234,0,1,0,18.5,8.66,1.23,1.23,0,0,0,17.267,9.875Zm.168,9.049h2.131V12.054H17.435Zm4.6,2.723a5.637,5.637,0,0,0,2.355.5c2.2,0,3.686-1.2,3.686-3.365V12l-1.668.293a3.919,3.919,0,0,0-1.724-.391,3.472,3.472,0,0,0-3.588,3.589,3.217,3.217,0,0,0,3.21,3.365,2.913,2.913,0,0,0,1.612-.461l.028.014v.377a1.473,1.473,0,0,1-1.682,1.55,4.388,4.388,0,0,1-2.229-.7Zm3.911-4.818a2.15,2.15,0,0,1-1.079.293,1.573,1.573,0,0,1-1.612-1.718,1.579,1.579,0,0,1,1.64-1.7,2.429,2.429,0,0,1,1.051.251Zm4.065,2.095h2.131V14.3a2.464,2.464,0,0,1,1.444-.573.915.915,0,0,1,.729.293,1.358,1.358,0,0,1,.238.964v3.938H36.68V14.637a2.756,2.756,0,0,0-.6-2.039,2.489,2.489,0,0,0-1.808-.7,3.312,3.312,0,0,0-2.1.782l-.028-.014V8.255H30.008ZM43.03,17.011a2.476,2.476,0,0,1-1.023.279c-.645,0-.8-.5-.8-1.173v-2.3H43.03v-1.76H41.207V9.9l-2.131.363v1.787H37.956v1.76h1.121v2.528a2.793,2.793,0,0,0,.6,2.053,2.435,2.435,0,0,0,1.794.684A3.186,3.186,0,0,0,43.03,18.7Zm1.177-1.089h3.462V14.19H44.207Zm14.045,3h2.131V14.609a2.683,2.683,0,0,0-.631-2.025,2.409,2.409,0,0,0-1.78-.684,3.592,3.592,0,0,0-2.425.978,2.317,2.317,0,0,0-2-.978,3.2,3.2,0,0,0-2.074.782l-.028-.014v-.614h-2.1v6.871h2.131V14.288a2.241,2.241,0,0,1,1.346-.559.954.954,0,0,1,.729.293,1.293,1.293,0,0,1,.252.936v3.966h2.131V14.609a2.254,2.254,0,0,0-.014-.307,2.168,2.168,0,0,1,1.36-.573.954.954,0,0,1,.729.293,1.246,1.246,0,0,1,.252.936Zm7.919-.419a2.022,2.022,0,0,0,1.486.545,2.325,2.325,0,0,0,1.023-.209V17.248a.806.806,0,0,1-.35.084c-.294,0-.42-.223-.42-.545V14.456a2.268,2.268,0,0,0-.771-1.9,3.651,3.651,0,0,0-2.3-.656,5.5,5.5,0,0,0-2.411.531V14.26a4.319,4.319,0,0,1,2.018-.545,1.59,1.59,0,0,1,1.065.293.966.966,0,0,1,.266.726V15a5.561,5.561,0,0,0-1.191-.126,3.416,3.416,0,0,0-1.934.489,1.956,1.956,0,0,0-.841,1.662,1.871,1.871,0,0,0,.813,1.606,2.812,2.812,0,0,0,1.6.447,3.366,3.366,0,0,0,1.92-.573Zm-.392-1.271a1.92,1.92,0,0,1-.967.279c-.491,0-.883-.237-.883-.684,0-.531.547-.7,1.093-.7a2.816,2.816,0,0,1,.757.1Zm8.62-.223a2.476,2.476,0,0,1-1.023.279c-.645,0-.8-.5-.8-1.173v-2.3H74.4v-1.76H72.576V9.9l-2.131.363v1.787H69.324v1.76h1.121v2.528a2.793,2.793,0,0,0,.6,2.053,2.435,2.435,0,0,0,1.794.684A3.186,3.186,0,0,0,74.4,18.7Zm6.98-.419a3.511,3.511,0,0,1-2.018.684,1.8,1.8,0,1,1-.028-3.589,3.717,3.717,0,0,1,1.948.642V12.361a4.651,4.651,0,0,0-2.046-.461,3.694,3.694,0,0,0-3.953,3.6,3.6,3.6,0,0,0,3.841,3.575,4.757,4.757,0,0,0,2.257-.531Zm1.64,2.332h2.131V14.3a2.464,2.464,0,0,1,1.444-.573.915.915,0,0,1,.729.293,1.358,1.358,0,0,1,.238.964v3.938H89.69V14.637a2.756,2.756,0,0,0-.6-2.039,2.489,2.489,0,0,0-1.808-.7,3.312,3.312,0,0,0-2.1.782l-.028-.014V8.255H83.019ZM98,16.048a5.638,5.638,0,0,0,.042-.726A3.185,3.185,0,0,0,94.75,11.9a3.55,3.55,0,0,0-3.616,3.617c0,2.151,1.64,3.561,3.911,3.561a5.311,5.311,0,0,0,2.621-.628V16.676a4.3,4.3,0,0,1-2.341.754,1.867,1.867,0,0,1-2-1.382Zm-4.7-1.341a1.423,1.423,0,0,1,1.416-1.187,1.345,1.345,0,0,1,1.36,1.187Zm10.9,3.854v.363H106.3V8.255h-2.131v3.882l-.028.014a3.282,3.282,0,0,0-1.3-.251,3.593,3.593,0,0,0-3.644,3.729,3.255,3.255,0,0,0,3.238,3.449,3.1,3.1,0,0,0,1.752-.531ZM104.169,17a2.261,2.261,0,0,1-1.191.349,1.637,1.637,0,0,1-1.64-1.815,1.7,1.7,0,0,1,1.724-1.871,2.49,2.49,0,0,1,1.107.265Zm9.629,1.829.028-.014a3.114,3.114,0,0,0,1.332.265,3.49,3.49,0,0,0,3.6-3.645,3.317,3.317,0,0,0-3.266-3.533,2.989,2.989,0,0,0-1.71.517l-.028-.014v-.349h-2.088V22H113.8Zm0-1.732V14.051a1.984,1.984,0,0,1,1.149-.377,1.7,1.7,0,0,1,1.668,1.871,1.67,1.67,0,0,1-1.724,1.815A2.421,2.421,0,0,1,113.8,17.095Zm12.909-1.047a5.638,5.638,0,0,0,.042-.726,3.185,3.185,0,0,0-3.294-3.421,3.55,3.55,0,0,0-3.616,3.617c0,2.151,1.64,3.561,3.911,3.561a5.311,5.311,0,0,0,2.621-.628V16.676a4.3,4.3,0,0,1-2.341.754,1.867,1.867,0,0,1-2-1.382Zm-4.7-1.341a1.423,1.423,0,0,1,1.416-1.187,1.345,1.345,0,0,1,1.36,1.187Zm12.7,1.341a5.638,5.638,0,0,0,.042-.726A3.185,3.185,0,0,0,131.46,11.9a3.55,3.55,0,0,0-3.616,3.617c0,2.151,1.64,3.561,3.911,3.561a5.311,5.311,0,0,0,2.621-.628V16.676a4.3,4.3,0,0,1-2.341.754,1.867,1.867,0,0,1-2-1.382Zm-4.7-1.341a1.423,1.423,0,0,1,1.416-1.187,1.345,1.345,0,0,1,1.36,1.187Zm6.265,4.217h2.13V14.763a2.294,2.294,0,0,1,1.864-.81,2.49,2.49,0,0,1,.575.07v-2a1.715,1.715,0,0,0-.449-.056,2.336,2.336,0,0,0-2,1.019l-.028-.014v-.922h-2.088Zm5.565-.419a6.566,6.566,0,0,0,2.719.573c1.766,0,3.084-.824,3.1-2.332,0-1.187-.8-1.69-2.116-2.011-1.023-.251-1.766-.209-1.766-.712,0-.321.336-.489.9-.489a5.825,5.825,0,0,1,2.593.74V12.445a6.459,6.459,0,0,0-2.635-.545c-1.71,0-3,.824-3.014,2.276,0,1.131.771,1.676,2.074,2,1.037.265,1.808.209,1.808.74,0,.377-.35.531-.939.531a5.909,5.909,0,0,1-2.719-.8Z" transform="translate(815.118 4298.85)" fill="#005d55"/><path d="M223.042,513.96a14.852,14.852,0,0,0-15.013,14.687V764.753h65.843V528.647a14.852,14.852,0,0,0-15.013-14.687Z" transform="translate(728.256 3837.196)" fill="#dfdf00"/><path d="M.5,17h-1V0h1Z" transform="translate(968.844 4590)" fill="#7db959"/><path d="M6.387-8.608a1.805,1.805,0,0,1-1.9-1.749,1.79,1.79,0,0,1,1.9-1.729,1.79,1.79,0,0,1,1.9,1.729A1.805,1.805,0,0,1,6.387-8.608Zm0,6.273A2.035,2.035,0,0,1,4.209-4.325,2.077,2.077,0,0,1,6.387-6.355,2.077,2.077,0,0,1,8.566-4.325,2.035,2.035,0,0,1,6.387-2.334ZM9.378-7.662a3.083,3.083,0,0,0,1.961-2.976c0-2.332-2.159-4.062-4.952-4.062s-4.952,1.729-4.952,4.062A3.083,3.083,0,0,0,3.4-7.662v.04A3.651,3.651,0,0,0,.98-4.1C.98-1.49,3.278.3,6.387.3s5.407-1.79,5.407-4.4A3.651,3.651,0,0,0,9.378-7.622ZM13.815-.585a8.572,8.572,0,0,0,3.9.885c3.268,0,5.645-1.81,5.645-4.645,0-3.177-2.991-4.363-5.665-4.444l.218-2.9h4.694l.2-2.795H14.983l-.594,8.264a11.447,11.447,0,0,1,1.684-.121c1.624,0,4.14.342,4.14,2.031,0,1.126-1.089,1.79-2.674,1.79a7.938,7.938,0,0,1-3.506-.925Zm14.994-6.6a3.486,3.486,0,0,0,3.565-3.76,3.486,3.486,0,0,0-3.565-3.76,3.486,3.486,0,0,0-3.565,3.76A3.486,3.486,0,0,0,28.809-7.18ZM27.917.079h2.02l9.369-14.558h-2.02Zm.891-9.129c-.931,0-1.525-.845-1.525-1.89s.594-1.89,1.525-1.89,1.525.845,1.525,1.89S29.739-9.05,28.809-9.05ZM34.85-3.46A3.486,3.486,0,0,0,38.415.3,3.486,3.486,0,0,0,41.98-3.46a3.486,3.486,0,0,0-3.565-3.76A3.486,3.486,0,0,0,34.85-3.46Zm2.04,0c0-1.046.594-1.89,1.525-1.89s1.525.845,1.525,1.89-.594,1.89-1.525,1.89S36.89-2.414,36.89-3.46Z" transform="translate(947.02 4386.7)" fill="#343434"/><path d="M-35.26-13.047l-2.894,4.6c-1.161,1.85-1.572,2.942-1.572,4.141A4.125,4.125,0,0,0-35.331-.1a4.1,4.1,0,0,0,4.395-4.035,3.812,3.812,0,0,0-3.93-3.859,3.367,3.367,0,0,0-1.965.564l-.036-.018c.125-.229.3-.511.482-.775l3.073-4.828Zm-2.751,8.9a2.558,2.558,0,0,1,2.733-2.432,2.517,2.517,0,0,1,2.662,2.5,2.547,2.547,0,0,1-2.7,2.5A2.625,2.625,0,0,1-38.011-4.149ZM-11.749-.291h1.608V-5.7a3.494,3.494,0,0,0-.732-2.537,3.02,3.02,0,0,0-2.3-.916,4.794,4.794,0,0,0-3.341,1.5,2.915,2.915,0,0,0-2.7-1.5A4.259,4.259,0,0,0-22.2-7.885l-.036-.018V-8.959h-1.608V-.291h1.608V-6.317a3.744,3.744,0,0,1,2.68-1.357,1.706,1.706,0,0,1,1.34.546,2.37,2.37,0,0,1,.411,1.709V-.291H-16.2V-5.7c0-.211,0-.423-.018-.617a3.845,3.845,0,0,1,2.68-1.357,1.777,1.777,0,0,1,1.34.529,2.514,2.514,0,0,1,.447,1.727Zm3.966-4.334A4.5,4.5,0,0,0-3.138-.1,4.5,4.5,0,0,0,1.507-4.625,4.5,4.5,0,0,0-3.138-9.153,4.5,4.5,0,0,0-7.783-4.625Zm1.608,0A2.99,2.99,0,0,1-3.138-7.708,2.99,2.99,0,0,1-.1-4.625,2.99,2.99,0,0,1-3.138-1.542,2.99,2.99,0,0,1-6.175-4.625ZM3.9-.291H5.509V-6.228A3.716,3.716,0,0,1,8.26-7.673a1.835,1.835,0,0,1,1.411.564,2.659,2.659,0,0,1,.411,1.762V-.291H11.69V-5.647A3.479,3.479,0,0,0,10.958-8.2a3.061,3.061,0,0,0-2.34-.951,4.387,4.387,0,0,0-3.073,1.3l-.036-.018V-8.959H3.9ZM16-.907A2.571,2.571,0,0,0,18-.1a3.957,3.957,0,0,0,1.59-.317v-1.5a2.689,2.689,0,0,1-1.322.37c-1.161,0-1.322-.987-1.322-2.061V-7.532h2.644V-8.959H16.942v-2.625l-1.608.264v2.361H13.709v1.427h1.626V-3.3A3.387,3.387,0,0,0,16-.907Zm5.788.617h1.608V-6.228a3.854,3.854,0,0,1,2.8-1.445,1.681,1.681,0,0,1,1.34.564,2.43,2.43,0,0,1,.429,1.762V-.291h1.608V-5.647A3.479,3.479,0,0,0,28.841-8.2a3.061,3.061,0,0,0-2.34-.951,4.387,4.387,0,0,0-3.073,1.3l-.036-.018v-5.885H21.784ZM32.289-.8a7.477,7.477,0,0,0,3.287.7c1.876,0,3.7-.758,3.7-2.766,0-1.8-1.393-2.255-3.073-2.537-1.3-.229-2.555-.229-2.555-1.216,0-.775.786-1.11,1.912-1.11a6.748,6.748,0,0,1,3.216.846V-8.466a7.2,7.2,0,0,0-3.144-.687c-2.037,0-3.591.863-3.609,2.661,0,1.709,1.322,2.2,3,2.484,1.358.229,2.626.247,2.626,1.286,0,.846-.786,1.2-2,1.2a6.5,6.5,0,0,1-3.359-.934ZM-19.765,13.7a10.651,10.651,0,0,0,2,6.551h1.237A10.7,10.7,0,0,1-18.611,13.7a10.7,10.7,0,0,1,2.084-6.551h-1.237A10.651,10.651,0,0,0-19.765,13.7Zm5.086,3.632h1.251V12.711a2.89,2.89,0,0,1,2.14-1.124,1.427,1.427,0,0,1,1.1.439,2.068,2.068,0,0,1,.32,1.37v3.933h1.251V13.163a2.706,2.706,0,0,0-.57-1.987,2.381,2.381,0,0,0-1.82-.74A3.412,3.412,0,0,0-13.4,11.45l-.028-.014v-.85h-1.251Zm8-5.865h6.7v-.987h-6.7Zm0,2.8h6.7v-.987h-6.7Zm10.949,3.07h1.32V7.256L1.967,8.641V9.888l2.307-.877Zm7.212,0h1.32V7.256L9.179,8.641V9.888l2.307-.877Zm4.446,2.919h1.237a10.651,10.651,0,0,0,2-6.551,10.651,10.651,0,0,0-2-6.551H15.932A10.7,10.7,0,0,1,18.016,13.7,10.7,10.7,0,0,1,15.932,20.248Z" transform="translate(972.726 4624.752)" fill="#343434"/><path d="M309.741,513.96a14.841,14.841,0,0,0-15.013,14.665V764.382h65.843V528.625a14.841,14.841,0,0,0-15.013-14.665Z" transform="translate(768.182 3837.196)" fill="#dfdf00"/><path d="M.5,17h-1V0h1Z" transform="translate(1095.887 4590)" fill="#7db959"/><path d="M6.387-8.608a1.805,1.805,0,0,1-1.9-1.749,1.79,1.79,0,0,1,1.9-1.729,1.79,1.79,0,0,1,1.9,1.729A1.805,1.805,0,0,1,6.387-8.608Zm0,6.273A2.035,2.035,0,0,1,4.209-4.325,2.077,2.077,0,0,1,6.387-6.355,2.077,2.077,0,0,1,8.566-4.325,2.035,2.035,0,0,1,6.387-2.334ZM9.378-7.662a3.083,3.083,0,0,0,1.961-2.976c0-2.332-2.159-4.062-4.952-4.062s-4.952,1.729-4.952,4.062A3.083,3.083,0,0,0,3.4-7.662v.04A3.651,3.651,0,0,0,.98-4.1C.98-1.49,3.278.3,6.387.3s5.407-1.79,5.407-4.4A3.651,3.651,0,0,0,9.378-7.622ZM13.815-.585a8.572,8.572,0,0,0,3.9.885c3.268,0,5.645-1.81,5.645-4.645,0-3.177-2.991-4.363-5.665-4.444l.218-2.9h4.694l.2-2.795H14.983l-.594,8.264a11.447,11.447,0,0,1,1.684-.121c1.624,0,4.14.342,4.14,2.031,0,1.126-1.089,1.79-2.674,1.79a7.938,7.938,0,0,1-3.506-.925Zm14.994-6.6a3.486,3.486,0,0,0,3.565-3.76,3.486,3.486,0,0,0-3.565-3.76,3.486,3.486,0,0,0-3.565,3.76A3.486,3.486,0,0,0,28.809-7.18ZM27.917.079h2.02l9.369-14.558h-2.02Zm.891-9.129c-.931,0-1.525-.845-1.525-1.89s.594-1.89,1.525-1.89,1.525.845,1.525,1.89S29.739-9.05,28.809-9.05ZM34.85-3.46A3.486,3.486,0,0,0,38.415.3,3.486,3.486,0,0,0,41.98-3.46a3.486,3.486,0,0,0-3.565-3.76A3.486,3.486,0,0,0,34.85-3.46Zm2.04,0c0-1.046.594-1.89,1.525-1.89s1.525.845,1.525,1.89-.594,1.89-1.525,1.89S36.89-2.414,36.89-3.46Z" transform="translate(1076.022 4386.7)" fill="#343434"/><path d="M-27.817-.005h1.773L-20.636-13l-.018-.036h-8.452v1.547h6.07Zm15.973,3.958L-5.881-8.858h-1.7l-1.54,3.347c-.412.9-.806,1.781-1.2,2.663h-.036c-.358-.81-.788-1.763-1.2-2.663L-13.1-8.858h-1.791l3.671,7.9L-13.6,3.953ZM3.162-3.964a5.578,5.578,0,0,0,.054-.81A3.952,3.952,0,0,0-.8-9.056,4.4,4.4,0,0,0-5.183-4.432,4.5,4.5,0,0,0-.419.193,6.214,6.214,0,0,0,2.732-.635V-2.362a5.007,5.007,0,0,1-3.044,1.1,3.023,3.023,0,0,1-3.259-2.7ZM-.831-7.6A2.39,2.39,0,0,1,1.658-5.241H-3.535A2.7,2.7,0,0,1-.831-7.6ZM8.122.193a4.169,4.169,0,0,0,2.7-.972h.036a1.87,1.87,0,0,0,1.7.936,2.287,2.287,0,0,0,.86-.162V-1.355a1.228,1.228,0,0,1-.519.126c-.483,0-.68-.4-.68-.936v-3.76a2.99,2.99,0,0,0-.877-2.321,3.818,3.818,0,0,0-2.632-.81A5.525,5.525,0,0,0,5.776-8.3v1.583A4.579,4.579,0,0,1,8.48-7.6a2.383,2.383,0,0,1,1.63.486,1.919,1.919,0,0,1,.5,1.457v.738a7.686,7.686,0,0,0-1.88-.234,4.582,4.582,0,0,0-2.471.594A2.462,2.462,0,0,0,5.1-2.4,2.362,2.362,0,0,0,6.027-.437,3.5,3.5,0,0,0,8.122.193Zm.287-1.439c-.949,0-1.683-.432-1.683-1.3C6.725-3.586,7.8-3.91,8.892-3.91a6.614,6.614,0,0,1,1.719.234v1.655A3.662,3.662,0,0,1,8.409-1.247ZM15.392-.005H17V-5.763a2.881,2.881,0,0,1,2.6-1.565,2.579,2.579,0,0,1,.627.072v-1.6a2.174,2.174,0,0,0-.573-.072A3.207,3.207,0,0,0,17.04-7.544L17-7.562v-1.3H15.392Zm6.5-.522a7.378,7.378,0,0,0,3.295.72c1.88,0,3.707-.774,3.707-2.825,0-1.835-1.4-2.3-3.08-2.591-1.307-.234-2.561-.234-2.561-1.241,0-.792.788-1.134,1.916-1.134a6.666,6.666,0,0,1,3.223.864V-8.354a7.1,7.1,0,0,0-3.152-.7c-2.041,0-3.6.882-3.617,2.717,0,1.745,1.325,2.249,3.008,2.537,1.361.234,2.632.252,2.632,1.313,0,.864-.788,1.223-2.006,1.223a6.42,6.42,0,0,1-3.366-.954ZM-19.663,14.279a11.016,11.016,0,0,0,2.006,6.689h1.24a11.067,11.067,0,0,1-2.089-6.689A11.067,11.067,0,0,1-16.418,7.59h-1.24A11.016,11.016,0,0,0-19.663,14.279Zm5.1,3.708h1.253V13.271a2.881,2.881,0,0,1,2.145-1.148,1.417,1.417,0,0,1,1.1.448,2.142,2.142,0,0,1,.32,1.4v4.016h1.253V13.733A2.8,2.8,0,0,0-9.064,11.7a2.365,2.365,0,0,0-1.825-.756,3.39,3.39,0,0,0-2.4,1.036l-.028-.014V11.1h-1.253ZM-6.543,12H.17V10.99H-6.543Zm0,2.855H.17V13.845H-6.543ZM4.431,17.987H5.754V7.7L2.119,9.115v1.273l2.312-.9Zm7.228,0h1.323V7.7L9.348,9.115v1.273l2.312-.9Zm4.457,2.981h1.24a11.016,11.016,0,0,0,2.006-6.689A11.016,11.016,0,0,0,17.356,7.59h-1.24a11.067,11.067,0,0,1,2.089,6.689A11.067,11.067,0,0,1,16.117,20.968Z" transform="translate(1098.106 4625.032)" fill="#343434"/><path d="M110.275,841.821a7.514,7.514,0,0,1-5.678-2.672,9.636,9.636,0,0,1-2.325-6.378l-.09-358.2h1l.09,358.2a8.636,8.636,0,0,0,2.076,5.719,6.528,6.528,0,0,0,4.926,2.331h.006l376.37-.415v1l-376.37.415Z" transform="translate(669.871 3760.261)" fill="#414042"/></g></svg>