<svg xmlns="http://www.w3.org/2000/svg" width="1160" height="542" viewBox="0 0 1160 542"><g transform="translate(-100 -6962)"><rect width="303" height="66" transform="translate(100 6962)" fill="#005d55"/><path d="M108.664.5v541h-257V.5Z" transform="translate(371.336 6962.5)" fill="none"/><g transform="translate(100 7201.391)"><rect width="303" height="74" transform="translate(0 -0.391)" fill="#69be28" opacity="0.321"/><rect width="213" height="74" transform="translate(305 -0.391)" fill="#69be28" opacity="0.321"/><rect width="213" height="74" transform="translate(519 -0.391)" fill="#69be28" opacity="0.321"/><rect width="212" height="74" transform="translate(734 -0.391)" fill="#69be28" opacity="0.321"/><rect width="212" height="74" transform="translate(948 -0.391)" fill="#69be28" opacity="0.321"/></g><g transform="translate(100 7352.221)"><rect width="303" height="74" transform="translate(0 -0.221)" fill="#69be28" opacity="0.321"/><rect width="213" height="74" transform="translate(305 -0.221)" fill="#69be28" opacity="0.321"/><rect width="213" height="74" transform="translate(519 -0.221)" fill="#69be28" opacity="0.321"/><rect width="212" height="74" transform="translate(734 -0.221)" fill="#69be28" opacity="0.321"/><rect width="212" height="74" transform="translate(948 -0.221)" fill="#69be28" opacity="0.321"/></g><g transform="translate(100 7030.125)"><rect width="303" height="94" transform="translate(0 -0.125)" fill="#69be28" opacity="0.321"/><rect width="213" height="94" transform="translate(305 -0.125)" fill="#69be28" opacity="0.321"/><rect width="213" height="94" transform="translate(519 -0.125)" fill="#69be28" opacity="0.321"/><rect width="212" height="94" transform="translate(734 -0.125)" fill="#69be28" opacity="0.321"/><rect width="212" height="94" transform="translate(948 -0.125)" fill="#69be28" opacity="0.321"/></g><g transform="translate(100 7125.976)"><rect width="303" height="74" transform="translate(0 0.024)" fill="#dfeed5" opacity="0.321"/><rect width="213" height="74" transform="translate(305 0.024)" fill="#dfeed5" opacity="0.321"/><rect width="213" height="74" transform="translate(519 0.024)" fill="#dfeed5" opacity="0.321"/><rect width="212" height="74" transform="translate(734 0.024)" fill="#dfeed5" opacity="0.321"/><rect width="212" height="74" transform="translate(948 0.024)" fill="#dfeed5" opacity="0.321"/></g><g transform="translate(100 7276.806)"><rect width="303" height="74" transform="translate(0 0.194)" fill="#dfeed5" opacity="0.321"/><rect width="213" height="74" transform="translate(305 0.194)" fill="#dfeed5" opacity="0.321"/><rect width="213" height="74" transform="translate(519 0.194)" fill="#dfeed5" opacity="0.321"/><rect width="212" height="74" transform="translate(734 0.194)" fill="#dfeed5" opacity="0.321"/><rect width="212" height="74" transform="translate(948 0.194)" fill="#dfeed5" opacity="0.321"/></g><rect width="641" height="66" transform="translate(405 6962)" fill="#005d55"/><rect width="212" height="66" transform="translate(1048 6962)" fill="#005d55"/><path d="M332.038.5v541h-480V.5Z" transform="translate(630.962 6962.5)" fill="none"/><path d="M180.21,19.752h3.176v-5.1h1a9.145,9.145,0,0,0,4.674-.886,4.132,4.132,0,0,0,2.077-3.72,4.115,4.115,0,0,0-2.337-3.8A9.368,9.368,0,0,0,184.5,5.5H180.21Zm3.176-7.636V8.239h1.079a6.435,6.435,0,0,1,2.477.3,1.7,1.7,0,0,1,1.019,1.673,1.67,1.67,0,0,1-.9,1.555,5.349,5.349,0,0,1-2.517.354ZM201.961,15.7a7.859,7.859,0,0,0,.06-1.023,4.513,4.513,0,0,0-4.694-4.822,5.032,5.032,0,0,0-5.153,5.1c0,3.031,2.337,5.018,5.572,5.018a7.635,7.635,0,0,0,3.735-.886v-2.5a6.177,6.177,0,0,1-3.336,1.063A2.659,2.659,0,0,1,195.29,15.7Zm-6.691-1.889a2.023,2.023,0,0,1,2.017-1.673,1.91,1.91,0,0,1,1.937,1.673Zm8.928,5.943h3.036V13.887a3.286,3.286,0,0,1,2.656-1.141,3.586,3.586,0,0,1,.819.1V10.03a2.47,2.47,0,0,0-.639-.079,3.34,3.34,0,0,0-2.856,1.437l-.04-.02v-1.3H204.2ZM212.167,7a1.758,1.758,0,1,0,1.758-1.712A1.744,1.744,0,0,0,212.167,7Zm.24,12.753h3.036V10.069h-3.036Zm5.752,0h3.036V13.238a3.533,3.533,0,0,1,2.057-.807,1.311,1.311,0,0,1,1.039.413,1.9,1.9,0,0,1,.34,1.358v5.55h3.036V13.71a3.856,3.856,0,0,0-.859-2.873,3.568,3.568,0,0,0-2.577-.984,4.853,4.853,0,0,0-3.036,1.122l-.04-.02v-.886h-3Zm17.756-.59a2.9,2.9,0,0,0,2.117.768,3.344,3.344,0,0,0,1.458-.3V17.391a1.159,1.159,0,0,1-.5.118c-.419,0-.6-.315-.6-.768V13.454a3.18,3.18,0,0,0-1.1-2.677,5.244,5.244,0,0,0-3.276-.925,7.91,7.91,0,0,0-3.435.748v2.578a6.207,6.207,0,0,1,2.876-.768,2.283,2.283,0,0,1,1.518.413,1.354,1.354,0,0,1,.38,1.023v.374a8.009,8.009,0,0,0-1.7-.177,4.909,4.909,0,0,0-2.756.689,2.748,2.748,0,0,0-1.2,2.342,2.628,2.628,0,0,0,1.158,2.263,4.04,4.04,0,0,0,2.277.63,4.834,4.834,0,0,0,2.736-.807Zm-.559-1.791a2.758,2.758,0,0,1-1.378.394c-.7,0-1.258-.335-1.258-.964,0-.748.779-.984,1.558-.984a4.055,4.055,0,0,1,1.079.138Zm12.283-.315a3.558,3.558,0,0,1-1.458.394c-.919,0-1.138-.708-1.138-1.653V12.549h2.6v-2.48h-2.6V7.039l-3.036.512v2.519h-1.6v2.48h1.6v3.562A3.907,3.907,0,0,0,242.865,19a3.491,3.491,0,0,0,2.557.964,4.58,4.58,0,0,0,2.217-.531Zm7.59,2.106a2.9,2.9,0,0,0,2.117.768,3.344,3.344,0,0,0,1.458-.3V17.391a1.159,1.159,0,0,1-.5.118c-.419,0-.6-.315-.6-.768V13.454a3.18,3.18,0,0,0-1.1-2.677,5.244,5.244,0,0,0-3.276-.925,7.91,7.91,0,0,0-3.435.748v2.578a6.207,6.207,0,0,1,2.876-.768,2.283,2.283,0,0,1,1.518.413,1.354,1.354,0,0,1,.38,1.023v.374a8.009,8.009,0,0,0-1.7-.177,4.909,4.909,0,0,0-2.756.689,2.748,2.748,0,0,0-1.2,2.342,2.628,2.628,0,0,0,1.158,2.263,4.04,4.04,0,0,0,2.277.63,4.834,4.834,0,0,0,2.736-.807Zm-.559-1.791a2.758,2.758,0,0,1-1.378.394c-.7,0-1.258-.335-1.258-.964,0-.748.779-.984,1.558-.984a4.055,4.055,0,0,1,1.079.138Zm5.912,2.381h3.036V4.716h-3.036Zm4.614.748h2.317l6.751-15.744h-2.317Zm10.706-.748h3.176V5.5H275.9Zm5.952,0h3.036V13.238a3.533,3.533,0,0,1,2.057-.807,1.311,1.311,0,0,1,1.039.413,1.9,1.9,0,0,1,.34,1.358v5.55h3.036V13.71a3.856,3.856,0,0,0-.859-2.873,3.568,3.568,0,0,0-2.577-.984,4.854,4.854,0,0,0-3.036,1.122l-.04-.02v-.886h-3Zm12.723,0h3.036v-7.2h2.277v-2.48h-2.277V8.436c0-.827.2-1.417,1.138-1.417a6.407,6.407,0,0,1,1.318.177V4.776A4.917,4.917,0,0,0,298.39,4.5a4.067,4.067,0,0,0-2.776.905,4.3,4.3,0,0,0-1.039,3.228v1.437h-1.4v2.48h1.4Zm12.223-.59a2.9,2.9,0,0,0,2.117.768,3.344,3.344,0,0,0,1.458-.3V17.391a1.159,1.159,0,0,1-.5.118c-.419,0-.6-.315-.6-.768V13.454a3.18,3.18,0,0,0-1.1-2.677,5.243,5.243,0,0,0-3.276-.925,7.91,7.91,0,0,0-3.435.748v2.578a6.207,6.207,0,0,1,2.876-.768,2.283,2.283,0,0,1,1.518.413,1.354,1.354,0,0,1,.379,1.023v.374a8.009,8.009,0,0,0-1.7-.177,4.909,4.909,0,0,0-2.756.689,2.748,2.748,0,0,0-1.2,2.342,2.628,2.628,0,0,0,1.158,2.263,4.04,4.04,0,0,0,2.277.63,4.834,4.834,0,0,0,2.736-.807Zm-.559-1.791a2.758,2.758,0,0,1-1.378.394c-.7,0-1.258-.335-1.258-.964,0-.748.779-.984,1.558-.984a4.055,4.055,0,0,1,1.079.138Zm5.912,2.381h3.036V13.238a3.533,3.533,0,0,1,2.057-.807,1.311,1.311,0,0,1,1.039.413,1.9,1.9,0,0,1,.34,1.358v5.55h3.036V13.71a3.856,3.856,0,0,0-.859-2.873,3.568,3.568,0,0,0-2.577-.984,4.854,4.854,0,0,0-3.036,1.122l-.04-.02v-.886h-3Zm18.555-2.7a3.558,3.558,0,0,1-1.458.394c-.919,0-1.138-.708-1.138-1.653V12.549h2.6v-2.48h-2.6V7.039l-3.036.512v2.519h-1.6v2.48h1.6v3.562A3.907,3.907,0,0,0,325.933,19a3.491,3.491,0,0,0,2.557.964,4.58,4.58,0,0,0,2.217-.531ZM332.484,7a1.758,1.758,0,1,0,1.758-1.712A1.744,1.744,0,0,0,332.484,7Zm.24,12.753h3.036V10.069h-3.036Zm5.752,0h3.036V4.716h-3.036ZM353.4,15.7a7.853,7.853,0,0,0,.06-1.023,4.513,4.513,0,0,0-4.694-4.822,5.032,5.032,0,0,0-5.153,5.1c0,3.031,2.337,5.018,5.572,5.018a7.635,7.635,0,0,0,3.735-.886v-2.5a6.177,6.177,0,0,1-3.335,1.063,2.659,2.659,0,0,1-2.856-1.948ZM346.7,13.809a2.023,2.023,0,0,1,2.017-1.673,1.91,1.91,0,0,1,1.937,1.673Zm8.588,1.712h4.933v-2.44h-4.933Zm9.727-.61a2.437,2.437,0,1,1,2.437,2.48A2.433,2.433,0,0,1,365.02,14.911Zm-3.036,0a5.49,5.49,0,0,0,10.945,0,5.49,5.49,0,0,0-10.945,0Zm13.042,4.841h3.036V13.238a3.533,3.533,0,0,1,2.057-.807,1.311,1.311,0,0,1,1.039.413,1.9,1.9,0,0,1,.34,1.358v5.55h3.036V13.71a3.856,3.856,0,0,0-.859-2.873,3.568,3.568,0,0,0-2.577-.984,4.854,4.854,0,0,0-3.036,1.122l-.04-.02v-.886h-3Zm11.9-.59a9.446,9.446,0,0,0,3.875.807c2.517,0,4.394-1.161,4.414-3.287,0-1.673-1.138-2.381-3.016-2.834-1.458-.354-2.517-.3-2.517-1,0-.453.479-.689,1.278-.689a8.371,8.371,0,0,1,3.7,1.043V10.621a9.292,9.292,0,0,0-3.755-.768c-2.437,0-4.274,1.161-4.294,3.208,0,1.594,1.1,2.362,2.956,2.814,1.478.374,2.577.3,2.577,1.043,0,.531-.5.748-1.338.748a8.491,8.491,0,0,1-3.875-1.122ZM406.444,15.7a7.859,7.859,0,0,0,.06-1.023,4.513,4.513,0,0,0-4.694-4.822,5.032,5.032,0,0,0-5.153,5.1c0,3.031,2.337,5.018,5.572,5.018a7.635,7.635,0,0,0,3.735-.886v-2.5a6.177,6.177,0,0,1-3.335,1.063,2.659,2.659,0,0,1-2.856-1.948Zm-6.691-1.889a2.023,2.023,0,0,1,2.017-1.673,1.91,1.91,0,0,1,1.937,1.673Zm15.12,3.247a3.558,3.558,0,0,1-1.458.394c-.919,0-1.138-.708-1.138-1.653V12.549h2.6v-2.48h-2.6V7.039l-3.036.512v2.519h-1.6v2.48h1.6v3.562A3.907,3.907,0,0,0,410.1,19a3.491,3.491,0,0,0,2.557.964,4.58,4.58,0,0,0,2.217-.531Zm7.011,2.7h3.176v-6h6.252v6h3.176V5.5H431.31v5.51h-6.252V5.5h-3.176Zm15.439,0H440.5v-5.1h1a9.145,9.145,0,0,0,4.674-.886,4.132,4.132,0,0,0,2.077-3.72,4.115,4.115,0,0,0-2.337-3.8,9.368,9.368,0,0,0-4.294-.748h-4.294Zm3.176-7.636V8.239h1.079a6.435,6.435,0,0,1,2.477.3,1.7,1.7,0,0,1,1.019,1.673,1.669,1.669,0,0,1-.9,1.555,5.349,5.349,0,0,1-2.517.354Zm9.787,7.636h3.176v-5.1h1a9.145,9.145,0,0,0,4.674-.886,4.132,4.132,0,0,0,2.077-3.72,4.115,4.115,0,0,0-2.337-3.8,9.368,9.368,0,0,0-4.294-.748h-4.294Zm3.176-7.636V8.239h1.079a6.435,6.435,0,0,1,2.477.3,1.7,1.7,0,0,1,1.019,1.673,1.669,1.669,0,0,1-.9,1.555,5.349,5.349,0,0,1-2.517.354Z" transform="translate(404.79 6982.5)" fill="#fff"/><path d="M16.8,14.959c0,1.471-.28,1.994-1.482,1.994a5.879,5.879,0,0,1-1.842-.368v2.768a6.138,6.138,0,0,0,2.143.368,4.339,4.339,0,0,0,3.4-1.277,5.2,5.2,0,0,0,.961-3.542V5.494H16.8Zm12.515,3.658v.89h3V9.985H29.279v6.368a3.134,3.134,0,0,1-2,.852,1.43,1.43,0,0,1-1.081-.426,1.872,1.872,0,0,1-.38-1.374V9.985H22.771v5.865a3.809,3.809,0,0,0,.941,2.923,3.527,3.527,0,0,0,2.563.948,4.521,4.521,0,0,0,3-1.123Zm8.63.89h2.9l4-9.523h-3l-1.221,3.039c-.4.987-.821,2.071-1.181,3.039h-.04c-.34-.968-.721-2.013-1.1-3.019L37.148,9.985h-3.2ZM55.21,15.52a7.585,7.585,0,0,0,.06-1.006,4.482,4.482,0,0,0-4.706-4.742A5,5,0,0,0,45.4,14.785c0,2.981,2.343,4.935,5.587,4.935a7.775,7.775,0,0,0,3.744-.871V16.391a6.276,6.276,0,0,1-3.344,1.045,2.663,2.663,0,0,1-2.863-1.916ZM48.5,13.662a2.019,2.019,0,0,1,2.022-1.645,1.9,1.9,0,0,1,1.942,1.645Zm8.951,5.845H60.5V13.1a3.581,3.581,0,0,1,2.062-.794,1.328,1.328,0,0,1,1.041.406,1.841,1.841,0,0,1,.34,1.335v5.458h3.044V13.565a3.745,3.745,0,0,0-.861-2.826,3.615,3.615,0,0,0-2.583-.968,4.921,4.921,0,0,0-3.044,1.1l-.04-.019V9.985h-3ZM69.427,6.965a1.764,1.764,0,0,0,3.524,0,1.764,1.764,0,0,0-3.524,0Zm.24,12.542H72.71V9.985H69.667Zm5.767,0h3.044V4.72H75.434ZM90.391,15.52a7.584,7.584,0,0,0,.06-1.006,4.482,4.482,0,0,0-4.706-4.742,5,5,0,0,0-5.166,5.013c0,2.981,2.343,4.935,5.587,4.935a7.775,7.775,0,0,0,3.744-.871V16.391a6.276,6.276,0,0,1-3.344,1.045A2.663,2.663,0,0,1,83.7,15.52Zm-6.708-1.858a2.019,2.019,0,0,1,2.022-1.645,1.9,1.9,0,0,1,1.942,1.645Zm8.61,1.684H97.24v-2.4H92.294Zm9.752-.6a2.443,2.443,0,1,1,2.443,2.439A2.415,2.415,0,0,1,102.045,14.746Zm-3.044,0c0,2.806,2.343,4.974,5.487,4.974s5.487-2.168,5.487-4.974-2.343-4.974-5.487-4.974S99,11.939,99,14.746Zm13.076,4.761h3.044V13.1a3.581,3.581,0,0,1,2.062-.794,1.328,1.328,0,0,1,1.041.406,1.841,1.841,0,0,1,.34,1.335v5.458h3.044V13.565a3.745,3.745,0,0,0-.861-2.826,3.615,3.615,0,0,0-2.583-.968,4.921,4.921,0,0,0-3.044,1.1l-.04-.019V9.985h-3Zm11.934-.581a9.627,9.627,0,0,0,3.885.794c2.523,0,4.405-1.142,4.425-3.232,0-1.645-1.141-2.342-3.024-2.787-1.462-.348-2.523-.29-2.523-.987,0-.445.481-.677,1.282-.677a8.517,8.517,0,0,1,3.7,1.026V10.526A9.471,9.471,0,0,0,128,9.772c-2.443,0-4.285,1.142-4.305,3.155,0,1.568,1.1,2.323,2.964,2.768,1.482.368,2.583.29,2.583,1.026,0,.523-.5.735-1.342.735a8.638,8.638,0,0,1-3.885-1.1Zm19.563-3.406a7.586,7.586,0,0,0,.06-1.006,4.482,4.482,0,0,0-4.706-4.742,5,5,0,0,0-5.166,5.013c0,2.981,2.343,4.935,5.587,4.935a7.775,7.775,0,0,0,3.744-.871V16.391a6.276,6.276,0,0,1-3.344,1.045,2.664,2.664,0,0,1-2.863-1.916Zm-6.708-1.858a2.019,2.019,0,0,1,2.022-1.645,1.9,1.9,0,0,1,1.942,1.645Zm15.158,3.194a3.621,3.621,0,0,1-1.462.387c-.921,0-1.141-.7-1.141-1.626V12.423h2.6V9.985h-2.6V7l-3.044.5V9.985h-1.6v2.439h1.6v3.5a3.8,3.8,0,0,0,.861,2.845,3.538,3.538,0,0,0,2.563.948,4.662,4.662,0,0,0,2.223-.523Zm7.028,2.652h3.184V13.6H168.5v5.9h3.184V5.494H168.5v5.419h-6.267V5.494h-3.184Zm15.478,0h3.184V14.494h1a9.32,9.32,0,0,0,4.686-.871,4.05,4.05,0,0,0,2.082-3.658,4.042,4.042,0,0,0-2.343-3.735,9.552,9.552,0,0,0-4.305-.735h-4.305ZM177.715,12V8.185H178.8a6.569,6.569,0,0,1,2.483.29A1.665,1.665,0,0,1,182.3,10.12a1.637,1.637,0,0,1-.9,1.529,5.456,5.456,0,0,1-2.523.348Zm9.812,7.51h3.184V14.494h1a9.32,9.32,0,0,0,4.686-.871,4.05,4.05,0,0,0,2.082-3.658,4.042,4.042,0,0,0-2.343-3.735,9.552,9.552,0,0,0-4.305-.735h-4.305ZM190.711,12V8.185h1.081a6.569,6.569,0,0,1,2.483.29A1.665,1.665,0,0,1,195.3,10.12a1.637,1.637,0,0,1-.9,1.529,5.456,5.456,0,0,1-2.523.348Z" transform="translate(1048.52 6983.28)" fill="#fff"/><g transform="translate(-131.233 5942)"><path d="M20.409,20.035h3.261l1.18-3.047h5.842l1.16,3.047h3.4L29.373,5.522H26.291Zm6-7.1c.46-1.223.98-2.666,1.36-3.769h.04c.38,1.1.9,2.546,1.32,3.688l.6,1.624h-3.9Zm16.706,6.575v.521H46.1V4.72H43.058v5.573l-.04.02a4.662,4.662,0,0,0-1.861-.361,5.144,5.144,0,0,0-5.2,5.352,4.66,4.66,0,0,0,4.622,4.951,4.4,4.4,0,0,0,2.5-.762Zm-.06-2.245a3.214,3.214,0,0,1-1.7.5,2.345,2.345,0,0,1-2.341-2.606,2.436,2.436,0,0,1,2.461-2.686,3.538,3.538,0,0,1,1.581.381Zm8.623,2.766h2.9l4-9.862h-3l-1.22,3.147c-.4,1.022-.82,2.145-1.18,3.147h-.04c-.34-1-.72-2.085-1.1-3.127l-1.16-3.167h-3.2Zm17.246-4.129a8.138,8.138,0,0,0,.06-1.042,4.559,4.559,0,0,0-4.7-4.911,5.082,5.082,0,0,0-5.162,5.192c0,3.087,2.341,5.112,5.582,5.112a7.547,7.547,0,0,0,3.741-.9V16.807a6.116,6.116,0,0,1-3.341,1.082,2.666,2.666,0,0,1-2.861-1.985Zm-6.7-1.924a2.035,2.035,0,0,1,2.021-1.7,1.924,1.924,0,0,1,1.941,1.7Zm8.943,6.054h3.041V14.061A3.267,3.267,0,0,1,76.87,12.9a3.536,3.536,0,0,1,.82.1V10.132a2.435,2.435,0,0,0-.64-.08,3.328,3.328,0,0,0-2.861,1.463l-.04-.02V10.172H71.168Zm7.943-.6a9.328,9.328,0,0,0,3.881.822c2.521,0,4.4-1.183,4.422-3.348,0-1.7-1.14-2.426-3.021-2.887-1.461-.361-2.521-.3-2.521-1.022,0-.461.48-.7,1.28-.7a8.279,8.279,0,0,1,3.7,1.062V10.734a9.176,9.176,0,0,0-3.761-.782c-2.441,0-4.282,1.183-4.3,3.267,0,1.624,1.1,2.405,2.961,2.867,1.481.381,2.581.3,2.581,1.062,0,.541-.5.762-1.34.762a8.4,8.4,0,0,1-3.881-1.143Zm19.547-3.528a8.139,8.139,0,0,0,.06-1.042,4.559,4.559,0,0,0-4.7-4.911,5.082,5.082,0,0,0-5.162,5.192c0,3.087,2.341,5.112,5.582,5.112a7.546,7.546,0,0,0,3.741-.9V16.807a6.116,6.116,0,0,1-3.341,1.082,2.666,2.666,0,0,1-2.861-1.985Zm-6.7-1.924a2.035,2.035,0,0,1,2.021-1.7,1.924,1.924,0,0,1,1.941,1.7Zm13.885,6.054h3.041V14.061a3.267,3.267,0,0,1,2.661-1.163,3.536,3.536,0,0,1,.82.1V10.132a2.435,2.435,0,0,0-.64-.08,3.328,3.328,0,0,0-2.861,1.463l-.04-.02V10.172h-2.981Zm17.306-4.129a8.138,8.138,0,0,0,.06-1.042,4.559,4.559,0,0,0-4.7-4.911,5.082,5.082,0,0,0-5.162,5.192c0,3.087,2.341,5.112,5.582,5.112a7.546,7.546,0,0,0,3.741-.9V16.807a6.116,6.116,0,0,1-3.341,1.082,2.666,2.666,0,0,1-2.861-1.985Zm-6.7-1.924a2.035,2.035,0,0,1,2.021-1.7,1.924,1.924,0,0,1,1.941,1.7Zm14.525,5.452a2.877,2.877,0,0,0,2.121.782,3.3,3.3,0,0,0,1.461-.3V17.629a1.145,1.145,0,0,1-.5.12c-.42,0-.6-.321-.6-.782V13.62a3.265,3.265,0,0,0-1.1-2.726,5.19,5.19,0,0,0-3.281-.942,7.815,7.815,0,0,0-3.441.762V13.34a6.138,6.138,0,0,1,2.881-.782,2.26,2.26,0,0,1,1.521.421,1.391,1.391,0,0,1,.38,1.042V14.4a7.9,7.9,0,0,0-1.7-.18,4.855,4.855,0,0,0-2.761.7,2.812,2.812,0,0,0-1.2,2.385,2.69,2.69,0,0,0,1.16,2.305,4,4,0,0,0,2.281.641,4.785,4.785,0,0,0,2.741-.822Zm-.56-1.824a2.729,2.729,0,0,1-1.381.4c-.7,0-1.26-.341-1.26-.982,0-.762.78-1,1.561-1a4,4,0,0,1,1.08.14Zm14.025-.922a4.994,4.994,0,0,1-2.881.982,2.582,2.582,0,1,1-.04-5.152,5.286,5.286,0,0,1,2.781.922V10.613a6.608,6.608,0,0,0-2.921-.662c-3.081,0-5.642,2.065-5.642,5.172a5.153,5.153,0,0,0,5.482,5.132,6.759,6.759,0,0,0,3.221-.762Zm8.723.6a3.519,3.519,0,0,1-1.461.4c-.92,0-1.14-.722-1.14-1.684V12.7h2.6V10.172h-2.6V7.085l-3.041.521v2.566h-1.6V12.7h1.6v3.628a4.024,4.024,0,0,0,.86,2.947,3.465,3.465,0,0,0,2.561.982,4.527,4.527,0,0,0,2.221-.541Zm1.781-10.243A1.761,1.761,0,1,0,156.7,5.3,1.761,1.761,0,0,0,154.938,7.045Zm.24,12.99h3.041V10.172h-3.041Zm8.183-4.931a2.442,2.442,0,1,1,2.441,2.526A2.459,2.459,0,0,1,163.361,15.1Zm-3.041,0A5.493,5.493,0,1,0,165.8,9.952,5.216,5.216,0,0,0,160.32,15.1Zm13.065,4.931h3.041V13.4a3.507,3.507,0,0,1,2.061-.822,1.3,1.3,0,0,1,1.04.421,1.957,1.957,0,0,1,.34,1.383v5.653h3.041V13.881a3.971,3.971,0,0,0-.86-2.927,3.542,3.542,0,0,0-2.581-1,4.815,4.815,0,0,0-3.041,1.143l-.04-.02v-.9h-3Zm14.935-7.367a1.678,1.678,0,0,0,1.237.456,1.926,1.926,0,0,0,.852-.175V11.616a.668.668,0,0,1-.292.07c-.245,0-.35-.187-.35-.456V9.277a1.9,1.9,0,0,0-.642-1.59,3.027,3.027,0,0,0-1.914-.55,4.558,4.558,0,0,0-2.007.444V9.114a3.58,3.58,0,0,1,1.681-.456,1.318,1.318,0,0,1,.887.246.812.812,0,0,1,.222.608v.222A4.605,4.605,0,0,0,187,9.628a2.832,2.832,0,0,0-1.611.409,1.64,1.64,0,0,0-.7,1.391,1.569,1.569,0,0,0,.677,1.345,2.331,2.331,0,0,0,1.33.374,2.791,2.791,0,0,0,1.6-.479Zm-.327-1.064a1.592,1.592,0,0,1-.805.234c-.408,0-.735-.2-.735-.573,0-.444.455-.585.91-.585a2.333,2.333,0,0,1,.63.082ZM33.815,40.742a4.994,4.994,0,0,1-2.881.982,2.582,2.582,0,1,1-.04-5.152,5.286,5.286,0,0,1,2.781.922V34.668a6.608,6.608,0,0,0-2.921-.662c-3.081,0-5.642,2.065-5.642,5.172a5.153,5.153,0,0,0,5.482,5.132,6.758,6.758,0,0,0,3.221-.762Zm7.923,2.746a2.877,2.877,0,0,0,2.121.782,3.3,3.3,0,0,0,1.461-.3V41.684a1.145,1.145,0,0,1-.5.12c-.42,0-.6-.321-.6-.782V37.675a3.265,3.265,0,0,0-1.1-2.726,5.19,5.19,0,0,0-3.281-.942,7.815,7.815,0,0,0-3.441.762v2.626a6.138,6.138,0,0,1,2.881-.782,2.26,2.26,0,0,1,1.521.421,1.391,1.391,0,0,1,.38,1.042v.381a7.9,7.9,0,0,0-1.7-.18,4.855,4.855,0,0,0-2.761.7,2.812,2.812,0,0,0-1.2,2.385,2.69,2.69,0,0,0,1.16,2.305,4,4,0,0,0,2.281.641,4.785,4.785,0,0,0,2.741-.822Zm-.56-1.824a2.729,2.729,0,0,1-1.381.4c-.7,0-1.26-.341-1.26-.982,0-.762.78-1,1.561-1a4,4,0,0,1,1.08.14Zm12.3-.321a3.519,3.519,0,0,1-1.461.4c-.92,0-1.14-.722-1.14-1.684V36.753h2.6V34.227h-2.6V31.14l-3.041.521v2.566h-1.6v2.526h1.6v3.628a4.024,4.024,0,0,0,.86,2.947,3.465,3.465,0,0,0,2.561.982,4.527,4.527,0,0,0,2.221-.541ZM64.526,39.96a8.138,8.138,0,0,0,.06-1.042,4.559,4.559,0,0,0-4.7-4.911A5.082,5.082,0,0,0,54.723,39.2c0,3.087,2.341,5.112,5.582,5.112a7.546,7.546,0,0,0,3.741-.9V40.862A6.116,6.116,0,0,1,60.7,41.945a2.666,2.666,0,0,1-2.861-1.985Zm-6.7-1.924a2.035,2.035,0,0,1,2.021-1.7,1.924,1.924,0,0,1,1.941,1.7ZM67.567,48a8.008,8.008,0,0,0,3.361.722c3.141,0,5.262-1.724,5.262-4.831V34.147l-2.381.421a5.567,5.567,0,0,0-2.461-.561,4.971,4.971,0,0,0-5.122,5.152,4.606,4.606,0,0,0,4.582,4.831,4.14,4.14,0,0,0,2.3-.662l.04.02v.541a2.107,2.107,0,0,1-2.4,2.225,6.239,6.239,0,0,1-3.181-1Zm5.582-6.916a3.056,3.056,0,0,1-1.541.421,2.253,2.253,0,0,1-2.3-2.466,2.262,2.262,0,0,1,2.341-2.446,3.452,3.452,0,0,1,1.5.361Zm8.223-1.924a2.442,2.442,0,1,1,2.441,2.526A2.459,2.459,0,0,1,81.372,39.158Zm-3.041,0a5.493,5.493,0,1,0,5.482-5.152A5.216,5.216,0,0,0,78.331,39.158ZM91.4,44.089h3.041V38.116A3.267,3.267,0,0,1,97.1,36.953a3.536,3.536,0,0,1,.82.1V34.187a2.435,2.435,0,0,0-.64-.08,3.328,3.328,0,0,0-2.861,1.463l-.04-.02V34.227H91.4Zm11.8,4.41,6.4-14.272h-3.021l-1.04,2.385c-.46,1.062-.9,2.1-1.34,3.187h-.04q-.6-1.533-1.26-3.127l-1.02-2.446h-3.2l4,8.78L100.1,48.5Zm15.346-9.341a2.442,2.442,0,1,1,2.441,2.526A2.459,2.459,0,0,1,118.546,39.158Zm-3.041,0a5.493,5.493,0,1,0,5.482-5.152A5.216,5.216,0,0,0,115.5,39.158Zm13.065,4.931h3.041V38.116a3.267,3.267,0,0,1,2.661-1.163,3.536,3.536,0,0,1,.82.1V34.187a2.435,2.435,0,0,0-.64-.08,3.328,3.328,0,0,0-2.861,1.463l-.04-.02V34.227h-2.981Zm19.547-2.746a3.519,3.519,0,0,1-1.461.4c-.92,0-1.14-.722-1.14-1.684V36.753h2.6V34.227h-2.6V31.14l-3.041.521v2.566h-1.6v2.526h1.6v3.628a4.024,4.024,0,0,0,.86,2.947,3.465,3.465,0,0,0,2.561.982,4.527,4.527,0,0,0,2.221-.541Zm11.044-1.383a8.139,8.139,0,0,0,.06-1.042,4.559,4.559,0,0,0-4.7-4.911,5.082,5.082,0,0,0-5.162,5.192c0,3.087,2.341,5.112,5.582,5.112a7.546,7.546,0,0,0,3.741-.9V40.862a6.116,6.116,0,0,1-3.341,1.082,2.666,2.666,0,0,1-2.861-1.985Zm-6.7-1.924a2.035,2.035,0,0,1,2.021-1.7,1.924,1.924,0,0,1,1.941,1.7Zm8.943,6.054h3.041V38.116a3.267,3.267,0,0,1,2.661-1.163,3.536,3.536,0,0,1,.82.1V34.187a2.435,2.435,0,0,0-.64-.08,3.328,3.328,0,0,0-2.861,1.463l-.04-.02V34.227H161.4Zm20.948,0h3.041V37.9a3.865,3.865,0,0,0-.9-2.907,3.429,3.429,0,0,0-2.541-.982,5.112,5.112,0,0,0-3.461,1.4,3.3,3.3,0,0,0-2.861-1.4,4.556,4.556,0,0,0-2.961,1.123l-.04-.02v-.882h-3v9.862h3.041V37.434a3.189,3.189,0,0,1,1.921-.8,1.358,1.358,0,0,1,1.04.421,1.863,1.863,0,0,1,.36,1.343v5.693h3.041V37.9a3.252,3.252,0,0,0-.02-.441,3.085,3.085,0,0,1,1.941-.822,1.358,1.358,0,0,1,1.04.421,1.8,1.8,0,0,1,.36,1.343Z" transform="translate(279.824 1027.28)" fill="#fff"/><path d="M7.832,17.7h2.862V4.964H7.832Zm5.364,0h2.736V11.88a3.2,3.2,0,0,1,1.854-.722,1.186,1.186,0,0,1,.936.37,1.687,1.687,0,0,1,.306,1.214V17.7h2.736V12.3a3.43,3.43,0,0,0-.774-2.569,3.23,3.23,0,0,0-2.322-.88,4.395,4.395,0,0,0-2.736,1L15.9,9.838V9.046H13.2ZM24.015,6.3a1.585,1.585,0,0,0,3.168,0,1.585,1.585,0,0,0-3.168,0Zm.216,11.826c0,.88-.144,1.39-1.1,1.39a5.562,5.562,0,0,1-.9-.088v2.2a5.329,5.329,0,0,0,1.242.141,3.837,3.837,0,0,0,2.682-.933c.522-.528.81-1.285.81-2.886v-8.9H24.231ZM37.678,14.08a6.973,6.973,0,0,0,.054-.915A4.052,4.052,0,0,0,33.5,8.853a4.519,4.519,0,0,0-4.644,4.558c0,2.71,2.106,4.488,5.022,4.488a6.926,6.926,0,0,0,3.366-.792V14.871a5.6,5.6,0,0,1-3.006.95,2.4,2.4,0,0,1-2.574-1.742Zm-6.03-1.689a1.82,1.82,0,0,1,1.818-1.5,1.718,1.718,0,0,1,1.746,1.5Zm15.337,2.376a4.566,4.566,0,0,1-2.592.862,2.271,2.271,0,1,1-.036-4.523,4.836,4.836,0,0,1,2.5.81V9.434a6.068,6.068,0,0,0-2.628-.581c-2.772,0-5.076,1.813-5.076,4.54,0,2.6,2.088,4.505,4.932,4.505a6.2,6.2,0,0,0,2.9-.669Zm7.849.528a3.226,3.226,0,0,1-1.314.352c-.828,0-1.026-.634-1.026-1.478v-2.9h2.34V9.046h-2.34V6.336l-2.736.458V9.046h-1.44v2.217h1.44v3.185a3.476,3.476,0,0,0,.774,2.587,3.16,3.16,0,0,0,2.3.862,4.154,4.154,0,0,0,2-.475Zm1.6-8.993a1.585,1.585,0,0,0,3.168,0,1.585,1.585,0,0,0-3.168,0Zm.216,11.4h2.736V9.046H56.652Zm7.363-4.329a2.2,2.2,0,1,1,2.2,2.217A2.184,2.184,0,0,1,64.015,13.376Zm-2.736,0a4.951,4.951,0,0,0,9.865,0,4.951,4.951,0,0,0-9.865,0ZM73.033,17.7H75.77V11.88a3.2,3.2,0,0,1,1.854-.722,1.187,1.187,0,0,1,.936.37,1.688,1.688,0,0,1,.306,1.214V17.7H81.6V12.3a3.43,3.43,0,0,0-.774-2.569,3.23,3.23,0,0,0-2.322-.88,4.395,4.395,0,0,0-2.736,1l-.036-.018V9.046h-2.7Zm15.175-.528A8.571,8.571,0,0,0,91.7,17.9c2.268,0,3.96-1.038,3.978-2.939,0-1.5-1.026-2.129-2.718-2.534-1.314-.317-2.268-.264-2.268-.9,0-.4.432-.616,1.152-.616a7.59,7.59,0,0,1,3.33.933V9.539a8.432,8.432,0,0,0-3.384-.686c-2.2,0-3.852,1.038-3.87,2.869,0,1.425.99,2.112,2.664,2.517,1.332.334,2.322.264,2.322.933,0,.475-.45.669-1.206.669a7.7,7.7,0,0,1-3.492-1ZM97.317,6.3a1.585,1.585,0,0,0,3.168,0,1.585,1.585,0,0,0-3.168,0Zm.216,11.4h2.736V9.046H97.533Zm10.927-2.411a3.226,3.226,0,0,1-1.314.352c-.828,0-1.026-.634-1.026-1.478v-2.9h2.34V9.046h-2.34V6.336l-2.736.458V9.046h-1.44v2.217h1.44v3.185a3.476,3.476,0,0,0,.774,2.587,3.16,3.16,0,0,0,2.3.862,4.154,4.154,0,0,0,2-.475ZM118.4,14.08a6.973,6.973,0,0,0,.054-.915,4.052,4.052,0,0,0-4.23-4.312,4.519,4.519,0,0,0-4.644,4.558c0,2.71,2.106,4.488,5.022,4.488a6.926,6.926,0,0,0,3.366-.792V14.871a5.6,5.6,0,0,1-3.006.95,2.4,2.4,0,0,1-2.574-1.742Zm-6.03-1.689a1.82,1.82,0,0,1,1.818-1.5,1.718,1.718,0,0,1,1.746,1.5ZM124.86,17.7H127.6V12.46a2.973,2.973,0,0,1,2.394-1.021,3.257,3.257,0,0,1,.738.088V9.011a2.243,2.243,0,0,0-.576-.07,3.018,3.018,0,0,0-2.574,1.285l-.036-.018V9.046H124.86Zm15.571-3.625a6.969,6.969,0,0,0,.054-.915,4.052,4.052,0,0,0-4.23-4.312,4.519,4.519,0,0,0-4.644,4.558c0,2.71,2.106,4.488,5.022,4.488A6.926,6.926,0,0,0,140,17.106V14.871a5.6,5.6,0,0,1-3.006.95,2.4,2.4,0,0,1-2.574-1.742ZM134.4,12.39a1.82,1.82,0,0,1,1.818-1.5,1.718,1.718,0,0,1,1.746,1.5Zm13.069,4.787a2.626,2.626,0,0,0,1.908.686,3.034,3.034,0,0,0,1.314-.264V15.593a1.052,1.052,0,0,1-.45.106c-.378,0-.54-.282-.54-.686V12.073a2.833,2.833,0,0,0-.99-2.393,4.753,4.753,0,0,0-2.952-.827,7.176,7.176,0,0,0-3.1.669v2.305a5.628,5.628,0,0,1,2.592-.686,2.069,2.069,0,0,1,1.368.37,1.205,1.205,0,0,1,.342.915v.334a7.274,7.274,0,0,0-1.53-.158,4.452,4.452,0,0,0-2.484.616,2.451,2.451,0,0,0-1.08,2.094,2.345,2.345,0,0,0,1.044,2.024,3.662,3.662,0,0,0,2.052.563,4.381,4.381,0,0,0,2.466-.722Zm-.5-1.6a2.5,2.5,0,0,1-1.242.352c-.63,0-1.134-.3-1.134-.862,0-.669.7-.88,1.4-.88a3.682,3.682,0,0,1,.972.123Zm12.619-.81a4.566,4.566,0,0,1-2.592.862,2.271,2.271,0,1,1-.036-4.523,4.836,4.836,0,0,1,2.5.81V9.434a6.068,6.068,0,0,0-2.628-.581c-2.772,0-5.076,1.813-5.076,4.54,0,2.6,2.088,4.505,4.932,4.505a6.2,6.2,0,0,0,2.9-.669Zm7.849.528a3.227,3.227,0,0,1-1.314.352c-.828,0-1.026-.634-1.026-1.478v-2.9h2.34V9.046h-2.34V6.336l-2.736.458V9.046h-1.44v2.217h1.44v3.185a3.476,3.476,0,0,0,.774,2.587,3.16,3.16,0,0,0,2.3.862,4.154,4.154,0,0,0,2-.475Zm1.6-8.993a1.585,1.585,0,0,0,3.168,0,1.585,1.585,0,0,0-3.168,0Zm.216,11.4h2.736V9.046h-2.736Zm7.363-4.329a2.2,2.2,0,1,1,2.2,2.217A2.184,2.184,0,0,1,176.614,13.376Zm-2.736,0a4.951,4.951,0,0,0,9.865,0,4.951,4.951,0,0,0-9.865,0ZM185.632,17.7h2.736V11.88a3.2,3.2,0,0,1,1.854-.722,1.187,1.187,0,0,1,.936.37,1.687,1.687,0,0,1,.306,1.214V17.7H194.2V12.3a3.43,3.43,0,0,0-.774-2.569,3.23,3.23,0,0,0-2.322-.88,4.395,4.395,0,0,0-2.736,1l-.036-.018V9.046h-2.7Zm10.729-.528a8.571,8.571,0,0,0,3.492.722c2.268,0,3.96-1.038,3.978-2.939,0-1.5-1.026-2.129-2.718-2.534-1.314-.317-2.268-.264-2.268-.9,0-.4.432-.616,1.152-.616a7.59,7.59,0,0,1,3.33.933V9.539a8.432,8.432,0,0,0-3.384-.686c-2.2,0-3.852,1.038-3.87,2.869,0,1.425.99,2.112,2.664,2.517,1.332.334,2.322.264,2.322.933,0,.475-.45.669-1.206.669a7.7,7.7,0,0,1-3.492-1Z" transform="translate(278.401 1208.23)" fill="#343434"/><path d="M14.536,18.07h8.218V15.556H17.389V12.444h4.45V10.056h-4.45V7.487h5.167V4.973h-8.02Zm17.279-3.021a4.46,4.46,0,0,1-2.584.886,2.329,2.329,0,1,1-.036-4.649,4.72,4.72,0,0,1,2.494.832V9.568a5.9,5.9,0,0,0-2.62-.6,4.752,4.752,0,0,0-5.06,4.667,4.634,4.634,0,0,0,4.916,4.631,6.03,6.03,0,0,0,2.889-.687Zm7.823.543a3.14,3.14,0,0,1-1.31.362c-.825,0-1.023-.651-1.023-1.52V11.449h2.333V9.17H37.305V6.384l-2.727.47V9.17H33.142v2.279h1.435v3.274a3.646,3.646,0,0,0,.772,2.659,3.1,3.1,0,0,0,2.3.886,4.04,4.04,0,0,0,1.992-.488Zm3.84-1.972A2.191,2.191,0,1,1,45.666,15.9,2.212,2.212,0,0,1,43.477,13.62Zm-2.727,0a4.924,4.924,0,1,0,4.916-4.649A4.691,4.691,0,0,0,40.75,13.62Zm14.444,4.324.036-.018a3.946,3.946,0,0,0,1.7.344,4.5,4.5,0,0,0,4.611-4.722,4.276,4.276,0,0,0-4.181-4.577,3.794,3.794,0,0,0-2.189.669l-.036-.018V9.17H52.467V22.05h2.727Zm0-2.243V11.757a2.519,2.519,0,0,1,1.471-.488A2.19,2.19,0,0,1,58.8,13.692a2.153,2.153,0,0,1-2.207,2.352A3.07,3.07,0,0,1,55.194,15.7Zm8.074-9.353a1.579,1.579,0,1,0,1.579-1.574A1.584,1.584,0,0,0,63.268,6.347Zm.215,11.723h2.727V9.17H63.483Zm12.434-3.021a4.46,4.46,0,0,1-2.584.886,2.329,2.329,0,1,1-.036-4.649,4.72,4.72,0,0,1,2.494.832V9.568a5.9,5.9,0,0,0-2.62-.6,4.752,4.752,0,0,0-5.06,4.667,4.634,4.634,0,0,0,4.916,4.631,6.03,6.03,0,0,0,2.889-.687Zm13.8,0a4.46,4.46,0,0,1-2.584.886,2.329,2.329,0,1,1-.036-4.649,4.72,4.72,0,0,1,2.494.832V9.568a5.9,5.9,0,0,0-2.62-.6,4.752,4.752,0,0,0-5.06,4.667,4.634,4.634,0,0,0,4.916,4.631,6.03,6.03,0,0,0,2.889-.687Zm7.105,2.478a2.571,2.571,0,0,0,1.9.706,2.946,2.946,0,0,0,1.31-.271V15.9a1.022,1.022,0,0,1-.449.109c-.377,0-.538-.289-.538-.706V12.281a2.955,2.955,0,0,0-.987-2.46,4.634,4.634,0,0,0-2.943-.85,6.972,6.972,0,0,0-3.086.687v2.37a5.479,5.479,0,0,1,2.584-.706,2.018,2.018,0,0,1,1.364.38,1.26,1.26,0,0,1,.341.941v.344a7.038,7.038,0,0,0-1.525-.163,4.332,4.332,0,0,0-2.476.633,2.543,2.543,0,0,0-1.077,2.153,2.433,2.433,0,0,0,1.041,2.08,3.568,3.568,0,0,0,2.045.579,4.273,4.273,0,0,0,2.458-.742Zm-.5-1.646a2.436,2.436,0,0,1-1.238.362c-.628,0-1.13-.308-1.13-.886,0-.687.7-.9,1.4-.9a3.565,3.565,0,0,1,.969.127Zm5.311,2.189h2.727V4.249h-2.727Zm12.434-3.021a4.46,4.46,0,0,1-2.584.886,2.329,2.329,0,1,1-.036-4.649,4.72,4.72,0,0,1,2.494.832V9.568a5.9,5.9,0,0,0-2.62-.6,4.752,4.752,0,0,0-5.06,4.667,4.634,4.634,0,0,0,4.916,4.631,6.03,6.03,0,0,0,2.889-.687Zm1.884-8.7a1.579,1.579,0,1,0,1.579-1.574A1.584,1.584,0,0,0,115.947,6.347Zm.215,11.723h2.727V9.17h-2.727Zm5.652,0h2.727V11.449h2.045V9.17h-2.045v-1.5c0-.76.179-1.3,1.023-1.3a5.633,5.633,0,0,1,1.184.163V4.3a4.326,4.326,0,0,0-1.507-.253,3.6,3.6,0,0,0-2.494.832,4.015,4.015,0,0,0-.933,2.967V9.17h-1.256v2.279h1.256Zm6.154-11.723a1.579,1.579,0,1,0,1.579-1.574A1.584,1.584,0,0,0,127.969,6.347Zm.215,11.723h2.727V9.17h-2.727Zm12.434-3.021a4.46,4.46,0,0,1-2.584.886A2.329,2.329,0,1,1,138,11.286a4.72,4.72,0,0,1,2.494.832V9.568a5.9,5.9,0,0,0-2.62-.6,4.752,4.752,0,0,0-5.06,4.667,4.634,4.634,0,0,0,4.916,4.631,6.03,6.03,0,0,0,2.889-.687Zm7.105,2.478a2.571,2.571,0,0,0,1.9.706,2.946,2.946,0,0,0,1.31-.271V15.9a1.022,1.022,0,0,1-.449.109c-.377,0-.538-.289-.538-.706V12.281a2.955,2.955,0,0,0-.987-2.46,4.634,4.634,0,0,0-2.943-.85,6.972,6.972,0,0,0-3.086.687v2.37a5.479,5.479,0,0,1,2.584-.706,2.018,2.018,0,0,1,1.364.38,1.26,1.26,0,0,1,.341.941v.344a7.038,7.038,0,0,0-1.525-.163,4.332,4.332,0,0,0-2.476.633,2.543,2.543,0,0,0-1.077,2.153,2.433,2.433,0,0,0,1.041,2.08,3.568,3.568,0,0,0,2.045.579,4.273,4.273,0,0,0,2.458-.742Zm-.5-1.646a2.436,2.436,0,0,1-1.238.362c-.628,0-1.13-.308-1.13-.886,0-.687.7-.9,1.4-.9a3.565,3.565,0,0,1,.969.127Zm11.035-.289a3.14,3.14,0,0,1-1.31.362c-.825,0-1.023-.651-1.023-1.52V11.449h2.333V9.17h-2.333V6.384l-2.727.47V9.17h-1.435v2.279H153.2v3.274a3.646,3.646,0,0,0,.772,2.659,3.1,3.1,0,0,0,2.3.886,4.04,4.04,0,0,0,1.992-.488Zm1.6-9.244a1.579,1.579,0,1,0,1.579-1.574A1.584,1.584,0,0,0,159.853,6.347Zm.215,11.723H162.8V9.17h-2.727Zm7.339-4.45A2.191,2.191,0,1,1,169.6,15.9,2.212,2.212,0,0,1,167.407,13.62Zm-2.727,0A4.924,4.924,0,1,0,169.6,8.971,4.691,4.691,0,0,0,164.68,13.62ZM176.4,18.07h2.727V12.082a3.134,3.134,0,0,1,1.848-.742,1.164,1.164,0,0,1,.933.38,1.774,1.774,0,0,1,.305,1.248v5.1h2.727V12.516a3.6,3.6,0,0,0-.772-2.641,3.165,3.165,0,0,0-2.315-.9A4.3,4.3,0,0,0,179.123,10l-.036-.018V9.17H176.4Zm10.694-.543a8.321,8.321,0,0,0,3.481.742c2.261,0,3.947-1.067,3.965-3.021,0-1.538-1.023-2.189-2.709-2.605-1.31-.326-2.261-.271-2.261-.923,0-.416.431-.633,1.148-.633a7.389,7.389,0,0,1,3.319.959V9.676a8.184,8.184,0,0,0-3.373-.706c-2.189,0-3.84,1.067-3.858,2.949,0,1.465.987,2.171,2.656,2.587,1.328.344,2.315.271,2.315.959,0,.488-.449.687-1.2.687a7.5,7.5,0,0,1-3.481-1.031Z" transform="translate(281.698 1284.95)" fill="#343434"/><path d="M34.093,17.849h2.864V12.421H42.6v5.427h2.864V4.966H42.6V9.948H36.957V4.966H34.093Zm16.915,3.915L56.772,9.094h-2.72l-.937,2.118c-.414.943-.811,1.868-1.207,2.829h-.036q-.54-1.361-1.135-2.776l-.919-2.171H46.937l3.6,7.794-2.324,4.876Zm9.925-4.039.036-.018a4.032,4.032,0,0,0,1.711.338A4.466,4.466,0,0,0,67.31,13.4a4.243,4.243,0,0,0-4.2-4.5,3.864,3.864,0,0,0-2.2.658l-.036-.018V9.094H58.195V21.763h2.738Zm0-2.206V11.639a2.564,2.564,0,0,1,1.477-.48,2.171,2.171,0,0,1,2.144,2.384,2.137,2.137,0,0,1-2.216,2.313A3.133,3.133,0,0,1,60.933,15.518Zm16.59-1.335a7.123,7.123,0,0,0,.054-.925A4.075,4.075,0,0,0,73.344,8.9,4.544,4.544,0,0,0,68.7,13.507c0,2.74,2.108,4.538,5.026,4.538a6.872,6.872,0,0,0,3.369-.8v-2.26a5.561,5.561,0,0,1-3.008.961,2.4,2.4,0,0,1-2.576-1.762Zm-6.035-1.708a1.825,1.825,0,0,1,1.819-1.513,1.724,1.724,0,0,1,1.747,1.513Zm8.052,5.374h2.738v-5.3a2.96,2.96,0,0,1,2.4-1.032,3.227,3.227,0,0,1,.739.089V9.058a2.222,2.222,0,0,0-.576-.071,3.01,3.01,0,0,0-2.576,1.3l-.036-.018V9.094H79.541Zm7.151-.534a8.5,8.5,0,0,0,3.495.73c2.27,0,3.963-1.05,3.981-2.972,0-1.513-1.027-2.153-2.72-2.562-1.315-.32-2.27-.267-2.27-.908,0-.409.432-.623,1.153-.623a7.535,7.535,0,0,1,3.332.943V9.592A8.362,8.362,0,0,0,90.277,8.9c-2.2,0-3.855,1.05-3.873,2.9,0,1.441.991,2.135,2.666,2.545,1.333.338,2.324.267,2.324.943,0,.48-.45.676-1.207.676a7.644,7.644,0,0,1-3.495-1.014Zm17.6-3.132a7.123,7.123,0,0,0,.054-.925,4.075,4.075,0,0,0-4.233-4.36,4.544,4.544,0,0,0-4.647,4.609c0,2.74,2.108,4.538,5.026,4.538a6.872,6.872,0,0,0,3.369-.8v-2.26a5.561,5.561,0,0,1-3.008.961,2.4,2.4,0,0,1-2.576-1.762Zm-6.035-1.708a1.825,1.825,0,0,1,1.819-1.513,1.724,1.724,0,0,1,1.747,1.513Zm8.052,5.374h2.738v-5.89a3.182,3.182,0,0,1,1.855-.73,1.181,1.181,0,0,1,.937.374,1.719,1.719,0,0,1,.306,1.228v5.018h2.738V12.386a3.492,3.492,0,0,0-.775-2.6,3.213,3.213,0,0,0-2.324-.89,4.371,4.371,0,0,0-2.738,1.014l-.036-.018v-.8h-2.7Zm10.736-.534a8.5,8.5,0,0,0,3.495.73c2.27,0,3.963-1.05,3.981-2.972,0-1.513-1.027-2.153-2.72-2.562-1.315-.32-2.27-.267-2.27-.908,0-.409.432-.623,1.153-.623a7.535,7.535,0,0,1,3.332.943V9.592A8.362,8.362,0,0,0,120.63,8.9c-2.2,0-3.855,1.05-3.873,2.9,0,1.441.991,2.135,2.666,2.545,1.333.338,2.324.267,2.324.943,0,.48-.45.676-1.207.676a7.644,7.644,0,0,1-3.495-1.014Zm9.115-11a1.586,1.586,0,1,0,1.585-1.548A1.574,1.574,0,0,0,126.16,6.318Zm.216,11.531h2.738V9.094h-2.738Zm10.934-2.438a3.2,3.2,0,0,1-1.315.356c-.829,0-1.027-.641-1.027-1.495V11.336h2.342V9.094h-2.342V6.354l-2.738.463V9.094h-1.441v2.242h1.441v3.221A3.539,3.539,0,0,0,133,17.173a3.144,3.144,0,0,0,2.306.872,4.122,4.122,0,0,0,2-.48Zm1.6-9.093A1.586,1.586,0,1,0,140.5,4.77,1.574,1.574,0,0,0,138.913,6.318Zm.216,11.531h2.738V9.094h-2.738Zm7.764,0h2.612l3.6-8.755h-2.7l-1.1,2.794c-.36.908-.739,1.9-1.063,2.794h-.036c-.306-.89-.648-1.851-.991-2.776l-1.045-2.811h-2.882Zm7.422-11.531A1.586,1.586,0,1,0,155.9,4.77,1.574,1.574,0,0,0,154.315,6.318Zm.216,11.531h2.738V9.094h-2.738Zm10.934-2.438a3.2,3.2,0,0,1-1.315.356c-.829,0-1.027-.641-1.027-1.495V11.336h2.342V9.094h-2.342V6.354l-2.738.463V9.094h-1.441v2.242h1.441v3.221a3.539,3.539,0,0,0,.775,2.616,3.144,3.144,0,0,0,2.306.872,4.122,4.122,0,0,0,2-.48Zm4.864,6.353,5.764-12.669h-2.72l-.937,2.118c-.414.943-.811,1.868-1.207,2.829h-.036q-.54-1.361-1.135-2.776l-.919-2.171h-2.882l3.6,7.794-2.324,4.876ZM65.337,41.574h2.738v-5.3a2.96,2.96,0,0,1,2.4-1.032,3.227,3.227,0,0,1,.739.089V32.784a2.222,2.222,0,0,0-.576-.071,3.01,3.01,0,0,0-2.576,1.3l-.036-.018V32.82H65.337Zm15.582-3.666a7.124,7.124,0,0,0,.054-.925,4.075,4.075,0,0,0-4.233-4.36,4.544,4.544,0,0,0-4.647,4.609c0,2.74,2.108,4.538,5.026,4.538a6.872,6.872,0,0,0,3.369-.8v-2.26a5.561,5.561,0,0,1-3.008.961A2.4,2.4,0,0,1,74.9,37.909ZM74.884,36.2A1.825,1.825,0,0,1,76.7,34.688,1.724,1.724,0,0,1,78.451,36.2Zm13.078,4.84a2.611,2.611,0,0,0,1.909.694,3.009,3.009,0,0,0,1.315-.267V39.439a1.043,1.043,0,0,1-.45.107c-.378,0-.54-.285-.54-.694V35.88a2.879,2.879,0,0,0-.991-2.42,4.721,4.721,0,0,0-2.954-.836,7.119,7.119,0,0,0-3.1.676v2.331a5.587,5.587,0,0,1,2.594-.694,2.055,2.055,0,0,1,1.369.374,1.225,1.225,0,0,1,.342.925v.338a7.206,7.206,0,0,0-1.531-.16,4.419,4.419,0,0,0-2.486.623,2.486,2.486,0,0,0-1.081,2.118A2.378,2.378,0,0,0,83.4,41.2a3.636,3.636,0,0,0,2.054.569,4.352,4.352,0,0,0,2.468-.73Zm-.5-1.619a2.482,2.482,0,0,1-1.243.356c-.63,0-1.135-.3-1.135-.872,0-.676.7-.89,1.405-.89a3.649,3.649,0,0,1,.973.125Zm12.627-.819a4.538,4.538,0,0,1-2.594.872,2.295,2.295,0,1,1-.036-4.573,4.805,4.805,0,0,1,2.5.819V33.211a6.019,6.019,0,0,0-2.63-.587c-2.774,0-5.08,1.833-5.08,4.591a4.612,4.612,0,0,0,4.936,4.555,6.156,6.156,0,0,0,2.9-.676Zm7.854.534a3.2,3.2,0,0,1-1.315.356c-.829,0-1.027-.641-1.027-1.495V35.062h2.342V32.82H105.6v-2.74l-2.738.463V32.82h-1.441v2.242h1.441v3.221a3.539,3.539,0,0,0,.775,2.616,3.144,3.144,0,0,0,2.306.872,4.122,4.122,0,0,0,2-.48Zm1.6-9.093a1.586,1.586,0,1,0,1.585-1.548A1.574,1.574,0,0,0,109.542,30.044Zm.216,11.531H112.5V32.82h-2.738Zm7.367-4.377a2.2,2.2,0,1,1,2.2,2.242A2.2,2.2,0,0,1,117.126,37.2Zm-2.738,0a4.95,4.95,0,1,0,4.936-4.573A4.668,4.668,0,0,0,114.388,37.2Zm11.763,4.377h2.738v-5.89a3.182,3.182,0,0,1,1.855-.73,1.181,1.181,0,0,1,.937.374,1.719,1.719,0,0,1,.306,1.228v5.018h2.738V36.111a3.492,3.492,0,0,0-.775-2.6,3.213,3.213,0,0,0-2.324-.89,4.371,4.371,0,0,0-2.738,1.014l-.036-.018v-.8h-2.7Zm10.736-.534a8.5,8.5,0,0,0,3.495.73c2.27,0,3.963-1.05,3.981-2.972,0-1.513-1.027-2.153-2.72-2.562-1.315-.32-2.27-.267-2.27-.908,0-.409.432-.623,1.153-.623a7.535,7.535,0,0,1,3.332.943V33.318a8.362,8.362,0,0,0-3.387-.694c-2.2,0-3.855,1.05-3.873,2.9,0,1.441.991,2.135,2.666,2.545,1.333.338,2.324.267,2.324.943,0,.48-.45.676-1.207.676a7.644,7.644,0,0,1-3.495-1.014Z" transform="translate(282.14 1422.23)" fill="#343434"/><path d="M42.539,17.447h8.568v-2.4H45.4V4.939H42.539Zm9.9-11.2a1.586,1.586,0,0,0,3.168,0,1.586,1.586,0,0,0-3.168,0Zm.216,11.2h2.736v-8.5H52.655Zm7.92-.121.036-.017a4.13,4.13,0,0,0,1.71.328,4.4,4.4,0,0,0,4.626-4.509,4.174,4.174,0,0,0-4.194-4.371,3.941,3.941,0,0,0-2.2.639l-.036-.017V8.947H57.839v12.3h2.736Zm0-2.142V11.418a2.612,2.612,0,0,1,1.476-.466,2.132,2.132,0,0,1,2.142,2.315,2.1,2.1,0,0,1-2.214,2.246A3.2,3.2,0,0,1,60.575,15.184ZM71.069,13.2a2.2,2.2,0,1,1,2.2,2.177A2.164,2.164,0,0,1,71.069,13.2Zm-2.736,0c0,2.505,2.106,4.44,4.932,4.44S78.2,15.7,78.2,13.2s-2.106-4.44-4.932-4.44S68.333,10.692,68.333,13.2ZM86.045,17v.449h2.682V4.248H85.991v4.8l-.036.017a4.354,4.354,0,0,0-1.674-.311A4.529,4.529,0,0,0,79.6,13.37a4.165,4.165,0,0,0,6.408,3.611Zm-.054-1.935a2.984,2.984,0,0,1-1.53.432,2.057,2.057,0,0,1-2.106-2.246,2.138,2.138,0,0,1,2.214-2.315,3.3,3.3,0,0,1,1.422.328Zm8.226,6.185,5.76-12.3H97.259L96.323,11c-.414.916-.81,1.814-1.206,2.747h-.036q-.54-1.322-1.134-2.7l-.918-2.108h-2.88l3.6,7.567-2.322,4.734Zm6.588-4.319a8.707,8.707,0,0,0,3.492.708c2.268,0,3.96-1.019,3.978-2.885,0-1.468-1.026-2.09-2.718-2.488-1.314-.311-2.268-.259-2.268-.881,0-.4.432-.6,1.152-.6a7.7,7.7,0,0,1,3.33.916V9.431a8.566,8.566,0,0,0-3.384-.674c-2.2,0-3.852,1.019-3.87,2.816,0,1.4.99,2.073,2.664,2.471,1.332.328,2.322.259,2.322.916,0,.466-.45.657-1.206.657a7.807,7.807,0,0,1-3.492-.985Zm15.066-1.849a3.273,3.273,0,0,1-1.314.346c-.828,0-1.026-.622-1.026-1.451V11.124h2.34V8.947h-2.34V6.287l-2.736.449V8.947h-1.44v2.177h1.44v3.127a3.373,3.373,0,0,0,.774,2.54,3.194,3.194,0,0,0,2.3.847,4.215,4.215,0,0,0,2-.466Zm1.818,2.367h2.736V12.3a3,3,0,0,1,2.394-1,3.314,3.314,0,0,1,.738.086V8.913a2.282,2.282,0,0,0-.576-.069,3.036,3.036,0,0,0-2.574,1.261l-.036-.017V8.947h-2.682Zm9.486-4.25a2.2,2.2,0,1,1,2.2,2.177A2.164,2.164,0,0,1,127.175,13.2Zm-2.736,0c0,2.505,2.106,4.44,4.932,4.44S134.3,15.7,134.3,13.2s-2.106-4.44-4.932-4.44S124.439,10.692,124.439,13.2Zm14.49,4.129.036-.017a4.13,4.13,0,0,0,1.71.328,4.4,4.4,0,0,0,4.626-4.509,4.174,4.174,0,0,0-4.194-4.371,3.941,3.941,0,0,0-2.2.639l-.036-.017V8.947h-2.682v12.3h2.736Zm0-2.142V11.418a2.612,2.612,0,0,1,1.476-.466,2.132,2.132,0,0,1,2.142,2.315,2.1,2.1,0,0,1-2.214,2.246A3.2,3.2,0,0,1,138.929,15.184Zm8.316,2.263h2.736V11.729a3.232,3.232,0,0,1,1.854-.708,1.2,1.2,0,0,1,.936.363,1.635,1.635,0,0,1,.306,1.192v4.872h2.736v-5.3a3.327,3.327,0,0,0-.774-2.522,3.263,3.263,0,0,0-2.322-.864,4.348,4.348,0,0,0-2.7.967l-.036-.017V4.248h-2.736Zm13.536,3.8,5.76-12.3h-2.718L162.887,11c-.414.916-.81,1.814-1.206,2.747h-.036q-.54-1.322-1.134-2.7l-.918-2.108h-2.88l3.6,7.567-2.322,4.734Z" transform="translate(281.694 1359.752)" fill="#343434"/></g><g transform="translate(131.999 5942.752)"><path d="M6.11,17.3a9.558,9.558,0,0,0,4.123.958c2.809,0,4.736-1.537,4.736-4.087,0-2.315-1.585-3.237-3.547-3.888-1.567-.524-2.773-.615-2.773-1.772,0-.868.7-1.23,1.675-1.23a8.251,8.251,0,0,1,4,1.266V5.713a8.944,8.944,0,0,0-3.979-.94c-2.737,0-4.574,1.519-4.574,3.96,0,2.278,1.621,3.165,3.421,3.761,1.675.542,2.9.651,2.9,1.863,0,.976-.774,1.392-1.819,1.392A8.209,8.209,0,0,1,6.11,14.393Zm14.009.759h2.863V7.485H27.2V4.971H15.906V7.485h4.213Zm8.715,0H31.7V12.892h1.278l3.3,5.172h3.3L35.893,12.53a3.64,3.64,0,0,0,2.647-3.617,3.366,3.366,0,0,0-1.567-3.074,7.819,7.819,0,0,0-4.051-.868H28.834ZM31.7,10.74V7.485h1.1a4.86,4.86,0,0,1,2.143.344,1.288,1.288,0,0,1,.738,1.284,1.363,1.363,0,0,1-.738,1.32,4.087,4.087,0,0,1-1.8.307Zm9.075,7.324h8.247V15.55H43.635V12.44H48.1V10.053H43.635V7.485h5.186V4.971H40.772Zm19.393,0h2.7V4.971H60.111V9.836c0,1.266.018,2.532.036,3.779l-.036.018c-.81-1.139-1.6-2.242-2.449-3.382l-3.907-5.28h-2.7V18.064h2.755V13.2c0-1.266-.018-2.532-.036-3.779l.036-.018c.81,1.139,1.6,2.242,2.449,3.382Zm5.1-.759a9.558,9.558,0,0,0,4.123.958c2.809,0,4.736-1.537,4.736-4.087,0-2.315-1.585-3.237-3.547-3.888C69.006,9.763,67.8,9.673,67.8,8.516c0-.868.7-1.23,1.675-1.23a8.251,8.251,0,0,1,4,1.266V5.713a8.944,8.944,0,0,0-3.979-.94c-2.737,0-4.574,1.519-4.574,3.96,0,2.278,1.621,3.165,3.421,3.761,1.675.542,2.9.651,2.9,1.863,0,.976-.774,1.392-1.819,1.392a8.209,8.209,0,0,1-4.159-1.356Zm10.714.759h2.863V4.971H75.975ZM91.712,21.1l2.611-1.537a23.489,23.489,0,0,1-3.655-1.935v-.036a6.594,6.594,0,0,0,3.763-6.076,6.807,6.807,0,0,0-13.613,0,6.643,6.643,0,0,0,6.68,6.745A17.231,17.231,0,0,0,91.712,21.1Zm-4.087-5.443a3.983,3.983,0,0,1-3.943-4.141,3.948,3.948,0,1,1,7.887,0A3.983,3.983,0,0,1,87.625,15.658Zm13.181,2.405h2.737V4.248h-2.737Zm13.451-3.725a7.359,7.359,0,0,0,.054-.94,4.108,4.108,0,0,0-4.231-4.43,4.579,4.579,0,0,0-4.646,4.684c0,2.785,2.107,4.611,5.024,4.611a6.779,6.779,0,0,0,3.367-.814v-2.3a5.5,5.5,0,0,1-3.007.976,2.4,2.4,0,0,1-2.575-1.79ZM108.224,12.6a1.832,1.832,0,0,1,1.819-1.537,1.733,1.733,0,0,1,1.747,1.537Zm7.8,4.919a8.378,8.378,0,0,0,3.493.741c2.269,0,3.961-1.067,3.979-3.02,0-1.537-1.026-2.188-2.719-2.6-1.314-.325-2.269-.271-2.269-.922,0-.416.432-.633,1.152-.633a7.437,7.437,0,0,1,3.331.958V9.673a8.241,8.241,0,0,0-3.385-.705c-2.2,0-3.853,1.067-3.871,2.948,0,1.465.99,2.17,2.665,2.586,1.332.344,2.323.271,2.323.958,0,.488-.45.687-1.206.687a7.546,7.546,0,0,1-3.493-1.031Zm9.075,0a8.378,8.378,0,0,0,3.493.741c2.269,0,3.961-1.067,3.979-3.02,0-1.537-1.026-2.188-2.719-2.6-1.314-.325-2.269-.271-2.269-.922,0-.416.432-.633,1.152-.633a7.437,7.437,0,0,1,3.331.958V9.673a8.241,8.241,0,0,0-3.385-.705c-2.2,0-3.853,1.067-3.871,2.948,0,1.465.99,2.17,2.665,2.586,1.332.344,2.323.271,2.323.958,0,.488-.45.687-1.206.687a7.546,7.546,0,0,1-3.493-1.031Zm19.519-1.935a3.161,3.161,0,0,1-1.314.362c-.828,0-1.026-.651-1.026-1.519V11.445h2.341V9.167h-2.341V6.382l-2.737.47V9.167H138.1v2.278h1.441v3.273a3.635,3.635,0,0,0,.774,2.658,3.115,3.115,0,0,0,2.3.886,4.067,4.067,0,0,0,2-.488Zm1.819,2.477h2.737V12.078a3.152,3.152,0,0,1,1.855-.741,1.171,1.171,0,0,1,.936.38,1.768,1.768,0,0,1,.306,1.248v5.1H155V12.512a3.588,3.588,0,0,0-.774-2.64,3.183,3.183,0,0,0-2.323-.9,4.235,4.235,0,0,0-2.7,1.013l-.036-.018V4.248h-2.737Zm16.008-.542a2.586,2.586,0,0,0,1.909.705,2.966,2.966,0,0,0,1.314-.271V15.894a1.029,1.029,0,0,1-.45.108c-.378,0-.54-.289-.54-.705v-3.02a2.949,2.949,0,0,0-.99-2.459,4.663,4.663,0,0,0-2.953-.85,7.02,7.02,0,0,0-3.1.687v2.369a5.515,5.515,0,0,1,2.593-.705,2.031,2.031,0,0,1,1.368.38,1.257,1.257,0,0,1,.342.94v.344a7.089,7.089,0,0,0-1.531-.163,4.361,4.361,0,0,0-2.485.633,2.539,2.539,0,0,0-1.08,2.152,2.429,2.429,0,0,0,1.044,2.08,3.591,3.591,0,0,0,2.053.579,4.3,4.3,0,0,0,2.467-.741Zm-.5-1.646a2.452,2.452,0,0,1-1.242.362c-.63,0-1.134-.307-1.134-.886,0-.687.7-.9,1.4-.9a3.591,3.591,0,0,1,.972.127Zm5.33,2.188H170V12.078a3.152,3.152,0,0,1,1.855-.741,1.171,1.171,0,0,1,.936.38,1.768,1.768,0,0,1,.306,1.248v5.1h2.737V12.512a3.588,3.588,0,0,0-.774-2.64,3.183,3.183,0,0,0-2.323-.9A4.328,4.328,0,0,0,170,10l-.036-.018V9.167h-2.7Zm17.61-4.448a2.2,2.2,0,1,1,2.2,2.278A2.216,2.216,0,0,1,184.877,13.615Zm-2.737,0a4.943,4.943,0,1,0,4.934-4.647A4.7,4.7,0,0,0,182.14,13.615ZM193.9,18.064h2.737V12.675a2.937,2.937,0,0,1,2.395-1.049,3.175,3.175,0,0,1,.738.09V9.13a2.187,2.187,0,0,0-.576-.072,2.993,2.993,0,0,0-2.575,1.32l-.036-.018V9.167H193.9ZM21.47,38.449a7.359,7.359,0,0,0,.054-.94,4.108,4.108,0,0,0-4.231-4.43,4.579,4.579,0,0,0-4.646,4.684c0,2.785,2.107,4.611,5.024,4.611a6.779,6.779,0,0,0,3.367-.814v-2.3a5.5,5.5,0,0,1-3.007.976,2.4,2.4,0,0,1-2.575-1.79Zm-6.032-1.736a1.832,1.832,0,0,1,1.819-1.537A1.733,1.733,0,0,1,19,36.713Zm13.955,5.136v4.3h2.737V33.278l-2.035.362a5.214,5.214,0,0,0-2.359-.561A4.592,4.592,0,0,0,23,37.853a4.268,4.268,0,0,0,4.267,4.521,4.167,4.167,0,0,0,2.089-.542Zm0-2.152a2.694,2.694,0,0,1-1.495.452,2.145,2.145,0,0,1-2.143-2.369,2.186,2.186,0,0,1,2.2-2.405,3.523,3.523,0,0,1,1.441.344Zm11.074,1.646v.832h2.7v-8.9H40.43v5.949a2.767,2.767,0,0,1-1.8.8,1.261,1.261,0,0,1-.972-.4,1.8,1.8,0,0,1-.342-1.284V33.278H34.578v5.479a3.645,3.645,0,0,0,.846,2.731,3.107,3.107,0,0,0,2.3.886,3.98,3.98,0,0,0,2.7-1.049Zm10.21.289a2.586,2.586,0,0,0,1.909.705,2.966,2.966,0,0,0,1.314-.271V40a1.029,1.029,0,0,1-.45.108c-.378,0-.54-.289-.54-.705v-3.02a2.949,2.949,0,0,0-.99-2.459,4.663,4.663,0,0,0-2.953-.85,7.02,7.02,0,0,0-3.1.687v2.369a5.515,5.515,0,0,1,2.593-.705,2.031,2.031,0,0,1,1.368.38,1.257,1.257,0,0,1,.342.94v.344a7.089,7.089,0,0,0-1.531-.163,4.361,4.361,0,0,0-2.485.633,2.539,2.539,0,0,0-1.08,2.152,2.429,2.429,0,0,0,1.044,2.08,3.591,3.591,0,0,0,2.053.579,4.3,4.3,0,0,0,2.467-.741Zm-.5-1.646a2.452,2.452,0,0,1-1.242.362c-.63,0-1.134-.307-1.134-.886,0-.687.7-.9,1.4-.9a3.591,3.591,0,0,1,.972.127Zm5.33,2.188h2.737V28.359H55.5ZM70.879,39.7a3.161,3.161,0,0,1-1.314.362c-.828,0-1.026-.651-1.026-1.519V35.556h2.341V33.278H68.538V30.493l-2.737.47v2.315H64.361v2.278H65.8v3.273a3.635,3.635,0,0,0,.774,2.658,3.115,3.115,0,0,0,2.3.886,4.067,4.067,0,0,0,2-.488Zm3.853-1.971A2.2,2.2,0,1,1,76.929,40,2.216,2.216,0,0,1,74.732,37.726Zm-2.737,0a4.943,4.943,0,1,0,4.934-4.647A4.7,4.7,0,0,0,72,37.726ZM92.27,29.082l-2.827,4.34A7.591,7.591,0,0,0,87.823,37.8c0,2.875,2.143,4.575,4.844,4.575,2.791,0,4.862-1.844,4.862-4.358a3.961,3.961,0,0,0-3.979-4.069,3.226,3.226,0,0,0-1.368.271l-.018-.018L95.6,29.082Zm-1.513,8.933a1.972,1.972,0,1,1,1.963,1.953A1.933,1.933,0,0,1,90.758,38.015Zm24.795,4.159h2.737V36.587a3.492,3.492,0,0,0-.81-2.622,3.082,3.082,0,0,0-2.287-.886,4.6,4.6,0,0,0-3.115,1.266,2.968,2.968,0,0,0-2.575-1.266,4.1,4.1,0,0,0-2.665,1.013l-.036-.018v-.8h-2.7v8.9h2.737v-6a2.866,2.866,0,0,1,1.729-.723,1.22,1.22,0,0,1,.936.38,1.683,1.683,0,0,1,.324,1.212v5.136h2.737V36.587a2.941,2.941,0,0,0-.018-.4,2.773,2.773,0,0,1,1.747-.741,1.22,1.22,0,0,1,.936.38,1.623,1.623,0,0,1,.324,1.212Zm5.87,3.526a7.193,7.193,0,0,0,3.025.651c2.827,0,4.736-1.555,4.736-4.358V33.205l-2.143.38a5,5,0,0,0-2.215-.506,4.479,4.479,0,0,0-4.61,4.647,4.15,4.15,0,0,0,4.123,4.358,3.72,3.72,0,0,0,2.071-.6l.036.018v.488A1.9,1.9,0,0,1,124.286,44a5.606,5.606,0,0,1-2.863-.9Zm5.024-6.239a2.745,2.745,0,0,1-1.386.38,2.219,2.219,0,0,1,.036-4.43,3.1,3.1,0,0,1,1.35.325Zm4.2,3.4h2.089L138.817,28.4h-2.089Zm9.6-.687h2.737V37.654l.036-.018,3.223,4.539h3.241l-3.637-4.919,3.385-3.978h-3.115l-3.1,3.779-.036-.018v-8.68h-2.737ZM150.881,45.7a7.193,7.193,0,0,0,3.025.651c2.827,0,4.736-1.555,4.736-4.358V33.205l-2.143.38a5,5,0,0,0-2.215-.506,4.479,4.479,0,0,0-4.61,4.647,4.151,4.151,0,0,0,4.123,4.358,3.72,3.72,0,0,0,2.071-.6l.036.018v.488A1.9,1.9,0,0,1,153.744,44a5.605,5.605,0,0,1-2.863-.9Zm5.024-6.239a2.745,2.745,0,0,1-1.386.38,2.219,2.219,0,0,1,.036-4.43,3.1,3.1,0,0,1,1.35.325Zm12.406,2.586.036-.018a3.974,3.974,0,0,0,1.711.344,4.5,4.5,0,0,0,4.628-4.72,4.281,4.281,0,0,0-4.2-4.575,3.818,3.818,0,0,0-2.2.669l-.036-.018v-.452h-2.683V46.153h2.737Zm0-2.242V35.863a2.535,2.535,0,0,1,1.477-.488A2.193,2.193,0,0,1,171.93,37.8a2.156,2.156,0,0,1-2.215,2.351A3.09,3.09,0,0,1,168.311,39.806Zm16.584-1.356a7.356,7.356,0,0,0,.054-.94,4.108,4.108,0,0,0-4.231-4.43,4.579,4.579,0,0,0-4.646,4.684c0,2.785,2.107,4.611,5.024,4.611a6.779,6.779,0,0,0,3.367-.814v-2.3a5.5,5.5,0,0,1-3.007.976,2.4,2.4,0,0,1-2.575-1.79Zm-6.032-1.736a1.832,1.832,0,0,1,1.819-1.537,1.733,1.733,0,0,1,1.747,1.537Zm8.049,5.461h2.737V36.786a2.937,2.937,0,0,1,2.395-1.049,3.175,3.175,0,0,1,.738.09V33.241a2.187,2.187,0,0,0-.576-.072,2.993,2.993,0,0,0-2.575,1.32l-.036-.018V33.278h-2.683ZM49.613,66.285h2.629l.81-2.387c.306-.886.576-1.718.81-2.532H53.9c.234.814.5,1.682.792,2.55l.792,2.369H58.04l3.025-8.9H58.418l-.9,2.8c-.288.9-.54,1.718-.774,2.568h-.036c-.252-.85-.5-1.646-.81-2.568l-.936-2.8H52.927l-.954,2.8c-.288.85-.576,1.736-.828,2.568h-.036c-.234-.85-.486-1.682-.774-2.568l-.9-2.8H46.588ZM70.573,62.56a7.357,7.357,0,0,0,.054-.94A4.108,4.108,0,0,0,66.4,57.19a4.579,4.579,0,0,0-4.646,4.684c0,2.785,2.107,4.611,5.024,4.611a6.779,6.779,0,0,0,3.367-.814v-2.3a5.5,5.5,0,0,1-3.007.976,2.4,2.4,0,0,1-2.575-1.79Zm-6.032-1.736a1.832,1.832,0,0,1,1.819-1.537,1.733,1.733,0,0,1,1.747,1.537ZM80.854,62.56a7.36,7.36,0,0,0,.054-.94,4.108,4.108,0,0,0-4.231-4.43,4.579,4.579,0,0,0-4.646,4.684c0,2.785,2.107,4.611,5.024,4.611a6.779,6.779,0,0,0,3.367-.814v-2.3a5.5,5.5,0,0,1-3.007.976,2.4,2.4,0,0,1-2.575-1.79Zm-6.032-1.736a1.832,1.832,0,0,1,1.819-1.537,1.733,1.733,0,0,1,1.747,1.537Zm8.049,5.461h2.737V61.765l.036-.018,3.223,4.539h3.241l-3.637-4.919,3.385-3.978H88.741l-3.1,3.779-.036-.018V52.47H82.871Zm20.365,3.852a15.1,15.1,0,0,1,0-17.288H100.7a13.8,13.8,0,0,0-2.647,8.644,13.8,13.8,0,0,0,2.647,8.644Zm10.786-3.852h2.7V53.193h-2.755v4.864c0,1.266.018,2.532.036,3.779l-.036.018c-.81-1.139-1.6-2.242-2.449-3.382l-3.907-5.28h-2.7V66.285h2.755V61.421c0-1.266-.018-2.532-.036-3.779l.036-.018c.81,1.139,1.6,2.242,2.449,3.382Zm5.042-7.541h8.859V56.774h-8.859Zm0,3.96h8.859V60.734h-8.859Zm15.215-9.512-2.827,4.34a7.591,7.591,0,0,0-1.621,4.376c0,2.875,2.143,4.575,4.844,4.575,2.791,0,4.862-1.844,4.862-4.358a3.961,3.961,0,0,0-3.979-4.069,3.226,3.226,0,0,0-1.368.271l-.018-.018,3.439-5.118Zm-1.513,8.933a1.972,1.972,0,1,1,1.963,1.953A1.933,1.933,0,0,1,132.767,62.126Zm12.965-8.933-2.827,4.34a7.591,7.591,0,0,0-1.621,4.376c0,2.875,2.143,4.575,4.844,4.575,2.791,0,4.862-1.844,4.862-4.358a3.961,3.961,0,0,0-3.979-4.069,3.226,3.226,0,0,0-1.368.271l-.018-.018,3.439-5.118Zm-1.513,8.933a1.972,1.972,0,1,1,1.963,1.953A1.933,1.933,0,0,1,144.219,62.126Zm8.067,8.011h2.539a13.8,13.8,0,0,0,2.647-8.644,13.8,13.8,0,0,0-2.647-8.644h-2.539a15.1,15.1,0,0,1,0,17.288ZM82.9,90.4h2.737V84.411a3.152,3.152,0,0,1,1.855-.741,1.171,1.171,0,0,1,.936.38,1.768,1.768,0,0,1,.306,1.248v5.1h2.737V84.845a3.588,3.588,0,0,0-.774-2.64,3.183,3.183,0,0,0-2.323-.9,4.328,4.328,0,0,0-2.737,1.031l-.036-.018V81.5H82.9Zm20.707,3.852a15.1,15.1,0,0,1,0-17.288h-2.539A13.8,13.8,0,0,0,98.419,85.6a13.8,13.8,0,0,0,2.647,8.644Zm4.5-10.38a3.385,3.385,0,1,0-3.241-3.382A3.151,3.151,0,0,0,108.107,83.868ZM107.3,90.4h1.837L117.65,77.3h-1.837Zm.81-8.21a1.735,1.735,0,1,1,1.386-1.7A1.513,1.513,0,0,1,108.107,82.187Zm5.492,5.027a3.244,3.244,0,1,0,3.241-3.382A3.151,3.151,0,0,0,113.6,87.214Zm1.855,0a1.415,1.415,0,1,1,1.386,1.7A1.513,1.513,0,0,1,115.453,87.214Zm5.888,7.034h2.539a13.8,13.8,0,0,0,2.647-8.644,13.8,13.8,0,0,0-2.647-8.644h-2.539a15.1,15.1,0,0,1,0,17.288Z" transform="translate(277.233 1086)" fill="#343434"/><path d="M6.8,17.244a9.588,9.588,0,0,0,4.122.954c2.808,0,4.734-1.53,4.734-4.068,0-2.3-1.584-3.222-3.546-3.87C10.541,9.738,9.335,9.648,9.335,8.5c0-.864.7-1.224,1.674-1.224a8.273,8.273,0,0,1,4,1.26V5.706a8.972,8.972,0,0,0-3.978-.936c-2.736,0-4.572,1.512-4.572,3.942,0,2.268,1.62,3.15,3.42,3.744,1.674.54,2.9.648,2.9,1.854,0,.972-.774,1.386-1.818,1.386A8.23,8.23,0,0,1,6.8,14.346ZM20.8,18h2.862V7.47h4.212v-2.5H16.589v2.5H20.8Zm8.712,0h2.862V12.852h1.278L36.947,18h3.294l-3.672-5.508a3.624,3.624,0,0,0,2.646-3.6,3.347,3.347,0,0,0-1.566-3.06,7.844,7.844,0,0,0-4.05-.864H29.513Zm2.862-7.29V7.47h1.1a4.877,4.877,0,0,1,2.142.342,1.282,1.282,0,0,1,.738,1.278,1.355,1.355,0,0,1-.738,1.314,4.1,4.1,0,0,1-1.8.306ZM41.447,18h8.244V15.5H44.309V12.4h4.464V10.026H44.309V7.47h5.184v-2.5H41.447Zm19.386,0h2.7V4.968H60.779V9.81c0,1.26.018,2.52.036,3.762l-.036.018c-.81-1.134-1.6-2.232-2.448-3.366L54.425,4.968h-2.7V18h2.754V13.158c0-1.26-.018-2.52-.036-3.762l.036-.018c.81,1.134,1.6,2.232,2.448,3.366Zm5.094-.756a9.588,9.588,0,0,0,4.122.954c2.808,0,4.734-1.53,4.734-4.068,0-2.3-1.584-3.222-3.546-3.87-1.566-.522-2.772-.612-2.772-1.764,0-.864.7-1.224,1.674-1.224a8.273,8.273,0,0,1,4,1.26V5.706a8.972,8.972,0,0,0-3.978-.936c-2.736,0-4.572,1.512-4.572,3.942,0,2.268,1.62,3.15,3.42,3.744,1.674.54,2.9.648,2.9,1.854,0,.972-.774,1.386-1.818,1.386a8.23,8.23,0,0,1-4.158-1.35ZM76.637,18H79.5V4.968H76.637Zm15.732,3.024,2.61-1.53a23.516,23.516,0,0,1-3.654-1.926v-.036a6.561,6.561,0,0,0,3.762-6.048,6.8,6.8,0,0,0-13.608,0A6.627,6.627,0,0,0,88.157,18.2,17.229,17.229,0,0,0,92.369,21.024Zm-4.086-5.418a3.972,3.972,0,0,1-3.942-4.122,3.946,3.946,0,1,1,7.884,0A3.972,3.972,0,0,1,88.283,15.606ZM112.907,18h2.736V12.438a3.466,3.466,0,0,0-.81-2.61,3.088,3.088,0,0,0-2.286-.882,4.6,4.6,0,0,0-3.114,1.26,2.972,2.972,0,0,0-2.574-1.26,4.1,4.1,0,0,0-2.664,1.008l-.036-.018V9.144h-2.7V18h2.736V12.024a2.872,2.872,0,0,1,1.728-.72,1.223,1.223,0,0,1,.936.378,1.67,1.67,0,0,1,.324,1.206V18h2.736V12.438a2.917,2.917,0,0,0-.018-.4,2.778,2.778,0,0,1,1.746-.738,1.223,1.223,0,0,1,.936.378,1.61,1.61,0,0,1,.324,1.206Zm7.326-4.428a2.2,2.2,0,1,1,2.2,2.268A2.21,2.21,0,0,1,120.233,13.572Zm-2.736,0a4.942,4.942,0,1,0,4.932-4.626A4.689,4.689,0,0,0,117.5,13.572ZM129.251,18h2.736V12.636a2.942,2.942,0,0,1,2.394-1.044,3.187,3.187,0,0,1,.738.09V9.108a2.195,2.195,0,0,0-.576-.072,3,3,0,0,0-2.574,1.314l-.036-.018V9.144h-2.682Zm15.57-3.708a7.292,7.292,0,0,0,.054-.936,4.1,4.1,0,0,0-4.23-4.41A4.567,4.567,0,0,0,136,13.608c0,2.772,2.106,4.59,5.022,4.59a6.8,6.8,0,0,0,3.366-.81V15.1a5.51,5.51,0,0,1-3.006.972,2.4,2.4,0,0,1-2.574-1.782Zm-6.03-1.728a1.83,1.83,0,0,1,1.818-1.53,1.73,1.73,0,0,1,1.746,1.53Zm18.234,2.97a3.17,3.17,0,0,1-1.314.36c-.828,0-1.026-.648-1.026-1.512v-2.97h2.34V9.144h-2.34V6.372l-2.736.468v2.3h-1.44v2.268h1.44V14.67a3.608,3.608,0,0,0,.774,2.646,3.121,3.121,0,0,0,2.3.882,4.079,4.079,0,0,0,2-.486ZM158.843,18h2.736V12.042a3.158,3.158,0,0,1,1.854-.738,1.173,1.173,0,0,1,.936.378,1.755,1.755,0,0,1,.306,1.242V18h2.736V12.474a3.561,3.561,0,0,0-.774-2.628,3.19,3.19,0,0,0-2.322-.9,4.244,4.244,0,0,0-2.7,1.008l-.036-.018V4.248h-2.736Zm16-.54a2.591,2.591,0,0,0,1.908.7,2.976,2.976,0,0,0,1.314-.27V15.84a1.032,1.032,0,0,1-.45.108c-.378,0-.54-.288-.54-.7V12.24a2.929,2.929,0,0,0-.99-2.448,4.676,4.676,0,0,0-2.952-.846,7.042,7.042,0,0,0-3.1.684v2.358a5.531,5.531,0,0,1,2.592-.7,2.036,2.036,0,0,1,1.368.378,1.248,1.248,0,0,1,.342.936v.342a7.116,7.116,0,0,0-1.53-.162,4.374,4.374,0,0,0-2.484.63,2.524,2.524,0,0,0-1.08,2.142,2.414,2.414,0,0,0,1.044,2.07,3.6,3.6,0,0,0,2.052.576,4.311,4.311,0,0,0,2.466-.738Zm-.5-1.638a2.458,2.458,0,0,1-1.242.36c-.63,0-1.134-.306-1.134-.882,0-.684.7-.9,1.4-.9a3.6,3.6,0,0,1,.972.126ZM179.669,18H182.4V12.042a3.158,3.158,0,0,1,1.854-.738,1.173,1.173,0,0,1,.936.378,1.755,1.755,0,0,1,.306,1.242V18h2.736V12.474a3.561,3.561,0,0,0-.774-2.628,3.19,3.19,0,0,0-2.322-.9A4.337,4.337,0,0,0,182.4,9.972l-.036-.018v-.81h-2.7ZM199.163,4.968l-2.826,4.32a7.536,7.536,0,0,0-1.62,4.356c0,2.862,2.142,4.554,4.842,4.554,2.79,0,4.86-1.836,4.86-4.338a3.951,3.951,0,0,0-3.978-4.05,3.236,3.236,0,0,0-1.368.27l-.018-.018,3.438-5.094Zm-1.512,8.892a1.972,1.972,0,1,1,1.962,1.944A1.928,1.928,0,0,1,197.651,13.86ZM28.415,42h2.736V36.438a3.466,3.466,0,0,0-.81-2.61,3.088,3.088,0,0,0-2.286-.882,4.6,4.6,0,0,0-3.114,1.26,2.972,2.972,0,0,0-2.574-1.26A4.1,4.1,0,0,0,19.7,33.954l-.036-.018v-.792h-2.7V42H19.7V36.024a2.872,2.872,0,0,1,1.728-.72,1.223,1.223,0,0,1,.936.378,1.67,1.67,0,0,1,.324,1.206V42h2.736V36.438a2.916,2.916,0,0,0-.018-.4,2.778,2.778,0,0,1,1.746-.738,1.223,1.223,0,0,1,.936.378,1.61,1.61,0,0,1,.324,1.206Zm5.868,3.51a7.217,7.217,0,0,0,3.024.648c2.826,0,4.734-1.548,4.734-4.338V33.072L39.9,33.45a5.017,5.017,0,0,0-2.214-.5,4.468,4.468,0,0,0-4.608,4.626A4.14,4.14,0,0,0,37.2,41.91a3.73,3.73,0,0,0,2.07-.594l.036.018v.486a1.894,1.894,0,0,1-2.16,2,5.62,5.62,0,0,1-2.862-.9Zm5.022-6.21a2.753,2.753,0,0,1-1.386.378,2.208,2.208,0,0,1,.036-4.41,3.11,3.11,0,0,1,1.35.324ZM43.5,42.684h2.088l6.084-14.4H49.583ZM53.093,42h2.736V37.5l.036-.018L59.087,42h3.24l-3.636-4.9,3.384-3.96H58.961l-3.1,3.762-.036-.018v-8.64H53.093Zm10.638,3.51a7.217,7.217,0,0,0,3.024.648c2.826,0,4.734-1.548,4.734-4.338V33.072l-2.142.378a5.017,5.017,0,0,0-2.214-.5,4.468,4.468,0,0,0-4.608,4.626,4.14,4.14,0,0,0,4.122,4.338,3.73,3.73,0,0,0,2.07-.594l.036.018v.486a1.894,1.894,0,0,1-2.16,2,5.62,5.62,0,0,1-2.862-.9Zm5.022-6.21a2.753,2.753,0,0,1-1.386.378,2.208,2.208,0,0,1,.036-4.41,3.11,3.11,0,0,1,1.35.324Zm4.194,3.384h2.088l6.084-14.4H79.031ZM84.647,42h2.628l.81-2.376c.306-.882.576-1.71.81-2.52h.036c.234.81.5,1.674.792,2.538L90.515,42h2.556L96.1,33.144H93.449l-.9,2.79c-.288.9-.54,1.71-.774,2.556h-.036c-.252-.846-.5-1.638-.81-2.556l-.936-2.79H87.959L87,35.934c-.288.846-.576,1.728-.828,2.556h-.036c-.234-.846-.486-1.674-.774-2.556l-.9-2.79H81.623ZM105.6,38.292a7.293,7.293,0,0,0,.054-.936,4.1,4.1,0,0,0-4.23-4.41,4.567,4.567,0,0,0-4.644,4.662c0,2.772,2.106,4.59,5.022,4.59a6.8,6.8,0,0,0,3.366-.81V39.1a5.51,5.51,0,0,1-3.006.972,2.4,2.4,0,0,1-2.574-1.782Zm-6.03-1.728a1.83,1.83,0,0,1,1.818-1.53,1.73,1.73,0,0,1,1.746,1.53Zm16.308,1.728a7.293,7.293,0,0,0,.054-.936,4.1,4.1,0,0,0-4.23-4.41,4.567,4.567,0,0,0-4.644,4.662c0,2.772,2.106,4.59,5.022,4.59a6.8,6.8,0,0,0,3.366-.81V39.1a5.51,5.51,0,0,1-3.006.972,2.4,2.4,0,0,1-2.574-1.782Zm-6.03-1.728a1.83,1.83,0,0,1,1.818-1.53,1.73,1.73,0,0,1,1.746,1.53ZM117.893,42h2.736V37.5l.036-.018L123.887,42h3.24l-3.636-4.9,3.384-3.96h-3.114l-3.1,3.762-.036-.018v-8.64h-2.736Zm24.8,3.834a14.192,14.192,0,0,1-2.718-8.6,14.192,14.192,0,0,1,2.718-8.6h-2.538a13.7,13.7,0,0,0-2.646,8.6,13.7,13.7,0,0,0,2.646,8.6ZM153.479,42h2.7V28.968h-2.754V33.81c0,1.26.018,2.52.036,3.762l-.036.018c-.81-1.134-1.6-2.232-2.448-3.366l-3.906-5.256h-2.7V42h2.754V37.158c0-1.26-.018-2.52-.036-3.762l.036-.018c.81,1.134,1.6,2.232,2.448,3.366Zm5.04-7.506h8.856V32.532h-8.856Zm0,3.942h8.856V36.474h-8.856ZM172.343,42h2.862V28.77l-5.508,2V33.36l2.646-.954Zm6.534-.81a7.115,7.115,0,0,0,3.762,1.008c2.646,0,4.752-1.566,4.752-3.87a3.136,3.136,0,0,0-2.178-3.078v-.036a2.964,2.964,0,0,0,1.926-2.826c0-2.07-1.944-3.618-4.59-3.618a5.717,5.717,0,0,0-2.9.72v2.556a6,6,0,0,1,2.682-.756c1.17,0,1.944.576,1.944,1.566,0,.918-.666,1.566-2.07,1.566h-1.224v2.16h1.3c1.548,0,2.25.594,2.25,1.53,0,.99-.81,1.566-2.034,1.566a7.216,7.216,0,0,1-3.618-1.242Zm9.882,4.644H191.3a13.7,13.7,0,0,0,2.646-8.6,13.7,13.7,0,0,0-2.646-8.6h-2.538a14.192,14.192,0,0,1,2.718,8.6A14.192,14.192,0,0,1,188.759,45.834ZM83.648,66h2.736V60.042a3.158,3.158,0,0,1,1.854-.738,1.173,1.173,0,0,1,.936.378,1.755,1.755,0,0,1,.306,1.242V66h2.736V60.474a3.561,3.561,0,0,0-.774-2.628,3.19,3.19,0,0,0-2.322-.9,4.337,4.337,0,0,0-2.736,1.026l-.036-.018v-.81h-2.7Zm20.7,3.834a14.977,14.977,0,0,1,0-17.208H101.81a13.7,13.7,0,0,0-2.646,8.6,13.7,13.7,0,0,0,2.646,8.6Zm4.5-10.332a3.368,3.368,0,1,0-3.24-3.366A3.142,3.142,0,0,0,108.848,59.5Zm-.81,6.5h1.836l8.514-13.032h-1.836Zm.81-8.172a1.726,1.726,0,1,1,1.386-1.692A1.508,1.508,0,0,1,108.848,57.828Zm5.49,5a3.242,3.242,0,1,0,3.24-3.366A3.142,3.142,0,0,0,114.338,62.832Zm1.854,0a1.414,1.414,0,1,1,1.386,1.692A1.508,1.508,0,0,1,116.192,62.832Zm5.886,7h2.538a13.7,13.7,0,0,0,2.646-8.6,13.7,13.7,0,0,0-2.646-8.6h-2.538a14.977,14.977,0,0,1,0,17.208Z" transform="translate(487.121 1099)" fill="#343434"/><path d="M30.67,18h2.862V7.47h4.212v-2.5H26.458v2.5H30.67Zm9.036-4.428a2.2,2.2,0,1,1,2.2,2.268A2.21,2.21,0,0,1,39.706,13.572Zm-2.736,0A4.689,4.689,0,0,0,41.9,18.2a4.635,4.635,0,1,0,0-9.252A4.689,4.689,0,0,0,36.97,13.572Zm17.5,1.962a3.17,3.17,0,0,1-1.314.36c-.828,0-1.026-.648-1.026-1.512v-2.97h2.34V9.144h-2.34V6.372L49.39,6.84v2.3H47.95v2.268h1.44V14.67a3.608,3.608,0,0,0,.774,2.646,3.121,3.121,0,0,0,2.3.882,4.079,4.079,0,0,0,2-.486Zm6.84,1.926a2.591,2.591,0,0,0,1.908.7,2.976,2.976,0,0,0,1.314-.27V15.84a1.032,1.032,0,0,1-.45.108c-.378,0-.54-.288-.54-.7V12.24a2.929,2.929,0,0,0-.99-2.448A4.676,4.676,0,0,0,59.6,8.946a7.042,7.042,0,0,0-3.1.684v2.358a5.531,5.531,0,0,1,2.592-.7,2.036,2.036,0,0,1,1.368.378,1.248,1.248,0,0,1,.342.936v.342a7.116,7.116,0,0,0-1.53-.162,4.374,4.374,0,0,0-2.484.63,2.524,2.524,0,0,0-1.08,2.142,2.414,2.414,0,0,0,1.044,2.07A3.6,3.6,0,0,0,58.8,18.2a4.311,4.311,0,0,0,2.466-.738Zm-.5-1.638a2.458,2.458,0,0,1-1.242.36c-.63,0-1.134-.306-1.134-.882,0-.684.7-.9,1.4-.9a3.6,3.6,0,0,1,.972.126ZM66.13,18h2.736V4.248H66.13Zm14.9,3.834a14.192,14.192,0,0,1-2.718-8.6,14.192,14.192,0,0,1,2.718-8.6H78.5a13.7,13.7,0,0,0-2.646,8.6,13.7,13.7,0,0,0,2.646,8.6ZM91.816,18h2.7V4.968H91.762V9.81c0,1.26.018,2.52.036,3.762l-.036.018c-.81-1.134-1.6-2.232-2.448-3.366L85.408,4.968h-2.7V18h2.754V13.158c0-1.26-.018-2.52-.036-3.762l.036-.018c.81,1.134,1.6,2.232,2.448,3.366Zm5.04-7.506h8.856V8.532H96.856Zm0,3.942h8.856V12.474H96.856ZM108.52,18h3.006L116.8,5l-.018-.036H107.6v2.5h5.184Zm14.76,0,2.754-4.446A8.353,8.353,0,0,0,127.6,9.216c0-2.772-2.178-4.428-4.824-4.428-2.772,0-4.86,1.836-4.86,4.374a3.96,3.96,0,0,0,4,4A3.474,3.474,0,0,0,123.028,13l.018.036L119.968,18Zm-.576-7.074a1.876,1.876,0,0,1-1.98-1.872,1.91,1.91,0,0,1,1.98-1.89,1.935,1.935,0,0,1,1.962,1.926A1.853,1.853,0,0,1,122.7,10.926Zm6.1,10.908h2.538a13.7,13.7,0,0,0,2.646-8.6,13.7,13.7,0,0,0-2.646-8.6h-2.538a14.192,14.192,0,0,1,2.718,8.6A14.192,14.192,0,0,1,128.806,21.834ZM140.974,18h2.736V12.042a3.158,3.158,0,0,1,1.854-.738,1.173,1.173,0,0,1,.936.378,1.755,1.755,0,0,1,.306,1.242V18h2.736V12.474a3.561,3.561,0,0,0-.774-2.628,3.19,3.19,0,0,0-2.322-.9,4.337,4.337,0,0,0-2.736,1.026l-.036-.018v-.81h-2.7Zm20.7,3.834a14.192,14.192,0,0,1-2.718-8.6,14.192,14.192,0,0,1,2.718-8.6h-2.538a13.7,13.7,0,0,0-2.646,8.6,13.7,13.7,0,0,0,2.646,8.6Zm4.5-10.332a3.142,3.142,0,0,0,3.24-3.366,3.242,3.242,0,1,0-6.48,0A3.142,3.142,0,0,0,166.174,11.5Zm-.81,6.5H167.2l8.514-13.032h-1.836Zm.81-8.172a1.508,1.508,0,0,1-1.386-1.692,1.414,1.414,0,1,1,2.772,0A1.508,1.508,0,0,1,166.174,9.828Zm5.49,5a3.242,3.242,0,1,0,6.48,0,3.242,3.242,0,1,0-6.48,0Zm1.854,0a1.414,1.414,0,1,1,2.772,0,1.414,1.414,0,1,1-2.772,0Zm5.886,7h2.538a13.7,13.7,0,0,0,2.646-8.6,13.7,13.7,0,0,0-2.646-8.6H179.4a14.192,14.192,0,0,1,2.718,8.6A14.192,14.192,0,0,1,179.4,21.834Z" transform="translate(701.01 1122)" fill="#343434"/><path d="M28.7,17.244a9.588,9.588,0,0,0,4.122.954c2.808,0,4.734-1.53,4.734-4.068,0-2.3-1.584-3.222-3.546-3.87-1.566-.522-2.772-.612-2.772-1.764,0-.864.7-1.224,1.674-1.224a8.273,8.273,0,0,1,4,1.26V5.706a8.972,8.972,0,0,0-3.978-.936c-2.736,0-4.572,1.512-4.572,3.942,0,2.268,1.62,3.15,3.42,3.744,1.674.54,2.9.648,2.9,1.854,0,.972-.774,1.386-1.818,1.386a8.23,8.23,0,0,1-4.158-1.35Zm14,.756h2.862V7.47h4.212v-2.5H38.495v2.5h4.212Zm8.712,0h2.862V12.852h1.278L58.853,18h3.294l-3.672-5.508a3.624,3.624,0,0,0,2.646-3.6,3.347,3.347,0,0,0-1.566-3.06,7.844,7.844,0,0,0-4.05-.864H51.419Zm2.862-7.29V7.47h1.1a4.877,4.877,0,0,1,2.142.342,1.282,1.282,0,0,1,.738,1.278,1.355,1.355,0,0,1-.738,1.314,4.1,4.1,0,0,1-1.8.306ZM63.353,18H71.6V15.5H66.215V12.4h4.464V10.026H66.215V7.47H71.4v-2.5H63.353Zm19.386,0h2.7V4.968H82.685V9.81c0,1.26.018,2.52.036,3.762l-.036.018c-.81-1.134-1.6-2.232-2.448-3.366L76.331,4.968h-2.7V18h2.754V13.158c0-1.26-.018-2.52-.036-3.762l.036-.018c.81,1.134,1.6,2.232,2.448,3.366Zm5.094-.756a9.588,9.588,0,0,0,4.122.954c2.808,0,4.734-1.53,4.734-4.068,0-2.3-1.584-3.222-3.546-3.87-1.566-.522-2.772-.612-2.772-1.764,0-.864.7-1.224,1.674-1.224a8.273,8.273,0,0,1,4,1.26V5.706a8.972,8.972,0,0,0-3.978-.936c-2.736,0-4.572,1.512-4.572,3.942,0,2.268,1.62,3.15,3.42,3.744,1.674.54,2.9.648,2.9,1.854,0,.972-.774,1.386-1.818,1.386a8.23,8.23,0,0,1-4.158-1.35ZM98.543,18H101.4V4.968H98.543Zm15.732,3.024,2.61-1.53a23.516,23.516,0,0,1-3.654-1.926v-.036a6.561,6.561,0,0,0,3.762-6.048,6.8,6.8,0,0,0-13.608,0,6.627,6.627,0,0,0,6.678,6.714A17.229,17.229,0,0,0,114.275,21.024Zm-4.086-5.418a3.972,3.972,0,0,1-3.942-4.122,3.946,3.946,0,1,1,7.884,0A3.972,3.972,0,0,1,110.189,15.606Zm18.45,6.228a14.192,14.192,0,0,1-2.718-8.6,14.192,14.192,0,0,1,2.718-8.6H126.1a13.7,13.7,0,0,0-2.646,8.6,13.7,13.7,0,0,0,2.646,8.6ZM139.421,18h2.7V4.968h-2.754V9.81c0,1.26.018,2.52.036,3.762l-.036.018c-.81-1.134-1.6-2.232-2.448-3.366l-3.906-5.256h-2.7V18h2.754V13.158c0-1.26-.018-2.52-.036-3.762l.036-.018c.81,1.134,1.6,2.232,2.448,3.366Zm5.04-7.506h8.856V8.532h-8.856Zm0,3.942h8.856V12.474h-8.856Zm10.314,3.528.018.036h9.27V15.5h-4.068l-.018-.036,1.566-2.07c1.35-1.8,2.052-3.15,2.052-4.608,0-2.448-2-4.014-4.572-4.014a5.609,5.609,0,0,0-3.312,1.044V8.5a5.218,5.218,0,0,1,3.042-1.17c1.152,0,1.944.612,1.944,1.71,0,.99-.648,1.944-1.944,3.672Zm16,.234a4.353,4.353,0,0,0,3.6-1.764,8.191,8.191,0,0,0,1.188-4.95,8.191,8.191,0,0,0-1.188-4.95,4.555,4.555,0,0,0-7.2,0,8.191,8.191,0,0,0-1.188,4.95,8.191,8.191,0,0,0,1.188,4.95A4.377,4.377,0,0,0,170.777,18.2Zm0-2.556a1.615,1.615,0,0,1-1.314-.7c-.432-.612-.612-1.656-.612-3.438a6.541,6.541,0,0,1,.612-3.474,1.57,1.57,0,0,1,1.314-.7,1.546,1.546,0,0,1,1.314.7,6.34,6.34,0,0,1,.612,3.438c0,1.836-.18,2.862-.612,3.474A1.589,1.589,0,0,1,170.777,15.642Zm6.138,6.192h2.538a13.7,13.7,0,0,0,2.646-8.6,13.7,13.7,0,0,0-2.646-8.6h-2.538a14.192,14.192,0,0,1,2.718,8.6A14.192,14.192,0,0,1,176.915,21.834ZM85.871,42h2.736V36.042a3.158,3.158,0,0,1,1.854-.738,1.173,1.173,0,0,1,.936.378,1.755,1.755,0,0,1,.306,1.242V42h2.736V36.474a3.561,3.561,0,0,0-.774-2.628,3.19,3.19,0,0,0-2.322-.9,4.337,4.337,0,0,0-2.736,1.026l-.036-.018v-.81h-2.7Zm20.7,3.834a14.192,14.192,0,0,1-2.718-8.6,14.192,14.192,0,0,1,2.718-8.6h-2.538a13.7,13.7,0,0,0-2.646,8.6,13.7,13.7,0,0,0,2.646,8.6Zm4.5-10.332a3.142,3.142,0,0,0,3.24-3.366,3.242,3.242,0,1,0-6.48,0A3.142,3.142,0,0,0,111.071,35.5Zm-.81,6.5H112.1l8.514-13.032h-1.836Zm.81-8.172a1.508,1.508,0,0,1-1.386-1.692,1.414,1.414,0,1,1,2.772,0A1.508,1.508,0,0,1,111.071,33.828Zm5.49,5a3.242,3.242,0,1,0,6.48,0,3.242,3.242,0,1,0-6.48,0Zm1.854,0a1.414,1.414,0,1,1,1.386,1.692A1.508,1.508,0,0,1,118.415,38.832Zm5.886,7h2.538a13.7,13.7,0,0,0,2.646-8.6,13.7,13.7,0,0,0-2.646-8.6H124.3a14.192,14.192,0,0,1,2.718,8.6A14.192,14.192,0,0,1,124.3,45.834Z" transform="translate(916.902 1110)" fill="#343434"/><path d="M73.673,16.992A5.57,5.57,0,0,0,77.255,18.2c2.52,0,4.356-1.494,4.356-3.762a2.93,2.93,0,0,0-2.358-3.078v-.036A2.925,2.925,0,0,0,81.341,8.37c0-2.16-1.746-3.6-4.122-3.6a5.5,5.5,0,0,0-2.772.72V7.236a4.775,4.775,0,0,1,2.682-.882,2.215,2.215,0,0,1,2.5,2.178c0,1.278-.918,2.178-2.556,2.178H75.9v1.512h1.224c1.854,0,2.772.9,2.772,2.178,0,1.386-1.116,2.214-2.664,2.214a5.105,5.105,0,0,1-3.564-1.584Zm10.278-2.646c0,2.214,1.728,3.852,4.374,3.852S92.7,16.56,92.7,14.346a3.25,3.25,0,0,0-2.25-3.222v-.036a2.809,2.809,0,0,0,1.89-2.754c0-2.034-1.6-3.564-4.014-3.564S84.311,6.3,84.311,8.334a2.809,2.809,0,0,0,1.89,2.754v.036A3.25,3.25,0,0,0,83.951,14.346Zm4.374-3.816a2.231,2.231,0,0,1-2.394-2.124,2.411,2.411,0,0,1,4.788,0A2.231,2.231,0,0,1,88.325,10.53Zm-2.682,3.78a2.7,2.7,0,0,1,5.364,0,2.7,2.7,0,0,1-5.364,0Zm14.148-1.08a14.122,14.122,0,0,0,2.592,8.6h1.6a14.189,14.189,0,0,1-2.7-8.6,14.189,14.189,0,0,1,2.7-8.6h-1.6A14.122,14.122,0,0,0,99.791,13.23Zm6.174,4.1a6.266,6.266,0,0,0,3.276.864c2.736,0,4.626-1.548,4.626-3.96,0-2.97-2.826-3.96-5.526-3.96l.27-3.762h4.77l.126-1.548h-6.48L106.5,11.88a9.936,9.936,0,0,1,1.458-.108c1.818,0,4.194.522,4.194,2.538,0,1.44-1.224,2.3-2.916,2.3a5.269,5.269,0,0,1-3.15-1.062Zm10.026-2.988c0,2.214,1.728,3.852,4.374,3.852s4.374-1.638,4.374-3.852a3.25,3.25,0,0,0-2.25-3.222v-.036a2.809,2.809,0,0,0,1.89-2.754c0-2.034-1.6-3.564-4.014-3.564s-4.014,1.53-4.014,3.564a2.809,2.809,0,0,0,1.89,2.754v.036A3.25,3.25,0,0,0,115.991,14.346Zm4.374-3.816a2.231,2.231,0,0,1-2.394-2.124,2.411,2.411,0,0,1,4.788,0A2.231,2.231,0,0,1,120.365,10.53Zm-2.682,3.78a2.7,2.7,0,0,1,5.364,0,2.7,2.7,0,0,1-5.364,0Zm9.09,7.524h1.6a14.122,14.122,0,0,0,2.592-8.6,14.122,14.122,0,0,0-2.592-8.6h-1.6a14.189,14.189,0,0,1,2.7,8.6A14.189,14.189,0,0,1,126.773,21.834Z" transform="translate(279.233 1207.796)" fill="#343434"/><path d="M84.725,16.992A5.57,5.57,0,0,0,88.307,18.2c2.52,0,4.356-1.494,4.356-3.762A2.93,2.93,0,0,0,90.3,11.358v-.036A2.925,2.925,0,0,0,92.393,8.37c0-2.16-1.746-3.6-4.122-3.6a5.5,5.5,0,0,0-2.772.72V7.236a4.775,4.775,0,0,1,2.682-.882,2.215,2.215,0,0,1,2.5,2.178c0,1.278-.918,2.178-2.556,2.178h-1.17v1.512h1.224c1.854,0,2.772.9,2.772,2.178,0,1.386-1.116,2.214-2.664,2.214a5.105,5.105,0,0,1-3.564-1.584ZM99.791,13.23a14.122,14.122,0,0,0,2.592,8.6h1.6a14.189,14.189,0,0,1-2.7-8.6,14.189,14.189,0,0,1,2.7-8.6h-1.6A14.122,14.122,0,0,0,99.791,13.23Zm6.174,4.1a6.266,6.266,0,0,0,3.276.864c2.736,0,4.626-1.548,4.626-3.96,0-2.97-2.826-3.96-5.526-3.96l.27-3.762h4.77l.126-1.548h-6.48L106.5,11.88a9.936,9.936,0,0,1,1.458-.108c1.818,0,4.194.522,4.194,2.538,0,1.44-1.224,2.3-2.916,2.3a5.269,5.269,0,0,1-3.15-1.062Zm9.756,4.5h1.6a14.122,14.122,0,0,0,2.592-8.6,14.122,14.122,0,0,0-2.592-8.6h-1.6a14.189,14.189,0,0,1,2.7,8.6A14.189,14.189,0,0,1,115.721,21.834Z" transform="translate(279.233 1284.667)" fill="#343434"/><path d="M78.2,18h1.71V4.77l-4.7,1.818V8.226L78.2,7.074Zm5.4-.036.018.036h8.64V16.452h-5.22l-.018-.036L89.288,13.7c1.53-1.836,2.5-3.33,2.5-5.112,0-2.5-1.89-3.816-4.194-3.816A5.685,5.685,0,0,0,84.59,5.6V7.326a5.09,5.09,0,0,1,2.916-.972A2.276,2.276,0,0,1,90.08,8.676c0,1.224-.7,2.358-2.178,4.122ZM99.314,13.23a14.122,14.122,0,0,0,2.592,8.6h1.6a14.189,14.189,0,0,1-2.7-8.6,14.189,14.189,0,0,1,2.7-8.6h-1.6A14.122,14.122,0,0,0,99.314,13.23Zm9.54,4.77h1.71V4.77l-4.7,1.818V8.226l2.988-1.152Zm6.03-3.654c0,2.214,1.728,3.852,4.374,3.852s4.374-1.638,4.374-3.852a3.25,3.25,0,0,0-2.25-3.222v-.036a2.809,2.809,0,0,0,1.89-2.754c0-2.034-1.6-3.564-4.014-3.564s-4.014,1.53-4.014,3.564a2.809,2.809,0,0,0,1.89,2.754v.036A3.25,3.25,0,0,0,114.884,14.346Zm4.374-3.816a2.231,2.231,0,0,1-2.394-2.124,2.411,2.411,0,0,1,4.788,0A2.231,2.231,0,0,1,119.258,10.53Zm-2.682,3.78a2.7,2.7,0,0,1,5.364,0,2.7,2.7,0,0,1-5.364,0Zm9.09,7.524h1.6a14.122,14.122,0,0,0,2.592-8.6,14.122,14.122,0,0,0-2.592-8.6h-1.6a14.189,14.189,0,0,1,2.7,8.6A14.189,14.189,0,0,1,125.666,21.834Z" transform="translate(279.233 1360.54)" fill="#343434"/><path d="M81.548,18H83.33L88.766,5l-.018-.036h-8.5V6.516h6.1Zm13.914-4.77a14.122,14.122,0,0,0,2.592,8.6h1.6a14.189,14.189,0,0,1-2.7-8.6,14.189,14.189,0,0,1,2.7-8.6h-1.6A14.122,14.122,0,0,0,95.462,13.23ZM105,18h1.71V4.77l-4.7,1.818V8.226L105,7.074Zm9.342,0h1.71V4.77l-4.7,1.818V8.226l2.988-1.152Zm5.76,3.834h1.6a14.122,14.122,0,0,0,2.592-8.6,14.122,14.122,0,0,0-2.592-8.6h-1.6a14.189,14.189,0,0,1,2.7,8.6A14.189,14.189,0,0,1,120.1,21.834Z" transform="translate(279.233 1435.414)" fill="#343434"/><path d="M85.957,4.968l-2.916,4.7c-1.17,1.89-1.584,3.006-1.584,4.23a4.435,4.435,0,0,0,8.856.18,3.867,3.867,0,0,0-3.96-3.942,3.359,3.359,0,0,0-1.98.576l-.036-.018c.126-.234.306-.522.486-.792l3.1-4.932Zm-2.772,9.09a2.591,2.591,0,0,1,2.754-2.484,2.552,2.552,0,0,1,2.682,2.556A2.581,2.581,0,0,1,85.9,16.686,2.662,2.662,0,0,1,83.185,14.058Zm14.166-.828a14.122,14.122,0,0,0,2.592,8.6h1.6a14.189,14.189,0,0,1-2.7-8.6,14.189,14.189,0,0,1,2.7-8.6h-1.6A14.122,14.122,0,0,0,97.351,13.23Zm13.77-8.262h-1.566l-6.714,9.846.018.036h6.57V18h1.692V14.85h2.34V13.338h-2.34Zm-3.312,5.058c.54-.792,1.116-1.638,1.62-2.448l.036.018c-.018.792-.036,1.764-.036,2.664v3.078H105.6l-.018-.036Zm11.808-5.058-2.916,4.7c-1.17,1.89-1.584,3.006-1.584,4.23a4.435,4.435,0,0,0,8.856.18,3.867,3.867,0,0,0-3.96-3.942,3.359,3.359,0,0,0-1.98.576L118,10.692c.126-.234.306-.522.486-.792l3.1-4.932Zm-2.772,9.09a2.591,2.591,0,0,1,2.754-2.484,2.552,2.552,0,0,1,2.682,2.556,2.581,2.581,0,0,1-2.718,2.556A2.662,2.662,0,0,1,116.845,14.058Zm9.108,7.776h1.6a14.122,14.122,0,0,0,2.592-8.6,14.122,14.122,0,0,0-2.592-8.6h-1.6a14.189,14.189,0,0,1,2.7,8.6A14.189,14.189,0,0,1,125.953,21.834Z" transform="translate(488.11 1207.796)" fill="#343434"/><path d="M91.6,18.2a3.867,3.867,0,0,0,3.2-1.584,8.785,8.785,0,0,0,1.242-5.13A8.785,8.785,0,0,0,94.8,6.354a4.032,4.032,0,0,0-6.408,0,8.785,8.785,0,0,0-1.242,5.13,8.785,8.785,0,0,0,1.242,5.13A3.867,3.867,0,0,0,91.6,18.2Zm0-1.584a2.226,2.226,0,0,1-1.8-.882,7.409,7.409,0,0,1-.936-4.248A7.409,7.409,0,0,1,89.8,7.236a2.278,2.278,0,0,1,3.6,0,7.409,7.409,0,0,1,.936,4.248,7.409,7.409,0,0,1-.936,4.248A2.226,2.226,0,0,1,91.6,16.614Zm11.592-3.384a14.122,14.122,0,0,0,2.592,8.6h1.6a14.189,14.189,0,0,1-2.7-8.6,14.189,14.189,0,0,1,2.7-8.6h-1.6A14.122,14.122,0,0,0,103.192,13.23ZM113.92,18.2a3.867,3.867,0,0,0,3.2-1.584,8.785,8.785,0,0,0,1.242-5.13,8.785,8.785,0,0,0-1.242-5.13,4.032,4.032,0,0,0-6.408,0,8.785,8.785,0,0,0-1.242,5.13,8.785,8.785,0,0,0,1.242,5.13A3.867,3.867,0,0,0,113.92,18.2Zm0-1.584a2.226,2.226,0,0,1-1.8-.882,7.409,7.409,0,0,1-.936-4.248,7.409,7.409,0,0,1,.936-4.248,2.278,2.278,0,0,1,3.6,0,7.409,7.409,0,0,1,.936,4.248,7.409,7.409,0,0,1-.936,4.248A2.226,2.226,0,0,1,113.92,16.614Zm6.534,5.22h1.6a14.122,14.122,0,0,0,2.592-8.6,14.122,14.122,0,0,0-2.592-8.6h-1.6a14.189,14.189,0,0,1,2.7,8.6A14.189,14.189,0,0,1,120.454,21.834Z" transform="translate(488.11 1284.667)" fill="#343434"/><path d="M82.969,17.964l.018.036h8.64V16.452h-5.22l-.018-.036L88.657,13.7c1.53-1.836,2.5-3.33,2.5-5.112,0-2.5-1.89-3.816-4.194-3.816a5.685,5.685,0,0,0-3.006.828V7.326a5.09,5.09,0,0,1,2.916-.972,2.276,2.276,0,0,1,2.574,2.322c0,1.224-.7,2.358-2.178,4.122ZM98.683,13.23a14.122,14.122,0,0,0,2.592,8.6h1.6a14.189,14.189,0,0,1-2.7-8.6,14.189,14.189,0,0,1,2.7-8.6h-1.6A14.122,14.122,0,0,0,98.683,13.23Zm9.54,4.77h1.71V4.77l-4.7,1.818V8.226l2.988-1.152Zm5.976-.666a6.266,6.266,0,0,0,3.276.864c2.736,0,4.626-1.548,4.626-3.96,0-2.97-2.826-3.96-5.526-3.96l.27-3.762h4.77l.126-1.548h-6.48l-.522,6.912a9.936,9.936,0,0,1,1.458-.108c1.818,0,4.194.522,4.194,2.538,0,1.44-1.224,2.3-2.916,2.3a5.269,5.269,0,0,1-3.15-1.062Zm9.756,4.5h1.6a14.122,14.122,0,0,0,2.592-8.6,14.122,14.122,0,0,0-2.592-8.6h-1.6a14.189,14.189,0,0,1,2.7,8.6A14.189,14.189,0,0,1,123.955,21.834Z" transform="translate(488.11 1360.54)" fill="#343434"/><path d="M82.978,16.992A5.57,5.57,0,0,0,86.56,18.2c2.52,0,4.356-1.494,4.356-3.762a2.93,2.93,0,0,0-2.358-3.078v-.036A2.925,2.925,0,0,0,90.646,8.37c0-2.16-1.746-3.6-4.122-3.6a5.5,5.5,0,0,0-2.772.72V7.236a4.775,4.775,0,0,1,2.682-.882,2.215,2.215,0,0,1,2.5,2.178c0,1.278-.918,2.178-2.556,2.178H85.21v1.512h1.224c1.854,0,2.772.9,2.772,2.178,0,1.386-1.116,2.214-2.664,2.214a5.105,5.105,0,0,1-3.564-1.584ZM98.044,13.23a14.122,14.122,0,0,0,2.592,8.6h1.6a14.189,14.189,0,0,1-2.7-8.6,14.189,14.189,0,0,1,2.7-8.6h-1.6A14.122,14.122,0,0,0,98.044,13.23Zm5.6,4.734.018.036h8.64V16.452h-5.22l-.018-.036L109.33,13.7c1.53-1.836,2.5-3.33,2.5-5.112,0-2.5-1.89-3.816-4.194-3.816a5.685,5.685,0,0,0-3.006.828V7.326a5.09,5.09,0,0,1,2.916-.972,2.276,2.276,0,0,1,2.574,2.322c0,1.224-.7,2.358-2.178,4.122Zm10.818-.972a5.57,5.57,0,0,0,3.582,1.206c2.52,0,4.356-1.494,4.356-3.762a2.93,2.93,0,0,0-2.358-3.078v-.036a2.925,2.925,0,0,0,2.088-2.952c0-2.16-1.746-3.6-4.122-3.6a5.5,5.5,0,0,0-2.772.72V7.236a4.775,4.775,0,0,1,2.682-.882,2.215,2.215,0,0,1,2.5,2.178c0,1.278-.918,2.178-2.556,2.178h-1.17v1.512h1.224c1.854,0,2.772.9,2.772,2.178,0,1.386-1.116,2.214-2.664,2.214a5.105,5.105,0,0,1-3.564-1.584Zm10.008,4.842h1.6a14.122,14.122,0,0,0,2.592-8.6,14.122,14.122,0,0,0-2.592-8.6h-1.6a14.189,14.189,0,0,1,2.7,8.6A14.189,14.189,0,0,1,124.468,21.834Z" transform="translate(488.11 1435.414)" fill="#343434"/><path d="M84.8,4.968H83.231l-6.714,9.846.018.036h6.57V18H84.8V14.85h2.34V13.338H84.8Zm-3.312,5.058c.54-.792,1.116-1.638,1.62-2.448l.036.018c-.018.792-.036,1.764-.036,2.664v3.078H79.271l-.018-.036ZM96.479,4.968H94.913L88.2,14.814l.018.036h6.57V18h1.692V14.85h2.34V13.338h-2.34Zm-3.312,5.058c.54-.792,1.116-1.638,1.62-2.448l.036.018c-.018.792-.036,1.764-.036,2.664v3.078H90.953l-.018-.036Zm12.24,3.2a14.122,14.122,0,0,0,2.592,8.6h1.6a14.189,14.189,0,0,1-2.7-8.6,14.189,14.189,0,0,1,2.7-8.6H108A14.122,14.122,0,0,0,105.407,13.23Zm6.174,4.1a6.266,6.266,0,0,0,3.276.864c2.736,0,4.626-1.548,4.626-3.96,0-2.97-2.826-3.96-5.526-3.96l.27-3.762H119l.126-1.548h-6.48l-.522,6.912a9.936,9.936,0,0,1,1.458-.108c1.818,0,4.194.522,4.194,2.538,0,1.44-1.224,2.3-2.916,2.3a5.269,5.269,0,0,1-3.15-1.062ZM125.963,4.968l-2.916,4.7c-1.17,1.89-1.584,3.006-1.584,4.23a4.435,4.435,0,0,0,8.856.18,3.867,3.867,0,0,0-3.96-3.942,3.359,3.359,0,0,0-1.98.576l-.036-.018c.126-.234.306-.522.486-.792l3.1-4.932Zm-2.772,9.09a2.591,2.591,0,0,1,2.754-2.484,2.552,2.552,0,0,1,2.682,2.556,2.581,2.581,0,0,1-2.718,2.556A2.662,2.662,0,0,1,123.191,14.058Zm9.108,7.776h1.6a14.122,14.122,0,0,0,2.592-8.6,14.122,14.122,0,0,0-2.592-8.6h-1.6a14.189,14.189,0,0,1,2.7,8.6A14.189,14.189,0,0,1,132.3,21.834Z" transform="translate(701.017 1207.796)" fill="#343434"/><path d="M88.37,16.992A5.57,5.57,0,0,0,91.952,18.2c2.52,0,4.356-1.494,4.356-3.762a2.93,2.93,0,0,0-2.358-3.078v-.036A2.925,2.925,0,0,0,96.038,8.37c0-2.16-1.746-3.6-4.122-3.6a5.5,5.5,0,0,0-2.772.72V7.236a4.775,4.775,0,0,1,2.682-.882,2.215,2.215,0,0,1,2.5,2.178c0,1.278-.918,2.178-2.556,2.178H90.6v1.512h1.224c1.854,0,2.772.9,2.772,2.178,0,1.386-1.116,2.214-2.664,2.214A5.105,5.105,0,0,1,88.37,15.03Zm15.066-3.762a14.122,14.122,0,0,0,2.592,8.6h1.6a14.189,14.189,0,0,1-2.7-8.6,14.189,14.189,0,0,1,2.7-8.6h-1.6A14.122,14.122,0,0,0,103.436,13.23Zm13.77-8.262H115.64l-6.714,9.846.018.036h6.57V18h1.692V14.85h2.34V13.338h-2.34Zm-3.312,5.058c.54-.792,1.116-1.638,1.62-2.448l.036.018c-.018.792-.036,1.764-.036,2.664v3.078H111.68l-.018-.036Zm7.182,11.808h1.6a14.122,14.122,0,0,0,2.592-8.6,14.122,14.122,0,0,0-2.592-8.6h-1.6a14.189,14.189,0,0,1,2.7,8.6A14.189,14.189,0,0,1,121.076,21.834Z" transform="translate(701.019 1284.667)" fill="#343434"/><path d="M82.007,18h1.71V4.77l-4.7,1.818V8.226l2.988-1.152ZM95.579,4.968H94.013L87.3,14.814l.018.036h6.57V18h1.692V14.85h2.34V13.338h-2.34Zm-3.312,5.058c.54-.792,1.116-1.638,1.62-2.448l.036.018c-.018.792-.036,1.764-.036,2.664v3.078H90.053l-.018-.036Zm12.24,3.2a14.122,14.122,0,0,0,2.592,8.6h1.6a14.189,14.189,0,0,1-2.7-8.6,14.189,14.189,0,0,1,2.7-8.6h-1.6A14.122,14.122,0,0,0,104.507,13.23Zm9.54,4.77h1.71V4.77l-4.7,1.818V8.226l2.988-1.152Zm6.03-3.654c0,2.214,1.728,3.852,4.374,3.852s4.374-1.638,4.374-3.852a3.25,3.25,0,0,0-2.25-3.222v-.036a2.809,2.809,0,0,0,1.89-2.754c0-2.034-1.6-3.564-4.014-3.564s-4.014,1.53-4.014,3.564a2.809,2.809,0,0,0,1.89,2.754v.036A3.25,3.25,0,0,0,120.077,14.346Zm4.374-3.816a2.231,2.231,0,0,1-2.394-2.124,2.411,2.411,0,0,1,4.788,0A2.231,2.231,0,0,1,124.451,10.53Zm-2.682,3.78a2.7,2.7,0,0,1,5.364,0,2.7,2.7,0,0,1-5.364,0Zm9.09,7.524h1.6a14.122,14.122,0,0,0,2.592-8.6,14.122,14.122,0,0,0-2.592-8.6h-1.6a14.189,14.189,0,0,1,2.7,8.6A14.189,14.189,0,0,1,130.859,21.834Z" transform="translate(701.017 1360.54)" fill="#343434"/><path d="M82.637,18h1.71V4.77l-4.7,1.818V8.226l2.988-1.152Zm10.53.2a3.867,3.867,0,0,0,3.2-1.584,8.785,8.785,0,0,0,1.242-5.13,8.785,8.785,0,0,0-1.242-5.13,4.032,4.032,0,0,0-6.408,0,8.785,8.785,0,0,0-1.242,5.13,8.785,8.785,0,0,0,1.242,5.13A3.867,3.867,0,0,0,93.167,18.2Zm0-1.584a2.226,2.226,0,0,1-1.8-.882,7.409,7.409,0,0,1-.936-4.248,7.409,7.409,0,0,1,.936-4.248,2.278,2.278,0,0,1,3.6,0,7.409,7.409,0,0,1,.936,4.248,7.409,7.409,0,0,1-.936,4.248A2.226,2.226,0,0,1,93.167,16.614Zm11.592-3.384a14.122,14.122,0,0,0,2.592,8.6h1.6a14.189,14.189,0,0,1-2.7-8.6,14.189,14.189,0,0,1,2.7-8.6h-1.6A14.122,14.122,0,0,0,104.759,13.23ZM114.3,18h1.71V4.77l-4.7,1.818V8.226L114.3,7.074Zm5.922-1.008A5.57,5.57,0,0,0,123.8,18.2c2.52,0,4.356-1.494,4.356-3.762a2.93,2.93,0,0,0-2.358-3.078v-.036a2.925,2.925,0,0,0,2.088-2.952c0-2.16-1.746-3.6-4.122-3.6a5.5,5.5,0,0,0-2.772.72V7.236a4.775,4.775,0,0,1,2.682-.882,2.215,2.215,0,0,1,2.5,2.178c0,1.278-.918,2.178-2.556,2.178h-1.17v1.512h1.224c1.854,0,2.772.9,2.772,2.178,0,1.386-1.116,2.214-2.664,2.214a5.105,5.105,0,0,1-3.564-1.584Zm10.008,4.842h1.6a14.122,14.122,0,0,0,2.592-8.6,14.122,14.122,0,0,0-2.592-8.6h-1.6a14.189,14.189,0,0,1,2.7,8.6A14.189,14.189,0,0,1,130.229,21.834Z" transform="translate(701.017 1435.414)" fill="#343434"/><path d="M80,18h1.71V4.77l-4.7,1.818V8.226L80,7.074Zm6.03-3.654c0,2.214,1.728,3.852,4.374,3.852s4.374-1.638,4.374-3.852a3.25,3.25,0,0,0-2.25-3.222v-.036a2.809,2.809,0,0,0,1.89-2.754c0-2.034-1.6-3.564-4.014-3.564S86.393,6.3,86.393,8.334a2.809,2.809,0,0,0,1.89,2.754v.036A3.25,3.25,0,0,0,86.033,14.346Zm4.374-3.816a2.231,2.231,0,0,1-2.394-2.124,2.411,2.411,0,0,1,4.788,0A2.231,2.231,0,0,1,90.407,10.53Zm-2.682,3.78a2.7,2.7,0,0,1,5.364,0,2.7,2.7,0,0,1-5.364,0Zm14.148-1.08a14.122,14.122,0,0,0,2.592,8.6h1.6a14.189,14.189,0,0,1-2.7-8.6,14.189,14.189,0,0,1,2.7-8.6h-1.6A14.122,14.122,0,0,0,101.873,13.23ZM112.061,18l3.042-4.86a7.737,7.737,0,0,0,1.566-4.176,4.1,4.1,0,0,0-4.356-4.194,4.19,4.19,0,0,0-4.464,4.14,3.879,3.879,0,0,0,3.942,3.924,3.5,3.5,0,0,0,1.764-.432l.036.036L110.1,18Zm.18-6.624a2.53,2.53,0,0,1-2.7-2.52A2.591,2.591,0,0,1,112.259,6.3a2.621,2.621,0,0,1,2.682,2.574A2.537,2.537,0,0,1,112.241,11.376ZM123.329,18.2a3.867,3.867,0,0,0,3.2-1.584,8.785,8.785,0,0,0,1.242-5.13,8.785,8.785,0,0,0-1.242-5.13,4.032,4.032,0,0,0-6.408,0,8.785,8.785,0,0,0-1.242,5.13,8.785,8.785,0,0,0,1.242,5.13A3.867,3.867,0,0,0,123.329,18.2Zm0-1.584a2.226,2.226,0,0,1-1.8-.882,7.409,7.409,0,0,1-.936-4.248,7.409,7.409,0,0,1,.936-4.248,2.278,2.278,0,0,1,3.6,0,7.409,7.409,0,0,1,.936,4.248,7.409,7.409,0,0,1-.936,4.248A2.226,2.226,0,0,1,123.329,16.614Zm6.534,5.22h1.6a14.122,14.122,0,0,0,2.592-8.6,14.122,14.122,0,0,0-2.592-8.6h-1.6a14.189,14.189,0,0,1,2.7,8.6A14.189,14.189,0,0,1,129.863,21.834Z" transform="translate(916.902 1207.796)" fill="#343434"/><path d="M81.9,18h1.71V4.77l-4.7,1.818V8.226L81.9,7.074Zm9.342,0h1.71V4.77l-4.7,1.818V8.226l2.988-1.152Zm10.818-4.77a14.122,14.122,0,0,0,2.592,8.6h1.6a14.189,14.189,0,0,1-2.7-8.6,14.189,14.189,0,0,1,2.7-8.6h-1.6A14.122,14.122,0,0,0,102.062,13.23Zm6.174,4.1a6.266,6.266,0,0,0,3.276.864c2.736,0,4.626-1.548,4.626-3.96,0-2.97-2.826-3.96-5.526-3.96l.27-3.762h4.77l.126-1.548H109.3l-.522,6.912a9.936,9.936,0,0,1,1.458-.108c1.818,0,4.194.522,4.194,2.538,0,1.44-1.224,2.3-2.916,2.3a5.269,5.269,0,0,1-3.15-1.062Zm9.972,0a6.266,6.266,0,0,0,3.276.864c2.736,0,4.626-1.548,4.626-3.96,0-2.97-2.826-3.96-5.526-3.96l.27-3.762h4.77l.126-1.548h-6.48l-.522,6.912a9.936,9.936,0,0,1,1.458-.108c1.818,0,4.194.522,4.194,2.538,0,1.44-1.224,2.3-2.916,2.3a5.269,5.269,0,0,1-3.15-1.062Zm9.756,4.5h1.6a14.122,14.122,0,0,0,2.592-8.6,14.122,14.122,0,0,0-2.592-8.6h-1.6a14.189,14.189,0,0,1,2.7,8.6A14.189,14.189,0,0,1,127.964,21.834Z" transform="translate(916.902 1284.667)" fill="#343434"/><path d="M80.039,18h1.71V4.77l-4.7,1.818V8.226l2.988-1.152ZM93.611,4.968H92.045l-6.714,9.846.018.036h6.57V18h1.692V14.85h2.34V13.338h-2.34ZM90.3,10.026c.54-.792,1.116-1.638,1.62-2.448l.036.018c-.018.792-.036,1.764-.036,2.664v3.078H88.085l-.018-.036Zm12.24,3.2a14.122,14.122,0,0,0,2.592,8.6h1.6a14.189,14.189,0,0,1-2.7-8.6,14.189,14.189,0,0,1,2.7-8.6h-1.6A14.122,14.122,0,0,0,102.539,13.23ZM109.865,18h1.782l5.436-13-.018-.036h-8.5V6.516h6.1Zm13.428.2a3.867,3.867,0,0,0,3.2-1.584,8.785,8.785,0,0,0,1.242-5.13,8.785,8.785,0,0,0-1.242-5.13,4.032,4.032,0,0,0-6.408,0,8.785,8.785,0,0,0-1.242,5.13,8.785,8.785,0,0,0,1.242,5.13A3.867,3.867,0,0,0,123.293,18.2Zm0-1.584a2.226,2.226,0,0,1-1.8-.882,7.409,7.409,0,0,1-.936-4.248,7.409,7.409,0,0,1,.936-4.248,2.278,2.278,0,0,1,3.6,0,7.409,7.409,0,0,1,.936,4.248,7.409,7.409,0,0,1-.936,4.248A2.226,2.226,0,0,1,123.293,16.614Zm6.534,5.22h1.6a14.122,14.122,0,0,0,2.592-8.6,14.122,14.122,0,0,0-2.592-8.6h-1.6a14.189,14.189,0,0,1,2.7,8.6A14.189,14.189,0,0,1,129.827,21.834Z" transform="translate(916.902 1360.54)" fill="#343434"/><path d="M81.8,17.964l.018.036h8.64V16.452h-5.22l-.018-.036L87.491,13.7c1.53-1.836,2.5-3.33,2.5-5.112,0-2.5-1.89-3.816-4.194-3.816a5.685,5.685,0,0,0-3.006.828V7.326a5.09,5.09,0,0,1,2.916-.972,2.276,2.276,0,0,1,2.574,2.322c0,1.224-.7,2.358-2.178,4.122ZM97.517,13.23a14.122,14.122,0,0,0,2.592,8.6h1.6a14.189,14.189,0,0,1-2.7-8.6,14.189,14.189,0,0,1,2.7-8.6h-1.6A14.122,14.122,0,0,0,97.517,13.23Zm9.54,4.77h1.71V4.77l-4.7,1.818V8.226l2.988-1.152Zm10.53.2a3.867,3.867,0,0,0,3.2-1.584,8.785,8.785,0,0,0,1.242-5.13,8.785,8.785,0,0,0-1.242-5.13,4.032,4.032,0,0,0-6.408,0,8.785,8.785,0,0,0-1.242,5.13,8.785,8.785,0,0,0,1.242,5.13A3.867,3.867,0,0,0,117.587,18.2Zm0-1.584a2.226,2.226,0,0,1-1.8-.882,7.409,7.409,0,0,1-.936-4.248,7.409,7.409,0,0,1,.936-4.248,2.278,2.278,0,0,1,3.6,0,7.409,7.409,0,0,1,.936,4.248,7.409,7.409,0,0,1-.936,4.248A2.226,2.226,0,0,1,117.587,16.614Zm6.534,5.22h1.6a14.122,14.122,0,0,0,2.592-8.6,14.122,14.122,0,0,0-2.592-8.6h-1.6a14.189,14.189,0,0,1,2.7,8.6A14.189,14.189,0,0,1,124.121,21.834Z" transform="translate(916.902 1435.414)" fill="#343434"/></g></g></svg>