<svg xmlns="http://www.w3.org/2000/svg" width="1160" height="542"><path fill="#005d55" d="M0 0h303v66H0z"/><path fill="none" d="M380 1v541H123V1Z"/><g fill="#69be28"><path d="M0 239h303v74H0zM305 239h213v74H305zM519 239h213v74H519zM734 239h212v74H734zM948 239h212v74H948z" opacity=".321"/></g><g fill="#69be28"><path d="M0 390h303v74H0zM305 390h213v74H305zM519 390h213v74H519zM734 390h212v74H734zM948 390h212v74H948z" opacity=".321"/></g><g fill="#69be28"><path d="M0 68h303v94H0zM305 68h213v94H305zM519 68h213v94H519zM734 68h212v94H734zM948 68h212v94H948z" opacity=".321"/></g><g fill="#dfeed5"><path d="M0 164h303v74H0zM305 164h213v74H305zM519 164h213v74H519zM734 164h212v74H734zM948 164h212v74H948z" opacity=".321"/></g><g fill="#dfeed5"><path d="M0 315h303v74H0zM305 315h213v74H305zM519 315h213v74H519zM734 315h212v74H734zM948 315h212v74H948z" opacity=".321"/></g><path fill="#005d55" d="M305 0h641v66H305zM948 0h212v66H948z"/><path fill="none" d="M863 1v541H383V1Z"/><path fill="#fff" d="M485 40.252h3.176v-5.1h1a9.145 9.145 0 0 0 4.674-.886 4.132 4.132 0 0 0 2.077-3.72 4.115 4.115 0 0 0-2.337-3.8 9.368 9.368 0 0 0-4.3-.746H485Zm3.176-7.636v-3.877h1.079a6.435 6.435 0 0 1 2.477.3 1.7 1.7 0 0 1 1.019 1.673 1.67 1.67 0 0 1-.9 1.555 5.349 5.349 0 0 1-2.517.354Zm18.575 3.584a7.859 7.859 0 0 0 .06-1.023 4.513 4.513 0 0 0-4.694-4.822 5.032 5.032 0 0 0-5.153 5.1c0 3.031 2.337 5.018 5.572 5.018a7.635 7.635 0 0 0 3.735-.886v-2.5a6.177 6.177 0 0 1-3.336 1.063 2.659 2.659 0 0 1-2.855-1.95Zm-6.691-1.889a2.023 2.023 0 0 1 2.017-1.673 1.91 1.91 0 0 1 1.937 1.673Zm8.928 5.943h3.036v-5.867a3.286 3.286 0 0 1 2.656-1.141 3.586 3.586 0 0 1 .819.1V30.53a2.47 2.47 0 0 0-.639-.079 3.34 3.34 0 0 0-2.856 1.437l-.04-.02v-1.3h-2.974Zm7.969-12.754a1.758 1.758 0 1 0 1.758-1.712 1.744 1.744 0 0 0-1.758 1.712Zm.24 12.753h3.036v-9.684h-3.036Zm5.752 0h3.036v-6.515a3.533 3.533 0 0 1 2.057-.807 1.311 1.311 0 0 1 1.039.413 1.9 1.9 0 0 1 .34 1.358v5.55h3.036V34.21a3.856 3.856 0 0 0-.859-2.873 3.568 3.568 0 0 0-2.577-.984 4.853 4.853 0 0 0-3.036 1.122l-.04-.02v-.886h-3Zm17.756-.59a2.9 2.9 0 0 0 2.117.768 3.344 3.344 0 0 0 1.458-.3v-2.24a1.159 1.159 0 0 1-.5.118c-.419 0-.6-.315-.6-.768v-3.287a3.18 3.18 0 0 0-1.1-2.677 5.244 5.244 0 0 0-3.276-.925 7.91 7.91 0 0 0-3.435.748v2.578a6.207 6.207 0 0 1 2.876-.768 2.283 2.283 0 0 1 1.518.413 1.354 1.354 0 0 1 .38 1.023v.374a8.009 8.009 0 0 0-1.7-.177 4.909 4.909 0 0 0-2.756.689 2.748 2.748 0 0 0-1.2 2.342 2.628 2.628 0 0 0 1.158 2.263 4.04 4.04 0 0 0 2.277.63 4.834 4.834 0 0 0 2.736-.807Zm-.559-1.791a2.758 2.758 0 0 1-1.378.394c-.7 0-1.258-.335-1.258-.964 0-.748.779-.984 1.558-.984a4.055 4.055 0 0 1 1.079.138Zm12.283-.315a3.558 3.558 0 0 1-1.458.394c-.919 0-1.138-.708-1.138-1.653v-3.249h2.6v-2.48h-2.6v-3.03l-3.036.512v2.519h-1.6v2.48h1.6v3.562a3.907 3.907 0 0 0 .858 2.888 3.491 3.491 0 0 0 2.557.964 4.58 4.58 0 0 0 2.217-.531Zm7.59 2.106a2.9 2.9 0 0 0 2.117.768 3.344 3.344 0 0 0 1.458-.3v-2.24a1.159 1.159 0 0 1-.5.118c-.419 0-.6-.315-.6-.768v-3.287a3.18 3.18 0 0 0-1.1-2.677 5.244 5.244 0 0 0-3.276-.925 7.91 7.91 0 0 0-3.435.748v2.578a6.207 6.207 0 0 1 2.876-.768 2.283 2.283 0 0 1 1.518.413 1.354 1.354 0 0 1 .38 1.023v.374a8.009 8.009 0 0 0-1.7-.177 4.909 4.909 0 0 0-2.756.689 2.748 2.748 0 0 0-1.2 2.342 2.628 2.628 0 0 0 1.158 2.263 4.04 4.04 0 0 0 2.277.63 4.834 4.834 0 0 0 2.736-.807Zm-.559-1.791a2.758 2.758 0 0 1-1.378.394c-.7 0-1.258-.335-1.258-.964 0-.748.779-.984 1.558-.984a4.055 4.055 0 0 1 1.079.138Zm5.912 2.381h3.036V25.216h-3.036Zm4.614.748h2.317l6.751-15.744h-2.317Zm10.706-.748h3.176V26h-3.178Zm5.952 0h3.036v-6.515a3.533 3.533 0 0 1 2.057-.807 1.311 1.311 0 0 1 1.039.413 1.9 1.9 0 0 1 .34 1.358v5.55h3.036V34.21a3.856 3.856 0 0 0-.859-2.873 3.568 3.568 0 0 0-2.577-.984 4.854 4.854 0 0 0-3.036 1.122l-.04-.02v-.886h-3Zm12.723 0h3.036v-7.2h2.277v-2.48h-2.277v-1.637c0-.827.2-1.417 1.138-1.417a6.407 6.407 0 0 1 1.318.177v-2.42A4.917 4.917 0 0 0 603.18 25a4.067 4.067 0 0 0-2.776.905 4.3 4.3 0 0 0-1.039 3.228v1.437h-1.4v2.48h1.4Zm12.223-.59a2.9 2.9 0 0 0 2.117.768 3.344 3.344 0 0 0 1.458-.3v-2.24a1.159 1.159 0 0 1-.5.118c-.419 0-.6-.315-.6-.768v-3.287a3.18 3.18 0 0 0-1.1-2.677 5.243 5.243 0 0 0-3.276-.925 7.91 7.91 0 0 0-3.435.748v2.578a6.207 6.207 0 0 1 2.876-.768 2.283 2.283 0 0 1 1.518.413 1.354 1.354 0 0 1 .379 1.023v.374a8.009 8.009 0 0 0-1.7-.177 4.909 4.909 0 0 0-2.756.689 2.748 2.748 0 0 0-1.2 2.342 2.628 2.628 0 0 0 1.158 2.263 4.04 4.04 0 0 0 2.277.63 4.834 4.834 0 0 0 2.736-.807Zm-.559-1.791a2.758 2.758 0 0 1-1.378.394c-.7 0-1.258-.335-1.258-.964 0-.748.779-.984 1.558-.984a4.055 4.055 0 0 1 1.079.138Zm5.912 2.381h3.036v-6.515a3.533 3.533 0 0 1 2.057-.807 1.311 1.311 0 0 1 1.039.413 1.9 1.9 0 0 1 .34 1.358v5.55h3.036V34.21a3.856 3.856 0 0 0-.859-2.873 3.568 3.568 0 0 0-2.577-.984 4.854 4.854 0 0 0-3.036 1.122l-.04-.02v-.886h-3Zm18.555-2.7a3.558 3.558 0 0 1-1.458.394c-.919 0-1.138-.708-1.138-1.653v-3.245h2.6v-2.48h-2.6v-3.03l-3.036.512v2.519h-1.6v2.48h1.6v3.562a3.907 3.907 0 0 0 .857 2.888 3.491 3.491 0 0 0 2.557.964 4.58 4.58 0 0 0 2.217-.531Zm1.776-10.053a1.758 1.758 0 1 0 1.758-1.712 1.744 1.744 0 0 0-1.758 1.712Zm.24 12.753h3.036v-9.684h-3.036Zm5.752 0h3.036V25.216h-3.036ZM658.19 36.2a7.853 7.853 0 0 0 .06-1.023 4.513 4.513 0 0 0-4.694-4.822 5.032 5.032 0 0 0-5.153 5.1c0 3.031 2.337 5.018 5.572 5.018a7.635 7.635 0 0 0 3.735-.886v-2.5a6.177 6.177 0 0 1-3.335 1.063 2.659 2.659 0 0 1-2.856-1.948Zm-6.7-1.891a2.023 2.023 0 0 1 2.017-1.673 1.91 1.91 0 0 1 1.937 1.673Zm8.588 1.712h4.933v-2.44h-4.933Zm9.727-.61a2.437 2.437 0 1 1 2.437 2.48 2.433 2.433 0 0 1-2.432-2.48Zm-3.036 0a5.49 5.49 0 0 0 10.945 0 5.49 5.49 0 0 0-10.945 0Zm13.042 4.841h3.036v-6.514a3.533 3.533 0 0 1 2.057-.807 1.311 1.311 0 0 1 1.039.413 1.9 1.9 0 0 1 .34 1.358v5.55h3.036V34.21a3.856 3.856 0 0 0-.859-2.873 3.568 3.568 0 0 0-2.577-.984 4.854 4.854 0 0 0-3.036 1.122l-.04-.02v-.886h-3Zm11.9-.59a9.446 9.446 0 0 0 3.875.807c2.517 0 4.394-1.161 4.414-3.287 0-1.673-1.138-2.381-3.016-2.834-1.458-.354-2.517-.3-2.517-1 0-.453.479-.689 1.278-.689a8.371 8.371 0 0 1 3.7 1.043v-2.581a9.292 9.292 0 0 0-3.755-.768c-2.437 0-4.274 1.161-4.294 3.208 0 1.594 1.1 2.362 2.956 2.814 1.478.374 2.577.3 2.577 1.043 0 .531-.5.748-1.338.748a8.491 8.491 0 0 1-3.875-1.122Zm19.523-3.462a7.859 7.859 0 0 0 .06-1.023 4.513 4.513 0 0 0-4.694-4.822 5.032 5.032 0 0 0-5.153 5.1c0 3.031 2.337 5.018 5.572 5.018a7.635 7.635 0 0 0 3.735-.886v-2.5a6.177 6.177 0 0 1-3.335 1.063 2.659 2.659 0 0 1-2.856-1.948Zm-6.691-1.889a2.023 2.023 0 0 1 2.017-1.673 1.91 1.91 0 0 1 1.937 1.673Zm15.12 3.247a3.558 3.558 0 0 1-1.458.394c-.919 0-1.138-.708-1.138-1.653v-3.25h2.6v-2.48h-2.6v-3.03l-3.036.512v2.519h-1.6v2.48h1.6v3.562a3.907 3.907 0 0 0 .859 2.888 3.491 3.491 0 0 0 2.557.964 4.58 4.58 0 0 0 2.217-.531Zm7.011 2.7h3.176v-6h6.252v6h3.176V26H736.1v5.51h-6.252V26h-3.176Zm15.439 0h3.177v-5.1h1a9.145 9.145 0 0 0 4.674-.886 4.132 4.132 0 0 0 2.077-3.72 4.115 4.115 0 0 0-2.337-3.8 9.368 9.368 0 0 0-4.294-.748h-4.294Zm3.176-7.636v-3.883h1.079a6.435 6.435 0 0 1 2.477.3 1.7 1.7 0 0 1 1.019 1.673 1.669 1.669 0 0 1-.9 1.555 5.349 5.349 0 0 1-2.517.354Zm9.787 7.636h3.176v-5.1h1a9.145 9.145 0 0 0 4.674-.886 4.132 4.132 0 0 0 2.077-3.72 4.115 4.115 0 0 0-2.337-3.8 9.368 9.368 0 0 0-4.294-.748h-4.294Zm3.176-7.636v-3.883h1.079a6.435 6.435 0 0 1 2.477.3 1.7 1.7 0 0 1 1.019 1.673 1.669 1.669 0 0 1-.9 1.555 5.349 5.349 0 0 1-2.517.354ZM965.32 36.239c0 1.471-.28 1.994-1.482 1.994a5.879 5.879 0 0 1-1.842-.368v2.768a6.138 6.138 0 0 0 2.143.368 4.339 4.339 0 0 0 3.4-1.277 5.2 5.2 0 0 0 .961-3.542v-9.408h-3.18Zm12.515 3.658v.89h3v-9.522h-3.036v6.368a3.134 3.134 0 0 1-2 .852 1.43 1.43 0 0 1-1.081-.426 1.872 1.872 0 0 1-.38-1.374v-5.42h-3.047v5.865a3.809 3.809 0 0 0 .941 2.923 3.527 3.527 0 0 0 2.563.948 4.521 4.521 0 0 0 3-1.123Zm8.63.89h2.9l4-9.523h-3l-1.221 3.039c-.4.987-.821 2.071-1.181 3.039h-.04c-.34-.968-.721-2.013-1.1-3.019l-1.155-3.058h-3.2Zm17.265-3.987a7.585 7.585 0 0 0 .06-1.006 4.482 4.482 0 0 0-4.706-4.742 5 5 0 0 0-5.164 5.013c0 2.981 2.343 4.935 5.587 4.935a7.775 7.775 0 0 0 3.744-.871v-2.458a6.276 6.276 0 0 1-3.344 1.045 2.663 2.663 0 0 1-2.863-1.916Zm-6.71-1.858a2.019 2.019 0 0 1 2.022-1.645 1.9 1.9 0 0 1 1.942 1.645Zm8.951 5.845h3.049V34.38a3.581 3.581 0 0 1 2.062-.794 1.328 1.328 0 0 1 1.041.406 1.841 1.841 0 0 1 .34 1.335v5.458h3.044v-5.94a3.745 3.745 0 0 0-.861-2.826 3.615 3.615 0 0 0-2.583-.968 4.921 4.921 0 0 0-3.044 1.1l-.04-.019v-.867h-3Zm11.976-12.542a1.764 1.764 0 0 0 3.524 0 1.764 1.764 0 0 0-3.524 0Zm.24 12.542h3.043v-9.522h-3.043Zm5.767 0h3.044V26h-3.044Zm14.957-3.987a7.584 7.584 0 0 0 .06-1.006 4.482 4.482 0 0 0-4.706-4.742 5 5 0 0 0-5.166 5.013c0 2.981 2.343 4.935 5.587 4.935a7.775 7.775 0 0 0 3.744-.871v-2.458a6.276 6.276 0 0 1-3.344 1.045 2.663 2.663 0 0 1-2.866-1.916Zm-6.708-1.858a2.019 2.019 0 0 1 2.022-1.645 1.9 1.9 0 0 1 1.942 1.645Zm8.61 1.684h4.947v-2.4h-4.946Zm9.752-.6a2.443 2.443 0 1 1 2.443 2.439 2.415 2.415 0 0 1-2.443-2.439Zm-3.044 0c0 2.806 2.343 4.974 5.487 4.974s5.487-2.168 5.487-4.974-2.343-4.974-5.487-4.974-5.488 2.167-5.488 4.974Zm13.076 4.761h3.044V34.38a3.581 3.581 0 0 1 2.062-.794 1.328 1.328 0 0 1 1.041.406 1.841 1.841 0 0 1 .34 1.335v5.458h3.044v-5.94a3.745 3.745 0 0 0-.861-2.826 3.615 3.615 0 0 0-2.583-.968 4.921 4.921 0 0 0-3.044 1.1l-.04-.019v-.867h-3Zm11.934-.581a9.627 9.627 0 0 0 3.885.794c2.523 0 4.405-1.142 4.425-3.232 0-1.645-1.141-2.342-3.024-2.787-1.462-.348-2.523-.29-2.523-.987 0-.445.481-.677 1.282-.677a8.517 8.517 0 0 1 3.7 1.026v-2.537a9.471 9.471 0 0 0-3.756-.754c-2.443 0-4.285 1.142-4.305 3.155 0 1.568 1.1 2.323 2.964 2.768 1.482.368 2.583.29 2.583 1.026 0 .523-.5.735-1.342.735a8.638 8.638 0 0 1-3.885-1.1Zm19.563-3.406a7.586 7.586 0 0 0 .06-1.006 4.482 4.482 0 0 0-4.706-4.742 5 5 0 0 0-5.166 5.013c0 2.981 2.343 4.935 5.587 4.935a7.775 7.775 0 0 0 3.744-.871v-2.458a6.276 6.276 0 0 1-3.344 1.045 2.664 2.664 0 0 1-2.863-1.916Zm-6.708-1.858a2.019 2.019 0 0 1 2.022-1.645 1.9 1.9 0 0 1 1.942 1.645Zm15.158 3.194a3.621 3.621 0 0 1-1.462.387c-.921 0-1.141-.7-1.141-1.626v-3.194h2.6v-2.438h-2.6V28.28l-3.044.5v2.485h-1.6v2.439h1.6v3.5a3.8 3.8 0 0 0 .861 2.845 3.538 3.538 0 0 0 2.563.948 4.662 4.662 0 0 0 2.223-.523Zm7.028 2.652h3.184V34.88h6.264v5.9h3.184V26.774h-3.184v5.419h-6.267v-5.419h-3.184Zm15.478 0h3.184v-5.014h1a9.32 9.32 0 0 0 4.686-.871 4.05 4.05 0 0 0 2.082-3.658 4.042 4.042 0 0 0-2.343-3.735 9.552 9.552 0 0 0-4.305-.735h-4.305Zm3.185-7.508v-3.815h1.085a6.569 6.569 0 0 1 2.483.29 1.665 1.665 0 0 1 1.017 1.645 1.637 1.637 0 0 1-.9 1.529 5.456 5.456 0 0 1-2.523.348Zm9.812 7.51h3.184v-5.016h1a9.32 9.32 0 0 0 4.686-.871 4.05 4.05 0 0 0 2.082-3.658 4.042 4.042 0 0 0-2.343-3.735 9.552 9.552 0 0 0-4.305-.735h-4.305Zm3.184-7.51v-3.815h1.081a6.569 6.569 0 0 1 2.483.29 1.665 1.665 0 0 1 1.025 1.645 1.637 1.637 0 0 1-.9 1.529 5.456 5.456 0 0 1-2.523.348ZM69 27.315h3.261l1.18-3.047h5.842l1.16 3.047h3.4l-5.879-14.513h-3.082Zm6-7.1c.46-1.223.98-2.666 1.36-3.769h.04c.38 1.1.9 2.546 1.32 3.688l.6 1.624h-3.9Zm16.706 6.575v.521h2.985V12h-3.042v5.573l-.04.02a4.662 4.662 0 0 0-1.861-.361 5.144 5.144 0 0 0-5.2 5.352 4.66 4.66 0 0 0 4.622 4.951 4.4 4.4 0 0 0 2.5-.762Zm-.06-2.245a3.214 3.214 0 0 1-1.7.5 2.345 2.345 0 0 1-2.341-2.606 2.436 2.436 0 0 1 2.461-2.686 3.538 3.538 0 0 1 1.581.381Zm8.623 2.766h2.9l4-9.862h-3l-1.22 3.147c-.4 1.022-.82 2.145-1.18 3.147h-.04c-.34-1-.72-2.085-1.1-3.127l-1.16-3.167h-3.2Zm17.246-4.129a8.138 8.138 0 0 0 .06-1.042 4.559 4.559 0 0 0-4.7-4.911 5.082 5.082 0 0 0-5.162 5.192c0 3.087 2.341 5.112 5.582 5.112a7.547 7.547 0 0 0 3.741-.9v-2.546a6.116 6.116 0 0 1-3.341 1.082 2.666 2.666 0 0 1-2.861-1.985Zm-6.7-1.924a2.035 2.035 0 0 1 2.021-1.7 1.924 1.924 0 0 1 1.941 1.7Zm8.943 6.054h3.041v-5.971a3.267 3.267 0 0 1 2.662-1.161 3.536 3.536 0 0 1 .82.1v-2.868a2.435 2.435 0 0 0-.64-.08 3.328 3.328 0 0 0-2.861 1.463l-.04-.02v-1.323h-2.981Zm7.943-.6a9.328 9.328 0 0 0 3.881.822c2.521 0 4.4-1.183 4.422-3.348 0-1.7-1.14-2.426-3.021-2.887-1.461-.361-2.521-.3-2.521-1.022 0-.461.48-.7 1.28-.7a8.279 8.279 0 0 1 3.7 1.062v-2.625a9.176 9.176 0 0 0-3.761-.782c-2.441 0-4.282 1.183-4.3 3.267 0 1.624 1.1 2.405 2.961 2.867 1.481.381 2.581.3 2.581 1.062 0 .541-.5.762-1.34.762a8.4 8.4 0 0 1-3.881-1.143Zm19.547-3.528a8.139 8.139 0 0 0 .06-1.042 4.559 4.559 0 0 0-4.7-4.911 5.082 5.082 0 0 0-5.162 5.192c0 3.087 2.341 5.112 5.582 5.112a7.546 7.546 0 0 0 3.741-.9v-2.548a6.116 6.116 0 0 1-3.341 1.082 2.666 2.666 0 0 1-2.861-1.985Zm-6.7-1.924a2.035 2.035 0 0 1 2.021-1.7 1.924 1.924 0 0 1 1.941 1.7Zm13.885 6.054h3.041v-5.973a3.267 3.267 0 0 1 2.661-1.163 3.536 3.536 0 0 1 .82.1v-2.866a2.435 2.435 0 0 0-.64-.08 3.328 3.328 0 0 0-2.861 1.463l-.04-.02v-1.323h-2.981Zm17.306-4.129a8.138 8.138 0 0 0 .06-1.042 4.559 4.559 0 0 0-4.7-4.911 5.082 5.082 0 0 0-5.162 5.192c0 3.087 2.341 5.112 5.582 5.112a7.546 7.546 0 0 0 3.741-.9v-2.549a6.116 6.116 0 0 1-3.341 1.082 2.666 2.666 0 0 1-2.861-1.985Zm-6.7-1.924a2.035 2.035 0 0 1 2.021-1.7 1.924 1.924 0 0 1 1.941 1.7Zm14.525 5.452a2.877 2.877 0 0 0 2.121.782 3.3 3.3 0 0 0 1.461-.3v-2.286a1.145 1.145 0 0 1-.5.12c-.42 0-.6-.321-.6-.782V20.9a3.265 3.265 0 0 0-1.1-2.726 5.19 5.19 0 0 0-3.281-.942 7.815 7.815 0 0 0-3.441.762v2.626a6.138 6.138 0 0 1 2.881-.782 2.26 2.26 0 0 1 1.521.421 1.391 1.391 0 0 1 .38 1.042v.379a7.9 7.9 0 0 0-1.7-.18 4.855 4.855 0 0 0-2.761.7 2.812 2.812 0 0 0-1.2 2.385 2.69 2.69 0 0 0 1.16 2.305 4 4 0 0 0 2.281.641 4.785 4.785 0 0 0 2.741-.822Zm-.56-1.824a2.729 2.729 0 0 1-1.381.4c-.7 0-1.26-.341-1.26-.982 0-.762.78-1 1.561-1a4 4 0 0 1 1.08.14Zm14.025-.922a4.994 4.994 0 0 1-2.881.982 2.582 2.582 0 1 1-.04-5.152 5.286 5.286 0 0 1 2.781.922v-2.826a6.608 6.608 0 0 0-2.921-.662c-3.081 0-5.642 2.065-5.642 5.172a5.153 5.153 0 0 0 5.482 5.132 6.759 6.759 0 0 0 3.221-.762Zm8.723.6a3.519 3.519 0 0 1-1.461.4c-.92 0-1.14-.722-1.14-1.684V19.98h2.6v-2.528h-2.6v-3.087l-3.041.521v2.566h-1.6v2.528h1.6v3.628a4.024 4.024 0 0 0 .86 2.947 3.465 3.465 0 0 0 2.561.982 4.527 4.527 0 0 0 2.221-.541Zm1.781-10.243a1.761 1.761 0 1 0 1.758-1.744 1.761 1.761 0 0 0-1.762 1.745Zm.24 12.99h3.041v-9.862h-3.041Zm8.183-4.931a2.442 2.442 0 1 1 2.441 2.526 2.459 2.459 0 0 1-2.445-2.529Zm-3.041 0a5.493 5.493 0 1 0 5.476-5.151 5.216 5.216 0 0 0-5.48 5.148Zm13.065 4.931h3.041V20.68a3.507 3.507 0 0 1 2.061-.822 1.3 1.3 0 0 1 1.04.421 1.957 1.957 0 0 1 .34 1.383v5.653h3.041v-6.154a3.971 3.971 0 0 0-.86-2.927 3.542 3.542 0 0 0-2.581-1 4.815 4.815 0 0 0-3.041 1.143l-.04-.02v-.9h-3Zm14.935-7.367a1.678 1.678 0 0 0 1.237.456 1.926 1.926 0 0 0 .852-.175v-1.332a.668.668 0 0 1-.292.07c-.245 0-.35-.187-.35-.456v-1.953a1.9 1.9 0 0 0-.642-1.59 3.027 3.027 0 0 0-1.914-.55 4.558 4.558 0 0 0-2.007.444v1.533a3.58 3.58 0 0 1 1.681-.456 1.318 1.318 0 0 1 .887.246.812.812 0 0 1 .222.608v.222a4.605 4.605 0 0 0-.998-.106 2.832 2.832 0 0 0-1.611.409 1.64 1.64 0 0 0-.7 1.391 1.569 1.569 0 0 0 .677 1.345 2.331 2.331 0 0 0 1.33.374 2.791 2.791 0 0 0 1.6-.479Zm-.327-1.064a1.592 1.592 0 0 1-.805.234c-.408 0-.735-.2-.735-.573 0-.444.455-.585.91-.585a2.333 2.333 0 0 1 .63.082ZM82.406 48.022a4.994 4.994 0 0 1-2.881.982 2.582 2.582 0 1 1-.04-5.152 5.286 5.286 0 0 1 2.781.922v-2.826a6.608 6.608 0 0 0-2.921-.662c-3.081 0-5.642 2.065-5.642 5.172a5.153 5.153 0 0 0 5.482 5.132 6.758 6.758 0 0 0 3.221-.762Zm7.923 2.746a2.877 2.877 0 0 0 2.121.782 3.3 3.3 0 0 0 1.461-.3v-2.286a1.145 1.145 0 0 1-.5.12c-.42 0-.6-.321-.6-.782v-3.347a3.265 3.265 0 0 0-1.1-2.726 5.19 5.19 0 0 0-3.281-.942 7.815 7.815 0 0 0-3.441.762v2.626a6.138 6.138 0 0 1 2.881-.782 2.26 2.26 0 0 1 1.521.421 1.391 1.391 0 0 1 .38 1.042v.381a7.9 7.9 0 0 0-1.7-.18 4.855 4.855 0 0 0-2.761.7 2.812 2.812 0 0 0-1.2 2.385 2.69 2.69 0 0 0 1.16 2.305 4 4 0 0 0 2.281.641 4.785 4.785 0 0 0 2.741-.822Zm-.56-1.824a2.729 2.729 0 0 1-1.381.4c-.7 0-1.26-.341-1.26-.982 0-.762.78-1 1.561-1a4 4 0 0 1 1.08.14Zm12.3-.321a3.519 3.519 0 0 1-1.461.4c-.92 0-1.14-.722-1.14-1.684v-3.306h2.6v-2.526h-2.6V38.42l-3.041.521v2.566h-1.6v2.526h1.6v3.628a4.024 4.024 0 0 0 .86 2.947 3.465 3.465 0 0 0 2.561.982 4.527 4.527 0 0 0 2.221-.541Zm11.048-1.383a8.138 8.138 0 0 0 .06-1.042 4.559 4.559 0 0 0-4.7-4.911 5.082 5.082 0 0 0-5.163 5.193c0 3.087 2.341 5.112 5.582 5.112a7.546 7.546 0 0 0 3.741-.9v-2.55a6.116 6.116 0 0 1-3.346 1.083 2.666 2.666 0 0 1-2.861-1.985Zm-6.7-1.924a2.035 2.035 0 0 1 2.021-1.7 1.924 1.924 0 0 1 1.941 1.7Zm9.741 9.964a8.008 8.008 0 0 0 3.361.722c3.141 0 5.262-1.724 5.262-4.831v-9.744l-2.381.421a5.567 5.567 0 0 0-2.461-.561 4.971 4.971 0 0 0-5.122 5.152 4.606 4.606 0 0 0 4.582 4.831 4.14 4.14 0 0 0 2.3-.662l.04.02v.541a2.107 2.107 0 0 1-2.4 2.225 6.239 6.239 0 0 1-3.181-1Zm5.582-6.916a3.056 3.056 0 0 1-1.541.421 2.253 2.253 0 0 1-2.3-2.466 2.262 2.262 0 0 1 2.341-2.446 3.452 3.452 0 0 1 1.5.361Zm8.223-1.924a2.442 2.442 0 1 1 2.441 2.526 2.459 2.459 0 0 1-2.441-2.528Zm-3.041 0a5.493 5.493 0 1 0 5.482-5.152 5.216 5.216 0 0 0-5.482 5.15Zm13.069 4.929h3.041v-5.973a3.267 3.267 0 0 1 2.659-1.163 3.536 3.536 0 0 1 .82.1v-2.866a2.435 2.435 0 0 0-.64-.08 3.328 3.328 0 0 0-2.861 1.463l-.04-.02v-1.323h-2.979Zm11.8 4.41 6.4-14.272h-3.021l-1.04 2.385c-.46 1.062-.9 2.1-1.34 3.187h-.04q-.6-1.533-1.26-3.127l-1.02-2.446h-3.2l4 8.78-2.579 5.494Zm15.346-9.341a2.442 2.442 0 1 1 2.441 2.526 2.459 2.459 0 0 1-2.441-2.526Zm-3.041 0a5.493 5.493 0 1 0 5.482-5.152 5.216 5.216 0 0 0-5.487 5.152Zm13.065 4.931h3.041v-5.973a3.267 3.267 0 0 1 2.661-1.163 3.536 3.536 0 0 1 .82.1v-2.866a2.435 2.435 0 0 0-.64-.08 3.328 3.328 0 0 0-2.861 1.463l-.04-.02v-1.323h-2.981Zm19.547-2.746a3.519 3.519 0 0 1-1.461.4c-.92 0-1.14-.722-1.14-1.684v-3.306h2.6v-2.526h-2.6V38.42l-3.041.521v2.566h-1.6v2.526h1.6v3.628a4.024 4.024 0 0 0 .86 2.947 3.465 3.465 0 0 0 2.561.982 4.527 4.527 0 0 0 2.221-.541Zm11.044-1.383a8.139 8.139 0 0 0 .06-1.042 4.559 4.559 0 0 0-4.7-4.911 5.082 5.082 0 0 0-5.162 5.192c0 3.087 2.341 5.112 5.582 5.112a7.546 7.546 0 0 0 3.741-.9v-2.549a6.116 6.116 0 0 1-3.341 1.082 2.666 2.666 0 0 1-2.861-1.985Zm-6.7-1.924a2.035 2.035 0 0 1 2.021-1.7 1.924 1.924 0 0 1 1.941 1.7Zm8.943 6.054h3.041v-5.974a3.267 3.267 0 0 1 2.661-1.163 3.536 3.536 0 0 1 .82.1v-2.866a2.435 2.435 0 0 0-.64-.08 3.328 3.328 0 0 0-2.861 1.463l-.04-.02v-1.323h-2.985Zm20.948 0h3.041v-6.19a3.865 3.865 0 0 0-.9-2.907 3.429 3.429 0 0 0-2.541-.982 5.112 5.112 0 0 0-3.461 1.4 3.3 3.3 0 0 0-2.861-1.4 4.556 4.556 0 0 0-2.961 1.123l-.04-.02v-.882h-3v9.862h3.041v-6.66a3.189 3.189 0 0 1 1.921-.8 1.358 1.358 0 0 1 1.04.421 1.863 1.863 0 0 1 .36 1.343v5.693h3.041V45.18a3.252 3.252 0 0 0-.02-.441 3.085 3.085 0 0 1 1.941-.822 1.358 1.358 0 0 1 1.04.421 1.8 1.8 0 0 1 .36 1.343Z"/><path fill="#343434" d="M172.028 205.93h2.74v-5.24a2.973 2.973 0 0 1 2.394-1.021c.249.001.496.03.738.088v-2.516a2.243 2.243 0 0 0-.576-.07 3.018 3.018 0 0 0-2.574 1.285l-.036-.018v-1.162h-2.686zm15.571-3.625c.038-.303.056-.61.054-.915a4.052 4.052 0 0 0-4.23-4.312 4.519 4.519 0 0 0-4.644 4.558c0 2.71 2.106 4.488 5.022 4.488a6.926 6.926 0 0 0 3.367-.788v-2.235a5.6 5.6 0 0 1-3.006.95 2.4 2.4 0 0 1-2.574-1.742zm-6.031-1.685a1.82 1.82 0 0 1 1.818-1.5 1.718 1.718 0 0 1 1.746 1.5zm13.069 4.787a2.626 2.626 0 0 0 1.908.686c.452.011.901-.08 1.314-.264v-2.006c-.14.068-.294.104-.45.106-.378 0-.54-.282-.54-.686v-2.94a2.833 2.833 0 0 0-.99-2.393 4.753 4.753 0 0 0-2.952-.827 7.176 7.176 0 0 0-3.1.669v2.305a5.628 5.628 0 0 1 2.592-.686c.485-.042.97.09 1.368.37.238.243.362.575.342.915v.334a7.274 7.274 0 0 0-1.53-.158 4.452 4.452 0 0 0-2.484.616 2.451 2.451 0 0 0-1.08 2.094c-.025.81.37 1.575 1.044 2.024a3.662 3.662 0 0 0 2.052.563 4.381 4.381 0 0 0 2.466-.722zm-.5-1.6a2.5 2.5 0 0 1-1.242.352c-.63 0-1.134-.3-1.134-.862 0-.669.7-.88 1.4-.88.328-.002.655.039.972.123zm12.619-.81a4.566 4.566 0 0 1-2.592.862c-3.301.328-3.342-4.799-.036-4.523a4.836 4.836 0 0 1 2.5.81v-2.482a6.068 6.068 0 0 0-2.628-.581c-2.772 0-5.076 1.813-5.076 4.54 0 2.6 2.088 4.505 4.932 4.505a6.2 6.2 0 0 0 2.9-.669zm7.849.528c-.408.21-.856.33-1.314.352-.828 0-1.026-.634-1.026-1.478v-2.9h2.34v-2.223h-2.34v-2.71l-2.736.458v2.252h-1.44v2.217h1.44v3.185a3.476 3.476 0 0 0 .774 2.587 3.16 3.16 0 0 0 2.3.862 4.154 4.154 0 0 0 2-.475zm1.6-8.993c.072 2.038 3.096 2.038 3.168 0-.072-2.038-3.096-2.038-3.168 0zm.216 11.4h2.736v-8.656h-2.736zm7.363-4.329c.015-1.956 2.384-2.92 3.761-1.533 1.378 1.389.395 3.75-1.561 3.75a2.184 2.184 0 0 1-2.202-2.214zm-2.736 0c.523 6.031 9.342 6.031 9.865 0-.523-6.031-9.342-6.031-9.865 0zm11.752 4.327h2.736v-5.82a3.2 3.2 0 0 1 1.854-.722c.351-.022.694.114.936.37.254.35.363.785.306 1.214v4.958h2.736v-5.4a3.43 3.43 0 0 0-.774-2.569 3.23 3.23 0 0 0-2.322-.88c-1 .013-1.964.365-2.736 1l-.036-.018v-.787h-2.7zm10.729-.528c1.1.483 2.29.729 3.492.722 2.268 0 3.96-1.038 3.978-2.939 0-1.5-1.026-2.129-2.718-2.534-1.314-.317-2.268-.264-2.268-.9 0-.4.432-.616 1.152-.616a7.59 7.59 0 0 1 3.33.933v-2.299a8.432 8.432 0 0 0-3.384-.686c-2.2 0-3.852 1.038-3.87 2.869 0 1.425.99 2.112 2.664 2.517 1.332.334 2.322.264 2.322.933 0 .475-.45.669-1.206.669a7.7 7.7 0 0 1-3.492-1zM65.001 283.02h8.218v-2.514h-5.365v-3.112h4.45v-2.388h-4.45v-2.569h5.167v-2.514h-8.02Zm17.279-3.021a4.46 4.46 0 0 1-2.584.886 2.329 2.329 0 1 1-.036-4.649 4.72 4.72 0 0 1 2.494.832v-2.55a5.9 5.9 0 0 0-2.62-.6 4.752 4.752 0 0 0-5.06 4.667 4.634 4.634 0 0 0 4.916 4.631 6.03 6.03 0 0 0 2.889-.687Zm7.823.543a3.14 3.14 0 0 1-1.31.362c-.825 0-1.023-.651-1.023-1.52v-2.985h2.333v-2.279H87.77v-2.786l-2.727.47v2.316h-1.436v2.279h1.435v3.274a3.646 3.646 0 0 0 .772 2.659 3.1 3.1 0 0 0 2.3.886 4.04 4.04 0 0 0 1.992-.488Zm3.84-1.972a2.191 2.191 0 1 1 2.188 2.28 2.212 2.212 0 0 1-2.189-2.28Zm-2.727 0a4.924 4.924 0 1 0 4.916-4.649 4.691 4.691 0 0 0-4.917 4.649Zm14.444 4.324.036-.018a3.946 3.946 0 0 0 1.7.344 4.5 4.5 0 0 0 4.611-4.722 4.276 4.276 0 0 0-4.181-4.577 3.794 3.794 0 0 0-2.189.669l-.036-.018v-.452h-2.669V287h2.727Zm0-2.243v-3.944a2.519 2.519 0 0 1 1.471-.488 2.19 2.19 0 0 1 2.134 2.423 2.153 2.153 0 0 1-2.207 2.352 3.07 3.07 0 0 1-1.399-.344Zm8.074-9.353a1.579 1.579 0 1 0 1.579-1.574 1.584 1.584 0 0 0-1.58 1.573Zm.215 11.723h2.727v-8.901h-2.728ZM126.383 280a4.46 4.46 0 0 1-2.584.886 2.329 2.329 0 1 1-.036-4.649 4.72 4.72 0 0 1 2.494.832v-2.551a5.9 5.9 0 0 0-2.62-.6 4.752 4.752 0 0 0-5.06 4.667 4.634 4.634 0 0 0 4.916 4.631 6.03 6.03 0 0 0 2.889-.687Zm13.8 0a4.46 4.46 0 0 1-2.584.886 2.329 2.329 0 1 1-.036-4.649 4.72 4.72 0 0 1 2.494.832v-2.551a5.9 5.9 0 0 0-2.62-.6 4.752 4.752 0 0 0-5.06 4.667 4.634 4.634 0 0 0 4.916 4.631 6.03 6.03 0 0 0 2.889-.687Zm7.105 2.478a2.571 2.571 0 0 0 1.9.706 2.946 2.946 0 0 0 1.31-.271v-2.063a1.022 1.022 0 0 1-.449.109c-.377 0-.538-.289-.538-.706v-3.022a2.955 2.955 0 0 0-.987-2.46 4.634 4.634 0 0 0-2.943-.85 6.972 6.972 0 0 0-3.086.687v2.37a5.479 5.479 0 0 1 2.584-.706 2.018 2.018 0 0 1 1.364.38 1.26 1.26 0 0 1 .341.941v.344a7.038 7.038 0 0 0-1.525-.163 4.332 4.332 0 0 0-2.476.633 2.543 2.543 0 0 0-1.077 2.153 2.433 2.433 0 0 0 1.041 2.08 3.568 3.568 0 0 0 2.045.579 4.273 4.273 0 0 0 2.458-.742Zm-.5-1.646a2.436 2.436 0 0 1-1.238.362c-.628 0-1.13-.308-1.13-.886 0-.687.7-.9 1.4-.9a3.565 3.565 0 0 1 .969.127Zm5.311 2.189h2.727v-13.822h-2.727ZM164.533 280a4.46 4.46 0 0 1-2.584.886 2.329 2.329 0 1 1-.036-4.649 4.72 4.72 0 0 1 2.494.832v-2.551a5.9 5.9 0 0 0-2.62-.6 4.752 4.752 0 0 0-5.06 4.667 4.634 4.634 0 0 0 4.916 4.631 6.03 6.03 0 0 0 2.889-.687Zm1.884-8.7a1.579 1.579 0 1 0 1.579-1.574 1.584 1.584 0 0 0-1.584 1.571Zm.215 11.723h2.727v-8.903h-2.727Zm5.652 0h2.727v-6.624h2.045v-2.279h-2.045v-1.5c0-.76.179-1.3 1.023-1.3a5.633 5.633 0 0 1 1.184.163v-2.233a4.326 4.326 0 0 0-1.507-.253 3.6 3.6 0 0 0-2.494.832 4.015 4.015 0 0 0-.933 2.967v1.324h-1.256v2.279h1.256Zm6.154-11.723a1.579 1.579 0 1 0 1.579-1.574 1.584 1.584 0 0 0-1.583 1.571Zm.215 11.723h2.727v-8.903h-2.727Zm12.434-3.021a4.46 4.46 0 0 1-2.584.886 2.329 2.329 0 1 1-.038-4.652 4.72 4.72 0 0 1 2.494.832v-2.55a5.9 5.9 0 0 0-2.62-.6 4.752 4.752 0 0 0-5.06 4.667 4.634 4.634 0 0 0 4.916 4.631 6.03 6.03 0 0 0 2.889-.687Zm7.105 2.478a2.571 2.571 0 0 0 1.9.706 2.946 2.946 0 0 0 1.31-.271v-2.065a1.022 1.022 0 0 1-.449.109c-.377 0-.538-.289-.538-.706v-3.022a2.955 2.955 0 0 0-.987-2.46 4.634 4.634 0 0 0-2.943-.85 6.972 6.972 0 0 0-3.086.687v2.37a5.479 5.479 0 0 1 2.584-.706 2.018 2.018 0 0 1 1.364.38 1.26 1.26 0 0 1 .341.941v.344a7.038 7.038 0 0 0-1.525-.163 4.332 4.332 0 0 0-2.476.633 2.543 2.543 0 0 0-1.077 2.153 2.433 2.433 0 0 0 1.041 2.08 3.568 3.568 0 0 0 2.045.579 4.273 4.273 0 0 0 2.458-.742Zm-.5-1.646a2.436 2.436 0 0 1-1.238.362c-.628 0-1.13-.308-1.13-.886 0-.687.7-.9 1.4-.9a3.565 3.565 0 0 1 .969.127Zm11.035-.289a3.14 3.14 0 0 1-1.31.362c-.825 0-1.023-.651-1.023-1.52v-2.988h2.333v-2.279h-2.333v-2.786l-2.727.47v2.316h-1.435v2.279h1.433v3.274a3.646 3.646 0 0 0 .772 2.659 3.1 3.1 0 0 0 2.3.886 4.04 4.04 0 0 0 1.992-.488Zm1.6-9.244a1.579 1.579 0 1 0 1.579-1.574 1.584 1.584 0 0 0-1.588 1.57Zm.215 11.723h2.723v-8.904h-2.727Zm7.339-4.45a2.191 2.191 0 1 1 2.184 2.276 2.212 2.212 0 0 1-2.193-2.28Zm-2.727 0a4.924 4.924 0 1 0 4.911-4.653 4.691 4.691 0 0 0-4.92 4.649Zm11.711 4.446h2.727v-5.988a3.134 3.134 0 0 1 1.848-.742 1.164 1.164 0 0 1 .933.38 1.774 1.774 0 0 1 .305 1.248v5.1h2.727v-5.552a3.6 3.6 0 0 0-.772-2.641 3.165 3.165 0 0 0-2.315-.9 4.3 4.3 0 0 0-2.73 1.025l-.036-.018v-.812h-2.687Zm10.694-.543a8.321 8.321 0 0 0 3.481.742c2.261 0 3.947-1.067 3.965-3.021 0-1.538-1.023-2.189-2.709-2.605-1.31-.326-2.261-.271-2.261-.923 0-.416.431-.633 1.148-.633a7.389 7.389 0 0 1 3.319.959v-2.37a8.184 8.184 0 0 0-3.373-.706c-2.189 0-3.84 1.067-3.858 2.949 0 1.465.987 2.171 2.656 2.587 1.328.344 2.315.271 2.315.959 0 .488-.449.687-1.2.687a7.5 7.5 0 0 1-3.481-1.031ZM85 420.079h2.864v-5.428h5.643v5.427h2.864v-12.882h-2.864v4.982h-5.643v-4.982H85Zm16.915 3.915 5.764-12.67h-2.72l-.937 2.118c-.414.943-.811 1.868-1.207 2.829h-.036q-.54-1.361-1.135-2.776l-.919-2.171h-2.881l3.6 7.794-2.324 4.876Zm9.925-4.039.036-.018a4.032 4.032 0 0 0 1.711.338 4.466 4.466 0 0 0 4.63-4.645 4.243 4.243 0 0 0-4.2-4.5 3.864 3.864 0 0 0-2.2.658l-.036-.018v-.446h-2.679v12.669h2.738Zm0-2.206v-3.88a2.564 2.564 0 0 1 1.477-.48 2.171 2.171 0 0 1 2.144 2.384 2.137 2.137 0 0 1-2.216 2.313 3.133 3.133 0 0 1-1.405-.338Zm16.59-1.335a7.123 7.123 0 0 0 .054-.925 4.075 4.075 0 0 0-4.233-4.359 4.544 4.544 0 0 0-4.644 4.607c0 2.74 2.108 4.538 5.026 4.538a6.872 6.872 0 0 0 3.369-.8v-2.26a5.561 5.561 0 0 1-3.008.961 2.4 2.4 0 0 1-2.576-1.762Zm-6.035-1.708a1.825 1.825 0 0 1 1.819-1.513 1.724 1.724 0 0 1 1.747 1.513Zm8.052 5.374h2.738v-5.3a2.96 2.96 0 0 1 2.4-1.032 3.227 3.227 0 0 1 .739.089v-2.549a2.222 2.222 0 0 0-.576-.071 3.01 3.01 0 0 0-2.576 1.3l-.036-.018v-1.175h-2.688Zm7.151-.534a8.5 8.5 0 0 0 3.495.73c2.27 0 3.963-1.05 3.981-2.972 0-1.513-1.027-2.153-2.72-2.562-1.315-.32-2.27-.267-2.27-.908 0-.409.432-.623 1.153-.623a7.535 7.535 0 0 1 3.332.943v-2.332a8.362 8.362 0 0 0-3.385-.692c-2.2 0-3.855 1.05-3.873 2.9 0 1.441.991 2.135 2.666 2.545 1.333.338 2.324.267 2.324.943 0 .48-.45.676-1.207.676a7.644 7.644 0 0 1-3.495-1.014Zm17.6-3.132a7.123 7.123 0 0 0 .054-.925 4.075 4.075 0 0 0-4.233-4.36 4.544 4.544 0 0 0-4.647 4.609c0 2.74 2.108 4.538 5.026 4.538a6.872 6.872 0 0 0 3.369-.8v-2.26a5.561 5.561 0 0 1-3.008.961 2.4 2.4 0 0 1-2.576-1.762Zm-6.035-1.708a1.825 1.825 0 0 1 1.819-1.513 1.724 1.724 0 0 1 1.747 1.513Zm8.052 5.374h2.738v-5.89a3.182 3.182 0 0 1 1.855-.73 1.181 1.181 0 0 1 .937.374 1.719 1.719 0 0 1 .306 1.228v5.018h2.738v-5.464a3.492 3.492 0 0 0-.775-2.6 3.213 3.213 0 0 0-2.324-.89 4.371 4.371 0 0 0-2.738 1.014l-.036-.018v-.8h-2.7Zm10.736-.534a8.5 8.5 0 0 0 3.495.73c2.27 0 3.963-1.05 3.981-2.972 0-1.513-1.027-2.153-2.72-2.562-1.315-.32-2.27-.267-2.27-.908 0-.409.432-.623 1.153-.623a7.535 7.535 0 0 1 3.332.943v-2.332a8.362 8.362 0 0 0-3.385-.692c-2.2 0-3.855 1.05-3.873 2.9 0 1.441.991 2.135 2.666 2.545 1.333.338 2.324.267 2.324.943 0 .48-.45.676-1.207.676a7.644 7.644 0 0 1-3.495-1.014Zm9.115-11a1.586 1.586 0 1 0 1.585-1.548 1.574 1.574 0 0 0-1.584 1.55Zm.216 11.531h2.738v-8.753h-2.738Zm10.934-2.438a3.2 3.2 0 0 1-1.315.356c-.829 0-1.027-.641-1.027-1.495v-2.934h2.342v-2.242h-2.342v-2.74l-2.738.463v2.277h-1.441v2.242h1.441v3.221a3.539 3.539 0 0 0 .771 2.616 3.144 3.144 0 0 0 2.306.872 4.122 4.122 0 0 0 2-.48Zm1.6-9.093a1.586 1.586 0 1 0 1.591-1.546 1.574 1.574 0 0 0-1.587 1.548Zm.216 11.531h2.738v-8.753h-2.738Zm7.764 0h2.612l3.6-8.755h-2.7l-1.1 2.794c-.36.908-.739 1.9-1.063 2.794h-.036c-.306-.89-.648-1.851-.991-2.776l-1.045-2.811h-2.882Zm7.422-11.531a1.586 1.586 0 1 0 1.589-1.546 1.574 1.574 0 0 0-1.585 1.548Zm.216 11.531h2.738v-8.753h-2.738Zm10.934-2.438a3.2 3.2 0 0 1-1.315.356c-.829 0-1.027-.641-1.027-1.495v-2.934h2.342v-2.242h-2.342v-2.74l-2.738.463v2.277h-1.441v2.242h1.441v3.221a3.539 3.539 0 0 0 .775 2.616 3.144 3.144 0 0 0 2.306.872 4.122 4.122 0 0 0 2-.48Zm4.864 6.353 5.764-12.669h-2.72l-.937 2.118c-.414.943-.811 1.868-1.207 2.829h-.036q-.54-1.361-1.135-2.776l-.919-2.171h-2.882l3.6 7.794-2.324 4.876Zm-104.988 19.812h2.738v-5.3a2.96 2.96 0 0 1 2.4-1.032 3.227 3.227 0 0 1 .739.089v-2.547a2.222 2.222 0 0 0-.576-.071 3.01 3.01 0 0 0-2.576 1.3l-.036-.018v-1.175h-2.689Zm15.582-3.666a7.124 7.124 0 0 0 .054-.925 4.075 4.075 0 0 0-4.233-4.36 4.544 4.544 0 0 0-4.647 4.609c0 2.74 2.108 4.538 5.026 4.538a6.872 6.872 0 0 0 3.369-.8v-2.26a5.561 5.561 0 0 1-3.008.961 2.4 2.4 0 0 1-2.58-1.762Zm-6.035-1.708a1.825 1.825 0 0 1 1.816-1.512 1.724 1.724 0 0 1 1.751 1.512Zm13.078 4.84a2.611 2.611 0 0 0 1.909.694 3.009 3.009 0 0 0 1.315-.267v-2.028a1.043 1.043 0 0 1-.45.107c-.378 0-.54-.285-.54-.694v-2.972a2.879 2.879 0 0 0-.991-2.42 4.721 4.721 0 0 0-2.954-.836 7.119 7.119 0 0 0-3.1.676v2.331a5.587 5.587 0 0 1 2.594-.694 2.055 2.055 0 0 1 1.369.374 1.225 1.225 0 0 1 .342.925v.338a7.206 7.206 0 0 0-1.531-.16 4.419 4.419 0 0 0-2.486.623 2.486 2.486 0 0 0-1.081 2.118 2.378 2.378 0 0 0 1.042 2.045 3.636 3.636 0 0 0 2.054.569 4.352 4.352 0 0 0 2.468-.73Zm-.5-1.619a2.482 2.482 0 0 1-1.243.356c-.63 0-1.135-.3-1.135-.872 0-.676.7-.89 1.405-.89a3.649 3.649 0 0 1 .973.125Zm12.627-.819a4.538 4.538 0 0 1-2.594.872 2.295 2.295 0 1 1-.036-4.573 4.805 4.805 0 0 1 2.5.819v-2.509a6.019 6.019 0 0 0-2.63-.587c-2.774 0-5.08 1.833-5.08 4.591a4.612 4.612 0 0 0 4.936 4.555 6.156 6.156 0 0 0 2.9-.676Zm7.854.534a3.2 3.2 0 0 1-1.315.356c-.829 0-1.027-.641-1.027-1.495v-2.935h2.342v-2.242h-2.343v-2.74l-2.738.463v2.277h-1.441v2.242h1.441v3.221a3.539 3.539 0 0 0 .775 2.616 3.144 3.144 0 0 0 2.306.872 4.122 4.122 0 0 0 2-.48Zm1.6-9.093a1.586 1.586 0 1 0 1.585-1.548 1.574 1.574 0 0 0-1.586 1.549Zm.216 11.531h2.741v-8.754h-2.738Zm7.367-4.377a2.2 2.2 0 1 1 2.2 2.242 2.2 2.2 0 0 1-2.2-2.239Zm-2.738 0a4.95 4.95 0 1 0 4.936-4.573 4.668 4.668 0 0 0-4.936 4.576Zm11.763 4.377h2.738v-5.89a3.182 3.182 0 0 1 1.855-.73 1.181 1.181 0 0 1 .937.374 1.719 1.719 0 0 1 .306 1.228v5.018h2.738v-5.463a3.492 3.492 0 0 0-.775-2.6 3.213 3.213 0 0 0-2.324-.89 4.371 4.371 0 0 0-2.738 1.014l-.036-.018v-.8h-2.7Zm10.736-.534a8.5 8.5 0 0 0 3.495.73c2.27 0 3.963-1.05 3.981-2.972 0-1.513-1.027-2.153-2.72-2.562-1.315-.32-2.27-.267-2.27-.908 0-.409.432-.623 1.153-.623a7.535 7.535 0 0 1 3.332.943v-2.33a8.362 8.362 0 0 0-3.387-.694c-2.2 0-3.855 1.05-3.873 2.9 0 1.441.991 2.135 2.666 2.545 1.333.338 2.324.267 2.324.943 0 .48-.45.676-1.207.676a7.644 7.644 0 0 1-3.495-1.014ZM93 357.199h8.568v-2.4h-5.707v-10.108H93Zm9.9-11.2a1.586 1.586 0 0 0 3.168 0 1.586 1.586 0 0 0-3.168 0Zm.216 11.2h2.736v-8.5h-2.736Zm7.92-.121.036-.017a4.13 4.13 0 0 0 1.71.328 4.4 4.4 0 0 0 4.626-4.509 4.174 4.174 0 0 0-4.194-4.371 3.941 3.941 0 0 0-2.2.639l-.036-.017v-.432H108.3v12.3h2.736Zm0-2.142v-3.766a2.612 2.612 0 0 1 1.476-.466 2.132 2.132 0 0 1 2.142 2.315 2.1 2.1 0 0 1-2.214 2.246 3.2 3.2 0 0 1-1.404-.329Zm10.494-1.984a2.2 2.2 0 1 1 2.2 2.177 2.164 2.164 0 0 1-2.2-2.177Zm-2.736 0c0 2.505 2.106 4.44 4.932 4.44s4.935-1.94 4.935-4.44-2.106-4.44-4.932-4.44-4.935 1.932-4.935 4.44Zm17.712 3.8v.449h2.682V344h-2.736v4.8l-.036.017a4.354 4.354 0 0 0-1.674-.311 4.529 4.529 0 0 0-4.681 4.616 4.165 4.165 0 0 0 6.408 3.611Zm-.054-1.935a2.984 2.984 0 0 1-1.53.432 2.057 2.057 0 0 1-2.106-2.246 2.138 2.138 0 0 1 2.214-2.315 3.3 3.3 0 0 1 1.422.328Zm8.226 6.185 5.76-12.3h-2.718l-.936 2.05c-.414.916-.81 1.814-1.206 2.747h-.036q-.54-1.322-1.134-2.7l-.918-2.108h-2.88l3.6 7.567-2.322 4.734Zm6.588-4.319a8.707 8.707 0 0 0 3.492.708c2.268 0 3.96-1.019 3.978-2.885 0-1.468-1.026-2.09-2.718-2.488-1.314-.311-2.268-.259-2.268-.881 0-.4.432-.6 1.152-.6a7.7 7.7 0 0 1 3.33.916v-2.27a8.566 8.566 0 0 0-3.384-.674c-2.2 0-3.852 1.019-3.87 2.816 0 1.4.99 2.073 2.664 2.471 1.332.328 2.322.259 2.322.916 0 .466-.45.657-1.206.657a7.807 7.807 0 0 1-3.492-.985Zm15.066-1.849a3.273 3.273 0 0 1-1.314.346c-.828 0-1.026-.622-1.026-1.451v-2.853h2.34v-2.177h-2.34v-2.66l-2.736.449v2.211h-1.44v2.177h1.44v3.127a3.373 3.373 0 0 0 .774 2.54 3.194 3.194 0 0 0 2.3.847 4.215 4.215 0 0 0 2-.466Zm1.818 2.367h2.736v-5.149a3 3 0 0 1 2.394-1 3.314 3.314 0 0 1 .738.086v-2.473a2.282 2.282 0 0 0-.576-.069 3.036 3.036 0 0 0-2.574 1.261l-.036-.017v-1.141h-2.682Zm9.486-4.25a2.2 2.2 0 1 1 2.2 2.177 2.164 2.164 0 0 1-2.2-2.176Zm-2.736 0c0 2.505 2.106 4.44 4.932 4.44s4.929-1.939 4.929-4.439-2.106-4.44-4.932-4.44-4.929 1.932-4.929 4.44Zm14.49 4.129.036-.017a4.13 4.13 0 0 0 1.71.328 4.4 4.4 0 0 0 4.626-4.509 4.174 4.174 0 0 0-4.194-4.371 3.941 3.941 0 0 0-2.2.639l-.036-.017v-.434h-2.682v12.3h2.736Zm0-2.142v-3.768a2.612 2.612 0 0 1 1.476-.466 2.132 2.132 0 0 1 2.142 2.315 2.1 2.1 0 0 1-2.214 2.246 3.2 3.2 0 0 1-1.404-.329Zm8.316 2.263h2.736v-5.72a3.232 3.232 0 0 1 1.854-.708 1.2 1.2 0 0 1 .936.363 1.635 1.635 0 0 1 .306 1.192v4.872h2.736v-5.3a3.327 3.327 0 0 0-.774-2.522 3.263 3.263 0 0 0-2.322-.864 4.348 4.348 0 0 0-2.7.967l-.036-.017V344h-2.736Zm13.536 3.8 5.76-12.3h-2.718l-.936 2.051c-.414.916-.81 1.814-1.206 2.747h-.036q-.54-1.322-1.134-2.7l-.918-2.108h-2.88l3.6 7.567-2.322 4.734Z"/><g fill="#343434"><path d="M315.342 84.052a9.558 9.558 0 0 0 4.123.958c2.809 0 4.736-1.537 4.736-4.087 0-2.315-1.585-3.237-3.547-3.888-1.567-.524-2.773-.615-2.773-1.772 0-.868.7-1.23 1.675-1.23a8.251 8.251 0 0 1 4 1.266v-2.834a8.944 8.944 0 0 0-3.979-.94c-2.737 0-4.574 1.519-4.574 3.96 0 2.278 1.621 3.165 3.421 3.761 1.675.542 2.9.651 2.9 1.863 0 .976-.774 1.392-1.819 1.392a8.209 8.209 0 0 1-4.163-1.356Zm14.009.759h2.863V74.237h4.218v-2.514h-11.294v2.514h4.213Zm8.715 0h2.866v-5.167h1.278l3.3 5.172h3.3l-3.685-5.534a3.64 3.64 0 0 0 2.647-3.617 3.366 3.366 0 0 0-1.567-3.074 7.819 7.819 0 0 0-4.051-.868h-4.088Zm2.866-7.319v-3.255h1.1a4.86 4.86 0 0 1 2.143.344 1.288 1.288 0 0 1 .738 1.284 1.363 1.363 0 0 1-.738 1.32 4.087 4.087 0 0 1-1.8.307Zm9.075 7.324h8.247v-2.514h-5.387v-3.11h4.465v-2.387h-4.465v-2.568h5.186v-2.514h-8.049Zm19.393 0h2.7V71.723h-2.757v4.865c0 1.266.018 2.532.036 3.779l-.036.018c-.81-1.139-1.6-2.242-2.449-3.382l-3.907-5.28h-2.7v13.093h2.755v-4.864c0-1.266-.018-2.532-.036-3.779l.036-.018c.81 1.139 1.6 2.242 2.449 3.382Zm5.1-.759a9.558 9.558 0 0 0 4.123.958c2.809 0 4.736-1.537 4.736-4.087 0-2.315-1.585-3.237-3.547-3.888-1.574-.525-2.78-.615-2.78-1.772 0-.868.7-1.23 1.675-1.23a8.251 8.251 0 0 1 4 1.266v-2.839a8.944 8.944 0 0 0-3.979-.94c-2.737 0-4.574 1.519-4.574 3.96 0 2.278 1.621 3.165 3.421 3.761 1.675.542 2.9.651 2.9 1.863 0 .976-.774 1.392-1.819 1.392a8.209 8.209 0 0 1-4.159-1.356Zm10.714.759h2.863V71.723h-2.87Zm15.73 3.036 2.611-1.537a23.489 23.489 0 0 1-3.655-1.935v-.036a6.594 6.594 0 0 0 3.763-6.076 6.807 6.807 0 0 0-13.613 0 6.643 6.643 0 0 0 6.68 6.745 17.231 17.231 0 0 0 4.214 2.839Zm-4.087-5.443a3.983 3.983 0 0 1-3.943-4.141 3.948 3.948 0 1 1 7.887 0 3.983 3.983 0 0 1-3.944 4.142Zm13.181 2.405h2.737V71h-2.737Zm13.451-3.725a7.359 7.359 0 0 0 .054-.94 4.108 4.108 0 0 0-4.231-4.43 4.579 4.579 0 0 0-4.646 4.684c0 2.785 2.107 4.611 5.024 4.611a6.779 6.779 0 0 0 3.367-.814v-2.3a5.5 5.5 0 0 1-3.007.976 2.4 2.4 0 0 1-2.575-1.79Zm-6.033-1.737a1.832 1.832 0 0 1 1.819-1.537 1.733 1.733 0 0 1 1.747 1.537Zm7.8 4.919a8.378 8.378 0 0 0 3.493.741c2.269 0 3.961-1.067 3.979-3.02 0-1.537-1.026-2.188-2.719-2.6-1.314-.325-2.269-.271-2.269-.922 0-.416.432-.633 1.152-.633a7.437 7.437 0 0 1 3.331.958v-2.37a8.241 8.241 0 0 0-3.385-.705c-2.2 0-3.853 1.067-3.871 2.948 0 1.465.99 2.17 2.665 2.586 1.332.344 2.323.271 2.323.958 0 .488-.45.687-1.206.687a7.546 7.546 0 0 1-3.493-1.031Zm9.075 0a8.378 8.378 0 0 0 3.493.741c2.269 0 3.961-1.067 3.979-3.02 0-1.537-1.026-2.188-2.719-2.6-1.314-.325-2.269-.271-2.269-.922 0-.416.432-.633 1.152-.633a7.437 7.437 0 0 1 3.331.958v-2.37a8.241 8.241 0 0 0-3.385-.705c-2.2 0-3.853 1.067-3.871 2.948 0 1.465.99 2.17 2.665 2.586 1.332.344 2.323.271 2.323.958 0 .488-.45.687-1.206.687a7.546 7.546 0 0 1-3.493-1.031Zm19.519-1.935a3.161 3.161 0 0 1-1.314.362c-.828 0-1.026-.651-1.026-1.519v-2.982h2.341v-2.278h-2.341v-2.785l-2.737.47v2.315h-1.441v2.278h1.441v3.273a3.635 3.635 0 0 0 .774 2.658 3.115 3.115 0 0 0 2.3.886 4.067 4.067 0 0 0 2-.488Zm1.819 2.477h2.737V78.83a3.152 3.152 0 0 1 1.855-.741 1.171 1.171 0 0 1 .936.38 1.768 1.768 0 0 1 .306 1.248v5.1h2.729v-5.553a3.588 3.588 0 0 0-.774-2.64 3.183 3.183 0 0 0-2.323-.9 4.235 4.235 0 0 0-2.7 1.013l-.036-.018V71h-2.737Zm16.008-.542a2.586 2.586 0 0 0 1.909.705 2.966 2.966 0 0 0 1.314-.271v-2.059a1.029 1.029 0 0 1-.45.108c-.378 0-.54-.289-.54-.705v-3.02a2.949 2.949 0 0 0-.99-2.459 4.663 4.663 0 0 0-2.953-.85 7.02 7.02 0 0 0-3.1.687v2.369a5.515 5.515 0 0 1 2.593-.705 2.031 2.031 0 0 1 1.368.38 1.257 1.257 0 0 1 .342.94v.344a7.089 7.089 0 0 0-1.531-.163 4.361 4.361 0 0 0-2.485.633 2.539 2.539 0 0 0-1.08 2.152 2.429 2.429 0 0 0 1.044 2.08 3.591 3.591 0 0 0 2.053.579 4.3 4.3 0 0 0 2.467-.741Zm-.5-1.646a2.452 2.452 0 0 1-1.242.362c-.63 0-1.134-.307-1.134-.886 0-.687.7-.9 1.4-.9a3.591 3.591 0 0 1 .972.127Zm5.33 2.188h2.725V78.83a3.152 3.152 0 0 1 1.855-.741 1.171 1.171 0 0 1 .936.38 1.768 1.768 0 0 1 .306 1.248v5.1h2.737v-5.553a3.588 3.588 0 0 0-.774-2.64 3.183 3.183 0 0 0-2.323-.9 4.328 4.328 0 0 0-2.737 1.028l-.036-.018v-.815h-2.7Zm17.61-4.448a2.2 2.2 0 1 1 2.2 2.278 2.216 2.216 0 0 1-2.208-2.276Zm-2.737 0a4.943 4.943 0 1 0 4.934-4.647 4.7 4.7 0 0 0-4.942 4.649Zm11.752 4.451h2.737v-5.389a2.937 2.937 0 0 1 2.395-1.049 3.175 3.175 0 0 1 .738.09v-2.586a2.187 2.187 0 0 0-.576-.072 2.993 2.993 0 0 0-2.575 1.32l-.036-.018v-1.193h-2.683Zm-172.43 20.385a7.359 7.359 0 0 0 .054-.94 4.108 4.108 0 0 0-4.231-4.43 4.579 4.579 0 0 0-4.646 4.684c0 2.785 2.107 4.611 5.024 4.611a6.779 6.779 0 0 0 3.367-.814v-2.3a5.5 5.5 0 0 1-3.007.976 2.4 2.4 0 0 1-2.575-1.79Zm-6.032-1.736a1.832 1.832 0 0 1 1.819-1.537 1.733 1.733 0 0 1 1.743 1.537Zm13.955 5.136v4.3h2.737V100.03l-2.035.362a5.214 5.214 0 0 0-2.359-.561 4.592 4.592 0 0 0-4.736 4.774 4.268 4.268 0 0 0 4.267 4.521 4.167 4.167 0 0 0 2.089-.542Zm0-2.152a2.694 2.694 0 0 1-1.495.452 2.145 2.145 0 0 1-2.143-2.369 2.186 2.186 0 0 1 2.2-2.405 3.523 3.523 0 0 1 1.441.344Zm11.074 1.646v.832h2.7v-8.9h-2.737v5.949a2.767 2.767 0 0 1-1.8.8 1.261 1.261 0 0 1-.972-.4 1.8 1.8 0 0 1-.342-1.284v-5.062h-2.738v5.479a3.645 3.645 0 0 0 .846 2.731 3.107 3.107 0 0 0 2.3.886 3.98 3.98 0 0 0 2.7-1.049Zm10.21.289a2.586 2.586 0 0 0 1.909.705 2.966 2.966 0 0 0 1.314-.271v-2.066a1.029 1.029 0 0 1-.45.108c-.378 0-.54-.289-.54-.705v-3.02a2.949 2.949 0 0 0-.99-2.459 4.663 4.663 0 0 0-2.953-.85 7.02 7.02 0 0 0-3.1.687v2.369a5.515 5.515 0 0 1 2.593-.705 2.031 2.031 0 0 1 1.368.38 1.257 1.257 0 0 1 .342.94v.344a7.089 7.089 0 0 0-1.531-.163 4.361 4.361 0 0 0-2.485.633 2.539 2.539 0 0 0-1.08 2.152 2.429 2.429 0 0 0 1.044 2.08 3.591 3.591 0 0 0 2.053.579 4.3 4.3 0 0 0 2.467-.741Zm-.5-1.646a2.452 2.452 0 0 1-1.242.362c-.63 0-1.134-.307-1.134-.886 0-.687.7-.9 1.4-.9a3.591 3.591 0 0 1 .972.127Zm5.33 2.188h2.737V95.111h-2.744Zm15.372-2.474a3.161 3.161 0 0 1-1.314.362c-.828 0-1.026-.651-1.026-1.519v-2.987h2.341v-2.278h-2.342v-2.785l-2.737.47v2.315h-1.44v2.278h1.439v3.273a3.635 3.635 0 0 0 .774 2.658 3.115 3.115 0 0 0 2.3.886 4.067 4.067 0 0 0 2-.488Zm3.853-1.971a2.2 2.2 0 1 1 2.197 2.271 2.216 2.216 0 0 1-2.197-2.274Zm-2.737 0a4.943 4.943 0 1 0 4.934-4.647 4.7 4.7 0 0 0-4.929 4.644Zm20.275-8.647-2.827 4.34a7.591 7.591 0 0 0-1.62 4.378c0 2.875 2.143 4.575 4.844 4.575 2.791 0 4.862-1.844 4.862-4.358a3.961 3.961 0 0 0-3.979-4.069 3.226 3.226 0 0 0-1.368.271l-.018-.018 3.436-5.119Zm-1.513 8.933a1.972 1.972 0 1 1 1.963 1.953 1.933 1.933 0 0 1-1.962-1.953Zm24.795 4.159h2.737v-5.587a3.492 3.492 0 0 0-.81-2.622 3.082 3.082 0 0 0-2.287-.886 4.6 4.6 0 0 0-3.115 1.266 2.968 2.968 0 0 0-2.575-1.266 4.1 4.1 0 0 0-2.665 1.013l-.036-.018v-.8h-2.7v8.9h2.737v-6a2.866 2.866 0 0 1 1.729-.723 1.22 1.22 0 0 1 .936.38 1.683 1.683 0 0 1 .324 1.212v5.136h2.737v-5.592a2.941 2.941 0 0 0-.018-.4 2.773 2.773 0 0 1 1.747-.741 1.22 1.22 0 0 1 .936.38 1.623 1.623 0 0 1 .324 1.212Zm5.87 3.526a7.193 7.193 0 0 0 3.025.651c2.827 0 4.736-1.555 4.736-4.358v-8.788l-2.143.38a5 5 0 0 0-2.215-.506 4.479 4.479 0 0 0-4.61 4.647 4.15 4.15 0 0 0 4.123 4.358 3.72 3.72 0 0 0 2.071-.6l.036.018v.488a1.9 1.9 0 0 1-2.159 2.01 5.606 5.606 0 0 1-2.863-.9Zm5.024-6.239a2.745 2.745 0 0 1-1.386.38 2.219 2.219 0 0 1 .036-4.43 3.1 3.1 0 0 1 1.35.325Zm4.2 3.4h2.089l6.082-14.461h-2.089Zm9.6-.687h2.737v-4.52l.036-.018 3.223 4.539h3.241l-3.637-4.919 3.385-3.978h-3.115l-3.1 3.779-.036-.018v-8.68h-2.737Zm10.635 3.526a7.193 7.193 0 0 0 3.025.651c2.827 0 4.736-1.555 4.736-4.358v-8.788l-2.143.38a5 5 0 0 0-2.215-.506 4.479 4.479 0 0 0-4.61 4.647 4.151 4.151 0 0 0 4.123 4.358 3.72 3.72 0 0 0 2.071-.6l.036.018v.488a1.9 1.9 0 0 1-2.16 2.01 5.605 5.605 0 0 1-2.863-.9Zm5.024-6.239a2.745 2.745 0 0 1-1.386.38 2.219 2.219 0 0 1 .036-4.43 3.1 3.1 0 0 1 1.35.325Zm12.406 2.586.036-.018a3.974 3.974 0 0 0 1.711.344 4.5 4.5 0 0 0 4.628-4.72 4.281 4.281 0 0 0-4.2-4.575 3.818 3.818 0 0 0-2.2.669l-.036-.018v-.452h-2.683v12.876h2.737Zm0-2.242v-3.942a2.535 2.535 0 0 1 1.477-.488 2.193 2.193 0 0 1 2.142 2.425 2.156 2.156 0 0 1-2.215 2.351 3.09 3.09 0 0 1-1.404-.345Zm16.584-1.356a7.356 7.356 0 0 0 .054-.94 4.108 4.108 0 0 0-4.231-4.43 4.579 4.579 0 0 0-4.646 4.684c0 2.785 2.107 4.611 5.024 4.611a6.779 6.779 0 0 0 3.367-.814v-2.3a5.5 5.5 0 0 1-3.007.976 2.4 2.4 0 0 1-2.575-1.79Zm-6.032-1.736a1.832 1.832 0 0 1 1.819-1.537 1.733 1.733 0 0 1 1.747 1.537Zm8.049 5.461h2.737v-5.388a2.937 2.937 0 0 1 2.395-1.049 3.175 3.175 0 0 1 .738.09v-2.586a2.187 2.187 0 0 0-.576-.072 2.993 2.993 0 0 0-2.575 1.32l-.036-.018v-1.193h-2.683Zm-137.299 24.111h2.629l.81-2.387c.306-.886.576-1.718.81-2.532h.038c.234.814.5 1.682.792 2.55l.792 2.369h2.556l3.025-8.9h-2.647l-.9 2.8c-.288.9-.54 1.718-.774 2.568h-.036c-.252-.85-.5-1.646-.81-2.568l-.936-2.8h-2.035l-.954 2.8a84.44 84.44 0 0 0-.828 2.568h-.036a58.038 58.038 0 0 0-.774-2.568l-.9-2.8h-2.847Zm20.96-3.725a7.357 7.357 0 0 0 .054-.94 4.108 4.108 0 0 0-4.227-4.43 4.579 4.579 0 0 0-4.646 4.684c0 2.785 2.107 4.611 5.024 4.611a6.779 6.779 0 0 0 3.367-.814v-2.3a5.5 5.5 0 0 1-3.007.976 2.4 2.4 0 0 1-2.575-1.79Zm-6.032-1.736a1.832 1.832 0 0 1 1.819-1.537 1.733 1.733 0 0 1 1.747 1.537Zm16.313 1.736a7.36 7.36 0 0 0 .054-.94 4.108 4.108 0 0 0-4.231-4.43 4.579 4.579 0 0 0-4.646 4.684c0 2.785 2.107 4.611 5.024 4.611a6.779 6.779 0 0 0 3.367-.814v-2.3a5.5 5.5 0 0 1-3.007.976 2.4 2.4 0 0 1-2.575-1.79Zm-6.032-1.736a1.832 1.832 0 0 1 1.819-1.537 1.733 1.733 0 0 1 1.747 1.537Zm8.049 5.461h2.737v-4.52l.036-.018 3.223 4.539h3.241l-3.637-4.919 3.385-3.978h-3.115l-3.1 3.779-.036-.018v-8.68h-2.734Zm20.365 3.852a15.1 15.1 0 0 1 0-17.288h-2.536a13.8 13.8 0 0 0-2.647 8.644 13.8 13.8 0 0 0 2.647 8.644Zm10.786-3.852h2.7v-13.092h-2.755v4.864c0 1.266.018 2.532.036 3.779l-.036.018c-.81-1.139-1.6-2.242-2.449-3.382l-3.907-5.28h-2.7v13.093h2.755v-4.864c0-1.266-.018-2.532-.036-3.779l.036-.018c.81 1.139 1.6 2.242 2.449 3.382Zm5.042-7.541h8.859v-1.97h-8.859Zm0 3.96h8.859v-1.97h-8.859Zm15.215-9.512-2.827 4.34a7.591 7.591 0 0 0-1.621 4.376c0 2.875 2.143 4.575 4.844 4.575 2.791 0 4.862-1.844 4.862-4.358a3.961 3.961 0 0 0-3.979-4.069 3.226 3.226 0 0 0-1.368.271l-.018-.018 3.439-5.118Zm-1.513 8.933a1.972 1.972 0 1 1 1.963 1.953 1.933 1.933 0 0 1-1.962-1.952Zm12.965-8.933-2.827 4.34a7.591 7.591 0 0 0-1.621 4.376c0 2.875 2.143 4.575 4.844 4.575 2.791 0 4.862-1.844 4.862-4.358a3.961 3.961 0 0 0-3.979-4.069 3.226 3.226 0 0 0-1.368.271l-.018-.018 3.439-5.118Zm-1.513 8.933a1.972 1.972 0 1 1 1.963 1.953 1.933 1.933 0 0 1-1.962-1.952Zm8.067 8.011h2.539a13.8 13.8 0 0 0 2.647-8.644 13.8 13.8 0 0 0-2.647-8.644h-2.539a15.1 15.1 0 0 1 0 17.288Zm-69.385 20.264h2.737v-5.989a3.152 3.152 0 0 1 1.855-.741 1.171 1.171 0 0 1 .936.38 1.768 1.768 0 0 1 .306 1.248v5.1h2.737v-5.553a3.588 3.588 0 0 0-.774-2.64 3.183 3.183 0 0 0-2.323-.9 4.328 4.328 0 0 0-2.737 1.031l-.036-.018v-.818h-2.701Zm20.707 3.852a15.1 15.1 0 0 1 0-17.288H410.3a13.8 13.8 0 0 0-2.649 8.636 13.8 13.8 0 0 0 2.647 8.644Zm4.5-10.38a3.385 3.385 0 1 0-3.241-3.382 3.151 3.151 0 0 0 3.241 3.378Zm-.807 6.528h1.837l8.513-13.1h-1.837Zm.81-8.21a1.735 1.735 0 1 1 1.386-1.7 1.513 1.513 0 0 1-1.389 1.697Zm5.492 5.027a3.244 3.244 0 1 0 3.241-3.382 3.151 3.151 0 0 0-3.243 3.379Zm1.855 0a1.415 1.415 0 1 1 1.386 1.7 1.513 1.513 0 0 1-1.39-1.703Zm5.888 7.034h2.539a13.8 13.8 0 0 0 2.647-8.644 13.8 13.8 0 0 0-2.647-8.644h-2.539a15.1 15.1 0 0 1 0 17.288ZM525.92 96.996a9.588 9.588 0 0 0 4.122.954c2.808 0 4.734-1.53 4.734-4.068 0-2.3-1.584-3.222-3.546-3.87-1.569-.522-2.775-.612-2.775-1.76 0-.864.7-1.224 1.674-1.224 1.42.07 2.797.503 4 1.26v-2.83a8.972 8.972 0 0 0-3.978-.936c-2.736 0-4.572 1.512-4.572 3.942 0 2.268 1.62 3.15 3.42 3.744 1.674.54 2.9.648 2.9 1.854 0 .972-.774 1.386-1.818 1.386a8.23 8.23 0 0 1-4.161-1.35Zm14 .756h2.862v-10.53h4.212v-2.5h-11.285v2.5h4.211Zm8.712 0h2.862v-5.148h1.278l3.295 5.148h3.294l-3.672-5.508a3.624 3.624 0 0 0 2.646-3.6 3.347 3.347 0 0 0-1.566-3.06 7.844 7.844 0 0 0-4.05-.864h-4.086zm2.862-7.29v-3.24h1.1a4.877 4.877 0 0 1 2.142.342c.491.227.786.739.738 1.278a1.355 1.355 0 0 1-.738 1.314 4.1 4.1 0 0 1-1.8.306zm9.073 7.29h8.244v-2.5h-5.382v-3.1h4.464v-2.374h-4.464v-2.556h5.184v-2.5h-8.046zm19.386 0h2.7V84.72h-2.754v4.842c0 1.26.018 2.52.036 3.762l-.036.018c-.81-1.134-1.6-2.232-2.448-3.366l-3.906-5.256h-2.7v13.032h2.754V92.91c0-1.26-.018-2.52-.036-3.762l.036-.018c.81 1.134 1.6 2.232 2.448 3.366zm5.094-.756a9.588 9.588 0 0 0 4.122.954c2.808 0 4.734-1.53 4.734-4.068 0-2.3-1.584-3.222-3.546-3.87-1.566-.522-2.772-.612-2.772-1.764 0-.864.7-1.224 1.674-1.224 1.42.07 2.797.503 4 1.26v-2.826a8.972 8.972 0 0 0-3.978-.936c-2.736 0-4.572 1.512-4.572 3.942 0 2.268 1.62 3.15 3.42 3.744 1.674.54 2.9.648 2.9 1.854 0 .972-.774 1.386-1.818 1.386a8.23 8.23 0 0 1-4.158-1.35zm10.71.756h2.863V84.72h-2.863zm15.732 3.024 2.61-1.53a23.516 23.516 0 0 1-3.654-1.926v-.036a6.561 6.561 0 0 0 3.762-6.048 6.804 6.804 0 1 0-13.608 0 6.627 6.627 0 0 0 6.678 6.716 17.229 17.229 0 0 0 4.212 2.824zm-4.086-5.418a3.972 3.972 0 0 1-3.942-4.122c-.248-5.498 8.132-5.498 7.884 0a3.972 3.972 0 0 1-3.942 4.122zm24.624 2.394h2.736V92.19a3.466 3.466 0 0 0-.81-2.61 3.088 3.088 0 0 0-2.286-.882 4.6 4.6 0 0 0-3.114 1.26 2.972 2.972 0 0 0-2.574-1.26 4.1 4.1 0 0 0-2.664 1.008l-.036-.018v-.792h-2.7v8.856h2.736v-5.976a2.872 2.872 0 0 1 1.728-.72c.352-.015.693.123.936.378.26.345.376.777.324 1.206v5.112h2.736V92.19a2.97 2.97 0 0 0-.018-.4 2.778 2.778 0 0 1 1.746-.738c.352-.015.693.123.936.378.266.342.383.777.324 1.206zm7.326-4.428c.06-1.943 2.425-2.859 3.778-1.464 1.353 1.395.366 3.731-1.578 3.732a2.21 2.21 0 0 1-2.2-2.268zm-2.736 0c-.286 4.47 5.046 6.985 8.313 3.92 3.267-3.064 1.099-8.546-3.381-8.546a4.689 4.689 0 0 0-4.929 4.626zm11.754 4.428h2.736v-5.364a2.942 2.942 0 0 1 2.394-1.044c.249.001.496.031.738.09V88.86a2.195 2.195 0 0 0-.576-.072 3 3 0 0 0-2.574 1.314l-.036-.018v-1.188h-2.682zm15.57-3.708c.038-.31.056-.623.054-.936a4.1 4.1 0 0 0-4.23-4.41 4.567 4.567 0 0 0-4.645 4.662c0 2.772 2.106 4.59 5.022 4.59a6.8 6.8 0 0 0 3.366-.81v-2.288a5.51 5.51 0 0 1-3.006.972 2.4 2.4 0 0 1-2.574-1.782zm-6.03-1.728a1.83 1.83 0 0 1 1.818-1.53 1.73 1.73 0 0 1 1.746 1.53zm18.234 2.97a3.17 3.17 0 0 1-1.314.36c-.828 0-1.026-.648-1.026-1.512v-2.97h2.34v-2.268h-2.34v-2.772l-2.736.468v2.3h-1.44v2.268h1.44v3.262c-.102.95.176 1.901.774 2.646a3.121 3.121 0 0 0 2.3.882 4.079 4.079 0 0 0 2-.486zm1.818 2.466h2.736v-5.958a3.158 3.158 0 0 1 1.854-.738c.353-.022.697.117.936.378.255.36.364.804.306 1.242v5.076h2.736v-5.526a3.561 3.561 0 0 0-.774-2.628 3.19 3.19 0 0 0-2.322-.9c-.99.01-1.945.367-2.7 1.008l-.036-.018V84h-2.736zm16-.54a2.591 2.591 0 0 0 1.908.7c.453.011.902-.081 1.314-.27v-2.05c-.14.07-.294.107-.45.108-.378 0-.54-.288-.54-.7v-3.008a2.929 2.929 0 0 0-.99-2.448 4.676 4.676 0 0 0-2.952-.846 7.042 7.042 0 0 0-3.1.684v2.358a5.531 5.531 0 0 1 2.592-.7c.487-.042.972.092 1.368.378.239.251.363.59.342.936v.342a7.116 7.116 0 0 0-1.53-.162 4.374 4.374 0 0 0-2.484.63 2.524 2.524 0 0 0-1.08 2.142 2.414 2.414 0 0 0 1.044 2.07 3.6 3.6 0 0 0 2.052.576 4.311 4.311 0 0 0 2.466-.738zm-.5-1.638a2.458 2.458 0 0 1-1.242.36c-.63 0-1.134-.306-1.134-.882 0-.684.7-.9 1.4-.9a3.6 3.6 0 0 1 .972.126zm5.326 2.178h2.731v-5.958a3.158 3.158 0 0 1 1.854-.738c.353-.022.697.117.936.378.255.36.364.804.306 1.242v5.076h2.736v-5.526a3.561 3.561 0 0 0-.774-2.628 3.19 3.19 0 0 0-2.322-.9 4.337 4.337 0 0 0-2.736 1.026l-.036-.018v-.81h-2.7zm19.494-13.032-2.826 4.32a7.536 7.536 0 0 0-1.62 4.356c0 2.862 2.142 4.554 4.842 4.554 2.79 0 4.86-1.836 4.86-4.338a3.951 3.951 0 0 0-3.978-4.05c-.47-.01-.937.082-1.368.27l-.018-.018 3.438-5.094zm-1.512 8.892c-.025-1.766 2.105-2.672 3.36-1.429 1.254 1.243.368 3.382-1.398 3.373a1.928 1.928 0 0 1-1.962-1.944zm-169.236 28.14h2.736v-5.562a3.466 3.466 0 0 0-.81-2.61 3.088 3.088 0 0 0-2.286-.882 4.6 4.6 0 0 0-3.114 1.26 2.972 2.972 0 0 0-2.574-1.26 4.1 4.1 0 0 0-2.667 1.008l-.036-.018v-.792h-2.7v8.856h2.736v-5.976a2.872 2.872 0 0 1 1.728-.72c.352-.015.693.123.936.378.26.345.376.777.324 1.206v5.112h2.736v-5.562a2.905 2.905 0 0 0-.018-.4 2.778 2.778 0 0 1 1.746-.738c.352-.015.693.123.936.378.266.342.383.777.324 1.206zm5.868 3.51c.95.432 1.981.653 3.024.648 2.826 0 4.734-1.548 4.734-4.338v-8.748l-2.141.378a5.017 5.017 0 0 0-2.214-.5 4.468 4.468 0 0 0-4.608 4.626 4.14 4.14 0 0 0 4.122 4.334 3.73 3.73 0 0 0 2.07-.594l.036.018v.486a1.894 1.894 0 0 1-2.16 2 5.62 5.62 0 0 1-2.862-.9zm5.022-6.21c-.42.246-.899.377-1.386.378-2.791-.167-2.758-4.289.036-4.41.469.005.93.116 1.35.324zm4.195 3.384h2.088l6.084-14.4h-2.089Zm9.593-.684h2.736v-4.5l.036-.018 3.222 4.518h3.24l-3.636-4.9 3.384-3.96h-3.114l-3.1 3.762-.036-.018v-8.64h-2.732zm10.638 3.51c.95.432 1.981.653 3.024.648 2.826 0 4.734-1.548 4.734-4.338v-8.748l-2.142.378a5.017 5.017 0 0 0-2.214-.5 4.468 4.468 0 0 0-4.608 4.626 4.14 4.14 0 0 0 4.122 4.338 3.73 3.73 0 0 0 2.07-.594l.036.018v.486a1.894 1.894 0 0 1-2.16 2 5.62 5.62 0 0 1-2.862-.9zm5.022-6.21c-.42.246-.899.377-1.386.378-2.791-.167-2.758-4.289.036-4.41.469.005.93.116 1.35.324zm4.194 3.384h2.088l6.084-14.4h-2.088Zm11.7-.684h2.628l.81-2.376c.306-.882.576-1.71.81-2.52h.036c.234.81.5 1.674.792 2.538l.792 2.358h2.556l3.029-8.856h-2.651l-.9 2.79c-.288.9-.54 1.71-.774 2.556h-.036c-.252-.846-.5-1.638-.81-2.556l-.936-2.79h-2.034l-.959 2.79a83.84 83.84 0 0 0-.828 2.556h-.036a57.632 57.632 0 0 0-.774-2.556l-.9-2.79h-2.839Zm20.953-3.708c.038-.31.056-.623.054-.936a4.1 4.1 0 0 0-4.23-4.41 4.567 4.567 0 0 0-4.644 4.662c0 2.772 2.106 4.59 5.022 4.59a6.8 6.8 0 0 0 3.366-.81v-2.288a5.51 5.51 0 0 1-3.006.972 2.4 2.4 0 0 1-2.574-1.782zm-6.03-1.728a1.83 1.83 0 0 1 1.818-1.53 1.73 1.73 0 0 1 1.746 1.53zm16.308 1.728c.038-.31.056-.623.054-.936a4.1 4.1 0 0 0-4.23-4.41 4.567 4.567 0 0 0-4.644 4.662c0 2.772 2.106 4.59 5.022 4.59a6.8 6.8 0 0 0 3.366-.81v-2.288a5.51 5.51 0 0 1-3.006.972 2.4 2.4 0 0 1-2.574-1.782zm-6.03-1.728a1.83 1.83 0 0 1 1.818-1.53 1.73 1.73 0 0 1 1.746 1.53zm8.045 5.436h2.736v-4.5l.036-.018 3.222 4.518h3.24l-3.636-4.9 3.384-3.96h-3.114l-3.1 3.762-.036-.018v-8.64h-2.736zm20.8 3.834a14.192 14.192 0 0 1-2.718-8.6 14.192 14.192 0 0 1 2.718-8.6h-2.538a13.7 13.7 0 0 0-2.646 8.6 13.7 13.7 0 0 0 2.646 8.6zm10.786-3.834h2.7V108.72h-2.754v4.842c0 1.26.018 2.52.036 3.762l-.036.018c-.81-1.134-1.6-2.232-2.448-3.366l-3.906-5.256h-2.7v13.032h2.754v-4.842c0-1.26-.018-2.52-.036-3.762l.036-.018c.81 1.134 1.6 2.232 2.448 3.366zm5.04-7.506h8.856v-1.962h-8.856zm0 3.942h8.856v-1.962h-8.856zm13.824 3.564h2.862v-13.23l-5.508 2v2.59l2.646-.954zm6.534-.81a7.115 7.115 0 0 0 3.762 1.008c2.646 0 4.752-1.566 4.752-3.87a3.136 3.136 0 0 0-2.178-3.078v-.036a2.964 2.964 0 0 0 1.926-2.826c0-2.07-1.944-3.618-4.59-3.618a5.717 5.717 0 0 0-2.9.72v2.556a6 6 0 0 1 2.682-.756c1.17 0 1.944.576 1.944 1.566 0 .918-.666 1.566-2.07 1.566h-1.224v2.16h1.3c1.548 0 2.25.594 2.25 1.53 0 .99-.81 1.566-2.034 1.566a7.216 7.216 0 0 1-3.618-1.242zm9.882 4.644h2.541a13.7 13.7 0 0 0 2.646-8.6 13.7 13.7 0 0 0-2.646-8.6h-2.538a14.192 14.192 0 0 1 2.718 8.6 14.192 14.192 0 0 1-2.721 8.6zm-101.111 20.166h2.736v-5.958a3.158 3.158 0 0 1 1.854-.738c.353-.022.697.117.936.378.255.36.364.804.306 1.242v5.076h2.736v-5.526a3.561 3.561 0 0 0-.774-2.628 3.19 3.19 0 0 0-2.322-.9 4.337 4.337 0 0 0-2.736 1.026l-.036-.018v-.81h-2.7zm20.7 3.834a14.977 14.977 0 0 1 0-17.208h-2.538a13.7 13.7 0 0 0-2.646 8.6 13.7 13.7 0 0 0 2.646 8.6zm4.5-10.332c3.03.115 4.657-3.517 2.554-5.701-2.102-2.184-5.794-.697-5.794 2.335a3.142 3.142 0 0 0 3.24 3.364zm-.81 6.5h1.836l8.514-13.032h-1.836zm.81-8.172c-1.59.32-2.703-1.531-1.675-2.786 1.027-1.254 3.061-.528 3.061 1.094a1.508 1.508 0 0 1-1.386 1.69zm5.49 5c.11 2.857 3.593 4.183 5.575 2.124 1.982-2.06.524-5.49-2.335-5.49a3.142 3.142 0 0 0-3.24 3.368zm1.854 0c.235-1.17 1.724-1.541 2.48-.618.756.923.1 2.31-1.094 2.31a1.508 1.508 0 0 1-1.386-1.69zm5.886 7h2.538a13.7 13.7 0 0 0 2.646-8.6 13.7 13.7 0 0 0-2.646-8.6h-2.538a14.977 14.977 0 0 1 0 17.208zM763.679 120.752h2.862v-10.53h4.212v-2.5h-11.286v2.5h4.212Zm9.036-4.428a2.2 2.2 0 1 1 2.2 2.268 2.21 2.21 0 0 1-2.2-2.268Zm-2.736 0a4.689 4.689 0 0 0 4.93 4.628 4.635 4.635 0 1 0 0-9.252 4.689 4.689 0 0 0-4.93 4.624Zm17.5 1.962a3.17 3.17 0 0 1-1.314.36c-.828 0-1.026-.648-1.026-1.512v-2.97h2.34v-2.268h-2.34v-2.772l-2.74.468v2.3h-1.44v2.268h1.44v3.262a3.608 3.608 0 0 0 .774 2.646 3.121 3.121 0 0 0 2.3.882 4.079 4.079 0 0 0 2-.486Zm6.84 1.926a2.591 2.591 0 0 0 1.908.7 2.976 2.976 0 0 0 1.314-.27v-2.05a1.032 1.032 0 0 1-.45.108c-.378 0-.54-.288-.54-.7v-3.008a2.929 2.929 0 0 0-.99-2.448 4.676 4.676 0 0 0-2.952-.846 7.042 7.042 0 0 0-3.1.684v2.358a5.531 5.531 0 0 1 2.592-.7 2.036 2.036 0 0 1 1.368.378 1.248 1.248 0 0 1 .342.936v.342a7.116 7.116 0 0 0-1.53-.162 4.374 4.374 0 0 0-2.484.63 2.524 2.524 0 0 0-1.08 2.142 2.414 2.414 0 0 0 1.044 2.07 3.6 3.6 0 0 0 2.048.576 4.311 4.311 0 0 0 2.466-.738Zm-.5-1.638a2.458 2.458 0 0 1-1.242.36c-.63 0-1.134-.306-1.134-.882 0-.684.7-.9 1.4-.9a3.6 3.6 0 0 1 .972.126Zm5.32 2.178h2.736V107h-2.736Zm14.9 3.834a14.192 14.192 0 0 1-2.718-8.6 14.192 14.192 0 0 1 2.718-8.6h-2.53a13.7 13.7 0 0 0-2.646 8.6 13.7 13.7 0 0 0 2.646 8.6Zm10.786-3.834h2.7V107.72h-2.754v4.842c0 1.26.018 2.52.036 3.762l-.036.018c-.81-1.134-1.6-2.232-2.448-3.366l-3.906-5.256h-2.7v13.032h2.754v-4.842c0-1.26-.018-2.52-.036-3.762l.036-.018c.81 1.134 1.6 2.232 2.448 3.366Zm5.04-7.506h8.856v-1.962h-8.856Zm0 3.942h8.856v-1.962h-8.856Zm11.664 3.564h3.006l5.274-13-.018-.036h-9.182v2.5h5.184Zm14.76 0 2.754-4.446a8.353 8.353 0 0 0 1.566-4.338c0-2.772-2.178-4.428-4.824-4.428-2.772 0-4.86 1.836-4.86 4.374a3.96 3.96 0 0 0 4 4 3.474 3.474 0 0 0 1.112-.162l.018.036-3.078 4.964Zm-.576-7.074a1.876 1.876 0 0 1-1.98-1.872 1.91 1.91 0 0 1 1.98-1.89 1.935 1.935 0 0 1 1.962 1.926 1.853 1.853 0 0 1-1.966 1.836Zm6.1 10.908h2.538a13.7 13.7 0 0 0 2.646-8.6 13.7 13.7 0 0 0-2.646-8.6h-2.538a14.192 14.192 0 0 1 2.718 8.6 14.192 14.192 0 0 1-2.716 8.6Zm12.17-3.834h2.736v-5.958a3.158 3.158 0 0 1 1.854-.738 1.173 1.173 0 0 1 .936.378 1.755 1.755 0 0 1 .306 1.242v5.076h2.736v-5.526a3.561 3.561 0 0 0-.774-2.628 3.19 3.19 0 0 0-2.322-.9 4.337 4.337 0 0 0-2.736 1.026l-.036-.018v-.81h-2.7Zm20.7 3.834a14.192 14.192 0 0 1-2.718-8.6 14.192 14.192 0 0 1 2.718-8.6h-2.538a13.7 13.7 0 0 0-2.646 8.6 13.7 13.7 0 0 0 2.646 8.6Zm4.5-10.332a3.142 3.142 0 0 0 3.24-3.366 3.242 3.242 0 1 0-6.48 0 3.142 3.142 0 0 0 3.24 3.364Zm-.81 6.5h1.836l8.514-13.032h-1.836Zm.81-8.172a1.508 1.508 0 0 1-1.386-1.692 1.414 1.414 0 1 1 2.772 0 1.508 1.508 0 0 1-1.386 1.69Zm5.49 5a3.242 3.242 0 1 0 6.48 0 3.242 3.242 0 1 0-6.48 0Zm1.854 0a1.414 1.414 0 1 1 2.772 0 1.414 1.414 0 1 1-2.772 0Zm5.886 7h2.538a13.7 13.7 0 0 0 2.646-8.6 13.7 13.7 0 0 0-2.646-8.6h-2.542a14.192 14.192 0 0 1 2.718 8.6 14.192 14.192 0 0 1-2.718 8.604ZM977.601 107.996a9.588 9.588 0 0 0 4.122.954c2.808 0 4.734-1.53 4.734-4.068 0-2.3-1.584-3.222-3.546-3.87-1.566-.522-2.772-.612-2.772-1.764 0-.864.7-1.224 1.674-1.224a8.273 8.273 0 0 1 4 1.26v-2.826a8.972 8.972 0 0 0-3.978-.936c-2.736 0-4.572 1.512-4.572 3.942 0 2.268 1.62 3.15 3.42 3.744 1.674.54 2.9.648 2.9 1.854 0 .972-.774 1.386-1.818 1.386a8.23 8.23 0 0 1-4.158-1.35Zm14 .756h2.862v-10.53h4.212v-2.5h-11.279v2.5h4.212Zm8.712 0h2.862v-5.148h1.278l3.301 5.148h3.294l-3.672-5.508a3.624 3.624 0 0 0 2.646-3.6 3.347 3.347 0 0 0-1.566-3.06 7.844 7.844 0 0 0-4.05-.864h-4.086Zm2.862-7.29v-3.24h1.1a4.877 4.877 0 0 1 2.142.342 1.282 1.282 0 0 1 .738 1.278 1.355 1.355 0 0 1-.738 1.314 4.1 4.1 0 0 1-1.8.306Zm9.079 7.29h8.247v-2.5h-5.385v-3.1h4.464v-2.374h-4.464v-2.556h5.185v-2.5h-8.047Zm19.386 0h2.7V95.72h-2.754v4.842c0 1.26.018 2.52.036 3.762l-.036.018c-.81-1.134-1.6-2.232-2.448-3.366l-3.906-5.256h-2.7v13.032h2.754v-4.842c0-1.26-.018-2.52-.036-3.762l.036-.018c.81 1.134 1.6 2.232 2.448 3.366Zm5.094-.756a9.588 9.588 0 0 0 4.122.954c2.808 0 4.734-1.53 4.734-4.068 0-2.3-1.584-3.222-3.546-3.87-1.566-.522-2.772-.612-2.772-1.764 0-.864.7-1.224 1.674-1.224a8.273 8.273 0 0 1 4 1.26v-2.826a8.972 8.972 0 0 0-3.978-.936c-2.736 0-4.572 1.512-4.572 3.942 0 2.268 1.62 3.15 3.42 3.744 1.674.54 2.9.648 2.9 1.854 0 .972-.774 1.386-1.818 1.386a8.23 8.23 0 0 1-4.158-1.35Zm10.71.756h2.857V95.72h-2.857Zm15.732 3.024 2.61-1.53a23.516 23.516 0 0 1-3.654-1.926v-.036a6.561 6.561 0 0 0 3.762-6.048 6.804 6.804 0 0 0-13.608 0 6.627 6.627 0 0 0 6.678 6.714 17.229 17.229 0 0 0 4.212 2.826Zm-4.086-5.418a3.972 3.972 0 0 1-3.942-4.122 3.946 3.946 0 1 1 7.884 0 3.972 3.972 0 0 1-3.942 4.122Zm18.45 6.228a14.192 14.192 0 0 1-2.718-8.6 14.192 14.192 0 0 1 2.718-8.6h-2.539a13.7 13.7 0 0 0-2.646 8.6 13.7 13.7 0 0 0 2.646 8.6Zm10.782-3.834h2.7V95.72h-2.754v4.842c0 1.26.018 2.52.036 3.762l-.036.018c-.81-1.134-1.6-2.232-2.448-3.366l-3.906-5.256h-2.7v13.032h2.754v-4.842c0-1.26-.018-2.52-.036-3.762l.036-.018c.81 1.134 1.6 2.232 2.448 3.366Zm5.04-7.506h8.856v-1.962h-8.856Zm0 3.942h8.856v-1.962h-8.856Zm10.314 3.528.018.036h9.27v-2.5h-4.068l-.018-.036 1.566-2.07c1.35-1.8 2.052-3.15 2.052-4.608 0-2.448-2-4.014-4.572-4.014a5.609 5.609 0 0 0-3.312 1.044v2.684a5.218 5.218 0 0 1 3.042-1.17c1.152 0 1.944.612 1.944 1.71 0 .99-.648 1.944-1.944 3.672Zm16 .234a4.353 4.353 0 0 0 3.6-1.764 8.191 8.191 0 0 0 1.188-4.95 8.191 8.191 0 0 0-1.188-4.95 4.555 4.555 0 0 0-7.2 0 8.191 8.191 0 0 0-1.188 4.95 8.191 8.191 0 0 0 1.188 4.95 4.377 4.377 0 0 0 3.602 1.766Zm0-2.556a1.615 1.615 0 0 1-1.314-.7c-.432-.612-.612-1.656-.612-3.438a6.541 6.541 0 0 1 .612-3.474 1.57 1.57 0 0 1 1.314-.7 1.546 1.546 0 0 1 1.314.7 6.34 6.34 0 0 1 .612 3.438c0 1.836-.18 2.862-.612 3.474a1.589 1.589 0 0 1-1.312.7Zm6.138 6.192h2.538a13.7 13.7 0 0 0 2.646-8.6 13.7 13.7 0 0 0-2.646-8.6h-2.538a14.192 14.192 0 0 1 2.718 8.6 14.192 14.192 0 0 1-2.716 8.6Zm-91.042 20.166h2.736v-5.958a3.158 3.158 0 0 1 1.854-.738 1.173 1.173 0 0 1 .936.378 1.755 1.755 0 0 1 .306 1.242v5.076h2.736v-5.526a3.561 3.561 0 0 0-.774-2.628 3.19 3.19 0 0 0-2.322-.9 4.337 4.337 0 0 0-2.736 1.026l-.036-.018v-.81h-2.7Zm20.7 3.834a14.192 14.192 0 0 1-2.718-8.6 14.192 14.192 0 0 1 2.718-8.6h-2.538a13.7 13.7 0 0 0-2.646 8.6 13.7 13.7 0 0 0 2.646 8.6Zm4.5-10.332a3.142 3.142 0 0 0 3.24-3.366 3.242 3.242 0 1 0-6.48 0 3.142 3.142 0 0 0 3.24 3.364Zm-.81 6.5h1.839l8.514-13.032h-1.836Zm.81-8.172a1.508 1.508 0 0 1-1.386-1.692 1.414 1.414 0 1 1 2.772 0 1.508 1.508 0 0 1-1.386 1.69Zm5.49 5a3.242 3.242 0 1 0 6.48 0 3.242 3.242 0 1 0-6.48 0Zm1.854 0a1.414 1.414 0 1 1 1.386 1.692 1.508 1.508 0 0 1-1.386-1.69Zm5.886 7h2.538a13.7 13.7 0 0 0 2.646-8.6 13.7 13.7 0 0 0-2.646-8.6h-2.539a14.192 14.192 0 0 1 2.718 8.6 14.192 14.192 0 0 1-2.718 8.604ZM384.905 205.54a5.57 5.57 0 0 0 3.582 1.208c2.52 0 4.356-1.494 4.356-3.762a2.93 2.93 0 0 0-2.358-3.078v-.036a2.925 2.925 0 0 0 2.088-2.954c0-2.16-1.746-3.6-4.122-3.6a5.5 5.5 0 0 0-2.772.72v1.746a4.775 4.775 0 0 1 2.682-.882 2.215 2.215 0 0 1 2.5 2.178c0 1.278-.918 2.178-2.556 2.178h-1.173v1.512h1.224c1.854 0 2.772.9 2.772 2.178 0 1.386-1.116 2.214-2.664 2.214a5.105 5.105 0 0 1-3.564-1.584Zm10.278-2.646c0 2.214 1.728 3.852 4.374 3.852s4.375-1.638 4.375-3.852a3.25 3.25 0 0 0-2.25-3.222v-.036a2.809 2.809 0 0 0 1.89-2.754c0-2.034-1.6-3.564-4.014-3.564s-4.015 1.53-4.015 3.564a2.809 2.809 0 0 0 1.89 2.754v.036a3.25 3.25 0 0 0-2.25 3.222Zm4.374-3.816a2.231 2.231 0 0 1-2.394-2.124 2.411 2.411 0 0 1 4.788 0 2.231 2.231 0 0 1-2.394 2.124Zm-2.682 3.78a2.7 2.7 0 0 1 5.364 0 2.7 2.7 0 0 1-5.364 0Zm14.148-1.08a14.122 14.122 0 0 0 2.592 8.6h1.6a14.189 14.189 0 0 1-2.7-8.6 14.189 14.189 0 0 1 2.7-8.6h-1.6a14.122 14.122 0 0 0-2.592 8.6Zm6.174 4.1a6.266 6.266 0 0 0 3.276.864c2.736 0 4.626-1.548 4.626-3.96 0-2.97-2.826-3.96-5.526-3.96l.27-3.762h4.77l.126-1.548h-6.48l-.527 6.916a9.936 9.936 0 0 1 1.458-.108c1.818 0 4.194.522 4.194 2.538 0 1.44-1.224 2.3-2.916 2.3a5.269 5.269 0 0 1-3.15-1.062Zm10.026-2.988c0 2.214 1.728 3.852 4.374 3.852s4.374-1.638 4.374-3.852a3.25 3.25 0 0 0-2.25-3.222v-.036a2.809 2.809 0 0 0 1.89-2.754c0-2.034-1.6-3.564-4.014-3.564s-4.014 1.53-4.014 3.564a2.809 2.809 0 0 0 1.89 2.754v.036a3.25 3.25 0 0 0-2.25 3.226Zm4.374-3.816a2.231 2.231 0 0 1-2.394-2.124 2.411 2.411 0 0 1 4.788 0 2.231 2.231 0 0 1-2.394 2.128Zm-2.682 3.78a2.7 2.7 0 0 1 5.364 0 2.7 2.7 0 0 1-5.364 0Zm9.09 7.524h1.6a14.122 14.122 0 0 0 2.592-8.6 14.122 14.122 0 0 0-2.592-8.6h-1.6a14.189 14.189 0 0 1 2.7 8.6 14.189 14.189 0 0 1-2.7 8.604ZM395.957 282.411a5.57 5.57 0 0 0 3.582 1.208c2.52 0 4.356-1.494 4.356-3.762a2.93 2.93 0 0 0-2.363-3.08v-.036a2.925 2.925 0 0 0 2.093-2.952c0-2.16-1.746-3.6-4.122-3.6a5.5 5.5 0 0 0-2.772.72v1.746a4.775 4.775 0 0 1 2.682-.882 2.215 2.215 0 0 1 2.5 2.178c0 1.278-.918 2.178-2.556 2.178h-1.17v1.512h1.224c1.854 0 2.772.9 2.772 2.178 0 1.386-1.116 2.214-2.664 2.214a5.105 5.105 0 0 1-3.564-1.584Zm15.066-3.762a14.122 14.122 0 0 0 2.592 8.6h1.6a14.189 14.189 0 0 1-2.7-8.6 14.189 14.189 0 0 1 2.7-8.6h-1.6a14.122 14.122 0 0 0-2.592 8.6Zm6.174 4.1a6.266 6.266 0 0 0 3.276.864c2.736 0 4.626-1.548 4.626-3.96 0-2.97-2.826-3.96-5.526-3.96l.27-3.762h4.77l.126-1.548h-6.48l-.527 6.916a9.936 9.936 0 0 1 1.458-.108c1.818 0 4.194.522 4.194 2.538 0 1.44-1.224 2.3-2.916 2.3a5.269 5.269 0 0 1-3.15-1.062Zm9.756 4.5h1.6a14.122 14.122 0 0 0 2.592-8.6 14.122 14.122 0 0 0-2.592-8.6h-1.6a14.189 14.189 0 0 1 2.7 8.6 14.189 14.189 0 0 1-2.7 8.604ZM389.432 359.292h1.71v-13.23l-4.7 1.818v1.638l2.99-1.152Zm5.4-.036.018.036h8.64v-1.548h-5.22l-.018-.036 2.268-2.716c1.53-1.836 2.5-3.33 2.5-5.112 0-2.5-1.89-3.816-4.194-3.816a5.685 5.685 0 0 0-3.004.828v1.726a5.09 5.09 0 0 1 2.916-.972 2.276 2.276 0 0 1 2.574 2.322c0 1.224-.7 2.358-2.178 4.122Zm15.714-4.734a14.122 14.122 0 0 0 2.592 8.6h1.6a14.189 14.189 0 0 1-2.7-8.6 14.189 14.189 0 0 1 2.7-8.6h-1.6a14.122 14.122 0 0 0-2.592 8.6Zm9.54 4.77h1.71v-13.23l-4.7 1.818v1.638l2.988-1.152Zm6.03-3.654c0 2.214 1.728 3.852 4.374 3.852s4.374-1.638 4.374-3.852a3.25 3.25 0 0 0-2.25-3.222v-.036a2.809 2.809 0 0 0 1.89-2.754c0-2.034-1.6-3.564-4.014-3.564s-4.014 1.53-4.014 3.564a2.809 2.809 0 0 0 1.89 2.754v.036a3.25 3.25 0 0 0-2.25 3.222Zm4.374-3.816a2.231 2.231 0 0 1-2.394-2.124 2.411 2.411 0 0 1 4.788 0 2.231 2.231 0 0 1-2.394 2.124Zm-2.682 3.78a2.7 2.7 0 0 1 5.364 0 2.7 2.7 0 0 1-5.364 0Zm9.09 7.524h1.6a14.122 14.122 0 0 0 2.592-8.6 14.122 14.122 0 0 0-2.592-8.6h-1.6a14.189 14.189 0 0 1 2.7 8.6 14.189 14.189 0 0 1-2.7 8.6ZM392.78 434.166h1.782l5.436-13-.018-.036h-8.5v1.552h6.1Zm13.914-4.77a14.122 14.122 0 0 0 2.592 8.6h1.6a14.189 14.189 0 0 1-2.7-8.6 14.189 14.189 0 0 1 2.7-8.6h-1.6a14.122 14.122 0 0 0-2.592 8.6Zm9.538 4.77h1.71v-13.23l-4.7 1.818v1.638l2.99-1.152Zm9.342 0h1.71v-13.23l-4.7 1.818v1.638l2.988-1.152Zm5.76 3.834h1.6a14.122 14.122 0 0 0 2.592-8.6 14.122 14.122 0 0 0-2.592-8.6h-1.6a14.189 14.189 0 0 1 2.7 8.6 14.189 14.189 0 0 1-2.702 8.6ZM606.066 193.516l-2.916 4.7c-1.17 1.89-1.584 3.006-1.584 4.23a4.435 4.435 0 0 0 8.856.18 3.867 3.867 0 0 0-3.96-3.942 3.359 3.359 0 0 0-1.98.576l-.036-.018c.126-.234.306-.522.486-.792l3.1-4.932Zm-2.772 9.09a2.591 2.591 0 0 1 2.754-2.484 2.552 2.552 0 0 1 2.682 2.556 2.581 2.581 0 0 1-2.721 2.556 2.662 2.662 0 0 1-2.715-2.628Zm14.166-.828a14.122 14.122 0 0 0 2.592 8.6h1.6a14.189 14.189 0 0 1-2.7-8.6 14.189 14.189 0 0 1 2.7-8.6h-1.6a14.122 14.122 0 0 0-2.592 8.6Zm13.77-8.262h-1.566l-6.714 9.846.018.036h6.57v3.15h1.692v-3.15h2.34v-1.512h-2.34Zm-3.312 5.058a71.897 71.897 0 0 0 1.62-2.448l.036.018c-.018.792-.036 1.764-.036 2.664v3.078h-3.829l-.018-.036Zm11.808-5.058-2.916 4.7c-1.17 1.89-1.584 3.006-1.584 4.23a4.435 4.435 0 0 0 8.856.18 3.867 3.867 0 0 0-3.96-3.942 3.359 3.359 0 0 0-1.98.576l-.033-.02c.126-.234.306-.522.486-.792l3.1-4.932Zm-2.772 9.09a2.591 2.591 0 0 1 2.754-2.484 2.552 2.552 0 0 1 2.682 2.556 2.581 2.581 0 0 1-2.718 2.556 2.662 2.662 0 0 1-2.718-2.628Zm9.108 7.776h1.6a14.122 14.122 0 0 0 2.592-8.6 14.122 14.122 0 0 0-2.592-8.6h-1.6a14.189 14.189 0 0 1 2.7 8.6 14.189 14.189 0 0 1-2.7 8.6ZM611.709 283.619a3.867 3.867 0 0 0 3.2-1.584 8.785 8.785 0 0 0 1.242-5.13 8.785 8.785 0 0 0-1.242-5.132 4.032 4.032 0 0 0-6.408 0 8.785 8.785 0 0 0-1.242 5.13 8.785 8.785 0 0 0 1.242 5.13 3.867 3.867 0 0 0 3.208 1.586Zm0-1.584a2.226 2.226 0 0 1-1.8-.882 7.409 7.409 0 0 1-.936-4.248 7.409 7.409 0 0 1 .936-4.25 2.278 2.278 0 0 1 3.6 0 7.409 7.409 0 0 1 .936 4.248 7.409 7.409 0 0 1-.936 4.248 2.226 2.226 0 0 1-1.8.882Zm11.592-3.384a14.122 14.122 0 0 0 2.592 8.6h1.6a14.189 14.189 0 0 1-2.7-8.6 14.189 14.189 0 0 1 2.7-8.6h-1.6a14.122 14.122 0 0 0-2.592 8.598Zm10.728 4.968a3.867 3.867 0 0 0 3.2-1.584 8.785 8.785 0 0 0 1.242-5.13 8.785 8.785 0 0 0-1.242-5.13 4.032 4.032 0 0 0-6.408 0 8.785 8.785 0 0 0-1.242 5.13 8.785 8.785 0 0 0 1.242 5.13 3.867 3.867 0 0 0 3.208 1.584Zm0-1.584a2.226 2.226 0 0 1-1.8-.882 7.409 7.409 0 0 1-.936-4.248 7.409 7.409 0 0 1 .936-4.248 2.278 2.278 0 0 1 3.6 0 7.409 7.409 0 0 1 .936 4.248 7.409 7.409 0 0 1-.936 4.248 2.226 2.226 0 0 1-1.8.88Zm6.534 5.22h1.6a14.122 14.122 0 0 0 2.592-8.6 14.122 14.122 0 0 0-2.592-8.6h-1.6a14.189 14.189 0 0 1 2.7 8.6 14.189 14.189 0 0 1-2.7 8.598ZM603.078 359.256l.018.036h8.64v-1.548h-5.22l-.018-.036 2.268-2.716c1.53-1.836 2.5-3.33 2.5-5.112 0-2.5-1.89-3.816-4.194-3.816a5.685 5.685 0 0 0-3.006.828v1.726a5.09 5.09 0 0 1 2.916-.972 2.276 2.276 0 0 1 2.574 2.322c0 1.224-.7 2.358-2.178 4.122Zm15.714-4.734a14.122 14.122 0 0 0 2.592 8.6h1.6a14.189 14.189 0 0 1-2.7-8.6 14.189 14.189 0 0 1 2.7-8.6h-1.6a14.122 14.122 0 0 0-2.592 8.6Zm9.54 4.77h1.71v-13.23l-4.7 1.818v1.638l2.988-1.152Zm5.976-.666a6.266 6.266 0 0 0 3.276.864c2.736 0 4.626-1.548 4.626-3.96 0-2.97-2.826-3.96-5.526-3.96l.27-3.762h4.77l.126-1.548h-6.48l-.522 6.912a9.936 9.936 0 0 1 1.458-.108c1.818 0 4.194.522 4.194 2.538 0 1.44-1.224 2.3-2.916 2.3a5.269 5.269 0 0 1-3.15-1.062Zm9.756 4.5h1.6a14.122 14.122 0 0 0 2.592-8.6 14.122 14.122 0 0 0-2.592-8.6h-1.6a14.189 14.189 0 0 1 2.7 8.6 14.189 14.189 0 0 1-2.7 8.6ZM603.087 433.158a5.57 5.57 0 0 0 3.582 1.208c2.52 0 4.356-1.494 4.356-3.762a2.93 2.93 0 0 0-2.358-3.078v-.036a2.925 2.925 0 0 0 2.088-2.954c0-2.16-1.746-3.6-4.122-3.6a5.5 5.5 0 0 0-2.772.72v1.746a4.775 4.775 0 0 1 2.682-.882 2.215 2.215 0 0 1 2.5 2.178c0 1.278-.918 2.178-2.556 2.178h-1.168v1.512h1.224c1.854 0 2.772.9 2.772 2.178 0 1.386-1.116 2.214-2.664 2.214a5.105 5.105 0 0 1-3.564-1.584Zm15.066-3.762a14.122 14.122 0 0 0 2.592 8.6h1.6a14.189 14.189 0 0 1-2.7-8.6 14.189 14.189 0 0 1 2.7-8.6h-1.6a14.122 14.122 0 0 0-2.592 8.6Zm5.6 4.734.018.036h8.64v-1.548h-5.22l-.018-.036 2.266-2.716c1.53-1.836 2.5-3.33 2.5-5.112 0-2.5-1.89-3.816-4.194-3.816a5.685 5.685 0 0 0-3.006.828v1.726a5.09 5.09 0 0 1 2.916-.972 2.276 2.276 0 0 1 2.574 2.322c0 1.224-.7 2.358-2.178 4.122Zm10.818-.972a5.57 5.57 0 0 0 3.582 1.206c2.52 0 4.356-1.494 4.356-3.762a2.93 2.93 0 0 0-2.358-3.078v-.036a2.925 2.925 0 0 0 2.088-2.952c0-2.16-1.746-3.6-4.122-3.6a5.5 5.5 0 0 0-2.772.72v1.746a4.775 4.775 0 0 1 2.682-.882 2.215 2.215 0 0 1 2.5 2.178c0 1.278-.918 2.178-2.556 2.178h-1.17v1.512h1.224c1.854 0 2.772.9 2.772 2.178 0 1.386-1.116 2.214-2.664 2.214a5.105 5.105 0 0 1-3.564-1.584ZM644.579 438h1.6a14.122 14.122 0 0 0 2.592-8.6 14.122 14.122 0 0 0-2.592-8.6h-1.6a14.189 14.189 0 0 1 2.7 8.6 14.189 14.189 0 0 1-2.702 8.6ZM817.816 193.516h-1.569l-6.714 9.846.018.036h6.57v3.15h1.695v-3.15h2.34v-1.512h-2.34Zm-3.312 5.058a71.897 71.897 0 0 0 1.62-2.448l.036.018c-.018.792-.036 1.764-.036 2.664v3.078h-3.837l-.018-.036Zm14.991-5.058h-1.566l-6.713 9.846.018.036h6.57v3.15h1.692v-3.15h2.34v-1.512h-2.34Zm-3.312 5.058a71.897 71.897 0 0 0 1.62-2.448l.036.018c-.018.792-.036 1.764-.036 2.664v3.078h-3.834l-.018-.036Zm12.24 3.2a14.122 14.122 0 0 0 2.592 8.6h1.6a14.189 14.189 0 0 1-2.7-8.6 14.189 14.189 0 0 1 2.7-8.6h-1.599a14.122 14.122 0 0 0-2.593 8.604Zm6.174 4.1a6.266 6.266 0 0 0 3.276.864c2.736 0 4.626-1.548 4.626-3.96 0-2.97-2.826-3.96-5.526-3.96l.27-3.762h4.773l.126-1.548h-6.48l-.522 6.912a9.936 9.936 0 0 1 1.458-.108c1.818 0 4.194.522 4.194 2.538 0 1.44-1.224 2.3-2.916 2.3a5.269 5.269 0 0 1-3.15-1.062Zm14.382-12.358-2.916 4.7c-1.17 1.89-1.584 3.006-1.584 4.23a4.435 4.435 0 0 0 8.856.18 3.867 3.867 0 0 0-3.96-3.942 3.359 3.359 0 0 0-1.98.576l-.036-.018c.126-.234.306-.522.486-.792l3.1-4.932Zm-2.772 9.09a2.591 2.591 0 0 1 2.754-2.484 2.552 2.552 0 0 1 2.682 2.556 2.581 2.581 0 0 1-2.718 2.556 2.662 2.662 0 0 1-2.718-2.628Zm9.108 7.776h1.6a14.122 14.122 0 0 0 2.592-8.6 14.122 14.122 0 0 0-2.592-8.6h-1.6a14.189 14.189 0 0 1 2.7 8.6 14.189 14.189 0 0 1-2.699 8.6ZM821.388 282.411a5.57 5.57 0 0 0 3.582 1.208c2.52 0 4.356-1.494 4.356-3.762a2.93 2.93 0 0 0-2.358-3.078v-.036a2.925 2.925 0 0 0 2.088-2.954c0-2.16-1.746-3.6-4.122-3.6a5.5 5.5 0 0 0-2.772.72v1.746a4.775 4.775 0 0 1 2.682-.882 2.215 2.215 0 0 1 2.5 2.178c0 1.278-.918 2.178-2.556 2.178h-1.17v1.512h1.224c1.854 0 2.772.9 2.772 2.178 0 1.386-1.116 2.214-2.664 2.214a5.105 5.105 0 0 1-3.562-1.584Zm15.066-3.762a14.122 14.122 0 0 0 2.592 8.6h1.6a14.189 14.189 0 0 1-2.7-8.6 14.189 14.189 0 0 1 2.7-8.6h-1.6a14.122 14.122 0 0 0-2.592 8.6Zm13.77-8.262h-1.566l-6.714 9.846.018.036h6.57v3.15h1.692v-3.15h2.34v-1.512h-2.34Zm-3.312 5.058a71.897 71.897 0 0 0 1.62-2.448l.036.018c-.018.792-.036 1.764-.036 2.664v3.078h-3.834l-.018-.036Zm7.182 11.808h1.6a14.122 14.122 0 0 0 2.592-8.6 14.122 14.122 0 0 0-2.592-8.6h-1.6a14.189 14.189 0 0 1 2.7 8.6 14.189 14.189 0 0 1-2.7 8.6ZM815.023 359.292h1.71v-13.23l-4.7 1.818v1.638l2.988-1.152Zm13.572-13.032h-1.566l-6.713 9.846.018.036h6.57v3.15h1.692v-3.15h2.34v-1.512h-2.34Zm-3.312 5.058a71.897 71.897 0 0 0 1.62-2.448l.036.018c-.018.792-.036 1.764-.036 2.664v3.078h-3.834l-.018-.036Zm12.24 3.2a14.122 14.122 0 0 0 2.592 8.6h1.6a14.189 14.189 0 0 1-2.7-8.6 14.189 14.189 0 0 1 2.7-8.6h-1.6a14.122 14.122 0 0 0-2.592 8.604Zm9.54 4.77h1.71v-13.226l-4.7 1.818v1.638l2.988-1.152Zm6.03-3.654c0 2.214 1.728 3.852 4.374 3.852s4.374-1.638 4.374-3.852a3.25 3.25 0 0 0-2.25-3.222v-.036a2.809 2.809 0 0 0 1.89-2.754c0-2.034-1.6-3.564-4.014-3.564s-4.014 1.53-4.014 3.564a2.809 2.809 0 0 0 1.89 2.754v.036a3.25 3.25 0 0 0-2.25 3.226Zm4.374-3.816a2.231 2.231 0 0 1-2.394-2.124 2.411 2.411 0 0 1 4.788 0 2.231 2.231 0 0 1-2.394 2.128Zm-2.682 3.78a2.7 2.7 0 0 1 5.364 0 2.7 2.7 0 0 1-5.364 0Zm9.09 7.524h1.6a14.122 14.122 0 0 0 2.592-8.6 14.122 14.122 0 0 0-2.592-8.6h-1.6a14.189 14.189 0 0 1 2.7 8.6 14.189 14.189 0 0 1-2.7 8.604ZM815.653 434.166h1.71v-13.23l-4.7 1.818v1.638l2.988-1.152Zm10.53.2a3.867 3.867 0 0 0 3.2-1.584 8.785 8.785 0 0 0 1.242-5.13 8.785 8.785 0 0 0-1.242-5.13 4.032 4.032 0 0 0-6.408 0 8.785 8.785 0 0 0-1.242 5.13 8.785 8.785 0 0 0 1.242 5.13 3.867 3.867 0 0 0 3.208 1.584Zm0-1.584a2.226 2.226 0 0 1-1.8-.882 7.409 7.409 0 0 1-.936-4.248 7.409 7.409 0 0 1 .936-4.248 2.278 2.278 0 0 1 3.6 0 7.409 7.409 0 0 1 .936 4.248 7.409 7.409 0 0 1-.936 4.248 2.226 2.226 0 0 1-1.8.88Zm11.592-3.384a14.122 14.122 0 0 0 2.592 8.6h1.6a14.189 14.189 0 0 1-2.7-8.6 14.189 14.189 0 0 1 2.7-8.6h-1.6a14.122 14.122 0 0 0-2.592 8.598Zm9.541 4.768h1.71v-13.23l-4.7 1.818v1.638l2.99-1.152Zm5.922-1.008a5.57 5.57 0 0 0 3.578 1.208c2.52 0 4.356-1.494 4.356-3.762a2.93 2.93 0 0 0-2.358-3.078v-.036a2.925 2.925 0 0 0 2.088-2.952c0-2.16-1.746-3.6-4.122-3.6a5.5 5.5 0 0 0-2.772.72v1.744a4.775 4.775 0 0 1 2.682-.882 2.215 2.215 0 0 1 2.5 2.178c0 1.278-.918 2.178-2.556 2.178h-1.17v1.512h1.224c1.854 0 2.772.9 2.772 2.178 0 1.386-1.116 2.214-2.664 2.214a5.105 5.105 0 0 1-3.564-1.584ZM863.246 438h1.6a14.122 14.122 0 0 0 2.592-8.6 14.122 14.122 0 0 0-2.592-8.6h-1.6a14.189 14.189 0 0 1 2.7 8.6 14.189 14.189 0 0 1-2.701 8.6ZM1028.901 206.548h1.71v-13.23l-4.7 1.818v1.638l2.99-1.152Zm6.03-3.654c0 2.214 1.728 3.852 4.374 3.852s4.374-1.638 4.374-3.852a3.25 3.25 0 0 0-2.25-3.222v-.036a2.809 2.809 0 0 0 1.89-2.754c0-2.034-1.6-3.564-4.014-3.564s-4.011 1.53-4.011 3.564a2.809 2.809 0 0 0 1.89 2.754v.036a3.25 3.25 0 0 0-2.25 3.222Zm4.374-3.816a2.231 2.231 0 0 1-2.394-2.124 2.411 2.411 0 0 1 4.788 0 2.231 2.231 0 0 1-2.391 2.124Zm-2.682 3.78a2.7 2.7 0 0 1 5.364 0 2.7 2.7 0 0 1-5.364 0Zm14.148-1.08a14.122 14.122 0 0 0 2.592 8.6h1.6a14.189 14.189 0 0 1-2.7-8.6 14.189 14.189 0 0 1 2.7-8.6h-1.6a14.122 14.122 0 0 0-2.589 8.6Zm10.191 4.77 3.042-4.86a7.737 7.737 0 0 0 1.566-4.176 4.1 4.1 0 0 0-4.356-4.194 4.19 4.19 0 0 0-4.464 4.14 3.879 3.879 0 0 0 3.942 3.924 3.5 3.5 0 0 0 1.764-.432l.036.036-3.491 5.562Zm.18-6.624a2.53 2.53 0 0 1-2.7-2.52 2.591 2.591 0 0 1 2.718-2.556 2.621 2.621 0 0 1 2.682 2.574 2.537 2.537 0 0 1-2.7 2.502Zm11.088 6.824a3.867 3.867 0 0 0 3.2-1.584 8.785 8.785 0 0 0 1.242-5.13 8.785 8.785 0 0 0-1.242-5.13 4.032 4.032 0 0 0-6.408 0 8.785 8.785 0 0 0-1.242 5.13 8.785 8.785 0 0 0 1.242 5.13 3.867 3.867 0 0 0 3.208 1.584Zm0-1.584a2.226 2.226 0 0 1-1.8-.882 7.409 7.409 0 0 1-.936-4.248 7.409 7.409 0 0 1 .936-4.248 2.278 2.278 0 0 1 3.6 0 7.409 7.409 0 0 1 .936 4.248 7.409 7.409 0 0 1-.936 4.248 2.226 2.226 0 0 1-1.8.88Zm6.534 5.22h1.6a14.122 14.122 0 0 0 2.592-8.6 14.122 14.122 0 0 0-2.592-8.6h-1.6a14.189 14.189 0 0 1 2.7 8.6 14.189 14.189 0 0 1-2.7 8.598ZM1030.801 283.419h1.71v-13.23l-4.7 1.818v1.638l2.99-1.152Zm9.342 0h1.71v-13.23l-4.7 1.818v1.638l2.988-1.152Zm10.818-4.77a14.122 14.122 0 0 0 2.592 8.6h1.6a14.189 14.189 0 0 1-2.7-8.6 14.189 14.189 0 0 1 2.7-8.6h-1.6a14.122 14.122 0 0 0-2.59 8.6Zm6.174 4.1a6.266 6.266 0 0 0 3.276.864c2.736 0 4.626-1.548 4.626-3.96 0-2.97-2.826-3.96-5.526-3.96l.27-3.762h4.77l.126-1.548h-6.476l-.522 6.912a9.936 9.936 0 0 1 1.458-.108c1.818 0 4.194.522 4.194 2.538 0 1.44-1.224 2.3-2.916 2.3a5.269 5.269 0 0 1-3.15-1.062Zm9.972 0a6.266 6.266 0 0 0 3.276.864c2.736 0 4.626-1.548 4.626-3.96 0-2.97-2.826-3.96-5.526-3.96l.27-3.762h4.77l.126-1.548h-6.48l-.522 6.912a9.936 9.936 0 0 1 1.458-.108c1.818 0 4.194.522 4.194 2.538 0 1.44-1.224 2.3-2.916 2.3a5.269 5.269 0 0 1-3.15-1.062Zm9.756 4.5h1.6a14.122 14.122 0 0 0 2.592-8.6 14.122 14.122 0 0 0-2.592-8.6h-1.6a14.189 14.189 0 0 1 2.7 8.6 14.189 14.189 0 0 1-2.698 8.604ZM1028.94 359.292h1.71v-13.23l-4.7 1.818v1.638l2.988-1.152Zm13.572-13.032h-1.566l-6.714 9.846.018.036h6.57v3.15h1.692v-3.15h2.34v-1.512h-2.34Zm-3.311 5.058a71.897 71.897 0 0 0 1.62-2.448l.036.018c-.018.792-.036 1.764-.036 2.664v3.078h-3.835l-.018-.036Zm12.24 3.2a14.122 14.122 0 0 0 2.592 8.6h1.6a14.189 14.189 0 0 1-2.7-8.6 14.189 14.189 0 0 1 2.7-8.6h-1.6a14.122 14.122 0 0 0-2.593 8.604Zm7.325 4.774h1.782l5.436-13-.018-.036h-8.5v1.552h6.1Zm13.428.2a3.867 3.867 0 0 0 3.2-1.584 8.785 8.785 0 0 0 1.242-5.13 8.785 8.785 0 0 0-1.242-5.13 4.032 4.032 0 0 0-6.408 0 8.785 8.785 0 0 0-1.242 5.13 8.785 8.785 0 0 0 1.242 5.13 3.867 3.867 0 0 0 3.208 1.584Zm0-1.584a2.226 2.226 0 0 1-1.8-.882 7.409 7.409 0 0 1-.936-4.248 7.409 7.409 0 0 1 .936-4.248 2.278 2.278 0 0 1 3.6 0 7.409 7.409 0 0 1 .936 4.248 7.409 7.409 0 0 1-.936 4.248 2.226 2.226 0 0 1-1.8.88Zm6.534 5.22h1.6a14.122 14.122 0 0 0 2.592-8.6 14.122 14.122 0 0 0-2.592-8.6h-1.6a14.189 14.189 0 0 1 2.7 8.6 14.189 14.189 0 0 1-2.7 8.598ZM1030.701 434.13l.018.036h8.64v-1.548h-5.22l-.018-.036 2.271-2.716c1.53-1.836 2.5-3.33 2.5-5.112 0-2.5-1.89-3.816-4.194-3.816a5.685 5.685 0 0 0-3.006.828v1.726a5.09 5.09 0 0 1 2.916-.972 2.276 2.276 0 0 1 2.574 2.322c0 1.224-.7 2.358-2.178 4.122Zm15.717-4.734a14.122 14.122 0 0 0 2.592 8.6h1.6a14.189 14.189 0 0 1-2.7-8.6 14.189 14.189 0 0 1 2.7-8.6h-1.6a14.122 14.122 0 0 0-2.592 8.6Zm9.54 4.77h1.71v-13.23l-4.7 1.818v1.638l2.988-1.152Zm10.53.2a3.867 3.867 0 0 0 3.2-1.584 8.785 8.785 0 0 0 1.242-5.13 8.785 8.785 0 0 0-1.242-5.13 4.032 4.032 0 0 0-6.408 0 8.785 8.785 0 0 0-1.242 5.13 8.785 8.785 0 0 0 1.242 5.13 3.867 3.867 0 0 0 3.208 1.584Zm0-1.584a2.226 2.226 0 0 1-1.8-.882 7.409 7.409 0 0 1-.936-4.248 7.409 7.409 0 0 1 .936-4.248 2.278 2.278 0 0 1 3.6 0 7.409 7.409 0 0 1 .936 4.248 7.409 7.409 0 0 1-.936 4.248 2.226 2.226 0 0 1-1.8.88Zm6.534 5.22h1.6a14.122 14.122 0 0 0 2.592-8.6 14.122 14.122 0 0 0-2.592-8.6h-1.6a14.189 14.189 0 0 1 2.7 8.6 14.189 14.189 0 0 1-2.7 8.598Z"/></g><g aria-label="Injection-site" style="font-weight:700;font-size:17.3333px;font-family:&quot;Azo Sans&quot;;-inkscape-font-specification:&quot;Azo Sans Bold&quot;;letter-spacing:.45px;word-spacing:0;fill:#343434;stroke-width:3.5"><path d="M54.888 205.895v-12.549h2.756v12.55zM60.33 205.895v-8.528h2.6v.78l.034.018q1.214-.988 2.635-.988 1.404 0 2.236.866.745.798.745 2.531v5.321h-2.634v-4.888q0-.849-.295-1.196-.312-.364-.901-.364-.867 0-1.786.711v5.737zM71.474 195.738q-.45-.45-.45-1.075 0-.624.45-1.057.451-.45 1.075-.45.624 0 1.075.45.45.433.45 1.057 0 .624-.45 1.075-.45.433-1.075.433-.624 0-1.075-.433zm-.242 10.573v-8.944h2.634v8.771q0 2.028-.78 2.843-.9.918-2.582.918-.676 0-1.196-.138v-2.167q.468.087.866.087.642 0 .85-.33.208-.312.208-1.04zM84.456 202.325h-5.789q.208.85.867 1.282.658.434 1.612.434 1.508 0 2.894-.936v2.201q-1.248.78-3.24.78-2.133 0-3.485-1.213-1.352-1.23-1.352-3.207 0-1.976 1.317-3.224 1.318-1.265 3.155-1.265 1.699 0 2.877 1.11 1.196 1.108 1.196 3.136 0 .555-.052.902zm-4.056-3.138q-.624 0-1.109.382-.485.381-.641 1.092h3.432q-.122-.676-.59-1.075-.45-.399-1.092-.399zM86.154 201.649q0-1.976 1.422-3.224 1.421-1.248 3.466-1.248 1.387 0 2.531.572v2.444q-1.248-.798-2.41-.798-1.04 0-1.715.642-.659.624-.659 1.594 0 .971.676 1.595t1.733.624q1.37 0 2.496-.85v2.427q-1.196.66-2.79.66-2.063 0-3.415-1.249-1.335-1.265-1.335-3.19zM97.386 205.237q-.746-.798-.746-2.548v-3.138h-1.386v-2.184h1.386v-2.218l2.635-.45v2.668h2.253v2.184h-2.253v2.86q0 1.456.988 1.456.572 0 1.265-.346v2.097q-.71.468-1.924.468-1.42 0-2.218-.85zM103.798 195.738q-.45-.45-.45-1.075 0-.624.45-1.057.451-.45 1.075-.45.624 0 1.075.45.45.433.45 1.057 0 .624-.45 1.075-.451.433-1.075.433-.624 0-1.075-.433zm-.242 10.157v-8.528h2.634v8.528zM111.528 200.089q-.606.624-.606 1.542 0 .92.606 1.56.607.624 1.508.624.902 0 1.508-.624.607-.64.607-1.56 0-.918-.607-1.542-.606-.642-1.508-.642-.901 0-1.508.642zm-1.889 4.714q-1.352-1.282-1.352-3.172 0-1.889 1.352-3.172 1.37-1.282 3.397-1.282 2.028 0 3.38 1.282 1.37 1.283 1.37 3.172 0 1.89-1.37 3.172-1.352 1.283-3.38 1.283-2.028 0-3.397-1.283zM119.882 205.895v-8.528h2.6v.78l.035.018q1.213-.988 2.635-.988 1.404 0 2.236.866.745.798.745 2.531v5.321h-2.635v-4.888q0-.849-.294-1.196-.312-.364-.902-.364-.866 0-1.785.711v5.737zM130.438 202.169v-2.15h4.281v2.15zM136.85 205.393v-2.306q1.664.971 3.328.971 1.162 0 1.162-.659 0-.19-.104-.312-.087-.12-.33-.19-.225-.087-.45-.139-.226-.052-.642-.121-.398-.07-.71-.156-1.283-.312-1.924-.884-.642-.59-.642-1.595.018-1.317 1.058-2.063 1.04-.762 2.669-.762 1.855 0 3.259.676v2.27q-1.612-.918-3.207-.918-1.11 0-1.11.606 0 .174.087.295.104.121.33.208.225.07.433.121.225.035.624.122.416.07.71.138 1.318.33 1.96.902.658.554.658 1.594-.017 1.37-1.092 2.132-1.057.763-2.739.763-1.889 0-3.328-.693zM146.314 195.738q-.451-.45-.451-1.075 0-.624.45-1.057.451-.45 1.075-.45.624 0 1.075.45.45.433.45 1.057 0 .624-.45 1.075-.45.433-1.075.433-.624 0-1.074-.433zm-.243 10.157v-8.528h2.635v8.528zM152.726 205.237q-.745-.798-.745-2.548v-3.138h-1.387v-2.184h1.387v-2.218l2.635-.45v2.668h2.253v2.184h-2.253v2.86q0 1.456.988 1.456.572 0 1.265-.346v2.097q-.71.468-1.924.468-1.421 0-2.219-.85zM166.766 202.325h-5.79q.208.85.867 1.282.659.434 1.612.434 1.508 0 2.895-.936v2.201q-1.248.78-3.242.78-2.132 0-3.484-1.213-1.352-1.23-1.352-3.207 0-1.976 1.318-3.224 1.317-1.265 3.154-1.265 1.699 0 2.878 1.11 1.196 1.108 1.196 3.136 0 .555-.052.902zm-4.056-3.138q-.624 0-1.11.382-.485.381-.641 1.092h3.432q-.121-.676-.59-1.075-.45-.399-1.091-.399z" style="fill:#333"/></g><text xml:space="preserve" x="129.182" y="196.529" style="font-weight:700;font-size:16px;font-family:&quot;Azo Sans&quot;;-inkscape-font-specification:&quot;Azo Sans Bold&quot;;fill:#343434;stroke-width:3.5"/></svg>