<svg xmlns="http://www.w3.org/2000/svg" width="100" height="100" viewBox="0 0 100 100"><g transform="translate(-516.176 -969.005)"><circle cx="50" cy="50" r="50" transform="translate(516.176 969.005)" fill="#f8f8f8"/><g transform="translate(547.495 983.854)"><g transform="translate(0)"><g transform="translate(4.898 70.601)"><path d="M592.666,1145.484h-2.284l-.591-2.792h3.468Z" transform="translate(-589.791 -1142.691)" fill="#343434"/><path d="M589.791,1142.691l.22,1.038h3.028l.22-1.038Z" transform="translate(-589.791 -1142.691)" fill="#343434"/></g><g transform="translate(28.932 70.601)"><path d="M641.519,1145.484h-2.284l-.592-2.792h3.468Z" transform="translate(-638.643 -1142.691)" fill="#343434"/><path d="M638.643,1142.691l.22,1.038h3.027l.22-1.038Z" transform="translate(-638.643 -1142.691)" fill="#343434"/></g><rect width="36.793" height="2.362" transform="translate(0.49 23.703)" fill="#969696"/><rect width="27.907" height="0.82" transform="translate(4.832 24.447)" fill="none"/><path d="M580.687,999.187a.855.855,0,0,0-.852.853v22.742a.855.855,0,0,0,.852.852h3.98V999.187Z" transform="translate(-579.835 -999.187)" fill="#e4e3db"/><rect width="27.907" height="24.447" transform="translate(4.832 0)" fill="#eaeaea"/><path d="M650.772,1023.634a.855.855,0,0,0,.853-.852V1000.04a.855.855,0,0,0-.853-.853H646.38v24.447Z" transform="translate(-613.641 -999.187)" fill="#e4e3db"/><path d="M580.687,1050.544c-.468,0-.852.849-.852,1.887v41.986c0,1.038.384,1.887.852,1.887h3.98v-45.76Z" transform="translate(-579.835 -1025.277)" fill="#e4e3db"/><path d="M650.772,1050.544H646.38v45.76h4.392c.469,0,.853-.85.853-1.887v-41.986C651.625,1051.393,651.241,1050.544,650.772,1050.544Z" transform="translate(-613.641 -1025.277)" fill="#e4e3db"/><path d="M0,0H27.907V45.76H0Z" transform="translate(4.832 25.267)" fill="#eaeaea"/><g transform="translate(4.128 33.684)"><g style="mix-blend-mode:multiply;isolation:isolate"><path d="M591.5,1072.884" transform="translate(-589.889 -1070.311)" fill="#343434" opacity="0.387"/><path d="M591.329,1072.713" transform="translate(-589.802 -1070.224)" fill="#343434" opacity="0.419"/><line y1="16.111" transform="translate(1.441 2.404)" fill="#d8e0ea" opacity="0.452"/><line y1="16.111" transform="translate(1.356 2.319)" fill="#d5dde8" opacity="0.484"/><line y1="16.111" transform="translate(1.186 2.149)" fill="#cfd9e5" opacity="0.548"/><line y1="16.11" transform="translate(1.102 2.065)" fill="#cdd8e4" opacity="0.581"/><line y1="16.111" transform="translate(1.018 1.98)" fill="#cad5e3" opacity="0.613"/><line y1="16.11" transform="translate(0.933 1.896)" fill="#c7d5e1" opacity="0.645"/><path d="M589.949,1086.451v-16.11c0-.531.315-.962.7-.962h0" transform="translate(-589.101 -1068.53)" fill="#343434" opacity="0.677"/><path d="M589.776,1086.279v-16.111c0-.531.315-.962.7-.962h0" transform="translate(-589.013 -1068.442)" fill="#343434" opacity="0.71"/><path d="M589.6,1086.106V1070c0-.531.316-.963.7-.963h0" transform="translate(-588.926 -1068.354)" fill="#343434" opacity="0.742"/><path d="M589.432,1085.934v-16.11c0-.531.315-.962.7-.962h0" transform="translate(-588.839 -1068.267)" fill="#343434" opacity="0.774"/><path d="M589.259,1085.762V1069.65c0-.531.315-.962.7-.962h0" transform="translate(-588.751 -1068.179)" fill="#343434" opacity="0.806"/><path d="M589.978,1085.073c0,.531-.315.962-.7.962h0c-.388,0-.7-.431-.7-.962v-16.111c0-.532.315-.962.7-.962h0c.389,0,.7.43.7.962Z" transform="translate(-588.401 -1067.83)" fill="#343434" opacity="0.935"/><path d="M589.806,1084.9c0,.532-.315.963-.7.963h0c-.388,0-.7-.431-.7-.963v-16.111c0-.531.315-.962.7-.962h0c.389,0,.7.431.7.962Z" transform="translate(-588.313 -1067.742)" fill="#343434" opacity="0.968"/><path d="M589.634,1084.728c0,.531-.315.962-.7.962h0c-.389,0-.7-.431-.7-.962v-16.111c0-.531.315-.962.7-.962h0c.389,0,.7.431.7.962Z" transform="translate(-588.226 -1067.654)" fill="#343434"/></g><path d="M589.634,1084.728c0,.531-.315.962-.7.962h0c-.389,0-.7-.431-.7-.962v-16.111c0-.531.315-.962.7-.962h0c.389,0,.7.431.7.962Z" transform="translate(-588.226 -1067.654)" fill="#343434"/></g><g transform="translate(4.128 5.534)"><g style="mix-blend-mode:multiply;isolation:isolate"><path d="M591.5,1015.14" transform="translate(-589.889 -1012.826)" fill="#343434" opacity="0.387"/><path d="M591.329,1014.969" transform="translate(-589.802 -1012.739)" fill="#343434" opacity="0.419"/><path d="M591.156,1014.8" transform="translate(-589.715 -1012.651)" fill="#343434" opacity="0.452"/><path d="M590.983,1014.623" transform="translate(-589.627 -1012.563)" fill="#343434" opacity="0.484"/><path d="M590.81,1014.452" transform="translate(-589.539 -1012.476)" fill="#343434" opacity="0.516"/><line y1="11.781" transform="translate(1.186 1.891)" fill="#cfd9e5" opacity="0.548"/><line y1="11.781" transform="translate(1.018 1.721)" fill="#cad5e3" opacity="0.613"/><path d="M589.949,1024.644v-11.782a.7.7,0,0,1,.7-.7h0" transform="translate(-589.101 -1011.311)" fill="#343434" opacity="0.677"/><path d="M589.6,1024.3v-11.781a.7.7,0,0,1,.7-.7h0" transform="translate(-588.926 -1011.136)" fill="#343434" opacity="0.742"/><path d="M589.432,1024.127v-11.781a.7.7,0,0,1,.7-.7h0" transform="translate(-588.839 -1011.049)" fill="#343434" opacity="0.774"/><path d="M589.978,1023.266a.7.7,0,0,1-.7.7h0a.7.7,0,0,1-.7-.7v-11.782a.7.7,0,0,1,.7-.7h0a.7.7,0,0,1,.7.7Z" transform="translate(-588.401 -1010.611)" fill="#343434" opacity="0.935"/><path d="M589.806,1023.093a.7.7,0,0,1-.7.7h0a.7.7,0,0,1-.7-.7v-11.781a.7.7,0,0,1,.7-.7h0a.7.7,0,0,1,.7.7Z" transform="translate(-588.313 -1010.523)" fill="#343434" opacity="0.968"/><path d="M589.634,1022.921a.7.7,0,0,1-.7.7h0a.7.7,0,0,1-.7-.7V1011.14a.7.7,0,0,1,.7-.7h0a.7.7,0,0,1,.7.7Z" transform="translate(-588.226 -1010.436)" fill="#343434"/></g><path d="M589.634,1023.113a.7.7,0,0,1-.7.7h0a.7.7,0,0,1-.7-.7v-11.781a.7.7,0,0,1,.7-.7h0a.7.7,0,0,1,.7.7Z" transform="translate(-588.226 -1010.534)" fill="#343434"/></g></g></g></g></svg>