<svg xmlns="http://www.w3.org/2000/svg" width="100" height="100.001" viewBox="0 0 100 100.001"><g transform="translate(-683 -1137)"><g transform="translate(1 3)"><path d="M88.688,64.94a1.36,1.36,0,0,0-1.817-.629l-4.7,2.285L78.023,64.2l3.047-1.481a1.36,1.36,0,0,0-1.189-2.446l-4.7,2.285L73.2,61.419v-5.96l1.977-1.142,4.7,2.285a1.36,1.36,0,0,0,1.189-2.446l-3.047-1.481,4.146-2.394,4.7,2.285a1.36,1.36,0,1,0,1.189-2.446l-3.047-1.481,3.038-1.754a1.36,1.36,0,0,0-1.36-2.355l-3.038,1.754.241-3.379a1.36,1.36,0,0,0-2.712-.193l-.372,5.214-4.146,2.394.241-3.379a1.36,1.36,0,0,0-2.712-.193l-.372,5.214L71.843,53.1l-5.161-2.98V47.841l4.33-2.929a1.36,1.36,0,1,0-1.524-2.252l-2.806,1.9V39.771l4.33-2.929a1.36,1.36,0,1,0-1.524-2.252l-2.806,1.9V32.981a1.359,1.359,0,1,0-2.719,0v3.507l-2.806-1.9a1.36,1.36,0,1,0-1.524,2.252l4.33,2.929v4.788l-2.806-1.9a1.36,1.36,0,1,0-1.524,2.252l4.33,2.929v2.283L58.8,53.1l-1.977-1.142-.372-5.214a1.36,1.36,0,0,0-2.712.193l.241,3.379-4.146-2.394-.372-5.214a1.36,1.36,0,0,0-2.713.193l.241,3.379-3.037-1.754a1.36,1.36,0,1,0-1.36,2.355l3.038,1.754-3.047,1.481a1.36,1.36,0,1,0,1.189,2.446l4.7-2.285,4.146,2.394-3.047,1.481A1.36,1.36,0,1,0,50.763,56.6l4.7-2.285,1.977,1.142v5.96l-1.977,1.142-4.7-2.285a1.36,1.36,0,0,0-1.189,2.446L52.621,64.2,48.475,66.6l-4.7-2.285a1.36,1.36,0,1,0-1.189,2.446l3.047,1.481-3.038,1.754a1.36,1.36,0,1,0,1.36,2.355l3.037-1.754-.241,3.379a1.36,1.36,0,0,0,1.26,1.453c.033,0,.066,0,.1,0a1.36,1.36,0,0,0,1.355-1.263l.372-5.214,4.146-2.393-.241,3.379A1.36,1.36,0,0,0,55,71.39c.033,0,.066,0,.1,0a1.359,1.359,0,0,0,1.355-1.263l.372-5.214L58.8,63.774l5.162,2.98v2.283l-4.33,2.929a1.359,1.359,0,1,0,1.523,2.252l2.806-1.9v4.788l-4.33,2.929a1.359,1.359,0,1,0,1.523,2.252l2.806-1.9V83.9a1.359,1.359,0,1,0,2.719,0V80.391l2.806,1.9a1.359,1.359,0,1,0,1.523-2.252l-4.33-2.929V72.321l2.806,1.9a1.359,1.359,0,1,0,1.523-2.252l-4.33-2.929V66.754l5.161-2.98,1.978,1.142.372,5.214a1.359,1.359,0,0,0,1.355,1.263c.033,0,.065,0,.1,0A1.36,1.36,0,0,0,76.9,69.937l-.241-3.379,4.146,2.393.372,5.214a1.359,1.359,0,0,0,1.354,1.263c.033,0,.066,0,.1,0a1.36,1.36,0,0,0,1.259-1.453l-.241-3.379,3.038,1.754a1.36,1.36,0,0,0,1.36-2.355l-3.038-1.754,3.047-1.481A1.359,1.359,0,0,0,88.688,64.94Z" transform="translate(667.678 1126.56)" fill="#eaeaea"/><path d="M88.688,64.94a1.36,1.36,0,0,0-1.817-.629l-4.7,2.285L78.023,64.2l3.047-1.481a1.36,1.36,0,0,0-1.189-2.446l-4.7,2.285L73.2,61.419v-5.96l1.977-1.142,4.7,2.285a1.36,1.36,0,0,0,1.189-2.446l-3.047-1.481,4.146-2.394,4.7,2.285a1.36,1.36,0,1,0,1.189-2.446l-3.047-1.481,3.038-1.754a1.36,1.36,0,0,0-1.36-2.355l-3.038,1.754.241-3.379a1.36,1.36,0,0,0-2.712-.193l-.372,5.214-4.146,2.394.241-3.379a1.36,1.36,0,0,0-2.712-.193l-.372,5.214L71.843,53.1l-5.161-2.98V47.841l4.33-2.929a1.36,1.36,0,1,0-1.524-2.252l-2.806,1.9V39.771l4.33-2.929a1.36,1.36,0,1,0-1.524-2.252l-2.806,1.9V32.981a1.359,1.359,0,1,0-2.719,0v3.507l-2.806-1.9a1.36,1.36,0,1,0-1.524,2.252l4.33,2.929v4.788l-2.806-1.9a1.36,1.36,0,1,0-1.524,2.252l4.33,2.929v2.283L58.8,53.1l-1.977-1.142-.372-5.214a1.36,1.36,0,0,0-2.712.193l.241,3.379-4.146-2.394-.372-5.214a1.36,1.36,0,0,0-2.713.193l.241,3.379-3.037-1.754a1.36,1.36,0,1,0-1.36,2.355l3.038,1.754-3.047,1.481a1.36,1.36,0,1,0,1.189,2.446l4.7-2.285,4.146,2.394-3.047,1.481A1.36,1.36,0,1,0,50.763,56.6l4.7-2.285,1.977,1.142v5.96l-1.977,1.142-4.7-2.285a1.36,1.36,0,0,0-1.189,2.446L52.621,64.2,48.475,66.6l-4.7-2.285a1.36,1.36,0,1,0-1.189,2.446l3.047,1.481-3.038,1.754a1.36,1.36,0,1,0,1.36,2.355l3.037-1.754-.241,3.379a1.36,1.36,0,0,0,1.26,1.453c.033,0,.066,0,.1,0a1.36,1.36,0,0,0,1.355-1.263l.372-5.214,4.146-2.393-.241,3.379A1.36,1.36,0,0,0,55,71.39c.033,0,.066,0,.1,0a1.359,1.359,0,0,0,1.355-1.263l.372-5.214L58.8,63.774l5.162,2.98v2.283l-4.33,2.929a1.359,1.359,0,1,0,1.523,2.252l2.806-1.9v4.788l-4.33,2.929a1.359,1.359,0,1,0,1.523,2.252l2.806-1.9V83.9a1.359,1.359,0,1,0,2.719,0V80.391l2.806,1.9a1.359,1.359,0,1,0,1.523-2.252l-4.33-2.929V72.321l2.806,1.9a1.359,1.359,0,1,0,1.523-2.252l-4.33-2.929V66.754l5.161-2.98,1.978,1.142.372,5.214a1.359,1.359,0,0,0,1.355,1.263c.033,0,.065,0,.1,0A1.36,1.36,0,0,0,76.9,69.937l-.241-3.379,4.146,2.393.372,5.214a1.359,1.359,0,0,0,1.354,1.263c.033,0,.066,0,.1,0a1.36,1.36,0,0,0,1.259-1.453l-.241-3.379,3.038,1.754a1.36,1.36,0,0,0,1.36-2.355l-3.038-1.754,3.047-1.481A1.359,1.359,0,0,0,88.688,64.94Z" transform="translate(666.678 1124.56)" fill="#00a8e1"/></g><path d="M50.022,0a50,50,0,1,0,50,50A49.894,49.894,0,0,0,50.022,0ZM20.46,17.424A43.989,43.989,0,0,1,82.6,79.564Zm-3.014,3.014L79.585,82.577A43.989,43.989,0,0,1,17.446,20.438Z" transform="translate(682.978 1137)" fill="#d54354"/></g></svg>