<svg xmlns="http://www.w3.org/2000/svg" width="100" height="100.001" viewBox="0 0 100 100.001"><g transform="translate(-516.176 -969.005)"><circle cx="50" cy="50" r="50" transform="translate(516.176 969.005)" fill="#f8f8f8"/><g transform="translate(516.154 969.005)"><g transform="translate(29.861 25.171)"><g transform="translate(9.917 11.657)"><path d="M83.224,100.071a3.727,3.727,0,0,0-2.161,4.788l4.618,14.759a3.728,3.728,0,0,0,4.5,2.7h0a3.728,3.728,0,0,0,2.16-4.791l-4.617-14.758a3.728,3.728,0,0,0-4.5-2.7Z" transform="translate(-80.846 -87.593)" fill="#d18a63"/><path d="M104.308,76.116a3.671,3.671,0,0,0-5.14-.419L82.613,87.527a3.671,3.671,0,0,0-1.232,5.008h0a3.671,3.671,0,0,0,5.141.42l16.556-11.831a3.671,3.671,0,0,0,1.23-5.009Z" transform="translate(-80.829 -74.857)" fill="#d18a63"/><g transform="translate(12.217 4.206)" style="mix-blend-mode:multiply;isolation:isolate"><path d="M108.2,83.794c-.039-.067-.074-.135-.111-.2l.255-.184.133.231c.289.518.557,1.046.739,1.454s.285.691.285.691-.191-.232-.443-.6S108.488,84.309,108.2,83.794Z" transform="translate(-106.893 -83.407)" fill="#f4e1d4"/><path d="M105.921,85.146c.017.03.035.06.052.09.347.621.675,1.255.9,1.739.116.242.2.449.264.591s.093.229.093.229-.056-.071-.148-.2-.221-.309-.368-.533c-.3-.445-.67-1.051-1.02-1.672l-.033-.06Z" transform="translate(-105.662 -84.29)" fill="#f4e1d4"/><path d="M107.834,86.063a4.911,4.911,0,0,1-.341-.421,10.312,10.312,0,0,1-.636-.991c-.024-.041-.046-.084-.067-.126l.254-.184c.03.052.061.1.09.154a10.2,10.2,0,0,1,.517,1.058A4.7,4.7,0,0,1,107.834,86.063Z" transform="translate(-106.235 -83.881)" fill="#f4e1d4"/></g><g transform="translate(0 0.001)"><path d="M82.613,87.673,97.971,76.706a3.476,3.476,0,0,0,.69,1.557,2.985,2.985,0,0,0,1.192.839,3.32,3.32,0,0,0,2.252-.626c1.53-.817,1.869-.955,1.2-2.151-.122-.22-.362-.691-.614-1.179a2.994,2.994,0,0,1,1.614,1.117,3.671,3.671,0,0,1-1.23,5.009L86.522,93.1a3.388,3.388,0,1,1-3.909-5.429Z" transform="translate(-80.829 -75.004)" fill="none"/><path d="M119.805,78.33a3.32,3.32,0,0,1-2.252.626,2.985,2.985,0,0,1-1.192-.839,3.476,3.476,0,0,1-.69-1.557l1.2-.862a4.136,4.136,0,0,1,3.526-.7c.252.488.492.959.614,1.179C121.674,77.375,121.335,77.513,119.805,78.33Z" transform="translate(-98.529 -74.859)" fill="#f9af85"/></g></g><g transform="translate(4.389 4.766)"><path d="M72.775,94.345a4.953,4.953,0,0,0-2.871,6.363l6.137,19.606a4.954,4.954,0,0,0,5.984,3.593h0a4.955,4.955,0,0,0,2.87-6.365L78.76,97.937a4.953,4.953,0,0,0-5.985-3.592Z" transform="translate(-69.616 -77.769)" fill="#dd9269"/><path d="M100.787,62.523c-1.435-1.992-4.492-2.24-6.829-.559l-22,15.717c-2.337,1.684-3.069,4.663-1.636,6.655h0c1.435,1.992,4.492,2.24,6.83.556l22-15.715c2.336-1.683,3.068-4.663,1.634-6.654Z" transform="translate(-69.593 -60.849)" fill="#dd9269"/><g transform="translate(16.232 5.589)" style="mix-blend-mode:multiply;isolation:isolate"><path d="M105.951,72.723c-.051-.09-.1-.178-.148-.269l.338-.244c.06.1.119.2.179.306.384.686.739,1.39.983,1.931s.377.917.377.917-.255-.308-.588-.8S106.339,73.408,105.951,72.723Z" transform="translate(-104.221 -72.21)" fill="#f4e1d4"/><path d="M102.929,74.519c.023.04.046.079.068.119.463.825.9,1.666,1.2,2.31.154.321.266.6.351.788s.123.3.123.3-.072-.093-.193-.262-.3-.411-.491-.708c-.394-.592-.889-1.4-1.353-2.221-.015-.027-.03-.053-.044-.08Z" transform="translate(-102.587 -73.383)" fill="#f4e1d4"/><path d="M105.47,75.738a6.241,6.241,0,0,1-.454-.56,13.633,13.633,0,0,1-.844-1.316c-.031-.056-.062-.112-.092-.169l.339-.244c.039.068.08.136.121.2a13.752,13.752,0,0,1,.687,1.405A6.2,6.2,0,0,1,105.47,75.738Z" transform="translate(-103.346 -72.84)" fill="#f4e1d4"/></g><g transform="translate(0 0.001)"><path d="M71.962,77.875,92.367,63.3a4.654,4.654,0,0,0,.916,2.07,3.956,3.956,0,0,0,1.585,1.112c.942.281,2.057-.333,2.991-.832,2.032-1.084,2.483-1.268,1.6-2.857-.162-.291-.479-.917-.815-1.565a3.977,3.977,0,0,1,2.145,1.485c1.434,1.992.7,4.971-1.634,6.654l-22,15.715c-2.338,1.684-5.4,1.435-6.83-.556S69.625,79.559,71.962,77.875Z" transform="translate(-69.593 -61.045)" fill="none"/><path d="M121.375,65.461c-.934.5-2.049,1.113-2.991.832a3.956,3.956,0,0,1-1.585-1.112,4.654,4.654,0,0,1-.916-2.07l1.591-1.146a5.5,5.5,0,0,1,4.685-.926c.336.648.653,1.274.815,1.565C123.857,64.193,123.406,64.377,121.375,65.461Z" transform="translate(-93.109 -60.851)" fill="#f9af85"/></g></g><path d="M63.4,89.357a4.952,4.952,0,0,0-2.223,6.616l8.056,18.9a4.953,4.953,0,0,0,6.312,2.979h0a4.955,4.955,0,0,0,2.222-6.618l-8.055-18.9A4.953,4.953,0,0,0,63.4,89.357Z" transform="translate(-60.694 -70.396)" fill="#ea9a6e"/><path d="M89.794,52.506c-1.626-1.839-4.693-1.782-6.851.124L62.622,70.457c-2.159,1.907-2.59,4.945-.966,6.783h0c1.626,1.839,4.692,1.783,6.851-.124L88.83,59.289c2.157-1.907,2.589-4.944.964-6.783Z" transform="translate(-60.672 -51.162)" fill="#ea9a6e"/><g transform="translate(14.762 6.537)" style="mix-blend-mode:multiply;isolation:isolate"><path d="M93.822,64.979c-.06-.085-.116-.168-.174-.254l.313-.275c.068.1.137.189.206.287.452.645.876,1.309,1.172,1.824s.466.874.466.874-.283-.281-.664-.735S94.276,65.623,93.822,64.979Z" transform="translate(-92.186 -64.45)" fill="#f4e1d4"/><path d="M90.994,67.067c.026.038.053.074.079.112.543.774,1.057,1.568,1.422,2.18.184.3.322.567.426.746s.154.289.154.289-.083-.086-.22-.243-.334-.378-.557-.655c-.452-.55-1.025-1.3-1.569-2.076-.017-.024-.033-.049-.051-.075Z" transform="translate(-90.677 -65.779)" fill="#f4e1d4"/><path d="M93.643,68.026a6.28,6.28,0,0,1-.507-.512,13.594,13.594,0,0,1-.971-1.226c-.037-.052-.072-.1-.107-.157l.313-.276c.046.063.093.126.139.191a13.372,13.372,0,0,1,.823,1.329A6.179,6.179,0,0,1,93.643,68.026Z" transform="translate(-91.379 -65.164)" fill="#f4e1d4"/></g><g transform="translate(0 0.001)"><path d="M62.622,70.538,81.475,54.009a4.652,4.652,0,0,0,1.118,1.969,3.953,3.953,0,0,0,1.687.949c.964.185,2.014-.537,2.894-1.126,1.914-1.281,2.344-1.507,1.306-3-.19-.273-.567-.864-.966-1.475a3.973,3.973,0,0,1,2.281,1.265c1.625,1.839,1.193,4.876-.964,6.783L68.507,77.2c-2.159,1.907-5.226,1.963-6.851.124S60.462,72.445,62.622,70.538Z" transform="translate(-60.672 -51.245)" fill="none"/><path d="M108.654,55.721c-.88.589-1.93,1.312-2.894,1.126a3.953,3.953,0,0,1-1.687-.949,4.651,4.651,0,0,1-1.118-1.969l1.468-1.3a5.5,5.5,0,0,1,4.57-1.389c.4.612.776,1.2.966,1.475C111,54.213,110.568,54.439,108.654,55.721Z" transform="translate(-82.153 -51.165)" fill="#f9af85"/></g></g><g transform="translate(26.159 27.354)"><path d="M55.082,91.333a4.953,4.953,0,0,0-.971,6.912l11.388,17.1a4.954,4.954,0,0,0,6.752,1.771h0a4.954,4.954,0,0,0,.969-6.913L61.834,93.1a4.952,4.952,0,0,0-6.752-1.769Z" transform="translate(-53.149 -73.394)" fill="#fba474"/><path d="M73.741,56.425c-1.936-1.51-4.94-.891-6.712,1.38l-12.634,16.2c-1.772,2.271-1.639,5.336.3,6.846h0c1.935,1.509,4.94.891,6.712-1.381l12.634-16.2c1.771-2.272,1.638-5.336-.3-6.845Z" transform="translate(-53.148 -55.599)" fill="#fba474"/><g transform="translate(7.718 8.242)" style="mix-blend-mode:multiply;isolation:isolate"><path d="M71.49,72.9c-.073-.071-.145-.145-.218-.217l.257-.329c.085.081.171.161.255.244.562.552,1.1,1.127,1.486,1.578s.62.775.62.775-.331-.225-.788-.6S72.054,73.447,71.49,72.9Z" transform="translate(-70.073 -72.351)" fill="#f4e1d4"/><path d="M69.094,75.467l.1.1c.675.663,1.327,1.347,1.8,1.882.237.264.422.5.558.656s.2.255.2.255-.1-.069-.262-.2-.4-.311-.668-.542c-.545-.457-1.246-1.092-1.924-1.752-.021-.02-.042-.043-.064-.064Z" transform="translate(-68.835 -73.934)" fill="#f4e1d4"/><path d="M71.874,75.925a6.166,6.166,0,0,1-.592-.409,13.651,13.651,0,0,1-1.18-1.027c-.045-.044-.09-.09-.134-.136l.257-.329.173.163a13.6,13.6,0,0,1,1.053,1.156A6.3,6.3,0,0,1,71.874,75.925Z" transform="translate(-69.411 -73.201)" fill="#f4e1d4"/></g><g transform="translate(0 0.001)"><path d="M54.395,74.007,65.823,59.352a4.64,4.64,0,0,0,1.461,1.729,3.952,3.952,0,0,0,1.831.624c.983.006,1.882-.9,2.639-1.638,1.645-1.61,2.026-1.913.732-3.191-.237-.235-.717-.745-1.221-1.274a3.982,3.982,0,0,1,2.475.825c1.935,1.51,2.068,4.573.3,6.845L61.4,79.472c-1.773,2.272-4.777,2.89-6.712,1.381S52.623,76.278,54.395,74.007Z" transform="translate(-53.148 -55.602)" fill="none"/><path d="M84.842,60.067c-.758.741-1.656,1.644-2.639,1.638a3.952,3.952,0,0,1-1.831-.624,4.64,4.64,0,0,1-1.461-1.729l1.206-1.545a5.494,5.494,0,0,1,4.237-2.2c.5.529.984,1.039,1.221,1.274C86.868,58.154,86.487,58.457,84.842,60.067Z" transform="translate(-66.236 -55.602)" fill="#f9af85"/></g></g><g transform="translate(11.577 17.932)"><g transform="translate(24.476 0)"><g transform="translate(1.432 5.62)"><path d="M91.856,52.24,90.8,49.159,79.03,53.192l1.056,3.081a5.065,5.065,0,0,0-2.656,6.1l7.394,21.575a4.145,4.145,0,0,0,5.332,2.423l12.21-4.184A4.144,4.144,0,0,0,105.091,77L97.7,55.429A5.065,5.065,0,0,0,91.856,52.24Z" transform="translate(-76.681 -48.525)" fill="#e0e1e1"/><path d="M102.018,82.006l-12.21,4.185a4.648,4.648,0,0,1-5.966-2.734L76.448,61.882a5.565,5.565,0,0,1,2.52-6.5l-1.082-3.157L90.6,47.87l1.082,3.158a5.563,5.563,0,0,1,5.976,3.585l7.395,21.575A4.648,4.648,0,0,1,102.018,82.006ZM79.154,52.848l1.035,3.021-.388.2a4.587,4.587,0,0,0-2.409,5.494l7.395,21.575a3.651,3.651,0,0,0,4.7,2.113l12.21-4.185a3.65,3.65,0,0,0,2.414-4.55L96.714,54.936a4.587,4.587,0,0,0-5.273-2.861l-.427.083-1.035-3.02Z" transform="translate(-76.17 -47.87)" fill="#fff"/></g><path d="M97.377,61.684a.272.272,0,0,1,.345.169l7.515,21.926a3.011,3.011,0,0,1-1.916,3.8L91.436,91.65a3.012,3.012,0,0,1-3.842-1.824L80.079,67.9a.271.271,0,0,1,.169-.345Z" transform="translate(-76.716 -49.261)" fill="#3bb3e8"/><rect width="16.367" height="5.938" rx="2.046" transform="matrix(0.946, -0.324, 0.324, 0.946, 0, 5.306)" fill="#323233"/><rect width="13.44" height="11.976" rx="0.483" transform="matrix(0.946, -0.324, 0.324, 0.946, 7.268, 21.998)" fill="#fff"/><rect width="2.129" height="5.938" transform="matrix(0.946, -0.324, 0.324, 0.946, 9.567, 2.028)" fill="#1a1718"/><rect width="1.065" height="5.938" transform="matrix(0.946, -0.324, 0.324, 0.946, 13.028, 0.841)" fill="#1a1718"/><rect width="13.373" height="0.707" transform="matrix(0.946, -0.324, 0.324, 0.946, 3.31, 10.449)" fill="#afb1b3"/><path d="M120.7,86.884l-8.4-24.5-.9.31,8.535,24.9Z" transform="translate(-92.638 -49.626)" fill="#e0e1e1" style="mix-blend-mode:multiply;isolation:isolate"/><g transform="translate(11.03 21.592)"><rect width="6.387" height="1.427" rx="0.307" transform="matrix(0.946, -0.324, 0.324, 0.946, 0.442, 2.071)" fill="#47484a"/><g transform="translate(0 2.559)"><rect width="4.318" height="0.89" rx="0.307" transform="matrix(0.946, -0.324, 0.324, 0.946, 0, 3.169)" fill="#47484a"/><rect width="4.264" height="0.89" rx="0.307" transform="matrix(0.946, -0.324, 0.324, 0.946, 5.212, 1.382)" fill="#47484a"/><rect width="4.083" height="0.89" rx="0.307" transform="matrix(-0.946, 0.324, -0.324, -0.946, 8.046, 3.355)" fill="#47484a"/><rect width="2.585" height="0.89" rx="0.307" transform="matrix(-0.946, 0.324, -0.324, -0.946, 3.349, 4.965)" fill="#47484a"/></g></g><rect width="2.186" height="26.421" transform="matrix(0.946, -0.324, 0.324, 0.946, 15.495, 14.194)" fill="#e0e1e1" style="mix-blend-mode:multiply;isolation:isolate"/></g><g transform="translate(17.4 16.166)"><g transform="translate(0)"><g transform="translate(20.89)"><path d="M116.372,69.466a5.216,5.216,0,0,0-6.332,3.782l-1.95,7.73a5.217,5.217,0,0,0,3.782,6.333h0a5.215,5.215,0,0,0,6.332-3.783l1.95-7.728a5.216,5.216,0,0,0-3.782-6.333Z" transform="translate(-104.687 -69.307)" fill="#fba474"/><path d="M110.95,87.7a5.214,5.214,0,0,0-6.516,3.454l-2.864,9.407a5.215,5.215,0,0,0,3.454,6.517h0a5.215,5.215,0,0,0,6.516-3.455l2.863-9.406A5.214,5.214,0,0,0,110.95,87.7Z" transform="translate(-101.337 -78.531)" fill="#fba474"/><path d="M122.151,73.929c1.762.454,1.585.906.971,3.127-.281,1.02-.6,2.253-1.456,2.743a3.981,3.981,0,0,1-1.9.381,4.1,4.1,0,0,1-2.619-1.2c-1.014-1.161-.478-2.6-.077-3.866.361-1.14.39-2.212,1.174-2.231C118.667,72.877,121.389,73.732,122.151,73.929Z" transform="translate(-109.074 -71.125)" fill="#f9af85"/><g transform="translate(3.936 13.453)"><g transform="translate(1.085)"><g style="mix-blend-mode:multiply;isolation:isolate"><path d="M117.653,98.191s-.1-.011-.27-.038-.415-.064-.706-.12c-.582-.108-1.351-.276-2.116-.468s-1.521-.41-2.085-.591c-.282-.089-.514-.175-.678-.229s-.255-.094-.255-.094.1.011.27.038.416.064.706.12c.582.108,1.351.276,2.116.468s1.521.41,2.084.591c.282.088.515.175.678.229S117.653,98.191,117.653,98.191Z" transform="translate(-111.544 -96.651)" fill="#f4e1d4"/></g></g><g transform="translate(0 1.723)"><g style="mix-blend-mode:multiply;isolation:isolate"><path d="M116.671,102s-.118-.016-.322-.052-.5-.084-.845-.154c-.7-.137-1.619-.344-2.536-.574s-1.827-.487-2.505-.7c-.339-.1-.619-.2-.817-.264s-.308-.108-.308-.108.118.016.322.051.5.085.844.155c.7.136,1.62.344,2.537.574s1.827.487,2.505.7c.34.1.619.2.817.264S116.671,102,116.671,102Z" transform="translate(-109.338 -100.153)" fill="#f4e1d4"/></g></g><g transform="translate(1.685 1.222)"><g style="mix-blend-mode:multiply;isolation:isolate"><path d="M117.165,100.244s-.072,0-.2-.02-.3-.035-.513-.071c-.421-.068-.978-.182-1.529-.32s-1.094-.3-1.5-.443c-.2-.068-.368-.138-.485-.181s-.182-.076-.182-.076.072,0,.2.02.3.034.513.071c.422.067.979.182,1.529.32s1.094.3,1.5.443c.2.068.368.138.485.181S117.165,100.244,117.165,100.244Z" transform="translate(-112.762 -99.134)" fill="#f4e1d4"/></g></g></g></g><path d="M64.226,126.018c1.422,4.664,4.725,9.189,10.046,9.081,8.612-.176,15.238-13.392,15.477-20.9.26-8.145,1.7-11.778,2.388-17.232.43-3.388-6.706-14.846-9.673-4.035-3.823,13.926-14.429,1.406-14.429,1.406s-9.8-5.245-9.126-.185c.911,6.845,1.93,13.679,3.11,20.483A93.071,93.071,0,0,0,64.226,126.018Z" transform="translate(-58.877 -79.001)" fill="#fba474"/></g></g><g transform="translate(50.765 0.137)"><g transform="translate(1.03)"><path d="M145.778,65.97a1.442,1.442,0,0,1-.21-.062,1.464,1.464,0,0,1-.845-1.89c2.488-6.518,2.066-12.984-1.157-17.74-2.836-4.185-7.572-6.537-13.336-6.624a1.464,1.464,0,0,1,.044-2.927c6.745.1,12.328,2.909,15.716,7.909,3.767,5.558,4.3,13,1.469,20.427A1.464,1.464,0,0,1,145.778,65.97Z" transform="translate(-128.788 -36.726)" fill="#544b4b"/></g><g transform="translate(0 7.208)"><path d="M138.425,71.568a.908.908,0,0,1-.145-.043,1.01,1.01,0,0,1-.584-1.3c1.717-4.5,1.426-8.965-.8-12.248a10.892,10.892,0,0,0-9.208-4.573,1.011,1.011,0,0,1,.03-2.021,12.855,12.855,0,0,1,10.851,5.461c2.6,3.837,2.971,8.978,1.013,14.1A1.01,1.01,0,0,1,138.425,71.568Z" transform="translate(-126.694 -51.377)" fill="#544b4b"/></g></g><g transform="translate(0 11.89)"><path d="M38.156,61.229a1.428,1.428,0,0,1,.114.187,1.464,1.464,0,0,1-.641,1.968c-6.219,3.163-10.246,8.24-11.047,13.929-.706,5.006,1.227,9.929,5.443,13.861a1.464,1.464,0,1,1-2,2.141c-4.933-4.6-7.188-10.43-6.345-16.411.937-6.649,5.536-12.528,12.619-16.13A1.464,1.464,0,0,1,38.156,61.229Z" transform="translate(-23.509 -60.616)" fill="#544b4b"/><g transform="translate(7.959 5.779)"><path d="M49.8,72.784a1.013,1.013,0,0,1-.364,1.489c-4.294,2.184-7.074,5.689-7.627,9.617a10.892,10.892,0,0,0,3.757,9.57,1.011,1.011,0,1,1-1.379,1.478,12.854,12.854,0,0,1-4.381-11.33c.647-4.591,3.823-8.65,8.713-11.137A1.01,1.01,0,0,1,49.8,72.784Z" transform="translate(-39.687 -72.361)" fill="#544b4b"/></g></g></g><path d="M50.022,0a50,50,0,1,0,50,50A49.894,49.894,0,0,0,50.022,0ZM20.46,17.424A43.989,43.989,0,0,1,82.6,79.564Zm-3.014,3.014L79.585,82.577A43.989,43.989,0,0,1,17.446,20.438Z" fill="#d54354"/></g></g></svg>