<svg xmlns="http://www.w3.org/2000/svg" width="100" height="100" viewBox="0 0 100 100"><circle cx="50" cy="50" r="50" transform="translate(0 0)" fill="#f8f8f8"/><g transform="translate(14.678 12.227)"><g transform="translate(20.946 58.36)"><path d="M80.661,159.73a8.26,8.26,0,0,1-8.25-8.251,1.414,1.414,0,0,1,2.829,0,5.422,5.422,0,1,0,10.843,0v-6.59a1.414,1.414,0,0,1,2.829,0v6.59A8.26,8.26,0,0,1,80.661,159.73Z" transform="translate(-72.411 -143.475)" fill="#343434"/></g><path d="M103.076,33.75c9.336,0,16.905,21.311,16.905,30.648a17.2,17.2,0,0,1,11.887-4.379c5.523,0,7.241,2.189,7.241,2.189S131.162,33.75,103.076,33.75Z" transform="translate(-67.043 -29.372)" fill="#69be28"/><path d="M65.868,33.75c-28.086,0-36.033,28.458-36.033,28.458s1.718-2.189,7.241-2.189A17.2,17.2,0,0,1,48.963,64.4C48.963,55.061,56.532,33.75,65.868,33.75Z" transform="translate(-29.835 -29.372)" fill="#69be28"/><path d="M85.619,33.75c-9.336,0-16.905,21.311-16.905,30.648,0,0,4.849-3.3,16.905-3.3s16.905,3.3,16.905,3.3C102.525,55.061,94.956,33.75,85.619,33.75Z" transform="translate(-49.586 -29.372)" fill="#00a8e1"/><g transform="translate(35.022)"><path d="M103.043,29.245V25.862a1.01,1.01,0,0,0-2.021,0v3.383c.335-.008.67-.016,1.011-.016S102.708,29.237,103.043,29.245Z" transform="translate(-101.022 -24.852)" fill="#002135"/><path d="M101.022,89.34V116.4a1.41,1.41,0,0,1,2.021,0V89.34c-.331-.005-.667-.009-1.01-.009S101.354,89.334,101.022,89.34Z" transform="translate(-101.022 -57.609)" fill="#002135"/></g></g></svg>