<svg xmlns="http://www.w3.org/2000/svg" width="100" height="100" viewBox="0 0 100 100"><g transform="translate(-225.717)"><g transform="translate(225.717)"><circle cx="50" cy="50" r="50" fill="#f8f8f8"/><g transform="translate(18 12)"><ellipse cx="26.633" cy="26.633" rx="26.633" ry="26.633" transform="translate(0 58.555) rotate(-77.308)" fill="#ebebeb"/><g transform="translate(30.557 14.259)" style="mix-blend-mode:multiply;isolation:isolate"><rect width="2.554" height="8.735" rx="1.277" fill="#b2b1b1"/><rect width="8.735" height="2.554" rx="1.277" transform="matrix(0.5, -0.866, 0.866, 0.5, 7.897, 10.166)" fill="#b2b1b1"/><rect width="8.735" height="2.554" rx="1.277" transform="translate(14.02 15.355) rotate(-30)" fill="#b2b1b1"/><rect width="8.735" height="2.554" rx="1.277" transform="translate(16.729 22.91)" fill="#b2b1b1"/></g><g transform="translate(30.557 14.259)"><rect width="2.554" height="8.735" rx="1.277" fill="#343434"/><rect width="8.735" height="2.554" rx="1.277" transform="matrix(0.5, -0.866, 0.866, 0.5, 7.897, 10.166)" fill="#343434"/><rect width="8.735" height="2.554" rx="1.277" transform="translate(14.02 15.355) rotate(-30)" fill="#343434"/><rect width="8.735" height="2.554" rx="1.277" transform="translate(16.729 22.91)" fill="#343434"/></g><g transform="translate(7.648 16.861)" opacity="0.1" style="mix-blend-mode:multiply;isolation:isolate"><rect width="2.554" height="8.735" rx="1.277" transform="matrix(0.866, -0.5, 0.5, 0.866, 10.987, 1.277)" fill="#040505"/><rect width="2.554" height="8.735" rx="1.277" transform="matrix(0.5, -0.866, 0.866, 0.5, 2.602, 10.597)" fill="#040505"/><rect width="8.735" height="2.554" rx="1.277" transform="translate(0 20.308)" fill="#040505"/></g><g transform="translate(10.25 45.066)" opacity="0.1" style="mix-blend-mode:multiply;isolation:isolate"><rect width="8.735" height="2.554" rx="1.277" transform="matrix(0.5, -0.866, 0.866, 0.5, 8.385, 13.688)" fill="#040505"/><rect width="8.735" height="2.554" rx="1.277" transform="matrix(0.866, -0.5, 0.5, 0.866, 0, 4.367)" fill="#040505"/></g><g transform="translate(21.68 28.27)" style="mix-blend-mode:multiply;isolation:isolate"><ellipse cx="10.154" cy="10.154" rx="10.154" ry="10.154" fill="#b2b1b1"/></g><ellipse cx="6.62" cy="6.62" rx="6.62" ry="6.62" transform="translate(25.214 31.804)" fill="#253239"/><g transform="translate(0.905 0)"><ellipse cx="25.521" cy="25.521" rx="25.521" ry="25.521" transform="translate(0.227 19.471) rotate(-13.283)" fill="none"/><path d="M323.526,32.171h.792a1.125,1.125,0,0,0,1.125-1.125v-3.1a1.125,1.125,0,0,0-1.125-1.125h-8.745a1.126,1.126,0,0,0-1.125,1.125v3.1a1.125,1.125,0,0,0,1.125,1.125h7.953Z" transform="translate(-289.016 -26.818)" fill="#003e68"/><path d="M360.745,47.155a.57.57,0,0,0,.777-.215l.775-1.367a.571.571,0,0,0-.215-.777l-3.855-2.184a.57.57,0,0,0-.777.215l-.775,1.368a.571.571,0,0,0,.215.777l.349.2,3.157,1.788Z" transform="translate(-311.694 -35.275)" fill="#003e68"/><path d="M289.085,44.971a.57.57,0,0,0,.215-.777l-.774-1.368a.57.57,0,0,0-.777-.215L283.894,44.8a.57.57,0,0,0-.215.777l.775,1.367a.57.57,0,0,0,.777.215l.349-.2,3.157-1.788Z" transform="translate(-272.423 -35.275)" fill="#003e68"/><path d="M307.14,47.982c-.93-.628-2.338-1.374-2.338-1.374a30.735,30.735,0,0,0-11.792-3.472,27.776,27.776,0,0,0-5.353,0,30.735,30.735,0,0,0-11.792,3.472,16.266,16.266,0,0,0-2.338,1.374A30.93,30.93,0,1,0,311.28,96.7q.96-.884,1.844-1.847a30.931,30.931,0,0,0-5.983-46.876ZM290.333,99.491a25.522,25.522,0,1,1,25.521-25.522A25.521,25.521,0,0,1,290.333,99.491Z" transform="translate(-259.404 -35.524)" fill="#69be28"/><path d="M324.854,40.663V39.309a.9.9,0,0,1,.9-.9H318.6a.9.9,0,0,1,.9.9v1.355A27.776,27.776,0,0,1,324.854,40.663Z" transform="translate(-291.248 -33.051)" fill="#002135"/><path d="M290.863,48.857a.459.459,0,0,1,.173-.625l-3.157,1.788a.459.459,0,0,1,.625.173l.341.6a16.266,16.266,0,0,1,2.338-1.374Z" transform="translate(-274.723 -38.338)" fill="#002135"/><path d="M360.343,50.193a.459.459,0,0,1,.625-.173l-3.157-1.788a.458.458,0,0,1,.173.625l-.32.566s1.408.746,2.338,1.374Z" transform="translate(-312.265 -38.338)" fill="#002135"/></g><g transform="translate(30.557 45.066)" style="mix-blend-mode:multiply;isolation:isolate"><rect width="2.554" height="8.735" rx="1.277" transform="translate(0 8.832)" fill="#00a8e1"/><rect width="2.554" height="8.735" rx="1.277" transform="matrix(0.866, -0.5, 0.5, 0.866, 7.897, 7.4)" fill="#00a8e1"/><rect width="2.554" height="8.735" rx="1.277" transform="translate(14.02 2.212) rotate(-60)" fill="#00a8e1"/></g></g></g></g></svg>