<svg xmlns="http://www.w3.org/2000/svg" width="100" height="100.002" viewBox="0 0 100 100.002"><g transform="translate(-683 -1377.999)"><g transform="translate(166.824 408.994)"><circle cx="50" cy="50" r="50" transform="translate(516.176 969.005)" fill="#f8f8f8"/><g transform="translate(495.121 952.913)"><g transform="translate(45.055 30.794)"><g transform="translate(0 0)"><g transform="translate(0 8.393)"><path d="M72.773,55.4l-.019-5.021-19.18.073.019,5.022a7.808,7.808,0,0,0-6.894,7.6l.134,35.159a6.39,6.39,0,0,0,6.588,6.174l19.9-.076A6.389,6.389,0,0,0,79.859,98.1l-.134-35.159A7.808,7.808,0,0,0,72.773,55.4Z" transform="translate(-45.93 -49.607)" fill="#e0e1e1"/><path d="M72.447,104.218l-19.9.076a7.166,7.166,0,0,1-7.36-6.94l-.134-35.159a8.577,8.577,0,0,1,6.892-8.242l-.02-5.145,20.718-.079.02,5.145a8.577,8.577,0,0,1,6.954,8.189l.134,35.159A7.166,7.166,0,0,1,72.447,104.218ZM53.472,50.341l.019,4.922-.664.094a7.071,7.071,0,0,0-6.233,6.832l.134,35.159a5.627,5.627,0,0,0,5.816,5.408l19.9-.076a5.627,5.627,0,0,0,5.774-5.452l-.134-35.159A7.072,7.072,0,0,0,71.8,55.285l-.665-.089-.019-4.922Z" transform="translate(-45.055 -48.729)" fill="#fff"/></g><path d="M79.592,75.025a.419.419,0,0,1,.42.417l.136,35.731a4.642,4.642,0,0,1-4.674,4.6l-19.367.074a4.643,4.643,0,0,1-4.709-4.562l-.137-35.731a.419.419,0,0,1,.417-.42Z" transform="translate(-48.357 -54.325)" fill="#3bb3e8"/><rect width="25.231" height="9.154" rx="3.316" transform="translate(4.584 0.096) rotate(-0.219)" fill="#323233"/><rect width="20.718" height="18.462" rx="0.783" transform="translate(6.947 28.062) rotate(-0.219)" fill="#fff"/><rect width="3.282" height="9.154" transform="translate(20.174 0.037) rotate(-0.219)" fill="#1a1718"/><rect width="1.641" height="9.154" transform="translate(25.815 0.015) rotate(-0.219)" fill="#1a1718"/><rect width="20.616" height="1.089" transform="translate(6.875 9.242) rotate(-0.219)" fill="#afb1b3"/><path d="M106.831,114.956l-.152-39.917-1.474.006.155,40.582Z" transform="translate(-77.055 -54.332)" fill="#e0e1e1" style="mix-blend-mode:multiply;isolation:isolate"/><g transform="translate(9.81 32.533)"><rect width="9.846" height="2.2" rx="0.498" transform="translate(2.452 0.038) rotate(-0.219)" fill="#47484a"/><g transform="translate(0 5.102)"><rect width="6.657" height="1.373" rx="0.498" transform="translate(0 0.058) rotate(-0.219)" fill="#47484a"/><rect width="6.573" height="1.373" rx="0.498" transform="translate(8.493 0.025) rotate(-0.219)" fill="#47484a"/><rect width="6.294" height="1.373" rx="0.498" transform="translate(11.657 4.306) rotate(179.781)" fill="#47484a"/><rect width="3.985" height="1.373" rx="0.498" transform="translate(4.002 4.336) rotate(179.781)" fill="#47484a"/></g></g><rect width="3.37" height="40.73" transform="translate(22.817 20.732) rotate(-0.219)" fill="#e0e1e1" style="mix-blend-mode:multiply;isolation:isolate"/></g></g><g transform="translate(66.565 54.948)"><g transform="translate(0 0)"><circle cx="15.394" cy="15.394" r="15.394" transform="translate(0 33.845) rotate(-77.308)" fill="#cae2f5"/><g transform="translate(17.662 8.242)" style="mix-blend-mode:multiply;isolation:isolate"><rect width="1.476" height="5.049" rx="0.738" fill="#b2b1b1"/><path d="M.738,0H4.311a.738.738,0,0,1,.738.738v0a.738.738,0,0,1-.738.738H.738A.738.738,0,0,1,0,.738v0A.738.738,0,0,1,.738,0Z" transform="matrix(0.5, -0.866, 0.866, 0.5, 4.564, 5.876)" fill="#b2b1b1"/><path d="M.738,0H4.311a.738.738,0,0,1,.738.738v0a.738.738,0,0,1-.738.738H.738A.738.738,0,0,1,0,.738v0A.738.738,0,0,1,.738,0Z" transform="translate(8.104 8.875) rotate(-30)" fill="#b2b1b1"/><rect width="5.049" height="1.476" rx="0.738" transform="translate(9.669 13.242)" fill="#b2b1b1"/></g><path d="M.738,0h0a.738.738,0,0,1,.738.738V4.311a.738.738,0,0,1-.738.738h0A.738.738,0,0,1,0,4.311V.738A.738.738,0,0,1,.738,0Z" transform="matrix(0.866, -0.5, 0.5, 0.866, 10.771, 10.484)" fill="#040505" opacity="0.1"/><path d="M.738,0h0a.738.738,0,0,1,.738.738V4.311a.738.738,0,0,1-.738.738h0A.738.738,0,0,1,0,4.311V.738A.738.738,0,0,1,.738,0Z" transform="matrix(0.5, -0.866, 0.866, 0.5, 5.924, 15.871)" fill="#040505" opacity="0.1"/><rect width="5.049" height="1.476" rx="0.738" transform="translate(4.42 21.483)" fill="#040505" opacity="0.1"/><path d="M.738,0H4.311a.738.738,0,0,1,.738.738v0a.738.738,0,0,1-.738.738H.738A.738.738,0,0,1,0,.738v0A.738.738,0,0,1,.738,0Z" transform="matrix(0.5, -0.866, 0.866, 0.5, 10.771, 33.959)" fill="#040505" opacity="0.1"/><path d="M.738,0H4.311a.738.738,0,0,1,.738.738v0a.738.738,0,0,1-.738.738H.738A.738.738,0,0,1,0,.738v0A.738.738,0,0,1,.738,0Z" transform="matrix(0.866, -0.5, 0.5, 0.866, 5.924, 28.572)" fill="#040505" opacity="0.1"/><g transform="translate(10.184 13.992)" style="mix-blend-mode:multiply;isolation:isolate"><circle cx="8.217" cy="8.217" r="8.217" fill="#b2b1b1"/></g><g transform="translate(0.523)"><circle cx="14.751" cy="14.751" r="14.751" transform="translate(0.131 11.254) rotate(-13.283)" fill="none"/><path d="M128.793,85.5h.458a.65.65,0,0,0,.651-.651V83.056a.65.65,0,0,0-.651-.651H124.2a.65.65,0,0,0-.651.651v1.793a.65.65,0,0,0,.651.651h4.6Z" transform="translate(-108.846 -82.405)" fill="#003e68"/><path d="M149.995,94.043a.329.329,0,0,0,.449-.124l.448-.79a.329.329,0,0,0-.124-.449l-2.228-1.262a.329.329,0,0,0-.449.124l-.448.79a.329.329,0,0,0,.124.449l.2.114,1.825,1.034Z" transform="translate(-121.643 -87.177)" fill="#003e68"/><path d="M109.113,92.781a.329.329,0,0,0,.124-.449l-.448-.79a.329.329,0,0,0-.449-.124l-2.228,1.262a.329.329,0,0,0-.124.449l.448.79a.329.329,0,0,0,.449.124l.2-.114,1.825-1.034Z" transform="translate(-99.483 -87.177)" fill="#003e68"/><path d="M119.727,94.518c-.537-.363-1.352-.794-1.352-.794a17.766,17.766,0,0,0-6.816-2.007,16.079,16.079,0,0,0-3.094,0,17.769,17.769,0,0,0-6.816,2.007,9.443,9.443,0,0,0-1.352.794A17.878,17.878,0,1,0,122.12,122.68q.555-.511,1.066-1.067a17.878,17.878,0,0,0-3.458-27.094Zm-9.714,29.772a14.751,14.751,0,1,1,14.751-14.751A14.751,14.751,0,0,1,110.013,124.29Z" transform="translate(-92.136 -87.318)" fill="#003e68"/><path d="M129.53,90.322v-.783a.523.523,0,0,1,.523-.523h-4.139a.523.523,0,0,1,.523.523v.783A16.08,16.08,0,0,1,129.53,90.322Z" transform="translate(-110.106 -85.922)" fill="#002135"/><path d="M110.109,94.985a.265.265,0,0,1,.1-.361l-1.825,1.034a.265.265,0,0,1,.361.1l.2.348a9.441,9.441,0,0,1,1.352-.794Z" transform="translate(-100.78 -88.906)" fill="#002135"/><path d="M149.754,95.758a.265.265,0,0,1,.361-.1l-1.825-1.034a.265.265,0,0,1,.1.361l-.185.327s.814.431,1.352.794Z" transform="translate(-121.965 -88.906)" fill="#002135"/></g><rect width="1.476" height="5.049" rx="0.738" transform="translate(17.662 31.153)" fill="#040505" opacity="0.1"/><path d="M.738,0h0a.738.738,0,0,1,.738.738V4.311a.738.738,0,0,1-.738.738h0A.738.738,0,0,1,0,4.311V.738A.738.738,0,0,1,.738,0Z" transform="matrix(0.866, -0.5, 0.5, 0.866, 22.227, 30.325)" fill="#040505" opacity="0.1"/><path d="M.738,0h0a.738.738,0,0,1,.738.738V4.311a.738.738,0,0,1-.738.738h0A.738.738,0,0,1,0,4.311V.738A.738.738,0,0,1,.738,0Z" transform="translate(25.766 27.326) rotate(-60)" fill="#040505" opacity="0.1"/></g><g transform="translate(17.098 15.541)"><path d="M130.158,115.613l-.844,10.362H128.4l-.843-10.362Zm-.234,13.361h-2.137v-2.586h2.137Z" transform="translate(-127.554 -115.613)" fill="#d54354"/></g></g></g></g><path d="M50.022,0a50,50,0,1,0,50,50A49.894,49.894,0,0,0,50.022,0ZM20.46,17.424A43.989,43.989,0,0,1,82.6,79.564Zm-3.014,3.014L79.585,82.577A43.989,43.989,0,0,1,17.446,20.438Z" transform="translate(682.978 1378)" fill="#d54354"/></g></svg>