<svg xmlns="http://www.w3.org/2000/svg" width="71.28" height="70.484" viewBox="0 0 71.28 70.484"><path d="M53.829,39.21A15.572,15.572,0,1,1,38.257,23.639,15.572,15.572,0,0,1,53.829,39.21Z" transform="translate(-22.686 -23.639)" fill="#d54354"/><path d="M56.722,44.458l-3.23-3.231L48.5,46.219,43.519,41.24l-3.231,3.232,4.98,4.978-4.994,4.995,3.23,3.23L48.5,52.68l4.978,4.98,3.232-3.229L51.73,49.45l4.992-4.992Z" transform="translate(-32.927 -33.88)" fill="#fff"/><g transform="translate(-78.628 -23.639)" fill="none" stroke-miterlimit="10"><path d="M134.337,23.639A15.571,15.571,0,1,0,149.908,39.21a15.571,15.571,0,0,0-15.571-15.571Z" stroke="none"/><path d="M 134.3367309570312 31.63899993896484 C 130.1616668701172 31.63899993896484 126.7649993896484 35.03547286987305 126.7649993896484 39.21030807495117 C 126.7649993896484 43.3851432800293 130.1616668701172 46.7816162109375 134.3367309570312 46.7816162109375 C 138.5115661621094 46.7816162109375 141.9080505371094 43.3851432800293 141.9080505371094 39.21030807495117 C 141.9080505371094 35.03547286987305 138.5115661621094 31.63899993896484 134.3367309570312 31.63899993896484 M 134.3367309570312 23.63899993896484 C 142.9365844726562 23.63899993896484 149.9080505371094 30.61004638671875 149.9080505371094 39.21030807495117 C 149.9080505371094 47.81016540527344 142.9365844726562 54.7816162109375 134.3367309570312 54.7816162109375 C 125.7368774414062 54.7816162109375 118.7649993896484 47.81016540527344 118.7649993896484 39.21030807495117 C 118.7649993896484 30.61004638671875 125.7368774414062 23.63899993896484 134.3367309570312 23.63899993896484 Z" stroke="none" fill="#69be28"/></g><g transform="translate(-78.628 -78.471)" fill="none" stroke-miterlimit="10"><path d="M134.337,117.813a15.571,15.571,0,1,0,15.571,15.571,15.571,15.571,0,0,0-15.571-15.571Z" stroke="none"/><path d="M 134.3367309570312 125.8130035400391 C 130.1616668701172 125.8130035400391 126.7649993896484 129.20947265625 126.7649993896484 133.3843383789062 C 126.7649993896484 137.5591430664062 130.1616668701172 140.9556274414062 134.3367309570312 140.9556274414062 C 138.5115661621094 140.9556274414062 141.9080505371094 137.5591430664062 141.9080505371094 133.3843383789062 C 141.9080505371094 129.20947265625 138.5115661621094 125.8130035400391 134.3367309570312 125.8130035400391 M 134.3367309570312 117.8130035400391 C 142.9365844726562 117.8130035400391 149.9080505371094 124.7840423583984 149.9080505371094 133.3843383789062 C 149.9080505371094 141.9841613769531 142.9365844726562 148.9556274414062 134.3367309570312 148.9556274414062 C 125.7368774414062 148.9556274414062 118.7649993896484 141.9841613769531 118.7649993896484 133.3843383789062 C 118.7649993896484 124.7840423583984 125.7368774414062 117.8130035400391 134.3367309570312 117.8130035400391 Z" stroke="none" fill="#69be28"/></g><g transform="translate(-22.686 -78.471)" fill="none" stroke-miterlimit="10"><path d="M38.257,117.813a15.571,15.571,0,1,0,15.572,15.571,15.571,15.571,0,0,0-15.572-15.571Z" stroke="none"/><path d="M 38.25730514526367 125.8130035400391 C 34.08246994018555 125.8130035400391 30.68599319458008 129.20947265625 30.68599319458008 133.3843383789062 C 30.68599319458008 137.5591430664062 34.08246994018555 140.9556274414062 38.25730514526367 140.9556274414062 C 42.43237686157227 140.9556274414062 45.82904052734375 137.5591430664062 45.82904052734375 133.3843383789062 C 45.82904052734375 129.20947265625 42.43237686157227 125.8130035400391 38.25730514526367 125.8130035400391 M 38.25730514526367 117.8130035400391 C 46.85716247558594 117.8130035400391 53.82904052734375 124.7840423583984 53.82904052734375 133.3843383789062 C 53.82904052734375 141.9841613769531 46.85716247558594 148.9556274414062 38.25730514526367 148.9556274414062 C 29.65787506103516 148.9556274414062 22.68599319458008 141.9841613769531 22.68599319458008 133.3843383789062 C 22.68599319458008 124.7840423583984 29.65787506103516 117.8130035400391 38.25730514526367 117.8130035400391 Z" stroke="none" fill="#69be28"/></g></svg>