<svg xmlns="http://www.w3.org/2000/svg" width="21.025" height="20.809" viewBox="0 0 21.025 20.809"><g transform="translate(-90.125 -384.655)"><g transform="translate(-3 -6)"><path d="M.305,10.644a.66.66,0,0,0-.025,1.1.711.711,0,0,0,1.122,0L6.587,6.556a.728.728,0,0,0,0-1.1L1.4.274a.711.711,0,0,0-1.122,0,.66.66,0,0,0,.025,1.1L4.892,6.007Z" transform="translate(109.59 400.707) rotate(90)" fill="#fff"/><line y1="14" transform="translate(103.5 391.53)" fill="none" stroke="#fff" stroke-linecap="round" stroke-width="1.75"/></g><path d="M91,412.694v11.9h19.275v-11.9" transform="translate(0 -20)" fill="none" stroke="#fff" stroke-linecap="round" stroke-linejoin="round" stroke-width="1.75"/></g></svg>