<svg xmlns="http://www.w3.org/2000/svg" xmlns:xlink="http://www.w3.org/1999/xlink" width="486.36" height="605.807" viewBox="0 0 486.36 605.807"><defs><clipPath id="a"><path d="M2804.069,1195.031c-4.767,32.57-6.75,67.129-6.75,67.129-1.194,14.7-.8,30.983-.8,30.983a183.1,183.1,0,0,1-6.354,40.914,99.044,99.044,0,0,0-1.191,34.159c0,3.968-5.561,9.534-5.561,9.534a22.708,22.708,0,0,0-3.969,11.916,17.479,17.479,0,0,1-3.967,7.945c-8.737,1.192-13.106-.4-13.106-.4-1.987-.794-5.958-2.782-5.958-2.782-3.576-.794-3.576-3.176-3.576-3.176l3.968-4.768c1.986-3.576,6.355-11.122,6.355-11.122,9.533-12.712,9.137-17.875,9.137-17.875.4-7.148-2.385-23.037-2.385-23.037-2.382-37.734-3.176-64.746-3.176-64.746-.793-11.916-3.576-33.361-3.576-33.361-1.588-21.053-.4-50.447-.4-50.447a240.284,240.284,0,0,1,3.968-33.762c2.382-8.74,5.561-28.6,5.561-28.6,3.176-21.846-1.19-35.352-1.19-35.352-1.193-9.93-3.968-14.3-3.968-14.3-1.59,18.664-5.164,29.393-5.164,29.393-3.576,11.122-3.179,25.425-3.179,25.425a137.415,137.415,0,0,1-4.766,32.57c-2.382,7.151,1.987,9.93,1.987,9.93,2.779,7.151,1.986,16.288,1.986,16.288a70.028,70.028,0,0,1-1.19,9.531c-2.385,1.987-3.576-2.382-3.576-2.382-.4-2.385-1.19-10.327-1.19-10.327-5.561,6.355-1.589,11.519-1.589,11.519,2.779,3.968,5.562,7.151,5.562,7.151,1.19,2.382-2.782,2.779-2.782,2.779-10.327-3.179-12.312-13.9-12.312-13.9,0-6.752,1.588-19.461,1.588-19.461,1.588-14.3-.794-39.721-.794-39.721,1.191-31.776,7.937-76.265,7.937-76.265,3.178-17.874,19.86-23.435,19.86-23.435,19.861-7.945,17.479-9.137,17.479-9.137,3.573-5.958,4.368-15.491,4.368-15.491-3.176-3.576-9.133-12.709-9.133-12.709-3.767,4.246-5.958-4.369-5.958-4.369-3.575-6.354-2.782-9.931-2.782-9.931.793-1.987,3.968-1.588,3.968-1.588-2.386-29.791,9.93-38.928,9.93-38.928,13.9-9.93,27.009-5.164,27.009-5.164,21.449,7.148,19.464,29.393,19.464,29.393.4,2.382-.8,12.709-.8,12.709,5.774.085,4.013,4.493,4.013,4.493a18.052,18.052,0,0,1-3.216,7.823c-.294,1.189-.651,2.322-.974,3.274a4.63,4.63,0,0,1-4.669,3.148c-.433-.028-.714-.067-.714-.067a35.247,35.247,0,0,1-7.545,12.313,28.958,28.958,0,0,0,6.354,14.3c3.968,5.958,14.3,8.74,14.3,8.74,19.067,11.121,22.64,35.349,22.64,35.349,5.958,25.425,7.151,37.339,7.151,37.339,1.985,9.928-1.193,53.623-1.193,53.623a128.557,128.557,0,0,0,.8,27.8c.793,7.151-2.386,10.728-2.386,10.728-5.165,7.548-9.93,7.945-9.93,7.945-7.148,1.192-3.176-1.987-3.176-1.987,9.93-5.561,6.751-11.122,6.751-11.122-.4-5.561-1.985-7.547-1.985-7.547-1.193,6.354-2.385,11.519-2.385,11.519a1.91,1.91,0,0,1-3.576.4,111.211,111.211,0,0,1-.793-17.079c0-5.561,3.576-11.519,3.576-11.519,3.576-8.343-2.783-24.628-2.783-24.628-1.985-17.877-2.382-31.38-2.382-31.38-.793-5.958-7.148-38.131-7.148-38.131-7.151,17.477-5.563,48.057-5.563,48.057,1.194,28.2,6.761,47.269,6.761,47.269,4.369,10.728,3.573,57.993,3.573,57.993,0,8.342-2.779,28.6-2.779,28.6-1.588,6.752-1.588,24.227-1.588,24.227.4,31.381-5.562,67.526-5.562,67.526-1.987,9.535,5.958,22.642,5.958,22.642,4.369,10.73,7.936,13.5,7.936,13.5,8.74,7.945,3.968,10.327,3.968,10.327-1.588,2.385-6.751,1.192-6.751,1.192a10.6,10.6,0,0,1-6.761,0c-9.531,3.177-9.93-1.985-9.93-1.985a8.638,8.638,0,0,1-2.382-7.945c-.793-5.563-7.545-13.9-7.545-13.9-1.194-3.576,0-11.519,0-11.519.793-14.7-6.76-49.255-6.76-49.255,0-26.217-2.779-52.034-2.779-52.034a626.725,626.725,0,0,0-7.944-62.361C2805.656,1193.443,2804.069,1195.031,2804.069,1195.031Z" transform="translate(-2740.922 -934.515)" fill="none"/></clipPath><clipPath id="b"><path d="M3029.146,1171.677c-1.587-14.291.793-39.7.793-39.7-1.19-31.762-5.942-75.519-5.942-75.519-3.174-17.865-19.851-23.423-19.851-23.423-19.852-7.936-17.469-9.132-17.469-9.132-3.574-5.955-4.368-15.484-4.368-15.484,3.178-3.574,9.133-12.7,9.133-12.7,3.155,2.423,5.175-4.715,5.175-4.715,3.571-6.352,2.792-9.933,2.792-9.933-.794-1.987-3.2-1.233-3.2-1.233,2.381-29.778-9.926-38.91-9.926-38.91-13.9-9.926-27-5.161-27-5.161-21.439,7.145-19.455,29.381-19.455,29.381-.4,2.381.794,12.7.794,12.7-4.694.116-2.833,4.3-2.833,4.3,1.193,5.558,2.646,7.3,2.646,7.3.294,1.188.917,2.926,1.24,3.88a4.5,4.5,0,0,0,3.8,3.248,1.664,1.664,0,0,0,.711-.068,35.305,35.305,0,0,0,7.54,12.3,35.9,35.9,0,0,1-4.761,14.157c-3.968,5.955-15.885,8.871-15.885,8.871-19.059,11.116-22.633,35.333-22.633,35.333-5.955,25.41-5.184,38.415-5.184,38.415-1.984,9.926,1.193,53.6,1.193,53.6a128.449,128.449,0,0,1-.8,27.791c-.038.339-.025.63-.047.952.72,3.344,1.533,6.66,2.547,9.929,5.116,7.379,9.81,7.782,9.81,7.782,7.145,1.19,3.175-1.987,3.175-1.987-9.926-5.558-6.749-11.116-6.749-11.116.4-5.558,1.984-7.542,1.984-7.542,1.193,6.352,2.384,11.513,2.384,11.513a1.91,1.91,0,0,0,3.574.4,110.992,110.992,0,0,0,.794-17.071c0-5.558-3.574-11.513-3.574-11.513-3.574-8.339,2.781-24.617,2.781-24.617,1.984-17.868,2.38-31.365,2.38-31.365.794-5.955,5.184-39.208,5.184-39.208,7.145,17.468,5.558,48.04,5.558,48.04a249.8,249.8,0,0,1-2.619,27.061q-.911,4.894-1.655,9.491c-.422,2.135-.825,3.993-1.176,5.52.1.007.2.032.3.042-2.887,19.345-3.6,32.957-3.6,32.957-1.58,28.11-2.2,53.376-2.2,53.376a250.975,250.975,0,0,1,.316,31.585c4.421,58.746,7.581,77.7,7.581,77.7,1.264,10.737.63,12,.63,12-2.855-1.617-3.156,1.262-3.156,1.262-2.76-1.617-2.129.992-3.16.949-2.2-.1-1.894,2.2-1.894,2.2,0,3.16,4.106,6.95,4.106,6.95,1.715,3.43,3.2,7.093,4.115,9.458a7.911,7.911,0,0,0,3.908,4.24,16.713,16.713,0,0,0,7.773,2.094c6.633-1.262,6-5.053,6-5.053,2.2-6.632,1.264-9.791,1.264-9.791a60.077,60.077,0,0,1-2.844-20.529,478.347,478.347,0,0,1,6-55.273c2.844-24.636,3.159-50.849,3.159-50.849,2.844-37.27,7.248-54.643,7.248-54.643a17.742,17.742,0,0,0,2.844-4.737,11.959,11.959,0,0,0,2.527,5.052c0,24,7.248,51.166,7.248,51.166,2.844,15.477,1.58,40.43,1.58,40.43,1.58,21.793,8.524,58.749,8.524,58.749.947,10.106,1.264,19.58,1.264,19.58.63,11.372-.949,13.582-.949,13.582.949,7.9,3.791,9.161,3.791,9.161,6.95,1.264,8.845-.634,8.845-.634a9.964,9.964,0,0,0,4.42-5.683,51.086,51.086,0,0,1,5.895-11.945,22.677,22.677,0,0,0,3.451-4.556c2.883-3.781-1.8-3.152-1.8-3.152-.272-3.242-3.784-1.892-3.784-1.892a2.547,2.547,0,0,0-4.052-.453c-.949-17.048,2.817-50.651,2.817-50.651,4.106-32.849,2.526-50.849,2.526-50.849,1.58-16.107,2.526-35.06,2.526-35.06a175.612,175.612,0,0,0-2.511-32.216c.694-9.3-.5-20.66-2.057-30.486.206-.05.412-.1.62-.135-1.125-9-2.366-15.059-2.366-15.059-2.384-8.736-5.558-28.587-5.558-28.587-3.178-21.836,1.19-35.336,1.19-35.336,1.19-9.923,3.968-14.291,3.968-14.291,1.588,18.665,3.162,28.667,3.162,28.667,3.574,11.116,3.177,25.41,3.177,25.41a137.4,137.4,0,0,0,4.765,32.555c2.381,7.148-1.984,9.926-1.984,9.926-2.781,7.148-1.987,16.278-1.987,16.278a69.847,69.847,0,0,0,1.19,9.529c2.384,1.987,3.574-2.381,3.574-2.381.4-2.384,1.191-10.323,1.191-10.323,5.558,6.352,1.59,11.513,1.59,11.513-2.781,3.968-5.558,7.145-5.558,7.145-1.194,2.384,2.777,2.781,2.777,2.781a17.286,17.286,0,0,0,9.827-7.8l.051-.116c.927-2.983,1.679-6.015,2.351-9.066C3030.325,1181.1,3029.146,1171.677,3029.146,1171.677Z" transform="translate(-2904.612 -934.618)" fill="none"/></clipPath></defs><g transform="translate(-774.103 -3246.974)"><g transform="translate(830.758 3282.668)"><path d="M2804.069,1195.031c-4.767,32.57-6.75,67.129-6.75,67.129-1.194,14.7-.8,30.983-.8,30.983a183.1,183.1,0,0,1-6.354,40.914,99.044,99.044,0,0,0-1.191,34.159c0,3.968-5.561,9.534-5.561,9.534a22.708,22.708,0,0,0-3.969,11.916,17.479,17.479,0,0,1-3.967,7.945c-8.737,1.192-13.106-.4-13.106-.4-1.987-.794-5.958-2.782-5.958-2.782-3.576-.794-3.576-3.176-3.576-3.176l3.968-4.768c1.986-3.576,6.355-11.122,6.355-11.122,9.533-12.712,9.137-17.875,9.137-17.875.4-7.148-2.385-23.037-2.385-23.037-2.382-37.734-3.176-64.746-3.176-64.746-.793-11.916-3.576-33.361-3.576-33.361-1.588-21.053-.4-50.447-.4-50.447a240.284,240.284,0,0,1,3.968-33.762c2.382-8.74,5.561-28.6,5.561-28.6,3.176-21.846-1.19-35.352-1.19-35.352-1.193-9.93-3.968-14.3-3.968-14.3-1.59,18.664-5.164,29.393-5.164,29.393-3.576,11.122-3.179,25.425-3.179,25.425a137.415,137.415,0,0,1-4.766,32.57c-2.382,7.151,1.987,9.93,1.987,9.93,2.779,7.151,1.986,16.288,1.986,16.288a70.028,70.028,0,0,1-1.19,9.531c-2.385,1.987-3.576-2.382-3.576-2.382-.4-2.385-1.19-10.327-1.19-10.327-5.561,6.355-1.589,11.519-1.589,11.519,2.779,3.968,5.562,7.151,5.562,7.151,1.19,2.382-2.782,2.779-2.782,2.779-10.327-3.179-12.312-13.9-12.312-13.9,0-6.752,1.588-19.461,1.588-19.461,1.588-14.3-.794-39.721-.794-39.721,1.191-31.776,7.937-76.265,7.937-76.265,3.178-17.874,19.86-23.435,19.86-23.435,19.861-7.945,17.479-9.137,17.479-9.137,3.573-5.958,4.368-15.491,4.368-15.491-3.176-3.576-9.133-12.709-9.133-12.709-3.767,4.246-5.958-4.369-5.958-4.369-3.575-6.354-2.782-9.931-2.782-9.931.793-1.987,3.968-1.588,3.968-1.588-2.386-29.791,9.93-38.928,9.93-38.928,13.9-9.93,27.009-5.164,27.009-5.164,21.449,7.148,19.464,29.393,19.464,29.393.4,2.382-.8,12.709-.8,12.709,5.774.085,4.013,4.493,4.013,4.493a18.052,18.052,0,0,1-3.216,7.823c-.294,1.189-.651,2.322-.974,3.274a4.63,4.63,0,0,1-4.669,3.148c-.433-.028-.714-.067-.714-.067a35.247,35.247,0,0,1-7.545,12.313,28.958,28.958,0,0,0,6.354,14.3c3.968,5.958,14.3,8.74,14.3,8.74,19.067,11.121,22.64,35.349,22.64,35.349,5.958,25.425,7.151,37.339,7.151,37.339,1.985,9.928-1.193,53.623-1.193,53.623a128.557,128.557,0,0,0,.8,27.8c.793,7.151-2.386,10.728-2.386,10.728-5.165,7.548-9.93,7.945-9.93,7.945-7.148,1.192-3.176-1.987-3.176-1.987,9.93-5.561,6.751-11.122,6.751-11.122-.4-5.561-1.985-7.547-1.985-7.547-1.193,6.354-2.385,11.519-2.385,11.519a1.91,1.91,0,0,1-3.576.4,111.211,111.211,0,0,1-.793-17.079c0-5.561,3.576-11.519,3.576-11.519,3.576-8.343-2.783-24.628-2.783-24.628-1.985-17.877-2.382-31.38-2.382-31.38-.793-5.958-7.148-38.131-7.148-38.131-7.151,17.477-5.563,48.057-5.563,48.057,1.194,28.2,6.761,47.269,6.761,47.269,4.369,10.728,3.573,57.993,3.573,57.993,0,8.342-2.779,28.6-2.779,28.6-1.588,6.752-1.588,24.227-1.588,24.227.4,31.381-5.562,67.526-5.562,67.526-1.987,9.535,5.958,22.642,5.958,22.642,4.369,10.73,7.936,13.5,7.936,13.5,8.74,7.945,3.968,10.327,3.968,10.327-1.588,2.385-6.751,1.192-6.751,1.192a10.6,10.6,0,0,1-6.761,0c-9.531,3.177-9.93-1.985-9.93-1.985a8.638,8.638,0,0,1-2.382-7.945c-.793-5.563-7.545-13.9-7.545-13.9-1.194-3.576,0-11.519,0-11.519.793-14.7-6.76-49.255-6.76-49.255,0-26.217-2.779-52.034-2.779-52.034a626.725,626.725,0,0,0-7.944-62.361C2805.656,1193.443,2804.069,1195.031,2804.069,1195.031Z" transform="translate(-2740.922 -934.515)" fill="#dfdf00"/><g clip-path="url(#a)"><g transform="translate(-15.405 116.049)"><g opacity="0.65"><ellipse cx="23.514" cy="24.249" rx="23.514" ry="24.249" transform="translate(19.302 149.038)" fill="#86b54a"/><circle cx="24.249" cy="24.249" r="24.249" transform="translate(91.314 149.038)" fill="#86b54a"/><ellipse cx="30.128" cy="22.045" rx="30.128" ry="22.045" transform="translate(48.694 65.268)" fill="#86b54a"/><ellipse cx="18.37" cy="18.848" rx="18.37" ry="18.848" transform="translate(124.24)" fill="#86b54a"/><ellipse cx="17.636" cy="18.848" rx="17.636" ry="18.848" transform="translate(0 0.357)" fill="#86b54a"/></g></g></g><g transform="translate(240.566 0.152)"><path d="M3029.146,1171.677c-1.587-14.291.793-39.7.793-39.7-1.19-31.762-5.942-75.519-5.942-75.519-3.174-17.865-19.851-23.423-19.851-23.423-19.852-7.936-17.469-9.132-17.469-9.132-3.574-5.955-4.368-15.484-4.368-15.484,3.178-3.574,9.133-12.7,9.133-12.7,3.155,2.423,5.175-4.715,5.175-4.715,3.571-6.352,2.792-9.933,2.792-9.933-.794-1.987-3.2-1.233-3.2-1.233,2.381-29.778-9.926-38.91-9.926-38.91-13.9-9.926-27-5.161-27-5.161-21.439,7.145-19.455,29.381-19.455,29.381-.4,2.381.794,12.7.794,12.7-4.694.116-2.833,4.3-2.833,4.3,1.193,5.558,2.646,7.3,2.646,7.3.294,1.188.917,2.926,1.24,3.88a4.5,4.5,0,0,0,3.8,3.248,1.664,1.664,0,0,0,.711-.068,35.305,35.305,0,0,0,7.54,12.3,35.9,35.9,0,0,1-4.761,14.157c-3.968,5.955-15.885,8.871-15.885,8.871-19.059,11.116-22.633,35.333-22.633,35.333-5.955,25.41-5.184,38.415-5.184,38.415-1.984,9.926,1.193,53.6,1.193,53.6a128.449,128.449,0,0,1-.8,27.791c-.038.339-.025.63-.047.952.72,3.344,1.533,6.66,2.547,9.929,5.116,7.379,9.81,7.782,9.81,7.782,7.145,1.19,3.175-1.987,3.175-1.987-9.926-5.558-6.749-11.116-6.749-11.116.4-5.558,1.984-7.542,1.984-7.542,1.193,6.352,2.384,11.513,2.384,11.513a1.91,1.91,0,0,0,3.574.4,110.992,110.992,0,0,0,.794-17.071c0-5.558-3.574-11.513-3.574-11.513-3.574-8.339,2.781-24.617,2.781-24.617,1.984-17.868,2.38-31.365,2.38-31.365.794-5.955,5.184-39.208,5.184-39.208,7.145,17.468,5.558,48.04,5.558,48.04a249.8,249.8,0,0,1-2.619,27.061q-.911,4.894-1.655,9.491c-.422,2.135-.825,3.993-1.176,5.52.1.007.2.032.3.042-2.887,19.345-3.6,32.957-3.6,32.957-1.58,28.11-2.2,53.376-2.2,53.376a250.975,250.975,0,0,1,.316,31.585c4.421,58.746,7.581,77.7,7.581,77.7,1.264,10.737.63,12,.63,12-2.855-1.617-3.156,1.262-3.156,1.262-2.76-1.617-2.129.992-3.16.949-2.2-.1-1.894,2.2-1.894,2.2,0,3.16,4.106,6.95,4.106,6.95,1.715,3.43,3.2,7.093,4.115,9.458a7.911,7.911,0,0,0,3.908,4.24,16.713,16.713,0,0,0,7.773,2.094c6.633-1.262,6-5.053,6-5.053,2.2-6.632,1.264-9.791,1.264-9.791a60.077,60.077,0,0,1-2.844-20.529,478.347,478.347,0,0,1,6-55.273c2.844-24.636,3.159-50.849,3.159-50.849,2.844-37.27,7.248-54.643,7.248-54.643a17.742,17.742,0,0,0,2.844-4.737,11.959,11.959,0,0,0,2.527,5.052c0,24,7.248,51.166,7.248,51.166,2.844,15.477,1.58,40.43,1.58,40.43,1.58,21.793,8.524,58.749,8.524,58.749.947,10.106,1.264,19.58,1.264,19.58.63,11.372-.949,13.582-.949,13.582.949,7.9,3.791,9.161,3.791,9.161,6.95,1.264,8.845-.634,8.845-.634a9.964,9.964,0,0,0,4.42-5.683,51.086,51.086,0,0,1,5.895-11.945,22.677,22.677,0,0,0,3.451-4.556c2.883-3.781-1.8-3.152-1.8-3.152-.272-3.242-3.784-1.892-3.784-1.892a2.547,2.547,0,0,0-4.052-.453c-.949-17.048,2.817-50.651,2.817-50.651,4.106-32.849,2.526-50.849,2.526-50.849,1.58-16.107,2.526-35.06,2.526-35.06a175.612,175.612,0,0,0-2.511-32.216c.694-9.3-.5-20.66-2.057-30.486.206-.05.412-.1.62-.135-1.125-9-2.366-15.059-2.366-15.059-2.384-8.736-5.558-28.587-5.558-28.587-3.178-21.836,1.19-35.336,1.19-35.336,1.19-9.923,3.968-14.291,3.968-14.291,1.588,18.665,3.162,28.667,3.162,28.667,3.574,11.116,3.177,25.41,3.177,25.41a137.4,137.4,0,0,0,4.765,32.555c2.381,7.148-1.984,9.926-1.984,9.926-2.781,7.148-1.987,16.278-1.987,16.278a69.847,69.847,0,0,0,1.19,9.529c2.384,1.987,3.574-2.381,3.574-2.381.4-2.384,1.191-10.323,1.191-10.323,5.558,6.352,1.59,11.513,1.59,11.513-2.781,3.968-5.558,7.145-5.558,7.145-1.194,2.384,2.777,2.781,2.777,2.781a17.286,17.286,0,0,0,9.827-7.8l.051-.116c.927-2.983,1.679-6.015,2.351-9.066C3030.325,1181.1,3029.146,1171.677,3029.146,1171.677Z" transform="translate(-2904.612 -934.618)" fill="#dfdf00"/><ellipse cx="15.431" cy="16.166" rx="15.431" ry="16.166" transform="translate(29.335 231.132)" fill="#86b54a" opacity="0.65"/><circle cx="16.166" cy="16.166" r="16.166" transform="translate(69.016 231.132)" fill="#86b54a" opacity="0.65"/></g><g transform="translate(240.566 0.152)"><g clip-path="url(#b)"><g transform="translate(-15.437 104.553)" opacity="0.65"><ellipse cx="15.631" cy="19.708" rx="15.631" ry="19.708" transform="translate(119.055 6.209) rotate(-7)" fill="#86b54a"/><ellipse cx="19.708" cy="15.631" rx="19.708" ry="15.631" transform="translate(0 37.039) rotate(-70)" fill="#86b54a"/></g></g></g></g><g transform="translate(772 3241.781)"><path d="M147.29,14h2.226V10h.994l2.562,4h2.562l-2.856-4.284a2.819,2.819,0,0,0,2.058-2.8,2.6,2.6,0,0,0-1.218-2.38,6.1,6.1,0,0,0-3.15-.672H147.29Zm2.226-5.67V5.81h.854a3.793,3.793,0,0,1,1.666.266,1,1,0,0,1,.574.994,1.054,1.054,0,0,1-.574,1.022,3.19,3.19,0,0,1-1.4.238Zm13.076,2.786a5.673,5.673,0,0,0,.042-.728,3.187,3.187,0,0,0-3.29-3.43,3.552,3.552,0,0,0-3.612,3.626c0,2.156,1.638,3.57,3.906,3.57a5.289,5.289,0,0,0,2.618-.63V11.746a4.286,4.286,0,0,1-2.338.756,1.865,1.865,0,0,1-2-1.386ZM157.9,9.772a1.423,1.423,0,0,1,1.414-1.19,1.345,1.345,0,0,1,1.358,1.19Zm11.928,1.89a3.5,3.5,0,0,1-2.016.686,1.8,1.8,0,1,1-.028-3.6,3.7,3.7,0,0,1,1.946.644V7.42a4.631,4.631,0,0,0-2.044-.462,3.7,3.7,0,0,0-3.948,3.612,3.6,3.6,0,0,0,3.836,3.584,4.737,4.737,0,0,0,2.254-.532Zm3.29-1.106a1.709,1.709,0,1,1,1.708,1.764A1.719,1.719,0,0,1,173.12,10.556Zm-2.128,0a3.844,3.844,0,1,0,3.836-3.6A3.647,3.647,0,0,0,170.992,10.556ZM189.038,14h2.128V9.674a2.7,2.7,0,0,0-.63-2.03,2.4,2.4,0,0,0-1.778-.686,3.581,3.581,0,0,0-2.422.98,2.311,2.311,0,0,0-2-.98,3.192,3.192,0,0,0-2.072.784l-.028-.014V7.112h-2.1V14h2.128V9.352a2.234,2.234,0,0,1,1.344-.56.951.951,0,0,1,.728.294,1.3,1.3,0,0,1,.252.938V14h2.128V9.674a2.267,2.267,0,0,0-.014-.308,2.161,2.161,0,0,1,1.358-.574.951.951,0,0,1,.728.294,1.253,1.253,0,0,1,.252.938Zm12.908,0h2.128V9.674a2.7,2.7,0,0,0-.63-2.03,2.4,2.4,0,0,0-1.778-.686,3.581,3.581,0,0,0-2.422.98,2.311,2.311,0,0,0-2-.98,3.192,3.192,0,0,0-2.072.784l-.028-.014V7.112h-2.1V14h2.128V9.352a2.234,2.234,0,0,1,1.344-.56.951.951,0,0,1,.728.294,1.3,1.3,0,0,1,.252.938V14h2.128V9.674a2.267,2.267,0,0,0-.014-.308,2.161,2.161,0,0,1,1.358-.574.951.951,0,0,1,.728.294,1.253,1.253,0,0,1,.252.938Zm10.43-2.884a5.673,5.673,0,0,0,.042-.728,3.187,3.187,0,0,0-3.29-3.43,3.552,3.552,0,0,0-3.612,3.626c0,2.156,1.638,3.57,3.906,3.57a5.289,5.289,0,0,0,2.618-.63V11.746a4.286,4.286,0,0,1-2.338.756,1.865,1.865,0,0,1-2-1.386Zm-4.69-1.344a1.423,1.423,0,0,1,1.414-1.19,1.345,1.345,0,0,1,1.358,1.19ZM213.944,14h2.128V9.366a2.457,2.457,0,0,1,1.442-.574.912.912,0,0,1,.728.294,1.365,1.365,0,0,1,.238.966V14h2.128V9.7a2.77,2.77,0,0,0-.6-2.044,2.481,2.481,0,0,0-1.806-.7,3.373,3.373,0,0,0-2.128.8l-.028-.014v-.63h-2.1Zm13.174-.364V14H229.2V3.3h-2.128V7.2l-.028.014a3.267,3.267,0,0,0-1.3-.252,3.6,3.6,0,0,0-3.64,3.738,3.258,3.258,0,0,0,3.234,3.458,3.085,3.085,0,0,0,1.75-.532Zm-.042-1.568a2.252,2.252,0,0,1-1.19.35,1.639,1.639,0,0,1-1.638-1.82,1.7,1.7,0,0,1,1.722-1.876,2.479,2.479,0,0,1,1.106.266Zm10.458-.952a5.673,5.673,0,0,0,.042-.728,3.187,3.187,0,0,0-3.29-3.43,3.552,3.552,0,0,0-3.612,3.626c0,2.156,1.638,3.57,3.906,3.57a5.289,5.289,0,0,0,2.618-.63V11.746a4.286,4.286,0,0,1-2.338.756,1.865,1.865,0,0,1-2-1.386Zm-4.69-1.344a1.423,1.423,0,0,1,1.414-1.19,1.345,1.345,0,0,1,1.358,1.19Zm10.892,3.864V14h2.086V3.3h-2.128V7.2l-.028.014a3.267,3.267,0,0,0-1.3-.252,3.6,3.6,0,0,0-3.64,3.738,3.258,3.258,0,0,0,3.234,3.458,3.085,3.085,0,0,0,1.75-.532Zm-.042-1.568a2.252,2.252,0,0,1-1.19.35,1.639,1.639,0,0,1-1.638-1.82,1.7,1.7,0,0,1,1.722-1.876,2.479,2.479,0,0,1,1.106.266Zm7.322-7.14a1.232,1.232,0,1,0,1.232-1.218A1.231,1.231,0,0,0,251.016,4.928ZM251.184,14h2.128V7.112h-2.128Zm4.032,0h2.128V9.366a2.456,2.456,0,0,1,1.442-.574.912.912,0,0,1,.728.294,1.365,1.365,0,0,1,.238.966V14h2.128V9.7a2.77,2.77,0,0,0-.6-2.044,2.481,2.481,0,0,0-1.806-.7,3.373,3.373,0,0,0-2.128.8l-.028-.014v-.63h-2.1Zm8.414-9.072a1.232,1.232,0,1,0,1.232-1.218A1.231,1.231,0,0,0,263.63,4.928Zm.168,9.408c0,.7-.112,1.106-.854,1.106a4.232,4.232,0,0,1-.7-.07v1.75a4.056,4.056,0,0,0,.966.112,2.943,2.943,0,0,0,2.086-.742,3.032,3.032,0,0,0,.63-2.3V7.112H263.8Zm10.458-3.22a5.676,5.676,0,0,0,.042-.728,3.187,3.187,0,0,0-3.29-3.43,3.552,3.552,0,0,0-3.612,3.626c0,2.156,1.638,3.57,3.906,3.57a5.289,5.289,0,0,0,2.618-.63V11.746a4.286,4.286,0,0,1-2.338.756,1.865,1.865,0,0,1-2-1.386Zm-4.69-1.344a1.423,1.423,0,0,1,1.414-1.19,1.345,1.345,0,0,1,1.358,1.19Zm11.928,1.89a3.5,3.5,0,0,1-2.016.686,1.8,1.8,0,1,1-.028-3.6,3.7,3.7,0,0,1,1.946.644V7.42a4.631,4.631,0,0,0-2.044-.462A3.7,3.7,0,0,0,275.4,10.57a3.6,3.6,0,0,0,3.836,3.584,4.737,4.737,0,0,0,2.254-.532Zm6.1.42a2.466,2.466,0,0,1-1.022.28c-.644,0-.8-.5-.8-1.176V8.876h1.82V7.112h-1.82V4.956l-2.128.364V7.112h-1.12V8.876h1.12V11.41a2.806,2.806,0,0,0,.6,2.058,2.427,2.427,0,0,0,1.792.686,3.172,3.172,0,0,0,1.554-.378Zm1.246-7.154a1.232,1.232,0,1,0,1.232-1.218A1.231,1.231,0,0,0,288.844,4.928ZM289.012,14h2.128V7.112h-2.128Zm5.726-3.444a1.709,1.709,0,1,1,1.708,1.764A1.719,1.719,0,0,1,294.738,10.556Zm-2.128,0a3.844,3.844,0,1,0,3.836-3.6A3.647,3.647,0,0,0,292.61,10.556ZM301.752,14h2.128V9.366a2.456,2.456,0,0,1,1.442-.574.912.912,0,0,1,.728.294,1.365,1.365,0,0,1,.238.966V14h2.128V9.7a2.77,2.77,0,0,0-.6-2.044,2.481,2.481,0,0,0-1.806-.7,3.373,3.373,0,0,0-2.128.8l-.028-.014v-.63h-2.1Zm11.8-.42a6.538,6.538,0,0,0,2.716.574c1.764,0,3.08-.826,3.094-2.338,0-1.19-.8-1.694-2.114-2.016-1.022-.252-1.764-.21-1.764-.714,0-.322.336-.49.9-.49a5.8,5.8,0,0,1,2.59.742V7.5a6.431,6.431,0,0,0-2.632-.546c-1.708,0-3,.826-3.01,2.282,0,1.134.77,1.68,2.072,2,1.036.266,1.806.21,1.806.742,0,.378-.35.532-.938.532a5.886,5.886,0,0,1-2.716-.8Zm7.084-8.652A1.232,1.232,0,1,0,321.87,3.71,1.231,1.231,0,0,0,320.638,4.928ZM320.806,14h2.128V7.112h-2.128Zm8.5-1.918a2.466,2.466,0,0,1-1.022.28c-.644,0-.8-.5-.8-1.176V8.876h1.82V7.112h-1.82V4.956l-2.128.364V7.112h-1.12V8.876h1.12V11.41a2.806,2.806,0,0,0,.6,2.058,2.427,2.427,0,0,0,1.792.686,3.172,3.172,0,0,0,1.554-.378Zm7.728-.966a5.676,5.676,0,0,0,.042-.728,3.187,3.187,0,0,0-3.29-3.43,3.552,3.552,0,0,0-3.612,3.626c0,2.156,1.638,3.57,3.906,3.57a5.289,5.289,0,0,0,2.618-.63V11.746a4.286,4.286,0,0,1-2.338.756,1.865,1.865,0,0,1-2-1.386Zm-4.69-1.344a1.423,1.423,0,0,1,1.414-1.19,1.345,1.345,0,0,1,1.358,1.19ZM338.4,13.58a6.538,6.538,0,0,0,2.716.574c1.764,0,3.08-.826,3.094-2.338,0-1.19-.8-1.694-2.114-2.016-1.022-.252-1.764-.21-1.764-.714,0-.322.336-.49.9-.49a5.8,5.8,0,0,1,2.59.742V7.5a6.431,6.431,0,0,0-2.632-.546c-1.708,0-3,.826-3.01,2.282,0,1.134.77,1.68,2.072,2,1.036.266,1.806.21,1.806.742,0,.378-.35.532-.938.532a5.886,5.886,0,0,1-2.716-.8ZM2.313,31.356a6.249,6.249,0,0,0,3.052.8c2.03,0,3.388-1.092,3.388-2.94,0-1.932-1.456-2.52-2.926-2.94-1.232-.35-2.408-.56-2.408-1.82,0-1.036.8-1.526,1.932-1.526a5.415,5.415,0,0,1,2.94.938v-1.4a5.724,5.724,0,0,0-2.912-.756C3.4,21.71,2.1,22.746,2.1,24.538c0,1.848,1.386,2.436,2.814,2.842,1.33.378,2.52.6,2.52,1.9,0,1.106-.854,1.652-2.058,1.652A5.3,5.3,0,0,1,2.313,29.9Zm9.506.434.028-.014a3.885,3.885,0,0,0,1.694.378,3.485,3.485,0,0,0,3.6-3.626,3.358,3.358,0,0,0-3.332-3.57,3.4,3.4,0,0,0-1.96.616l-.028-.014v-.448h-1.26V35.08h1.26Zm0-1.218v-3.85a2.872,2.872,0,0,1,1.778-.63,2.337,2.337,0,0,1,2.268,2.534,2.255,2.255,0,0,1-2.3,2.422A3.79,3.79,0,0,1,11.819,30.572ZM25.077,28.92a4.32,4.32,0,0,0,.042-.63,3.082,3.082,0,0,0-3.136-3.332,3.433,3.433,0,0,0-3.43,3.6,3.511,3.511,0,0,0,3.724,3.6,4.876,4.876,0,0,0,2.464-.644V30.166a3.926,3.926,0,0,1-2.38.854,2.36,2.36,0,0,1-2.548-2.1Zm-3.122-2.828A1.865,1.865,0,0,1,23.9,27.926h-4.06A2.1,2.1,0,0,1,21.955,26.092Zm7,6.062a3.269,3.269,0,0,0,2.114-.756H31.1a1.464,1.464,0,0,0,1.33.728A1.8,1.8,0,0,0,33.1,32V30.95a.964.964,0,0,1-.406.1c-.378,0-.532-.308-.532-.728V27.394a2.321,2.321,0,0,0-.686-1.806,3,3,0,0,0-2.058-.63,4.336,4.336,0,0,0-2.3.588v1.232a3.591,3.591,0,0,1,2.114-.686,1.869,1.869,0,0,1,1.274.378A1.489,1.489,0,0,1,30.9,27.6v.574A6.036,6.036,0,0,0,29.431,28a3.6,3.6,0,0,0-1.932.462,1.914,1.914,0,0,0-.91,1.68,1.835,1.835,0,0,0,.728,1.526A2.749,2.749,0,0,0,28.955,32.154Zm.224-1.12c-.742,0-1.316-.336-1.316-1.008,0-.812.84-1.064,1.694-1.064a5.194,5.194,0,0,1,1.344.182v1.288A2.871,2.871,0,0,1,29.179,31.034Zm5.46.966H35.9V28.276l.028-.014L39.3,32h1.652l-3.486-3.808,3.15-3.08h-1.61l-3.08,3.038-.028-.014V21.3h-1.26Zm12.712,0h1.26l1.078-2.954c.238-.63.476-1.33.672-1.932h.028c.2.6.434,1.3.672,1.932L52.139,32h1.246l2.394-6.888H54.463l-1.022,3.08c-.238.714-.462,1.414-.672,2.114h-.028c-.238-.7-.49-1.414-.756-2.128l-1.134-3.066h-.9l-1.134,3.066c-.252.686-.518,1.428-.756,2.128h-.028c-.224-.714-.448-1.414-.686-2.128l-1.022-3.066H44.957Zm9.786-9.254a.882.882,0,1,0,.882-.882A.878.878,0,0,0,57.137,22.746ZM57.389,32h1.26V25.112h-1.26Zm4.662-.49a2,2,0,0,0,1.568.644,3.064,3.064,0,0,0,1.246-.252v-1.19a2.085,2.085,0,0,1-1.036.294c-.91,0-1.036-.784-1.036-1.638V26.246h2.072V25.112H62.793V23.026l-1.26.21v1.876H60.259v1.134h1.274v3.36A2.718,2.718,0,0,0,62.051,31.51Zm4.536.49h1.26V27.282a3.007,3.007,0,0,1,2.2-1.148,1.309,1.309,0,0,1,1.05.448,1.95,1.95,0,0,1,.336,1.4V32h1.26V27.744a2.79,2.79,0,0,0-.574-2.03,2.383,2.383,0,0,0-1.834-.756,3.415,3.415,0,0,0-2.408,1.036l-.028-.014V21.3h-1.26Zm13.538,3.08,4.662-9.968h-1.33l-1.2,2.6c-.322.7-.63,1.386-.938,2.072h-.028c-.28-.63-.616-1.372-.938-2.072l-1.2-2.6h-1.4l2.87,6.146L78.753,35.08Zm5.208-6.524a3.64,3.64,0,1,0,3.64-3.6A3.546,3.546,0,0,0,85.333,28.556Zm1.26,0a2.381,2.381,0,1,1,2.38,2.45A2.36,2.36,0,0,1,86.593,28.556Zm8.428,2.828a2.462,2.462,0,0,0,1.876.77,3.375,3.375,0,0,0,2.38-1.036l.028.014V32h1.26V25.112h-1.26v4.7a2.945,2.945,0,0,1-2.156,1.176,1.344,1.344,0,0,1-1.092-.476,2.083,2.083,0,0,1-.336-1.428V25.112h-1.26v4.214A2.991,2.991,0,0,0,95.021,31.384Zm7.9.616h1.26V27.52a2.253,2.253,0,0,1,2.03-1.218,2.026,2.026,0,0,1,.49.056V25.112a1.707,1.707,0,0,0-.448-.056,2.511,2.511,0,0,0-2.044,1.078l-.028-.014V25.112h-1.26Zm8.806,0h1.26V27.282a2.9,2.9,0,0,1,2.156-1.148,1.428,1.428,0,0,1,1.106.448,2.135,2.135,0,0,1,.322,1.4V32h1.26V27.744a2.79,2.79,0,0,0-.574-2.03,2.383,2.383,0,0,0-1.834-.756,3.415,3.415,0,0,0-2.408,1.036l-.028-.014v-.868h-1.26Zm8.96-.616a2.462,2.462,0,0,0,1.876.77,3.375,3.375,0,0,0,2.38-1.036l.028.014V32h1.26V25.112h-1.26v4.7a2.945,2.945,0,0,1-2.156,1.176,1.344,1.344,0,0,1-1.092-.476,2.083,2.083,0,0,1-.336-1.428V25.112h-1.26v4.214A2.991,2.991,0,0,0,120.683,31.384Zm7.9.616h1.26V27.52a2.253,2.253,0,0,1,2.03-1.218,2.026,2.026,0,0,1,.49.056V25.112a1.707,1.707,0,0,0-.448-.056,2.511,2.511,0,0,0-2.044,1.078l-.028-.014V25.112h-1.26Zm5.082-.406a5.792,5.792,0,0,0,2.576.56c1.47,0,2.9-.6,2.9-2.2,0-1.428-1.092-1.792-2.408-2.016-1.022-.182-2-.182-2-.966,0-.616.616-.882,1.5-.882a5.231,5.231,0,0,1,2.52.672V25.5a5.576,5.576,0,0,0-2.464-.546c-1.6,0-2.814.686-2.828,2.114,0,1.358,1.036,1.75,2.352,1.974,1.064.182,2.058.2,2.058,1.022,0,.672-.616.952-1.568.952a5.038,5.038,0,0,1-2.632-.742Zm13.37-2.674a4.32,4.32,0,0,0,.042-.63,3.082,3.082,0,0,0-3.136-3.332,3.433,3.433,0,0,0-3.43,3.6,3.511,3.511,0,0,0,3.724,3.6,4.876,4.876,0,0,0,2.464-.644V30.166a3.926,3.926,0,0,1-2.38.854,2.36,2.36,0,0,1-2.548-2.1Zm-3.122-2.828a1.865,1.865,0,0,1,1.946,1.834h-4.06A2.1,2.1,0,0,1,143.909,26.092Zm4.774,7.966h.924l1.134-3.962h-1.274Zm7.658-5.39a3.4,3.4,0,0,0,5.306,2.9l.028.014V32h1.26V21.3h-1.26v4l-.028.014a3.95,3.95,0,0,0-1.652-.364A3.552,3.552,0,0,0,156.341,28.668Zm1.274-.07a2.343,2.343,0,0,1,2.366-2.52,3.837,3.837,0,0,1,1.694.434v3.934a3.185,3.185,0,0,1-1.792.588A2.244,2.244,0,0,1,157.615,28.6Zm7.2-.042a3.64,3.64,0,1,0,3.64-3.6A3.546,3.546,0,0,0,164.811,28.556Zm1.26,0a2.381,2.381,0,1,1,2.38,2.45A2.36,2.36,0,0,1,166.071,28.556Zm13.216,1.778a3.207,3.207,0,0,1-1.988.672,2.373,2.373,0,0,1-2.534-2.408,2.412,2.412,0,0,1,2.492-2.492,3.631,3.631,0,0,1,1.918.588v-1.3a4.152,4.152,0,0,0-1.862-.434,3.642,3.642,0,0,0-3.822,3.64,3.53,3.53,0,0,0,3.738,3.556,4.451,4.451,0,0,0,2.058-.476Zm3.01,1.176a2,2,0,0,0,1.568.644,3.064,3.064,0,0,0,1.246-.252v-1.19a2.085,2.085,0,0,1-1.036.294c-.91,0-1.036-.784-1.036-1.638V26.246h2.072V25.112h-2.072V23.026l-1.26.21v1.876h-1.274v1.134h1.274v3.36A2.718,2.718,0,0,0,182.3,31.51Zm3.892-2.954a3.64,3.64,0,1,0,3.64-3.6A3.546,3.546,0,0,0,186.189,28.556Zm1.26,0a2.381,2.381,0,1,1,2.38,2.45A2.36,2.36,0,0,1,187.449,28.556Zm7.9,3.444h1.26V27.52a2.253,2.253,0,0,1,2.03-1.218,2.026,2.026,0,0,1,.49.056V25.112a1.707,1.707,0,0,0-.448-.056,2.511,2.511,0,0,0-2.044,1.078l-.028-.014V25.112h-1.26Zm3.36,2.058h.924l1.134-3.962h-1.274Zm10.01-1.9a3.269,3.269,0,0,0,2.114-.756h.028a1.464,1.464,0,0,0,1.33.728,1.8,1.8,0,0,0,.672-.126V30.95a.964.964,0,0,1-.406.1c-.378,0-.532-.308-.532-.728V27.394a2.321,2.321,0,0,0-.686-1.806,3,3,0,0,0-2.058-.63,4.336,4.336,0,0,0-2.3.588v1.232a3.591,3.591,0,0,1,2.114-.686,1.869,1.869,0,0,1,1.274.378,1.489,1.489,0,0,1,.392,1.134v.574a6.036,6.036,0,0,0-1.47-.182,3.6,3.6,0,0,0-1.932.462,1.914,1.914,0,0,0-.91,1.68,1.835,1.835,0,0,0,.728,1.526A2.749,2.749,0,0,0,208.715,32.154Zm.224-1.12c-.742,0-1.316-.336-1.316-1.008,0-.812.84-1.064,1.694-1.064a5.194,5.194,0,0,1,1.344.182v1.288A2.871,2.871,0,0,1,208.939,31.034ZM214.4,32h1.26V27.282a2.9,2.9,0,0,1,2.156-1.148,1.428,1.428,0,0,1,1.106.448,2.135,2.135,0,0,1,.322,1.4V32h1.26V27.744a2.79,2.79,0,0,0-.574-2.03,2.383,2.383,0,0,0-1.834-.756,3.415,3.415,0,0,0-2.408,1.036l-.028-.014v-.868H214.4Zm7.98-3.332a3.4,3.4,0,0,0,5.306,2.9l.028.014V32h1.26V21.3h-1.26v4l-.028.014a3.95,3.95,0,0,0-1.652-.364A3.552,3.552,0,0,0,222.379,28.668Zm1.274-.07a2.343,2.343,0,0,1,2.366-2.52,3.837,3.837,0,0,1,1.694.434v3.934a3.185,3.185,0,0,1-1.792.588A2.244,2.244,0,0,1,223.653,28.6Zm6.818,3.934h1.036l4.7-11.2h-1.036Zm5.558-3.976a3.64,3.64,0,1,0,3.64-3.6A3.546,3.546,0,0,0,236.029,28.556Zm1.26,0a2.381,2.381,0,1,1,2.38,2.45A2.36,2.36,0,0,1,237.289,28.556Zm7.9,3.444h1.26V27.52a2.253,2.253,0,0,1,2.03-1.218,2.026,2.026,0,0,1,.49.056V25.112a1.707,1.707,0,0,0-.448-.056,2.511,2.511,0,0,0-2.044,1.078l-.028-.014V25.112h-1.26Zm10.066-.21.028-.014a3.885,3.885,0,0,0,1.694.378,3.485,3.485,0,0,0,3.6-3.626,3.357,3.357,0,0,0-3.332-3.57,3.4,3.4,0,0,0-1.96.616l-.028-.014v-.448h-1.26V35.08h1.26Zm0-1.218v-3.85a2.872,2.872,0,0,1,1.778-.63,2.337,2.337,0,0,1,2.268,2.534,2.255,2.255,0,0,1-2.3,2.422A3.79,3.79,0,0,1,255.251,30.572ZM262.461,32h1.26V27.282a3.007,3.007,0,0,1,2.2-1.148,1.309,1.309,0,0,1,1.05.448,1.951,1.951,0,0,1,.336,1.4V32h1.26V27.744a2.79,2.79,0,0,0-.574-2.03,2.383,2.383,0,0,0-1.834-.756,3.415,3.415,0,0,0-2.408,1.036l-.028-.014V21.3h-1.26Zm10.332.154a3.269,3.269,0,0,0,2.114-.756h.028a1.464,1.464,0,0,0,1.33.728,1.8,1.8,0,0,0,.672-.126V30.95a.964.964,0,0,1-.406.1c-.378,0-.532-.308-.532-.728V27.394a2.321,2.321,0,0,0-.686-1.806,3,3,0,0,0-2.058-.63,4.336,4.336,0,0,0-2.3.588v1.232a3.591,3.591,0,0,1,2.114-.686,1.869,1.869,0,0,1,1.274.378,1.489,1.489,0,0,1,.392,1.134v.574a6.036,6.036,0,0,0-1.47-.182,3.6,3.6,0,0,0-1.932.462,1.914,1.914,0,0,0-.91,1.68,1.835,1.835,0,0,0,.728,1.526A2.749,2.749,0,0,0,272.793,32.154Zm.224-1.12c-.742,0-1.316-.336-1.316-1.008,0-.812.84-1.064,1.694-1.064a5.194,5.194,0,0,1,1.344.182v1.288A2.871,2.871,0,0,1,273.017,31.034Zm5.46.966h1.26V27.52a2.253,2.253,0,0,1,2.03-1.218,2.026,2.026,0,0,1,.49.056V25.112a1.707,1.707,0,0,0-.448-.056,2.51,2.51,0,0,0-2.044,1.078l-.028-.014V25.112h-1.26Zm14.756,0h1.26V27.7a2.8,2.8,0,0,0-.574-2.016,2.35,2.35,0,0,0-1.806-.728,3.733,3.733,0,0,0-2.618,1.19,2.278,2.278,0,0,0-2.114-1.19,3.316,3.316,0,0,0-2.338,1.008l-.028-.014v-.84h-1.26V32h1.26V27.212a2.921,2.921,0,0,1,2.1-1.078,1.328,1.328,0,0,1,1.05.434,1.9,1.9,0,0,1,.322,1.358V32h1.26V27.7c0-.168,0-.336-.014-.49a3,3,0,0,1,2.1-1.078,1.383,1.383,0,0,1,1.05.42,2.018,2.018,0,0,1,.35,1.372Zm5.488.154a3.269,3.269,0,0,0,2.114-.756h.028a1.464,1.464,0,0,0,1.33.728,1.8,1.8,0,0,0,.672-.126V30.95a.964.964,0,0,1-.406.1c-.378,0-.532-.308-.532-.728V27.394a2.321,2.321,0,0,0-.686-1.806,3,3,0,0,0-2.058-.63,4.336,4.336,0,0,0-2.3.588v1.232A3.591,3.591,0,0,1,299,26.092a1.869,1.869,0,0,1,1.274.378,1.489,1.489,0,0,1,.392,1.134v.574A6.036,6.036,0,0,0,299.2,28a3.6,3.6,0,0,0-1.932.462,1.914,1.914,0,0,0-.91,1.68,1.835,1.835,0,0,0,.728,1.526A2.749,2.749,0,0,0,298.721,32.154Zm.224-1.12c-.742,0-1.316-.336-1.316-1.008,0-.812.84-1.064,1.694-1.064a5.194,5.194,0,0,1,1.344.182v1.288A2.871,2.871,0,0,1,298.945,31.034Zm10.78-.7a3.207,3.207,0,0,1-1.988.672A2.373,2.373,0,0,1,305.2,28.6a2.412,2.412,0,0,1,2.492-2.492,3.631,3.631,0,0,1,1.918.588v-1.3a4.152,4.152,0,0,0-1.862-.434,3.642,3.642,0,0,0-3.822,3.64,3.53,3.53,0,0,0,3.738,3.556,4.451,4.451,0,0,0,2.058-.476Zm1.708-7.588a.882.882,0,1,0,.882-.882A.878.878,0,0,0,311.433,22.746ZM311.685,32h1.26V25.112h-1.26Zm3.416-.406a5.792,5.792,0,0,0,2.576.56c1.47,0,2.9-.6,2.9-2.2,0-1.428-1.092-1.792-2.408-2.016-1.022-.182-2-.182-2-.966,0-.616.616-.882,1.5-.882a5.231,5.231,0,0,1,2.52.672V25.5a5.576,5.576,0,0,0-2.464-.546c-1.6,0-2.814.686-2.828,2.114,0,1.358,1.036,1.75,2.352,1.974,1.064.182,2.058.2,2.058,1.022,0,.672-.616.952-1.568.952a5.038,5.038,0,0,1-2.632-.742Zm8.372-.084a2,2,0,0,0,1.568.644,3.064,3.064,0,0,0,1.246-.252v-1.19a2.085,2.085,0,0,1-1.036.294c-.91,0-1.036-.784-1.036-1.638V26.246h2.072V25.112h-2.072V23.026l-1.26.21v1.876h-1.274v1.134h1.274v3.36A2.718,2.718,0,0,0,323.473,31.51Zm8.414.49h1.26V26.246h1.764V25.112h-1.764v-1.5c0-.728.154-1.316,1.022-1.316a4.7,4.7,0,0,1,.98.126V21.29a4.022,4.022,0,0,0-1.036-.14,2.261,2.261,0,0,0-1.61.574,2.733,2.733,0,0,0-.616,2.072v1.316h-1.092v1.134h1.092Zm4.06-3.444a3.64,3.64,0,1,0,3.64-3.6A3.546,3.546,0,0,0,335.947,28.556Zm1.26,0a2.381,2.381,0,1,1,2.38,2.45A2.36,2.36,0,0,1,337.207,28.556ZM345.1,32h1.26V27.52a2.253,2.253,0,0,1,2.03-1.218,2.026,2.026,0,0,1,.49.056V25.112a1.707,1.707,0,0,0-.448-.056,2.51,2.51,0,0,0-2.044,1.078l-.028-.014V25.112H345.1Zm18.284,0h1.26V27.7a2.8,2.8,0,0,0-.574-2.016,2.35,2.35,0,0,0-1.806-.728,3.733,3.733,0,0,0-2.618,1.19,2.278,2.278,0,0,0-2.114-1.19,3.316,3.316,0,0,0-2.338,1.008l-.028-.014v-.84h-1.26V32h1.26V27.212a2.921,2.921,0,0,1,2.1-1.078,1.328,1.328,0,0,1,1.05.434,1.9,1.9,0,0,1,.322,1.358V32h1.26V27.7c0-.168,0-.336-.014-.49a3,3,0,0,1,2.1-1.078,1.383,1.383,0,0,1,1.05.42,2.018,2.018,0,0,1,.35,1.372Zm3.108-3.444a3.64,3.64,0,1,0,3.64-3.6A3.546,3.546,0,0,0,366.495,28.556Zm1.26,0a2.381,2.381,0,1,1,2.38,2.45A2.36,2.36,0,0,1,367.755,28.556Zm7.9,3.444h1.26V27.52a2.253,2.253,0,0,1,2.03-1.218,2.026,2.026,0,0,1,.49.056V25.112a1.707,1.707,0,0,0-.448-.056,2.51,2.51,0,0,0-2.044,1.078l-.028-.014V25.112h-1.26Zm11.158-3.08a4.318,4.318,0,0,0,.042-.63,3.082,3.082,0,0,0-3.136-3.332,3.433,3.433,0,0,0-3.43,3.6,3.511,3.511,0,0,0,3.724,3.6,4.876,4.876,0,0,0,2.464-.644V30.166a3.926,3.926,0,0,1-2.38.854,2.36,2.36,0,0,1-2.548-2.1Zm-3.122-2.828a1.865,1.865,0,0,1,1.946,1.834h-4.06A2.1,2.1,0,0,1,383.687,26.092Zm8.372-3.346a.882.882,0,1,0,.882-.882A.878.878,0,0,0,392.059,22.746ZM392.311,32h1.26V25.112h-1.26Zm3.612,0h1.26V27.282a2.9,2.9,0,0,1,2.156-1.148,1.428,1.428,0,0,1,1.106.448,2.135,2.135,0,0,1,.322,1.4V32h1.26V27.744a2.79,2.79,0,0,0-.574-2.03,2.383,2.383,0,0,0-1.834-.756,3.415,3.415,0,0,0-2.408,1.036l-.028-.014v-.868h-1.26Zm8.778,0h1.26V26.246h1.764V25.112h-1.764v-1.5c0-.728.154-1.316,1.022-1.316a4.7,4.7,0,0,1,.98.126V21.29a4.022,4.022,0,0,0-1.036-.14,2.261,2.261,0,0,0-1.61.574A2.733,2.733,0,0,0,404.7,23.8v1.316h-1.092v1.134H404.7Zm4.06-3.444a3.64,3.64,0,1,0,3.64-3.6A3.546,3.546,0,0,0,408.761,28.556Zm1.26,0a2.381,2.381,0,1,1,2.38,2.45A2.36,2.36,0,0,1,410.021,28.556Zm7.9,3.444h1.26V27.52a2.253,2.253,0,0,1,2.03-1.218,2.026,2.026,0,0,1,.49.056V25.112a1.707,1.707,0,0,0-.448-.056,2.51,2.51,0,0,0-2.044,1.078l-.028-.014V25.112h-1.26Zm14.756,0h1.26V27.7a2.8,2.8,0,0,0-.574-2.016,2.35,2.35,0,0,0-1.806-.728,3.733,3.733,0,0,0-2.618,1.19,2.278,2.278,0,0,0-2.114-1.19,3.316,3.316,0,0,0-2.338,1.008l-.028-.014v-.84h-1.26V32h1.26V27.212a2.921,2.921,0,0,1,2.1-1.078,1.328,1.328,0,0,1,1.05.434,1.9,1.9,0,0,1,.322,1.358V32h1.26V27.7c0-.168,0-.336-.014-.49a3,3,0,0,1,2.1-1.078,1.383,1.383,0,0,1,1.05.42,2.018,2.018,0,0,1,.35,1.372Zm5.488.154a3.269,3.269,0,0,0,2.114-.756h.028a1.464,1.464,0,0,0,1.33.728A1.8,1.8,0,0,0,442.3,32V30.95a.964.964,0,0,1-.406.1c-.378,0-.532-.308-.532-.728V27.394a2.321,2.321,0,0,0-.686-1.806,3,3,0,0,0-2.058-.63,4.336,4.336,0,0,0-2.3.588v1.232a3.591,3.591,0,0,1,2.114-.686,1.869,1.869,0,0,1,1.274.378,1.489,1.489,0,0,1,.392,1.134v.574a6.036,6.036,0,0,0-1.47-.182,3.6,3.6,0,0,0-1.932.462,1.914,1.914,0,0,0-.91,1.68,1.835,1.835,0,0,0,.728,1.526A2.749,2.749,0,0,0,438.161,32.154Zm.224-1.12c-.742,0-1.316-.336-1.316-1.008,0-.812.84-1.064,1.694-1.064a5.194,5.194,0,0,1,1.344.182v1.288A2.871,2.871,0,0,1,438.385,31.034Zm6.51.476a2,2,0,0,0,1.568.644,3.064,3.064,0,0,0,1.246-.252v-1.19a2.085,2.085,0,0,1-1.036.294c-.91,0-1.036-.784-1.036-1.638V26.246h2.072V25.112h-2.072V23.026l-1.26.21v1.876H443.1v1.134h1.274v3.36A2.718,2.718,0,0,0,444.9,31.51Zm4.284-8.764a.882.882,0,1,0,.882-.882A.878.878,0,0,0,449.179,22.746ZM449.431,32h1.26V25.112h-1.26Zm3.136-3.444a3.64,3.64,0,1,0,3.64-3.6A3.546,3.546,0,0,0,452.567,28.556Zm1.26,0a2.381,2.381,0,1,1,2.38,2.45A2.36,2.36,0,0,1,453.827,28.556Zm7.9,3.444h1.26V27.282a2.9,2.9,0,0,1,2.156-1.148,1.428,1.428,0,0,1,1.106.448,2.135,2.135,0,0,1,.322,1.4V32h1.26V27.744a2.79,2.79,0,0,0-.574-2.03,2.383,2.383,0,0,0-1.834-.756,3.415,3.415,0,0,0-2.408,1.036l-.028-.014v-.868h-1.26Zm11.48-3.444a3.64,3.64,0,1,0,3.64-3.6A3.546,3.546,0,0,0,473.2,28.556Zm1.26,0a2.381,2.381,0,1,1,2.38,2.45A2.36,2.36,0,0,1,474.463,28.556Zm7.9,3.444h1.26V27.282a2.9,2.9,0,0,1,2.156-1.148,1.428,1.428,0,0,1,1.106.448,2.135,2.135,0,0,1,.322,1.4V32h1.26V27.744a2.79,2.79,0,0,0-.574-2.03,2.383,2.383,0,0,0-1.834-.756,3.415,3.415,0,0,0-2.408,1.036l-.028-.014v-.868h-1.26ZM161.024,50h1.26l1.078-2.954c.238-.63.476-1.33.672-1.932h.028c.2.6.434,1.3.672,1.932L165.812,50h1.246l2.394-6.888h-1.316l-1.022,3.08c-.238.714-.462,1.414-.672,2.114h-.028c-.238-.7-.49-1.414-.756-2.128l-1.134-3.066h-.9l-1.134,3.066c-.252.686-.518,1.428-.756,2.128h-.028c-.224-.714-.448-1.414-.686-2.128L160,43.112H158.63Zm10.038,0h1.26V45.282a3.007,3.007,0,0,1,2.2-1.148,1.309,1.309,0,0,1,1.05.448,1.95,1.95,0,0,1,.336,1.4V50h1.26V45.744a2.79,2.79,0,0,0-.574-2.03,2.383,2.383,0,0,0-1.834-.756,3.415,3.415,0,0,0-2.408,1.036l-.028-.014V39.3h-1.26Zm14.476-3.08a4.32,4.32,0,0,0,.042-.63,3.082,3.082,0,0,0-3.136-3.332,3.433,3.433,0,0,0-3.43,3.6,3.511,3.511,0,0,0,3.724,3.6,4.876,4.876,0,0,0,2.464-.644V48.166a3.926,3.926,0,0,1-2.38.854,2.36,2.36,0,0,1-2.548-2.1Zm-3.122-2.828a1.865,1.865,0,0,1,1.946,1.834H180.3A2.1,2.1,0,0,1,182.416,44.092Zm5.1,5.908h1.26V45.52A2.253,2.253,0,0,1,190.8,44.3a2.026,2.026,0,0,1,.49.056V43.112a1.707,1.707,0,0,0-.448-.056,2.511,2.511,0,0,0-2.044,1.078l-.028-.014V43.112h-1.26Zm11.158-3.08a4.32,4.32,0,0,0,.042-.63,3.082,3.082,0,0,0-3.136-3.332,3.433,3.433,0,0,0-3.43,3.6,3.511,3.511,0,0,0,3.724,3.6,4.876,4.876,0,0,0,2.464-.644V48.166a3.926,3.926,0,0,1-2.38.854,2.36,2.36,0,0,1-2.548-2.1Zm-3.122-2.828a1.865,1.865,0,0,1,1.946,1.834h-4.06A2.1,2.1,0,0,1,195.548,44.092Zm9.674,5.418a2,2,0,0,0,1.568.644,3.064,3.064,0,0,0,1.246-.252v-1.19a2.085,2.085,0,0,1-1.036.294c-.91,0-1.036-.784-1.036-1.638V44.246h2.072V43.112h-2.072V41.026l-1.26.21v1.876H203.43v1.134H204.7v3.36A2.718,2.718,0,0,0,205.222,49.51Zm3.892-2.954a3.64,3.64,0,1,0,3.64-3.6A3.546,3.546,0,0,0,209.114,46.556Zm1.26,0a2.381,2.381,0,1,1,2.38,2.45A2.36,2.36,0,0,1,210.374,46.556Zm11.172-5.81a.882.882,0,1,0,.882-.882A.878.878,0,0,0,221.546,40.746ZM221.8,50h1.26V43.112H221.8Zm3.612,0h1.26V45.282a2.9,2.9,0,0,1,2.156-1.148,1.428,1.428,0,0,1,1.106.448,2.135,2.135,0,0,1,.322,1.4V50h1.26V45.744a2.79,2.79,0,0,0-.574-2.03,2.383,2.383,0,0,0-1.834-.756,3.415,3.415,0,0,0-2.408,1.036l-.028-.014v-.868h-1.26Zm8.19-9.254a.882.882,0,1,0,.882-.882A.878.878,0,0,0,233.6,40.746Zm.252,10.024c0,.784-.154,1.316-.952,1.316a4.133,4.133,0,0,1-.784-.1v1.134a2.874,2.874,0,0,0,.826.112,2.155,2.155,0,0,0,1.694-.658,2.68,2.68,0,0,0,.476-1.862v-7.6h-1.26Zm9.66-3.85a4.32,4.32,0,0,0,.042-.63,3.082,3.082,0,0,0-3.136-3.332,3.433,3.433,0,0,0-3.43,3.6,3.511,3.511,0,0,0,3.724,3.6,4.876,4.876,0,0,0,2.464-.644V48.166a3.926,3.926,0,0,1-2.38.854,2.36,2.36,0,0,1-2.548-2.1Zm-3.122-2.828a1.865,1.865,0,0,1,1.946,1.834h-4.06A2.1,2.1,0,0,1,240.39,44.092Zm10.416,4.242a3.207,3.207,0,0,1-1.988.672,2.373,2.373,0,0,1-2.534-2.408,2.412,2.412,0,0,1,2.492-2.492,3.631,3.631,0,0,1,1.918.588v-1.3a4.152,4.152,0,0,0-1.862-.434,3.642,3.642,0,0,0-3.822,3.64,3.53,3.53,0,0,0,3.738,3.556,4.451,4.451,0,0,0,2.058-.476Zm3.01,1.176a2,2,0,0,0,1.568.644,3.064,3.064,0,0,0,1.246-.252v-1.19a2.085,2.085,0,0,1-1.036.294c-.91,0-1.036-.784-1.036-1.638V44.246h2.072V43.112h-2.072V41.026l-1.26.21v1.876h-1.274v1.134H253.3v3.36A2.718,2.718,0,0,0,253.816,49.51Zm7.812-.154a6.249,6.249,0,0,0,3.052.8c2.03,0,3.388-1.092,3.388-2.94,0-1.932-1.456-2.52-2.926-2.94-1.232-.35-2.408-.56-2.408-1.82,0-1.036.8-1.526,1.932-1.526a5.415,5.415,0,0,1,2.94.938v-1.4a5.724,5.724,0,0,0-2.912-.756c-1.974,0-3.276,1.036-3.276,2.828,0,1.848,1.386,2.436,2.814,2.842,1.33.378,2.52.6,2.52,1.9,0,1.106-.854,1.652-2.058,1.652a5.3,5.3,0,0,1-3.066-1.036ZM272.45,50h1.33V41.068h3.4v-1.2h-8.134v1.2h3.4Zm6.286,0h1.33V45.66h1.722L284.882,50h1.61l-3.248-4.466a3.136,3.136,0,0,0,1.162-.42,2.686,2.686,0,0,0,1.3-2.38,2.577,2.577,0,0,0-1.4-2.366,5.709,5.709,0,0,0-2.828-.5h-2.744Zm1.33-5.432v-3.5h1.316a4.5,4.5,0,0,1,2.17.336,1.567,1.567,0,0,1,.826,1.442,1.491,1.491,0,0,1-.6,1.26,3.2,3.2,0,0,1-1.988.462ZM287.92,50H293.9V48.8H289.25V45.31h3.962V44.148H289.25v-3.08h4.522v-1.2H287.92Zm9.142,0V44.9c0-.98-.014-2-.028-2.884l.028-.014c.574.8,1.162,1.6,1.75,2.366L303.054,50h1.26V39.864h-1.288v5.1c0,.98.014,2,.028,2.884l-.028.014c-.574-.8-1.162-1.6-1.75-2.366l-4.242-5.628h-1.26V50Zm9.38-.644a6.249,6.249,0,0,0,3.052.8c2.03,0,3.388-1.092,3.388-2.94,0-1.932-1.456-2.52-2.926-2.94-1.232-.35-2.408-.56-2.408-1.82,0-1.036.8-1.526,1.932-1.526a5.415,5.415,0,0,1,2.94.938v-1.4a5.724,5.724,0,0,0-2.912-.756c-1.974,0-3.276,1.036-3.276,2.828,0,1.848,1.386,2.436,2.814,2.842,1.33.378,2.52.6,2.52,1.9,0,1.106-.854,1.652-2.058,1.652a5.3,5.3,0,0,1-3.066-1.036Zm8.274.644h1.33V39.864h-1.33Zm3.164-5.068a5.1,5.1,0,0,0,5.04,5.222,13.487,13.487,0,0,0,3.612,2.2l1.3-.784a14.281,14.281,0,0,1-3.234-1.624v-.028a5.214,5.214,0,1,0-6.72-4.984Zm1.33,0a3.826,3.826,0,1,1,3.822,3.99A3.832,3.832,0,0,1,319.21,44.932Zm10.556,4.3a.924.924,0,1,0,.924-.924A.932.932,0,0,0,329.766,49.23Z" transform="translate(0 557.765)" fill="#343434"/><path d="M1.863,0H4.048V-7.383h6.739V-9.292H4.048v-5.382h7.659v-1.978H1.863ZM14.1,0h2.07V-7.36a3.7,3.7,0,0,1,3.335-2,3.328,3.328,0,0,1,.805.092v-2.047a2.8,2.8,0,0,0-.736-.092,4.124,4.124,0,0,0-3.358,1.771l-.046-.023v-1.656H14.1Zm7.613-5.658A5.825,5.825,0,0,0,27.692.253a5.825,5.825,0,0,0,5.98-5.911,5.825,5.825,0,0,0-5.98-5.911A5.825,5.825,0,0,0,21.712-5.658Zm2.07,0a3.877,3.877,0,0,1,3.91-4.025A3.877,3.877,0,0,1,31.6-5.658a3.877,3.877,0,0,1-3.91,4.025A3.877,3.877,0,0,1,23.782-5.658ZM36.754,0h2.07V-7.751a4.765,4.765,0,0,1,3.542-1.886,2.346,2.346,0,0,1,1.817.736,3.508,3.508,0,0,1,.529,2.3V0h2.07V-6.992a4.584,4.584,0,0,0-.943-3.335,3.914,3.914,0,0,0-3.013-1.242,5.611,5.611,0,0,0-3.956,1.7l-.046-.023v-1.426h-2.07ZM52.325-.805A3.287,3.287,0,0,0,54.9.253a5.034,5.034,0,0,0,2.047-.414V-2.116a3.426,3.426,0,0,1-1.7.483c-1.5,0-1.7-1.288-1.7-2.691V-9.453h3.4v-1.863h-3.4v-3.427l-2.07.345v3.082H49.381v1.863h2.093v5.52A4.465,4.465,0,0,0,52.325-.805Z" transform="translate(92.529 23)" fill="#343434"/><path d="M-22.792,0h4.224c2.31,0,3.85-.264,4.972-1.056A4.346,4.346,0,0,0-11.77-4.708a3.6,3.6,0,0,0-3.058-3.718V-8.47a3.408,3.408,0,0,0,2.42-3.366,3.62,3.62,0,0,0-1.87-3.256,7.715,7.715,0,0,0-4.246-.836h-4.268Zm2.09-8.976v-5.06h1.892a6,6,0,0,1,3.19.55A2.218,2.218,0,0,1-14.5-11.462c0,1.738-1.452,2.486-3.058,2.486Zm0,7.084V-7.37h3.08c2.376,0,3.762.946,3.762,2.706a2.444,2.444,0,0,1-1.034,2.09c-.726.506-1.738.682-3.542.682ZM-5.676.242A5.137,5.137,0,0,0-2.354-.946h.044A2.3,2.3,0,0,0-.22.2,2.821,2.821,0,0,0,.836,0V-1.65A1.515,1.515,0,0,1,.2-1.5C-.4-1.5-.638-1.98-.638-2.64v-4.6a3.647,3.647,0,0,0-1.078-2.838,4.706,4.706,0,0,0-3.234-.99,6.813,6.813,0,0,0-3.608.924v1.936A5.643,5.643,0,0,1-5.236-9.284a2.937,2.937,0,0,1,2,.594,2.339,2.339,0,0,1,.616,1.782v.9a9.485,9.485,0,0,0-2.31-.286,5.651,5.651,0,0,0-3.036.726,3.007,3.007,0,0,0-1.43,2.64A2.883,2.883,0,0,0-8.25-.528,4.32,4.32,0,0,0-5.676.242Zm.352-1.76c-1.166,0-2.068-.528-2.068-1.584,0-1.276,1.32-1.672,2.662-1.672a8.162,8.162,0,0,1,2.112.286v2.024A4.512,4.512,0,0,1-5.324-1.518Zm16.94-1.1A5.04,5.04,0,0,1,8.492-1.562,3.729,3.729,0,0,1,4.51-5.346,3.79,3.79,0,0,1,8.426-9.262a5.706,5.706,0,0,1,3.014.924v-2.046a6.525,6.525,0,0,0-2.926-.682,5.723,5.723,0,0,0-6.006,5.72A5.547,5.547,0,0,0,8.382.242a6.994,6.994,0,0,0,3.234-.748ZM14.7,0h1.98V-5.852l.044-.022L22.022,0h2.6L19.14-5.984l4.95-4.84H21.56L16.72-6.05l-.044-.022V-16.808H14.7Z" transform="translate(360.192 22)" fill="#343434"/></g></g></svg>