<?xml version="1.0" encoding="utf-8"?>
<!-- Generator: Adobe Illustrator 24.0.3, SVG Export Plug-In . SVG Version: 6.00 Build 0)  -->
<svg version="1.1" id="Layer_1" xmlns="http://www.w3.org/2000/svg" xmlns:xlink="http://www.w3.org/1999/xlink" x="0px" y="0px"
	 viewBox="0 0 360 436" style="enable-background:new 0 0 360 436;" xml:space="preserve">
<style type="text/css">
	.st0{fill:#DFDF00;}
	.st1{clip-path:url(#SVGID_2_);}
	.st2{opacity:0.65;}
	.st3{fill:#86B54A;}
	.st4{opacity:0.65;fill:#86B54A;enable-background:new    ;}
	.st5{clip-path:url(#SVGID_4_);}
	.st6{enable-background:new    ;}
	.st7{fill:#343434;}
</style>
<g transform="translate(-800 -2014.621)">
	<g transform="translate(-1897.806 1110.109)">
		<g transform="translate(2740.922 934.515)">
			<path class="st0" d="M46.3,187.5c-3.5,23.9-5,49.3-5,49.3c-0.9,10.8-0.6,22.7-0.6,22.7c-0.4,10.2-2,20.2-4.7,30
				c-1.7,8.2-2,16.7-0.9,25.1c0,2.9-4.1,7-4.1,7c-1.8,2.6-2.8,5.6-2.9,8.7c-0.5,2.2-1.5,4.2-2.9,5.8c-6.4,0.9-9.6-0.3-9.6-0.3
				c-1.5-0.6-4.4-2-4.4-2c-2.6-0.6-2.6-2.3-2.6-2.3l2.9-3.5c1.5-2.6,4.7-8.2,4.7-8.2c7-9.3,6.7-13.1,6.7-13.1
				c0.3-5.2-1.8-16.9-1.8-16.9c-1.7-27.7-2.3-47.5-2.3-47.5c-0.6-8.7-2.6-24.5-2.6-24.5c-1.2-15.4-0.3-37-0.3-37
				c0.4-8.3,1.4-16.6,2.9-24.8c1.7-6.4,4.1-21,4.1-21c2.3-16-0.9-25.9-0.9-25.9c-0.9-7.3-2.9-10.5-2.9-10.5
				c-1.2,13.7-3.8,21.6-3.8,21.6c-2.6,8.2-2.3,18.7-2.3,18.7c-0.2,8.1-1.4,16.1-3.5,23.9c-1.7,5.2,1.5,7.3,1.5,7.3
				c2,5.2,1.5,12,1.5,12c-0.1,2.3-0.4,4.7-0.9,7c-1.8,1.5-2.6-1.7-2.6-1.7c-0.3-1.8-0.9-7.6-0.9-7.6c-4.1,4.7-1.2,8.5-1.2,8.5
				c2,2.9,4.1,5.2,4.1,5.2c0.9,1.7-2,2-2,2c-7.6-2.3-9-10.2-9-10.2c0-5,1.2-14.3,1.2-14.3c1.2-10.5-0.6-29.1-0.6-29.1
				c0.9-23.3,5.8-56,5.8-56C8.7,72.7,21,68.6,21,68.6c14.6-5.8,12.8-6.7,12.8-6.7c2.6-4.4,3.2-11.4,3.2-11.4
				c-2.3-2.6-6.7-9.3-6.7-9.3c-2.8,3.1-4.4-3.2-4.4-3.2c-2.6-4.7-2-7.3-2-7.3c0.6-1.5,2.9-1.2,2.9-1.2C25.1,7.7,34.1,1,34.1,1
				c10.2-7.3,19.8-3.8,19.8-3.8c15.7,5.2,14.3,21.6,14.3,21.6c0.3,1.7-0.6,9.3-0.6,9.3c4.2,0.1,2.9,3.3,2.9,3.3
				c-0.3,2.1-1.1,4-2.4,5.7c-0.2,0.9-0.5,1.7-0.7,2.4C67,41,65.6,41.9,64,41.8c-0.3,0-0.5,0-0.5,0c-1.2,3.4-3.1,6.4-5.5,9
				c0.6,3.9,2.2,7.5,4.7,10.5c2.9,4.4,10.5,6.4,10.5,6.4c14,8.2,16.6,25.9,16.6,25.9C94.1,112.3,95,121,95,121
				c1.5,7.3-0.9,39.3-0.9,39.3c-0.5,6.8-0.3,13.6,0.6,20.4c0.6,5.2-1.8,7.9-1.8,7.9c-3.8,5.5-7.3,5.8-7.3,5.8
				c-5.2,0.9-2.3-1.5-2.3-1.5c7.3-4.1,5-8.2,5-8.2c-0.3-4.1-1.5-5.5-1.5-5.5c-0.9,4.7-1.8,8.5-1.8,8.5c-0.2,0.8-0.9,1.2-1.7,1
				c-0.4-0.1-0.8-0.4-0.9-0.8c-0.5-4.2-0.7-8.3-0.6-12.5c0-4.1,2.6-8.5,2.6-8.5c2.6-6.1-2-18.1-2-18.1c-1.5-13.1-1.7-23-1.7-23
				c-0.6-4.4-5.2-28-5.2-28c-5.2,12.8-4.1,35.3-4.1,35.3c0.9,20.7,5,34.7,5,34.7c3.2,7.9,2.6,42.6,2.6,42.6c0,6.1-2,21-2,21
				c-1.2,5-1.2,17.8-1.2,17.8c0.3,23-4.1,49.6-4.1,49.6c-1.5,7,4.4,16.6,4.4,16.6c3.2,7.9,5.8,9.9,5.8,9.9c6.4,5.8,2.9,7.6,2.9,7.6
				c-1.2,1.8-5,0.9-5,0.9c-1.6,0.5-3.4,0.5-5,0c-7,2.3-7.3-1.5-7.3-1.5c-1.5-1.5-2.2-3.7-1.7-5.8c-0.6-4.1-5.5-10.2-5.5-10.2
				c-0.9-2.6,0-8.5,0-8.5c0.6-10.8-5-36.1-5-36.1c0-19.2-2-38.2-2-38.2c-1.2-15.3-3.1-30.6-5.8-45.8
				C47.5,186.3,46.3,187.5,46.3,187.5z"/>
		</g>
		<g transform="translate(2740.922 934.515)">
			<g>
				<defs>
					<path id="SVGID_1_" d="M46.3,187.5c-3.5,23.9-5,49.3-5,49.3c-0.9,10.8-0.6,22.7-0.6,22.7c-0.4,10.2-2,20.2-4.7,30
						c-1.7,8.2-2,16.7-0.9,25.1c0,2.9-4.1,7-4.1,7c-1.8,2.6-2.8,5.6-2.9,8.7c-0.5,2.2-1.5,4.2-2.9,5.8c-6.4,0.9-9.6-0.3-9.6-0.3
						c-1.5-0.6-4.4-2-4.4-2c-2.6-0.6-2.6-2.3-2.6-2.3l2.9-3.5c1.5-2.6,4.7-8.2,4.7-8.2c7-9.3,6.7-13.1,6.7-13.1
						c0.3-5.2-1.8-16.9-1.8-16.9c-1.7-27.7-2.3-47.5-2.3-47.5c-0.6-8.7-2.6-24.5-2.6-24.5c-1.2-15.4-0.3-37-0.3-37
						c0.4-8.3,1.4-16.6,2.9-24.8c1.7-6.4,4.1-21,4.1-21c2.3-16-0.9-25.9-0.9-25.9c-0.9-7.3-2.9-10.5-2.9-10.5
						c-1.2,13.7-3.8,21.6-3.8,21.6c-2.6,8.2-2.3,18.7-2.3,18.7c-0.2,8.1-1.4,16.1-3.5,23.9c-1.7,5.2,1.5,7.3,1.5,7.3
						c2,5.2,1.5,12,1.5,12c-0.1,2.3-0.4,4.7-0.9,7c-1.8,1.5-2.6-1.7-2.6-1.7c-0.3-1.8-0.9-7.6-0.9-7.6c-4.1,4.7-1.2,8.5-1.2,8.5
						c2,2.9,4.1,5.2,4.1,5.2c0.9,1.7-2,2-2,2c-7.6-2.3-9-10.2-9-10.2c0-5,1.2-14.3,1.2-14.3c1.2-10.5-0.6-29.1-0.6-29.1
						c0.9-23.3,5.8-56,5.8-56C8.7,72.7,21,68.6,21,68.6c14.6-5.8,12.8-6.7,12.8-6.7c2.6-4.4,3.2-11.4,3.2-11.4
						c-2.3-2.6-6.7-9.3-6.7-9.3c-2.8,3.1-4.4-3.2-4.4-3.2c-2.6-4.7-2-7.3-2-7.3c0.6-1.5,2.9-1.2,2.9-1.2C25.1,7.7,34.1,1,34.1,1
						c10.2-7.3,19.8-3.8,19.8-3.8c15.7,5.2,14.3,21.6,14.3,21.6c0.3,1.7-0.6,9.3-0.6,9.3c4.2,0.1,2.9,3.3,2.9,3.3
						c-0.3,2.1-1.1,4-2.4,5.7c-0.2,0.9-0.5,1.7-0.7,2.4C67,41,65.6,41.9,64,41.8c-0.3,0-0.5,0-0.5,0c-1.2,3.4-3.1,6.4-5.5,9
						c0.6,3.9,2.2,7.5,4.7,10.5c2.9,4.4,10.5,6.4,10.5,6.4c14,8.2,16.6,25.9,16.6,25.9C94.1,112.3,95,121,95,121
						c1.5,7.3-0.9,39.3-0.9,39.3c-0.5,6.8-0.3,13.6,0.6,20.4c0.6,5.2-1.8,7.9-1.8,7.9c-3.8,5.5-7.3,5.8-7.3,5.8
						c-5.2,0.9-2.3-1.5-2.3-1.5c7.3-4.1,5-8.2,5-8.2c-0.3-4.1-1.5-5.5-1.5-5.5c-0.9,4.7-1.8,8.5-1.8,8.5c-0.2,0.8-0.9,1.2-1.7,1
						c-0.4-0.1-0.8-0.4-0.9-0.8c-0.5-4.2-0.7-8.3-0.6-12.5c0-4.1,2.6-8.5,2.6-8.5c2.6-6.1-2-18.1-2-18.1c-1.5-13.1-1.7-23-1.7-23
						c-0.6-4.4-5.2-28-5.2-28c-5.2,12.8-4.1,35.3-4.1,35.3c0.9,20.7,5,34.7,5,34.7c3.2,7.9,2.6,42.6,2.6,42.6c0,6.1-2,21-2,21
						c-1.2,5-1.2,17.8-1.2,17.8c0.3,23-4.1,49.6-4.1,49.6c-1.5,7,4.4,16.6,4.4,16.6c3.2,7.9,5.8,9.9,5.8,9.9
						c6.4,5.8,2.9,7.6,2.9,7.6c-1.2,1.8-5,0.9-5,0.9c-1.6,0.5-3.4,0.5-5,0c-7,2.3-7.3-1.5-7.3-1.5c-1.5-1.5-2.2-3.7-1.7-5.8
						c-0.6-4.1-5.5-10.2-5.5-10.2c-0.9-2.6,0-8.5,0-8.5c0.6-10.8-5-36.1-5-36.1c0-19.2-2-38.2-2-38.2c-1.2-15.3-3.1-30.6-5.8-45.8
						C47.5,186.3,46.3,187.5,46.3,187.5z"/>
				</defs>
				<clipPath id="SVGID_2_">
					<use xlink:href="#SVGID_1_"  style="overflow:visible;"/>
				</clipPath>
				<g class="st1">
					<g transform="translate(-11.304 85.156)">
						<g class="st2">
							<ellipse class="st3" cx="31.4" cy="123.5" rx="17.3" ry="17.8"/>
							<circle class="st3" cx="84.8" cy="123.5" r="17.8"/>
							<ellipse class="st3" cx="57.8" cy="60.4" rx="22.1" ry="16.2"/>
							<ellipse class="st3" cx="104.6" cy="10.1" rx="13.5" ry="13.8"/>
							<ellipse class="st3" cx="12.9" cy="10.4" rx="12.9" ry="13.8"/>
						</g>
					</g>
				</g>
			</g>
		</g>
		<g transform="translate(2917.448 934.626)">
			<path class="st0" d="M91.4,170.3c-1.2-10.5,0.6-29.1,0.6-29.1c-0.9-23.3-4.4-55.4-4.4-55.4C85.3,72.6,73,68.5,73,68.5
				c-14.6-5.8-12.8-6.7-12.8-6.7C57.6,57.5,57,50.5,57,50.5c2.3-2.6,6.7-9.3,6.7-9.3c2.3,1.8,3.8-3.5,3.8-3.5c2.6-4.7,2-7.3,2-7.3
				c-0.6-1.5-2.4-0.9-2.4-0.9C69,7.6,59.9,0.9,59.9,0.9C49.7-6.3,40.1-2.8,40.1-2.8C24.4,2.4,25.8,18.7,25.8,18.7
				c-0.3,1.7,0.6,9.3,0.6,9.3c-3.4,0.1-2.1,3.2-2.1,3.2c0.9,4.1,1.9,5.4,1.9,5.4c0.2,0.9,0.7,2.1,0.9,2.8c0.4,1.3,1.5,2.2,2.8,2.4
				c0.2,0,0.4,0,0.5,0c1.2,3.4,3.1,6.4,5.5,9c-0.4,3.7-1.6,7.2-3.5,10.4c-2.9,4.4-11.7,6.5-11.7,6.5C6.9,75.8,4.3,93.6,4.3,93.6
				c-4.4,18.6-3.8,28.2-3.8,28.2c-1.5,7.3,0.9,39.3,0.9,39.3c0.5,6.8,0.3,13.6-0.6,20.4c0,0.2,0,0.5,0,0.7c0.5,2.5,1.1,4.9,1.9,7.3
				c3.8,5.4,7.2,5.7,7.2,5.7c5.2,0.9,2.3-1.5,2.3-1.5c-7.3-4.1-5-8.2-5-8.2c0.3-4.1,1.5-5.5,1.5-5.5c0.9,4.7,1.7,8.4,1.7,8.4
				c0.2,0.8,0.9,1.2,1.7,1c0.4-0.1,0.8-0.4,0.9-0.8c0.5-4.2,0.7-8.3,0.6-12.5c0-4.1-2.6-8.4-2.6-8.4c-2.6-6.1,2-18.1,2-18.1
				c1.5-13.1,1.7-23,1.7-23c0.6-4.4,3.8-28.8,3.8-28.8c5.2,12.8,4.1,35.3,4.1,35.3c-0.3,6.6-0.9,13.3-1.9,19.9
				c-0.4,2.4-0.8,4.7-1.2,7c-0.3,1.6-0.6,2.9-0.9,4.1c0.1,0,0.1,0,0.2,0c-2.1,14.2-2.6,24.2-2.6,24.2c-1.2,20.6-1.6,39.2-1.6,39.2
				c0.6,7.7,0.6,15.5,0.2,23.2c3.2,43.1,5.6,57,5.6,57c0.9,7.9,0.5,8.8,0.5,8.8c-2.1-1.2-2.3,0.9-2.3,0.9c-2-1.2-1.6,0.7-2.3,0.7
				c-1.6-0.1-1.4,1.6-1.4,1.6c0,2.3,3,5.1,3,5.1c1.3,2.5,2.3,5.2,3,6.9c0.5,1.4,1.6,2.5,2.9,3.1c1.7,1,3.7,1.5,5.7,1.5
				c4.9-0.9,4.4-3.7,4.4-3.7c1.6-4.9,0.9-7.2,0.9-7.2c-1.6-4.9-2.3-10-2.1-15.1c0.7-13.6,2.1-27.1,4.4-40.6
				c2.1-18.1,2.3-37.3,2.3-37.3c2.1-27.3,5.3-40.1,5.3-40.1c0.9-1,1.6-2.2,2.1-3.5c0.3,1.4,0.9,2.6,1.9,3.7
				c0,17.6,5.3,37.5,5.3,37.5c2.1,11.4,1.2,29.7,1.2,29.7c1.2,16,6.3,43.1,6.3,43.1c0.7,7.4,0.9,14.4,0.9,14.4
				c0.5,8.3-0.7,10-0.7,10c0.7,5.8,2.8,6.7,2.8,6.7c5.1,0.9,6.5-0.5,6.5-0.5c1.6-0.9,2.7-2.4,3.2-4.2c1.1-3.1,2.5-6,4.3-8.8
				c1-1,1.8-2.1,2.5-3.3c2.1-2.8-1.3-2.3-1.3-2.3c-0.2-2.4-2.8-1.4-2.8-1.4c-0.5-0.9-1.7-1.2-2.6-0.7c-0.2,0.1-0.3,0.2-0.4,0.3
				c-0.7-12.5,2.1-37.2,2.1-37.2c3-24.1,1.9-37.3,1.9-37.3c1.2-11.8,1.9-25.7,1.9-25.7c0.1-7.9-0.5-15.8-1.8-23.6
				c0.5-6.8-0.4-15.2-1.5-22.4c0.2,0,0.3-0.1,0.5-0.1c-0.8-6.6-1.7-11.1-1.7-11.1c-1.7-6.4-4.1-21-4.1-21c-2.3-16,0.9-25.9,0.9-25.9
				c0.9-7.3,2.9-10.5,2.9-10.5c1.2,13.7,2.3,21,2.3,21c2.6,8.2,2.3,18.6,2.3,18.6c0.2,8.1,1.4,16.1,3.5,23.9
				c1.7,5.2-1.5,7.3-1.5,7.3c-2,5.2-1.5,11.9-1.5,11.9c0.1,2.3,0.4,4.7,0.9,7c1.7,1.5,2.6-1.7,2.6-1.7c0.3-1.7,0.9-7.6,0.9-7.6
				c4.1,4.7,1.2,8.4,1.2,8.4c-2,2.9-4.1,5.2-4.1,5.2c-0.9,1.7,2,2,2,2c3-0.9,5.6-3,7.2-5.7l0-0.1c0.7-2.2,1.2-4.4,1.7-6.7
				C92.2,177.2,91.4,170.3,91.4,170.3z"/>
			<ellipse class="st4" cx="32.8" cy="177.8" rx="11.3" ry="11.9"/>
			<circle class="st4" cx="62.5" cy="177.8" r="11.9"/>
		</g>
		<g transform="translate(2917.448 934.626)">
			<g>
				<defs>
					<path id="SVGID_3_" d="M91.4,170.3c-1.2-10.5,0.6-29.1,0.6-29.1c-0.9-23.3-4.4-55.4-4.4-55.4C85.3,72.6,73,68.5,73,68.5
						c-14.6-5.8-12.8-6.7-12.8-6.7C57.6,57.5,57,50.5,57,50.5c2.3-2.6,6.7-9.3,6.7-9.3c2.3,1.8,3.8-3.5,3.8-3.5c2.6-4.7,2-7.3,2-7.3
						c-0.6-1.5-2.4-0.9-2.4-0.9C69,7.6,59.9,0.9,59.9,0.9C49.7-6.3,40.1-2.8,40.1-2.8C24.4,2.4,25.8,18.7,25.8,18.7
						c-0.3,1.7,0.6,9.3,0.6,9.3c-3.4,0.1-2.1,3.2-2.1,3.2c0.9,4.1,1.9,5.4,1.9,5.4c0.2,0.9,0.7,2.1,0.9,2.8c0.4,1.3,1.5,2.2,2.8,2.4
						c0.2,0,0.4,0,0.5,0c1.2,3.4,3.1,6.4,5.5,9c-0.4,3.7-1.6,7.2-3.5,10.4c-2.9,4.4-11.7,6.5-11.7,6.5C6.9,75.8,4.3,93.6,4.3,93.6
						c-4.4,18.6-3.8,28.2-3.8,28.2c-1.5,7.3,0.9,39.3,0.9,39.3c0.5,6.8,0.3,13.6-0.6,20.4c0,0.2,0,0.5,0,0.7
						c0.5,2.5,1.1,4.9,1.9,7.3c3.8,5.4,7.2,5.7,7.2,5.7c5.2,0.9,2.3-1.5,2.3-1.5c-7.3-4.1-5-8.2-5-8.2c0.3-4.1,1.5-5.5,1.5-5.5
						c0.9,4.7,1.7,8.4,1.7,8.4c0.2,0.8,0.9,1.2,1.7,1c0.4-0.1,0.8-0.4,0.9-0.8c0.5-4.2,0.7-8.3,0.6-12.5c0-4.1-2.6-8.4-2.6-8.4
						c-2.6-6.1,2-18.1,2-18.1c1.5-13.1,1.7-23,1.7-23c0.6-4.4,3.8-28.8,3.8-28.8c5.2,12.8,4.1,35.3,4.1,35.3
						c-0.3,6.6-0.9,13.3-1.9,19.9c-0.4,2.4-0.8,4.7-1.2,7c-0.3,1.6-0.6,2.9-0.9,4.1c0.1,0,0.1,0,0.2,0c-2.1,14.2-2.6,24.2-2.6,24.2
						c-1.2,20.6-1.6,39.2-1.6,39.2c0.6,7.7,0.6,15.5,0.2,23.2c3.2,43.1,5.6,57,5.6,57c0.9,7.9,0.5,8.8,0.5,8.8
						c-2.1-1.2-2.3,0.9-2.3,0.9c-2-1.2-1.6,0.7-2.3,0.7c-1.6-0.1-1.4,1.6-1.4,1.6c0,2.3,3,5.1,3,5.1c1.3,2.5,2.3,5.2,3,6.9
						c0.5,1.4,1.6,2.5,2.9,3.1c1.7,1,3.7,1.5,5.7,1.5c4.9-0.9,4.4-3.7,4.4-3.7c1.6-4.9,0.9-7.2,0.9-7.2c-1.6-4.9-2.3-10-2.1-15.1
						c0.7-13.6,2.1-27.1,4.4-40.6c2.1-18.1,2.3-37.3,2.3-37.3c2.1-27.3,5.3-40.1,5.3-40.1c0.9-1,1.6-2.2,2.1-3.5
						c0.3,1.4,0.9,2.6,1.9,3.7c0,17.6,5.3,37.5,5.3,37.5c2.1,11.4,1.2,29.7,1.2,29.7c1.2,16,6.3,43.1,6.3,43.1
						c0.7,7.4,0.9,14.4,0.9,14.4c0.5,8.3-0.7,10-0.7,10c0.7,5.8,2.8,6.7,2.8,6.7c5.1,0.9,6.5-0.5,6.5-0.5c1.6-0.9,2.7-2.4,3.2-4.2
						c1.1-3.1,2.5-6,4.3-8.8c1-1,1.8-2.1,2.5-3.3c2.1-2.8-1.3-2.3-1.3-2.3c-0.2-2.4-2.8-1.4-2.8-1.4c-0.5-0.9-1.7-1.2-2.6-0.7
						c-0.2,0.1-0.3,0.2-0.4,0.3c-0.7-12.5,2.1-37.2,2.1-37.2c3-24.1,1.9-37.3,1.9-37.3c1.2-11.8,1.9-25.7,1.9-25.7
						c0.1-7.9-0.5-15.8-1.8-23.6c0.5-6.8-0.4-15.2-1.5-22.4c0.2,0,0.3-0.1,0.5-0.1c-0.8-6.6-1.7-11.1-1.7-11.1
						c-1.7-6.4-4.1-21-4.1-21c-2.3-16,0.9-25.9,0.9-25.9c0.9-7.3,2.9-10.5,2.9-10.5c1.2,13.7,2.3,21,2.3,21
						c2.6,8.2,2.3,18.6,2.3,18.6c0.2,8.1,1.4,16.1,3.5,23.9c1.7,5.2-1.5,7.3-1.5,7.3c-2,5.2-1.5,11.9-1.5,11.9
						c0.1,2.3,0.4,4.7,0.9,7c1.7,1.5,2.6-1.7,2.6-1.7c0.3-1.7,0.9-7.6,0.9-7.6c4.1,4.7,1.2,8.4,1.2,8.4c-2,2.9-4.1,5.2-4.1,5.2
						c-0.9,1.7,2,2,2,2c3-0.9,5.6-3,7.2-5.7l0-0.1c0.7-2.2,1.2-4.4,1.7-6.7C92.2,177.2,91.4,170.3,91.4,170.3z"/>
				</defs>
				<clipPath id="SVGID_4_">
					<use xlink:href="#SVGID_3_"  style="overflow:visible;"/>
				</clipPath>
				<g class="st5">
					<g transform="translate(-11.328 76.721)" class="st2">
						
							<ellipse transform="matrix(0.9925 -0.1219 0.1219 0.9925 -0.9354 12.352)" class="st3" cx="100.5" cy="13.8" rx="11.5" ry="14.5"/>
						
							<ellipse transform="matrix(0.342 -0.9397 0.9397 0.342 -2.6426 23.8713)" class="st3" cx="15.7" cy="13.8" rx="14.5" ry="11.5"/>
					</g>
				</g>
			</g>
		</g>
	</g>
	<g transform="translate(95.171 1461.105)">
		<g class="st6">
			<path class="st7" d="M801.1,946.4c1.1,0.7,2.4,1.1,3.2,1.1c0.8,0,1.4-0.3,1.4-1.1c0-0.9-1-1-2.3-1.4c-1.4-0.5-2.7-1.1-2.7-2.9
				c0-1.9,1.4-3.1,3.6-3.1c1,0,2.2,0.3,3.1,0.7v2.2c-1.1-0.7-2.3-1-3.1-1c-0.8,0-1.3,0.3-1.3,1c0,0.9,0.9,1,2.2,1.4
				c1.5,0.5,2.8,1.2,2.8,3c0,2-1.5,3.2-3.7,3.2c-1,0-2.3-0.3-3.2-0.7V946.4z"/>
			<path class="st7" d="M813.9,948.5c-0.5,0.5-1.2,0.8-2.1,0.8c-0.8,0-1.4-0.3-1.8-0.7c-0.4-0.5-0.7-1.1-0.7-2.1v-4.2h2.1v3.9
				c0,0.5,0.1,0.8,0.3,1c0.2,0.2,0.5,0.3,0.8,0.3c0.5,0,1.1-0.3,1.4-0.6v-4.6h2.1v6.9h-2.1L813.9,948.5L813.9,948.5z"/>
			<path class="st7" d="M818.5,949.9c0.7,0.4,1.5,0.7,2.2,0.7c1,0,1.7-0.5,1.7-1.6v-0.4l0,0c-0.4,0.3-1,0.5-1.6,0.5
				c-1.7,0-3.2-1.3-3.2-3.4c0-2,1.4-3.6,3.6-3.6c0.7,0,1.2,0.2,1.7,0.4l1.7-0.3v6.8c0,2.2-1.5,3.4-3.7,3.4c-0.9,0-1.8-0.2-2.4-0.5
				V949.9z M822.4,944.2c-0.3-0.1-0.7-0.3-1.1-0.3c-1.1,0-1.6,0.8-1.6,1.7c0,1,0.6,1.7,1.6,1.7c0.4,0,0.8-0.1,1.1-0.3V944.2z"/>
			<path class="st7" d="M827.1,949.9c0.7,0.4,1.5,0.7,2.2,0.7c1,0,1.7-0.5,1.7-1.6v-0.4l0,0c-0.4,0.3-1,0.5-1.6,0.5
				c-1.7,0-3.2-1.3-3.2-3.4c0-2,1.4-3.6,3.6-3.6c0.7,0,1.2,0.2,1.7,0.4l1.7-0.3v6.8c0,2.2-1.5,3.4-3.7,3.4c-0.9,0-1.8-0.2-2.4-0.5
				V949.9z M831,944.2c-0.3-0.1-0.7-0.3-1.1-0.3c-1.1,0-1.6,0.8-1.6,1.7c0,1,0.6,1.7,1.6,1.7c0.4,0,0.8-0.1,1.1-0.3V944.2z"/>
			<path class="st7" d="M836.8,946.3c0.2,1,1,1.4,2,1.4c0.8,0,1.6-0.3,2.3-0.8v1.8c-0.7,0.4-1.7,0.6-2.6,0.6c-2.3,0-3.9-1.4-3.9-3.6
				c0-2.2,1.7-3.6,3.6-3.6c1.7,0,3.3,1.1,3.3,3.4c0,0.2,0,0.5,0,0.7H836.8z M839.5,945c-0.1-0.7-0.7-1.2-1.4-1.2
				c-0.7,0-1.2,0.4-1.4,1.2H839.5z"/>
			<path class="st7" d="M842.8,946.9c1,0.6,2.1,0.8,2.7,0.8c0.6,0,0.9-0.2,0.9-0.5c0-0.5-0.8-0.5-1.8-0.7c-1.3-0.3-2.1-0.9-2.1-2
				c0-1.5,1.3-2.3,3-2.3c0.8,0,1.8,0.2,2.6,0.5v1.8c-0.9-0.5-2-0.7-2.6-0.7c-0.6,0-0.9,0.2-0.9,0.5c0,0.5,0.7,0.5,1.8,0.7
				c1.3,0.3,2.1,0.8,2.1,2c0,1.5-1.3,2.3-3.1,2.3c-0.8,0-1.9-0.2-2.7-0.6V946.9z"/>
			<path class="st7" d="M854.5,949c-0.3,0.2-1,0.4-1.6,0.4c-0.7,0-1.4-0.2-1.8-0.7c-0.4-0.4-0.6-1-0.6-2.1v-2.5h-1.1v-1.8h1.1v-1.8
				l2.1-0.4v2.2h1.8v1.8h-1.8v2.3c0,0.7,0.2,1.2,0.8,1.2c0.4,0,0.7-0.1,1-0.3V949z"/>
			<path class="st7" d="M857.6,946.3c0.2,1,1,1.4,2,1.4c0.8,0,1.6-0.3,2.3-0.8v1.8c-0.7,0.4-1.7,0.6-2.6,0.6c-2.3,0-3.9-1.4-3.9-3.6
				c0-2.2,1.7-3.6,3.6-3.6c1.7,0,3.3,1.1,3.3,3.4c0,0.2,0,0.5,0,0.7H857.6z M860.4,945c-0.1-0.7-0.7-1.2-1.4-1.2
				c-0.7,0-1.2,0.4-1.4,1.2H860.4z"/>
			<path class="st7" d="M868.5,948.8c-0.5,0.3-1.1,0.5-1.8,0.5c-1.7,0-3.2-1.3-3.2-3.5c0-2.2,1.6-3.7,3.6-3.7c0.5,0,0.9,0.1,1.3,0.3
				l0,0v-3.9h2.1v10.7h-2.1L868.5,948.8L868.5,948.8z M868.4,944.2c-0.3-0.2-0.7-0.3-1.1-0.3c-1.1,0-1.7,0.8-1.7,1.9
				c0,1,0.6,1.8,1.6,1.8c0.5,0,0.9-0.2,1.2-0.3V944.2z"/>
			<path class="st7" d="M877,938.9c0.7,0,1.2,0.5,1.2,1.2c0,0.7-0.6,1.2-1.2,1.2s-1.2-0.5-1.2-1.2
				C875.8,939.5,876.3,938.9,877,938.9z M875.9,942.3h2.1v6.9h-2.1V942.3z"/>
			<path class="st7" d="M880,942.3h2.1v0.6l0,0c0.5-0.4,1.3-0.8,2.1-0.8c0.7,0,1.4,0.3,1.8,0.7c0.4,0.4,0.6,1.1,0.6,2v4.3h-2.1v-4
				c0-0.5-0.1-0.8-0.2-1c-0.2-0.2-0.4-0.3-0.7-0.3c-0.5,0-1.1,0.3-1.4,0.6v4.6H880V942.3z"/>
			<path class="st7" d="M888.5,942.3h2.1v7.1c0,1.3-0.2,1.9-0.6,2.3c-0.5,0.5-1.3,0.7-2.1,0.7c-0.4,0-0.8-0.1-1-0.1v-1.8
				c0.2,0,0.5,0.1,0.7,0.1c0.7,0,0.9-0.4,0.9-1.1V942.3z M889.6,938.9c0.7,0,1.2,0.5,1.2,1.2c0,0.7-0.6,1.2-1.2,1.2
				c-0.7,0-1.2-0.5-1.2-1.2C888.4,939.5,888.9,938.9,889.6,938.9z"/>
			<path class="st7" d="M894.3,946.3c0.2,1,1,1.4,2,1.4c0.8,0,1.6-0.3,2.3-0.8v1.8c-0.7,0.4-1.7,0.6-2.6,0.6c-2.3,0-3.9-1.4-3.9-3.6
				c0-2.2,1.7-3.6,3.6-3.6c1.7,0,3.3,1.1,3.3,3.4c0,0.2,0,0.5,0,0.7H894.3z M897.1,945c-0.1-0.7-0.7-1.2-1.4-1.2
				c-0.7,0-1.2,0.4-1.4,1.2H897.1z"/>
			<path class="st7" d="M906.2,948.8c-0.7,0.4-1.5,0.5-2.3,0.5c-2.2,0-3.8-1.5-3.8-3.6c0-2.2,1.8-3.6,4-3.6c0.8,0,1.5,0.2,2,0.5v2
				c-0.6-0.4-1.3-0.6-1.9-0.6c-1.1,0-1.9,0.8-1.9,1.8c0,1.1,0.8,1.8,1.9,1.8c0.7,0,1.4-0.3,2-0.7V948.8z"/>
			<path class="st7" d="M912.3,949c-0.3,0.2-1,0.4-1.6,0.4c-0.7,0-1.4-0.2-1.8-0.7c-0.4-0.4-0.6-1-0.6-2.1v-2.5h-1.1v-1.8h1.1v-1.8
				l2.1-0.4v2.2h1.8v1.8h-1.8v2.3c0,0.7,0.2,1.2,0.8,1.2c0.4,0,0.7-0.1,1-0.3V949z"/>
			<path class="st7" d="M914.8,938.9c0.7,0,1.2,0.5,1.2,1.2c0,0.7-0.6,1.2-1.2,1.2c-0.7,0-1.2-0.5-1.2-1.2
				C913.6,939.5,914.1,938.9,914.8,938.9z M913.8,942.3h2.1v6.9h-2.1V942.3z"/>
			<path class="st7" d="M921.2,942.2c2.2,0,3.8,1.6,3.8,3.6c0,2-1.6,3.6-3.8,3.6s-3.8-1.6-3.8-3.6
				C917.3,943.7,919,942.2,921.2,942.2z M921.2,947.5c1,0,1.7-0.8,1.7-1.8c0-1-0.7-1.8-1.7-1.8s-1.7,0.8-1.7,1.8
				C919.5,946.7,920.2,947.5,921.2,947.5z"/>
			<path class="st7" d="M926.5,942.3h2.1v0.6l0,0c0.5-0.4,1.3-0.8,2.1-0.8c0.7,0,1.4,0.3,1.8,0.7c0.4,0.4,0.6,1.1,0.6,2v4.3H931v-4
				c0-0.5-0.1-0.8-0.2-1c-0.2-0.2-0.4-0.3-0.7-0.3c-0.5,0-1.1,0.3-1.4,0.6v4.6h-2.1V942.3z"/>
			<path class="st7" d="M938.3,946.9c1,0.6,2.1,0.8,2.7,0.8c0.6,0,0.9-0.2,0.9-0.5c0-0.5-0.8-0.5-1.8-0.7c-1.3-0.3-2.1-0.9-2.1-2
				c0-1.5,1.3-2.3,3-2.3c0.8,0,1.8,0.2,2.6,0.5v1.8c-0.9-0.5-2-0.7-2.6-0.7c-0.6,0-0.9,0.2-0.9,0.5c0,0.5,0.7,0.5,1.8,0.7
				c1.3,0.3,2.1,0.8,2.1,2c0,1.5-1.3,2.3-3.1,2.3c-0.8,0-1.9-0.2-2.7-0.6V946.9z"/>
			<path class="st7" d="M946.6,938.9c0.7,0,1.2,0.5,1.2,1.2c0,0.7-0.6,1.2-1.2,1.2c-0.7,0-1.2-0.5-1.2-1.2
				C945.4,939.5,945.9,938.9,946.6,938.9z M945.5,942.3h2.1v6.9h-2.1V942.3z"/>
			<path class="st7" d="M954,949c-0.3,0.2-1,0.4-1.6,0.4c-0.7,0-1.4-0.2-1.8-0.7c-0.4-0.4-0.6-1-0.6-2.1v-2.5H949v-1.8h1.1v-1.8
				l2.1-0.4v2.2h1.8v1.8h-1.8v2.3c0,0.7,0.2,1.2,0.8,1.2c0.4,0,0.7-0.1,1-0.3V949z"/>
			<path class="st7" d="M957.1,946.3c0.2,1,1,1.4,2,1.4c0.8,0,1.6-0.3,2.3-0.8v1.8c-0.7,0.4-1.7,0.6-2.6,0.6c-2.3,0-3.9-1.4-3.9-3.6
				c0-2.2,1.7-3.6,3.6-3.6c1.7,0,3.3,1.1,3.3,3.4c0,0.2,0,0.5,0,0.7H957.1z M959.9,945c-0.1-0.7-0.7-1.2-1.4-1.2
				c-0.7,0-1.2,0.4-1.4,1.2H959.9z"/>
			<path class="st7" d="M963.1,946.9c1,0.6,2.1,0.8,2.7,0.8c0.6,0,0.9-0.2,0.9-0.5c0-0.5-0.8-0.5-1.8-0.7c-1.3-0.3-2.1-0.9-2.1-2
				c0-1.5,1.3-2.3,3-2.3c0.8,0,1.8,0.2,2.6,0.5v1.8c-0.9-0.5-2-0.7-2.6-0.7c-0.6,0-0.9,0.2-0.9,0.5c0,0.5,0.7,0.5,1.8,0.7
				c1.3,0.3,2.1,0.8,2.1,2c0,1.5-1.3,2.3-3.1,2.3c-0.8,0-1.9-0.2-2.7-0.6V946.9z"/>
		</g>
		<g class="st6">
			<path class="st7" d="M711.8,965.1c1,0.7,2.2,1,3.1,1c1.2,0,2.1-0.5,2.1-1.7c0-1.3-1.2-1.5-2.5-1.9c-1.4-0.4-2.8-1-2.8-2.8
				c0-1.8,1.3-2.8,3.3-2.8c1,0,2.1,0.2,2.9,0.8v1.4c-0.9-0.6-2.1-0.9-2.9-0.9c-1.1,0-1.9,0.5-1.9,1.5c0,1.3,1.2,1.5,2.4,1.8
				c1.5,0.4,2.9,1,2.9,2.9c0,1.8-1.4,2.9-3.4,2.9c-1,0-2.2-0.3-3.1-0.8V965.1z"/>
			<path class="st7" d="M721.4,970.3h-1.3v-10h1.3v0.4l0,0c0.5-0.3,1.1-0.6,2-0.6c1.8,0,3.3,1.4,3.3,3.6c0,2.2-1.6,3.6-3.6,3.6
				c-0.7,0-1.3-0.2-1.7-0.4l0,0V970.3z M723.1,966.3c1.4,0,2.3-1,2.3-2.4c0-1.4-0.9-2.5-2.3-2.5c-0.6,0-1.3,0.2-1.8,0.6v3.9
				C721.8,966,722.4,966.3,723.1,966.3z"/>
			<path class="st7" d="M729.3,964.1c0.2,1.4,1.2,2.1,2.5,2.1c1,0,1.8-0.4,2.4-0.9v1.3c-0.6,0.4-1.6,0.6-2.5,0.6
				c-2.1,0-3.7-1.4-3.7-3.6c0-2.2,1.6-3.6,3.4-3.6c1.7,0,3.1,1.2,3.1,3.3c0,0.2,0,0.5,0,0.6H729.3z M729.4,963.1h4.1
				c-0.1-1.4-1.1-1.8-1.9-1.8C730.6,961.3,729.6,961.9,729.4,963.1z"/>
			<path class="st7" d="M736.8,966.9c-0.4-0.3-0.7-0.9-0.7-1.5c0-0.8,0.4-1.3,0.9-1.7c0.5-0.3,1.2-0.5,1.9-0.5c0.5,0,1,0.1,1.5,0.2
				v-0.6c0-0.5-0.1-0.9-0.4-1.1c-0.3-0.2-0.7-0.4-1.3-0.4c-0.9,0-1.6,0.3-2.1,0.7v-1.2c0.5-0.3,1.3-0.6,2.3-0.6
				c0.8,0,1.6,0.2,2.1,0.6c0.4,0.4,0.7,1,0.7,1.8v2.9c0,0.4,0.2,0.7,0.5,0.7c0.1,0,0.3,0,0.4-0.1v1.1c-0.2,0.1-0.4,0.1-0.7,0.1
				c-0.5,0-1.1-0.2-1.3-0.7h0c-0.4,0.4-1.2,0.8-2.1,0.8C737.9,967.4,737.3,967.2,736.8,966.9z M740.4,965.6v-1.3
				c-0.4-0.1-0.9-0.2-1.3-0.2c-0.9,0-1.7,0.3-1.7,1.1c0,0.7,0.6,1,1.3,1C739.4,966.2,740,966,740.4,965.6z"/>
			<path class="st7" d="M744.2,956.5h1.3v6.8l0,0l3.1-3h1.6l-3.2,3.1l3.5,3.8h-1.7l-3.4-3.7l0,0v3.7h-1.3V956.5z"/>
			<path class="st7" d="M754.5,960.3h1.4l1,3.1c0.2,0.7,0.5,1.4,0.7,2.1h0c0.2-0.7,0.5-1.4,0.8-2.1l1.1-3.1h0.9l1.1,3.1
				c0.3,0.7,0.5,1.4,0.8,2.1h0c0.2-0.7,0.4-1.4,0.7-2.1l1-3.1h1.3l-2.4,6.9h-1.2l-1.1-3c-0.2-0.6-0.5-1.3-0.7-1.9h0
				c-0.2,0.6-0.4,1.3-0.7,1.9l-1.1,3h-1.3L754.5,960.3z"/>
			<path class="st7" d="M767.6,957.1c0.5,0,0.9,0.4,0.9,0.9s-0.4,0.9-0.9,0.9s-0.9-0.4-0.9-0.9S767.1,957.1,767.6,957.1z
				 M766.9,960.3h1.3v6.9h-1.3V960.3z"/>
			<path class="st7" d="M771.1,964.8v-3.4h-1.3v-1.1h1.3v-1.9l1.3-0.2v2.1h2.1v1.1h-2.1v3.1c0,0.9,0.1,1.6,1,1.6
				c0.4,0,0.8-0.1,1-0.3v1.2c-0.3,0.1-0.8,0.3-1.2,0.3c-0.5,0-1.1-0.1-1.6-0.6C771.2,966.3,771.1,965.8,771.1,964.8z"/>
			<path class="st7" d="M776.1,956.5h1.3v4.7l0,0c0.6-0.6,1.4-1,2.4-1c0.8,0,1.4,0.3,1.8,0.8c0.4,0.4,0.6,1,0.6,2v4.3H781v-4
				c0-0.8-0.1-1.1-0.3-1.4c-0.3-0.3-0.6-0.4-1.1-0.4c-0.8,0-1.7,0.5-2.2,1.1v4.7h-1.3V956.5z"/>
			<path class="st7" d="M788.3,970.3l1.9-3.8l-2.9-6.1h1.4l1.2,2.6c0.3,0.7,0.7,1.4,0.9,2.1h0c0.3-0.7,0.6-1.4,0.9-2.1l1.2-2.6h1.3
				l-4.7,10H788.3z"/>
			<path class="st7" d="M798.5,960.2c2.1,0,3.6,1.6,3.6,3.6c0,2-1.6,3.6-3.6,3.6c-2.1,0-3.6-1.6-3.6-3.6
				C794.9,961.7,796.4,960.2,798.5,960.2z M798.5,966.2c1.4,0,2.4-1.1,2.4-2.5s-1-2.5-2.4-2.5c-1.4,0-2.4,1.1-2.4,2.5
				S797.1,966.2,798.5,966.2z"/>
			<path class="st7" d="M804,964.5v-4.2h1.3v4c0,0.8,0.1,1.1,0.3,1.4c0.3,0.3,0.7,0.5,1.1,0.5c0.9,0,1.7-0.6,2.2-1.2v-4.7h1.3v6.9
				h-1.3v-0.9l0,0c-0.6,0.6-1.4,1-2.4,1c-0.7,0-1.4-0.2-1.9-0.8C804.2,966.1,804,965.5,804,964.5z"/>
			<path class="st7" d="M812.4,960.3h1.3v1l0,0c0.5-0.7,1.2-1.1,2-1.1c0.1,0,0.3,0,0.4,0.1v1.2c-0.2,0-0.3-0.1-0.5-0.1
				c-0.9,0-1.6,0.5-2,1.2v4.5h-1.3V960.3z"/>
			<path class="st7" d="M821.3,960.3h1.3v0.9l0,0c0.6-0.6,1.4-1,2.4-1c0.8,0,1.4,0.3,1.8,0.8c0.4,0.4,0.6,1,0.6,2v4.3h-1.3v-4
				c0-0.7-0.1-1.1-0.3-1.4c-0.3-0.3-0.7-0.4-1.1-0.4c-0.8,0-1.7,0.5-2.2,1.1v4.7h-1.3V960.3z"/>
			<path class="st7" d="M829.7,964.5v-4.2h1.3v4c0,0.8,0.1,1.1,0.3,1.4c0.3,0.3,0.7,0.5,1.1,0.5c0.9,0,1.7-0.6,2.2-1.2v-4.7h1.3v6.9
				h-1.3v-0.9l0,0c-0.6,0.6-1.4,1-2.4,1c-0.7,0-1.4-0.2-1.9-0.8C829.8,966.1,829.7,965.5,829.7,964.5z"/>
			<path class="st7" d="M838.1,960.3h1.3v1l0,0c0.5-0.7,1.2-1.1,2-1.1c0.1,0,0.3,0,0.4,0.1v1.2c-0.2,0-0.3-0.1-0.5-0.1
				c-0.9,0-1.6,0.5-2,1.2v4.5h-1.3V960.3z"/>
			<path class="st7" d="M843.2,965.5c0.8,0.5,1.8,0.7,2.6,0.7c1,0,1.6-0.3,1.6-1c0-0.8-1-0.8-2.1-1c-1.3-0.2-2.4-0.6-2.4-2
				c0-1.4,1.2-2.1,2.8-2.1c0.8,0,1.8,0.2,2.5,0.5v1.3c-0.8-0.4-1.7-0.7-2.5-0.7c-0.9,0-1.5,0.3-1.5,0.9c0,0.8,1,0.8,2,1
				c1.3,0.2,2.4,0.6,2.4,2c0,1.6-1.4,2.2-2.9,2.2c-0.9,0-1.9-0.2-2.6-0.6V965.5z"/>
			<path class="st7" d="M851.3,964.1c0.2,1.4,1.2,2.1,2.5,2.1c1,0,1.8-0.4,2.4-0.9v1.3c-0.6,0.4-1.6,0.6-2.5,0.6
				c-2.1,0-3.7-1.4-3.7-3.6c0-2.2,1.6-3.6,3.4-3.6c1.7,0,3.1,1.2,3.1,3.3c0,0.2,0,0.5,0,0.6H851.3z M851.3,963.1h4.1
				c-0.1-1.4-1.1-1.8-1.9-1.8C852.5,961.3,851.6,961.9,851.3,963.1z"/>
			<path class="st7" d="M859,965.3h1.3l-1.1,4h-0.9L859,965.3z"/>
			<path class="st7" d="M869.5,960.2c0.7,0,1.2,0.2,1.7,0.4l0,0v-4h1.3v10.7h-1.3v-0.4l0,0c-0.5,0.3-1.1,0.6-1.9,0.6
				c-1.9,0-3.4-1.4-3.4-3.5C865.9,961.8,867.4,960.2,869.5,960.2z M869.4,966.2c0.7,0,1.3-0.3,1.8-0.6v-3.9
				c-0.5-0.2-1.1-0.4-1.7-0.4c-1.5,0-2.4,1.1-2.4,2.5C867.1,965.2,868,966.2,869.4,966.2z"/>
			<path class="st7" d="M878,960.2c2.1,0,3.6,1.6,3.6,3.6c0,2-1.6,3.6-3.6,3.6c-2.1,0-3.6-1.6-3.6-3.6
				C874.3,961.7,875.9,960.2,878,960.2z M878,966.2c1.4,0,2.4-1.1,2.4-2.5s-1-2.5-2.4-2.5c-1.4,0-2.4,1.1-2.4,2.5
				S876.6,966.2,878,966.2z"/>
			<path class="st7" d="M888.8,966.9c-0.6,0.3-1.4,0.5-2.1,0.5c-2.2,0-3.7-1.5-3.7-3.6c0-2.1,1.7-3.6,3.8-3.6c0.7,0,1.4,0.2,1.9,0.4
				v1.3c-0.6-0.4-1.2-0.6-1.9-0.6c-1.5,0-2.5,1.1-2.5,2.5c0,1.4,1.1,2.4,2.5,2.4c0.8,0,1.5-0.3,2-0.7V966.9z"/>
			<path class="st7" d="M891.3,964.8v-3.4H890v-1.1h1.3v-1.9l1.3-0.2v2.1h2.1v1.1h-2.1v3.1c0,0.9,0.1,1.6,1,1.6c0.4,0,0.8-0.1,1-0.3
				v1.2c-0.3,0.1-0.8,0.3-1.2,0.3c-0.5,0-1.1-0.1-1.6-0.6C891.5,966.3,891.3,965.8,891.3,964.8z"/>
			<path class="st7" d="M899.4,960.2c2.1,0,3.6,1.6,3.6,3.6c0,2-1.6,3.6-3.6,3.6c-2.1,0-3.6-1.6-3.6-3.6
				C895.7,961.7,897.3,960.2,899.4,960.2z M899.4,966.2c1.4,0,2.4-1.1,2.4-2.5s-1-2.5-2.4-2.5c-1.4,0-2.4,1.1-2.4,2.5
				S898,966.2,899.4,966.2z"/>
			<path class="st7" d="M904.9,960.3h1.3v1l0,0c0.5-0.7,1.2-1.1,2-1.1c0.1,0,0.3,0,0.4,0.1v1.2c-0.2,0-0.3-0.1-0.5-0.1
				c-0.9,0-1.6,0.5-2,1.2v4.5h-1.3V960.3z"/>
			<path class="st7" d="M909,965.3h1.3l-1.1,4h-0.9L909,965.3z"/>
			<path class="st7" d="M916.6,966.9c-0.4-0.3-0.7-0.9-0.7-1.5c0-0.8,0.4-1.3,0.9-1.7c0.5-0.3,1.2-0.5,1.9-0.5c0.5,0,1,0.1,1.5,0.2
				v-0.6c0-0.5-0.1-0.9-0.4-1.1c-0.3-0.2-0.7-0.4-1.3-0.4c-0.9,0-1.6,0.3-2.1,0.7v-1.2c0.5-0.3,1.3-0.6,2.3-0.6
				c0.8,0,1.6,0.2,2.1,0.6c0.4,0.4,0.7,1,0.7,1.8v2.9c0,0.4,0.2,0.7,0.5,0.7c0.1,0,0.3,0,0.4-0.1v1.1c-0.2,0.1-0.4,0.1-0.7,0.1
				c-0.5,0-1.1-0.2-1.3-0.7h0c-0.4,0.4-1.2,0.8-2.1,0.8C917.7,967.4,917.1,967.2,916.6,966.9z M920.2,965.6v-1.3
				c-0.4-0.1-0.9-0.2-1.3-0.2c-0.9,0-1.7,0.3-1.7,1.1c0,0.7,0.6,1,1.3,1C919.1,966.2,919.8,966,920.2,965.6z"/>
			<path class="st7" d="M923.9,960.3h1.3v0.9l0,0c0.6-0.6,1.4-1,2.4-1c0.8,0,1.4,0.3,1.8,0.8c0.4,0.4,0.6,1,0.6,2v4.3h-1.3v-4
				c0-0.7-0.1-1.1-0.3-1.4c-0.3-0.3-0.7-0.4-1.1-0.4c-0.8,0-1.7,0.5-2.2,1.1v4.7h-1.3V960.3z"/>
			<path class="st7" d="M935.6,960.2c0.7,0,1.2,0.2,1.7,0.4l0,0v-4h1.3v10.7h-1.3v-0.4l0,0c-0.5,0.3-1.1,0.6-1.9,0.6
				c-1.9,0-3.4-1.4-3.4-3.5C931.9,961.8,933.4,960.2,935.6,960.2z M935.5,966.2c0.7,0,1.3-0.3,1.8-0.6v-3.9
				c-0.5-0.2-1.1-0.4-1.7-0.4c-1.5,0-2.4,1.1-2.4,2.5C933.2,965.2,934,966.2,935.5,966.2z"/>
			<path class="st7" d="M944.7,956.5h1l-4.7,11.2h-1L944.7,956.5z"/>
			<path class="st7" d="M949.2,960.2c2.1,0,3.6,1.6,3.6,3.6c0,2-1.6,3.6-3.6,3.6s-3.6-1.6-3.6-3.6
				C945.6,961.7,947.1,960.2,949.2,960.2z M949.2,966.2c1.4,0,2.4-1.1,2.4-2.5s-1-2.5-2.4-2.5s-2.4,1.1-2.4,2.5
				S947.8,966.2,949.2,966.2z"/>
			<path class="st7" d="M954.7,960.3h1.3v1l0,0c0.5-0.7,1.2-1.1,2-1.1c0.1,0,0.3,0,0.4,0.1v1.2c-0.2,0-0.3-0.1-0.5-0.1
				c-0.9,0-1.6,0.5-2,1.2v4.5h-1.3V960.3z"/>
			<path class="st7" d="M964.8,970.3h-1.3v-10h1.3v0.4l0,0c0.5-0.3,1.1-0.6,2-0.6c1.8,0,3.3,1.4,3.3,3.6c0,2.2-1.6,3.6-3.6,3.6
				c-0.7,0-1.3-0.2-1.7-0.4l0,0V970.3z M966.5,966.3c1.4,0,2.3-1,2.3-2.4c0-1.4-0.9-2.5-2.3-2.5c-0.6,0-1.3,0.2-1.8,0.6v3.9
				C965.2,966,965.9,966.3,966.5,966.3z"/>
			<path class="st7" d="M972,956.5h1.3v4.7l0,0c0.6-0.6,1.4-1,2.4-1c0.8,0,1.4,0.3,1.8,0.8c0.4,0.4,0.6,1,0.6,2v4.3h-1.3v-4
				c0-0.8-0.1-1.1-0.3-1.4c-0.3-0.3-0.6-0.4-1.1-0.4c-0.8,0-1.7,0.5-2.2,1.1v4.7H972V956.5z"/>
			<path class="st7" d="M980.7,966.9c-0.4-0.3-0.7-0.9-0.7-1.5c0-0.8,0.4-1.3,0.9-1.7c0.5-0.3,1.2-0.5,1.9-0.5c0.5,0,1,0.1,1.5,0.2
				v-0.6c0-0.5-0.1-0.9-0.4-1.1c-0.3-0.2-0.7-0.4-1.3-0.4c-0.9,0-1.6,0.3-2.1,0.7v-1.2c0.5-0.3,1.3-0.6,2.3-0.6
				c0.8,0,1.6,0.2,2.1,0.6c0.4,0.4,0.7,1,0.7,1.8v2.9c0,0.4,0.2,0.7,0.5,0.7c0.1,0,0.3,0,0.4-0.1v1.1c-0.2,0.1-0.4,0.1-0.7,0.1
				c-0.5,0-1.1-0.2-1.3-0.7h0c-0.4,0.4-1.2,0.8-2.1,0.8C981.8,967.4,981.1,967.2,980.7,966.9z M984.3,965.6v-1.3
				c-0.4-0.1-0.9-0.2-1.3-0.2c-0.9,0-1.7,0.3-1.7,1.1c0,0.7,0.6,1,1.3,1C983.2,966.2,983.8,966,984.3,965.6z"/>
			<path class="st7" d="M988,960.3h1.3v1l0,0c0.5-0.7,1.2-1.1,2-1.1c0.1,0,0.3,0,0.4,0.1v1.2c-0.2,0-0.3-0.1-0.5-0.1
				c-0.9,0-1.6,0.5-2,1.2v4.5H988V960.3z"/>
			<path class="st7" d="M1002.8,963.1c0-0.7-0.1-1.1-0.4-1.4c-0.3-0.3-0.7-0.4-1.1-0.4c-0.8,0-1.6,0.5-2.1,1.1c0,0.2,0,0.3,0,0.5
				v4.3H998v-4.1c0-0.7-0.1-1.1-0.3-1.4c-0.3-0.3-0.7-0.4-1-0.4c-0.8,0-1.6,0.5-2.1,1.1v4.8h-1.3v-6.9h1.3v0.8l0,0
				c0.6-0.6,1.4-1,2.3-1c0.9,0,1.7,0.4,2.1,1.2c0.8-0.8,1.7-1.2,2.6-1.2c0.7,0,1.4,0.3,1.8,0.7c0.4,0.5,0.6,1.1,0.6,2v4.3h-1.3
				V963.1z"/>
			<path class="st7" d="M1006.6,966.9c-0.4-0.3-0.7-0.9-0.7-1.5c0-0.8,0.4-1.3,0.9-1.7c0.5-0.3,1.2-0.5,1.9-0.5c0.5,0,1,0.1,1.5,0.2
				v-0.6c0-0.5-0.1-0.9-0.4-1.1c-0.3-0.2-0.7-0.4-1.3-0.4c-0.9,0-1.6,0.3-2.1,0.7v-1.2c0.5-0.3,1.3-0.6,2.3-0.6
				c0.8,0,1.6,0.2,2.1,0.6c0.4,0.4,0.7,1,0.7,1.8v2.9c0,0.4,0.2,0.7,0.5,0.7c0.1,0,0.3,0,0.4-0.1v1.1c-0.2,0.1-0.4,0.1-0.7,0.1
				c-0.5,0-1.1-0.2-1.3-0.7h0c-0.4,0.4-1.2,0.8-2.1,0.8C1007.7,967.4,1007.1,967.2,1006.6,966.9z M1010.2,965.6v-1.3
				c-0.4-0.1-0.9-0.2-1.3-0.2c-0.9,0-1.7,0.3-1.7,1.1c0,0.7,0.6,1,1.3,1C1009.1,966.2,1009.8,966,1010.2,965.6z"/>
			<path class="st7" d="M1019.3,966.9c-0.6,0.3-1.4,0.5-2.1,0.5c-2.2,0-3.7-1.5-3.7-3.6c0-2.1,1.7-3.6,3.8-3.6
				c0.7,0,1.4,0.2,1.9,0.4v1.3c-0.6-0.4-1.2-0.6-1.9-0.6c-1.5,0-2.5,1.1-2.5,2.5c0,1.4,1.1,2.4,2.5,2.4c0.8,0,1.5-0.3,2-0.7V966.9z"
				/>
			<path class="st7" d="M1021.8,957.1c0.5,0,0.9,0.4,0.9,0.9s-0.4,0.9-0.9,0.9s-0.9-0.4-0.9-0.9S1021.4,957.1,1021.8,957.1z
				 M1021.2,960.3h1.3v6.9h-1.3V960.3z"/>
			<path class="st7" d="M1024.6,965.5c0.8,0.5,1.8,0.7,2.6,0.7c1,0,1.6-0.3,1.6-1c0-0.8-1-0.8-2.1-1c-1.3-0.2-2.4-0.6-2.4-2
				c0-1.4,1.2-2.1,2.8-2.1c0.8,0,1.8,0.2,2.5,0.5v1.3c-0.8-0.4-1.7-0.7-2.5-0.7c-0.9,0-1.5,0.3-1.5,0.9c0,0.8,1,0.8,2,1
				c1.3,0.2,2.4,0.6,2.4,2c0,1.6-1.4,2.2-2.9,2.2c-0.9,0-1.9-0.2-2.6-0.6V965.5z"/>
			<path class="st7" d="M1032.5,964.8v-3.4h-1.3v-1.1h1.3v-1.9l1.3-0.2v2.1h2.1v1.1h-2.1v3.1c0,0.9,0.1,1.6,1,1.6
				c0.4,0,0.8-0.1,1-0.3v1.2c-0.3,0.1-0.8,0.3-1.2,0.3c-0.5,0-1.1-0.1-1.6-0.6C1032.7,966.3,1032.5,965.8,1032.5,964.8z"/>
			<path class="st7" d="M1041.4,961.4h-1.1v-1.1h1.1V959c0-0.9,0.1-1.6,0.6-2.1c0.4-0.4,1-0.6,1.6-0.6c0.4,0,0.8,0.1,1,0.1v1.1
				c-0.3-0.1-0.7-0.1-1-0.1c-0.9,0-1,0.6-1,1.3v1.5h1.8v1.1h-1.8v5.8h-1.3V961.4z"/>
			<path class="st7" d="M1049.1,960.2c2.1,0,3.6,1.6,3.6,3.6c0,2-1.6,3.6-3.6,3.6s-3.6-1.6-3.6-3.6
				C1045.5,961.7,1047,960.2,1049.1,960.2z M1049.1,966.2c1.4,0,2.4-1.1,2.4-2.5s-1-2.5-2.4-2.5s-2.4,1.1-2.4,2.5
				S1047.7,966.2,1049.1,966.2z"/>
			<path class="st7" d="M1054.6,960.3h1.3v1l0,0c0.5-0.7,1.2-1.1,2-1.1c0.1,0,0.3,0,0.4,0.1v1.2c-0.2,0-0.3-0.1-0.5-0.1
				c-0.9,0-1.6,0.5-2,1.2v4.5h-1.3V960.3z"/>
		</g>
		<g class="st6">
			<path class="st7" d="M738,981.1c0-0.7-0.1-1.1-0.4-1.4c-0.3-0.3-0.7-0.4-1.1-0.4c-0.8,0-1.6,0.5-2.1,1.1c0,0.2,0,0.3,0,0.5v4.3
				h-1.3v-4.1c0-0.7-0.1-1.1-0.3-1.4c-0.3-0.3-0.7-0.4-1.1-0.4c-0.8,0-1.6,0.5-2.1,1.1v4.8h-1.3v-6.9h1.3v0.8l0,0
				c0.6-0.6,1.4-1,2.3-1c0.9,0,1.7,0.4,2.1,1.2c0.8-0.8,1.7-1.2,2.6-1.2c0.7,0,1.4,0.3,1.8,0.7c0.4,0.5,0.6,1.1,0.6,2v4.3H738V981.1
				z"/>
			<path class="st7" d="M744.7,978.2c2.1,0,3.6,1.6,3.6,3.6c0,2-1.6,3.6-3.6,3.6c-2.1,0-3.6-1.6-3.6-3.6
				C741.1,979.7,742.6,978.2,744.7,978.2z M744.7,984.2c1.4,0,2.4-1.1,2.4-2.5s-1-2.5-2.4-2.5c-1.4,0-2.4,1.1-2.4,2.5
				S743.4,984.2,744.7,984.2z"/>
			<path class="st7" d="M750.2,978.3h1.3v1l0,0c0.5-0.7,1.2-1.1,2-1.1c0.1,0,0.3,0,0.4,0.1v1.2c-0.2,0-0.3-0.1-0.5-0.1
				c-0.9,0-1.6,0.5-2,1.2v4.5h-1.3V978.3z"/>
			<path class="st7" d="M756.1,982.1c0.2,1.4,1.2,2.1,2.5,2.1c1,0,1.8-0.4,2.4-0.9v1.3c-0.6,0.4-1.6,0.6-2.5,0.6
				c-2.1,0-3.7-1.4-3.7-3.6c0-2.2,1.6-3.6,3.4-3.6c1.7,0,3.1,1.2,3.1,3.3c0,0.2,0,0.5,0,0.6H756.1z M756.2,981.1h4.1
				c-0.1-1.4-1.1-1.8-1.9-1.8C757.4,979.3,756.4,979.9,756.2,981.1z"/>
			<path class="st7" d="M767.5,975.1c0.5,0,0.9,0.4,0.9,0.9s-0.4,0.9-0.9,0.9s-0.9-0.4-0.9-0.9S767,975.1,767.5,975.1z M766.9,978.3
				h1.3v6.9h-1.3V978.3z"/>
			<path class="st7" d="M770.5,978.3h1.3v0.9l0,0c0.6-0.6,1.4-1,2.4-1c0.8,0,1.4,0.3,1.8,0.8c0.4,0.4,0.6,1,0.6,2v4.3h-1.3v-4
				c0-0.7-0.1-1.1-0.3-1.4c-0.3-0.3-0.7-0.4-1.1-0.4c-0.8,0-1.7,0.5-2.2,1.1v4.7h-1.3V978.3z"/>
			<path class="st7" d="M779.3,979.4h-1.1v-1.1h1.1V977c0-0.9,0.1-1.6,0.6-2.1c0.4-0.4,1-0.6,1.6-0.6c0.4,0,0.8,0.1,1,0.1v1.1
				c-0.3-0.1-0.7-0.1-1-0.1c-0.9,0-1,0.6-1,1.3v1.5h1.8v1.1h-1.8v5.8h-1.3V979.4z"/>
			<path class="st7" d="M787,978.2c2.1,0,3.6,1.6,3.6,3.6c0,2-1.6,3.6-3.6,3.6c-2.1,0-3.6-1.6-3.6-3.6
				C783.3,979.7,784.9,978.2,787,978.2z M787,984.2c1.4,0,2.4-1.1,2.4-2.5s-1-2.5-2.4-2.5c-1.4,0-2.4,1.1-2.4,2.5
				S785.6,984.2,787,984.2z"/>
			<path class="st7" d="M792.5,978.3h1.3v1l0,0c0.5-0.7,1.2-1.1,2-1.1c0.1,0,0.3,0,0.4,0.1v1.2c-0.2,0-0.3-0.1-0.5-0.1
				c-0.9,0-1.6,0.5-2,1.2v4.5h-1.3V978.3z"/>
			<path class="st7" d="M807.3,981.1c0-0.7-0.1-1.1-0.4-1.4c-0.3-0.3-0.7-0.4-1.1-0.4c-0.8,0-1.6,0.5-2.1,1.1c0,0.2,0,0.3,0,0.5v4.3
				h-1.3v-4.1c0-0.7-0.1-1.1-0.3-1.4c-0.3-0.3-0.7-0.4-1.1-0.4c-0.8,0-1.6,0.5-2.1,1.1v4.8h-1.3v-6.9h1.3v0.8l0,0
				c0.6-0.6,1.4-1,2.3-1c0.9,0,1.7,0.4,2.1,1.2c0.8-0.8,1.7-1.2,2.6-1.2c0.7,0,1.4,0.3,1.8,0.7c0.4,0.5,0.6,1.1,0.6,2v4.3h-1.3
				V981.1z"/>
			<path class="st7" d="M811.1,984.9c-0.4-0.3-0.7-0.9-0.7-1.5c0-0.8,0.4-1.3,0.9-1.7c0.5-0.3,1.2-0.5,1.9-0.5c0.5,0,1,0.1,1.5,0.2
				v-0.6c0-0.5-0.1-0.9-0.4-1.1c-0.3-0.2-0.7-0.4-1.3-0.4c-0.9,0-1.6,0.3-2.1,0.7v-1.2c0.5-0.3,1.3-0.6,2.3-0.6
				c0.8,0,1.6,0.2,2.1,0.6c0.4,0.4,0.7,1,0.7,1.8v2.9c0,0.4,0.2,0.7,0.5,0.7c0.1,0,0.3,0,0.4-0.1v1.1c-0.2,0.1-0.4,0.1-0.7,0.1
				c-0.5,0-1.1-0.2-1.3-0.7h0c-0.4,0.4-1.2,0.8-2.1,0.8C812.2,985.4,811.6,985.2,811.1,984.9z M814.7,983.6v-1.3
				c-0.4-0.1-0.9-0.2-1.3-0.2c-0.9,0-1.7,0.3-1.7,1.1c0,0.7,0.6,1,1.3,1C813.6,984.2,814.3,984,814.7,983.6z"/>
			<path class="st7" d="M819,982.8v-3.4h-1.3v-1.1h1.3v-1.9l1.3-0.2v2.1h2.1v1.1h-2.1v3.1c0,0.9,0.1,1.6,1,1.6c0.4,0,0.8-0.1,1-0.3
				v1.2c-0.3,0.1-0.8,0.3-1.2,0.3c-0.5,0-1.1-0.1-1.6-0.6C819.1,984.3,819,983.8,819,982.8z"/>
			<path class="st7" d="M824.6,975.1c0.5,0,0.9,0.4,0.9,0.9s-0.4,0.9-0.9,0.9s-0.9-0.4-0.9-0.9S824.2,975.1,824.6,975.1z M824,978.3
				h1.3v6.9H824V978.3z"/>
			<path class="st7" d="M830.8,978.2c2.1,0,3.6,1.6,3.6,3.6c0,2-1.6,3.6-3.6,3.6c-2.1,0-3.6-1.6-3.6-3.6
				C827.2,979.7,828.7,978.2,830.8,978.2z M830.8,984.2c1.4,0,2.4-1.1,2.4-2.5s-1-2.5-2.4-2.5c-1.4,0-2.4,1.1-2.4,2.5
				S829.4,984.2,830.8,984.2z"/>
			<path class="st7" d="M836.3,978.3h1.3v0.9l0,0c0.6-0.6,1.4-1,2.4-1c0.8,0,1.4,0.3,1.8,0.8c0.4,0.4,0.6,1,0.6,2v4.3h-1.3v-4
				c0-0.7-0.1-1.1-0.3-1.4c-0.3-0.3-0.7-0.4-1.1-0.4c-0.8,0-1.7,0.5-2.2,1.1v4.7h-1.3V978.3z"/>
			<path class="st7" d="M851.4,978.2c2.1,0,3.6,1.6,3.6,3.6c0,2-1.6,3.6-3.6,3.6c-2.1,0-3.6-1.6-3.6-3.6
				C847.8,979.7,849.3,978.2,851.4,978.2z M851.4,984.2c1.4,0,2.4-1.1,2.4-2.5s-1-2.5-2.4-2.5c-1.4,0-2.4,1.1-2.4,2.5
				S850.1,984.2,851.4,984.2z"/>
			<path class="st7" d="M856.9,978.3h1.3v0.9l0,0c0.6-0.6,1.4-1,2.4-1c0.8,0,1.4,0.3,1.8,0.8c0.4,0.4,0.6,1,0.6,2v4.3h-1.3v-4
				c0-0.7-0.1-1.1-0.3-1.4c-0.3-0.3-0.7-0.4-1.1-0.4c-0.8,0-1.7,0.5-2.2,1.1v4.7h-1.3V978.3z"/>
			<path class="st7" d="M868.2,978.3h1.4l1,3.1c0.2,0.7,0.5,1.4,0.7,2.1h0c0.2-0.7,0.5-1.4,0.8-2.1l1.1-3.1h0.9l1.1,3.1
				c0.3,0.7,0.5,1.4,0.8,2.1h0c0.2-0.7,0.4-1.4,0.7-2.1l1-3.1h1.3l-2.4,6.9h-1.2l-1.1-3c-0.2-0.6-0.5-1.3-0.7-1.9h0
				c-0.2,0.6-0.4,1.3-0.7,1.9l-1.1,3h-1.3L868.2,978.3z"/>
			<path class="st7" d="M880.6,974.5h1.3v4.7l0,0c0.6-0.6,1.4-1,2.4-1c0.8,0,1.4,0.3,1.8,0.8c0.4,0.4,0.6,1,0.6,2v4.3h-1.3v-4
				c0-0.8-0.1-1.1-0.3-1.4c-0.3-0.3-0.6-0.4-1.1-0.4c-0.8,0-1.7,0.5-2.2,1.1v4.7h-1.3V974.5z"/>
			<path class="st7" d="M889.8,982.1c0.2,1.4,1.2,2.1,2.5,2.1c1,0,1.8-0.4,2.4-0.9v1.3c-0.6,0.4-1.6,0.6-2.5,0.6
				c-2.1,0-3.7-1.4-3.7-3.6c0-2.2,1.6-3.6,3.4-3.6c1.7,0,3.1,1.2,3.1,3.3c0,0.2,0,0.5,0,0.6H889.8z M889.8,981.1h4.1
				c-0.1-1.4-1.1-1.8-1.9-1.8C891,979.3,890.1,979.9,889.8,981.1z"/>
			<path class="st7" d="M897,978.3h1.3v1l0,0c0.5-0.7,1.2-1.1,2-1.1c0.1,0,0.3,0,0.4,0.1v1.2c-0.2,0-0.3-0.1-0.5-0.1
				c-0.9,0-1.6,0.5-2,1.2v4.5H897V978.3z"/>
			<path class="st7" d="M902.9,982.1c0.2,1.4,1.2,2.1,2.5,2.1c1,0,1.8-0.4,2.4-0.9v1.3c-0.6,0.4-1.6,0.6-2.5,0.6
				c-2.1,0-3.7-1.4-3.7-3.6c0-2.2,1.6-3.6,3.4-3.6c1.7,0,3.1,1.2,3.1,3.3c0,0.2,0,0.5,0,0.6H902.9z M903,981.1h4.1
				c-0.1-1.4-1.1-1.8-1.9-1.8C904.2,979.3,903.2,979.9,903,981.1z"/>
			<path class="st7" d="M914.2,982.8v-3.4H913v-1.1h1.3v-1.9l1.3-0.2v2.1h2.1v1.1h-2.1v3.1c0,0.9,0.1,1.6,1,1.6c0.4,0,0.8-0.1,1-0.3
				v1.2c-0.3,0.1-0.8,0.3-1.2,0.3c-0.5,0-1.1-0.1-1.6-0.6C914.4,984.3,914.2,983.8,914.2,982.8z"/>
			<path class="st7" d="M922.3,978.2c2.1,0,3.6,1.6,3.6,3.6c0,2-1.6,3.6-3.6,3.6c-2.1,0-3.6-1.6-3.6-3.6
				C918.6,979.7,920.2,978.2,922.3,978.2z M922.3,984.2c1.4,0,2.4-1.1,2.4-2.5s-1-2.5-2.4-2.5c-1.4,0-2.4,1.1-2.4,2.5
				S920.9,984.2,922.3,984.2z"/>
			<path class="st7" d="M932,975.1c0.5,0,0.9,0.4,0.9,0.9s-0.4,0.9-0.9,0.9s-0.9-0.4-0.9-0.9S931.5,975.1,932,975.1z M931.3,978.3
				h1.3v6.9h-1.3V978.3z"/>
			<path class="st7" d="M934.9,978.3h1.3v0.9l0,0c0.6-0.6,1.4-1,2.4-1c0.8,0,1.4,0.3,1.8,0.8c0.4,0.4,0.6,1,0.6,2v4.3h-1.3v-4
				c0-0.7-0.1-1.1-0.3-1.4c-0.3-0.3-0.7-0.4-1.1-0.4c-0.8,0-1.7,0.5-2.2,1.1v4.7h-1.3V978.3z"/>
			<path class="st7" d="M943.4,978.3h1.3v7.6c0,1-0.2,1.5-0.5,1.9c-0.4,0.5-1.1,0.7-1.7,0.7c-0.3,0-0.6,0-0.8-0.1v-1.1
				c0.3,0.1,0.6,0.1,0.8,0.1c0.8,0,1-0.5,1-1.3V978.3z M944,975.1c0.5,0,0.9,0.4,0.9,0.9s-0.4,0.9-0.9,0.9s-0.9-0.4-0.9-0.9
				S943.5,975.1,944,975.1z"/>
			<path class="st7" d="M947.8,982.1c0.2,1.4,1.2,2.1,2.5,2.1c1,0,1.8-0.4,2.4-0.9v1.3c-0.6,0.4-1.6,0.6-2.5,0.6
				c-2.1,0-3.7-1.4-3.7-3.6c0-2.2,1.6-3.6,3.4-3.6c1.7,0,3.1,1.2,3.1,3.3c0,0.2,0,0.5,0,0.6H947.8z M947.8,981.1h4.1
				c-0.1-1.4-1.1-1.8-1.9-1.8C949,979.3,948,979.9,947.8,981.1z"/>
			<path class="st7" d="M960.3,984.9c-0.6,0.3-1.4,0.5-2.1,0.5c-2.2,0-3.7-1.5-3.7-3.6c0-2.1,1.7-3.6,3.8-3.6c0.7,0,1.4,0.2,1.9,0.4
				v1.3c-0.6-0.4-1.2-0.6-1.9-0.6c-1.5,0-2.5,1.1-2.5,2.5c0,1.4,1.1,2.4,2.5,2.4c0.8,0,1.5-0.3,2-0.7V984.9z"/>
			<path class="st7" d="M962.8,982.8v-3.4h-1.3v-1.1h1.3v-1.9l1.3-0.2v2.1h2.1v1.1h-2.1v3.1c0,0.9,0.1,1.6,1,1.6
				c0.4,0,0.8-0.1,1-0.3v1.2c-0.3,0.1-0.8,0.3-1.2,0.3c-0.5,0-1.1-0.1-1.6-0.6C963,984.3,962.8,983.8,962.8,982.8z"/>
			<path class="st7" d="M971.2,983.1c1,0.7,2.2,1,3.1,1c1.2,0,2.1-0.5,2.1-1.7c0-1.3-1.2-1.5-2.5-1.9c-1.4-0.4-2.8-1-2.8-2.8
				c0-1.8,1.3-2.8,3.3-2.8c1,0,2.1,0.2,2.9,0.8v1.4c-0.9-0.6-2.1-0.9-2.9-0.9c-1.1,0-1.9,0.5-1.9,1.5c0,1.3,1.2,1.5,2.4,1.8
				c1.5,0.4,2.9,1,2.9,2.9c0,1.8-1.4,2.9-3.4,2.9c-1,0-2.2-0.3-3.1-0.8V983.1z"/>
			<path class="st7" d="M982,976.3h-3.4v-1.2h8.1v1.2h-3.4v8.9H982V976.3z"/>
			<path class="st7" d="M988.3,975.1h2.7c1,0,2,0,2.8,0.5c0.8,0.5,1.4,1.2,1.4,2.4c0,1.1-0.5,1.9-1.3,2.4c-0.4,0.2-0.7,0.4-1.2,0.4
				l3.2,4.5h-1.6l-3.1-4.3h-1.7v4.3h-1.3V975.1z M991.3,979.8c0.9,0,1.5-0.1,2-0.5c0.4-0.3,0.6-0.7,0.6-1.3c0-0.6-0.3-1.1-0.8-1.4
				c-0.5-0.3-1.2-0.3-2.2-0.3h-1.3v3.5H991.3z"/>
			<path class="st7" d="M997.4,975.1h5.9v1.2h-4.5v3.1h4v1.2h-4v3.5h4.7v1.2h-6V975.1z"/>
			<path class="st7" d="M1005.3,985.2v-10.1h1.3l4.2,5.6c0.6,0.8,1.2,1.6,1.8,2.4l0,0c0-0.9,0-1.9,0-2.9v-5.1h1.3v10.1h-1.3
				l-4.2-5.6c-0.6-0.8-1.2-1.6-1.8-2.4l0,0c0,0.9,0,1.9,0,2.9v5.1H1005.3z"/>
			<path class="st7" d="M1016,983.1c1,0.7,2.2,1,3.1,1c1.2,0,2.1-0.5,2.1-1.7c0-1.3-1.2-1.5-2.5-1.9c-1.4-0.4-2.8-1-2.8-2.8
				c0-1.8,1.3-2.8,3.3-2.8c1,0,2.1,0.2,2.9,0.8v1.4c-0.9-0.6-2.1-0.9-2.9-0.9c-1.1,0-1.9,0.5-1.9,1.5c0,1.3,1.2,1.5,2.4,1.8
				c1.5,0.4,2.9,1,2.9,2.9c0,1.8-1.4,2.9-3.4,2.9c-1,0-2.2-0.3-3.1-0.8V983.1z"/>
			<path class="st7" d="M1024.2,975.1h1.3v10.1h-1.3V975.1z"/>
			<path class="st7" d="M1032.6,974.9c2.9,0,5.2,2.3,5.2,5.2c0,2.4-1.5,4.3-3.6,5v0c1,0.7,2.1,1.2,3.2,1.6l-1.3,0.8
				c-1.3-0.5-2.5-1.3-3.6-2.2c-2.9-0.1-5-2.3-5-5.2C1027.4,977.2,1029.6,974.9,1032.6,974.9z M1032.6,984.1c2.2,0,3.8-1.8,3.8-4
				c0-2.2-1.6-4-3.8-4c-2.2,0-3.8,1.8-3.8,4C1028.7,982.4,1030.3,984.1,1032.6,984.1z"/>
			<path class="st7" d="M1040.2,983.5c0.5,0,0.9,0.4,0.9,0.9s-0.4,0.9-0.9,0.9s-0.9-0.4-0.9-0.9S1039.7,983.5,1040.2,983.5z"/>
		</g>
		<g class="st6">
			<path class="st7" d="M774.2,554.8h7.7v1.5h-6v4.2h5.3v1.5h-5.3v5.8h-1.7V554.8z"/>
			<path class="st7" d="M783.7,559h1.6v1.3l0,0c0.6-0.9,1.6-1.4,2.6-1.4c0.2,0,0.4,0,0.6,0.1v1.6c-0.2-0.1-0.4-0.1-0.6-0.1
				c-1.2,0-2.1,0.6-2.6,1.6v5.8h-1.6V559z"/>
			<path class="st7" d="M794.4,558.8c2.7,0,4.7,2,4.7,4.6c0,2.6-2,4.6-4.7,4.6s-4.7-2-4.7-4.6C789.7,560.8,791.7,558.8,794.4,558.8z
				 M794.4,566.5c1.8,0,3.1-1.4,3.1-3.2c0-1.8-1.3-3.2-3.1-3.2s-3.1,1.4-3.1,3.2C791.3,565.2,792.6,566.5,794.4,566.5z"/>
			<path class="st7" d="M801.4,559h1.6v1.1l0,0c0.8-0.8,1.9-1.3,3.1-1.3c1,0,1.8,0.3,2.4,1c0.5,0.6,0.7,1.2,0.7,2.6v5.5h-1.6v-5.2
				c0-0.9-0.1-1.5-0.4-1.8c-0.4-0.4-0.9-0.6-1.4-0.6c-1,0-2.1,0.6-2.8,1.5v6.1h-1.6V559z"/>
			<path class="st7" d="M812.9,564.7v-4.3h-1.6V559h1.6v-2.4l1.6-0.3v2.7h2.7v1.5h-2.7v4c0,1.1,0.2,2.1,1.3,2.1c0.5,0,1-0.2,1.3-0.4
				v1.5c-0.4,0.2-1,0.3-1.6,0.3c-0.6,0-1.4-0.2-2-0.8C813.2,566.7,812.9,566,812.9,564.7z"/>
		</g>
		<g class="st6">
			<path class="st7" d="M952.1,554.8h3.5c1.6,0,2.6,0.1,3.5,0.7c1,0.6,1.5,1.5,1.5,2.7c0,1.5-0.9,2.4-2,2.8v0c1.5,0.4,2.5,1.4,2.5,3
				c0,1.2-0.5,2.3-1.5,3c-0.9,0.6-2.2,0.9-4.1,0.9h-3.5V554.8z M956.4,560.5c1.3,0,2.5-0.6,2.5-2c0-0.8-0.4-1.3-0.9-1.7
				c-0.6-0.4-1.3-0.5-2.6-0.5h-1.5v4.1H956.4z M955.7,566.3c1.5,0,2.3-0.1,2.9-0.6c0.4-0.3,0.8-0.8,0.8-1.7c0-1.4-1.1-2.2-3.1-2.2
				h-2.5v4.5H955.7z"/>
			<path class="st7" d="M964,567.4c-0.6-0.4-0.9-1.1-0.9-2c0-1,0.5-1.7,1.2-2.2c0.7-0.4,1.6-0.6,2.5-0.6c0.7,0,1.3,0.1,1.9,0.2v-0.7
				c0-0.6-0.2-1.1-0.5-1.5c-0.3-0.3-0.9-0.5-1.6-0.5c-1.1,0-2.1,0.4-2.7,0.9v-1.6c0.7-0.4,1.6-0.8,3-0.8c1.1,0,2,0.2,2.6,0.8
				c0.5,0.5,0.9,1.2,0.9,2.3v3.8c0,0.5,0.2,0.9,0.7,0.9c0.2,0,0.4-0.1,0.5-0.1v1.4c-0.2,0.1-0.5,0.2-0.9,0.2c-0.7,0-1.4-0.3-1.7-0.9
				h0c-0.5,0.5-1.5,1-2.7,1C965.4,568,964.6,567.8,964,567.4z M968.6,565.8v-1.7c-0.5-0.1-1.2-0.2-1.7-0.2c-1.1,0-2.2,0.3-2.2,1.4
				c0,0.9,0.7,1.3,1.7,1.3C967.3,566.6,968.1,566.2,968.6,565.8z"/>
			<path class="st7" d="M980.3,567.4c-0.8,0.4-1.7,0.6-2.6,0.6c-2.8,0-4.8-1.9-4.8-4.6c0-2.7,2.2-4.7,4.9-4.7c0.9,0,1.8,0.2,2.4,0.6
				v1.7c-0.7-0.5-1.6-0.8-2.5-0.8c-1.9,0-3.2,1.4-3.2,3.2c0,1.8,1.4,3.1,3.3,3.1c1,0,1.9-0.3,2.6-0.9V567.4z"/>
			<path class="st7" d="M982.8,554.1h1.6v8.8l0,0l4-3.9h2.1l-4.1,4l4.5,4.9h-2.1l-4.3-4.8l0,0v4.8h-1.6V554.1z"/>
		</g>
	</g>
</g>
</svg>
