<svg xmlns="http://www.w3.org/2000/svg" xmlns:xlink="http://www.w3.org/1999/xlink" width="491" height="639.765" viewBox="0 0 491 639.765"><defs><clipPath id="a"><path d="M2804.069,1195.031c-4.767,32.57-6.75,67.129-6.75,67.129-1.194,14.7-.8,30.983-.8,30.983a183.1,183.1,0,0,1-6.354,40.914,99.044,99.044,0,0,0-1.191,34.159c0,3.968-5.561,9.534-5.561,9.534a22.708,22.708,0,0,0-3.969,11.916,17.479,17.479,0,0,1-3.967,7.945c-8.737,1.192-13.106-.4-13.106-.4-1.987-.794-5.958-2.782-5.958-2.782-3.576-.794-3.576-3.176-3.576-3.176l3.968-4.768c1.986-3.576,6.355-11.122,6.355-11.122,9.533-12.712,9.137-17.875,9.137-17.875.4-7.148-2.385-23.037-2.385-23.037-2.382-37.734-3.176-64.746-3.176-64.746-.793-11.916-3.576-33.361-3.576-33.361-1.588-21.053-.4-50.447-.4-50.447a240.284,240.284,0,0,1,3.968-33.762c2.382-8.74,5.561-28.6,5.561-28.6,3.176-21.846-1.19-35.352-1.19-35.352-1.193-9.93-3.968-14.3-3.968-14.3-1.59,18.664-5.164,29.393-5.164,29.393-3.576,11.122-3.179,25.425-3.179,25.425a137.415,137.415,0,0,1-4.766,32.57c-2.382,7.151,1.987,9.93,1.987,9.93,2.779,7.151,1.986,16.288,1.986,16.288a70.028,70.028,0,0,1-1.19,9.531c-2.385,1.987-3.576-2.382-3.576-2.382-.4-2.385-1.19-10.327-1.19-10.327-5.561,6.355-1.589,11.519-1.589,11.519,2.779,3.968,5.562,7.151,5.562,7.151,1.19,2.382-2.782,2.779-2.782,2.779-10.327-3.179-12.312-13.9-12.312-13.9,0-6.752,1.588-19.461,1.588-19.461,1.588-14.3-.794-39.721-.794-39.721,1.191-31.776,7.937-76.265,7.937-76.265,3.178-17.874,19.86-23.435,19.86-23.435,19.861-7.945,17.479-9.137,17.479-9.137,3.573-5.958,4.368-15.491,4.368-15.491-3.176-3.576-9.133-12.709-9.133-12.709-3.767,4.246-5.958-4.369-5.958-4.369-3.575-6.354-2.782-9.931-2.782-9.931.793-1.987,3.968-1.588,3.968-1.588-2.386-29.791,9.93-38.928,9.93-38.928,13.9-9.93,27.009-5.164,27.009-5.164,21.449,7.148,19.464,29.393,19.464,29.393.4,2.382-.8,12.709-.8,12.709,5.774.085,4.013,4.493,4.013,4.493a18.052,18.052,0,0,1-3.216,7.823c-.294,1.189-.651,2.322-.974,3.274a4.63,4.63,0,0,1-4.669,3.148c-.433-.028-.714-.067-.714-.067a35.247,35.247,0,0,1-7.545,12.313,28.958,28.958,0,0,0,6.354,14.3c3.968,5.958,14.3,8.74,14.3,8.74,19.067,11.121,22.64,35.349,22.64,35.349,5.958,25.425,7.151,37.339,7.151,37.339,1.985,9.928-1.193,53.623-1.193,53.623a128.557,128.557,0,0,0,.8,27.8c.793,7.151-2.386,10.728-2.386,10.728-5.165,7.548-9.93,7.945-9.93,7.945-7.148,1.192-3.176-1.987-3.176-1.987,9.93-5.561,6.751-11.122,6.751-11.122-.4-5.561-1.985-7.547-1.985-7.547-1.193,6.354-2.385,11.519-2.385,11.519a1.91,1.91,0,0,1-3.576.4,111.211,111.211,0,0,1-.793-17.079c0-5.561,3.576-11.519,3.576-11.519,3.576-8.343-2.783-24.628-2.783-24.628-1.985-17.877-2.382-31.38-2.382-31.38-.793-5.958-7.148-38.131-7.148-38.131-7.151,17.477-5.563,48.057-5.563,48.057,1.194,28.2,6.761,47.269,6.761,47.269,4.369,10.728,3.573,57.993,3.573,57.993,0,8.342-2.779,28.6-2.779,28.6-1.588,6.752-1.588,24.227-1.588,24.227.4,31.381-5.562,67.526-5.562,67.526-1.987,9.535,5.958,22.642,5.958,22.642,4.369,10.73,7.936,13.5,7.936,13.5,8.74,7.945,3.968,10.327,3.968,10.327-1.588,2.385-6.751,1.192-6.751,1.192a10.6,10.6,0,0,1-6.761,0c-9.531,3.177-9.93-1.985-9.93-1.985a8.638,8.638,0,0,1-2.382-7.945c-.793-5.563-7.545-13.9-7.545-13.9-1.194-3.576,0-11.519,0-11.519.793-14.7-6.76-49.255-6.76-49.255,0-26.217-2.779-52.034-2.779-52.034a626.725,626.725,0,0,0-7.944-62.361C2805.656,1193.443,2804.069,1195.031,2804.069,1195.031Z" transform="translate(-2740.922 -934.515)" fill="none"/></clipPath><clipPath id="b"><path d="M3029.146,1171.677c-1.587-14.291.793-39.7.793-39.7-1.19-31.762-5.942-75.519-5.942-75.519-3.174-17.865-19.851-23.423-19.851-23.423-19.852-7.936-17.469-9.132-17.469-9.132-3.574-5.955-4.368-15.484-4.368-15.484,3.178-3.574,9.133-12.7,9.133-12.7,3.155,2.423,5.175-4.715,5.175-4.715,3.571-6.352,2.792-9.933,2.792-9.933-.794-1.987-3.2-1.233-3.2-1.233,2.381-29.778-9.926-38.91-9.926-38.91-13.9-9.926-27-5.161-27-5.161-21.439,7.145-19.455,29.381-19.455,29.381-.4,2.381.794,12.7.794,12.7-4.694.116-2.833,4.3-2.833,4.3,1.193,5.558,2.646,7.3,2.646,7.3.294,1.188.917,2.926,1.24,3.88a4.5,4.5,0,0,0,3.8,3.248,1.664,1.664,0,0,0,.711-.068,35.305,35.305,0,0,0,7.54,12.3,35.9,35.9,0,0,1-4.761,14.157c-3.968,5.955-15.885,8.871-15.885,8.871-19.059,11.116-22.633,35.333-22.633,35.333-5.955,25.41-5.184,38.415-5.184,38.415-1.984,9.926,1.193,53.6,1.193,53.6a128.449,128.449,0,0,1-.8,27.791c-.038.339-.025.63-.047.952.72,3.344,1.533,6.66,2.547,9.929,5.116,7.379,9.81,7.782,9.81,7.782,7.145,1.19,3.175-1.987,3.175-1.987-9.926-5.558-6.749-11.116-6.749-11.116.4-5.558,1.984-7.542,1.984-7.542,1.193,6.352,2.384,11.513,2.384,11.513a1.91,1.91,0,0,0,3.574.4,110.992,110.992,0,0,0,.794-17.071c0-5.558-3.574-11.513-3.574-11.513-3.574-8.339,2.781-24.617,2.781-24.617,1.984-17.868,2.38-31.365,2.38-31.365.794-5.955,5.184-39.208,5.184-39.208,7.145,17.468,5.558,48.04,5.558,48.04a249.8,249.8,0,0,1-2.619,27.061q-.911,4.894-1.655,9.491c-.422,2.135-.825,3.993-1.176,5.52.1.007.2.032.3.042-2.887,19.345-3.6,32.957-3.6,32.957-1.58,28.11-2.2,53.376-2.2,53.376a250.975,250.975,0,0,1,.316,31.585c4.421,58.746,7.581,77.7,7.581,77.7,1.264,10.737.63,12,.63,12-2.855-1.617-3.156,1.262-3.156,1.262-2.76-1.617-2.129.992-3.16.949-2.2-.1-1.894,2.2-1.894,2.2,0,3.16,4.106,6.95,4.106,6.95,1.715,3.43,3.2,7.093,4.115,9.458a7.911,7.911,0,0,0,3.908,4.24,16.713,16.713,0,0,0,7.773,2.094c6.633-1.262,6-5.053,6-5.053,2.2-6.632,1.264-9.791,1.264-9.791a60.077,60.077,0,0,1-2.844-20.529,478.347,478.347,0,0,1,6-55.273c2.844-24.636,3.159-50.849,3.159-50.849,2.844-37.27,7.248-54.643,7.248-54.643a17.742,17.742,0,0,0,2.844-4.737,11.959,11.959,0,0,0,2.527,5.052c0,24,7.248,51.166,7.248,51.166,2.844,15.477,1.58,40.43,1.58,40.43,1.58,21.793,8.524,58.749,8.524,58.749.947,10.106,1.264,19.58,1.264,19.58.63,11.372-.949,13.582-.949,13.582.949,7.9,3.791,9.161,3.791,9.161,6.95,1.264,8.845-.634,8.845-.634a9.964,9.964,0,0,0,4.42-5.683,51.086,51.086,0,0,1,5.895-11.945,22.677,22.677,0,0,0,3.451-4.556c2.883-3.781-1.8-3.152-1.8-3.152-.272-3.242-3.784-1.892-3.784-1.892a2.547,2.547,0,0,0-4.052-.453c-.949-17.048,2.817-50.651,2.817-50.651,4.106-32.849,2.526-50.849,2.526-50.849,1.58-16.107,2.526-35.06,2.526-35.06a175.612,175.612,0,0,0-2.511-32.216c.694-9.3-.5-20.66-2.057-30.486.206-.05.412-.1.62-.135-1.125-9-2.366-15.059-2.366-15.059-2.384-8.736-5.558-28.587-5.558-28.587-3.178-21.836,1.19-35.336,1.19-35.336,1.19-9.923,3.968-14.291,3.968-14.291,1.588,18.665,3.162,28.667,3.162,28.667,3.574,11.116,3.177,25.41,3.177,25.41a137.4,137.4,0,0,0,4.765,32.555c2.381,7.148-1.984,9.926-1.984,9.926-2.781,7.148-1.987,16.278-1.987,16.278a69.847,69.847,0,0,0,1.19,9.529c2.384,1.987,3.574-2.381,3.574-2.381.4-2.384,1.191-10.323,1.191-10.323,5.558,6.352,1.59,11.513,1.59,11.513-2.781,3.968-5.558,7.145-5.558,7.145-1.194,2.384,2.777,2.781,2.777,2.781a17.286,17.286,0,0,0,9.827-7.8l.051-.116c.927-2.983,1.679-6.015,2.351-9.066C3030.325,1181.1,3029.146,1171.677,3029.146,1171.677Z" transform="translate(-2904.612 -934.618)" fill="none"/></clipPath></defs><g transform="translate(-772 -3239.781)"><g transform="translate(830.758 3282.668)"><path d="M2804.069,1195.031c-4.767,32.57-6.75,67.129-6.75,67.129-1.194,14.7-.8,30.983-.8,30.983a183.1,183.1,0,0,1-6.354,40.914,99.044,99.044,0,0,0-1.191,34.159c0,3.968-5.561,9.534-5.561,9.534a22.708,22.708,0,0,0-3.969,11.916,17.479,17.479,0,0,1-3.967,7.945c-8.737,1.192-13.106-.4-13.106-.4-1.987-.794-5.958-2.782-5.958-2.782-3.576-.794-3.576-3.176-3.576-3.176l3.968-4.768c1.986-3.576,6.355-11.122,6.355-11.122,9.533-12.712,9.137-17.875,9.137-17.875.4-7.148-2.385-23.037-2.385-23.037-2.382-37.734-3.176-64.746-3.176-64.746-.793-11.916-3.576-33.361-3.576-33.361-1.588-21.053-.4-50.447-.4-50.447a240.284,240.284,0,0,1,3.968-33.762c2.382-8.74,5.561-28.6,5.561-28.6,3.176-21.846-1.19-35.352-1.19-35.352-1.193-9.93-3.968-14.3-3.968-14.3-1.59,18.664-5.164,29.393-5.164,29.393-3.576,11.122-3.179,25.425-3.179,25.425a137.415,137.415,0,0,1-4.766,32.57c-2.382,7.151,1.987,9.93,1.987,9.93,2.779,7.151,1.986,16.288,1.986,16.288a70.028,70.028,0,0,1-1.19,9.531c-2.385,1.987-3.576-2.382-3.576-2.382-.4-2.385-1.19-10.327-1.19-10.327-5.561,6.355-1.589,11.519-1.589,11.519,2.779,3.968,5.562,7.151,5.562,7.151,1.19,2.382-2.782,2.779-2.782,2.779-10.327-3.179-12.312-13.9-12.312-13.9,0-6.752,1.588-19.461,1.588-19.461,1.588-14.3-.794-39.721-.794-39.721,1.191-31.776,7.937-76.265,7.937-76.265,3.178-17.874,19.86-23.435,19.86-23.435,19.861-7.945,17.479-9.137,17.479-9.137,3.573-5.958,4.368-15.491,4.368-15.491-3.176-3.576-9.133-12.709-9.133-12.709-3.767,4.246-5.958-4.369-5.958-4.369-3.575-6.354-2.782-9.931-2.782-9.931.793-1.987,3.968-1.588,3.968-1.588-2.386-29.791,9.93-38.928,9.93-38.928,13.9-9.93,27.009-5.164,27.009-5.164,21.449,7.148,19.464,29.393,19.464,29.393.4,2.382-.8,12.709-.8,12.709,5.774.085,4.013,4.493,4.013,4.493a18.052,18.052,0,0,1-3.216,7.823c-.294,1.189-.651,2.322-.974,3.274a4.63,4.63,0,0,1-4.669,3.148c-.433-.028-.714-.067-.714-.067a35.247,35.247,0,0,1-7.545,12.313,28.958,28.958,0,0,0,6.354,14.3c3.968,5.958,14.3,8.74,14.3,8.74,19.067,11.121,22.64,35.349,22.64,35.349,5.958,25.425,7.151,37.339,7.151,37.339,1.985,9.928-1.193,53.623-1.193,53.623a128.557,128.557,0,0,0,.8,27.8c.793,7.151-2.386,10.728-2.386,10.728-5.165,7.548-9.93,7.945-9.93,7.945-7.148,1.192-3.176-1.987-3.176-1.987,9.93-5.561,6.751-11.122,6.751-11.122-.4-5.561-1.985-7.547-1.985-7.547-1.193,6.354-2.385,11.519-2.385,11.519a1.91,1.91,0,0,1-3.576.4,111.211,111.211,0,0,1-.793-17.079c0-5.561,3.576-11.519,3.576-11.519,3.576-8.343-2.783-24.628-2.783-24.628-1.985-17.877-2.382-31.38-2.382-31.38-.793-5.958-7.148-38.131-7.148-38.131-7.151,17.477-5.563,48.057-5.563,48.057,1.194,28.2,6.761,47.269,6.761,47.269,4.369,10.728,3.573,57.993,3.573,57.993,0,8.342-2.779,28.6-2.779,28.6-1.588,6.752-1.588,24.227-1.588,24.227.4,31.381-5.562,67.526-5.562,67.526-1.987,9.535,5.958,22.642,5.958,22.642,4.369,10.73,7.936,13.5,7.936,13.5,8.74,7.945,3.968,10.327,3.968,10.327-1.588,2.385-6.751,1.192-6.751,1.192a10.6,10.6,0,0,1-6.761,0c-9.531,3.177-9.93-1.985-9.93-1.985a8.638,8.638,0,0,1-2.382-7.945c-.793-5.563-7.545-13.9-7.545-13.9-1.194-3.576,0-11.519,0-11.519.793-14.7-6.76-49.255-6.76-49.255,0-26.217-2.779-52.034-2.779-52.034a626.725,626.725,0,0,0-7.944-62.361C2805.656,1193.443,2804.069,1195.031,2804.069,1195.031Z" transform="translate(-2740.922 -934.515)" fill="#dfdf00"/><g clip-path="url(#a)"><g transform="translate(-15.405 116.049)"><g opacity="0.65"><ellipse cx="23.514" cy="24.249" rx="23.514" ry="24.249" transform="translate(19.302 149.038)" fill="#86b54a"/><circle cx="24.249" cy="24.249" r="24.249" transform="translate(91.314 149.038)" fill="#86b54a"/><ellipse cx="30.128" cy="22.045" rx="30.128" ry="22.045" transform="translate(48.694 65.268)" fill="#86b54a"/><ellipse cx="18.37" cy="18.848" rx="18.37" ry="18.848" transform="translate(124.24)" fill="#86b54a"/><ellipse cx="17.636" cy="18.848" rx="17.636" ry="18.848" transform="translate(0 0.357)" fill="#86b54a"/></g></g></g><g transform="translate(240.566 0.152)"><path d="M3029.146,1171.677c-1.587-14.291.793-39.7.793-39.7-1.19-31.762-5.942-75.519-5.942-75.519-3.174-17.865-19.851-23.423-19.851-23.423-19.852-7.936-17.469-9.132-17.469-9.132-3.574-5.955-4.368-15.484-4.368-15.484,3.178-3.574,9.133-12.7,9.133-12.7,3.155,2.423,5.175-4.715,5.175-4.715,3.571-6.352,2.792-9.933,2.792-9.933-.794-1.987-3.2-1.233-3.2-1.233,2.381-29.778-9.926-38.91-9.926-38.91-13.9-9.926-27-5.161-27-5.161-21.439,7.145-19.455,29.381-19.455,29.381-.4,2.381.794,12.7.794,12.7-4.694.116-2.833,4.3-2.833,4.3,1.193,5.558,2.646,7.3,2.646,7.3.294,1.188.917,2.926,1.24,3.88a4.5,4.5,0,0,0,3.8,3.248,1.664,1.664,0,0,0,.711-.068,35.305,35.305,0,0,0,7.54,12.3,35.9,35.9,0,0,1-4.761,14.157c-3.968,5.955-15.885,8.871-15.885,8.871-19.059,11.116-22.633,35.333-22.633,35.333-5.955,25.41-5.184,38.415-5.184,38.415-1.984,9.926,1.193,53.6,1.193,53.6a128.449,128.449,0,0,1-.8,27.791c-.038.339-.025.63-.047.952.72,3.344,1.533,6.66,2.547,9.929,5.116,7.379,9.81,7.782,9.81,7.782,7.145,1.19,3.175-1.987,3.175-1.987-9.926-5.558-6.749-11.116-6.749-11.116.4-5.558,1.984-7.542,1.984-7.542,1.193,6.352,2.384,11.513,2.384,11.513a1.91,1.91,0,0,0,3.574.4,110.992,110.992,0,0,0,.794-17.071c0-5.558-3.574-11.513-3.574-11.513-3.574-8.339,2.781-24.617,2.781-24.617,1.984-17.868,2.38-31.365,2.38-31.365.794-5.955,5.184-39.208,5.184-39.208,7.145,17.468,5.558,48.04,5.558,48.04a249.8,249.8,0,0,1-2.619,27.061q-.911,4.894-1.655,9.491c-.422,2.135-.825,3.993-1.176,5.52.1.007.2.032.3.042-2.887,19.345-3.6,32.957-3.6,32.957-1.58,28.11-2.2,53.376-2.2,53.376a250.975,250.975,0,0,1,.316,31.585c4.421,58.746,7.581,77.7,7.581,77.7,1.264,10.737.63,12,.63,12-2.855-1.617-3.156,1.262-3.156,1.262-2.76-1.617-2.129.992-3.16.949-2.2-.1-1.894,2.2-1.894,2.2,0,3.16,4.106,6.95,4.106,6.95,1.715,3.43,3.2,7.093,4.115,9.458a7.911,7.911,0,0,0,3.908,4.24,16.713,16.713,0,0,0,7.773,2.094c6.633-1.262,6-5.053,6-5.053,2.2-6.632,1.264-9.791,1.264-9.791a60.077,60.077,0,0,1-2.844-20.529,478.347,478.347,0,0,1,6-55.273c2.844-24.636,3.159-50.849,3.159-50.849,2.844-37.27,7.248-54.643,7.248-54.643a17.742,17.742,0,0,0,2.844-4.737,11.959,11.959,0,0,0,2.527,5.052c0,24,7.248,51.166,7.248,51.166,2.844,15.477,1.58,40.43,1.58,40.43,1.58,21.793,8.524,58.749,8.524,58.749.947,10.106,1.264,19.58,1.264,19.58.63,11.372-.949,13.582-.949,13.582.949,7.9,3.791,9.161,3.791,9.161,6.95,1.264,8.845-.634,8.845-.634a9.964,9.964,0,0,0,4.42-5.683,51.086,51.086,0,0,1,5.895-11.945,22.677,22.677,0,0,0,3.451-4.556c2.883-3.781-1.8-3.152-1.8-3.152-.272-3.242-3.784-1.892-3.784-1.892a2.547,2.547,0,0,0-4.052-.453c-.949-17.048,2.817-50.651,2.817-50.651,4.106-32.849,2.526-50.849,2.526-50.849,1.58-16.107,2.526-35.06,2.526-35.06a175.612,175.612,0,0,0-2.511-32.216c.694-9.3-.5-20.66-2.057-30.486.206-.05.412-.1.62-.135-1.125-9-2.366-15.059-2.366-15.059-2.384-8.736-5.558-28.587-5.558-28.587-3.178-21.836,1.19-35.336,1.19-35.336,1.19-9.923,3.968-14.291,3.968-14.291,1.588,18.665,3.162,28.667,3.162,28.667,3.574,11.116,3.177,25.41,3.177,25.41a137.4,137.4,0,0,0,4.765,32.555c2.381,7.148-1.984,9.926-1.984,9.926-2.781,7.148-1.987,16.278-1.987,16.278a69.847,69.847,0,0,0,1.19,9.529c2.384,1.987,3.574-2.381,3.574-2.381.4-2.384,1.191-10.323,1.191-10.323,5.558,6.352,1.59,11.513,1.59,11.513-2.781,3.968-5.558,7.145-5.558,7.145-1.194,2.384,2.777,2.781,2.777,2.781a17.286,17.286,0,0,0,9.827-7.8l.051-.116c.927-2.983,1.679-6.015,2.351-9.066C3030.325,1181.1,3029.146,1171.677,3029.146,1171.677Z" transform="translate(-2904.612 -934.618)" fill="#dfdf00"/><ellipse cx="15.431" cy="16.166" rx="15.431" ry="16.166" transform="translate(29.335 231.132)" fill="#86b54a" opacity="0.65"/><circle cx="16.166" cy="16.166" r="16.166" transform="translate(69.016 231.132)" fill="#86b54a" opacity="0.65"/></g><g transform="translate(240.566 0.152)"><g clip-path="url(#b)"><g transform="translate(-15.437 104.553)" opacity="0.65"><ellipse cx="15.631" cy="19.708" rx="15.631" ry="19.708" transform="translate(119.055 6.209) rotate(-7)" fill="#86b54a"/><ellipse cx="19.708" cy="15.631" rx="19.708" ry="15.631" transform="translate(0 37.039) rotate(-70)" fill="#86b54a"/></g></g></g></g><g transform="translate(772 3241.781)"><text transform="translate(0 557.765)" fill="#343434" font-size="14" font-family="SegoeUI-Bold, Segoe UI" letter-spacing="0.01em" font-weight="700"><tspan x="147.474" y="15">Recommended injection sites</tspan><tspan font-family="SegoeUI, Segoe UI" font-weight="400"><tspan x="11.502" y="33">Speak with your nurse, doctor, and/or pharmacist for more information on </tspan><tspan x="163.474" y="51">where to inject STRENSIQ.</tspan></tspan></text><text transform="translate(92.529 23)" fill="#343434" font-size="23" font-family="SegoeUI, Segoe UI" letter-spacing="0.01em"><tspan x="0" y="0">Front</tspan></text><text transform="translate(360.192 22)" fill="#343434" font-size="22" font-family="SegoeUI, Segoe UI" letter-spacing="0.01em"><tspan x="-22.781" y="0">Back</tspan></text></g></g></svg>