<?xml version="1.0" encoding="UTF-8" standalone="no"?>
<svg
   width="294.59601"
   height="499.28601"
   viewBox="0 0 294.59602 499.28601"
   version="1.1"
   id="svg58"
   sodipodi:docname="injection-sites-mobile.svg"
   inkscape:version="1.1.2 (0a00cf5339, 2022-02-04)"
   xmlns:inkscape="http://www.inkscape.org/namespaces/inkscape"
   xmlns:sodipodi="http://sodipodi.sourceforge.net/DTD/sodipodi-0.dtd"
   xmlns="http://www.w3.org/2000/svg"
   xmlns:svg="http://www.w3.org/2000/svg">
  <sodipodi:namedview
     id="namedview60"
     pagecolor="#ffffff"
     bordercolor="#666666"
     borderopacity="1.0"
     inkscape:pageshadow="2"
     inkscape:pageopacity="0.0"
     inkscape:pagecheckerboard="0"
     showgrid="false"
     inkscape:zoom="0.98512912"
     inkscape:cx="117.75106"
     inkscape:cy="234.99458"
     inkscape:window-width="1920"
     inkscape:window-height="1016"
     inkscape:window-x="0"
     inkscape:window-y="27"
     inkscape:window-maximized="1"
     inkscape:current-layer="g281" />
  <defs
     id="defs8">
    <clipPath
       id="a">
      <path
         d="m 2804.069,1195.031 c -4.767,32.57 -6.75,67.129 -6.75,67.129 -1.194,14.7 -0.8,30.983 -0.8,30.983 a 183.1,183.1 0 0 1 -6.354,40.914 99.044,99.044 0 0 0 -1.191,34.159 c 0,3.968 -5.561,9.534 -5.561,9.534 a 22.708,22.708 0 0 0 -3.969,11.916 17.479,17.479 0 0 1 -3.967,7.945 c -8.737,1.192 -13.106,-0.4 -13.106,-0.4 -1.987,-0.794 -5.958,-2.782 -5.958,-2.782 -3.576,-0.794 -3.576,-3.176 -3.576,-3.176 l 3.968,-4.768 c 1.986,-3.576 6.355,-11.122 6.355,-11.122 9.533,-12.712 9.137,-17.875 9.137,-17.875 0.4,-7.148 -2.385,-23.037 -2.385,-23.037 -2.382,-37.734 -3.176,-64.746 -3.176,-64.746 -0.793,-11.916 -3.576,-33.361 -3.576,-33.361 -1.588,-21.053 -0.4,-50.447 -0.4,-50.447 a 240.284,240.284 0 0 1 3.968,-33.762 c 2.382,-8.74 5.561,-28.6 5.561,-28.6 3.176,-21.846 -1.19,-35.352 -1.19,-35.352 -1.193,-9.93 -3.968,-14.3 -3.968,-14.3 -1.59,18.664 -5.164,29.393 -5.164,29.393 -3.576,11.122 -3.179,25.425 -3.179,25.425 a 137.415,137.415 0 0 1 -4.766,32.57 c -2.382,7.151 1.987,9.93 1.987,9.93 2.779,7.151 1.986,16.288 1.986,16.288 a 70.028,70.028 0 0 1 -1.19,9.531 c -2.385,1.987 -3.576,-2.382 -3.576,-2.382 -0.4,-2.385 -1.19,-10.327 -1.19,-10.327 -5.561,6.355 -1.589,11.519 -1.589,11.519 2.779,3.968 5.562,7.151 5.562,7.151 1.19,2.382 -2.782,2.779 -2.782,2.779 -10.327,-3.179 -12.312,-13.9 -12.312,-13.9 0,-6.752 1.588,-19.461 1.588,-19.461 1.588,-14.3 -0.794,-39.721 -0.794,-39.721 1.191,-31.776 7.937,-76.265 7.937,-76.265 3.178,-17.874 19.86,-23.435 19.86,-23.435 19.861,-7.945 17.479,-9.137 17.479,-9.137 3.573,-5.958 4.368,-15.491 4.368,-15.491 -3.176,-3.576 -9.133,-12.709 -9.133,-12.709 -3.767,4.246 -5.958,-4.369 -5.958,-4.369 -3.575,-6.354 -2.782,-9.931 -2.782,-9.931 0.793,-1.987 3.968,-1.588 3.968,-1.588 -2.386,-29.791 9.93,-38.928 9.93,-38.928 13.9,-9.93 27.009,-5.164 27.009,-5.164 21.449,7.148 19.464,29.393 19.464,29.393 0.4,2.382 -0.8,12.709 -0.8,12.709 5.774,0.085 4.013,4.493 4.013,4.493 a 18.052,18.052 0 0 1 -3.216,7.823 c -0.294,1.189 -0.651,2.322 -0.974,3.274 a 4.63,4.63 0 0 1 -4.669,3.148 c -0.433,-0.028 -0.714,-0.067 -0.714,-0.067 a 35.247,35.247 0 0 1 -7.545,12.313 28.958,28.958 0 0 0 6.354,14.3 c 3.968,5.958 14.3,8.74 14.3,8.74 19.067,11.121 22.64,35.349 22.64,35.349 5.958,25.425 7.151,37.339 7.151,37.339 1.985,9.928 -1.193,53.623 -1.193,53.623 a 128.557,128.557 0 0 0 0.8,27.8 c 0.793,7.151 -2.386,10.728 -2.386,10.728 -5.165,7.548 -9.93,7.945 -9.93,7.945 -7.148,1.192 -3.176,-1.987 -3.176,-1.987 9.93,-5.561 6.751,-11.122 6.751,-11.122 -0.4,-5.561 -1.985,-7.547 -1.985,-7.547 -1.193,6.354 -2.385,11.519 -2.385,11.519 a 1.91,1.91 0 0 1 -3.576,0.4 111.211,111.211 0 0 1 -0.793,-17.079 c 0,-5.561 3.576,-11.519 3.576,-11.519 3.576,-8.343 -2.783,-24.628 -2.783,-24.628 -1.985,-17.877 -2.382,-31.38 -2.382,-31.38 -0.793,-5.958 -7.148,-38.131 -7.148,-38.131 -7.151,17.477 -5.563,48.057 -5.563,48.057 1.194,28.2 6.761,47.269 6.761,47.269 4.369,10.728 3.573,57.993 3.573,57.993 0,8.342 -2.779,28.6 -2.779,28.6 -1.588,6.752 -1.588,24.227 -1.588,24.227 0.4,31.381 -5.562,67.526 -5.562,67.526 -1.987,9.535 5.958,22.642 5.958,22.642 4.369,10.73 7.936,13.5 7.936,13.5 8.74,7.945 3.968,10.327 3.968,10.327 -1.588,2.385 -6.751,1.192 -6.751,1.192 a 10.6,10.6 0 0 1 -6.761,0 c -9.531,3.177 -9.93,-1.985 -9.93,-1.985 a 8.638,8.638 0 0 1 -2.382,-7.945 c -0.793,-5.563 -7.545,-13.9 -7.545,-13.9 -1.194,-3.576 0,-11.519 0,-11.519 0.793,-14.7 -6.76,-49.255 -6.76,-49.255 0,-26.217 -2.779,-52.034 -2.779,-52.034 a 626.725,626.725 0 0 0 -7.944,-62.361 c 0.02,-1.988 -1.567,-0.4 -1.567,-0.4 z"
         transform="translate(-2740.922,-934.515)"
         fill="none"
         id="path2" />
    </clipPath>
    <clipPath
       id="b">
      <path
         d="m 3029.146,1171.677 c -1.587,-14.291 0.793,-39.7 0.793,-39.7 -1.19,-31.762 -5.942,-75.519 -5.942,-75.519 -3.174,-17.865 -19.851,-23.423 -19.851,-23.423 -19.852,-7.936 -17.469,-9.132 -17.469,-9.132 -3.574,-5.955 -4.368,-15.484 -4.368,-15.484 3.178,-3.574 9.133,-12.7 9.133,-12.7 3.155,2.423 5.175,-4.715 5.175,-4.715 3.571,-6.352 2.792,-9.933 2.792,-9.933 -0.794,-1.987 -3.2,-1.233 -3.2,-1.233 2.381,-29.778 -9.926,-38.91 -9.926,-38.91 -13.9,-9.926 -27,-5.161 -27,-5.161 -21.439,7.145 -19.455,29.381 -19.455,29.381 -0.4,2.381 0.794,12.7 0.794,12.7 -4.694,0.116 -2.833,4.3 -2.833,4.3 1.193,5.558 2.646,7.3 2.646,7.3 0.294,1.188 0.917,2.926 1.24,3.88 a 4.5,4.5 0 0 0 3.8,3.248 1.664,1.664 0 0 0 0.711,-0.068 35.305,35.305 0 0 0 7.54,12.3 35.9,35.9 0 0 1 -4.761,14.157 c -3.968,5.955 -15.885,8.871 -15.885,8.871 -19.059,11.116 -22.633,35.333 -22.633,35.333 -5.955,25.41 -5.184,38.415 -5.184,38.415 -1.984,9.926 1.193,53.6 1.193,53.6 a 128.449,128.449 0 0 1 -0.8,27.791 c -0.038,0.339 -0.025,0.63 -0.047,0.952 0.72,3.344 1.533,6.66 2.547,9.929 5.116,7.379 9.81,7.782 9.81,7.782 7.145,1.19 3.175,-1.987 3.175,-1.987 -9.926,-5.558 -6.749,-11.116 -6.749,-11.116 0.4,-5.558 1.984,-7.542 1.984,-7.542 1.193,6.352 2.384,11.513 2.384,11.513 a 1.91,1.91 0 0 0 3.574,0.4 110.992,110.992 0 0 0 0.794,-17.071 c 0,-5.558 -3.574,-11.513 -3.574,-11.513 -3.574,-8.339 2.781,-24.617 2.781,-24.617 1.984,-17.868 2.38,-31.365 2.38,-31.365 0.794,-5.955 5.184,-39.208 5.184,-39.208 7.145,17.468 5.558,48.04 5.558,48.04 a 249.8,249.8 0 0 1 -2.619,27.061 q -0.911,4.894 -1.655,9.491 c -0.422,2.135 -0.825,3.993 -1.176,5.52 0.1,0.01 0.2,0.032 0.3,0.042 -2.887,19.345 -3.6,32.957 -3.6,32.957 -1.58,28.11 -2.2,53.376 -2.2,53.376 a 250.975,250.975 0 0 1 0.316,31.585 c 4.421,58.746 7.581,77.7 7.581,77.7 1.264,10.737 0.63,12 0.63,12 -2.855,-1.617 -3.156,1.262 -3.156,1.262 -2.76,-1.617 -2.129,0.992 -3.16,0.949 -2.2,-0.1 -1.894,2.2 -1.894,2.2 0,3.16 4.106,6.95 4.106,6.95 1.715,3.43 3.2,7.093 4.115,9.458 a 7.911,7.911 0 0 0 3.908,4.24 16.713,16.713 0 0 0 7.773,2.094 c 6.633,-1.262 6,-5.053 6,-5.053 2.2,-6.632 1.264,-9.791 1.264,-9.791 a 60.077,60.077 0 0 1 -2.844,-20.529 478.347,478.347 0 0 1 6,-55.273 c 2.844,-24.636 3.159,-50.849 3.159,-50.849 2.844,-37.27 7.248,-54.643 7.248,-54.643 a 17.742,17.742 0 0 0 2.844,-4.737 11.959,11.959 0 0 0 2.527,5.052 c 0,24 7.248,51.166 7.248,51.166 2.844,15.477 1.58,40.43 1.58,40.43 1.58,21.793 8.524,58.749 8.524,58.749 0.947,10.106 1.264,19.58 1.264,19.58 0.63,11.372 -0.949,13.582 -0.949,13.582 0.949,7.9 3.791,9.161 3.791,9.161 6.95,1.264 8.845,-0.634 8.845,-0.634 a 9.964,9.964 0 0 0 4.42,-5.683 51.086,51.086 0 0 1 5.895,-11.945 22.677,22.677 0 0 0 3.451,-4.556 c 2.883,-3.781 -1.8,-3.152 -1.8,-3.152 -0.272,-3.242 -3.784,-1.892 -3.784,-1.892 a 2.547,2.547 0 0 0 -4.052,-0.453 c -0.949,-17.048 2.817,-50.651 2.817,-50.651 4.106,-32.849 2.526,-50.849 2.526,-50.849 1.58,-16.107 2.526,-35.06 2.526,-35.06 a 175.612,175.612 0 0 0 -2.511,-32.216 c 0.694,-9.3 -0.5,-20.66 -2.057,-30.486 0.206,-0.05 0.412,-0.1 0.62,-0.135 -1.125,-9 -2.366,-15.059 -2.366,-15.059 -2.384,-8.736 -5.558,-28.587 -5.558,-28.587 -3.178,-21.836 1.19,-35.336 1.19,-35.336 1.19,-9.923 3.968,-14.291 3.968,-14.291 1.588,18.665 3.162,28.667 3.162,28.667 3.574,11.116 3.177,25.41 3.177,25.41 a 137.4,137.4 0 0 0 4.765,32.555 c 2.381,7.148 -1.984,9.926 -1.984,9.926 -2.781,7.148 -1.987,16.278 -1.987,16.278 a 69.847,69.847 0 0 0 1.19,9.529 c 2.384,1.987 3.574,-2.381 3.574,-2.381 0.4,-2.384 1.191,-10.323 1.191,-10.323 5.558,6.352 1.59,11.513 1.59,11.513 -2.781,3.968 -5.558,7.145 -5.558,7.145 -1.194,2.384 2.777,2.781 2.777,2.781 a 17.286,17.286 0 0 0 9.827,-7.8 l 0.051,-0.116 c 0.927,-2.983 1.679,-6.015 2.351,-9.066 -0.313,-6.935 -1.492,-16.358 -1.492,-16.358 z"
         transform="translate(-2904.612,-934.618)"
         fill="none"
         id="path5" />
    </clipPath>
  </defs>
  <g
     transform="translate(-830.754,-3246.973)"
     id="g56">
    <g
       transform="translate(772,3241.781)"
       id="g54">
      <g
         id="g281">
        <g
           transform="translate(58.758,40.887)"
           id="g46" />
        <g
           id="g1086">
          <path
             d="m 2804.069,1195.031 c -4.767,32.57 -6.75,67.129 -6.75,67.129 -1.194,14.7 -0.8,30.983 -0.8,30.983 a 183.1,183.1 0 0 1 -6.354,40.914 99.044,99.044 0 0 0 -1.191,34.159 c 0,3.968 -5.561,9.534 -5.561,9.534 a 22.708,22.708 0 0 0 -3.969,11.916 17.479,17.479 0 0 1 -3.967,7.945 c -8.737,1.192 -13.106,-0.4 -13.106,-0.4 -1.987,-0.794 -5.958,-2.782 -5.958,-2.782 -3.576,-0.794 -3.576,-3.176 -3.576,-3.176 l 3.968,-4.768 c 1.986,-3.576 6.355,-11.122 6.355,-11.122 9.533,-12.712 9.137,-17.875 9.137,-17.875 0.4,-7.148 -2.385,-23.037 -2.385,-23.037 -2.382,-37.734 -3.176,-64.746 -3.176,-64.746 -0.793,-11.916 -3.576,-33.361 -3.576,-33.361 -1.588,-21.053 -0.4,-50.447 -0.4,-50.447 a 240.284,240.284 0 0 1 3.968,-33.762 c 2.382,-8.74 5.561,-28.6 5.561,-28.6 3.176,-21.846 -1.19,-35.352 -1.19,-35.352 -1.193,-9.93 -3.968,-14.3 -3.968,-14.3 -1.59,18.664 -5.164,29.393 -5.164,29.393 -3.576,11.122 -3.179,25.425 -3.179,25.425 a 137.415,137.415 0 0 1 -4.766,32.57 c -2.382,7.151 1.987,9.93 1.987,9.93 2.779,7.151 1.986,16.288 1.986,16.288 a 70.028,70.028 0 0 1 -1.19,9.531 c -2.385,1.987 -3.576,-2.382 -3.576,-2.382 -0.4,-2.385 -1.19,-10.327 -1.19,-10.327 -5.561,6.355 -1.589,11.519 -1.589,11.519 2.779,3.968 5.562,7.151 5.562,7.151 1.19,2.382 -2.782,2.779 -2.782,2.779 -10.327,-3.179 -12.312,-13.9 -12.312,-13.9 0,-6.752 1.588,-19.461 1.588,-19.461 1.588,-14.3 -0.794,-39.721 -0.794,-39.721 1.191,-31.776 7.937,-76.265 7.937,-76.265 3.178,-17.874 19.86,-23.435 19.86,-23.435 19.861,-7.945 17.479,-9.137 17.479,-9.137 3.573,-5.958 4.368,-15.491 4.368,-15.491 -3.176,-3.576 -9.133,-12.709 -9.133,-12.709 -3.767,4.246 -5.958,-4.369 -5.958,-4.369 -3.575,-6.354 -2.782,-9.931 -2.782,-9.931 0.793,-1.987 3.968,-1.588 3.968,-1.588 -2.386,-29.791 9.93,-38.928 9.93,-38.928 13.9,-9.93 27.009,-5.164 27.009,-5.164 21.449,7.148 19.464,29.393 19.464,29.393 0.4,2.382 -0.8,12.709 -0.8,12.709 5.774,0.085 4.013,4.493 4.013,4.493 a 18.052,18.052 0 0 1 -3.216,7.823 c -0.294,1.189 -0.651,2.322 -0.974,3.274 a 4.63,4.63 0 0 1 -4.669,3.148 c -0.433,-0.028 -0.714,-0.067 -0.714,-0.067 a 35.247,35.247 0 0 1 -7.545,12.313 28.958,28.958 0 0 0 6.354,14.3 c 3.968,5.958 14.3,8.74 14.3,8.74 19.067,11.121 22.64,35.349 22.64,35.349 5.958,25.425 7.151,37.339 7.151,37.339 1.985,9.928 -1.193,53.623 -1.193,53.623 a 128.557,128.557 0 0 0 0.8,27.8 c 0.793,7.151 -2.386,10.728 -2.386,10.728 -5.165,7.548 -9.93,7.945 -9.93,7.945 -7.148,1.192 -3.176,-1.987 -3.176,-1.987 9.93,-5.561 6.751,-11.122 6.751,-11.122 -0.4,-5.561 -1.985,-7.547 -1.985,-7.547 -1.193,6.354 -2.385,11.519 -2.385,11.519 a 1.91,1.91 0 0 1 -3.576,0.4 111.211,111.211 0 0 1 -0.793,-17.079 c 0,-5.561 3.576,-11.519 3.576,-11.519 3.576,-8.343 -2.783,-24.628 -2.783,-24.628 -1.985,-17.877 -2.382,-31.38 -2.382,-31.38 -0.793,-5.958 -7.148,-38.131 -7.148,-38.131 -7.151,17.477 -5.563,48.057 -5.563,48.057 1.194,28.2 6.761,47.269 6.761,47.269 4.369,10.728 3.573,57.993 3.573,57.993 0,8.342 -2.779,28.6 -2.779,28.6 -1.588,6.752 -1.588,24.227 -1.588,24.227 0.4,31.381 -5.562,67.526 -5.562,67.526 -1.987,9.535 5.958,22.642 5.958,22.642 4.369,10.73 7.936,13.5 7.936,13.5 8.74,7.945 3.968,10.327 3.968,10.327 -1.588,2.385 -6.751,1.192 -6.751,1.192 a 10.6,10.6 0 0 1 -6.761,0 c -9.531,3.177 -9.93,-1.985 -9.93,-1.985 a 8.638,8.638 0 0 1 -2.382,-7.945 c -0.793,-5.563 -7.545,-13.9 -7.545,-13.9 -1.194,-3.576 0,-11.519 0,-11.519 0.793,-14.7 -6.76,-49.255 -6.76,-49.255 0,-26.217 -2.779,-52.034 -2.779,-52.034 a 626.725,626.725 0 0 0 -7.944,-62.361 c 0.02,-1.988 -1.567,-0.4 -1.567,-0.4 z"
             transform="translate(-2682.164,-893.628)"
             fill="#dfdf00"
             id="path10" />
          <g
             clip-path="url(#a)"
             id="g26"
             transform="translate(58.758,40.887)">
            <g
               transform="translate(-15.405,116.049)"
               id="g24">
              <g
                 opacity="0.65"
                 id="g22">
                <ellipse
                   cx="23.514"
                   cy="24.249001"
                   rx="23.514"
                   ry="24.249001"
                   transform="translate(19.302,149.038)"
                   fill="#86b54a"
                   id="ellipse12" />
                <circle
                   cx="24.249001"
                   cy="24.249001"
                   r="24.249001"
                   transform="translate(91.314,149.038)"
                   fill="#86b54a"
                   id="circle14" />
                <ellipse
                   cx="30.128"
                   cy="22.045"
                   rx="30.128"
                   ry="22.045"
                   transform="translate(48.694,65.268)"
                   fill="#86b54a"
                   id="ellipse16" />
                <ellipse
                   cx="18.370001"
                   cy="18.848"
                   rx="18.370001"
                   ry="18.848"
                   transform="translate(124.24)"
                   fill="#86b54a"
                   id="ellipse18" />
                <ellipse
                   cx="17.636"
                   cy="18.848"
                   rx="17.636"
                   ry="18.848"
                   transform="translate(0,0.357)"
                   fill="#86b54a"
                   id="ellipse20" />
              </g>
            </g>
          </g>
          <path
             d="m 1.863,0 h 2.185 v -7.383 h 6.739 V -9.292 H 4.048 v -5.382 h 7.659 v -1.978 H 1.863 Z M 14.1,0 h 2.07 v -7.36 a 3.7,3.7 0 0 1 3.335,-2 3.328,3.328 0 0 1 0.805,0.092 v -2.047 a 2.8,2.8 0 0 0 -0.736,-0.092 4.124,4.124 0 0 0 -3.358,1.771 L 16.17,-9.659 v -1.656 H 14.1 Z m 7.613,-5.658 a 5.825,5.825 0 0 0 5.979,5.911 5.825,5.825 0 0 0 5.98,-5.911 5.825,5.825 0 0 0 -5.98,-5.911 5.825,5.825 0 0 0 -5.98,5.911 z m 2.07,0 a 3.877,3.877 0 0 1 3.91,-4.025 3.877,3.877 0 0 1 3.907,4.025 3.877,3.877 0 0 1 -3.91,4.025 3.877,3.877 0 0 1 -3.908,-4.025 z M 36.754,0 h 2.07 v -7.751 a 4.765,4.765 0 0 1 3.542,-1.886 2.346,2.346 0 0 1 1.817,0.736 3.508,3.508 0 0 1 0.529,2.3 V 0 h 2.07 v -6.992 a 4.584,4.584 0 0 0 -0.943,-3.335 3.914,3.914 0 0 0 -3.013,-1.242 5.611,5.611 0 0 0 -3.956,1.7 l -0.046,-0.023 v -1.426 h -2.07 z m 15.571,-0.805 a 3.287,3.287 0 0 0 2.575,1.058 5.034,5.034 0 0 0 2.047,-0.414 v -1.955 a 3.426,3.426 0 0 1 -1.7,0.483 c -1.5,0 -1.7,-1.288 -1.7,-2.691 v -5.129 h 3.4 v -1.863 h -3.4 v -3.427 l -2.07,0.345 v 3.082 h -2.096 v 1.863 h 2.093 v 5.52 a 4.465,4.465 0 0 0 0.851,3.128 z"
             transform="translate(92.529,23)"
             fill="#343434"
             id="path50" />
        </g>
        <g
           id="g966"
           transform="translate(-72)">
          <g
             transform="translate(299.324,41.039)"
             id="g34">
            <path
               d="m 3029.146,1171.677 c -1.587,-14.291 0.793,-39.7 0.793,-39.7 -1.19,-31.762 -5.942,-75.519 -5.942,-75.519 -3.174,-17.865 -19.851,-23.423 -19.851,-23.423 -19.852,-7.936 -17.469,-9.132 -17.469,-9.132 -3.574,-5.955 -4.368,-15.484 -4.368,-15.484 3.178,-3.574 9.133,-12.7 9.133,-12.7 3.155,2.423 5.175,-4.715 5.175,-4.715 3.571,-6.352 2.792,-9.933 2.792,-9.933 -0.794,-1.987 -3.2,-1.233 -3.2,-1.233 2.381,-29.778 -9.926,-38.91 -9.926,-38.91 -13.9,-9.926 -27,-5.161 -27,-5.161 -21.439,7.145 -19.455,29.381 -19.455,29.381 -0.4,2.381 0.794,12.7 0.794,12.7 -4.694,0.116 -2.833,4.3 -2.833,4.3 1.193,5.558 2.646,7.3 2.646,7.3 0.294,1.188 0.917,2.926 1.24,3.88 a 4.5,4.5 0 0 0 3.8,3.248 1.664,1.664 0 0 0 0.711,-0.068 35.305,35.305 0 0 0 7.54,12.3 35.9,35.9 0 0 1 -4.761,14.157 c -3.968,5.955 -15.885,8.871 -15.885,8.871 -19.059,11.116 -22.633,35.333 -22.633,35.333 -5.955,25.41 -5.184,38.415 -5.184,38.415 -1.984,9.926 1.193,53.6 1.193,53.6 a 128.449,128.449 0 0 1 -0.8,27.791 c -0.038,0.339 -0.025,0.63 -0.047,0.952 0.72,3.344 1.533,6.66 2.547,9.929 5.116,7.379 9.81,7.782 9.81,7.782 7.145,1.19 3.175,-1.987 3.175,-1.987 -9.926,-5.558 -6.749,-11.116 -6.749,-11.116 0.4,-5.558 1.984,-7.542 1.984,-7.542 1.193,6.352 2.384,11.513 2.384,11.513 a 1.91,1.91 0 0 0 3.574,0.4 110.992,110.992 0 0 0 0.794,-17.071 c 0,-5.558 -3.574,-11.513 -3.574,-11.513 -3.574,-8.339 2.781,-24.617 2.781,-24.617 1.984,-17.868 2.38,-31.365 2.38,-31.365 0.794,-5.955 5.184,-39.208 5.184,-39.208 7.145,17.468 5.558,48.04 5.558,48.04 a 249.8,249.8 0 0 1 -2.619,27.061 q -0.911,4.894 -1.655,9.491 c -0.422,2.135 -0.825,3.993 -1.176,5.52 0.1,0.01 0.2,0.032 0.3,0.042 -2.887,19.345 -3.6,32.957 -3.6,32.957 -1.58,28.11 -2.2,53.376 -2.2,53.376 a 250.975,250.975 0 0 1 0.316,31.585 c 4.421,58.746 7.581,77.7 7.581,77.7 1.264,10.737 0.63,12 0.63,12 -2.855,-1.617 -3.156,1.262 -3.156,1.262 -2.76,-1.617 -2.129,0.992 -3.16,0.949 -2.2,-0.1 -1.894,2.2 -1.894,2.2 0,3.16 4.106,6.95 4.106,6.95 1.715,3.43 3.2,7.093 4.115,9.458 a 7.911,7.911 0 0 0 3.908,4.24 16.713,16.713 0 0 0 7.773,2.094 c 6.633,-1.262 6,-5.053 6,-5.053 2.2,-6.632 1.264,-9.791 1.264,-9.791 a 60.077,60.077 0 0 1 -2.844,-20.529 478.347,478.347 0 0 1 6,-55.273 c 2.844,-24.636 3.159,-50.849 3.159,-50.849 2.844,-37.27 7.248,-54.643 7.248,-54.643 a 17.742,17.742 0 0 0 2.844,-4.737 11.959,11.959 0 0 0 2.527,5.052 c 0,24 7.248,51.166 7.248,51.166 2.844,15.477 1.58,40.43 1.58,40.43 1.58,21.793 8.524,58.749 8.524,58.749 0.947,10.106 1.264,19.58 1.264,19.58 0.63,11.372 -0.949,13.582 -0.949,13.582 0.949,7.9 3.791,9.161 3.791,9.161 6.95,1.264 8.845,-0.634 8.845,-0.634 a 9.964,9.964 0 0 0 4.42,-5.683 51.086,51.086 0 0 1 5.895,-11.945 22.677,22.677 0 0 0 3.451,-4.556 c 2.883,-3.781 -1.8,-3.152 -1.8,-3.152 -0.272,-3.242 -3.784,-1.892 -3.784,-1.892 a 2.547,2.547 0 0 0 -4.052,-0.453 c -0.949,-17.048 2.817,-50.651 2.817,-50.651 4.106,-32.849 2.526,-50.849 2.526,-50.849 1.58,-16.107 2.526,-35.06 2.526,-35.06 a 175.612,175.612 0 0 0 -2.511,-32.216 c 0.694,-9.3 -0.5,-20.66 -2.057,-30.486 0.206,-0.05 0.412,-0.1 0.62,-0.135 -1.125,-9 -2.366,-15.059 -2.366,-15.059 -2.384,-8.736 -5.558,-28.587 -5.558,-28.587 -3.178,-21.836 1.19,-35.336 1.19,-35.336 1.19,-9.923 3.968,-14.291 3.968,-14.291 1.588,18.665 3.162,28.667 3.162,28.667 3.574,11.116 3.177,25.41 3.177,25.41 a 137.4,137.4 0 0 0 4.765,32.555 c 2.381,7.148 -1.984,9.926 -1.984,9.926 -2.781,7.148 -1.987,16.278 -1.987,16.278 a 69.847,69.847 0 0 0 1.19,9.529 c 2.384,1.987 3.574,-2.381 3.574,-2.381 0.4,-2.384 1.191,-10.323 1.191,-10.323 5.558,6.352 1.59,11.513 1.59,11.513 -2.781,3.968 -5.558,7.145 -5.558,7.145 -1.194,2.384 2.777,2.781 2.777,2.781 a 17.286,17.286 0 0 0 9.827,-7.8 l 0.051,-0.116 c 0.927,-2.983 1.679,-6.015 2.351,-9.066 -0.313,-6.935 -1.492,-16.358 -1.492,-16.358 z"
               transform="translate(-2904.612,-934.618)"
               fill="#dfdf00"
               id="path28" />
            <ellipse
               cx="15.431"
               cy="16.166"
               rx="15.431"
               ry="16.166"
               transform="translate(29.335,231.132)"
               fill="#86b54a"
               opacity="0.65"
               id="ellipse30" />
            <circle
               cx="16.166"
               cy="16.166"
               r="16.166"
               transform="translate(69.016,231.132)"
               fill="#86b54a"
               opacity="0.65"
               id="circle32" />
          </g>
          <g
             transform="translate(299.324,41.039)"
             id="g44">
            <g
               clip-path="url(#b)"
               id="g42">
              <g
                 transform="translate(-15.437,104.553)"
                 opacity="0.65"
                 id="g40">
                <ellipse
                   cx="15.631"
                   cy="19.708"
                   rx="15.631"
                   ry="19.708"
                   transform="rotate(-7,110.28563,-970.16152)"
                   fill="#86b54a"
                   id="ellipse36" />
                <ellipse
                   cx="19.708"
                   cy="15.631"
                   rx="19.708"
                   ry="15.631"
                   transform="rotate(-70,26.448587,18.5195)"
                   fill="#86b54a"
                   id="ellipse38" />
              </g>
            </g>
          </g>
          <path
             d="m -22.792,0 h 4.224 c 2.31,0 3.85,-0.264 4.972,-1.056 a 4.346,4.346 0 0 0 1.826,-3.652 3.6,3.6 0 0 0 -3.058,-3.718 V -8.47 a 3.408,3.408 0 0 0 2.42,-3.366 3.62,3.62 0 0 0 -1.87,-3.256 7.715,7.715 0 0 0 -4.246,-0.836 h -4.268 z m 2.09,-8.976 v -5.06 h 1.892 a 6,6 0 0 1 3.19,0.55 2.218,2.218 0 0 1 1.12,2.024 c 0,1.738 -1.452,2.486 -3.058,2.486 z m 0,7.084 V -7.37 h 3.08 c 2.376,0 3.762,0.946 3.762,2.706 a 2.444,2.444 0 0 1 -1.034,2.09 c -0.726,0.506 -1.738,0.682 -3.542,0.682 z m 15.026,2.134 a 5.137,5.137 0 0 0 3.322,-1.188 H -2.31 A 2.3,2.3 0 0 0 -0.22,0.2 2.821,2.821 0 0 0 0.836,0 V -1.65 A 1.515,1.515 0 0 1 0.2,-1.5 c -0.6,0 -0.838,-0.48 -0.838,-1.14 v -4.6 a 3.647,3.647 0 0 0 -1.078,-2.838 4.706,4.706 0 0 0 -3.234,-0.99 6.813,6.813 0 0 0 -3.608,0.924 v 1.936 a 5.643,5.643 0 0 1 3.322,-1.076 2.937,2.937 0 0 1 2,0.594 2.339,2.339 0 0 1 0.616,1.782 v 0.9 a 9.485,9.485 0 0 0 -2.31,-0.286 5.651,5.651 0 0 0 -3.036,0.726 3.007,3.007 0 0 0 -1.43,2.64 2.883,2.883 0 0 0 1.146,2.4 4.32,4.32 0 0 0 2.574,0.77 z m 0.352,-1.76 c -1.166,0 -2.068,-0.528 -2.068,-1.584 0,-1.276 1.32,-1.672 2.662,-1.672 a 8.162,8.162 0 0 1 2.112,0.286 v 2.024 a 4.512,4.512 0 0 1 -2.706,0.946 z m 16.94,-1.1 A 5.04,5.04 0 0 1 8.492,-1.562 3.729,3.729 0 0 1 4.51,-5.346 3.79,3.79 0 0 1 8.426,-9.262 5.706,5.706 0 0 1 11.44,-8.338 v -2.046 a 6.525,6.525 0 0 0 -2.926,-0.682 5.723,5.723 0 0 0 -6.006,5.72 5.547,5.547 0 0 0 5.874,5.588 6.994,6.994 0 0 0 3.234,-0.748 z M 14.7,0 h 1.98 V -5.852 L 16.724,-5.874 22.022,0 h 2.6 l -5.482,-5.984 4.95,-4.84 H 21.56 L 16.72,-6.05 16.676,-6.072 V -16.808 H 14.7 Z"
             fill="#343434"
             id="path52"
             transform="translate(360.192,22)" />
        </g>
      </g>
    </g>
  </g>
</svg>
