<svg xmlns="http://www.w3.org/2000/svg" xmlns:xlink="http://www.w3.org/1999/xlink" width="184" height="184" viewBox="0 0 184 184"><defs><clipPath id="a"><rect width="132" height="132" transform="translate(1041 5172)" fill="none" stroke="#707070" stroke-width="1"/></clipPath><clipPath id="b"><circle cx="26.833" cy="26.833" r="26.833" fill="none"/></clipPath></defs><g transform="translate(-985 -5599.5)"><path d="M92,0A92,92,0,1,1,0,92,92,92,0,0,1,92,0Z" transform="translate(985 5599.5)" fill="#00a8e1"/><g transform="translate(-30 451.5)" clip-path="url(#a)"><g transform="translate(1062.12 5191.8)"><rect width="10.522" height="48.215" rx="3.958" transform="translate(31.339 52.899) rotate(40.54)" fill="#3e122d"/><rect width="10.522" height="12.174" rx="2.379" transform="matrix(0.76, 0.65, -0.65, 0.76, 31.339, 52.899)" fill="#300f25"/><circle cx="33.244" cy="33.244" r="33.244" transform="translate(20.352 0)" fill="#3e122d"/><circle cx="27.032" cy="27.032" r="27.032" transform="translate(26.563 6.212)" fill="#fff"/><circle cx="26.733" cy="26.733" r="26.733" transform="translate(26.863 6.511)" fill="#9298b1" opacity="0.3"/><g transform="translate(26.762 6.41)"><g clip-path="url(#b)"><path d="M99.487,27.072,27.524,41.691,25.332,35.68a2.348,2.348,0,0,0,.66,3.254L45.05,51.555,97.824,40.341Z" transform="translate(-38.659 -2.201)" fill="#fff"/><path d="M26.188,33.927,93.719,20.208l2.5-3.77a2.2,2.2,0,0,0-.62-3.054l-8.387.462-49.2,9.994Z" transform="translate(-38.26 -6.582)" fill="#fff"/></g></g></g></g></g></svg>