<svg xmlns="http://www.w3.org/2000/svg" xmlns:xlink="http://www.w3.org/1999/xlink" width="184" height="184" viewBox="0 0 184 184"><defs><clipPath id="a"><rect width="136" height="136" transform="translate(236 4722)" fill="none" stroke="#707070" stroke-width="1"/></clipPath></defs><g transform="translate(-189 -5599.5)"><path d="M92,0A92,92,0,1,1,0,92,92,92,0,0,1,92,0Z" transform="translate(189 5599.5)" fill="#00a8e1"/><g transform="translate(-23 901.5)" clip-path="url(#a)"><g transform="translate(252.36 4739.723)"><g transform="translate(0 0)"><path d="M80.1,57.64c0,17.768-15.914,32.172-35.543,32.172A38.154,38.154,0,0,1,25.678,84.9C15.668,79.214,9.012,69.129,9.012,57.64c0-17.768,15.914-32.171,35.545-32.171S80.1,39.872,80.1,57.64Z" transform="translate(-9.012 6.475)" fill="#69be28"/><path d="M16.217,77.392s3.956.92,14.875-5.606C32,69.934,21.03,60.682,20.6,66.658s-5.017,10.034-5.017,10.034A.507.507,0,0,0,16.217,77.392Z" transform="translate(-6.644 20.718)" fill="#69be28"/><path d="M38.83,29.63c0,15.237,13.92,27.591,31.091,27.591a34.5,34.5,0,0,0,14.411-3.136c.539-.243,1.332-.643,2.1-1.073,8.756-4.881,14.578-13.529,14.578-23.383,0-15.239-13.919-27.593-31.091-27.593S38.83,14.391,38.83,29.63Z" transform="translate(1.82 -2.037)" fill="#f8f8f8"/><path d="M79.173,47.336s-3.393.789-12.758-4.807c-.777-1.59,8.631-9.524,9-4.4a14.042,14.042,0,0,0,4.3,8.605A.434.434,0,0,1,79.173,47.336Z" transform="translate(11.825 10.457)" fill="#f8f8f8"/><text transform="translate(65.595 8.437)" fill="#00a8e1" font-size="24.654" font-family="SegoeUI, Segoe UI"><tspan x="0" y="27">?</tspan></text><text transform="translate(28.436 46.316)" fill="#fff" font-size="24.654" font-family="SegoeUI, Segoe UI"><tspan x="0" y="27">?</tspan></text></g></g></g></g></svg>