<svg xmlns="http://www.w3.org/2000/svg" width="85" height="85" viewBox="0 0 85 85"><g transform="translate(-239 -1182.683)"><path d="M.547,43.552A42.5,42.5,0,1,0,43.053,1.058h-.006A42.5,42.5,0,0,0,.547,43.552" transform="translate(238.453 1181.625)" fill="#f8f8f8" fill-rule="evenodd"/><g transform="translate(280.242 -2322.154)"><g transform="translate(-29.188 3522.603)"><path d="M21.868,3523.171l7.818,34.9a.726.726,0,0,1-.55.868l-49.62,11.115a.726.726,0,0,1-.868-.55l-7.818-34.9a.726.726,0,0,1,.55-.868L21,3522.621A.726.726,0,0,1,21.868,3523.171Z" transform="translate(33.188 -3519.604)" fill="#969696"/><path d="M21.868,3523.171l7.818,34.9a.726.726,0,0,1-.55.868l-49.62,11.115a.726.726,0,0,1-.868-.55l-7.818-34.9a.726.726,0,0,1,.55-.868L21,3522.621A.726.726,0,0,1,21.868,3523.171Z" transform="translate(29.188 -3522.603)" fill="#eaeaea"/></g><g transform="translate(-1.432 3528.201)"><path d="M423.2,3612.743l-18.6,4.166c-.079.018-.2-.209-.263-.507l-.383-1.708c-.067-.3-.057-.554.022-.571l18.6-4.166c.079-.018.2.209.263.507l.383,1.708C423.293,3612.469,423.283,3612.725,423.2,3612.743Z" transform="translate(-403.916 -3609.955)" fill="#969696"/></g><g transform="translate(-0.33 3533.123)"><path d="M440.408,3689.545l-18.6,4.166c-.079.018-.2-.209-.263-.507l-.383-1.708c-.067-.3-.057-.554.022-.571l18.6-4.166c.079-.018.2.21.263.507l.383,1.708C440.5,3689.271,440.487,3689.527,440.408,3689.545Z" transform="translate(-421.12 -3686.757)" fill="#969696"/></g><g transform="translate(0.773 3538.045)"><path d="M457.612,3766.347l-18.6,4.166c-.079.018-.2-.209-.263-.507l-.383-1.708c-.067-.3-.057-.554.022-.572l18.6-4.166c.079-.018.2.209.263.508l.383,1.708C457.7,3766.073,457.691,3766.329,457.612,3766.347Z" transform="translate(-438.324 -3763.559)" fill="#969696"/></g><g transform="translate(1.875 3542.967)"><path d="M474.817,3843.149l-18.6,4.166c-.079.018-.2-.21-.263-.508l-.383-1.708c-.067-.3-.057-.554.022-.572l18.6-4.166c.079-.018.2.209.263.508l.383,1.708C474.905,3842.875,474.9,3843.131,474.817,3843.149Z" transform="translate(-455.529 -3840.361)" fill="#969696"/></g><g transform="translate(2.978 3547.889)"><path d="M492.021,3919.951l-18.6,4.166c-.079.018-.2-.209-.263-.508l-.383-1.708c-.067-.3-.057-.554.022-.571l18.6-4.166c.079-.018.2.209.263.507l.383,1.708C492.11,3919.677,492.1,3919.933,492.021,3919.951Z" transform="translate(-472.733 -3917.163)" fill="#969696"/></g><g transform="translate(4.081 3552.811)"><path d="M509.225,3996.753l-18.6,4.166c-.079.018-.2-.21-.263-.507l-.383-1.708c-.067-.3-.057-.554.022-.571l18.6-4.166c.079-.018.2.209.263.507l.383,1.708C509.314,3996.479,509.3,3996.735,509.225,3996.753Z" transform="translate(-489.937 -3993.965)" fill="#969696"/></g><g transform="translate(-19.4 3540.489)"><path d="M124.736,3814.181a.538.538,0,0,1,.018-.761l2.31-2.2a.181.181,0,0,0-.074-.3l-3.06-.9a.538.538,0,0,1-.365-.668l.995-3.382a.539.539,0,0,1,.668-.365l3.06.9a.181.181,0,0,0,.227-.216l-.751-3.1a.539.539,0,0,1,.4-.65l3.426-.83a.538.538,0,0,1,.65.4l.751,3.1a.181.181,0,0,0,.3.088l2.31-2.2a.538.538,0,0,1,.761.018l2.431,2.552a.538.538,0,0,1-.018.761l-2.31,2.2a.181.181,0,0,0,.074.3l3.06.9a.538.538,0,0,1,.365.668l-.995,3.382a.538.538,0,0,1-.668.365l-3.06-.9a.181.181,0,0,0-.227.216l.751,3.1a.538.538,0,0,1-.4.65l-3.426.83a.538.538,0,0,1-.65-.4l-.751-3.1a.181.181,0,0,0-.3-.088l-2.31,2.2a.538.538,0,0,1-.761-.018Z" transform="translate(-123.544 -3801.689)" fill="#de1f45"/></g></g></g></svg>