<svg xmlns="http://www.w3.org/2000/svg" width="899" height="282.063" viewBox="0 0 899 282.063"><g transform="translate(-243 -1071)"><g transform="translate(11 5)"><line y2="53" transform="translate(677 1111)" fill="none" stroke="#d9d9d9" stroke-width="1"/><line y2="52" transform="translate(677 1211)" fill="none" stroke="#d9d9d9" stroke-width="1"/><text transform="translate(610 1176)" fill="#005d55" font-size="18" font-family="SegoeUI-Bold, Segoe UI" font-weight="700" letter-spacing="0.01em"><tspan x="53.71" y="19">OR</tspan></text></g><g transform="translate(123 -2179.5)"><g transform="translate(558.5 3455.5)"><text transform="translate(0 50)" fill="#343434" font-size="18" font-family="SegoeUI, Segoe UI" letter-spacing="0.01em"><tspan x="168.602" y="19">of body weight</tspan></text><text transform="translate(0.5)" fill="#005d55" font-size="40" font-family="Druk-Bold, Druk" font-weight="700" letter-spacing="0.043em"><tspan x="180.465" y="37">2 mg/kg</tspan></text></g></g><g transform="translate(-314 -2179.437)"><g transform="translate(582 3363.62)"><text transform="translate(-25 141.88)" fill="#343434" font-size="18" font-family="SegoeUI, Segoe UI" letter-spacing="0.01em"><tspan x="158.602" y="19">of body weight</tspan></text><text transform="translate(-25 91.88)" fill="#005d55" font-size="40" font-family="Druk-Bold, Druk" font-weight="700" letter-spacing="0.043em"><tspan x="172.867" y="37">1 mg/kg</tspan></text></g></g><g transform="translate(-48 28)"><g transform="translate(863 1043)" fill="#005d55"><path d="M 91.5 182.5 C 85.32543182373047 182.5 79.1549072265625 181.8779754638672 73.15979766845703 180.6511993408203 C 67.31732177734375 179.4556579589844 61.57045364379883 177.6717224121094 56.07884216308594 175.3489837646484 C 50.68684005737305 173.0683441162109 45.4862060546875 170.2455291748047 40.62138748168945 166.9589385986328 C 35.80268096923828 163.7034759521484 31.27134132385254 159.9647674560547 27.15329551696777 155.8467254638672 C 23.03522682189941 151.7286529541016 19.29654502868652 147.1973419189453 16.04106903076172 142.3786163330078 C 12.75447750091553 137.5138244628906 9.931658744812012 132.3131866455078 7.651022911071777 126.9211578369141 C 5.328272819519043 121.4295654296875 3.544340848922729 115.6827011108398 2.348795413970947 109.840202331543 C 1.122022747993469 103.8450927734375 0.5 97.67456817626953 0.5 91.5 C 0.5 85.32543182373047 1.122022747993469 79.1549072265625 2.348795413970947 73.15979766845703 C 3.544340848922729 67.31732177734375 5.328272819519043 61.57045364379883 7.651022911071777 56.07884216308594 C 9.931658744812012 50.68684005737305 12.75447750091553 45.4862060546875 16.04106903076172 40.62138748168945 C 19.29654502868652 35.80268096923828 23.03522682189941 31.27134132385254 27.15329551696777 27.15329551696777 C 31.27134132385254 23.03522682189941 35.80268096923828 19.29654502868652 40.62138748168945 16.04106903076172 C 45.4862060546875 12.75447750091553 50.68684005737305 9.931658744812012 56.07884216308594 7.651022911071777 C 61.57045364379883 5.328272819519043 67.31732177734375 3.544340848922729 73.15979766845703 2.348795413970947 C 79.1549072265625 1.122022747993469 85.32543182373047 0.5 91.5 0.5 C 97.67456817626953 0.5 103.8450927734375 1.122022747993469 109.840202331543 2.348795413970947 C 115.6827011108398 3.544340848922729 121.4295654296875 5.328272819519043 126.9211578369141 7.651022911071777 C 132.3131866455078 9.931658744812012 137.5138244628906 12.75447750091553 142.3786163330078 16.04106903076172 C 147.1973419189453 19.29654502868652 151.7286529541016 23.03522682189941 155.8467254638672 27.15329551696777 C 159.9647674560547 31.27134132385254 163.7034759521484 35.80268096923828 166.9589385986328 40.62138748168945 C 170.2455291748047 45.4862060546875 173.0683441162109 50.68684005737305 175.3489837646484 56.07884216308594 C 177.6717224121094 61.57045364379883 179.4556579589844 67.31732177734375 180.6511993408203 73.15979766845703 C 181.8779754638672 79.1549072265625 182.5 85.32543182373047 182.5 91.5 C 182.5 97.67456817626953 181.8779754638672 103.8450927734375 180.6511993408203 109.840202331543 C 179.4556579589844 115.6827011108398 177.6717224121094 121.4295654296875 175.3489837646484 126.9211578369141 C 173.0683441162109 132.3131866455078 170.2455291748047 137.5138244628906 166.9589385986328 142.3786163330078 C 163.7034759521484 147.1973419189453 159.9647674560547 151.7286529541016 155.8467254638672 155.8467254638672 C 151.7286529541016 159.9647674560547 147.1973419189453 163.7034759521484 142.3786163330078 166.9589385986328 C 137.5138244628906 170.2455291748047 132.3131866455078 173.0683441162109 126.9211578369141 175.3489837646484 C 121.4295654296875 177.6717224121094 115.6827011108398 179.4556579589844 109.840202331543 180.6511993408203 C 103.8450927734375 181.8779754638672 97.67456817626953 182.5 91.5 182.5 Z" stroke="none"/><path d="M 91.5 1 C 85.35902404785156 1 79.22221374511719 1.618621826171875 73.26002502441406 2.838638305664062 C 67.44988250732422 4.027572631835938 61.73480987548828 5.8016357421875 56.27362060546875 8.111526489257812 C 50.91133117675781 10.37957763671875 45.73933410644531 13.18685913085938 40.90129089355469 16.45538330078125 C 36.10893249511719 19.69302368164062 31.60238647460938 23.4112548828125 27.5068359375 27.5068359375 C 23.4112548828125 31.60238647460938 19.69302368164062 36.10893249511719 16.45538330078125 40.90129089355469 C 13.18685913085938 45.73933410644531 10.37957763671875 50.91133117675781 8.111526489257812 56.27362060546875 C 5.8016357421875 61.73480987548828 4.027572631835938 67.44988250732422 2.838638305664062 73.26002502441406 C 1.618621826171875 79.22221374511719 1 85.35902404785156 1 91.5 C 1 97.64095306396484 1.618621826171875 103.7777633666992 2.838638305664062 109.7399520874023 C 4.027572631835938 115.5501174926758 5.8016357421875 121.2651672363281 8.111526489257812 126.7263793945312 C 10.37957763671875 132.0886688232422 13.18685913085938 137.2606658935547 16.45538330078125 142.0987091064453 C 19.69302368164062 146.8910522460938 23.4112548828125 151.3975982666016 27.5068359375 155.4931640625 C 31.60238647460938 159.5887145996094 36.10893249511719 163.3069763183594 40.90129089355469 166.5446166992188 C 45.73933410644531 169.8131408691406 50.91133117675781 172.6204223632812 56.27362060546875 174.8884735107422 C 61.73480987548828 177.1983642578125 67.44988250732422 178.972412109375 73.26002502441406 180.1613616943359 C 79.22221374511719 181.3813781738281 85.35902404785156 182 91.5 182 C 97.64095306396484 182 103.7777633666992 181.3813781738281 109.7399520874023 180.1613616943359 C 115.5501174926758 178.972412109375 121.2651672363281 177.1983642578125 126.7263793945312 174.8884735107422 C 132.0886688232422 172.6204223632812 137.2606658935547 169.8131408691406 142.0987091064453 166.5446166992188 C 146.8910522460938 163.3069763183594 151.3975982666016 159.5887145996094 155.4931640625 155.4931640625 C 159.5887145996094 151.3975982666016 163.3069763183594 146.8910522460938 166.5446166992188 142.0987091064453 C 169.8131408691406 137.2606658935547 172.6204223632812 132.0886688232422 174.8884735107422 126.7263793945312 C 177.1983642578125 121.2651672363281 178.972412109375 115.5501174926758 180.1613616943359 109.7399520874023 C 181.3813781738281 103.7777633666992 182 97.64095306396484 182 91.5 C 182 85.35902404785156 181.3813781738281 79.22221374511719 180.1613616943359 73.26002502441406 C 178.972412109375 67.44988250732422 177.1983642578125 61.73480987548828 174.8884735107422 56.27362060546875 C 172.6204223632812 50.91133117675781 169.8131408691406 45.73933410644531 166.5446166992188 40.90129089355469 C 163.3069763183594 36.10893249511719 159.5887145996094 31.60238647460938 155.4931640625 27.5068359375 C 151.3975982666016 23.4112548828125 146.8910522460938 19.69302368164062 142.0987091064453 16.45538330078125 C 137.2606658935547 13.18685913085938 132.0886688232422 10.37957763671875 126.7263793945312 8.111526489257812 C 121.2651672363281 5.8016357421875 115.5501174926758 4.027572631835938 109.7399520874023 2.838638305664062 C 103.7777633666992 1.618621826171875 97.64095306396484 1 91.5 1 M 91.5 0 C 142.0340423583984 0 183 40.96592712402344 183 91.5 C 183 142.0340423583984 142.0340423583984 183 91.5 183 C 40.96592712402344 183 0 142.0340423583984 0 91.5 C 0 40.96592712402344 40.96592712402344 0 91.5 0 Z" stroke="none" fill="#707070"/></g><text transform="translate(864 1084)" fill="#dfdf00" font-size="75" font-family="Druk-Bold, Druk" font-weight="700" letter-spacing="0.03em"><tspan x="65.454" y="69">3x</tspan></text><text transform="translate(866 1128)" fill="#707070" font-size="20" font-family="ArialMT, Arial" letter-spacing="0.01em"><tspan x="91" y="18"></tspan><tspan fill="#fff" font-size="18" font-family="SegoeUI, Segoe UI"><tspan x="54.388" y="48">per week</tspan></tspan></text></g><g transform="translate(283 -185)"><g transform="translate(87 1256)" fill="#005d55" stroke="#707070" stroke-width="1"><circle cx="91.5" cy="91.5" r="91.5" stroke="none"/><circle cx="91.5" cy="91.5" r="91" fill="none"/></g><text transform="translate(152 1297)" fill="#dfdf00" font-size="75" font-family="Druk-Bold, Druk" font-weight="700" letter-spacing="0.03em"><tspan x="0" y="69">6x</tspan></text><text transform="translate(139 1341)" fill="#707070" font-size="20" font-family="ArialMT, Arial" letter-spacing="0.01em"><tspan x="0" y="18"></tspan><tspan fill="#fff" font-size="18" font-family="SegoeUI, Segoe UI"><tspan x="0" y="48">per week</tspan></tspan></text></g></g></svg>