<svg xmlns="http://www.w3.org/2000/svg" width="628" height="324" viewBox="0 0 628 324"><g transform="translate(-370 -1023.596)"><g transform="translate(11 5)"><path d="M.5,53h-1V0h1Z" transform="translate(677 1111.596)" fill="#d9d9d9"/><path d="M.5,52h-1V0h1Z" transform="translate(677 1211.596)" fill="#d9d9d9"/><path d="M60.451,15.261a3.882,3.882,0,0,1-3.895-3.991,3.9,3.9,0,1,1,7.789,0A3.882,3.882,0,0,1,60.451,15.261Zm0,2.509a6.5,6.5,0,1,0-6.722-6.5A6.491,6.491,0,0,0,60.451,17.77Zm8.679-.192h2.828V12.594H73.22l3.254,4.984h3.254L76.1,12.246a3.517,3.517,0,0,0,2.614-3.485A3.223,3.223,0,0,0,77.168,5.8a7.882,7.882,0,0,0-4-.836H69.13Zm2.828-7.058V7.384h1.085a4.906,4.906,0,0,1,2.116.331,1.237,1.237,0,0,1,.729,1.237,1.308,1.308,0,0,1-.729,1.272,4.125,4.125,0,0,1-1.778.3Z" transform="translate(609.271 1175.826)" fill="#005d55"/></g><path d="M166.684,13.515a4.661,4.661,0,1,0,4.661-4.6A4.536,4.536,0,0,0,166.684,13.515Zm1.613,0a3.049,3.049,0,1,1,6.095,0,3.049,3.049,0,1,1-6.095,0Zm10.558,4.4h1.613V10.563h2.259V9.114h-2.259V7.2c0-.93.2-1.682,1.309-1.682a6.028,6.028,0,0,1,1.255.161V4.229a5.159,5.159,0,0,0-1.327-.179,2.9,2.9,0,0,0-2.061.734,3.489,3.489,0,0,0-.789,2.648V9.114h-1.4v1.449h1.4Zm10.415,0,1.56-.268a5.769,5.769,0,0,0,2.2.465,4.559,4.559,0,0,0,4.679-4.724,4.266,4.266,0,0,0-4.3-4.473,4.678,4.678,0,0,0-2.492.716l-.036-.018V4.247H189.27Zm1.613-1.789V11.189a3.639,3.639,0,0,1,2.33-.823,2.873,2.873,0,0,1,2.868,3.113,2.991,2.991,0,0,1-2.994,3.221A4.747,4.747,0,0,1,190.883,16.128Zm8.622-2.612a4.661,4.661,0,1,0,4.661-4.6A4.536,4.536,0,0,0,199.506,13.515Zm1.613,0a3.049,3.049,0,1,1,6.095,0,3.049,3.049,0,1,1-6.095,0Zm9.536.143a4.351,4.351,0,0,0,6.794,3.7l.036.018v.537H219.1V4.247h-1.613V9.364l-.036.018a5.065,5.065,0,0,0-2.115-.465A4.543,4.543,0,0,0,210.656,13.658Zm1.631-.089a3,3,0,0,1,3.029-3.221,4.921,4.921,0,0,1,2.169.555v5.028a4.084,4.084,0,0,1-2.294.751A2.87,2.87,0,0,1,212.287,13.569Zm11.849,8.284L230.1,9.114h-1.7l-1.542,3.328c-.412.895-.807,1.771-1.2,2.648h-.036c-.359-.805-.789-1.753-1.2-2.648l-1.542-3.328h-1.793l3.675,7.855-2.384,4.885Zm14.645-3.936h1.613l1.38-3.775c.3-.805.609-1.7.86-2.469h.036c.251.769.556,1.664.86,2.469l1.38,3.775h1.6l3.065-8.8h-1.685l-1.309,3.936c-.3.913-.592,1.807-.86,2.7h-.036c-.3-.895-.627-1.807-.968-2.72l-1.452-3.918h-1.147l-1.452,3.918c-.323.877-.663,1.825-.968,2.72h-.036c-.287-.913-.574-1.807-.878-2.72l-1.309-3.918h-1.757Zm20.166-3.936a5.51,5.51,0,0,0,.054-.805,3.942,3.942,0,0,0-4.015-4.258,4.391,4.391,0,0,0-4.392,4.6,4.491,4.491,0,0,0,4.768,4.6,6.253,6.253,0,0,0,3.155-.823V15.573a5.032,5.032,0,0,1-3.047,1.091,3.02,3.02,0,0,1-3.262-2.684Zm-4-3.614a2.386,2.386,0,0,1,2.492,2.344h-5.2A2.693,2.693,0,0,1,254.95,10.366Zm6.2-4.276a1.129,1.129,0,1,0,1.129-1.127A1.124,1.124,0,0,0,261.152,6.09Zm.323,11.827h1.613v-8.8h-1.613Zm5.216,3.471a6.257,6.257,0,0,0,2.8.662c2.707,0,4.428-1.592,4.428-4.169V9.149l-1.56.268a5.056,5.056,0,0,0-2.241-.5,4.422,4.422,0,0,0-4.571,4.616,4.251,4.251,0,0,0,4.32,4.4,4.37,4.37,0,0,0,2.4-.68l.036.018v.644a2.56,2.56,0,0,1-2.814,2.666,5.151,5.151,0,0,1-2.8-.913Zm.484-7.962a2.88,2.88,0,0,1,2.9-3.078,4.554,4.554,0,0,1,2.223.608v4.849a3.731,3.731,0,0,1-2.2.716A2.9,2.9,0,0,1,267.175,13.426Zm9.77,4.491h1.613v-6.03a3.852,3.852,0,0,1,2.814-1.467,1.677,1.677,0,0,1,1.344.573,2.489,2.489,0,0,1,.43,1.789v5.135h1.613V12.477a3.561,3.561,0,0,0-.735-2.594,3.054,3.054,0,0,0-2.348-.966,4.377,4.377,0,0,0-3.083,1.324l-.036-.018V4.247h-1.613Zm12.136-.626a2.564,2.564,0,0,0,2.008.823,3.93,3.93,0,0,0,1.6-.322V16.271a2.674,2.674,0,0,1-1.327.376c-1.165,0-1.326-1-1.326-2.093v-3.99h2.653V9.114h-2.653V6.448l-1.613.268v2.4h-1.631v1.449h1.631v4.294A3.469,3.469,0,0,0,289.081,17.291Z" transform="translate(677.316 1325.546)" fill="#343434"/><path d="M187.5,11.7c.68,0,1,.439,1,1.356v1.795c0,1.077-.08,1.954-1.48,4.307l-2.56,4.227c-3.2,5.3-3.6,6.859-3.6,10.489V36.9h13.48V26.694h-5.2v5.065h-3.72c0-.638-.28-1.2,3.12-5.663.96-1.236,2-2.552,2.92-3.789,2.52-3.27,2.6-4.865,2.6-8.056V12.576c0-3.829-2.2-5.7-6.04-5.7h-1.08c-4.04,0-5.44,2.792-5.44,5.543v5.224h5V13.055C186.5,12.1,186.74,11.7,187.5,11.7Zm15.72,25.2h5.12V21.27c0-.917.16-1.436.92-1.436.92,0,1,.6,1,1.436V36.9h5.12V20.951c.04-.678.2-1.117.96-1.117.84,0,.96.6.96,1.436V36.9h5.12V18.718c0-1.914-1.04-3.43-3.08-3.43h-.2c-1.76,0-3.08,1.436-3.84,2.632a3.2,3.2,0,0,0-3.16-2.632h-.16c-1.68,0-3,1.675-3.68,2.672V15.448h-5.08ZM232.7,39.5c0,.758-.2,1.077-.96,1.077h-.2c-.76,0-.88-.319-.88-.917V37.9h-4.92v2.871c0,2.193,1.16,3.908,5.56,3.908h.72c4.76,0,5.8-2.592,5.8-4.826V15.448h-5.04V18.04c-.92-1.476-2-2.712-3.8-2.712h-.04c-2.24,0-3.4,1.954-3.4,4.985v12.8c0,2.552,1.6,4.187,3.68,4.187,1.6,0,2.68-1.316,3.48-2.792Zm0-7.737c0,.758-.36,1.316-1,1.316-.76,0-.96-.518-.96-1.276V20.951c0-.758.2-1.316.96-1.316.84,0,1,.678,1,1.356ZM249.14,4.68h-3.76l-5.24,37.448h3.8Zm7.64,18.225V7.232h-5.12V36.9h5.12V27.372l3.08,9.531h5.08l-4.08-12.443,3.8-9.013h-4.88ZM273.74,39.5c0,.758-.2,1.077-.96,1.077h-.2c-.76,0-.88-.319-.88-.917V37.9h-4.92v2.871c0,2.193,1.16,3.908,5.56,3.908h.72c4.76,0,5.8-2.592,5.8-4.826V15.448h-5.04V18.04c-.92-1.476-2-2.712-3.8-2.712h-.04c-2.24,0-3.4,1.954-3.4,4.985v12.8c0,2.552,1.6,4.187,3.68,4.187,1.6,0,2.68-1.316,3.48-2.792Zm0-7.737c0,.758-.36,1.316-1,1.316-.76,0-.96-.518-.96-1.276V20.951c0-.758.2-1.316.96-1.316.84,0,1,.678,1,1.356Z" transform="translate(678.14 1275.916)" fill="#005d55"/><path d="M156.684,13.515a4.661,4.661,0,1,0,4.661-4.6A4.536,4.536,0,0,0,156.684,13.515Zm1.613,0a3.049,3.049,0,1,1,6.095,0,3.049,3.049,0,1,1-6.095,0Zm10.558,4.4h1.613V10.563h2.259V9.114h-2.259V7.2c0-.93.2-1.682,1.309-1.682a6.029,6.029,0,0,1,1.255.161V4.229a5.159,5.159,0,0,0-1.327-.179,2.9,2.9,0,0,0-2.061.734,3.489,3.489,0,0,0-.789,2.648V9.114h-1.4v1.449h1.4Zm10.415,0,1.56-.268a5.769,5.769,0,0,0,2.2.465,4.559,4.559,0,0,0,4.679-4.724,4.266,4.266,0,0,0-4.3-4.473,4.678,4.678,0,0,0-2.492.716l-.036-.018V4.247H179.27Zm1.613-1.789V11.189a3.639,3.639,0,0,1,2.33-.823,2.873,2.873,0,0,1,2.868,3.113,2.991,2.991,0,0,1-2.994,3.221A4.747,4.747,0,0,1,180.883,16.128Zm8.622-2.612a4.661,4.661,0,1,0,4.661-4.6A4.536,4.536,0,0,0,189.506,13.515Zm1.613,0a3.049,3.049,0,1,1,6.095,0,3.049,3.049,0,1,1-6.095,0Zm9.536.143a4.351,4.351,0,0,0,6.794,3.7l.036.018v.537H209.1V4.247h-1.613V9.364l-.036.018a5.065,5.065,0,0,0-2.115-.465A4.543,4.543,0,0,0,200.656,13.658Zm1.631-.089a3,3,0,0,1,3.029-3.221,4.921,4.921,0,0,1,2.169.555v5.028a4.084,4.084,0,0,1-2.294.751A2.87,2.87,0,0,1,202.287,13.569Zm11.849,8.284L220.1,9.114h-1.7l-1.542,3.328c-.412.895-.807,1.771-1.2,2.648h-.036c-.359-.805-.789-1.753-1.2-2.648l-1.542-3.328h-1.793l3.675,7.855-2.384,4.885Zm14.645-3.936h1.613l1.38-3.775c.3-.805.609-1.7.86-2.469h.036c.251.769.556,1.664.86,2.469l1.38,3.775h1.6l3.065-8.8h-1.685l-1.309,3.936c-.3.913-.592,1.807-.86,2.7h-.036c-.3-.895-.627-1.807-.968-2.72l-1.452-3.918h-1.147l-1.452,3.918c-.323.877-.663,1.825-.968,2.72h-.036c-.287-.913-.574-1.807-.878-2.72l-1.309-3.918h-1.757Zm20.166-3.936a5.513,5.513,0,0,0,.054-.805,3.942,3.942,0,0,0-4.015-4.258,4.391,4.391,0,0,0-4.392,4.6,4.491,4.491,0,0,0,4.768,4.6,6.253,6.253,0,0,0,3.155-.823V15.573a5.032,5.032,0,0,1-3.047,1.091,3.02,3.02,0,0,1-3.262-2.684Zm-4-3.614a2.386,2.386,0,0,1,2.492,2.344h-5.2A2.693,2.693,0,0,1,244.95,10.366Zm6.2-4.276a1.129,1.129,0,1,0,1.129-1.127A1.124,1.124,0,0,0,251.152,6.09Zm.323,11.827h1.613v-8.8h-1.613Zm5.216,3.471a6.257,6.257,0,0,0,2.8.662c2.707,0,4.428-1.592,4.428-4.169V9.149l-1.56.268a5.056,5.056,0,0,0-2.241-.5,4.422,4.422,0,0,0-4.571,4.616,4.251,4.251,0,0,0,4.32,4.4,4.369,4.369,0,0,0,2.4-.68l.036.018v.644a2.56,2.56,0,0,1-2.814,2.666,5.151,5.151,0,0,1-2.8-.913Zm.484-7.962a2.88,2.88,0,0,1,2.9-3.078,4.555,4.555,0,0,1,2.223.608v4.849a3.731,3.731,0,0,1-2.2.716A2.9,2.9,0,0,1,257.175,13.426Zm9.77,4.491h1.613v-6.03a3.852,3.852,0,0,1,2.814-1.467,1.677,1.677,0,0,1,1.344.573,2.489,2.489,0,0,1,.43,1.789v5.135h1.613V12.477a3.561,3.561,0,0,0-.735-2.594,3.054,3.054,0,0,0-2.348-.966,4.377,4.377,0,0,0-3.083,1.324l-.036-.018V4.247h-1.613Zm12.136-.626a2.564,2.564,0,0,0,2.008.823,3.93,3.93,0,0,0,1.6-.322V16.271a2.674,2.674,0,0,1-1.327.376c-1.165,0-1.326-1-1.326-2.093v-3.99h2.653V9.114h-2.653V6.448l-1.613.268v2.4h-1.631v1.449h1.631v4.294A3.469,3.469,0,0,0,279.081,17.291Z" transform="translate(241.316 1325.546)" fill="#343434"/><path d="M176.291,15.089V36.9h5.3V7.232h-4.427c-.2,1.834-.917,3.31-3.988,3.31v4.546ZM190.767,36.9h5.1V21.27c0-.917.16-1.436.917-1.436.917,0,1,.6,1,1.436V36.9h5.1V20.951c.04-.678.2-1.117.957-1.117.837,0,.957.6.957,1.436V36.9h5.1V18.718c0-1.914-1.037-3.43-3.071-3.43h-.2c-1.755,0-3.071,1.436-3.828,2.632a3.191,3.191,0,0,0-3.151-2.632h-.16c-1.675,0-2.991,1.675-3.669,2.672V15.448h-5.065ZM220.159,39.5c0,.758-.2,1.077-.957,1.077H219c-.758,0-.877-.319-.877-.917V37.9h-4.905v2.871c0,2.193,1.156,3.908,5.543,3.908h.718c4.746,0,5.783-2.592,5.783-4.826V15.448h-5.025V18.04c-.917-1.476-1.994-2.712-3.789-2.712h-.04c-2.233,0-3.39,1.954-3.39,4.985v12.8c0,2.552,1.6,4.187,3.669,4.187,1.6,0,2.672-1.316,3.47-2.792Zm0-7.737c0,.758-.359,1.316-1,1.316-.758,0-.957-.518-.957-1.276V20.951c0-.758.2-1.316.957-1.316.837,0,1,.678,1,1.356ZM236.549,4.68H232.8l-5.224,37.448h3.789Zm7.617,18.225V7.232h-5.1V36.9h5.1V27.372l3.071,9.531H252.3l-4.068-12.443,3.789-9.013h-4.865ZM261.075,39.5c0,.758-.2,1.077-.957,1.077h-.2c-.758,0-.877-.319-.877-.917V37.9h-4.905v2.871c0,2.193,1.156,3.908,5.543,3.908h.718c4.746,0,5.783-2.592,5.783-4.826V15.448h-5.025V18.04c-.917-1.476-1.994-2.712-3.789-2.712h-.04c-2.233,0-3.39,1.954-3.39,4.985v12.8c0,2.552,1.6,4.187,3.669,4.187,1.6,0,2.672-1.316,3.47-2.792Zm0-7.737c0,.758-.359,1.316-1,1.316-.758,0-.957-.518-.957-1.276V20.951c0-.758.2-1.316.957-1.316.837,0,1,.678,1,1.356Z" transform="translate(241.82 1275.916)" fill="#005d55"/><path d="M91.5,0A91.5,91.5,0,1,1,0,91.5,91.5,91.5,0,0,1,91.5,0Z" transform="translate(815 1071.596)" fill="#005d55"/><path d="M91.5,1A91.176,91.176,0,0,0,73.26,2.839,90,90,0,0,0,40.9,16.455,90.767,90.767,0,0,0,8.112,56.274,90.038,90.038,0,0,0,2.839,73.26a91.393,91.393,0,0,0,0,36.48A90,90,0,0,0,16.455,142.1a90.767,90.767,0,0,0,39.818,32.79,90.039,90.039,0,0,0,16.986,5.273,91.393,91.393,0,0,0,36.48,0A90,90,0,0,0,142.1,166.545a90.767,90.767,0,0,0,32.79-39.818,90.039,90.039,0,0,0,5.273-16.986,91.393,91.393,0,0,0,0-36.48A90,90,0,0,0,166.545,40.9a90.767,90.767,0,0,0-39.818-32.79A90.038,90.038,0,0,0,109.74,2.839,91.175,91.175,0,0,0,91.5,1m0-1A91.5,91.5,0,1,1,0,91.5,91.5,91.5,0,0,1,91.5,0Z" transform="translate(815 1071.596)" fill="#707070"/><path d="M76.105,30.282V24.089c0-2.014.6-2.537,1.864-2.537,1.417,0,1.939.522,1.939,2.537V31.7c0,1.791-.373,2.462-2.088,2.462H73.2v9.923h5.145c1.715,0,1.864.671,1.864,2.238V57.14c0,1.716-.671,2.611-2.013,2.611-1.417,0-2.088-.9-2.088-2.611v-8.8H66.412V59.528c0,5.073,2.61,10,10.811,10h2.088c6.86,0,11.035-4.327,11.035-11.49V44.159c0-3.357-1.342-5.446-4.1-6.342,1.789-.97,3.579-3.059,3.579-8.431V23.194c0-6.342-3.355-10.669-10.886-10.669H76.851c-7.456,0-9.842,5.521-9.842,10.594v7.162ZM99.369,47.143,93.627,68.7H102.5l2.982-12.683L108.316,68.7h9.1l-5.741-21.86,5.07-18.279h-8.724l-2.311,11.49-2.61-11.49H94Z" transform="translate(815.588 1111.071)" fill="#dfdf00"/><circle cx="91.5" cy="91.5" r="91.5" transform="translate(370 1071.596)" fill="#005d55"/><path d="M91.5,1A91.176,91.176,0,0,0,73.26,2.839,90,90,0,0,0,40.9,16.455,90.767,90.767,0,0,0,8.112,56.274,90.038,90.038,0,0,0,2.839,73.26a91.393,91.393,0,0,0,0,36.48A90,90,0,0,0,16.455,142.1a90.767,90.767,0,0,0,39.818,32.79,90.039,90.039,0,0,0,16.986,5.273,91.393,91.393,0,0,0,36.48,0A90,90,0,0,0,142.1,166.545a90.767,90.767,0,0,0,32.79-39.818,90.039,90.039,0,0,0,5.273-16.986,91.393,91.393,0,0,0,0-36.48A90,90,0,0,0,166.545,40.9a90.767,90.767,0,0,0-39.818-32.79A90.038,90.038,0,0,0,109.74,2.839,91.175,91.175,0,0,0,91.5,1m0-1A91.5,91.5,0,1,1,0,91.5,91.5,91.5,0,0,1,91.5,0Z" transform="translate(370 1071.596)" fill="#707070"/><path d="M19.153,32.967c-3.783,0-6.157,3.283-7.566,4.924V23.79c0-1.119.445-2.164,1.854-2.164,1.484,0,1.78.746,1.78,2.164v6.192H25.384V21.627c0-4.775-3.486-9.177-10.534-9.177H12.774C4.836,12.45,1.35,17.3,1.35,24.238V58.632c0,5.819,3.635,10.818,11.572,10.818h2.225A10.83,10.83,0,0,0,26.423,58.334V39.98c0-3.059-1.854-7.013-6.676-7.013ZM13.886,60.049c-2,0-2.3-1.418-2.3-2.91V44.307c0-1.791.742-2.686,2.3-2.686s2.225.746,2.225,2.76V57.14C16.112,58.557,15.889,60.049,13.886,60.049ZM35.4,47.142,29.687,68.7h8.827l2.967-12.683L44.3,68.7h9.05l-5.712-21.86,5.044-18.279H44l-2.3,11.49-2.6-11.49h-9.05Z" transform="translate(434.65 1111.146)" fill="#dfdf00"/><path d="M3.023,48.188l.036-.017a5.06,5.06,0,0,0,2.153.466,4.367,4.367,0,0,0,4.573-4.475A4.2,4.2,0,0,0,5.55,39.757a4.407,4.407,0,0,0-2.491.76L3.023,40.5v-.553h-1.6v12.3h1.6Zm0-1.5V41.934a3.719,3.719,0,0,1,2.26-.777,2.917,2.917,0,0,1,2.883,3.127,2.82,2.82,0,0,1-2.918,2.989A4.928,4.928,0,0,1,3.023,46.685Zm16.851-2.039a5.179,5.179,0,0,0,.053-.777,3.857,3.857,0,0,0-3.986-4.112,4.3,4.3,0,0,0-4.359,4.44,4.4,4.4,0,0,0,4.733,4.44,6.341,6.341,0,0,0,3.132-.795V46.184a5.081,5.081,0,0,1-3.025,1.054,2.977,2.977,0,0,1-3.238-2.591Zm-3.968-3.49a2.346,2.346,0,0,1,2.473,2.263h-5.16A2.653,2.653,0,0,1,15.906,41.157Zm6.477,7.291h1.6V42.919a2.876,2.876,0,0,1,2.58-1.5,2.648,2.648,0,0,1,.623.069V39.947a2.231,2.231,0,0,0-.569-.069,3.219,3.219,0,0,0-2.6,1.33l-.036-.017V39.947h-1.6Zm13.292,0h1.6l1.37-3.645c.3-.777.6-1.641.854-2.384h.036c.249.743.552,1.607.854,2.384l1.37,3.645h1.584l3.043-8.5H44.714l-1.3,3.8c-.3.881-.587,1.745-.854,2.609h-.036c-.3-.864-.623-1.745-.961-2.626l-1.441-3.784H38.984l-1.441,3.784c-.32.847-.658,1.762-.961,2.626h-.036c-.285-.881-.569-1.745-.872-2.626l-1.3-3.784H32.632Zm20.018-3.8a5.178,5.178,0,0,0,.053-.777,3.857,3.857,0,0,0-3.986-4.112A4.3,4.3,0,0,0,47.4,44.2a4.4,4.4,0,0,0,4.733,4.44,6.341,6.341,0,0,0,3.132-.795V46.184a5.081,5.081,0,0,1-3.025,1.054A2.977,2.977,0,0,1,49,44.646Zm-3.968-3.49A2.346,2.346,0,0,1,54.2,43.42h-5.16A2.653,2.653,0,0,1,51.724,41.157Zm14.164,3.49a5.18,5.18,0,0,0,.053-.777,3.857,3.857,0,0,0-3.986-4.112A4.3,4.3,0,0,0,57.6,44.2a4.4,4.4,0,0,0,4.733,4.44,6.341,6.341,0,0,0,3.132-.795V46.184a5.081,5.081,0,0,1-3.025,1.054A2.977,2.977,0,0,1,59.2,44.646Zm-3.968-3.49a2.346,2.346,0,0,1,2.473,2.263h-5.16A2.653,2.653,0,0,1,61.92,41.157ZM68.4,48.447H70v-4.6l.036-.017,4.288,4.613h2.1l-4.431-4.7,4-3.8H73.949L70.034,43.7,70,43.679V35.248H68.4Z" transform="translate(421.578 1155.348)" fill="#fff"/><path d="M255.2,47.248c1.224.6,3.167.3,4.462.3,2.807,0,4.732-1.459,4.732-3.88,0-2.2-1.583-3.073-3.545-3.691-1.565-.5-2.771-.584-2.771-1.682,0-.824.7-1.167,1.673-1.167a8.559,8.559,0,0,1,3.995,1.2v-2.7a9.325,9.325,0,0,0-3.977-.893c-2.735,0-4.57,1.442-4.57,3.76,0,2.163,1.619,3,3.419,3.571,1.673.515,2.9.618,2.9,1.768,0,.927-.774,1.322-1.817,1.322a8.508,8.508,0,0,1-4.157-1.288Zm14.341.116H272.4V37.321h4.211V34.935H265.328v2.386h4.211Zm8.709,0h2.861v-4.91h1.278l3.293,4.91h3.293L285.3,42.111a3.478,3.478,0,0,0,2.645-3.433,3.155,3.155,0,0,0-1.565-2.918,8.156,8.156,0,0,0-4.049-.824h-4.085Zm2.861-6.953v-3.09h1.1a5.084,5.084,0,0,1,2.141.326,1.215,1.215,0,0,1,.738,1.219,1.284,1.284,0,0,1-.738,1.253,4.275,4.275,0,0,1-1.8.292Zm9.069,6.953h8.241V44.978h-5.38V42.025H297.5V39.759h-4.462V37.321h5.182V34.935h-8.043Zm19.379,0h2.7V34.935H309.5v4.618c0,1.2.018,2.4.036,3.588l-.036.017c-.81-1.082-1.6-2.129-2.447-3.21l-3.9-5.013h-2.7V47.364H303.2V42.746c0-1.2-.018-2.4-.036-3.588l.036-.017c.81,1.082,1.6,2.129,2.447,3.21Zm5.092-.721a9.968,9.968,0,0,0,4.121.91c2.807,0,4.732-1.459,4.732-3.88,0-2.2-1.583-3.073-3.545-3.691-1.565-.5-2.771-.584-2.771-1.682,0-.824.7-1.167,1.673-1.167a8.559,8.559,0,0,1,3.995,1.2v-2.7a9.325,9.325,0,0,0-3.977-.893c-2.735,0-4.57,1.442-4.57,3.76,0,2.163,1.619,3,3.419,3.571,1.673.515,2.9.618,2.9,1.768,0,.927-.774,1.322-1.817,1.322a8.508,8.508,0,0,1-4.157-1.288Zm10.706.721h2.861V34.935h-2.861Zm15.727,2.884,2.609-1.459a23.917,23.917,0,0,1-3.653-1.837v-.034a6.24,6.24,0,0,0,3.761-5.768,6.814,6.814,0,1,0-6.928,6.4A17.3,17.3,0,0,0,341.082,50.248ZM337,45.081a3.931,3.931,0,1,1,3.941-3.931A3.874,3.874,0,0,1,337,45.081Zm12.956-8.841a1.586,1.586,0,1,0,1.583-1.494A1.548,1.548,0,0,0,349.953,36.239Zm.216,11.124H352.9V38.918h-2.735Zm4.93-.515a8.749,8.749,0,0,0,3.491.7c2.267,0,3.959-1.013,3.977-2.867,0-1.459-1.026-2.077-2.717-2.472-1.314-.309-2.267-.258-2.267-.876,0-.395.432-.6,1.152-.6a7.732,7.732,0,0,1,3.329.91V39.4a8.608,8.608,0,0,0-3.383-.67c-2.2,0-3.851,1.013-3.869,2.8,0,1.391.99,2.06,2.663,2.455,1.332.326,2.321.258,2.321.91,0,.464-.45.652-1.206.652a7.841,7.841,0,0,1-3.491-.979Zm19.721.069v.446H377.5V34.248h-2.735v4.773l-.036.017a4.375,4.375,0,0,0-1.673-.309,4.515,4.515,0,0,0-4.678,4.584,4.168,4.168,0,0,0,6.406,3.588Zm-.054-1.923a3,3,0,0,1-1.529.429,2.049,2.049,0,0,1-2.105-2.232,2.13,2.13,0,0,1,2.213-2.3,3.311,3.311,0,0,1,1.422.326Zm7.36-1.854a2.2,2.2,0,1,1,2.2,2.163A2.157,2.157,0,0,1,382.126,43.141Zm-2.735,0c0,2.489,2.105,4.412,4.93,4.412s4.93-1.923,4.93-4.412-2.105-4.412-4.93-4.412S379.391,40.651,379.391,43.141Zm11.5,3.708a8.749,8.749,0,0,0,3.491.7c2.267,0,3.959-1.013,3.977-2.867,0-1.459-1.026-2.077-2.717-2.472-1.314-.309-2.267-.258-2.267-.876,0-.395.432-.6,1.152-.6a7.732,7.732,0,0,1,3.329.91V39.4a8.608,8.608,0,0,0-3.383-.67c-2.2,0-3.851,1.013-3.869,2.8,0,1.391.99,2.06,2.663,2.455,1.332.326,2.321.258,2.321.91,0,.464-.45.652-1.206.652a7.841,7.841,0,0,1-3.491-.979Zm17.58-3.021a6.642,6.642,0,0,0,.054-.893,4,4,0,0,0-4.229-4.206,4.467,4.467,0,0,0-4.642,4.446c0,2.644,2.105,4.378,5.02,4.378a7.061,7.061,0,0,0,3.365-.773V44.6a5.692,5.692,0,0,1-3,.927,2.393,2.393,0,0,1-2.573-1.7Zm-6.028-1.648a1.809,1.809,0,0,1,1.817-1.459A1.7,1.7,0,0,1,406,42.179Zm14,4.738v.446h2.681V34.248h-2.735v4.773l-.036.017a4.375,4.375,0,0,0-1.673-.309A4.515,4.515,0,0,0,410,43.312,4.168,4.168,0,0,0,416.4,46.9Zm-.054-1.923a3,3,0,0,1-1.529.429,2.049,2.049,0,0,1-2.105-2.232,2.13,2.13,0,0,1,2.213-2.3,3.311,3.311,0,0,1,1.422.326Zm14.647,1.854a2.663,2.663,0,0,0,1.907.67,3.1,3.1,0,0,0,1.314-.258V45.3a1.072,1.072,0,0,1-.45.1c-.378,0-.54-.275-.54-.67V41.87a2.734,2.734,0,0,0-.99-2.335,4.836,4.836,0,0,0-2.951-.807,7.321,7.321,0,0,0-3.095.652V41.63a5.733,5.733,0,0,1,2.591-.67,2.105,2.105,0,0,1,1.368.361,1.161,1.161,0,0,1,.342.893v.326A7.443,7.443,0,0,0,429,42.385a4.537,4.537,0,0,0-2.483.6,2.376,2.376,0,0,0-1.08,2.043A2.272,2.272,0,0,0,426.481,47a3.729,3.729,0,0,0,2.051.549,4.456,4.456,0,0,0,2.465-.7Zm-.5-1.562a2.545,2.545,0,0,1-1.242.343c-.63,0-1.134-.292-1.134-.841,0-.652.7-.858,1.4-.858a3.767,3.767,0,0,1,.972.12Zm5.074,1.562a8.749,8.749,0,0,0,3.491.7c2.267,0,3.959-1.013,3.977-2.867,0-1.459-1.026-2.077-2.717-2.472-1.314-.309-2.267-.258-2.267-.876,0-.395.432-.6,1.152-.6a7.732,7.732,0,0,1,3.329.91V39.4a8.608,8.608,0,0,0-3.383-.67c-2.2,0-3.851,1.013-3.869,2.8,0,1.391.99,2.06,2.663,2.455,1.332.326,2.321.258,2.321.91,0,.464-.45.652-1.206.652a7.841,7.841,0,0,1-3.491-.979Zm22.025-3.021a6.637,6.637,0,0,0,.054-.893,4,4,0,0,0-4.229-4.206,4.467,4.467,0,0,0-4.642,4.446c0,2.644,2.105,4.378,5.02,4.378a7.061,7.061,0,0,0,3.365-.773V44.6a5.692,5.692,0,0,1-3,.927,2.393,2.393,0,0,1-2.573-1.7ZM451.6,42.179a1.809,1.809,0,0,1,1.817-1.459,1.7,1.7,0,0,1,1.745,1.459Zm7.827-5.94a1.586,1.586,0,1,0,1.583-1.494A1.548,1.548,0,0,0,459.428,36.239Zm.216,11.124h2.735V38.918h-2.735Zm10.922-2.352a3.287,3.287,0,0,1-1.314.343c-.828,0-1.026-.618-1.026-1.442V41.081h2.339V38.918h-2.339V36.274l-2.735.446v2.2h-1.44v2.163h1.44v3.107a3.338,3.338,0,0,0,.774,2.524,3.2,3.2,0,0,0,2.3.841,4.234,4.234,0,0,0,2-.464Zm1.817,2.352h2.735V41.681a3.242,3.242,0,0,1,1.853-.7,1.2,1.2,0,0,1,.936.361,1.618,1.618,0,0,1,.306,1.185v4.841h2.735v-5.27a2.879,2.879,0,0,0-3.095-3.365,4.362,4.362,0,0,0-2.7.961l-.036-.017V34.248h-2.735Zm19.235-3.536a6.637,6.637,0,0,0,.054-.893,4,4,0,0,0-4.229-4.206,4.467,4.467,0,0,0-4.642,4.446c0,2.644,2.105,4.378,5.02,4.378a7.061,7.061,0,0,0,3.365-.773V44.6a5.692,5.692,0,0,1-3,.927,2.393,2.393,0,0,1-2.573-1.7Zm-6.028-1.648a1.809,1.809,0,0,1,1.817-1.459,1.705,1.705,0,0,1,1.745,1.459Zm8.043,5.185h2.735V42.248a3.006,3.006,0,0,1,2.393-1,3.331,3.331,0,0,1,.738.086V38.883a2.294,2.294,0,0,0-.576-.069,3.041,3.041,0,0,0-2.573,1.253l-.036-.017V38.918h-2.681Zm9.015-5.682a1.478,1.478,0,1,0-1.547-1.476A1.525,1.525,0,0,0,502.65,41.681ZM501.1,46.076A1.549,1.549,0,1,0,502.65,44.6,1.525,1.525,0,0,0,501.1,46.076Z" transform="translate(299.803 989.348)" fill="#343434"/><path d="M3.023,48.188l.036-.017a5.06,5.06,0,0,0,2.153.466,4.367,4.367,0,0,0,4.573-4.475A4.2,4.2,0,0,0,5.55,39.757a4.407,4.407,0,0,0-2.491.76L3.023,40.5v-.553h-1.6v12.3h1.6Zm0-1.5V41.934a3.719,3.719,0,0,1,2.26-.777,2.917,2.917,0,0,1,2.883,3.127,2.82,2.82,0,0,1-2.918,2.989A4.928,4.928,0,0,1,3.023,46.685Zm16.851-2.039a5.179,5.179,0,0,0,.053-.777,3.857,3.857,0,0,0-3.986-4.112,4.3,4.3,0,0,0-4.359,4.44,4.4,4.4,0,0,0,4.733,4.44,6.341,6.341,0,0,0,3.132-.795V46.184a5.081,5.081,0,0,1-3.025,1.054,2.977,2.977,0,0,1-3.238-2.591Zm-3.968-3.49a2.346,2.346,0,0,1,2.473,2.263h-5.16A2.653,2.653,0,0,1,15.906,41.157Zm6.477,7.291h1.6V42.919a2.876,2.876,0,0,1,2.58-1.5,2.648,2.648,0,0,1,.623.069V39.947a2.231,2.231,0,0,0-.569-.069,3.219,3.219,0,0,0-2.6,1.33l-.036-.017V39.947h-1.6Zm13.292,0h1.6l1.37-3.645c.3-.777.6-1.641.854-2.384h.036c.249.743.552,1.607.854,2.384l1.37,3.645h1.584l3.043-8.5H44.714l-1.3,3.8c-.3.881-.587,1.745-.854,2.609h-.036c-.3-.864-.623-1.745-.961-2.626l-1.441-3.784H38.984l-1.441,3.784c-.32.847-.658,1.762-.961,2.626h-.036c-.285-.881-.569-1.745-.872-2.626l-1.3-3.784H32.632Zm20.018-3.8a5.178,5.178,0,0,0,.053-.777,3.857,3.857,0,0,0-3.986-4.112A4.3,4.3,0,0,0,47.4,44.2a4.4,4.4,0,0,0,4.733,4.44,6.341,6.341,0,0,0,3.132-.795V46.184a5.081,5.081,0,0,1-3.025,1.054A2.977,2.977,0,0,1,49,44.646Zm-3.968-3.49A2.346,2.346,0,0,1,54.2,43.42h-5.16A2.653,2.653,0,0,1,51.724,41.157Zm14.164,3.49a5.18,5.18,0,0,0,.053-.777,3.857,3.857,0,0,0-3.986-4.112A4.3,4.3,0,0,0,57.6,44.2a4.4,4.4,0,0,0,4.733,4.44,6.341,6.341,0,0,0,3.132-.795V46.184a5.081,5.081,0,0,1-3.025,1.054A2.977,2.977,0,0,1,59.2,44.646Zm-3.968-3.49a2.346,2.346,0,0,1,2.473,2.263h-5.16A2.653,2.653,0,0,1,61.92,41.157ZM68.4,48.447H70v-4.6l.036-.017,4.288,4.613h2.1l-4.431-4.7,4-3.8H73.949L70.034,43.7,70,43.679V35.248H68.4Z" transform="translate(870.578 1155.348)" fill="#fff"/></g></svg>