<svg xmlns="http://www.w3.org/2000/svg" width="77.743" height="77.742" viewBox="0 0 77.743 77.742"><g transform="translate(223.352 -39.129)"><path d="M-145.609,78a38.872,38.872,0,0,1-38.872,38.871A38.872,38.872,0,0,1-223.352,78a38.871,38.871,0,0,1,38.871-38.871A38.871,38.871,0,0,1-145.609,78Z" transform="translate(0 0)" fill="#69be28"/><path d="M-200.433,96.417l7.362-7.362,13.691,13.685,13.727-13.724.774-.743,8.957-8.953,7.361,7.362-23.906,23.906-.776.741-6.137,6.137-21.053-21.049Z" transform="translate(-9.983 -17.507)" fill="#fff"/></g></svg>