<svg id="Group_13433" data-name="Group 13433" xmlns="http://www.w3.org/2000/svg" width="176.368" height="48.282" viewBox="0 0 176.368 48.282">
  <path id="Path_123726" data-name="Path 123726" d="M115.885,14.29V31.111h4.205V14.29Z" transform="translate(-4.442 -0.972)" fill="#fff"/>
  <path id="Path_123727" data-name="Path 123727" d="M64.72,28.307H48.6V14.29H44.394V31.111H64.72v-2.8Z" transform="translate(-4.442 -0.972)" fill="#fff"/>
  <path id="Path_123728" data-name="Path 123728" d="M67.523,31.111V14.29H87.849v2.8H71.729V21.3H82.243v2.8H71.729v4.206H87.849v2.8Z" transform="translate(-4.442 -0.972)" fill="#fff"/>
  <path id="Path_123729" data-name="Path 123729" d="M113.082,14.29h-4.907l-6.308,6.055L95.559,14.29H90.653L99.414,22.7l-8.761,8.411h4.907l6.308-6.056,6.308,6.056h4.907L104.321,22.7l8.761-8.411Z" transform="translate(-4.442 -0.972)" fill="#fff"/>
  <path id="Path_123730" data-name="Path 123730" d="M169.854,14.29V27.23L155.837,14.29h-4.206V31.111h4.206V18.172l14.018,12.94h4.206V14.29Z" transform="translate(-4.442 -0.972)" fill="#fff"/>
  <path id="Path_123731" data-name="Path 123731" d="M142.169,28.307a1.052,1.052,0,0,0,1.052-1.051V18.145a1.053,1.053,0,0,0-1.052-1.052H130.254a1.052,1.052,0,0,0-1.052,1.052v9.111a1.051,1.051,0,0,0,1.052,1.051ZM125,15.691a1.4,1.4,0,0,1,1.4-1.4h19.625a1.4,1.4,0,0,1,1.4,1.4V29.71a1.4,1.4,0,0,1-1.4,1.4H126.4a1.4,1.4,0,0,1-1.4-1.4V15.691Z" transform="translate(-4.442 -0.972)" fill="#fff"/>
  <path id="Path_123732" data-name="Path 123732" d="M16.788,20.148l5.878-8.662,3.006,4.431c-3.515,1.568-6.516,3.026-8.884,4.231Zm95-16.851S105.379.972,87.849.972C65.522.972,43.62,8.247,28.9,14.51L22.666,5.879,4.442,31.111H9.349l2.253-3.32c2.116-1.268,8.044-4.727,16.215-8.715l8.166,12.035h4.906L31.072,17.518C46.513,10.265,68.348,2.024,87.849,2.024c17.494,0,23.59,1.88,23.59,1.88a.351.351,0,0,0,.351-.607Z" transform="translate(-4.442 -0.972)" fill="#fff"/>
  <path id="Path_123733" data-name="Path 123733" d="M117.988,12.187a.352.352,0,0,1-.351-.351c0-.454.567-1.376-.864-3.854h0c-1.431-2.479-2.515-2.446-2.907-2.676a.351.351,0,0,1-.128-.479h0a.351.351,0,0,1,.479-.128c.395.224.908,1.179,3.77,1.179h0c2.862,0,3.375-.955,3.77-1.179a.352.352,0,0,1,.48.128h0a.353.353,0,0,1-.129.479c-.392.229-1.476.2-2.907,2.675h0c-1.431,2.478-.861,3.4-.864,3.855a.35.35,0,0,1-.35.35h0Z" transform="translate(-4.442 -0.972)" fill="#fff"/>
  <path id="Path_123734" data-name="Path 123734" d="M178.382,14.746h-.531v.689h.574c.212,0,.4-.1.4-.339,0-.265-.222-.35-.445-.35Zm.445,2.174-.4-1.061h-.574V16.92h-.477V14.29h.881c.6,0,1.071.138,1.071.848,0,.382-.149.5-.456.647l.487,1.135Zm-.509-3.372a2.12,2.12,0,1,0,2.121,2.12,2.14,2.14,0,0,0-2.121-2.12Zm0,4.612a2.492,2.492,0,1,1,2.492-2.492,2.495,2.495,0,0,1-2.492,2.492Z" transform="translate(-4.442 -0.972)" fill="#fff"/>
  <g id="Group_13432" data-name="Group 13432" transform="translate(0.003 37.674)">
    <path id="Path_123735" data-name="Path 123735" d="M10.049,38.646l4.083,10.447H12.6l-1.142-3.146H7.035L5.864,49.093H4.445L8.513,38.646Zm.966,6.13L9.274,39.9h-.03l-1.77,4.872Z" transform="translate(-4.445 -38.646)" fill="#fff"/>
    <path id="Path_123736" data-name="Path 123736" d="M15.668,47.4a1.318,1.318,0,0,0,.461.454,2.048,2.048,0,0,0,.644.241,3.668,3.668,0,0,0,.739.073,4.435,4.435,0,0,0,.614-.044,2.248,2.248,0,0,0,.593-.16,1.119,1.119,0,0,0,.446-.345.912.912,0,0,0,.176-.577.829.829,0,0,0-.366-.732,3.1,3.1,0,0,0-.915-.4q-.547-.155-1.192-.278a6.13,6.13,0,0,1-1.193-.352,2.465,2.465,0,0,1-.914-.636A1.652,1.652,0,0,1,14.4,43.5a1.81,1.81,0,0,1,.256-.981,2.086,2.086,0,0,1,.659-.666,3.039,3.039,0,0,1,.906-.38,4.179,4.179,0,0,1,1-.124,5.987,5.987,0,0,1,1.185.109,2.751,2.751,0,0,1,.959.381,1.968,1.968,0,0,1,.666.731,2.794,2.794,0,0,1,.292,1.149H19.077a1.191,1.191,0,0,0-.6-.995,1.887,1.887,0,0,0-.548-.212,2.831,2.831,0,0,0-.608-.066,3.732,3.732,0,0,0-.563.044,1.858,1.858,0,0,0-.519.154,1.051,1.051,0,0,0-.381.292.743.743,0,0,0-.146.476.7.7,0,0,0,.226.534,1.84,1.84,0,0,0,.579.351,4.97,4.97,0,0,0,.79.234c.292.064.585.129.878.2a9.372,9.372,0,0,1,.914.248,2.983,2.983,0,0,1,.79.388,1.9,1.9,0,0,1,.557.608,1.8,1.8,0,0,1,.211.907,2.1,2.1,0,0,1-.285,1.141,2.219,2.219,0,0,1-.746.731,3.1,3.1,0,0,1-1.039.388,6.163,6.163,0,0,1-1.148.11,5.3,5.3,0,0,1-1.2-.132,2.966,2.966,0,0,1-1.01-.431,2.2,2.2,0,0,1-.7-.79,2.756,2.756,0,0,1-.292-1.193h1.244A1.392,1.392,0,0,0,15.668,47.4Z" transform="translate(-4.445 -38.646)" fill="#fff"/>
    <path id="Path_123737" data-name="Path 123737" d="M24.945,41.528v1.1H23.438v4.7a1.379,1.379,0,0,0,.036.351.366.366,0,0,0,.139.205.622.622,0,0,0,.286.095,4.288,4.288,0,0,0,.475.022h.571v1.1h-.951a4.553,4.553,0,0,1-.827-.065,1.216,1.216,0,0,1-.556-.243,1.025,1.025,0,0,1-.315-.5,2.879,2.879,0,0,1-.1-.848V42.626H20.906v-1.1h1.288V39.26h1.244v2.268Z" transform="translate(-4.445 -38.646)" fill="#fff"/>
    <path id="Path_123738" data-name="Path 123738" d="M27.374,41.528v1.6H27.4a3.374,3.374,0,0,1,1.112-1.361,2.8,2.8,0,0,1,1.669-.409V42.67a3.515,3.515,0,0,0-1.274.205,2,2,0,0,0-.848.6,2.459,2.459,0,0,0-.468.959,5.145,5.145,0,0,0-.147,1.3v3.365H26.2V41.528Z" transform="translate(-4.445 -38.646)" fill="#fff"/>
    <path id="Path_123739" data-name="Path 123739" d="M37.842,49.064a1.759,1.759,0,0,1-.893.19,1.071,1.071,0,0,1-.769-.271A1.18,1.18,0,0,1,35.9,48.1a2.968,2.968,0,0,1-1.192.885,4.119,4.119,0,0,1-2.444.154,2.25,2.25,0,0,1-.8-.365,1.756,1.756,0,0,1-.533-.652,2.184,2.184,0,0,1-.2-.973,2.224,2.224,0,0,1,.219-1.053,1.92,1.92,0,0,1,.579-.666,2.637,2.637,0,0,1,.819-.388,9.6,9.6,0,0,1,.944-.219c.341-.069.666-.12.973-.154a5.326,5.326,0,0,0,.812-.147,1.35,1.35,0,0,0,.556-.277.682.682,0,0,0,.205-.534,1.236,1.236,0,0,0-.154-.659,1.042,1.042,0,0,0-.4-.38,1.593,1.593,0,0,0-.542-.176,4.109,4.109,0,0,0-.592-.044,2.623,2.623,0,0,0-1.316.3,1.271,1.271,0,0,0-.571,1.134H31.023a2.688,2.688,0,0,1,.292-1.185,2.221,2.221,0,0,1,.7-.783,2.948,2.948,0,0,1,1-.432,5.335,5.335,0,0,1,1.207-.131,7.038,7.038,0,0,1,1.017.073,2.643,2.643,0,0,1,.915.3,1.757,1.757,0,0,1,.658.635,2.029,2.029,0,0,1,.249,1.066V47.31a2.9,2.9,0,0,0,.051.642c.034.136.148.205.344.205a1.522,1.522,0,0,0,.381-.059Zm-2.02-3.878a1.539,1.539,0,0,1-.615.255c-.253.054-.519.1-.8.131s-.558.073-.841.117a3.074,3.074,0,0,0-.761.211,1.372,1.372,0,0,0-.549.415,1.16,1.16,0,0,0-.212.735,1,1,0,0,0,.125.517,1.013,1.013,0,0,0,.321.342,1.354,1.354,0,0,0,.461.19,2.562,2.562,0,0,0,.556.058,2.953,2.953,0,0,0,1.054-.168,2.218,2.218,0,0,0,.717-.422,1.658,1.658,0,0,0,.409-.553,1.392,1.392,0,0,0,.132-.561Z" transform="translate(-4.445 -38.646)" fill="#fff"/>
    <path id="Path_123740" data-name="Path 123740" d="M45.143,39.816h-6v-1.17h7.638v1.17L40.3,47.923h6.658v1.17H38.645v-1.17Z" transform="translate(-4.445 -38.646)" fill="#fff"/>
    <path id="Path_123741" data-name="Path 123741" d="M53.391,48.61a3.429,3.429,0,0,1-2.136.644,3.892,3.892,0,0,1-1.574-.293,3.1,3.1,0,0,1-1.119-.819,3.488,3.488,0,0,1-.681-1.258,6.134,6.134,0,0,1-.256-1.595,4.562,4.562,0,0,1,.264-1.58,3.767,3.767,0,0,1,.739-1.244,3.377,3.377,0,0,1,1.126-.82,3.447,3.447,0,0,1,1.428-.292,3.1,3.1,0,0,1,1.674.417,3.311,3.311,0,0,1,1.069,1.06,4.221,4.221,0,0,1,.556,1.4,6.023,6.023,0,0,1,.124,1.449H48.943a3.024,3.024,0,0,0,.116.944,2.145,2.145,0,0,0,.425.79,2.1,2.1,0,0,0,.746.549,2.586,2.586,0,0,0,1.068.2,2.149,2.149,0,0,0,1.3-.366,1.769,1.769,0,0,0,.665-1.112h1.229A3.021,3.021,0,0,1,53.391,48.61Zm-.3-4.858a2.1,2.1,0,0,0-1.127-1.133,2.113,2.113,0,0,0-.856-.169,2.155,2.155,0,0,0-.871.169,2.005,2.005,0,0,0-.665.46,2.2,2.2,0,0,0-.439.681,2.555,2.555,0,0,0-.19.826h4.345A2.543,2.543,0,0,0,53.091,43.752Z" transform="translate(-4.445 -38.646)" fill="#fff"/>
    <path id="Path_123742" data-name="Path 123742" d="M56.844,41.528v1.2h.03a2.616,2.616,0,0,1,2.458-1.375,3.291,3.291,0,0,1,1.243.2,2.048,2.048,0,0,1,.805.571,2.119,2.119,0,0,1,.432.871,4.727,4.727,0,0,1,.124,1.119v4.975H60.693V43.972a1.507,1.507,0,0,0-.41-1.112,1.527,1.527,0,0,0-1.127-.41,2.517,2.517,0,0,0-.988.176,1.854,1.854,0,0,0-.695.5,2.157,2.157,0,0,0-.417.754,3.085,3.085,0,0,0-.139.944v4.272H55.673V41.528Z" transform="translate(-4.445 -38.646)" fill="#fff"/>
    <path id="Path_123743" data-name="Path 123743" d="M68.535,48.61a3.427,3.427,0,0,1-2.136.644,3.887,3.887,0,0,1-1.573-.293,3.107,3.107,0,0,1-1.12-.819,3.486,3.486,0,0,1-.68-1.258,6.092,6.092,0,0,1-.256-1.595,4.563,4.563,0,0,1,.263-1.58,3.786,3.786,0,0,1,.74-1.244,3.367,3.367,0,0,1,1.126-.82,3.443,3.443,0,0,1,1.427-.292A3.1,3.1,0,0,1,68,41.77a3.308,3.308,0,0,1,1.068,1.06,4.221,4.221,0,0,1,.556,1.4,6.077,6.077,0,0,1,.125,1.449H64.087a3,3,0,0,0,.117.944,2.128,2.128,0,0,0,.424.79,2.1,2.1,0,0,0,.746.549,2.591,2.591,0,0,0,1.069.2,2.146,2.146,0,0,0,1.295-.366,1.765,1.765,0,0,0,.665-1.112h1.229A3.017,3.017,0,0,1,68.535,48.61Zm-.3-4.858a2.2,2.2,0,0,0-2.854-1.133,2.01,2.01,0,0,0-.666.46,2.213,2.213,0,0,0-.439.681,2.582,2.582,0,0,0-.19.826h4.346A2.568,2.568,0,0,0,68.236,43.752Z" transform="translate(-4.445 -38.646)" fill="#fff"/>
    <path id="Path_123744" data-name="Path 123744" d="M75.368,42.845a1.888,1.888,0,0,0-1.258-.4,2.317,2.317,0,0,0-1.127.249,2.009,2.009,0,0,0-.724.658,2.76,2.76,0,0,0-.388.944,5.146,5.146,0,0,0-.117,1.1,4.15,4.15,0,0,0,.125,1.024,2.706,2.706,0,0,0,.387.885,1.963,1.963,0,0,0,.688.622,2.352,2.352,0,0,0,2.451-.249,2.18,2.18,0,0,0,.636-1.361h1.274a3.49,3.49,0,0,1-1.047,2.166,3.288,3.288,0,0,1-2.29.761,3.949,3.949,0,0,1-1.529-.278,2.957,2.957,0,0,1-1.112-.79,3.421,3.421,0,0,1-.673-1.222,5.069,5.069,0,0,1-.227-1.558,5.566,5.566,0,0,1,.219-1.588,3.671,3.671,0,0,1,.666-1.287,3.123,3.123,0,0,1,1.12-.864,3.669,3.669,0,0,1,1.566-.314,4.592,4.592,0,0,1,1.207.153,2.951,2.951,0,0,1,1,.476,2.59,2.59,0,0,1,.709.812,2.986,2.986,0,0,1,.351,1.163H75.983A1.9,1.9,0,0,0,75.368,42.845Z" transform="translate(-4.445 -38.646)" fill="#fff"/>
    <path id="Path_123745" data-name="Path 123745" d="M85.127,49.064a1.759,1.759,0,0,1-.893.19,1.07,1.07,0,0,1-.768-.271,1.176,1.176,0,0,1-.285-.885,2.968,2.968,0,0,1-1.192.885,4.119,4.119,0,0,1-2.444.154,2.25,2.25,0,0,1-.8-.365,1.756,1.756,0,0,1-.533-.652,2.184,2.184,0,0,1-.2-.973,2.224,2.224,0,0,1,.219-1.053,1.907,1.907,0,0,1,.578-.666,2.647,2.647,0,0,1,.819-.388,9.624,9.624,0,0,1,.945-.219c.341-.069.666-.12.973-.154a5.349,5.349,0,0,0,.812-.147,1.339,1.339,0,0,0,.555-.277.679.679,0,0,0,.205-.534,1.236,1.236,0,0,0-.154-.659,1.039,1.039,0,0,0-.394-.38,1.6,1.6,0,0,0-.542-.176,4.119,4.119,0,0,0-.592-.044,2.629,2.629,0,0,0-1.317.3,1.273,1.273,0,0,0-.571,1.134H78.308A2.688,2.688,0,0,1,78.6,42.7a2.228,2.228,0,0,1,.7-.783,2.954,2.954,0,0,1,1-.432,5.329,5.329,0,0,1,1.207-.131,7.058,7.058,0,0,1,1.017.073,2.657,2.657,0,0,1,.915.3,1.765,1.765,0,0,1,.658.635,2.039,2.039,0,0,1,.248,1.066V47.31a2.9,2.9,0,0,0,.051.642c.035.136.149.205.345.205a1.509,1.509,0,0,0,.38-.059Zm-2.019-3.878a1.538,1.538,0,0,1-.615.255c-.254.054-.519.1-.8.131s-.559.073-.841.117a3.07,3.07,0,0,0-.762.211,1.376,1.376,0,0,0-.548.415,1.154,1.154,0,0,0-.212.735,1,1,0,0,0,.124.517,1.025,1.025,0,0,0,.322.342,1.354,1.354,0,0,0,.461.19,2.562,2.562,0,0,0,.556.058,2.948,2.948,0,0,0,1.053-.168,2.2,2.2,0,0,0,.717-.422,1.675,1.675,0,0,0,.41-.553,1.392,1.392,0,0,0,.132-.561Z" transform="translate(-4.445 -38.646)" fill="#fff"/>
    <path id="Path_123746" data-name="Path 123746" d="M95.53,38.646a3.441,3.441,0,0,1,2.334.731,2.519,2.519,0,0,1,.842,2.005,3.169,3.169,0,0,1-.432,1.668,2.226,2.226,0,0,1-1.383.981v.028a1.878,1.878,0,0,1,.739.293,1.612,1.612,0,0,1,.454.49,2.219,2.219,0,0,1,.248.637,6.566,6.566,0,0,1,.125.732c.019.253.034.512.044.775a6.822,6.822,0,0,0,.073.776,4.784,4.784,0,0,0,.168.724,1.784,1.784,0,0,0,.329.607h-1.55a.856.856,0,0,1-.2-.439,4.271,4.271,0,0,1-.066-.622q-.015-.344-.03-.739a4.981,4.981,0,0,0-.087-.775q-.059-.381-.147-.724a1.658,1.658,0,0,0-.278-.6,1.356,1.356,0,0,0-.5-.41,1.848,1.848,0,0,0-.819-.154H92v4.463h-1.39V38.646Zm.293,4.741a2,2,0,0,0,.768-.286,1.548,1.548,0,0,0,.527-.57,1.915,1.915,0,0,0,.2-.93,1.876,1.876,0,0,0-.439-1.287,1.806,1.806,0,0,0-1.42-.5H92V43.46h2.9A5.694,5.694,0,0,0,95.823,43.387Z" transform="translate(-4.445 -38.646)" fill="#fff"/>
    <path id="Path_123747" data-name="Path 123747" d="M106.827,49.064a1.759,1.759,0,0,1-.893.19,1.067,1.067,0,0,1-.768-.271,1.176,1.176,0,0,1-.285-.885,2.971,2.971,0,0,1-1.193.885,4.115,4.115,0,0,1-2.443.154,2.25,2.25,0,0,1-.8-.365,1.758,1.758,0,0,1-.534-.652,2.561,2.561,0,0,1,.022-2.026,1.907,1.907,0,0,1,.578-.666,2.648,2.648,0,0,1,.819-.388,9.6,9.6,0,0,1,.944-.219q.513-.1.973-.154a5.364,5.364,0,0,0,.813-.147,1.339,1.339,0,0,0,.555-.277.679.679,0,0,0,.205-.534,1.236,1.236,0,0,0-.154-.659,1.042,1.042,0,0,0-.395-.38,1.587,1.587,0,0,0-.541-.176,4.12,4.12,0,0,0-.592-.044,2.624,2.624,0,0,0-1.317.3,1.273,1.273,0,0,0-.571,1.134h-1.244A2.7,2.7,0,0,1,100.3,42.7a2.231,2.231,0,0,1,.7-.783,2.954,2.954,0,0,1,1-.432,5.329,5.329,0,0,1,1.207-.131,7.034,7.034,0,0,1,1.016.073,2.643,2.643,0,0,1,.915.3,1.76,1.76,0,0,1,.659.635,2.039,2.039,0,0,1,.248,1.066V47.31a2.9,2.9,0,0,0,.051.642c.035.136.149.205.345.205a1.516,1.516,0,0,0,.38-.059Zm-2.019-3.878a1.551,1.551,0,0,1-.615.255c-.254.054-.519.1-.8.131s-.559.073-.842.117a3.074,3.074,0,0,0-.761.211,1.369,1.369,0,0,0-.548.415,1.154,1.154,0,0,0-.212.735,1,1,0,0,0,.124.517,1.016,1.016,0,0,0,.322.342,1.337,1.337,0,0,0,.461.19,2.562,2.562,0,0,0,.556.058,2.948,2.948,0,0,0,1.053-.168,2.208,2.208,0,0,0,.717-.422,1.675,1.675,0,0,0,.41-.553,1.409,1.409,0,0,0,.132-.561Z" transform="translate(-4.445 -38.646)" fill="#fff"/>
    <path id="Path_123748" data-name="Path 123748" d="M109.165,41.528v1.6h.029a3.374,3.374,0,0,1,1.112-1.361,2.8,2.8,0,0,1,1.669-.409V42.67a3.506,3.506,0,0,0-1.273.205,2,2,0,0,0-.849.6,2.473,2.473,0,0,0-.468.959,5.148,5.148,0,0,0-.146,1.3v3.365h-1.245V41.528Z" transform="translate(-4.445 -38.646)" fill="#fff"/>
    <path id="Path_123749" data-name="Path 123749" d="M118.206,48.61a3.429,3.429,0,0,1-2.136.644,3.892,3.892,0,0,1-1.574-.293,3.1,3.1,0,0,1-1.119-.819,3.488,3.488,0,0,1-.681-1.258,6.133,6.133,0,0,1-.256-1.595,4.562,4.562,0,0,1,.264-1.58,3.767,3.767,0,0,1,.739-1.244,3.377,3.377,0,0,1,1.126-.82A3.447,3.447,0,0,1,116,41.353a3.1,3.1,0,0,1,1.674.417,3.311,3.311,0,0,1,1.069,1.06,4.221,4.221,0,0,1,.556,1.4,6.022,6.022,0,0,1,.124,1.449h-5.662a3.024,3.024,0,0,0,.116.944,2.145,2.145,0,0,0,.425.79,2.1,2.1,0,0,0,.746.549,2.586,2.586,0,0,0,1.068.2,2.149,2.149,0,0,0,1.3-.366,1.769,1.769,0,0,0,.665-1.112H119.3A3.021,3.021,0,0,1,118.206,48.61Zm-.3-4.858a2.1,2.1,0,0,0-1.127-1.133,2.113,2.113,0,0,0-.856-.169,2.155,2.155,0,0,0-.871.169,2.02,2.02,0,0,0-.666.46,2.211,2.211,0,0,0-.438.681,2.555,2.555,0,0,0-.19.826H118.1A2.543,2.543,0,0,0,117.906,43.752Z" transform="translate(-4.445 -38.646)" fill="#fff"/>
    <path id="Path_123750" data-name="Path 123750" d="M128.624,38.646a5.21,5.21,0,0,1,3.716,1.229,4.921,4.921,0,0,1,1.3,3.746,8.461,8.461,0,0,1-.293,2.334,4.352,4.352,0,0,1-.908,1.711,3.91,3.91,0,0,1-1.565,1.061,6.267,6.267,0,0,1-2.253.366h-3.585V38.646Zm.117,9.277a5.664,5.664,0,0,0,.585-.037,3.262,3.262,0,0,0,.747-.176,3.4,3.4,0,0,0,.782-.4,2.619,2.619,0,0,0,.7-.717,3.976,3.976,0,0,0,.5-1.134,5.984,5.984,0,0,0,.2-1.646,7,7,0,0,0-.183-1.676,3.215,3.215,0,0,0-.6-1.258,2.625,2.625,0,0,0-1.075-.79,4.29,4.29,0,0,0-1.624-.271h-2.341v8.107Z" transform="translate(-4.445 -38.646)" fill="#fff"/>
    <path id="Path_123751" data-name="Path 123751" d="M134.711,40.168V38.646h1.243v1.522Zm1.243,1.36v7.565h-1.243V41.528Z" transform="translate(-4.445 -38.646)" fill="#fff"/>
    <path id="Path_123752" data-name="Path 123752" d="M138.559,47.4a1.318,1.318,0,0,0,.461.454,2.048,2.048,0,0,0,.644.241,3.668,3.668,0,0,0,.739.073,4.435,4.435,0,0,0,.614-.044,2.248,2.248,0,0,0,.593-.16,1.119,1.119,0,0,0,.446-.345.912.912,0,0,0,.176-.577.829.829,0,0,0-.366-.732,3.1,3.1,0,0,0-.915-.4q-.548-.155-1.192-.278a6.13,6.13,0,0,1-1.193-.352,2.465,2.465,0,0,1-.914-.636,1.647,1.647,0,0,1-.366-1.141,1.81,1.81,0,0,1,.256-.981,2.086,2.086,0,0,1,.659-.666,3.039,3.039,0,0,1,.906-.38,4.179,4.179,0,0,1,1-.124,5.987,5.987,0,0,1,1.185.109,2.751,2.751,0,0,1,.959.381,1.968,1.968,0,0,1,.666.731,2.794,2.794,0,0,1,.292,1.149h-1.244a1.191,1.191,0,0,0-.6-.995,1.887,1.887,0,0,0-.548-.212,2.831,2.831,0,0,0-.608-.066,3.732,3.732,0,0,0-.563.044,1.858,1.858,0,0,0-.519.154,1.051,1.051,0,0,0-.381.292.743.743,0,0,0-.146.476.7.7,0,0,0,.226.534,1.84,1.84,0,0,0,.579.351,4.97,4.97,0,0,0,.79.234c.292.064.585.129.878.2a9.373,9.373,0,0,1,.914.248,2.983,2.983,0,0,1,.79.388,1.882,1.882,0,0,1,.556.608,1.785,1.785,0,0,1,.212.907,2.1,2.1,0,0,1-.285,1.141,2.219,2.219,0,0,1-.746.731,3.1,3.1,0,0,1-1.039.388,6.162,6.162,0,0,1-1.148.11,5.3,5.3,0,0,1-1.2-.132,2.966,2.966,0,0,1-1.01-.431,2.2,2.2,0,0,1-.7-.79,2.756,2.756,0,0,1-.292-1.193h1.244A1.392,1.392,0,0,0,138.559,47.4Z" transform="translate(-4.445 -38.646)" fill="#fff"/>
    <path id="Path_123753" data-name="Path 123753" d="M149.972,48.61a3.429,3.429,0,0,1-2.136.644,3.9,3.9,0,0,1-1.574-.293,3.112,3.112,0,0,1-1.119-.819,3.486,3.486,0,0,1-.68-1.258,6.05,6.05,0,0,1-.256-1.595,4.562,4.562,0,0,1,.263-1.58,3.784,3.784,0,0,1,.739-1.244,3.371,3.371,0,0,1,1.127-.82,3.439,3.439,0,0,1,1.427-.292,3.1,3.1,0,0,1,1.675.417,3.308,3.308,0,0,1,1.068,1.06,4.221,4.221,0,0,1,.556,1.4,6.023,6.023,0,0,1,.124,1.449h-5.662a3,3,0,0,0,.117.944,2.128,2.128,0,0,0,.424.79,2.1,2.1,0,0,0,.746.549,2.589,2.589,0,0,0,1.068.2,2.147,2.147,0,0,0,1.3-.366,1.765,1.765,0,0,0,.665-1.112h1.229A3.017,3.017,0,0,1,149.972,48.61Zm-.3-4.858a2.117,2.117,0,0,0-.454-.68,2.144,2.144,0,0,0-.673-.453,2.112,2.112,0,0,0-.855-.169,2.148,2.148,0,0,0-.871.169,2,2,0,0,0-.666.46,2.213,2.213,0,0,0-.439.681,2.555,2.555,0,0,0-.19.826h4.346A2.569,2.569,0,0,0,149.672,43.752Z" transform="translate(-4.445 -38.646)" fill="#fff"/>
    <path id="Path_123754" data-name="Path 123754" d="M159.2,49.064a1.759,1.759,0,0,1-.893.19,1.07,1.07,0,0,1-.768-.271,1.176,1.176,0,0,1-.285-.885,2.968,2.968,0,0,1-1.192.885,4.119,4.119,0,0,1-2.444.154,2.25,2.25,0,0,1-.8-.365,1.756,1.756,0,0,1-.533-.652,2.184,2.184,0,0,1-.2-.973,2.224,2.224,0,0,1,.219-1.053,1.907,1.907,0,0,1,.578-.666,2.648,2.648,0,0,1,.819-.388,9.624,9.624,0,0,1,.945-.219c.341-.069.666-.12.973-.154a5.349,5.349,0,0,0,.812-.147,1.339,1.339,0,0,0,.555-.277.679.679,0,0,0,.205-.534,1.236,1.236,0,0,0-.154-.659,1.039,1.039,0,0,0-.394-.38,1.6,1.6,0,0,0-.542-.176,4.12,4.12,0,0,0-.592-.044,2.629,2.629,0,0,0-1.317.3,1.273,1.273,0,0,0-.571,1.134h-1.244a2.7,2.7,0,0,1,.293-1.185,2.228,2.228,0,0,1,.7-.783,2.954,2.954,0,0,1,1-.432,5.329,5.329,0,0,1,1.207-.131,7.048,7.048,0,0,1,1.017.073,2.657,2.657,0,0,1,.915.3,1.765,1.765,0,0,1,.658.635,2.039,2.039,0,0,1,.248,1.066V47.31a2.83,2.83,0,0,0,.052.642c.034.136.148.205.344.205a1.509,1.509,0,0,0,.38-.059Zm-2.019-3.878a1.538,1.538,0,0,1-.615.255c-.254.054-.519.1-.8.131s-.559.073-.841.117a3.082,3.082,0,0,0-.762.211,1.376,1.376,0,0,0-.548.415,1.154,1.154,0,0,0-.212.735,1,1,0,0,0,.124.517,1.025,1.025,0,0,0,.322.342,1.354,1.354,0,0,0,.461.19,2.562,2.562,0,0,0,.556.058,2.948,2.948,0,0,0,1.053-.168,2.2,2.2,0,0,0,.717-.422,1.675,1.675,0,0,0,.41-.553,1.392,1.392,0,0,0,.132-.561Z" transform="translate(-4.445 -38.646)" fill="#fff"/>
    <path id="Path_123755" data-name="Path 123755" d="M161.339,47.4a1.327,1.327,0,0,0,.461.454,2.066,2.066,0,0,0,.644.241,3.668,3.668,0,0,0,.739.073,4.435,4.435,0,0,0,.614-.044,2.248,2.248,0,0,0,.593-.16,1.122,1.122,0,0,0,.447-.345.918.918,0,0,0,.175-.577.829.829,0,0,0-.366-.732,3.1,3.1,0,0,0-.914-.4q-.549-.155-1.193-.278a6.1,6.1,0,0,1-1.192-.352,2.46,2.46,0,0,1-.915-.636,1.652,1.652,0,0,1-.365-1.141,1.8,1.8,0,0,1,.256-.981,2.083,2.083,0,0,1,.658-.666,3.045,3.045,0,0,1,.907-.38,4.171,4.171,0,0,1,1-.124,5.987,5.987,0,0,1,1.185.109,2.743,2.743,0,0,1,.959.381,1.968,1.968,0,0,1,.666.731,2.809,2.809,0,0,1,.293,1.149h-1.245a1.193,1.193,0,0,0-.6-.995,1.894,1.894,0,0,0-.549-.212,2.822,2.822,0,0,0-.607-.066,3.735,3.735,0,0,0-.564.044,1.858,1.858,0,0,0-.519.154,1.048,1.048,0,0,0-.38.292.737.737,0,0,0-.147.476.7.7,0,0,0,.227.534,1.823,1.823,0,0,0,.578.351,5,5,0,0,0,.79.234c.293.064.585.129.878.2a9.372,9.372,0,0,1,.914.248,2.983,2.983,0,0,1,.79.388,1.9,1.9,0,0,1,.557.608,1.785,1.785,0,0,1,.212.907,2.108,2.108,0,0,1-.285,1.141,2.229,2.229,0,0,1-.746.731,3.108,3.108,0,0,1-1.04.388,6.154,6.154,0,0,1-1.148.11,5.3,5.3,0,0,1-1.2-.132,2.974,2.974,0,0,1-1.01-.431,2.208,2.208,0,0,1-.7-.79,2.742,2.742,0,0,1-.293-1.193h1.244A1.392,1.392,0,0,0,161.339,47.4Z" transform="translate(-4.445 -38.646)" fill="#fff"/>
    <path id="Path_123756" data-name="Path 123756" d="M172.752,48.61a3.427,3.427,0,0,1-2.136.644,3.887,3.887,0,0,1-1.573-.293,3.107,3.107,0,0,1-1.12-.819,3.5,3.5,0,0,1-.68-1.258,6.092,6.092,0,0,1-.256-1.595,4.539,4.539,0,0,1,.264-1.58,3.767,3.767,0,0,1,.739-1.244,3.367,3.367,0,0,1,1.126-.82,3.443,3.443,0,0,1,1.427-.292,3.1,3.1,0,0,1,1.675.417,3.308,3.308,0,0,1,1.068,1.06,4.2,4.2,0,0,1,.556,1.4,6.025,6.025,0,0,1,.125,1.449H168.3a3,3,0,0,0,.117.944,2.143,2.143,0,0,0,.424.79,2.1,2.1,0,0,0,.746.549,2.591,2.591,0,0,0,1.069.2,2.146,2.146,0,0,0,1.295-.366,1.765,1.765,0,0,0,.665-1.112h1.229A3.017,3.017,0,0,1,172.752,48.61Zm-.3-4.858a2.2,2.2,0,0,0-2.854-1.133,2.01,2.01,0,0,0-.666.46,2.232,2.232,0,0,0-.439.681,2.581,2.581,0,0,0-.19.826h4.346A2.568,2.568,0,0,0,172.453,43.752Z" transform="translate(-4.445 -38.646)" fill="#fff"/>
  </g>
</svg>
