<svg id="Icon_Facebook" xmlns="http://www.w3.org/2000/svg" xmlns:xlink="http://www.w3.org/1999/xlink" width="45" height="45" viewBox="0 0 45 45">
  <defs>
    <clipPath id="clip-path">
      <path id="Path_136472" data-name="Path 136472" d="M22.5-71A22.5,22.5,0,0,0,45-93.5,22.5,22.5,0,0,0,22.5-116,22.5,22.5,0,0,0,0-93.5,22.5,22.5,0,0,0,22.5-71Z" transform="translate(0 116)" fill="none" clip-rule="evenodd"/>
    </clipPath>
    <clipPath id="clip-path-2">
      <path id="Path_136475" data-name="Path 136475" d="M48.313-64.621V-76.653h4l.6-4.69h-4.6v-2.994c0-1.357.373-2.283,2.3-2.283l2.461,0v-4.194A32.634,32.634,0,0,0,49.491-91c-3.549,0-5.978,2.186-5.978,6.2v3.458H39.5v4.69h4.013v12.032Z" transform="translate(-39.5 91)" fill="none" clip-rule="evenodd"/>
    </clipPath>
    <clipPath id="clip-path-3">
      <path id="Path_136474" data-name="Path 136474" d="M39.5-64.621H53.078V-91H39.5Z" transform="translate(-39.5 91)" fill="none"/>
    </clipPath>
  </defs>
  <g id="Group_16185" data-name="Group 16185" clip-path="url(#clip-path)">
    <path id="Path_136471" data-name="Path 136471" d="M-1-117H44.776v45.776H-1Z" transform="translate(0.612 116.612)" fill="#fff"/>
  </g>
  <g id="Group_16187" data-name="Group 16187" transform="translate(15.323 9.699)" clip-path="url(#clip-path-2)">
    <g id="Group_16186" data-name="Group 16186" clip-path="url(#clip-path-3)">
      <path id="Path_136473" data-name="Path 136473" d="M38.5-92H52.853v27.155H38.5Z" transform="translate(-38.888 91.612)" fill="#005d54"/>
    </g>
  </g>
</svg>
