<svg xmlns="http://www.w3.org/2000/svg" width="48.527" height="48.527" viewBox="0 0 48.527 48.527">
  <path id="Path_136097" data-name="Path 136097" d="M108.773,898.879V885.892a2.5,2.5,0,0,0-2.505-2.5H93.732a2.5,2.5,0,0,0-2.505,2.5v12.987H78.241a2.5,2.5,0,0,0-2.5,2.5v12.536a2.506,2.506,0,0,0,2.5,2.505H91.227V929.41a2.506,2.506,0,0,0,2.505,2.505h12.536a2.506,2.506,0,0,0,2.505-2.505V916.424h12.986a2.5,2.5,0,0,0,2.5-2.505V901.383a2.5,2.5,0,0,0-2.5-2.5Z" transform="translate(-75.736 -883.388)" fill="#bc3541"/>
</svg>
