<svg xmlns="http://www.w3.org/2000/svg" width="67.074" height="61.797" viewBox="0 0 67.074 61.797">
  <g id="Group_15878" data-name="Group 15878" transform="translate(-971.295 -187.6)">
    <path id="Path_136085" data-name="Path 136085" d="M974.744,267.936a.991.991,0,0,1-1.369-.44c-4.368-8.976-1.767-17.08,6.966-22.015,8.5-4.805,16.24-3.832,20.407,3.542,5.591,9.893-3.328,16.593.289,24.473a.985.985,0,0,1-.4,1.272l-6.007,3.4a.986.986,0,0,1-1.365-.413c-4.927-9.83,2.818-14.966-1.007-21.736-1.8-3.188-4.687-3.486-8.075-1.572-3.421,1.934-4.424,4.883-2.76,8.779a.985.985,0,0,1-.424,1.25Zm34.1,16.655a5.88,5.88,0,1,1-10.23,5.781,5.877,5.877,0,1,1,10.23-5.781Z" transform="translate(0 -44.201)" fill="#dfdf00"/>
    <path id="Path_136086" data-name="Path 136086" d="M1191.491,200.334a.989.989,0,0,1-1-1.036c.357-7.206,4.84-11.49,12.158-11.689,7.217-.2,11.935,3.117,12.1,9.376.226,8.317-7.762,9.662-8.269,15.9a.973.973,0,0,1-.952.879l-4.593.125a.98.98,0,0,1-1.011-1.009c.33-7.868,7.01-8.592,6.856-14.272-.074-2.706-1.855-3.9-4.731-3.821-2.836.077-4.5,1.585-4.82,4.561a.989.989,0,0,1-.959.893Zm16.235,22.685a4.347,4.347,0,1,1-8.683.236,4.345,4.345,0,1,1,8.683-.236Z" transform="translate(-176.384)" fill="#1b274d"/>
  </g>
</svg>
