<svg xmlns="http://www.w3.org/2000/svg" width="69.907" height="69.653" viewBox="0 0 69.907 69.653">
  <g id="Group_15884" data-name="Group 15884" transform="translate(-630.407 -1001.83)">
    <circle id="Ellipse_684" data-name="Ellipse 684" cx="15" cy="15" r="15" transform="translate(645.444 1017)" fill="#969696" opacity="0.258"/>
    <g id="Group_15889" data-name="Group 15889" transform="translate(-549.457 787.266) rotate(-45)">
      <g id="Group_15888" data-name="Group 15888" transform="translate(-1546.809 919.44)">
        <g id="Group_15885" data-name="Group 15885" transform="translate(2225.95 126.052)">
          <path id="Path_136098" data-name="Path 136098" d="M2259.982,189.1,2258.2,217.8c-.089,1.434,1.453,2.648,3.444,2.712s3.677-1.047,3.766-2.481a1.836,1.836,0,0,0,0-.249l-2.031-28.7c-.048-.674-.845-1.193-1.782-1.158A1.527,1.527,0,0,0,2259.982,189.1Z" transform="translate(-2258.192 -187.927)" fill="#1b274d" stroke="#1b274d" stroke-width="3"/>
        </g>
        <g id="Group_15886" data-name="Group 15886" transform="translate(2218.507 98.075)">
          <path id="Path_136099" data-name="Path 136099" d="M2232.191,125.641a1.315,1.315,0,0,0,.354-.051,1.279,1.279,0,0,0,.868-1.585,8.247,8.247,0,0,1-.336-2.276,8.453,8.453,0,0,1,8.491-8.389,8.618,8.618,0,0,1,4.3,1.135,1.278,1.278,0,0,0,1.267-2.22,11.194,11.194,0,0,0-5.572-1.47,11.011,11.011,0,0,0-11.038,10.953,10.771,10.771,0,0,0,.438,2.985A1.278,1.278,0,0,0,2232.191,125.641Z" transform="translate(-2230.523 -110.785)" fill="#fff" stroke="#fff" stroke-width="1"/>
        </g>
        <g id="Group_15887" data-name="Group 15887" transform="translate(2209.598 89.35)">
          <path id="Path_136100" data-name="Path 136100" d="M2218.03,117.629a19.792,19.792,0,1,1,7.79,15.66A19.809,19.809,0,0,1,2218.03,117.629Zm3.391-.011a16.389,16.389,0,1,0,16.339-16.444A16.4,16.4,0,0,0,2221.42,117.617Z" transform="translate(-2218.03 -97.782)" fill="#1b274d" stroke="#1b274d" stroke-width="3"/>
        </g>
      </g>
    </g>
  </g>
</svg>
