<svg id="Group_16198" data-name="Group 16198" xmlns="http://www.w3.org/2000/svg" xmlns:xlink="http://www.w3.org/1999/xlink" width="45" height="45" viewBox="0 0 45 45">
  <defs>
    <clipPath id="clip-path">
      <path id="Path_136486" data-name="Path 136486" d="M23-71A22.5,22.5,0,0,0,45.5-93.5,22.5,22.5,0,0,0,23-116,22.5,22.5,0,0,0,.5-93.5,22.5,22.5,0,0,0,23-71Z" transform="translate(-0.5 116)" fill="none" clip-rule="evenodd"/>
    </clipPath>
    <clipPath id="clip-path-2">
      <path id="Path_136489" data-name="Path 136489" d="M34.427-69.725v-7.749l7.442,3.888Zm16.341-9.091a5.975,5.975,0,0,0-1.1-2.737,3.936,3.936,0,0,0-2.759-1.168C43.059-83,37.277-83,37.277-83h-.012s-5.782,0-9.636.279a3.937,3.937,0,0,0-2.76,1.168,5.97,5.97,0,0,0-1.094,2.737,41.7,41.7,0,0,0-.276,4.463v2.093a41.7,41.7,0,0,0,.276,4.463,5.973,5.973,0,0,0,1.094,2.737,4.667,4.667,0,0,0,3.037,1.178c2.2.212,9.365.277,9.365.277s5.787-.009,9.642-.288a3.94,3.94,0,0,0,2.759-1.168,5.978,5.978,0,0,0,1.1-2.737,41.821,41.821,0,0,0,.275-4.463v-2.093a41.82,41.82,0,0,0-.275-4.463Z" transform="translate(-23.5 83)" fill="none" clip-rule="evenodd"/>
    </clipPath>
    <clipPath id="clip-path-3">
      <path id="Path_136488" data-name="Path 136488" d="M23.5-63.6H51.043V-83H23.5Z" transform="translate(-23.5 83)" fill="none"/>
    </clipPath>
  </defs>
  <g id="Icon_YouTube">
    <g id="Group_16195" data-name="Group 16195" clip-path="url(#clip-path)">
      <path id="Path_136485" data-name="Path 136485" d="M-.5-117H45.276v45.776H-.5Z" transform="translate(0.112 116.612)" fill="#fff"/>
    </g>
    <g id="Group_16197" data-name="Group 16197" transform="translate(8.922 12.801)" clip-path="url(#clip-path-2)">
      <g id="Group_16196" data-name="Group 16196" clip-path="url(#clip-path-3)">
        <path id="Path_136487" data-name="Path 136487" d="M22.5-84H50.819v20.172H22.5Z" transform="translate(-22.888 83.612)" fill="#005d54"/>
      </g>
    </g>
  </g>
</svg>
